<svg width="132" height="139" viewBox="0 0 132 139" fill="none" xmlns="http://www.w3.org/2000/svg">
<g id="noun-add-7410757 1" clip-path="url(#clip0_5354_51210)">
<path id="Vector" d="M60.1579 47.2657C59.5095 46.8662 58.6095 47.1522 58.1456 47.9052C57.6817 48.6581 57.831 49.5906 58.4794 49.9901L77.2476 61.5534C77.896 61.9529 78.796 61.6669 79.2599 60.9139C79.7238 60.161 79.5745 59.2285 78.9262 58.829L60.1579 47.2657Z" fill="#F6B97B"/>
<path id="Vector_2" d="M55.9616 54.0743C55.3132 53.6748 54.4132 53.9608 53.9493 54.7138C53.4854 55.4667 53.6346 56.3992 54.283 56.7987L73.0513 68.362C73.6996 68.7615 74.5996 68.4755 75.0635 67.7225C75.5274 66.9696 75.3782 66.0371 74.7298 65.6376L55.9616 54.0743Z" fill="#F6B97B"/>
<path id="Vector_3" d="M42.151 66.2372C42.6149 65.4842 43.5995 65.2504 44.3525 65.7143L57.9746 74.107C58.7276 74.5709 58.9614 75.5556 58.4975 76.3085C58.0336 77.0614 57.049 77.2953 56.2961 76.8314L42.6739 68.4387C41.921 67.9748 41.6871 66.9902 42.151 66.2372Z" fill="#F6B97B"/>
<path id="Vector_4" d="M78.8823 81.351C79.3462 80.598 79.1123 79.6134 78.3593 79.1495C77.6064 78.6856 76.6217 78.9195 76.1578 79.6724L73.64 83.7591L69.5534 81.2412C68.8004 80.7773 67.8158 81.0112 67.3519 81.7642C66.888 82.5171 67.1219 83.5018 67.8748 83.9657L71.9615 86.4835L69.4437 90.5701C68.9797 91.3231 69.2137 92.3077 69.9666 92.7716C70.7195 93.2355 71.7042 93.0016 72.1681 92.2487L74.6859 88.162L78.7725 90.6799C79.5255 91.1438 80.5101 90.9099 80.974 90.1569C81.4379 89.404 81.204 88.4193 80.4511 87.9554L76.3645 85.4376L78.8823 81.351Z" fill="#F6B97B"/>
<path id="Vector_5" fill-rule="evenodd" clip-rule="evenodd" d="M73.4592 29.15C73.0974 28.9271 72.6629 28.8576 72.2502 28.9557L50.2353 34.1851C49.8225 34.2831 49.4658 34.5405 49.2428 34.9023L32.0377 62.8276C29.256 67.3426 30.6604 73.2548 35.1753 76.0366L58.8574 90.6273C59.9534 94.228 62.3171 97.4572 65.7702 99.5847C73.2944 104.22 83.1494 101.879 87.7851 94.3553C92.1371 87.2915 90.3384 78.1709 83.8768 73.2465L95.6677 54.1088C98.4495 49.5938 97.0451 43.6816 92.5301 40.8998L73.4592 29.15ZM60.5409 77.5698C58.8361 80.3368 58.0741 83.4204 58.1678 86.4438L36.8539 73.3121C33.8448 71.4582 32.9082 67.5153 34.7622 64.5062L51.128 37.9431L56.5769 41.3002C61.0918 44.0819 67.004 42.6775 69.7858 38.1625L73.1429 32.7137L90.8516 43.6243C93.8607 45.4782 94.7973 49.4211 92.9434 52.4302L81.1524 71.5679C77.018 69.5565 72.3557 69.481 68.3008 71.0753L48.5488 58.9058C47.7958 58.4419 46.8112 58.6758 46.3473 59.4288C45.8834 60.1817 46.1173 61.1663 46.8702 61.6302L65.0312 72.8194C63.2745 74.0385 61.7342 75.6329 60.5409 77.5698ZM58.2554 38.5757L54.7328 36.4054L69.2318 32.9614L67.0615 36.484C65.2075 39.4931 61.2645 40.4297 58.2554 38.5757ZM80.8772 75.0649C74.859 71.357 66.9732 73.2302 63.2653 79.2483C59.5574 85.2665 61.4306 93.1524 67.4488 96.8602C73.467 100.568 81.3528 98.6949 85.0607 92.6767C88.7686 86.6586 86.8954 78.7727 80.8772 75.0649Z" fill="#F6B97B"/>
<path id="Vector_6" d="M56.084 42.8731C55.1417 42.2925 53.9406 42.526 53.4059 43.3938C53.2988 43.5676 53.365 43.8027 53.5538 43.919C53.7426 44.0353 53.9823 43.9887 54.0894 43.8148C54.4103 43.294 55.1307 43.154 55.6963 43.5024C56.8334 44.203 56.198 45.8542 54.9129 45.5487C54.4103 45.4289 53.9314 45.6017 53.6924 45.9896L53.4157 46.4388C53.168 46.856 53.836 47.2697 54.0992 46.8599C54.2944 46.6003 54.3646 46.1823 54.7777 46.2827C56.9315 46.7794 57.9784 44.0586 56.084 42.8731Z" fill="#F6B97B" stroke="#F6B97B" stroke-width="0.8"/>
<path id="Vector_7" d="M51.0484 51.0488C50.106 50.4682 48.9049 50.7018 48.3703 51.5695C48.2632 51.7434 48.3293 51.9784 48.5181 52.0948C48.7069 52.2111 48.9466 52.1645 49.0538 51.9906C49.3746 51.4698 50.095 51.3298 50.6606 51.6782C51.7977 52.3788 51.1623 54.03 49.8772 53.7244C49.3746 53.6047 48.8958 53.7775 48.6568 54.1653L48.38 54.6146C48.1324 55.0318 48.8004 55.4455 49.0635 55.0357C49.2588 54.7761 49.3289 54.3581 49.7421 54.4585C51.8959 54.9551 52.9428 52.2343 51.0484 51.0488Z" fill="#F6B97B" stroke="#F6B97B" stroke-width="0.8"/>
<path id="Vector_8" d="M52.721 48.3192C52.2622 48.0471 51.852 48.7129 52.3014 49.0003C52.7602 49.2724 53.1704 48.6066 52.721 48.3192Z" fill="#F6B97B" stroke="#F6B97B" stroke-width="0.8"/>
<path id="Vector_9" d="M47.6854 56.4911C47.2266 56.219 46.8164 56.8847 47.2657 57.1722C47.7245 57.4443 48.1347 56.7785 47.6854 56.4911Z" fill="#F6B97B" stroke="#F6B97B" stroke-width="0.8"/>
</g>
<defs>
<clipPath id="clip0_5354_51210">
<rect width="88" height="108" fill="white" transform="translate(56.651) rotate(31.6377)"/>
</clipPath>
</defs>
</svg>
