<svg width="120" height="125" viewBox="0 0 120 125" fill="none" xmlns="http://www.w3.org/2000/svg">
<g id="noun-questions-7421262" clip-path="url(#clip0_5354_51195)">
<path id="Vector" d="M86.7364 71.3595C86.0992 71.6259 85.7989 72.3578 86.0653 72.9949L89.8893 82.1405C90.1557 82.7776 89.8555 83.5095 89.2183 83.7759L43.0884 103.064C42.4512 103.331 41.7194 103.03 41.453 102.393L17.3427 44.7307C17.0763 44.0935 17.3766 43.3617 18.0138 43.0952L30.6999 37.7908L31.6643 40.0973L21.2854 44.437C20.6482 44.7034 20.348 45.4353 20.6144 46.0725L40.3846 93.3552C41.0432 94.8412 43.2978 93.9391 42.6911 92.3908L23.4029 46.2609L32.6289 42.4033L33.1111 43.5565C33.9091 45.4651 36.1089 46.3677 38.0175 45.5697L51.8564 39.7832C53.765 38.9852 54.6676 36.7855 53.8695 34.8769L53.3873 33.7236L62.6133 29.866L65.0243 35.6322C65.6798 37.1432 67.9424 36.187 67.3308 34.6678L64.4376 27.7483C64.1712 27.1112 63.4393 26.8109 62.8022 27.0773L52.4233 31.417L51.4589 29.1105L64.145 23.8061C64.7821 23.5397 65.514 23.8399 65.7804 24.4771L69.6381 33.7031C70.2895 35.2124 72.5561 34.2579 71.9446 32.7387L68.0869 23.5127C67.2889 21.6041 65.0892 20.7015 63.1806 21.4996L17.0507 40.7878C15.1421 41.5858 14.2395 43.7855 15.0376 45.6941L39.1478 103.356C39.9458 105.265 42.1455 106.168 44.0541 105.37L90.184 86.0814C92.0926 85.2834 92.9952 83.0837 92.1972 81.1751L88.3732 72.0295C88.1067 71.3924 87.3749 71.0921 86.7377 71.3585L86.7364 71.3595ZM51.5619 35.8417C51.8284 36.4789 51.5281 37.2108 50.8909 37.4772L37.0519 43.2636C36.4148 43.5301 35.6829 43.2298 35.4165 42.5926L33.0055 36.8264L49.1509 30.0755L51.5619 35.8417Z" fill="#F6B97B"/>
<path id="Vector_2" d="M42.7951 99.1221C43.0615 99.7593 43.7934 100.06 44.4305 99.7932L85.9474 82.4338C86.5846 82.1674 86.8849 81.4355 86.6185 80.7983L82.7608 71.5724C82.095 70.0691 79.8479 71.0053 80.4544 72.5368L83.8299 80.6099L43.4659 97.4872C42.8288 97.7536 42.5287 98.4849 42.7951 99.1221Z" fill="#F6B97B"/>
<path id="Vector_3" d="M81.9447 33.9748L63.4927 41.6901C61.5841 42.4881 60.6815 44.6879 61.4796 46.5965L70.1593 67.3549C70.9573 69.2635 73.157 70.1661 75.0656 69.368L83.8133 65.7104L93.1477 69.5404C94.1348 69.9812 95.2245 68.8854 94.7757 67.901L92.3647 62.1348L93.5179 61.6526C95.4265 60.8546 96.3291 58.6548 95.5311 56.7462L86.8514 35.9878C86.0533 34.0792 83.8532 33.1768 81.9447 33.9748ZM93.224 57.7104C93.4905 58.3476 93.1902 59.0795 92.553 59.3459L90.2465 60.3103C89.6093 60.5767 89.309 61.3086 89.5755 61.9458L91.3042 66.0802L84.284 63.1997C83.9774 63.0739 83.6327 63.0758 83.327 63.2036L74.1011 67.0612C73.4639 67.3276 72.732 67.0273 72.4656 66.3902L63.7859 45.6317C63.5195 44.9946 63.8198 44.2627 64.457 43.9963L82.9089 36.281C83.5461 36.0146 84.278 36.3149 84.5444 36.952L93.224 57.7104Z" fill="#F6B97B"/>
<path id="Vector_4" d="M74.6475 42.4484C71.4674 43.778 69.9626 47.4455 71.2923 50.6256C71.5587 51.2628 72.2906 51.5631 72.9278 51.2967C73.5649 51.0302 73.8652 50.2984 73.5988 49.6612C72.8008 47.7526 73.7033 45.5529 75.6119 44.7548C79.4493 43.1503 82.6522 48.1858 79.5884 50.9843C78.3895 52.0784 77.9981 53.7019 78.5924 55.1233L79.2808 56.7696C79.9367 58.2736 82.1966 57.3355 81.5873 55.8052C81.2518 54.7599 80.2811 53.7263 81.2718 52.8311C86.3666 48.1096 81.0886 39.8124 74.6475 42.4484Z" fill="#F6B97B"/>
<path id="Vector_5" d="M81.3984 58.5908C79.8927 59.2509 80.8354 61.5054 82.3628 60.8973C83.8685 60.2373 82.9258 57.9827 81.3984 58.5908Z" fill="#F6B97B"/>
<path id="Vector_6" d="M39.0864 54.6048L56.7199 47.2318C57.357 46.9654 57.6573 46.2335 57.3909 45.5963C57.1245 44.9592 56.3926 44.6589 55.7555 44.9253L38.122 52.2983C36.6209 52.9531 37.5562 55.2141 39.0864 54.6048Z" fill="#F6B97B"/>
<path id="Vector_7" d="M33.3198 57.0184C34.8255 56.3584 33.8828 54.1038 32.3554 54.7119C30.8497 55.372 31.7924 57.6265 33.3198 57.0184Z" fill="#F6B97B"/>
<path id="Vector_8" d="M42.944 63.8314L60.2431 56.5981C60.8802 56.3317 61.1805 55.5999 60.9141 54.9627C60.6477 54.3255 59.9158 54.0252 59.2787 54.2916L41.9796 61.5249C40.4785 62.1796 41.4137 64.4407 42.944 63.8314Z" fill="#F6B97B"/>
<path id="Vector_9" d="M37.1775 66.245C38.6832 65.5849 37.7405 63.3304 36.2131 63.9385C34.7074 64.5985 35.6501 66.8531 37.1775 66.245Z" fill="#F6B97B"/>
<path id="Vector_10" d="M46.8017 73.0579L64.1007 65.8247C64.7379 65.5583 65.0382 64.8264 64.7718 64.1893C64.5054 63.5521 63.7735 63.2518 63.1363 63.5182L45.8372 70.7514C44.3361 71.4062 45.2714 73.6673 46.8017 73.0579Z" fill="#F6B97B"/>
<path id="Vector_11" d="M41.035 75.4676C42.5407 74.8076 41.598 72.553 40.0706 73.1611C38.5649 73.8212 39.5076 76.0758 41.035 75.4676Z" fill="#F6B97B"/>
<path id="Vector_12" d="M68.4465 72.1374L49.6949 79.978C48.1938 80.6328 49.1291 82.8938 50.6593 82.2845L69.4109 74.4439C70.9121 73.7892 69.9768 71.5281 68.4465 72.1374Z" fill="#F6B97B"/>
<path id="Vector_13" d="M44.8927 84.6942C46.3984 84.0341 45.4557 81.7796 43.9283 82.3877C42.4226 83.0478 43.3653 85.3023 44.8927 84.6942Z" fill="#F6B97B"/>
</g>
<defs>
<clipPath id="clip0_5354_51195">
<rect width="88" height="98.4" fill="white" transform="translate(0.426147 34.082) rotate(-22.6912)"/>
</clipPath>
</defs>
</svg>
