<svg width="118" height="124" viewBox="0 0 118 124" fill="none" xmlns="http://www.w3.org/2000/svg">
<g id="noun-multimedia-7286494 1" clip-path="url(#clip0_5354_51189)">
<path id="Vector" d="M57.7841 82.7096C57.9246 82.8144 58.0358 82.9547 58.1042 83.1225C58.1737 83.2933 58.1923 83.4713 58.1637 83.6415C58.1335 83.8158 58.0579 83.9782 57.9381 84.1147L49.8039 93.3468L49.79 93.3626C49.6828 93.4805 49.5528 93.5672 49.4075 93.6163C49.2575 93.6706 49.094 93.6832 48.9278 93.6564C48.7617 93.6296 48.6127 93.5621 48.4873 93.4613C48.3619 93.3606 48.2653 93.2312 48.2016 93.0749L44.0673 82.9255C44.0036 82.7692 43.9823 82.6092 44.0016 82.4495C44.0209 82.2898 44.0815 82.1402 44.1804 82.0021C44.2805 81.8668 44.4064 81.7616 44.5516 81.6956C44.6969 81.6297 44.8562 81.5985 45.0235 81.6114L57.2933 82.5319L57.3154 82.5364C57.4908 82.5527 57.6513 82.6155 57.7854 82.7127L57.7841 82.7096ZM44.8886 50.133C45.8408 49.7451 46.5464 49.0089 46.9169 48.1291C47.2874 47.2493 47.321 46.2301 46.9331 45.2779C46.5453 44.3258 45.8091 43.6202 44.9293 43.2496C44.0495 42.8791 43.0303 42.8455 42.0781 43.2334C41.1259 43.6213 40.4203 44.3575 40.0498 45.2373C39.6793 46.1171 39.6457 47.1363 40.0335 48.0885C40.4214 49.0407 41.1576 49.7463 42.0374 50.1168C42.9172 50.4873 43.9364 50.5209 44.8886 50.133ZM83.2958 47.948L94.3574 75.1031C94.8844 76.3968 94.26 77.8794 92.9664 78.4063L67.5739 88.7499L68.2694 90.4575C68.6938 91.4993 68.1901 92.6899 67.1511 93.1131L47.0026 101.321C45.9608 101.745 44.7703 101.241 44.347 100.202L36.1806 80.1545C35.7562 79.1127 36.2599 77.9222 37.2989 77.4989L55.0891 70.2521L53.6839 66.8024L36.2382 73.9089C34.9445 74.4358 33.4619 73.8115 32.9349 72.5178L21.8762 45.3616C21.3493 44.0679 21.9736 42.5853 23.2673 42.0583L50.5586 30.9412C51.8523 30.4142 53.3349 31.0386 53.8619 32.3322L62.5504 53.6617L79.9961 46.5552C81.2898 46.0282 82.7724 46.6526 83.2994 47.9462L83.2958 47.948ZM23.0566 44.8811L31.0226 64.4369C31.2909 64.0104 31.6 63.5099 31.9446 62.9478C33.7924 59.9376 36.5645 55.4274 37.7834 55.049L37.7978 55.0431C38.1014 54.9599 40.1374 55.6423 42.2309 56.3417C44.4035 57.0696 46.6389 57.8192 47.3554 57.7804C47.4639 57.7733 47.5581 57.7147 47.6109 57.629C48.3106 56.497 48.9646 55.2116 49.5878 53.9995C50.5181 52.183 51.3647 50.5255 52.1119 49.8332C52.8675 49.9404 55.3197 50.6422 57.5167 51.3635C58.8344 51.7985 60.0471 52.2325 60.7147 52.5376L52.6775 32.8156C52.4158 32.1731 51.6786 31.8626 51.0361 32.1244L23.7477 43.2403C23.1052 43.502 22.7949 44.2386 23.0566 44.8811ZM58.9221 70.8911C58.7641 70.5032 58.319 70.3134 57.9283 70.4726L37.7798 78.68C37.392 78.838 37.2022 79.2831 37.3613 79.6738L45.5278 99.7215C45.6857 100.109 46.1309 100.299 46.5216 100.14L66.67 91.9326C67.0579 91.7746 67.2477 91.3295 67.0885 90.9388L58.9221 70.8911ZM82.1148 48.4291C81.8531 47.7866 81.1159 47.4762 80.4734 47.7379L53.182 58.855C52.5395 59.1167 52.2291 59.8539 52.4908 60.4964L56.2682 69.7694L57.4431 69.2908C58.485 68.8664 59.6755 69.3701 60.0988 70.4091L67.0885 87.5681L92.4809 77.2244C93.1234 76.9627 93.4339 76.2255 93.1722 75.583L82.1106 48.428L82.1148 48.4291Z" fill="#F6B97B"/>
<path id="Vector 166" d="M78.0502 55.0715L58.1738 63.1682C56.3332 63.9179 57.6069 65.9906 59.079 65.3909L78.9557 57.2941C79.3235 57.1443 79.9303 56.5269 79.6717 55.8919C79.413 55.2568 78.9522 54.8275 78.0502 55.0715Z" fill="#F6B97B" stroke="#F6B97B" stroke-width="0.8"/>
<path id="Vector 167" d="M80.9137 61.6797L63.6874 68.6968C62.0922 69.3466 63.3169 71.4392 64.5927 70.9195L81.8192 63.9023C82.1379 63.7725 82.6466 63.195 82.3879 62.56C82.1292 61.9249 81.7012 61.4823 80.9137 61.6797Z" fill="#F6B97B" stroke="#F6B97B" stroke-width="0.8"/>
<path id="Vector 168" d="M83.9316 69.0859L66.7054 76.103C65.1102 76.7528 66.3348 78.8455 67.6106 78.3258L84.8371 71.3086C85.1559 71.1787 85.6645 70.6013 85.4058 69.9662C85.1472 69.3312 84.7191 68.8886 83.9316 69.0859Z" fill="#F6B97B" stroke="#F6B97B" stroke-width="0.8"/>
</g>
<defs>
<clipPath id="clip0_5354_51189">
<rect width="88" height="96.8" fill="white" transform="translate(-0.0078125 34.1758) rotate(-22.1635)"/>
</clipPath>
</defs>
</svg>
