<svg width="323" height="217" viewBox="0 0 323 217" fill="none" xmlns="http://www.w3.org/2000/svg">
<path d="M217.819 163.4L222.754 166.365L217.744 169.335L212.734 172.31L212.809 166.375L212.889 160.44L217.819 163.4Z" fill="#E0E0E0"/>
<path d="M23.7402 192.945V216.025H57.4902H94.7202V192.945H23.7402Z" fill="#F5F5F5"/>
<path d="M20.7598 186.49V192.945H97.1998V186.49H57.4898H20.7598Z" fill="#E0E0E0"/>
<path d="M58.9802 216.025H94.7202V192.945H97.2002V186.49H57.4902V192.345L58.9802 216.025Z" fill="#E0E0E0"/>
<path d="M48.06 196.665H33.665V200.14H48.06V196.665Z" fill="#E0E0E0"/>
<path d="M50.2995 204.485H31.8145V211.82H50.2995V204.485Z" fill="white"/>
<path d="M34.6602 163.44V186.52H68.4102H105.64V163.44H34.6602Z" fill="#F5F5F5"/>
<path d="M31.6797 156.984V163.439H108.12V156.984H68.4097H31.6797Z" fill="#E0E0E0"/>
<path d="M69.9002 186.519H105.64V163.439H108.12V156.984H68.4102V162.844L69.9002 186.519Z" fill="#E0E0E0"/>
<path d="M58.98 167.159H44.585V170.634H58.98V167.159Z" fill="#E0E0E0"/>
<path d="M61.2194 174.979H42.7344V182.314H61.2194V174.979Z" fill="white"/>
<path d="M307.355 79.5049H223.77C221.597 79.5049 219.835 81.2666 219.835 83.4399V132.25C219.835 134.423 221.597 136.185 223.77 136.185H307.355C309.528 136.185 311.29 134.423 311.29 132.25V83.4399C311.29 81.2666 309.528 79.5049 307.355 79.5049Z" fill="#E0E0E0"/>
<path d="M265.56 115.578C269.406 115.578 272.525 112.46 272.525 108.613C272.525 104.767 269.406 101.648 265.56 101.648C261.713 101.648 258.595 104.767 258.595 108.613C258.595 112.46 261.713 115.578 265.56 115.578Z" fill="#EBEBEB"/>
<path d="M263.885 110.649V106.539C263.885 106.339 264.1 106.214 264.275 106.309L267.95 108.379C268.13 108.479 268.125 108.734 267.95 108.834L264.275 110.874C264.1 110.969 263.885 110.844 263.885 110.644V110.649Z" fill="white"/>
<path d="M225.065 129.675V129.82H224.375V129.705L224.745 129.35C224.835 129.265 224.85 129.21 224.85 129.155C224.85 129.07 224.79 129.02 224.675 129.02C224.585 129.02 224.51 129.05 224.455 129.115L224.335 129.02C224.405 128.92 224.535 128.865 224.69 128.865C224.895 128.865 225.025 128.97 225.025 129.135C225.025 129.225 225 129.31 224.87 129.43L224.62 129.67H225.06L225.065 129.675Z" fill="white"/>
<path d="M225.154 129.21C225.154 129.145 225.204 129.1 225.264 129.1C225.324 129.1 225.374 129.145 225.374 129.21C225.374 129.275 225.324 129.32 225.264 129.32C225.204 129.32 225.154 129.275 225.154 129.21ZM225.154 129.72C225.154 129.655 225.204 129.61 225.264 129.61C225.324 129.61 225.374 129.655 225.374 129.72C225.374 129.785 225.324 129.83 225.264 129.83C225.204 129.83 225.154 129.785 225.154 129.72Z" fill="white"/>
<path d="M225.811 128.886V129.821H225.636V129.031H225.436V128.886H225.806H225.811Z" fill="white"/>
<path d="M226.825 129.606H226.66V129.816H226.49V129.606H225.975V129.486L226.435 128.886H226.62L226.185 129.461H226.49V129.271H226.655V129.461H226.82V129.606H226.825Z" fill="white"/>
<path d="M299.18 129.21H228.35V129.585H299.18V129.21Z" fill="white"/>
<path d="M250.434 128.814H228.299V129.814H250.434V128.814Z" fill="#EBEBEB"/>
<path d="M251.144 129.394C251.144 129.989 250.664 130.474 250.064 130.474C249.464 130.474 248.984 129.994 248.984 129.394C248.984 128.794 249.464 128.314 250.064 128.314C250.664 128.314 251.144 128.794 251.144 129.394Z" fill="#EBEBEB"/>
<path d="M300.965 129.385C300.965 129.57 300.815 129.69 300.625 129.69C300.37 129.69 300.22 129.525 300.22 129.225C300.22 128.905 300.405 128.73 300.68 128.73C300.775 128.73 300.865 128.75 300.925 128.79L300.86 128.92C300.81 128.885 300.75 128.875 300.68 128.875C300.505 128.875 300.395 128.985 300.395 129.195C300.45 129.13 300.54 129.1 300.645 129.1C300.83 129.1 300.965 129.21 300.965 129.385ZM300.795 129.395C300.795 129.295 300.72 129.235 300.61 129.235C300.5 129.235 300.42 129.305 300.42 129.395C300.42 129.485 300.49 129.55 300.615 129.55C300.725 129.55 300.8 129.49 300.8 129.39L300.795 129.395Z" fill="white"/>
<path d="M301.049 129.066C301.049 129.001 301.099 128.956 301.159 128.956C301.219 128.956 301.269 129.001 301.269 129.066C301.269 129.131 301.219 129.176 301.159 129.176C301.099 129.176 301.049 129.131 301.049 129.066ZM301.049 129.576C301.049 129.511 301.099 129.466 301.159 129.466C301.219 129.466 301.269 129.511 301.269 129.576C301.269 129.641 301.219 129.686 301.159 129.686C301.099 129.686 301.049 129.641 301.049 129.576Z" fill="white"/>
<path d="M301.38 129.21C301.38 128.905 301.55 128.73 301.77 128.73C301.99 128.73 302.16 128.905 302.16 129.21C302.16 129.515 301.99 129.69 301.77 129.69C301.55 129.69 301.38 129.515 301.38 129.21ZM301.985 129.21C301.985 128.985 301.895 128.88 301.77 128.88C301.645 128.88 301.555 128.985 301.555 129.21C301.555 129.435 301.645 129.54 301.77 129.54C301.895 129.54 301.985 129.435 301.985 129.21Z" fill="white"/>
<path d="M302.275 129.21C302.275 128.905 302.445 128.73 302.665 128.73C302.885 128.73 303.055 128.905 303.055 129.21C303.055 129.515 302.885 129.69 302.665 129.69C302.445 129.69 302.275 129.515 302.275 129.21ZM302.88 129.21C302.88 128.985 302.79 128.88 302.665 128.88C302.54 128.88 302.45 128.985 302.45 129.21C302.45 129.435 302.54 129.54 302.665 129.54C302.79 129.54 302.88 129.435 302.88 129.21Z" fill="white"/>
<path d="M304.59 129.149H304.215V128.194H305.17V128.569H304.59V129.149Z" fill="white"/>
<path d="M305.17 130.391H304.215V129.436H304.59V130.016H305.17V130.391Z" fill="white"/>
<path d="M306.68 130.391H305.725V130.016H306.305V129.436H306.68V130.391Z" fill="white"/>
<path d="M306.681 129.149H306.306V128.569H305.726V128.194H306.681V129.149Z" fill="white"/>
<path d="M272.015 86.8693C272.015 86.9393 262.615 86.9993 251.025 86.9993C239.435 86.9993 230.035 86.9393 230.035 86.8693C230.035 86.7993 239.43 86.7393 251.025 86.7393C262.62 86.7393 272.015 86.7993 272.015 86.8693Z" fill="white"/>
<path d="M228.05 86.8699C228.05 87.7849 227.31 88.5248 226.395 88.5248C225.48 88.5248 224.74 87.7849 224.74 86.8699C224.74 85.9549 225.48 85.2148 226.395 85.2148C227.31 85.2148 228.05 85.9549 228.05 86.8699Z" fill="white"/>
<path d="M268.259 171.077C268.214 171.137 267.819 170.902 267.384 170.552C266.949 170.202 266.634 169.872 266.679 169.812C266.724 169.752 267.119 169.987 267.554 170.337C267.989 170.687 268.304 171.017 268.259 171.072V171.077Z" fill="#263238"/>
<path d="M280.143 153.312C280.213 151.652 280.263 149.952 279.738 148.372C279.213 146.797 277.998 145.347 276.373 145.007C274.518 144.622 272.613 145.797 271.573 147.382C270.533 148.967 270.173 150.892 269.868 152.762C267.748 165.652 266.968 178.767 267.538 191.817L275.133 192.882C278.468 179.247 279.533 167.332 280.143 153.307V153.312Z" fill="#455A64"/>
<path d="M275.317 144.952C275.317 144.952 275.312 144.997 275.282 145.072C275.247 145.167 275.207 145.277 275.157 145.417C275.032 145.737 274.862 146.177 274.652 146.727C274.547 147.012 274.407 147.322 274.292 147.677C274.177 148.032 274.057 148.417 273.922 148.827C273.787 149.242 273.647 149.682 273.497 150.147C273.372 150.622 273.242 151.127 273.107 151.652C272.532 153.757 272.057 156.317 271.642 159.172C271.232 162.027 270.962 165.192 270.747 168.517C270.357 175.172 270.297 181.217 270.127 185.587C270.047 187.772 269.972 189.542 269.887 190.762C269.847 191.352 269.817 191.822 269.792 192.167C269.777 192.312 269.767 192.432 269.762 192.532C269.752 192.612 269.747 192.657 269.742 192.657C269.742 192.657 269.737 192.612 269.732 192.532C269.732 192.432 269.732 192.312 269.732 192.167C269.742 191.822 269.757 191.352 269.777 190.762C269.827 189.542 269.872 187.772 269.932 185.587C270.052 181.217 270.082 175.177 270.472 168.507C270.682 165.177 270.962 162.007 271.387 159.142C271.822 156.282 272.317 153.717 272.917 151.607C273.062 151.082 273.197 150.577 273.327 150.102C273.487 149.637 273.632 149.197 273.772 148.782C273.912 148.372 274.042 147.987 274.162 147.637C274.282 147.287 274.432 146.977 274.547 146.692C274.782 146.147 274.967 145.712 275.102 145.397C275.162 145.262 275.212 145.152 275.252 145.062C275.287 144.987 275.307 144.952 275.312 144.952H275.317Z" fill="#263238"/>
<path d="M276.024 144.958C276.024 144.958 276.489 145.438 276.954 146.528C277.434 147.613 277.734 149.338 277.649 151.443C277.449 155.643 277.069 161.428 276.574 167.813C276.069 174.203 275.514 179.973 275.064 184.148C274.839 186.233 274.644 187.923 274.504 189.088C274.434 189.653 274.374 190.098 274.334 190.428C274.314 190.568 274.294 190.683 274.284 190.778C274.269 190.858 274.264 190.898 274.259 190.898C274.259 190.898 274.259 190.858 274.259 190.778C274.264 190.683 274.274 190.568 274.284 190.428C274.314 190.098 274.354 189.648 274.404 189.083C274.519 187.888 274.679 186.208 274.879 184.133C275.279 179.953 275.804 174.178 276.309 167.793C276.809 161.408 277.214 155.623 277.464 151.438C277.574 149.348 277.304 147.653 276.864 146.568C276.439 145.478 275.999 144.978 276.034 144.958H276.024Z" fill="#263238"/>
<path d="M281.289 164.618C281.264 164.688 280.619 164.523 279.849 164.248C279.079 163.973 278.474 163.693 278.499 163.618C278.524 163.548 279.169 163.713 279.939 163.988C280.709 164.263 281.314 164.543 281.289 164.618Z" fill="#263238"/>
<path d="M282.204 156.876C282.234 156.946 281.619 157.286 280.834 157.636C280.049 157.986 279.384 158.216 279.354 158.151C279.324 158.081 279.939 157.741 280.724 157.391C281.509 157.041 282.174 156.811 282.204 156.876Z" fill="#263238"/>
<path d="M281.729 150.558C281.724 150.633 281.219 150.658 280.594 150.618C279.974 150.573 279.474 150.478 279.479 150.403C279.484 150.328 279.989 150.303 280.614 150.343C281.234 150.388 281.734 150.483 281.729 150.558Z" fill="#263238"/>
<path d="M273.889 146.507C273.824 146.547 273.494 146.132 273.144 145.582C272.799 145.032 272.569 144.552 272.629 144.512C272.694 144.472 273.024 144.887 273.374 145.437C273.719 145.987 273.949 146.467 273.889 146.507Z" fill="#263238"/>
<path d="M271.299 150.327C271.299 150.402 270.814 150.452 270.219 150.442C269.624 150.427 269.144 150.357 269.144 150.282C269.144 150.207 269.629 150.157 270.224 150.167C270.819 150.182 271.299 150.252 271.299 150.327Z" fill="#263238"/>
<path d="M269.439 157.972C269.409 158.042 268.904 157.902 268.304 157.662C267.704 157.422 267.244 157.167 267.269 157.097C267.299 157.027 267.804 157.167 268.404 157.407C269.004 157.647 269.464 157.902 269.439 157.972Z" fill="#263238"/>
<path d="M269.243 164.403C269.258 164.478 268.828 164.628 268.278 164.743C267.728 164.858 267.273 164.893 267.258 164.818C267.243 164.743 267.673 164.593 268.223 164.478C268.773 164.363 269.228 164.328 269.243 164.403Z" fill="#263238"/>
<path d="M268.363 174.922C268.378 174.997 267.918 175.142 267.338 175.242C266.758 175.347 266.278 175.372 266.263 175.297C266.248 175.222 266.708 175.077 267.288 174.977C267.868 174.872 268.348 174.847 268.363 174.922Z" fill="#263238"/>
<path d="M267.784 180.728C267.819 180.793 267.434 181.068 266.929 181.333C266.419 181.603 265.979 181.768 265.944 181.698C265.909 181.633 266.294 181.358 266.799 181.093C267.309 180.823 267.749 180.658 267.784 180.728Z" fill="#263238"/>
<path d="M272.524 187.318C272.459 187.353 272.124 186.893 271.779 186.288C271.434 185.683 271.204 185.163 271.269 185.123C271.334 185.088 271.669 185.548 272.014 186.153C272.359 186.758 272.589 187.278 272.524 187.318Z" fill="#263238"/>
<path d="M273.894 176.367C273.944 176.422 273.574 176.872 273.064 177.372C272.554 177.872 272.094 178.237 272.044 178.182C271.994 178.127 272.364 177.677 272.874 177.177C273.384 176.677 273.844 176.312 273.894 176.367Z" fill="#263238"/>
<path d="M273.589 170.623C273.534 170.673 273.189 170.393 272.819 169.993C272.449 169.593 272.194 169.228 272.249 169.178C272.304 169.128 272.649 169.408 273.019 169.808C273.389 170.208 273.644 170.573 273.589 170.623Z" fill="#263238"/>
<path d="M274.534 163.278C274.589 163.328 274.279 163.763 273.844 164.253C273.404 164.743 273.004 165.098 272.949 165.048C272.894 164.998 273.204 164.563 273.639 164.073C274.079 163.583 274.479 163.228 274.534 163.278Z" fill="#263238"/>
<path d="M275.059 157.952C275.004 158.007 274.574 157.667 274.094 157.192C273.614 156.717 273.264 156.292 273.319 156.237C273.369 156.182 273.804 156.522 274.284 156.997C274.764 157.472 275.114 157.897 275.059 157.952Z" fill="#263238"/>
<path d="M276.098 150.747C276.163 150.787 275.943 151.267 275.613 151.827C275.283 152.382 274.958 152.807 274.893 152.767C274.828 152.727 275.048 152.247 275.378 151.687C275.708 151.132 276.033 150.707 276.098 150.747Z" fill="#263238"/>
<path d="M278.058 144.072C278.123 144.107 277.933 144.592 277.628 145.152C277.323 145.712 277.028 146.137 276.958 146.102C276.893 146.067 277.083 145.582 277.388 145.022C277.693 144.462 277.988 144.037 278.058 144.072Z" fill="#263238"/>
<path d="M280.279 147.107C280.309 147.177 280.009 147.387 279.599 147.582C279.194 147.777 278.834 147.882 278.804 147.812C278.774 147.742 279.074 147.532 279.484 147.337C279.889 147.142 280.249 147.037 280.279 147.107Z" fill="#263238"/>
<path d="M280.334 171.077C280.319 171.147 279.629 171.052 278.849 170.717C278.064 170.382 277.519 169.952 277.559 169.892C277.599 169.827 278.194 170.142 278.954 170.467C279.709 170.792 280.354 171.002 280.334 171.077Z" fill="#263238"/>
<path d="M279.423 176.153C279.438 176.228 278.978 176.378 278.403 176.488C277.823 176.598 277.343 176.628 277.328 176.558C277.313 176.483 277.774 176.333 278.349 176.223C278.929 176.113 279.408 176.083 279.423 176.153Z" fill="#263238"/>
<path d="M278.308 184.858C278.263 184.913 277.683 184.518 277.153 183.843C276.618 183.173 276.363 182.513 276.428 182.483C276.498 182.448 276.848 183.028 277.368 183.673C277.878 184.323 278.363 184.798 278.313 184.858H278.308Z" fill="#263238"/>
<path d="M266.098 188.842C266.048 188.787 266.358 188.442 266.788 188.072C267.218 187.707 267.603 187.452 267.653 187.512C267.703 187.567 267.393 187.912 266.963 188.282C266.533 188.647 266.148 188.902 266.098 188.842Z" fill="#263238"/>
<path d="M262.584 169.84C262.089 168.295 261.164 166.495 259.539 166.475C258.579 166.46 257.714 167.15 257.259 168C256.809 168.85 256.614 169.835 256.644 170.795C256.829 177.15 257.929 184.415 260.129 191.03H266.059C265.984 183.68 264.824 176.84 262.584 169.84Z" fill="#455A64"/>
<path d="M251.858 160.121C251.028 156.806 248.553 155.011 245.683 154.846C243.063 155.306 242.043 157.886 241.733 160.531C241.423 163.176 242.243 165.806 243.053 168.341C245.658 176.481 248.258 184.621 250.863 192.766C253.323 192.496 255.783 192.231 258.243 191.961C255.908 181.056 254.568 170.946 251.863 160.121H251.858Z" fill="#455A64"/>
<path d="M259.544 166.471C259.569 166.491 259.299 166.736 259.039 167.311C258.784 167.886 258.659 168.806 258.759 169.936C258.874 171.061 259.004 172.421 259.194 173.911C259.389 175.401 259.654 177.036 259.989 178.736C260.659 182.146 261.414 185.201 261.894 187.431C262.139 188.546 262.319 189.451 262.434 190.076C262.484 190.366 262.524 190.601 262.559 190.801C262.584 190.966 262.594 191.056 262.584 191.056C262.574 191.056 262.549 190.971 262.504 190.811C262.459 190.616 262.399 190.381 262.329 190.096C262.169 189.436 261.959 188.551 261.704 187.471C261.179 185.256 260.394 182.206 259.719 178.786C259.384 177.076 259.124 175.436 258.944 173.941C258.849 173.191 258.789 172.476 258.724 171.811C258.669 171.146 258.599 170.526 258.564 169.951C258.484 168.806 258.639 167.851 258.939 167.271C259.239 166.691 259.539 166.476 259.539 166.476L259.544 166.471Z" fill="#263238"/>
<path d="M245.788 154.636C245.813 154.656 245.393 155.011 244.898 155.836C244.398 156.651 243.873 157.981 243.773 159.696C243.658 161.411 244.043 163.451 244.688 165.636C245.338 167.831 246.048 170.241 246.793 172.771C248.263 177.831 249.598 182.406 250.568 185.756C251.033 187.401 251.413 188.741 251.683 189.701C251.803 190.146 251.898 190.506 251.973 190.776C252.038 191.021 252.063 191.156 252.058 191.156C252.048 191.156 252.003 191.031 251.923 190.791C251.838 190.521 251.723 190.171 251.583 189.731C251.293 188.776 250.883 187.446 250.383 185.811C249.388 182.471 248.033 177.901 246.528 172.851C245.788 170.316 245.083 167.906 244.443 165.706C243.808 163.506 243.438 161.431 243.578 159.686C243.703 157.936 244.268 156.591 244.803 155.781C245.338 154.961 245.783 154.641 245.783 154.641L245.788 154.636Z" fill="#263238"/>
<path d="M256.629 191.166C256.629 191.166 256.564 191.046 256.464 190.811C256.369 190.576 256.209 190.231 256.044 189.771C255.694 188.866 255.239 187.526 254.774 185.851C254.304 184.176 253.844 182.156 253.399 179.901C252.969 177.641 252.504 175.161 252.009 172.561C251.494 169.961 250.924 167.506 250.259 165.311C249.599 163.116 248.854 161.186 248.109 159.626C247.364 158.061 246.654 156.851 246.119 156.041C245.864 155.626 245.634 155.331 245.499 155.111C245.359 154.901 245.284 154.786 245.294 154.781C245.299 154.776 245.389 154.881 245.544 155.081C245.694 155.286 245.939 155.576 246.209 155.981C246.774 156.776 247.514 157.981 248.284 159.541C249.059 161.101 249.824 163.036 250.504 165.236C251.184 167.436 251.764 169.901 252.279 172.506C252.764 175.111 253.229 177.591 253.649 179.851C254.079 182.106 254.519 184.126 254.964 185.801C255.404 187.476 255.824 188.816 256.149 189.736C256.299 190.196 256.439 190.546 256.519 190.791C256.604 191.031 256.644 191.161 256.634 191.166H256.629Z" fill="#263238"/>
<path d="M243.184 167.12C243.204 167.195 242.799 167.355 242.289 167.475C241.774 167.6 241.344 167.64 241.329 167.57C241.309 167.495 241.714 167.335 242.224 167.215C242.739 167.09 243.169 167.05 243.184 167.12Z" fill="#263238"/>
<path d="M242.403 162.086C242.403 162.161 241.843 162.191 241.158 162.221C240.473 162.246 239.918 162.261 239.908 162.186C239.898 162.111 240.453 161.976 241.148 161.951C241.843 161.921 242.408 162.016 242.403 162.086Z" fill="#263238"/>
<path d="M243.233 157.486C243.183 157.541 242.783 157.281 242.338 156.906C241.893 156.526 241.568 156.176 241.618 156.116C241.668 156.061 242.068 156.321 242.513 156.696C242.958 157.076 243.283 157.426 243.233 157.486Z" fill="#263238"/>
<path d="M245.484 153.226C245.559 153.241 245.539 153.601 245.529 154.036C245.514 154.471 245.514 154.831 245.439 154.841C245.369 154.856 245.244 154.491 245.259 154.026C245.269 153.561 245.414 153.206 245.489 153.226H245.484Z" fill="#263238"/>
<path d="M250.084 155.231C250.144 155.276 249.964 155.636 249.679 156.041C249.394 156.446 249.114 156.741 249.054 156.696C248.994 156.651 249.174 156.291 249.459 155.886C249.744 155.481 250.024 155.186 250.084 155.231Z" fill="#263238"/>
<path d="M253.068 160.421C253.098 160.491 252.713 160.711 252.213 160.916C251.713 161.121 251.283 161.231 251.258 161.161C251.228 161.091 251.613 160.871 252.113 160.666C252.613 160.461 253.043 160.356 253.068 160.421Z" fill="#263238"/>
<path d="M254.883 165.756C254.913 165.821 254.408 166.111 253.713 166.266C253.018 166.426 252.438 166.381 252.438 166.311C252.438 166.236 252.988 166.156 253.653 166.001C254.318 165.851 254.853 165.686 254.883 165.756Z" fill="#263238"/>
<path d="M246.569 164.24C246.499 164.22 246.549 163.85 246.684 163.415C246.819 162.985 246.989 162.65 247.059 162.675C247.129 162.695 247.079 163.065 246.944 163.5C246.809 163.93 246.639 164.265 246.569 164.24Z" fill="#263238"/>
<path d="M247.728 170.941C247.658 170.911 247.808 170.416 248.063 169.831C248.318 169.246 248.578 168.801 248.648 168.831C248.718 168.861 248.568 169.356 248.313 169.941C248.058 170.526 247.798 170.971 247.728 170.941Z" fill="#263238"/>
<path d="M244.858 172.771C244.828 172.841 244.363 172.716 243.793 172.536C243.228 172.356 242.768 172.196 242.788 172.121C242.803 172.051 243.298 172.096 243.878 172.276C244.458 172.456 244.888 172.701 244.858 172.771Z" fill="#263238"/>
<path d="M246.514 178.235C246.559 178.295 246.239 178.595 245.809 178.905C245.374 179.215 244.989 179.415 244.944 179.355C244.899 179.295 245.219 178.995 245.649 178.685C246.084 178.375 246.469 178.175 246.514 178.235Z" fill="#263238"/>
<path d="M247.838 183.68C247.858 183.755 247.463 183.91 246.963 184.03C246.463 184.15 246.043 184.19 246.028 184.12C246.008 184.045 246.403 183.89 246.903 183.77C247.403 183.65 247.823 183.61 247.838 183.68Z" fill="#263238"/>
<path d="M255.029 170.306C255.069 170.371 254.734 170.636 254.244 170.816C253.759 171.001 253.329 171.021 253.319 170.946C253.304 170.871 253.689 170.736 254.149 170.561C254.614 170.386 254.989 170.236 255.029 170.301V170.306Z" fill="#263238"/>
<path d="M256.054 178.776C256.024 178.846 255.624 178.726 255.164 178.506C254.704 178.291 254.359 178.061 254.389 177.991C254.419 177.921 254.819 178.041 255.279 178.261C255.739 178.476 256.084 178.706 256.054 178.776Z" fill="#263238"/>
<path d="M257.869 184.841C257.844 184.911 257.314 184.771 256.694 184.526C256.074 184.281 255.589 184.026 255.619 183.956C255.644 183.886 256.174 184.026 256.794 184.271C257.414 184.516 257.899 184.771 257.869 184.836V184.841Z" fill="#263238"/>
<path d="M248.129 189.591C248.094 189.521 248.574 189.196 249.134 188.756C249.694 188.316 250.124 187.926 250.184 187.976C250.239 188.021 249.884 188.516 249.304 188.971C248.724 189.431 248.164 189.656 248.129 189.591Z" fill="#263238"/>
<path d="M252.924 186.505C252.849 186.515 252.744 186.105 252.559 185.635C252.379 185.16 252.179 184.79 252.244 184.745C252.299 184.7 252.614 185.025 252.814 185.54C253.014 186.05 252.999 186.505 252.929 186.51L252.924 186.505Z" fill="#263238"/>
<path d="M251.648 179.216C251.603 179.276 251.293 179.131 250.958 178.886C250.618 178.641 250.383 178.396 250.423 178.336C250.468 178.276 250.778 178.421 251.113 178.666C251.453 178.911 251.688 179.156 251.648 179.216Z" fill="#263238"/>
<path d="M262.823 167.786C262.868 167.846 262.568 168.146 262.148 168.451C261.733 168.756 261.358 168.956 261.313 168.896C261.268 168.836 261.568 168.536 261.988 168.231C262.403 167.926 262.778 167.726 262.823 167.786Z" fill="#263238"/>
<path d="M264.508 172.391C264.513 172.466 264.043 172.561 263.458 172.501C262.873 172.441 262.433 172.241 262.458 172.171C262.478 172.096 262.933 172.171 263.488 172.231C264.043 172.291 264.503 172.316 264.508 172.391Z" fill="#263238"/>
<path d="M257.268 173.426C257.283 173.496 256.848 173.656 256.283 173.691C255.718 173.731 255.263 173.631 255.268 173.561C255.273 173.486 255.718 173.461 256.263 173.421C256.808 173.386 257.253 173.351 257.268 173.426Z" fill="#263238"/>
<path d="M257.893 169.07C257.888 169.14 257.448 169.155 256.963 168.93C256.478 168.71 256.198 168.365 256.248 168.315C256.298 168.255 256.633 168.485 257.073 168.685C257.513 168.89 257.898 168.995 257.888 169.07H257.893Z" fill="#263238"/>
<path d="M265.128 177.336C265.088 177.401 264.638 177.186 264.118 176.861C263.598 176.536 263.213 176.221 263.253 176.156C263.293 176.091 263.743 176.306 264.263 176.631C264.783 176.956 265.168 177.271 265.128 177.336Z" fill="#263238"/>
<path d="M282.793 190.259H244.173V197.104H282.793V190.259Z" fill="#FF725E"/>
<path d="M247.059 195.743L251.754 216.198H274.774L279.909 195.743H247.059Z" fill="#FF725E"/>
<path d="M282.773 197.109C282.773 197.184 274.063 197.244 263.318 197.244C252.573 197.244 243.863 197.184 243.863 197.109C243.863 197.034 252.573 196.974 263.318 196.974C274.063 196.974 282.773 197.034 282.773 197.109Z" fill="#263238"/>
<path d="M261.292 173.576C261.227 173.616 260.967 173.306 260.702 172.891C260.442 172.471 260.277 172.101 260.342 172.061C260.407 172.021 260.667 172.331 260.932 172.746C261.192 173.166 261.357 173.536 261.292 173.576Z" fill="#263238"/>
<path d="M261.309 179.081C261.239 179.056 261.329 178.591 261.509 178.041C261.694 177.491 261.899 177.066 261.969 177.086C262.039 177.111 261.949 177.576 261.769 178.126C261.584 178.676 261.379 179.101 261.309 179.081Z" fill="#263238"/>
<path d="M263.193 184.866C263.123 184.896 262.838 184.436 262.548 183.836C262.258 183.231 262.083 182.721 262.148 182.686C262.218 182.656 262.503 183.116 262.793 183.716C263.083 184.316 263.258 184.831 263.193 184.866Z" fill="#263238"/>
<path d="M259.114 189.516C259.059 189.466 259.289 189.111 259.629 188.716C259.969 188.321 260.294 188.046 260.349 188.096C260.404 188.146 260.174 188.501 259.834 188.896C259.494 189.291 259.169 189.566 259.114 189.516Z" fill="#263238"/>
<path d="M258.258 181.071C258.243 181.146 257.873 181.141 257.428 181.061C256.983 180.981 256.633 180.861 256.643 180.786C256.658 180.711 257.028 180.716 257.473 180.796C257.918 180.876 258.268 180.996 258.258 181.071Z" fill="#263238"/>
<path d="M173.203 77.3801L146.718 67.8701C148.448 88.5401 150.138 109.725 144.638 129.725C144.043 131.89 143.523 134.6 145.243 136.04C146.273 136.9 147.743 136.93 149.088 136.89C151.838 136.805 154.583 136.605 157.313 136.29C160.223 135.955 163.328 135.385 165.398 133.31C167.133 131.575 167.838 129.08 168.418 126.695C172.358 110.6 173.978 93.9351 173.203 77.3801Z" fill="#263238"/>
<path d="M129.818 162.701L132.958 158.586L135.063 147.576L139.838 120.801C139.838 120.801 141.943 110.726 148.438 107.841L149.813 134.596L136.563 168.211L129.818 162.701Z" fill="#FF725E"/>
<path d="M158.298 100.575L154.393 105.2L148.438 107.845C148.438 107.845 135.333 132.89 134.978 133.125C134.623 133.36 132.518 140.5 133.693 146.585C134.863 152.67 135.683 160.63 135.563 166.365C135.448 172.1 127.958 190.94 127.488 195.27C127.018 199.6 125.498 216.335 125.498 216.335L191.738 215.83C191.738 215.83 191.153 211.07 189.278 203.345C189.278 203.345 189.043 186.725 186.588 183.565C186.588 183.565 188.458 179.235 188.228 176.775C187.993 174.315 198.058 161.21 200.048 156.645C202.038 152.08 209.878 141.665 209.993 134.175C210.108 126.685 208.938 120.365 205.193 115.215C201.448 110.065 194.663 106.555 191.853 104.685L186.353 97.665L158.293 100.575H158.298Z" fill="#FF725E"/>
<path d="M134.684 216.33C134.684 216.33 134.684 216.26 134.684 216.13C134.689 215.985 134.694 215.79 134.704 215.545C134.729 215.015 134.759 214.26 134.804 213.29C134.884 211.32 135.004 208.49 135.149 205C135.209 203.25 135.269 201.33 135.299 199.275C135.314 198.245 135.314 197.18 135.279 196.09C135.239 194.98 135.384 193.84 135.619 192.7C136.084 190.415 136.939 188.12 137.784 185.75C138.204 184.565 138.644 183.355 138.929 182.1C139.074 181.48 139.119 180.83 139.184 180.17C139.249 179.515 139.314 178.85 139.384 178.185C139.649 175.525 139.914 172.925 140.164 170.42C140.289 169.165 140.414 167.935 140.534 166.725C140.644 165.515 140.809 164.34 140.849 163.18C141.119 158.545 141.849 154.42 142.514 150.98C143.189 147.54 143.809 144.775 144.209 142.855C144.409 141.905 144.564 141.165 144.669 140.645C144.719 140.405 144.764 140.215 144.794 140.07C144.824 139.94 144.839 139.875 144.844 139.875C144.844 139.875 144.844 139.945 144.819 140.075C144.794 140.22 144.764 140.41 144.719 140.655C144.624 141.175 144.484 141.92 144.304 142.875C143.934 144.8 143.344 147.575 142.689 151.015C142.049 154.455 141.334 158.575 141.079 163.195C141.044 164.355 140.879 165.53 140.774 166.74C140.654 167.945 140.534 169.18 140.409 170.435C140.159 172.945 139.899 175.545 139.634 178.205C139.569 178.87 139.499 179.53 139.434 180.19C139.369 180.84 139.324 181.505 139.174 182.155C138.879 183.44 138.439 184.65 138.019 185.835C137.174 188.205 136.319 190.49 135.849 192.75C135.614 193.875 135.469 194.995 135.504 196.08C135.539 197.18 135.529 198.25 135.514 199.28C135.479 201.34 135.404 203.26 135.334 205.01C135.184 208.51 135.024 211.345 134.909 213.3C134.844 214.265 134.794 215.025 134.764 215.55C134.744 215.795 134.729 215.99 134.719 216.135C134.709 216.265 134.699 216.335 134.694 216.335L134.684 216.33Z" fill="#263238"/>
<path d="M144.993 139.66C144.993 139.125 147.343 130.05 152.253 122.465C157.163 114.885 158.233 108.26 158.233 108.26L158.313 98.4701L158.733 99.7301L183.633 96.1201L184.383 99.7151L167.748 114.775C167.748 114.775 160.048 116.27 159.728 116.485C159.408 116.7 144.988 139.66 144.988 139.66H144.993Z" fill="#EFBDA8"/>
<path d="M191.854 104.685C191.854 104.685 191.784 104.81 191.634 105.035C191.484 105.26 191.259 105.585 190.959 106C190.369 106.835 189.489 108.03 188.374 109.48C187.259 110.93 185.904 112.635 184.444 114.56C183.714 115.52 182.959 116.54 182.194 117.61C182.004 117.875 181.814 118.155 181.569 118.41C181.329 118.66 180.999 118.885 180.614 118.91C180.229 118.935 179.874 118.785 179.569 118.61C179.259 118.43 178.979 118.24 178.684 118.05C177.509 117.295 176.364 116.56 175.259 115.85C174.704 115.5 174.164 115.135 173.629 114.81C173.099 114.49 172.524 114.245 171.954 114.32C171.384 114.385 170.884 114.705 170.429 115.035C169.979 115.375 169.529 115.725 169.064 116.005C168.134 116.57 167.184 116.95 166.284 117.16C164.484 117.595 162.959 117.475 161.959 117.26C161.709 117.21 161.484 117.155 161.294 117.1C161.104 117.045 160.944 117 160.819 116.95C160.564 116.855 160.434 116.805 160.439 116.795C160.439 116.785 160.579 116.825 160.834 116.9C160.959 116.94 161.124 116.985 161.314 117.025C161.504 117.075 161.724 117.12 161.974 117.165C162.969 117.345 164.474 117.435 166.234 116.985C167.114 116.765 168.039 116.385 168.944 115.825C169.394 115.545 169.824 115.205 170.284 114.855C170.744 114.515 171.274 114.165 171.919 114.085C172.569 114 173.204 114.275 173.749 114.6C174.299 114.935 174.829 115.285 175.389 115.64C176.499 116.35 177.644 117.085 178.819 117.835C179.409 118.185 179.974 118.685 180.589 118.65C180.889 118.63 181.159 118.455 181.384 118.23C181.609 118.005 181.789 117.73 181.984 117.465C182.754 116.395 183.514 115.38 184.249 114.42C185.724 112.5 187.094 110.81 188.224 109.375C189.359 107.94 190.254 106.765 190.874 105.95C191.174 105.56 191.409 105.245 191.584 105.01C191.749 104.795 191.839 104.685 191.844 104.69L191.854 104.685Z" fill="#263238"/>
<path d="M154.393 133.249C154.393 133.249 154.513 132.989 154.763 132.539C155.013 132.089 155.398 131.454 155.883 130.674C156.858 129.114 158.273 126.999 159.963 124.759C161.658 122.519 163.308 120.584 164.543 119.224C165.163 118.544 165.673 118.004 166.033 117.639C166.393 117.274 166.598 117.079 166.613 117.089C166.628 117.099 166.443 117.319 166.108 117.709C165.743 118.129 165.258 118.684 164.678 119.349C163.478 120.739 161.858 122.689 160.168 124.919C158.478 127.154 157.043 129.244 156.033 130.774C155.548 131.514 155.148 132.124 154.843 132.594C154.563 133.024 154.398 133.259 154.383 133.249H154.393Z" fill="#263238"/>
<path d="M156.544 135.17C156.544 135.17 156.579 135.17 156.639 135.185C156.714 135.2 156.804 135.22 156.924 135.245C157.189 135.3 157.554 135.38 158.029 135.485C158.999 135.695 160.419 136.005 162.229 136.37C163.134 136.55 164.139 136.75 165.239 136.935C165.789 137.03 166.359 137.11 166.959 137.205C167.554 137.305 168.169 137.445 168.794 137.605C170.044 137.93 171.354 138.345 172.719 138.825C173.404 139.065 174.099 139.32 174.804 139.6C175.159 139.74 175.514 139.88 175.874 140.035C176.054 140.115 176.234 140.195 176.414 140.275L176.684 140.405C176.729 140.43 176.774 140.45 176.819 140.48C176.844 140.495 176.864 140.505 176.889 140.525L176.929 140.555C176.929 140.555 176.989 140.63 176.989 140.67V140.685L176.984 140.705C175.444 145.62 173.664 151.305 171.764 157.375V157.385L171.754 157.395C171.484 157.92 171.154 158.43 170.774 158.92C170.394 159.405 169.974 159.88 169.454 160.27C169.269 160.4 169.069 160.525 168.844 160.6L168.224 160.81C167.814 160.95 167.404 161.085 166.994 161.225C166.179 161.5 165.369 161.775 164.564 162.045C162.964 162.585 161.394 163.11 159.879 163.625L159.809 163.65L159.754 163.6C158.059 162.03 156.424 160.51 154.849 159.055C154.459 158.69 154.069 158.33 153.684 157.975C153.304 157.615 152.909 157.28 152.569 156.875C152.224 156.48 151.979 155.98 151.904 155.47C151.824 154.96 151.869 154.45 151.939 153.965C152.604 150.135 153.364 146.78 154.049 143.995C154.734 141.215 155.364 139.015 155.809 137.51C156.039 136.77 156.214 136.195 156.339 135.79C156.399 135.605 156.449 135.46 156.484 135.35C156.519 135.25 156.539 135.2 156.539 135.2C156.539 135.2 156.529 135.255 156.504 135.355C156.474 135.465 156.434 135.615 156.379 135.805C156.264 136.21 156.099 136.79 155.889 137.535C155.469 139.045 154.864 141.25 154.199 144.035C153.539 146.815 152.799 150.18 152.149 153.995C152.084 154.47 152.044 154.955 152.119 155.43C152.194 155.905 152.409 156.345 152.739 156.725C153.059 157.105 153.454 157.44 153.839 157.8C154.224 158.155 154.614 158.515 155.009 158.88C156.584 160.335 158.224 161.85 159.919 163.415L159.794 163.39C161.314 162.875 162.879 162.35 164.479 161.805C165.279 161.535 166.089 161.26 166.904 160.985C167.314 160.845 167.724 160.71 168.134 160.57L168.754 160.36C168.944 160.295 169.119 160.19 169.294 160.065C169.779 159.705 170.189 159.24 170.559 158.77C170.929 158.295 171.254 157.795 171.514 157.29L171.504 157.31C173.419 151.245 175.209 145.565 176.759 140.65L176.854 140.685C173.959 139.485 171.209 138.47 168.734 137.81C168.114 137.645 167.509 137.505 166.919 137.4C166.329 137.305 165.749 137.22 165.204 137.12C164.104 136.925 163.104 136.715 162.199 136.525C160.389 136.14 158.974 135.81 158.009 135.58C157.539 135.465 157.169 135.375 156.909 135.31C156.794 135.28 156.699 135.255 156.629 135.235C156.564 135.215 156.534 135.205 156.534 135.205L156.544 135.17Z" fill="#263238"/>
<g opacity="0.3">
<path d="M157.089 192.914C151.299 192.039 143.254 189.624 136.654 188.244C134.299 187.754 132.259 187.184 129.904 186.689L129.479 187.999C136.239 189.489 142.569 191.709 148.729 194.864C152.394 196.739 156.019 198.929 160.094 199.529C164.649 200.199 169.224 198.794 173.614 197.409C176.089 196.629 178.684 195.774 180.449 193.869C181.694 192.529 182.404 190.784 183.059 189.074C184.789 184.549 186.299 179.944 187.589 175.274C179.724 184.094 168.779 194.679 157.094 192.909L157.089 192.914Z" fill="black"/>
</g>
<path d="M184.388 135.931L167.753 166.531C167.753 166.531 163.888 167.311 163.888 171.396C163.888 171.396 162.543 170.321 160.593 171.481C159.338 172.226 155.803 173.221 153.848 174.266C152.883 174.781 152.408 175.891 152.698 176.946L157.863 195.711C157.863 195.711 164.138 195.711 164.698 194.156L173.298 191.466C173.298 191.466 178.858 189.996 180.998 186.296C183.138 182.601 195.968 163.486 195.968 163.486" fill="#FF725E"/>
<path d="M195.958 163.475C195.958 163.475 195.923 163.54 195.843 163.665C195.758 163.795 195.638 163.98 195.488 164.215C195.163 164.705 194.698 165.42 194.093 166.34C192.868 168.2 191.083 170.9 188.848 174.285C187.733 175.985 186.508 177.86 185.178 179.885C183.858 181.92 182.428 184.1 181.003 186.465C180.263 187.665 179.183 188.665 177.948 189.465C176.718 190.275 175.338 190.905 173.878 191.4C170.953 192.315 167.898 193.275 164.733 194.265L164.813 194.19C164.683 194.51 164.418 194.71 164.158 194.86C163.893 195.01 163.608 195.115 163.323 195.205C162.748 195.38 162.153 195.49 161.553 195.58C160.348 195.75 159.113 195.825 157.863 195.84H157.768L157.743 195.745C156.803 192.34 155.828 188.785 154.828 185.16C154.303 183.255 153.783 181.365 153.273 179.505C153.023 178.565 152.748 177.665 152.523 176.715C152.353 175.715 152.878 174.66 153.748 174.19C155.438 173.31 157.208 172.775 158.888 172.115C159.308 171.955 159.723 171.785 160.123 171.595C160.508 171.41 160.903 171.15 161.338 171.01C162.203 170.71 163.203 170.77 163.973 171.305L163.773 171.4C163.788 170.225 164.123 169.025 164.893 168.155C165.638 167.27 166.658 166.695 167.738 166.425L167.658 166.485C172.628 157.385 176.798 149.745 179.733 144.37C181.203 141.695 182.363 139.59 183.158 138.14C183.553 137.425 183.858 136.88 184.073 136.5C184.173 136.32 184.253 136.18 184.313 136.08C184.368 135.985 184.398 135.94 184.398 135.94C184.398 135.94 184.378 135.99 184.328 136.09C184.273 136.195 184.203 136.335 184.108 136.52C183.903 136.905 183.608 137.46 183.228 138.18C182.443 139.635 181.303 141.755 179.858 144.44C176.943 149.825 172.798 157.48 167.863 166.6L167.838 166.645L167.783 166.66C166.773 166.915 165.773 167.48 165.073 168.315C164.343 169.14 164.028 170.28 164.018 171.41V171.64L163.818 171.505C163.153 171.04 162.213 170.965 161.418 171.25C161.008 171.385 160.653 171.625 160.233 171.825C159.823 172.02 159.403 172.19 158.978 172.35C157.293 173.01 155.518 173.555 153.873 174.41C153.088 174.835 152.623 175.78 152.778 176.675C152.993 177.57 153.273 178.51 153.523 179.44C154.038 181.3 154.553 183.19 155.078 185.095C156.073 188.72 157.053 192.275 157.988 195.685L157.863 195.59C159.098 195.575 160.328 195.5 161.518 195.335C162.113 195.25 162.698 195.145 163.248 194.97C163.523 194.885 163.793 194.785 164.038 194.65C164.278 194.515 164.493 194.34 164.583 194.115L164.608 194.055L164.663 194.035C167.828 193.05 170.883 192.095 173.808 191.185C175.248 190.7 176.618 190.08 177.828 189.28C179.048 188.5 180.103 187.52 180.823 186.36C182.263 183.995 183.698 181.815 185.028 179.79C186.363 177.77 187.603 175.9 188.723 174.205C190.983 170.835 192.783 168.15 194.028 166.3C194.648 165.39 195.128 164.685 195.458 164.2C195.618 163.97 195.743 163.79 195.833 163.66C195.918 163.54 195.968 163.48 195.968 163.48L195.958 163.475Z" fill="#263238"/>
<path d="M186.953 176.265C186.953 176.265 186.913 176.165 186.858 175.97C186.803 175.75 186.728 175.465 186.638 175.115C186.448 174.34 186.183 173.27 185.863 171.965C185.208 169.305 184.278 165.635 183.188 161.6C182.098 157.565 181.048 153.93 180.273 151.3C179.893 150.01 179.583 148.955 179.358 148.19C179.258 147.845 179.178 147.56 179.118 147.34C179.068 147.145 179.043 147.04 179.053 147.04C179.063 147.04 179.103 147.135 179.168 147.325C179.243 147.54 179.338 147.82 179.458 148.16C179.703 148.885 180.043 149.94 180.453 151.25C181.273 153.865 182.348 157.495 183.443 161.535C184.533 165.57 185.433 169.25 186.043 171.925C186.348 173.26 186.588 174.345 186.738 175.095C186.808 175.45 186.863 175.735 186.908 175.96C186.943 176.16 186.958 176.265 186.953 176.265Z" fill="white"/>
<path d="M180.882 185.83C180.812 185.845 179.422 178.595 177.782 169.64C176.137 160.685 174.867 153.415 174.937 153.405C175.007 153.39 176.397 160.64 178.042 169.595C179.682 178.55 180.957 185.82 180.887 185.83H180.882Z" fill="white"/>
<path d="M153.498 143.36C153.538 143.42 151.098 145.15 148.053 147.22C145.003 149.295 142.503 150.925 142.463 150.865C142.423 150.805 144.858 149.075 147.908 147.005C150.953 144.93 153.458 143.3 153.498 143.36Z" fill="white"/>
<path d="M151.878 149.89C151.878 149.89 151.763 150.04 151.518 150.27C151.278 150.5 150.918 150.83 150.468 151.225C149.573 152.02 148.308 153.09 146.878 154.23C145.448 155.37 144.118 156.36 143.143 157.055C142.653 157.405 142.258 157.68 141.978 157.865C141.698 158.05 141.538 158.145 141.528 158.13C141.518 158.115 141.658 157.995 141.918 157.785C142.228 157.545 142.598 157.25 143.033 156.91C143.978 156.175 145.288 155.165 146.718 154.03C148.148 152.895 149.428 151.85 150.353 151.09C150.783 150.745 151.148 150.445 151.458 150.2C151.723 149.99 151.873 149.885 151.883 149.895L151.878 149.89Z" fill="white"/>
<path d="M141.009 150.601C140.949 150.641 139.214 148.361 137.124 145.501C135.034 142.641 133.394 140.291 133.449 140.251C133.509 140.211 135.244 142.491 137.334 145.351C139.419 148.206 141.064 150.561 141.009 150.601Z" fill="white"/>
<path d="M140.133 159.365C140.133 159.365 139.763 159.1 139.243 158.595C138.723 158.09 138.033 157.365 137.318 156.52C136.603 155.675 136.003 154.875 135.593 154.275C135.183 153.68 134.958 153.29 134.983 153.27C135.013 153.25 135.293 153.6 135.738 154.165C136.183 154.73 136.803 155.51 137.513 156.35C138.223 157.19 138.888 157.93 139.368 158.465C139.853 159 140.148 159.335 140.123 159.36L140.133 159.365Z" fill="white"/>
<path d="M185.608 112.429C185.583 112.459 185.123 112.129 184.383 111.599C183.578 111.014 182.588 110.299 181.493 109.504C180.368 108.679 179.358 107.919 178.643 107.349C177.928 106.779 177.503 106.399 177.528 106.374C177.553 106.344 178.013 106.674 178.753 107.204C179.558 107.789 180.548 108.504 181.643 109.299C182.768 110.124 183.778 110.884 184.493 111.454C185.208 112.024 185.633 112.404 185.608 112.429Z" fill="white"/>
<path d="M187.888 109.269C187.843 109.324 186.223 108.059 184.278 106.439C182.328 104.819 180.788 103.464 180.833 103.409C180.878 103.354 182.498 104.619 184.443 106.239C186.393 107.854 187.933 109.214 187.888 109.269Z" fill="white"/>
<path d="M163.863 140.976C163.933 140.991 163.043 145.956 161.873 152.066C160.703 158.181 159.698 163.126 159.623 163.111C159.553 163.096 160.443 158.131 161.613 152.016C162.783 145.906 163.788 140.961 163.863 140.971V140.976Z" fill="white"/>
<path d="M176.523 178.209C176.523 178.209 176.358 178.154 176.088 178.004C175.813 177.859 175.433 177.629 174.973 177.329C174.053 176.729 172.833 175.794 171.643 174.604C170.453 173.409 169.523 172.194 168.918 171.274C168.618 170.814 168.388 170.429 168.243 170.159C168.098 169.889 168.023 169.734 168.038 169.724C168.073 169.704 168.428 170.279 169.068 171.169C169.703 172.059 170.648 173.239 171.823 174.419C173.003 175.594 174.188 176.539 175.073 177.174C175.963 177.814 176.538 178.169 176.518 178.204L176.523 178.209Z" fill="#263238"/>
<path d="M177.072 168.61C177.077 168.64 176.542 168.77 175.652 168.87C174.767 168.965 173.527 169.005 172.167 168.865C170.807 168.72 169.607 168.42 168.757 168.14C167.907 167.86 167.412 167.62 167.422 167.59C167.437 167.55 167.957 167.73 168.807 167.965C169.657 168.2 170.852 168.465 172.192 168.605C173.532 168.745 174.752 168.735 175.632 168.685C176.512 168.635 177.062 168.57 177.067 168.61H177.072Z" fill="#263238"/>
<path d="M141.318 121.075C141.318 121.075 141.308 121.115 141.283 121.195C141.248 121.285 141.203 121.4 141.153 121.535C141.043 121.835 140.848 122.265 140.598 122.82C140.088 123.925 139.233 125.465 138.123 127.335C137.033 129.21 135.663 131.42 134.683 134.105C134.623 134.275 134.563 134.44 134.503 134.61C134.453 134.785 134.408 134.96 134.358 135.135C134.263 135.485 134.163 135.845 134.063 136.205C133.948 136.56 133.888 136.935 133.833 137.31C133.768 137.685 133.708 138.065 133.643 138.45C133.553 139.22 133.503 140.01 133.458 140.81C133.458 141.21 133.458 141.615 133.458 142.025C133.458 142.43 133.458 142.84 133.498 143.255C133.683 146.555 134.283 149.66 134.783 152.49C135.293 155.315 135.688 157.885 135.813 160.055C135.913 161.14 135.863 162.13 135.878 162.99C135.813 163.855 135.768 164.595 135.693 165.2C135.588 165.785 135.508 166.245 135.448 166.58C135.418 166.725 135.398 166.84 135.378 166.935C135.363 167.015 135.348 167.055 135.343 167.055C135.343 167.055 135.343 167.01 135.348 166.93C135.358 166.835 135.373 166.715 135.393 166.57C135.443 166.235 135.508 165.77 135.588 165.19C135.648 164.59 135.673 163.845 135.728 162.99C135.698 162.13 135.738 161.15 135.623 160.07C135.473 157.91 135.063 155.355 134.543 152.535C134.033 149.71 133.423 146.6 133.238 143.275C133.203 142.86 133.193 142.445 133.198 142.035C133.198 141.625 133.198 141.215 133.198 140.81C133.248 140 133.298 139.2 133.388 138.425C133.453 138.04 133.518 137.655 133.583 137.275C133.643 136.895 133.708 136.515 133.823 136.155C133.923 135.79 134.023 135.43 134.123 135.075C134.173 134.895 134.223 134.72 134.273 134.545C134.333 134.375 134.398 134.205 134.458 134.035C135.463 131.32 136.858 129.11 137.968 127.25C139.098 125.395 139.973 123.875 140.508 122.785C140.773 122.24 140.978 121.815 141.108 121.525C141.168 121.39 141.223 121.285 141.263 121.195C141.298 121.12 141.318 121.085 141.323 121.085L141.318 121.075Z" fill="#263238"/>
<path d="M158.298 100.575C158.298 100.575 158.283 100.615 158.238 100.68C158.183 100.76 158.118 100.855 158.038 100.975C157.863 101.235 157.578 101.595 157.203 102.06C156.453 102.985 155.303 104.275 153.863 105.86C153.143 106.655 152.358 107.53 151.513 108.47C150.678 109.42 149.783 110.44 148.938 111.59C147.298 113.915 146.188 116.955 145.703 120.245L145.458 120.17C145.823 119.41 146.348 118.71 146.863 118C147.133 117.63 147.398 117.265 147.653 116.9C147.778 116.715 147.898 116.53 148.013 116.34L148.178 116.055L148.253 115.91L148.288 115.835L148.308 115.8C148.308 115.8 148.298 115.81 148.338 115.75C148.373 115.71 148.428 115.695 148.478 115.705C148.523 115.71 148.568 115.745 148.588 115.785L148.598 115.81L148.613 115.85L148.643 115.93L148.703 116.09C148.748 116.195 148.783 116.305 148.808 116.415C148.873 116.63 148.918 116.85 148.953 117.075C149.028 117.515 149.048 117.96 149.038 118.395C148.993 120.145 148.543 121.765 148.218 123.305C147.633 126.425 146.563 129.095 145.928 131.39C145.263 133.68 145.003 135.605 144.998 136.94C144.993 137.605 145.033 138.125 145.068 138.47C145.088 138.63 145.103 138.765 145.113 138.865C145.123 138.955 145.123 139 145.123 139C145.123 139 144.923 138.28 144.898 136.935C144.868 135.595 145.103 133.645 145.748 131.335C146.368 129.02 147.413 126.36 147.978 123.25C148.298 121.705 148.743 120.09 148.778 118.39C148.788 117.965 148.763 117.54 148.693 117.115C148.663 116.905 148.618 116.695 148.553 116.485C148.528 116.38 148.493 116.28 148.453 116.18L148.398 116.03L148.368 115.955L148.353 115.915V115.905C148.393 115.885 148.248 115.94 148.443 115.855C148.358 115.815 148.563 115.91 148.538 115.905V115.915L148.513 115.955L148.473 116.03L148.393 116.18L148.223 116.475C148.103 116.67 147.983 116.86 147.853 117.045C147.598 117.42 147.328 117.785 147.058 118.155C146.543 118.865 146.023 119.56 145.678 120.28L145.308 121.06L145.433 120.205C145.928 116.875 147.058 113.81 148.738 111.45C149.593 110.29 150.498 109.275 151.343 108.33C152.193 107.385 152.993 106.525 153.723 105.74C155.183 104.17 156.348 102.9 157.123 101.995C157.508 101.545 157.803 101.19 157.993 100.945C158.083 100.83 158.153 100.74 158.213 100.665C158.263 100.605 158.293 100.575 158.293 100.575H158.298Z" fill="#263238"/>
<path d="M159.333 171.936C159.333 171.936 159.398 171.991 159.508 172.106C159.633 172.246 159.788 172.421 159.973 172.631C160.178 172.856 160.418 173.141 160.668 173.491C160.923 173.841 161.233 174.221 161.523 174.686C161.823 175.141 162.148 175.641 162.453 176.206C162.783 176.756 163.068 177.381 163.383 178.026C163.968 179.341 164.513 180.836 164.918 182.451C165.308 184.071 165.513 185.646 165.603 187.086C165.623 187.806 165.658 188.491 165.623 189.131C165.618 189.771 165.563 190.366 165.503 190.911C165.463 191.456 165.368 191.941 165.298 192.366C165.238 192.796 165.153 193.156 165.078 193.451C165.008 193.721 164.953 193.946 164.908 194.131C164.868 194.286 164.838 194.366 164.833 194.361C164.823 194.361 164.833 194.276 164.858 194.116C164.893 193.931 164.933 193.701 164.978 193.426C165.038 193.131 165.103 192.766 165.153 192.336C165.203 191.911 165.288 191.426 165.318 190.886C165.363 190.346 165.408 189.756 165.403 189.121C165.433 188.486 165.388 187.806 165.363 187.096C165.263 185.671 165.048 184.111 164.663 182.511C164.263 180.911 163.728 179.431 163.163 178.121C162.858 177.476 162.583 176.856 162.263 176.306C161.973 175.741 161.658 175.236 161.368 174.781C161.093 174.316 160.798 173.926 160.553 173.571C160.313 173.216 160.083 172.921 159.893 172.686C159.723 172.466 159.583 172.281 159.468 172.131C159.373 172.001 159.328 171.931 159.333 171.926V171.936Z" fill="#263238"/>
<path d="M175.209 144.699C175.209 144.699 174.934 144.624 174.454 144.444C173.929 144.249 173.244 143.999 172.419 143.694C170.694 143.074 168.294 142.279 165.594 141.559C162.894 140.844 160.414 140.344 158.609 140.029C157.739 139.884 157.019 139.764 156.469 139.669C155.964 139.589 155.684 139.534 155.684 139.514C155.684 139.494 155.969 139.514 156.479 139.569C156.989 139.619 157.729 139.714 158.634 139.849C160.449 140.119 162.944 140.594 165.659 141.309C168.369 142.029 170.769 142.854 172.479 143.524C173.334 143.859 174.019 144.139 174.489 144.354C174.959 144.564 175.214 144.684 175.209 144.704V144.699Z" fill="#263238"/>
<g opacity="0.3">
<path d="M172.503 179.965C172.178 179.27 171.628 178.71 171.093 178.165C168.638 175.67 166.363 173.35 163.913 170.855L163.888 171.395C165.488 172.48 165.828 174.675 166.283 176.555C166.743 178.43 167.143 180.435 168.448 181.86C168.973 182.435 169.663 182.895 170.433 183.01C171.203 183.12 172.058 182.83 172.483 182.175C172.898 181.53 172.833 180.665 172.503 179.975V179.965Z" fill="black"/>
</g>
<g opacity="0.3">
<path d="M162.633 162.626C161.843 162.911 160.998 163.201 160.178 163.011C159.453 162.841 158.873 162.321 158.323 161.821L152.348 156.371C154.058 158.886 155.428 161.436 157.138 163.951C157.598 164.626 158.108 165.346 158.873 165.626C159.678 165.921 160.573 165.661 161.378 165.356C164.238 164.256 166.858 162.526 168.993 160.326C166.873 161.091 164.753 161.861 162.633 162.626Z" fill="black"/>
</g>
<g opacity="0.3">
<path d="M155.128 131.744C160.713 129.064 162.723 121.639 168.263 118.869C171.428 117.289 175.458 117.614 178.333 119.679C179.293 120.369 180.358 121.289 181.493 120.964C182.353 120.719 182.848 119.844 183.253 119.049C184.638 116.334 186.028 113.619 187.413 110.904C185.593 113.044 183.778 115.189 181.958 117.329C181.563 117.794 181.133 118.279 180.543 118.434C179.443 118.714 178.648 117.484 177.633 116.979C174.468 115.399 172.253 113.419 170.488 114.749C170.488 114.749 167.418 116.864 166.183 117.084L155.123 131.529" fill="black"/>
</g>
<g opacity="0.3">
<path d="M145.618 137.184C145.158 134.724 145.703 132.009 146.718 129.719C147.733 127.429 149.008 125.234 149.633 122.809C150.133 120.879 150.203 118.839 149.838 116.874C149.668 115.954 149.403 115.019 149.598 114.104C149.723 113.519 150.033 112.989 150.353 112.484C151.613 110.464 153.078 108.569 154.708 106.839L158.193 101.589C158.193 101.589 158.343 107.684 158.228 108.264C158.173 108.554 157.693 110.864 156.708 113.579C155.718 116.304 154.213 119.444 152.748 121.684C149.808 126.169 147.833 130.914 147.833 130.914L145.618 137.189V137.184Z" fill="black"/>
</g>
<path d="M167.748 114.778C160.663 113.103 158.483 109.583 158.403 103.348L158.298 95.4229C158.298 95.4229 150.453 95.0129 148.628 83.3329C147.718 77.5229 146.928 68.1329 147.433 60.3529C147.888 53.3479 155.168 40.9929 162.148 41.7479L181.313 51.0729C183.433 51.3029 185.023 53.1129 184.978 55.2479L183.488 100.533" fill="#EFBDA8"/>
<path d="M150.427 68.9372C150.397 69.7272 151.042 70.4072 151.867 70.4522C152.692 70.4972 153.382 69.8972 153.412 69.1072C153.442 68.3172 152.797 67.6372 151.972 67.5922C151.147 67.5472 150.452 68.1472 150.422 68.9422L150.427 68.9372Z" fill="#263238"/>
<path d="M149.498 65.7132C149.658 65.8582 150.838 65.6982 152.403 66.0832C153.968 66.4582 155.038 67.1632 155.228 67.1032C155.318 67.0782 155.168 66.8532 154.703 66.5382C154.243 66.2282 153.438 65.8332 152.463 65.5982C151.488 65.3632 150.633 65.3532 150.128 65.4282C149.613 65.5032 149.418 65.6482 149.498 65.7132Z" fill="#263238"/>
<path d="M165.427 69.3884C165.397 70.1784 166.042 70.8584 166.867 70.9034C167.692 70.9484 168.382 70.3484 168.412 69.5584C168.442 68.7684 167.797 68.0884 166.972 68.0434C166.147 67.9984 165.452 68.5984 165.422 69.3934L165.427 69.3884Z" fill="#263238"/>
<path d="M165.368 66.9675C165.598 67.0275 166.638 66.2325 168.328 65.7825C170.013 65.3225 171.413 65.4575 171.558 65.2975C171.633 65.2225 171.368 65.0775 170.758 65.0125C170.158 64.9425 169.183 64.9825 168.128 65.2625C167.073 65.5475 166.258 65.9925 165.818 66.3425C165.368 66.6975 165.258 66.9425 165.368 66.9675Z" fill="#263238"/>
<path d="M159.453 77.5821C159.463 77.4921 158.458 77.3171 156.838 77.1021C156.428 77.0571 156.038 76.9771 155.968 76.6971C155.873 76.3971 156.043 75.9571 156.243 75.4771C156.633 74.4821 157.038 73.4371 157.468 72.3471C159.168 67.8871 160.398 64.2221 160.218 64.1571C160.038 64.0921 158.513 67.6471 156.813 72.1071C156.403 73.2071 156.013 74.2521 155.638 75.2571C155.483 75.7221 155.213 76.2521 155.423 76.8721C155.533 77.1821 155.833 77.4021 156.098 77.4771C156.363 77.5571 156.593 77.5621 156.798 77.5771C158.433 77.6671 159.443 77.6771 159.453 77.5871V77.5821Z" fill="#263238"/>
<path d="M158.297 95.5373C158.297 95.5373 166.152 96.0623 173.947 91.4023C173.947 91.4023 169.982 99.6373 158.297 98.5173V95.5373Z" fill="#D1967C"/>
<path d="M159.707 81.5026C160.507 80.3076 161.712 79.5076 162.802 79.4576C163.557 79.4226 164.267 79.7526 164.617 80.4676C164.967 81.1826 164.897 82.3026 164.357 83.1476C163.752 84.0976 162.717 84.4826 161.917 84.3276C161.112 84.1776 160.487 83.5976 159.902 83.0126C159.737 82.8526 159.572 82.6826 159.492 82.4326C159.412 82.1876 159.437 81.8376 159.622 81.5876" fill="#D1967C"/>
<path d="M164.193 78.7092C163.933 78.6942 163.923 80.4442 162.423 81.6792C160.928 82.9192 159.063 82.7192 159.048 82.9641C159.023 83.0742 159.463 83.3041 160.248 83.3291C161.018 83.3591 162.148 83.1141 163.068 82.3541C163.983 81.5941 164.378 80.5792 164.438 79.8642C164.508 79.1342 164.313 78.6992 164.193 78.7092Z" fill="#263238"/>
<path d="M164.058 59.9231C164.258 60.3431 165.838 59.9781 167.743 60.0181C169.648 60.0181 171.218 60.4231 171.433 60.0081C171.528 59.8081 171.223 59.4281 170.568 59.0631C169.918 58.7031 168.908 58.3981 167.768 58.3831C166.628 58.3731 165.608 58.6531 164.953 58.9981C164.288 59.3431 163.978 59.7231 164.063 59.9231H164.058Z" fill="#263238"/>
<path d="M149.003 62.1637C149.358 62.5287 150.733 62.1487 152.393 62.1237C154.053 62.0537 155.458 62.3636 155.778 61.9786C155.918 61.7936 155.698 61.4286 155.083 61.0786C154.478 60.7336 153.468 60.4537 152.328 60.4837C151.188 60.5137 150.203 60.8486 149.628 61.2236C149.043 61.5986 148.853 61.9786 149.008 62.1586L149.003 62.1637Z" fill="#263238"/>
<path d="M201.752 103.928C199.207 99.8132 197.127 89.5582 196.242 84.3582C195.357 79.1582 192.602 62.4932 188.172 53.7382C183.742 44.9782 178.527 41.4382 173.412 40.0582C168.297 38.6782 164.457 40.5482 162.147 42.6182C159.837 44.6832 159.047 50.7031 159.047 50.7031C159.047 50.7031 171.392 53.4482 175.547 60.4882C180.322 68.5732 181.482 72.6432 181.482 72.6432L183.027 77.0682C183.027 77.0682 181.582 85.6282 181.047 89.8632C180.517 94.0932 181.362 98.0281 184.847 99.7431L191.852 104.693C191.852 104.693 201.012 110.918 201.432 111.238C203.387 112.733 207.217 118.423 207.217 118.423C207.217 118.423 206.952 112.348 201.752 103.933V103.928Z" fill="#263238"/>
<path d="M158.698 50.7787C158.698 50.7787 151.638 50.0137 149.033 57.9837C147.853 61.5887 146.953 72.0037 146.953 72.0037C146.953 72.0037 145.918 63.7337 146.303 59.0137C146.683 54.2937 149.038 48.3237 152.658 45.0187C156.178 41.8037 159.143 40.2987 165.433 40.6787C165.433 40.6787 162.503 41.6887 160.893 44.0737C160.088 45.2687 159.738 46.2887 158.698 50.7737V50.7787Z" fill="#263238"/>
<path d="M181.398 73.2516C181.528 70.6666 184.343 68.9416 186.583 70.2366C187.813 70.9466 188.753 72.3766 188.643 75.1216C188.343 82.4366 181.058 80.6266 181.053 80.4166C181.053 80.2866 181.248 76.2766 181.398 73.2516Z" fill="#EFBDA8"/>
<path d="M183.397 77.7361C183.432 77.7161 183.522 77.8311 183.732 77.9361C183.937 78.0411 184.297 78.1211 184.682 77.9961C185.467 77.7461 186.167 76.5461 186.257 75.2261C186.302 74.5611 186.192 73.9211 185.977 73.3861C185.777 72.8411 185.447 72.4511 185.057 72.3661C184.672 72.2611 184.387 72.4811 184.292 72.6861C184.187 72.8861 184.227 73.0361 184.187 73.0461C184.167 73.0661 184.037 72.9161 184.107 72.6161C184.142 72.4711 184.237 72.3011 184.412 72.1711C184.592 72.0361 184.857 71.9711 185.122 72.0161C185.687 72.0761 186.172 72.6161 186.407 73.2061C186.672 73.7961 186.817 74.5161 186.767 75.2661C186.657 76.7361 185.847 78.0861 184.777 78.3511C184.257 78.4661 183.832 78.2911 183.617 78.1111C183.397 77.9211 183.367 77.7561 183.392 77.7411L183.397 77.7361Z" fill="#D1967C"/>
<path d="M170.483 39.5949C170.483 39.6499 169.478 39.6199 167.888 39.8299C167.098 39.9499 166.158 40.1599 165.218 40.6249C164.268 41.0799 163.348 41.8049 162.538 42.7149C160.893 44.5299 159.988 46.6099 159.573 48.1499C159.148 49.6999 159.098 50.7049 159.043 50.6949C159.028 50.6949 159.028 50.4449 159.068 49.9899C159.108 49.5399 159.198 48.8899 159.393 48.0999C159.768 46.5299 160.663 44.3899 162.343 42.5399C163.173 41.6149 164.128 40.8649 165.113 40.4099C166.093 39.9399 167.058 39.7449 167.863 39.6449C168.673 39.5549 169.328 39.5449 169.778 39.5499C170.228 39.5549 170.478 39.5749 170.478 39.5899L170.483 39.5949Z" fill="#455A64"/>
<path d="M188.168 78.5406C188.168 78.5406 188.168 78.5006 188.183 78.4206C188.198 78.3306 188.223 78.2156 188.248 78.0806C188.278 77.9256 188.313 77.7406 188.358 77.5256C188.388 77.3006 188.428 77.0456 188.468 76.7606C188.618 75.6156 188.718 73.9206 188.403 71.8756C188.083 69.8406 187.353 67.4306 185.873 65.1306C184.408 62.8206 182.143 60.7406 179.453 59.1006C178.108 58.2706 176.723 57.5806 175.368 56.9606C174.013 56.3356 172.653 55.8506 171.393 55.2806C168.878 54.1356 166.758 52.8356 165.018 51.6956C163.283 50.5456 161.933 49.5356 161.013 48.8206C160.558 48.4606 160.203 48.1806 159.968 47.9806C159.863 47.8906 159.773 47.8156 159.703 47.7556C159.643 47.7056 159.613 47.6756 159.618 47.6706C159.623 47.6656 159.653 47.6906 159.718 47.7356C159.793 47.7906 159.888 47.8606 159.998 47.9406C160.263 48.1356 160.618 48.4056 161.073 48.7406C162.008 49.4306 163.373 50.4156 165.113 51.5406C166.863 52.6556 168.988 53.9356 171.488 55.0606C172.733 55.6206 174.103 56.1006 175.468 56.7256C176.833 57.3406 178.228 58.0406 179.588 58.8756C182.308 60.5306 184.598 62.6506 186.078 65.0006C187.573 67.3406 188.293 69.7856 188.588 71.8506C188.883 73.9256 188.753 75.6306 188.573 76.7806C188.523 77.0656 188.478 77.3206 188.438 77.5456C188.388 77.7556 188.343 77.9406 188.303 78.0956C188.268 78.2306 188.238 78.3406 188.213 78.4306C188.193 78.5056 188.178 78.5456 188.173 78.5456L188.168 78.5406Z" fill="#455A64"/>
<path d="M189.863 75.7793C189.863 75.7793 189.858 75.7393 189.853 75.6593C189.853 75.5643 189.853 75.4493 189.853 75.3093C189.853 75.0043 189.888 74.5493 189.878 73.9693C189.868 72.8043 189.783 71.1143 189.403 69.0693C189.018 67.0243 188.318 64.6293 187.138 62.1443C185.933 59.6743 184.258 57.1143 182.028 54.8593C179.798 52.5943 177.258 50.8993 174.868 49.5393C172.473 48.1743 170.223 47.1143 168.348 46.1993C166.468 45.2943 164.948 44.5443 163.918 43.9993C163.398 43.7293 163.003 43.5043 162.738 43.3543C162.618 43.2843 162.518 43.2243 162.433 43.1793C162.363 43.1393 162.333 43.1143 162.333 43.1143C162.333 43.1143 162.373 43.1243 162.443 43.1593C162.528 43.1993 162.633 43.2493 162.758 43.3093C163.053 43.4543 163.453 43.6543 163.963 43.9093C165.008 44.4293 166.533 45.1493 168.428 46.0343C170.313 46.9293 172.578 47.9693 174.988 49.3293C177.393 50.6843 179.963 52.3893 182.213 54.6793C184.468 56.9593 186.153 59.5493 187.358 62.0443C188.538 64.5543 189.223 66.9793 189.588 69.0393C189.948 71.1043 190.003 72.8043 189.983 73.9743C189.983 74.5593 189.928 75.0143 189.913 75.3193C189.903 75.4593 189.893 75.5743 189.883 75.6693C189.873 75.7493 189.868 75.7893 189.863 75.7893V75.7793Z" fill="#455A64"/>
<path d="M189.648 103.125C189.648 103.125 189.603 103.055 189.538 102.905C189.463 102.73 189.373 102.515 189.263 102.25C189.143 101.965 189.003 101.615 188.873 101.2C188.738 100.785 188.568 100.315 188.438 99.78C188.368 99.515 188.293 99.235 188.218 98.945C188.148 98.655 188.088 98.345 188.018 98.03C187.873 97.4 187.778 96.715 187.658 95.995C187.468 94.55 187.338 92.955 187.298 91.275C187.243 87.915 187.508 84.885 187.723 82.7C187.833 81.61 187.938 80.725 188.018 80.115C188.058 79.835 188.088 79.605 188.113 79.415C188.138 79.255 188.153 79.17 188.163 79.175C188.173 79.175 188.173 79.26 188.163 79.425C188.148 79.615 188.133 79.85 188.113 80.13C188.058 80.78 187.988 81.655 187.903 82.72C187.733 84.905 187.498 87.93 187.553 91.27C187.588 92.94 187.708 94.525 187.888 95.96C187.998 96.675 188.083 97.355 188.218 97.985C188.283 98.3 188.333 98.605 188.398 98.895C188.468 99.185 188.538 99.46 188.603 99.73C188.723 100.265 188.878 100.735 188.998 101.15C189.113 101.57 189.238 101.925 189.343 102.21C189.433 102.475 189.508 102.695 189.573 102.88C189.623 103.035 189.643 103.115 189.638 103.12L189.648 103.125Z" fill="#455A64"/>
<path d="M97.088 170.291C97.088 170.291 105.038 180.486 107.888 181.301C110.738 182.116 121.533 184.776 121.533 184.776L156.958 192.966L152.783 177.781L119.238 177.321L97.083 170.291H97.088Z" fill="#EFBDA8"/>
<path d="M51.5381 118.351C54.1931 124.936 67.5731 155.061 70.6781 162.036C71.0881 162.956 71.8681 163.656 72.8281 163.961L114.938 177.331L156.718 180.456V179.081L122.943 168.846L112.273 167.596L96.3431 128.086C95.6131 126.276 94.0081 124.966 92.0881 124.611L52.3831 117.331C51.7981 117.226 51.3231 117.801 51.5431 118.351H51.5381Z" fill="#455A64"/>
<path d="M156.714 179.071C156.714 179.071 156.669 179.071 156.579 179.071C156.474 179.061 156.349 179.056 156.189 179.041C155.829 179.006 155.329 178.961 154.699 178.906C153.384 178.776 151.519 178.586 149.224 178.356C146.904 178.116 144.159 177.826 141.104 177.511C138.044 177.206 134.684 176.866 131.159 176.511C127.629 176.161 124.264 175.896 121.199 175.721C119.664 175.626 118.209 175.531 116.844 175.446C116.499 175.421 116.164 175.386 115.829 175.321C115.664 175.286 115.499 175.241 115.339 175.161C115.169 175.091 115.039 174.931 114.959 174.791C114.634 174.211 114.499 173.621 114.269 173.086C113.454 170.926 112.789 169.176 112.324 167.941C112.104 167.346 111.934 166.876 111.809 166.536C111.759 166.386 111.714 166.266 111.679 166.166C111.649 166.081 111.639 166.041 111.644 166.036C111.644 166.036 111.669 166.076 111.704 166.156C111.744 166.251 111.794 166.371 111.854 166.516C111.989 166.851 112.179 167.316 112.419 167.901C112.904 169.131 113.594 170.871 114.444 173.021C114.674 173.551 114.829 174.161 115.129 174.686C115.209 174.816 115.294 174.916 115.429 174.976C115.559 175.041 115.714 175.081 115.869 175.116C116.184 175.181 116.514 175.211 116.854 175.231C118.214 175.296 119.674 175.391 121.209 175.481C124.279 175.641 127.654 175.901 131.184 176.251C134.709 176.611 138.069 176.956 141.129 177.271C144.179 177.611 146.929 177.916 149.244 178.171C151.539 178.436 153.399 178.651 154.714 178.801C155.344 178.881 155.839 178.941 156.199 178.986C156.354 179.006 156.484 179.026 156.584 179.041C156.669 179.056 156.714 179.066 156.714 179.066V179.071Z" fill="#263238"/>
<path d="M135.123 171.001C135.123 171.001 135.728 167.031 135.123 166.246C134.518 165.466 130.263 161.636 130.263 161.636L127.853 159.366L122.528 158.551C121.888 158.451 121.248 158.746 120.903 159.296L120.358 160.171L118.918 159.931L117.643 158.086H114.098L111.473 160.926V164.756C111.473 164.756 111.828 165.821 112.748 165.041C113.668 164.261 113.728 162.101 113.728 162.101L115.303 163.551L113.628 168.661C113.628 168.661 114.803 169.726 115.658 168.661C116.508 167.596 117.713 166.036 117.713 166.036C117.713 166.036 119.133 169.866 121.543 171.001C123.953 172.136 129.773 173.171 130.978 172.901C132.183 172.631 134.903 173.121 135.133 171.001H135.123Z" fill="#EFBDA8"/>
<path d="M126.697 162.29C126.697 162.29 126.677 162.35 126.602 162.435C126.527 162.52 126.387 162.625 126.187 162.7C125.982 162.775 125.717 162.815 125.412 162.81C125.107 162.81 124.767 162.735 124.402 162.7C124.042 162.665 123.627 162.66 123.277 162.875C122.927 163.09 122.682 163.5 122.347 163.88C121.687 164.62 120.722 165.36 119.502 165.425C118.552 165.475 117.597 165.05 117.127 164.32L117.072 164.235L117.137 164.165C118.277 162.975 119.132 161.845 119.712 161.025C120.287 160.205 120.597 159.695 120.627 159.715C120.637 159.72 120.577 159.855 120.447 160.1C120.317 160.34 120.112 160.69 119.842 161.115C119.297 161.965 118.457 163.125 117.322 164.34L117.337 164.185C117.757 164.825 118.617 165.21 119.492 165.165C120.602 165.11 121.527 164.425 122.172 163.715C122.497 163.365 122.752 162.935 123.172 162.69C123.597 162.44 124.057 162.47 124.427 162.515C124.807 162.565 125.132 162.645 125.422 162.665C125.712 162.685 125.962 162.665 126.157 162.605C126.552 162.49 126.682 162.27 126.702 162.29H126.697Z" fill="#D1967C"/>
<path d="M130.878 170.79C130.848 170.795 130.818 170.565 130.658 170.19C130.508 169.81 130.203 169.3 129.738 168.735C129.278 168.165 128.643 167.545 128.068 166.73C127.788 166.32 127.533 165.845 127.403 165.305C127.263 164.77 127.283 164.175 127.433 163.615C127.583 163.05 127.853 162.535 128.198 162.11C128.373 161.895 128.573 161.69 128.838 161.575C129.103 161.45 129.428 161.47 129.668 161.6C130.168 161.855 130.373 162.36 130.518 162.76C130.658 163.175 130.803 163.54 130.993 163.85C131.363 164.475 131.803 164.885 132.123 165.14C132.443 165.395 132.648 165.5 132.638 165.52C132.633 165.53 132.413 165.455 132.063 165.22C131.718 164.99 131.243 164.585 130.838 163.945C130.633 163.63 130.463 163.24 130.318 162.835C130.173 162.435 129.968 162.01 129.568 161.815C129.373 161.715 129.148 161.705 128.948 161.805C128.743 161.9 128.563 162.075 128.408 162.275C128.088 162.68 127.838 163.165 127.698 163.69C127.558 164.215 127.543 164.76 127.668 165.255C127.783 165.755 128.018 166.205 128.283 166.605C128.828 167.4 129.448 168.035 129.898 168.63C130.358 169.22 130.648 169.765 130.773 170.165C130.843 170.365 130.868 170.525 130.883 170.635C130.898 170.745 130.903 170.8 130.893 170.8L130.878 170.79Z" fill="#D1967C"/>
<path d="M117.348 160.976C117.348 161.011 116.963 160.911 116.578 161.291C116.193 161.661 115.908 162.376 115.623 163.176C115.338 163.976 115.088 164.706 114.878 165.226C114.673 165.746 114.508 166.056 114.473 166.041C114.438 166.026 114.543 165.701 114.703 165.166C114.863 164.631 115.088 163.896 115.378 163.091C115.663 162.296 115.983 161.541 116.453 161.161C116.683 160.966 116.933 160.901 117.103 160.906C117.273 160.911 117.353 160.966 117.348 160.981V160.976Z" fill="#D1967C"/>
<path d="M117.728 160.911C117.728 160.941 117.508 160.986 117.143 160.941C116.783 160.896 116.268 160.731 115.808 160.346H115.973C115.868 160.436 115.758 160.531 115.648 160.626C114.628 161.496 113.763 162.156 113.718 162.101C113.673 162.046 114.458 161.296 115.478 160.431C115.588 160.336 115.698 160.246 115.808 160.151L115.893 160.081L115.973 160.151C116.383 160.506 116.843 160.686 117.173 160.776C117.508 160.866 117.723 160.876 117.723 160.911H117.728Z" fill="#D1967C"/>
<path d="M123.363 170.056C123.333 170.041 123.458 169.686 123.743 169.151C124.028 168.616 124.483 167.906 125.093 167.211C125.708 166.516 126.348 165.971 126.843 165.621C127.338 165.271 127.673 165.101 127.693 165.131C127.738 165.196 126.483 166.011 125.288 167.386C124.083 168.746 123.438 170.096 123.363 170.061V170.056Z" fill="#D1967C"/>
<path d="M93.3438 125.245C93.3438 125.245 93.3688 125.285 93.4088 125.375C93.4538 125.475 93.5087 125.605 93.5737 125.765C93.7237 126.125 93.9287 126.63 94.1937 127.27C94.7287 128.6 95.4888 130.49 96.4238 132.82C98.2938 137.53 100.859 144.01 103.699 151.165C106.509 158.335 109.054 164.825 110.904 169.54C111.809 171.88 112.544 173.785 113.059 175.12C113.304 175.765 113.494 176.275 113.634 176.64C113.694 176.805 113.739 176.935 113.779 177.04C113.809 177.13 113.824 177.175 113.819 177.18C113.819 177.18 113.794 177.14 113.754 177.05C113.709 176.95 113.654 176.82 113.589 176.66C113.439 176.3 113.234 175.795 112.969 175.155C112.434 173.825 111.674 171.935 110.739 169.605C108.869 164.895 106.304 158.415 103.464 151.255C100.654 144.09 98.1087 137.6 96.2637 132.88C95.3587 130.54 94.6237 128.635 94.1087 127.3C93.8637 126.655 93.6738 126.145 93.5338 125.78C93.4738 125.615 93.4287 125.485 93.3887 125.38C93.3587 125.29 93.3437 125.245 93.3487 125.24L93.3438 125.245Z" fill="#263238"/>
<path d="M84.3542 143.881C85.4142 145.351 85.4042 147.171 84.3292 147.951C83.2542 148.731 81.5192 148.171 80.4542 146.701C79.3942 145.231 79.4042 143.411 80.4792 142.631C81.5542 141.851 83.2892 142.411 84.3542 143.881Z" fill="white"/>
<path d="M322.589 216.332C322.589 216.402 250.449 216.462 161.479 216.462C72.5095 216.462 0.354492 216.402 0.354492 216.332C0.354492 216.262 72.4795 216.202 161.479 216.202C250.479 216.202 322.589 216.262 322.589 216.332Z" fill="#263238"/>
<path d="M117.575 42.0449H19.2446C17.0713 42.0449 15.3096 43.8067 15.3096 45.9799V103.93C15.3096 106.103 17.0713 107.865 19.2446 107.865H117.575C119.748 107.865 121.51 106.103 121.51 103.93V45.9799C121.51 43.8067 119.748 42.0449 117.575 42.0449Z" fill="#263238"/>
<path d="M68.4093 83.9407C72.8773 83.9407 76.4993 80.3187 76.4993 75.8507C76.4993 71.3828 72.8773 67.7607 68.4093 67.7607C63.9414 67.7607 60.3193 71.3828 60.3193 75.8507C60.3193 80.3187 63.9414 83.9407 68.4093 83.9407Z" fill="#FF725E"/>
<path d="M66.459 78.216V73.441C66.459 73.206 66.709 73.061 66.914 73.176L71.179 75.581C71.384 75.696 71.384 75.996 71.179 76.111L66.914 78.481C66.709 78.591 66.464 78.446 66.464 78.216H66.459Z" fill="white"/>
<path d="M21.3791 100.299V100.469H20.5791V100.334L21.0091 99.9241C21.1141 99.8241 21.1341 99.7591 21.1341 99.6991C21.1341 99.5991 21.0641 99.5441 20.9341 99.5441C20.8291 99.5441 20.7391 99.5791 20.6791 99.6591L20.5391 99.5491C20.6241 99.4341 20.7741 99.3691 20.9491 99.3691C21.1841 99.3691 21.3341 99.4891 21.3341 99.6791C21.3341 99.7841 21.3041 99.8791 21.1541 100.019L20.8641 100.294H21.3741L21.3791 100.299Z" fill="white"/>
<path d="M21.4893 99.7638C21.4893 99.6888 21.5443 99.6338 21.6143 99.6338C21.6843 99.6338 21.7393 99.6838 21.7393 99.7638C21.7393 99.8438 21.6843 99.8938 21.6143 99.8938C21.5443 99.8938 21.4893 99.8388 21.4893 99.7638ZM21.4893 100.354C21.4893 100.274 21.5443 100.224 21.6143 100.224C21.6843 100.224 21.7393 100.274 21.7393 100.354C21.7393 100.434 21.6843 100.484 21.6143 100.484C21.5443 100.484 21.4893 100.429 21.4893 100.354Z" fill="white"/>
<path d="M22.2493 99.3896V100.475H22.0493V99.5596H21.8193V99.3896H22.2493Z" fill="white"/>
<path d="M23.4292 100.224H23.2392V100.469H23.0442V100.224H22.4492V100.084L22.9842 99.3838H23.1992L22.6942 100.054H23.0492V99.8338H23.2392V100.054H23.4292V100.224Z" fill="white"/>
<path d="M107.449 99.7949H25.1992V100.17H107.449V99.7949Z" fill="white"/>
<path d="M50.8437 99.3906H25.1387V100.391H50.8437V99.3906Z" fill="#FF725E"/>
<path d="M51.6699 99.9795C51.6699 100.669 51.1099 101.229 50.4199 101.229C49.7299 101.229 49.1699 100.669 49.1699 99.9795C49.1699 99.2895 49.7299 98.7295 50.4199 98.7295C51.1099 98.7295 51.6699 99.2895 51.6699 99.9795Z" fill="#FF725E"/>
<path d="M109.52 99.9691C109.52 100.184 109.345 100.319 109.125 100.319C108.83 100.319 108.655 100.129 108.655 99.7791C108.655 99.4091 108.87 99.2041 109.185 99.2041C109.295 99.2041 109.395 99.2291 109.47 99.2741L109.395 99.4241C109.335 99.3841 109.265 99.3691 109.19 99.3691C108.985 99.3691 108.855 99.4941 108.855 99.7441C108.92 99.6691 109.025 99.6341 109.145 99.6341C109.36 99.6341 109.52 99.7641 109.52 99.9691ZM109.325 99.9791C109.325 99.8641 109.24 99.7941 109.11 99.7941C108.98 99.7941 108.89 99.8741 108.89 99.9791C108.89 100.084 108.97 100.164 109.115 100.164C109.24 100.164 109.325 100.094 109.325 99.9791Z" fill="white"/>
<path d="M109.621 99.5939C109.621 99.5189 109.676 99.4639 109.746 99.4639C109.816 99.4639 109.871 99.5139 109.871 99.5939C109.871 99.6739 109.816 99.7239 109.746 99.7239C109.676 99.7239 109.621 99.6689 109.621 99.5939ZM109.621 100.184C109.621 100.104 109.676 100.054 109.746 100.054C109.816 100.054 109.871 100.104 109.871 100.184C109.871 100.264 109.816 100.314 109.746 100.314C109.676 100.314 109.621 100.259 109.621 100.184Z" fill="white"/>
<path d="M110.006 99.7641C110.006 99.4091 110.201 99.2041 110.456 99.2041C110.711 99.2041 110.911 99.4041 110.911 99.7641C110.911 100.124 110.716 100.324 110.456 100.324C110.196 100.324 110.006 100.124 110.006 99.7641ZM110.706 99.7641C110.706 99.5041 110.606 99.3791 110.456 99.3791C110.306 99.3791 110.206 99.4991 110.206 99.7641C110.206 100.029 110.306 100.144 110.456 100.144C110.606 100.144 110.706 100.024 110.706 99.7641Z" fill="white"/>
<path d="M111.045 99.7641C111.045 99.4091 111.24 99.2041 111.495 99.2041C111.75 99.2041 111.95 99.4041 111.95 99.7641C111.95 100.124 111.755 100.324 111.495 100.324C111.235 100.324 111.045 100.124 111.045 99.7641ZM111.75 99.7641C111.75 99.5041 111.65 99.3791 111.5 99.3791C111.35 99.3791 111.25 99.4991 111.25 99.7641C111.25 100.029 111.35 100.144 111.5 100.144C111.65 100.144 111.75 100.024 111.75 99.7641Z" fill="white"/>
<path d="M113.699 99.6943H113.324V98.6143H114.404V98.9893H113.699V99.6943Z" fill="white"/>
<path d="M114.404 101.104H113.324V100.029H113.699V100.729H114.404V101.104Z" fill="white"/>
<path d="M116.129 101.104H115.049V100.729H115.754V100.024H116.129V101.104Z" fill="white"/>
<path d="M116.129 99.6943H115.754V98.9893H115.049V98.6143H116.129V99.6943Z" fill="white"/>
<path d="M75.9043 50.5948C75.9043 50.6648 64.9893 50.7248 51.5293 50.7248C38.0693 50.7248 27.1543 50.6648 27.1543 50.5948C27.1543 50.5248 38.0643 50.4648 51.5293 50.4648C64.9943 50.4648 75.9043 50.5248 75.9043 50.5948Z" fill="white"/>
<path d="M22.925 52.5199C23.9881 52.5199 24.85 51.6581 24.85 50.5949C24.85 49.5318 23.9881 48.6699 22.925 48.6699C21.8619 48.6699 21 49.5318 21 50.5949C21 51.6581 21.8619 52.5199 22.925 52.5199Z" fill="white"/>
<path d="M277.355 11.0195H204.425C202.252 11.0195 200.49 12.7813 200.49 14.9545V57.1645C200.49 59.3378 202.252 61.0995 204.425 61.0995H277.355C279.528 61.0995 281.29 59.3378 281.29 57.1645V14.9545C281.29 12.7813 279.528 11.0195 277.355 11.0195Z" fill="#F5F5F5"/>
<path d="M268.465 32.9256C266.535 31.7456 264.37 30.7356 262.11 30.8256C258.895 30.9456 256.215 33.1956 253.805 35.3306C250.055 38.6556 246.305 41.9806 242.555 45.3056C242.12 45.6906 241.605 46.1006 241.035 46.0156C240.58 45.9506 240.235 45.5856 239.93 45.2456C236.61 41.5606 233.29 37.8806 229.965 34.1956C227.9 31.9056 225.54 29.4556 222.465 29.1606C219.975 28.9206 217.595 30.1706 215.505 31.5406C209.565 35.4306 204.36 40.6706 200.605 46.6956L200.49 57.1556C201.15 59.4156 203.165 61.0956 205.305 61.0956H276.48C278.59 61.0956 280.91 59.6106 281.29 56.6806V46.8306C278.55 41.1256 273.865 36.2256 268.465 32.9206V32.9256Z" fill="#455A64"/>
<path d="M205.106 55.3445V55.4745H204.501V55.3745L204.826 55.0645C204.906 54.9895 204.921 54.9395 204.921 54.8945C204.921 54.8195 204.871 54.7745 204.766 54.7745C204.686 54.7745 204.621 54.7995 204.571 54.8595L204.466 54.7795C204.531 54.6945 204.646 54.6445 204.776 54.6445C204.956 54.6445 205.071 54.7345 205.071 54.8795C205.071 54.9595 205.051 55.0345 204.936 55.1395L204.716 55.3495H205.106V55.3445Z" fill="#263238"/>
<path d="M205.191 54.9389C205.191 54.8789 205.236 54.8389 205.286 54.8389C205.336 54.8389 205.381 54.8789 205.381 54.9389C205.381 54.9989 205.336 55.0339 205.286 55.0339C205.236 55.0339 205.191 54.9939 205.191 54.9389ZM205.191 55.3839C205.191 55.3239 205.236 55.2889 205.286 55.2889C205.336 55.2889 205.381 55.3289 205.381 55.3839C205.381 55.4389 205.336 55.4839 205.286 55.4839C205.236 55.4839 205.191 55.4439 205.191 55.3839Z" fill="#263238"/>
<path d="M205.766 54.6494V55.4744H205.611V54.7794H205.436V54.6494H205.761H205.766Z" fill="#263238"/>
<path d="M206.666 55.2903H206.521V55.4753H206.371V55.2903H205.921V55.1853L206.326 54.6553H206.491L206.111 55.1603H206.381V54.9953H206.526V55.1603H206.671V55.2903H206.666Z" fill="#263238"/>
<path d="M270.596 54.9141H208.016V55.2891H270.596V54.9141Z" fill="#263238"/>
<path d="M227.521 54.5293H207.966V55.5293H227.521V54.5293Z" fill="#FF725E"/>
<path d="M228.155 55.0994C228.155 55.6244 227.73 56.0494 227.205 56.0494C226.68 56.0494 226.255 55.6244 226.255 55.0994C226.255 54.5744 226.68 54.1494 227.205 54.1494C227.73 54.1494 228.155 54.5744 228.155 55.0994Z" fill="#FF725E"/>
<path d="M272.165 55.0898C272.165 55.2548 272.03 55.3548 271.865 55.3548C271.64 55.3548 271.51 55.2098 271.51 54.9448C271.51 54.6648 271.675 54.5098 271.915 54.5098C272 54.5098 272.075 54.5298 272.13 54.5648L272.075 54.6798C272.03 54.6498 271.975 54.6398 271.92 54.6398C271.765 54.6398 271.67 54.7348 271.67 54.9248C271.72 54.8698 271.8 54.8398 271.89 54.8398C272.05 54.8398 272.175 54.9398 272.175 55.0948L272.165 55.0898ZM272.02 55.0998C272.02 55.0148 271.955 54.9598 271.855 54.9598C271.755 54.9598 271.69 55.0198 271.69 55.0998C271.69 55.1798 271.75 55.2398 271.86 55.2398C271.955 55.2398 272.02 55.1848 272.02 55.0998Z" fill="#263238"/>
<path d="M272.24 54.81C272.24 54.75 272.285 54.71 272.335 54.71C272.385 54.71 272.43 54.75 272.43 54.81C272.43 54.87 272.385 54.905 272.335 54.905C272.285 54.905 272.24 54.865 272.24 54.81ZM272.24 55.26C272.24 55.2 272.285 55.165 272.335 55.165C272.385 55.165 272.43 55.205 272.43 55.26C272.43 55.315 272.385 55.36 272.335 55.36C272.285 55.36 272.24 55.32 272.24 55.26Z" fill="#263238"/>
<path d="M272.534 54.9348C272.534 54.6648 272.684 54.5098 272.879 54.5098C273.074 54.5098 273.224 54.6648 273.224 54.9348C273.224 55.2048 273.074 55.3598 272.879 55.3598C272.684 55.3598 272.534 55.2048 272.534 54.9348ZM273.069 54.9348C273.069 54.7348 272.994 54.6448 272.879 54.6448C272.764 54.6448 272.689 54.7348 272.689 54.9348C272.689 55.1348 272.769 55.2248 272.879 55.2248C272.989 55.2248 273.069 55.1348 273.069 54.9348Z" fill="#263238"/>
<path d="M273.324 54.9348C273.324 54.6648 273.474 54.5098 273.669 54.5098C273.864 54.5098 274.014 54.6648 274.014 54.9348C274.014 55.2048 273.864 55.3598 273.669 55.3598C273.474 55.3598 273.324 55.2048 273.324 54.9348ZM273.859 54.9348C273.859 54.7348 273.784 54.6448 273.669 54.6448C273.554 54.6448 273.479 54.7348 273.479 54.9348C273.479 55.1348 273.559 55.2248 273.669 55.2248C273.779 55.2248 273.859 55.1348 273.859 54.9348Z" fill="#263238"/>
<path d="M275.396 54.8847H275.021V54.0146H275.886V54.3896H275.396V54.8847Z" fill="#263238"/>
<path d="M275.886 55.9988H275.021V55.1338H275.396V55.6238H275.886V55.9988Z" fill="#263238"/>
<path d="M277.24 55.9988H276.375V55.6238H276.865V55.1338H277.24V55.9988Z" fill="#263238"/>
<path d="M277.24 54.8796H276.865V54.3896H276.375V54.0146H277.24V54.8796Z" fill="#263238"/>
<path d="M246.59 17.5236C246.59 17.5936 238.285 17.6536 228.045 17.6536C217.805 17.6536 209.5 17.5936 209.5 17.5236C209.5 17.4536 217.8 17.3936 228.045 17.3936C238.29 17.3936 246.59 17.4536 246.59 17.5236Z" fill="#263238"/>
<path d="M207.745 17.5246C207.745 18.3346 207.09 18.9896 206.28 18.9896C205.47 18.9896 204.815 18.3346 204.815 17.5246C204.815 16.7146 205.47 16.0596 206.28 16.0596C207.09 16.0596 207.745 16.7146 207.745 17.5246Z" fill="#263238"/>
<path d="M277.355 61.0999C277.355 61.0999 277.58 61.1049 278.01 61.0299C278.43 60.9499 279.08 60.7799 279.745 60.2549C280.405 59.7449 281.085 58.8449 281.225 57.6049C281.275 56.3749 281.23 54.9349 281.24 53.3249C281.23 46.8699 281.215 37.5349 281.2 25.9999C281.2 23.1149 281.195 20.0949 281.19 16.9449C281.18 16.1649 281.21 15.3499 281.17 14.5699C281.085 13.7949 280.77 13.0299 280.24 12.4349C279.72 11.8299 278.995 11.3999 278.205 11.2249C277.805 11.1349 277.405 11.1249 276.98 11.1299C276.56 11.1299 276.14 11.1299 275.715 11.1299C268.93 11.1299 261.685 11.1399 254.06 11.1399C238.805 11.1399 222.04 11.1449 204.435 11.1499C203.365 11.1399 202.32 11.6149 201.61 12.4049C200.885 13.1899 200.555 14.2599 200.625 15.3349C200.625 17.5099 200.625 19.6699 200.625 21.8099C200.625 26.0949 200.625 30.3199 200.625 34.4699C200.625 38.6199 200.625 42.6999 200.625 46.6899C200.625 48.6849 200.625 50.6599 200.625 52.6149C200.625 53.5899 200.625 54.5599 200.625 55.5299C200.625 56.0149 200.625 56.4949 200.625 56.9749C200.625 57.4499 200.665 57.9099 200.815 58.3499C201.095 59.2349 201.72 59.9899 202.505 60.4499C202.9 60.6799 203.33 60.8399 203.775 60.9199C204.215 61.0049 204.68 60.9749 205.15 60.9799C207.01 60.9799 208.84 60.9799 210.65 60.9799C214.265 60.9799 217.77 60.9799 221.165 60.9849C227.95 60.9899 234.265 60.9949 240.035 60.9999C251.57 61.0199 260.905 61.0299 267.36 61.0399C270.58 61.0499 273.085 61.0599 274.79 61.0649C275.635 61.0699 276.28 61.0749 276.72 61.0799C277.155 61.0799 277.38 61.0949 277.38 61.0949C277.38 61.0949 277.155 61.1049 276.72 61.1099C276.28 61.1099 275.635 61.1149 274.79 61.1249C273.085 61.1299 270.585 61.1399 267.36 61.1499C260.905 61.1599 251.57 61.1749 240.035 61.1899C234.265 61.1899 227.95 61.1999 221.165 61.2049C217.775 61.2049 214.265 61.2049 210.65 61.2099C208.845 61.2099 207.01 61.2099 205.15 61.2099C204.69 61.2049 204.215 61.2349 203.735 61.1449C203.26 61.0599 202.8 60.8899 202.385 60.6449C201.55 60.1549 200.885 59.3549 200.59 58.4149C200.435 57.9499 200.385 57.4449 200.39 56.9649C200.39 56.4849 200.39 56.0049 200.39 55.5199C200.39 54.5549 200.39 53.5849 200.39 52.6049C200.39 50.6499 200.39 48.6749 200.39 46.6799C200.39 42.6849 200.39 38.6099 200.39 34.4599C200.39 30.3099 200.39 26.0849 200.39 21.7999C200.39 19.6549 200.39 17.4949 200.39 15.3249C200.375 14.7899 200.41 14.1999 200.595 13.6749C200.77 13.1399 201.065 12.6449 201.44 12.2249C202.195 11.3849 203.315 10.8749 204.455 10.8849C222.055 10.8849 238.825 10.8899 254.08 10.8949C261.705 10.8949 268.955 10.9049 275.735 10.9049C276.16 10.9049 276.58 10.9049 277 10.9049C277.415 10.8999 277.855 10.9149 278.27 11.0049C279.105 11.1949 279.87 11.6499 280.415 12.2849C280.975 12.9149 281.31 13.7149 281.395 14.5349C281.435 15.3549 281.405 16.1399 281.415 16.9299C281.415 20.0799 281.41 23.0999 281.405 25.9849C281.39 37.5199 281.375 46.8549 281.365 53.3099C281.35 54.9249 281.385 56.3549 281.325 57.5999C281.175 58.8599 280.475 59.7699 279.8 60.2799C279.12 60.8049 278.46 60.9699 278.035 61.0399C277.82 61.0749 277.655 61.0849 277.545 61.0849C277.435 61.0849 277.38 61.0849 277.38 61.0849L277.355 61.0999Z" fill="#263238"/>
<path d="M242.245 33.9246C245.211 33.9246 247.615 31.5203 247.615 28.5546C247.615 25.5888 245.211 23.1846 242.245 23.1846C239.279 23.1846 236.875 25.5888 236.875 28.5546C236.875 31.5203 239.279 33.9246 242.245 33.9246Z" fill="#455A64"/>
<path d="M159.36 30.4295C159.345 30.3845 159.885 30.4845 160.635 29.9745C160.99 29.7145 161.375 29.2745 161.535 28.6395C161.625 28.3245 161.615 27.9795 161.615 27.5945C161.615 27.2095 161.615 26.8045 161.615 26.3745C161.63 22.8995 161.655 17.9145 161.68 11.7595C161.69 10.2145 161.7 8.59951 161.71 6.91951C161.715 6.07951 161.72 5.21951 161.73 4.34451C161.72 3.90951 161.77 3.45451 161.685 3.06451C161.6 2.65951 161.4 2.27951 161.11 1.98451C160.815 1.68951 160.435 1.47951 160.02 1.40451C159.62 1.33951 159.125 1.38451 158.665 1.37451C157.73 1.37951 156.775 1.38951 155.81 1.39451C153.875 1.40951 151.89 1.41951 149.85 1.43451C141.69 1.47951 132.725 1.52951 123.31 1.57951C122.23 1.56451 121.28 2.51451 121.215 3.57451C121.2 4.72951 121.185 5.87951 121.175 7.01951C121.15 9.31451 121.13 11.5695 121.105 13.7895C121.06 18.2295 121.015 22.5095 120.97 26.5895C120.965 27.0995 120.96 27.6045 120.955 28.1095C120.93 28.5945 121.045 29.0395 121.285 29.4295C121.525 29.8145 121.885 30.1195 122.305 30.2745C122.715 30.4495 123.18 30.3995 123.675 30.4045C125.605 30.3995 127.485 30.3945 129.3 30.3895C132.925 30.3845 136.305 30.3745 139.39 30.3695C145.54 30.3695 150.53 30.3695 154.005 30.3695C155.71 30.3795 157.045 30.3895 157.98 30.3945C158.415 30.3995 158.76 30.4095 159.015 30.4095C159.25 30.4145 159.365 30.4245 159.365 30.4295C159.365 30.4395 159.245 30.4445 159.015 30.4545C158.76 30.4595 158.42 30.4695 157.98 30.4795C157.045 30.4945 155.715 30.5145 154.005 30.5395C150.53 30.5745 145.545 30.6195 139.39 30.6795C136.305 30.7045 132.925 30.7295 129.3 30.7545C127.485 30.7645 125.61 30.7795 123.68 30.7945C123.22 30.7895 122.675 30.8495 122.165 30.6395C121.66 30.4545 121.23 30.0895 120.94 29.6345C120.65 29.1795 120.515 28.6145 120.545 28.0895C120.545 27.5845 120.555 27.0795 120.555 26.5695C120.59 22.4895 120.625 18.2095 120.665 13.7695C120.685 11.5495 120.705 9.28951 120.725 6.99951C120.74 5.84951 120.755 4.68951 120.765 3.51951C120.845 2.24451 121.98 1.09451 123.305 1.10951C132.72 1.06951 141.685 1.03451 149.845 0.999512C151.885 0.994512 153.875 0.984512 155.805 0.979512C156.77 0.979512 157.725 0.974511 158.66 0.969511C159.135 0.984511 159.575 0.929512 160.09 1.00951C160.585 1.09951 161.035 1.35451 161.38 1.70451C161.72 2.05951 161.955 2.50451 162.05 2.97451C162.145 3.45951 162.085 3.89951 162.095 4.33451C162.085 5.20951 162.075 6.06951 162.065 6.90951C162.045 8.59451 162.025 10.2095 162.005 11.7495C161.915 17.8995 161.845 22.8895 161.795 26.3645C161.785 26.7945 161.78 27.2045 161.775 27.5845C161.77 27.9595 161.775 28.3345 161.67 28.6645C161.485 29.3295 161.07 29.7745 160.69 30.0345C160.3 30.2895 159.95 30.3795 159.72 30.4045C159.485 30.4345 159.365 30.4145 159.365 30.4145L159.36 30.4295Z" fill="#FF725E"/>
<path d="M142.86 13.3887L147.79 16.3487L142.78 19.3237L137.77 22.2937L137.845 16.3587L137.925 10.4287L142.86 13.3887Z" fill="#FF725E"/>
</svg>
