<svg width="290" height="154" viewBox="0 0 290 154" fill="none" xmlns="http://www.w3.org/2000/svg">
<g clip-path="url(#clip0_2850_24552)">
<path fill-rule="evenodd" clip-rule="evenodd" d="M140.543 24.6154C144.887 21.9288 149.893 20.5039 155 20.5C161.319 20.4989 167.445 22.6738 172.349 26.6589C177.252 30.6441 180.634 36.1963 181.925 42.3817C183.216 48.5671 182.337 55.0084 179.437 60.6222C176.537 66.2361 171.792 70.6799 166 73.2062C165.685 73.3461 165.345 73.4185 165 73.4187C164.425 73.4201 163.867 73.2229 163.42 72.8604C162.973 72.498 162.665 71.9925 162.547 71.4293C162.43 70.866 162.51 70.2795 162.775 69.7686C163.039 69.2578 163.472 68.8538 164 68.625C167.718 67.0024 170.928 64.405 173.29 61.1076C175.653 57.8102 177.08 53.9355 177.421 49.8934C177.761 45.8514 177.003 41.7924 175.226 38.146C173.449 34.4996 170.719 31.4015 167.325 29.1795C163.932 26.9575 160.001 25.6942 155.948 25.5234C151.895 25.3525 147.871 26.2805 144.303 28.2091C140.734 30.1376 137.753 32.9951 135.676 36.479C133.598 39.9629 132.501 43.9436 132.5 48C132.5 48.663 132.237 49.2989 131.768 49.7678C131.299 50.2366 130.663 50.5 130 50.5C129.337 50.5 128.701 50.2366 128.232 49.7678C127.764 49.2989 127.5 48.663 127.5 48C127.499 45.4771 127.845 42.9661 128.528 40.5375C128.188 40.5 127.844 40.5 127.5 40.5C123.522 40.5 119.707 42.0804 116.894 44.8934C114.081 47.7064 112.5 51.5218 112.5 55.5C112.5 59.4782 114.081 63.2936 116.894 66.1066C119.707 68.9196 123.522 70.5 127.5 70.5H140C140.663 70.5 141.299 70.7634 141.768 71.2322C142.237 71.7011 142.5 72.337 142.5 73C142.5 73.663 142.237 74.2989 141.768 74.7678C141.299 75.2366 140.663 75.5 140 75.5H127.5C124.751 75.5006 122.031 74.9344 119.51 73.8365C116.989 72.7387 114.722 71.133 112.849 69.1195C110.977 67.1061 109.54 64.7282 108.628 62.1345C107.716 59.5407 107.349 56.7867 107.549 54.0446C107.749 51.3024 108.512 48.6309 109.791 46.197C111.07 43.7631 112.837 41.6191 114.982 39.8987C117.126 38.1784 119.603 36.9188 122.256 36.1985C124.91 35.4782 127.683 35.3128 130.403 35.7125C132.688 31.1444 136.199 27.302 140.543 24.6154Z" fill="#ED7424"/>
<g clip-path="url(#clip1_2850_24552)">
<path fill-rule="evenodd" clip-rule="evenodd" d="M156 54.0344L161.731 59.7687C161.963 60.001 162.239 60.1853 162.542 60.311C162.846 60.4367 163.171 60.5014 163.5 60.5014C163.828 60.5014 164.153 60.4367 164.457 60.311C164.76 60.1853 165.036 60.001 165.268 59.7687C165.501 59.5365 165.685 59.2607 165.811 58.9572C165.936 58.6538 166.001 58.3285 166.001 58C166.001 57.6715 165.936 57.3462 165.811 57.0428C165.685 56.7393 165.501 56.4635 165.268 56.2312L155.268 46.2312C155.036 45.9988 154.761 45.8144 154.457 45.6886C154.154 45.5628 153.828 45.498 153.5 45.498C153.171 45.498 152.846 45.5628 152.542 45.6886C152.239 45.8144 151.963 45.9988 151.731 46.2312L141.731 56.2312C141.499 56.4635 141.314 56.7393 141.189 57.0428C141.063 57.3462 140.998 57.6715 140.998 58C140.998 58.3285 141.063 58.6538 141.189 58.9572C141.314 59.2607 141.499 59.5365 141.731 59.7687C141.963 60.001 142.239 60.1853 142.542 60.311C142.846 60.4367 143.171 60.5014 143.5 60.5014C143.828 60.5014 144.153 60.4367 144.457 60.311C144.76 60.1853 145.036 60.001 145.268 59.7687L151 54.0344V73C151 73.663 151.263 74.2989 151.732 74.7678C152.201 75.2366 152.837 75.5 153.5 75.5C154.163 75.5 154.799 75.2366 155.267 74.7678C155.736 74.2989 156 73.663 156 73V54.0344Z" fill="#ED7424"/>
</g>
</g>
<path d="M56.25 121V103.867H59.0625V121H56.25ZM77.9648 107.781C79.418 107.781 80.5117 108.156 81.2461 108.906C81.9883 109.656 82.3594 110.859 82.3594 112.516V121H79.6055V113.008C79.6055 112.023 79.4141 111.281 79.0312 110.781C78.6484 110.281 78.0664 110.031 77.2852 110.031C76.1914 110.031 75.4023 110.383 74.918 111.086C74.4414 111.781 74.2031 112.793 74.2031 114.121V121H71.4492V113.008C71.4492 112.352 71.3633 111.805 71.1914 111.367C71.0273 110.922 70.7734 110.59 70.4297 110.371C70.0859 110.145 69.6523 110.031 69.1289 110.031C68.3711 110.031 67.7656 110.203 67.3125 110.547C66.8672 110.891 66.5469 111.398 66.3516 112.07C66.1562 112.734 66.0586 113.551 66.0586 114.52V121H63.3047V108.027H65.4492L65.8359 109.773H65.9883C66.2539 109.32 66.582 108.949 66.9727 108.66C67.3711 108.363 67.8125 108.145 68.2969 108.004C68.7812 107.855 69.2852 107.781 69.8086 107.781C70.7773 107.781 71.5938 107.953 72.2578 108.297C72.9219 108.633 73.418 109.148 73.7461 109.844H73.957C74.3633 109.141 74.9297 108.621 75.6562 108.285C76.3828 107.949 77.1523 107.781 77.9648 107.781ZM92.8594 107.781C94.3984 107.781 95.6328 108.344 96.5625 109.469C97.5 110.594 97.9688 112.266 97.9688 114.484C97.9688 115.953 97.75 117.191 97.3125 118.199C96.8828 119.199 96.2773 119.957 95.4961 120.473C94.7227 120.98 93.8203 121.234 92.7891 121.234C92.1328 121.234 91.5625 121.148 91.0781 120.977C90.5938 120.805 90.1797 120.582 89.8359 120.309C89.4922 120.027 89.2031 119.723 88.9688 119.395H88.8047C88.8438 119.707 88.8789 120.055 88.9102 120.438C88.9492 120.812 88.9688 121.156 88.9688 121.469V126.754H86.2031V108.027H88.4531L88.8398 109.82H88.9688C89.2109 109.453 89.5039 109.113 89.8477 108.801C90.1992 108.488 90.6211 108.242 91.1133 108.062C91.6133 107.875 92.1953 107.781 92.8594 107.781ZM92.1211 110.031C91.3633 110.031 90.7539 110.184 90.293 110.488C89.8398 110.785 89.5078 111.234 89.2969 111.836C89.0938 112.438 88.9844 113.191 88.9688 114.098V114.484C88.9688 115.445 89.0664 116.262 89.2617 116.934C89.4648 117.598 89.7969 118.105 90.2578 118.457C90.7266 118.801 91.3594 118.973 92.1562 118.973C92.8281 118.973 93.3828 118.789 93.8203 118.422C94.2656 118.055 94.5977 117.531 94.8164 116.852C95.0352 116.172 95.1445 115.371 95.1445 114.449C95.1445 113.051 94.8945 111.965 94.3945 111.191C93.9023 110.418 93.1445 110.031 92.1211 110.031ZM112.641 114.484C112.641 115.562 112.5 116.52 112.219 117.355C111.938 118.191 111.527 118.898 110.988 119.477C110.449 120.047 109.801 120.484 109.043 120.789C108.285 121.086 107.43 121.234 106.477 121.234C105.586 121.234 104.77 121.086 104.027 120.789C103.285 120.484 102.641 120.047 102.094 119.477C101.555 118.898 101.137 118.191 100.84 117.355C100.543 116.52 100.395 115.562 100.395 114.484C100.395 113.055 100.641 111.844 101.133 110.852C101.633 109.852 102.344 109.09 103.266 108.566C104.188 108.043 105.285 107.781 106.559 107.781C107.754 107.781 108.809 108.043 109.723 108.566C110.637 109.09 111.352 109.852 111.867 110.852C112.383 111.852 112.641 113.062 112.641 114.484ZM103.23 114.484C103.23 115.43 103.344 116.238 103.57 116.91C103.805 117.582 104.164 118.098 104.648 118.457C105.133 118.809 105.758 118.984 106.523 118.984C107.289 118.984 107.914 118.809 108.398 118.457C108.883 118.098 109.238 117.582 109.465 116.91C109.691 116.238 109.805 115.43 109.805 114.484C109.805 113.539 109.691 112.738 109.465 112.082C109.238 111.418 108.883 110.914 108.398 110.57C107.914 110.219 107.285 110.043 106.512 110.043C105.371 110.043 104.539 110.426 104.016 111.191C103.492 111.957 103.23 113.055 103.23 114.484ZM122.379 107.781C122.598 107.781 122.836 107.793 123.094 107.816C123.352 107.84 123.574 107.871 123.762 107.91L123.504 110.488C123.34 110.441 123.137 110.406 122.895 110.383C122.66 110.359 122.449 110.348 122.262 110.348C121.77 110.348 121.301 110.43 120.855 110.594C120.41 110.75 120.016 110.992 119.672 111.32C119.328 111.641 119.059 112.043 118.863 112.527C118.668 113.012 118.57 113.574 118.57 114.215V121H115.805V108.027H117.961L118.336 110.312H118.465C118.723 109.852 119.043 109.43 119.426 109.047C119.809 108.664 120.246 108.359 120.738 108.133C121.238 107.898 121.785 107.781 122.379 107.781ZM130.992 119.008C131.352 119.008 131.707 118.977 132.059 118.914C132.41 118.844 132.73 118.762 133.02 118.668V120.754C132.715 120.887 132.32 121 131.836 121.094C131.352 121.188 130.848 121.234 130.324 121.234C129.59 121.234 128.93 121.113 128.344 120.871C127.758 120.621 127.293 120.195 126.949 119.594C126.605 118.992 126.434 118.16 126.434 117.098V110.125H124.664V108.895L126.562 107.922L127.465 105.145H129.199V108.027H132.914V110.125H129.199V117.062C129.199 117.719 129.363 118.207 129.691 118.527C130.02 118.848 130.453 119.008 130.992 119.008ZM139.934 108.027H142.934L145.594 115.434C145.711 115.77 145.816 116.102 145.91 116.43C146.012 116.75 146.098 117.066 146.168 117.379C146.246 117.691 146.309 118.004 146.355 118.316H146.426C146.504 117.91 146.613 117.457 146.754 116.957C146.902 116.449 147.066 115.941 147.246 115.434L149.801 108.027H152.766L147.199 122.781C146.879 123.625 146.484 124.344 146.016 124.938C145.555 125.539 145.008 125.992 144.375 126.297C143.742 126.609 143.02 126.766 142.207 126.766C141.816 126.766 141.477 126.742 141.188 126.695C140.898 126.656 140.652 126.613 140.449 126.566V124.363C140.613 124.402 140.82 124.438 141.07 124.469C141.32 124.5 141.578 124.516 141.844 124.516C142.336 124.516 142.762 124.418 143.121 124.223C143.48 124.027 143.785 123.75 144.035 123.391C144.285 123.039 144.492 122.637 144.656 122.184L145.113 120.965L139.934 108.027ZM166.219 114.484C166.219 115.562 166.078 116.52 165.797 117.355C165.516 118.191 165.105 118.898 164.566 119.477C164.027 120.047 163.379 120.484 162.621 120.789C161.863 121.086 161.008 121.234 160.055 121.234C159.164 121.234 158.348 121.086 157.605 120.789C156.863 120.484 156.219 120.047 155.672 119.477C155.133 118.898 154.715 118.191 154.418 117.355C154.121 116.52 153.973 115.562 153.973 114.484C153.973 113.055 154.219 111.844 154.711 110.852C155.211 109.852 155.922 109.09 156.844 108.566C157.766 108.043 158.863 107.781 160.137 107.781C161.332 107.781 162.387 108.043 163.301 108.566C164.215 109.09 164.93 109.852 165.445 110.852C165.961 111.852 166.219 113.062 166.219 114.484ZM156.809 114.484C156.809 115.43 156.922 116.238 157.148 116.91C157.383 117.582 157.742 118.098 158.227 118.457C158.711 118.809 159.336 118.984 160.102 118.984C160.867 118.984 161.492 118.809 161.977 118.457C162.461 118.098 162.816 117.582 163.043 116.91C163.27 116.238 163.383 115.43 163.383 114.484C163.383 113.539 163.27 112.738 163.043 112.082C162.816 111.418 162.461 110.914 161.977 110.57C161.492 110.219 160.863 110.043 160.09 110.043C158.949 110.043 158.117 110.426 157.594 111.191C157.07 111.957 156.809 113.055 156.809 114.484ZM180.691 108.027V121H178.523L178.148 119.254H177.996C177.723 119.699 177.375 120.07 176.953 120.367C176.531 120.656 176.062 120.871 175.547 121.012C175.031 121.16 174.488 121.234 173.918 121.234C172.941 121.234 172.105 121.07 171.41 120.742C170.723 120.406 170.195 119.891 169.828 119.195C169.461 118.5 169.277 117.602 169.277 116.5V108.027H172.043V115.984C172.043 116.992 172.246 117.746 172.652 118.246C173.066 118.746 173.707 118.996 174.574 118.996C175.41 118.996 176.074 118.824 176.566 118.48C177.059 118.137 177.406 117.629 177.609 116.957C177.82 116.285 177.926 115.461 177.926 114.484V108.027H180.691ZM191.215 107.781C191.434 107.781 191.672 107.793 191.93 107.816C192.188 107.84 192.41 107.871 192.598 107.91L192.34 110.488C192.176 110.441 191.973 110.406 191.73 110.383C191.496 110.359 191.285 110.348 191.098 110.348C190.605 110.348 190.137 110.43 189.691 110.594C189.246 110.75 188.852 110.992 188.508 111.32C188.164 111.641 187.895 112.043 187.699 112.527C187.504 113.012 187.406 113.574 187.406 114.215V121H184.641V108.027H186.797L187.172 110.312H187.301C187.559 109.852 187.879 109.43 188.262 109.047C188.645 108.664 189.082 108.359 189.574 108.133C190.074 107.898 190.621 107.781 191.215 107.781ZM207.715 110.125H204.562V121H201.809V110.125H199.688V108.801L201.809 107.992V107.09C201.809 105.988 201.98 105.113 202.324 104.465C202.676 103.816 203.176 103.352 203.824 103.07C204.48 102.781 205.262 102.637 206.168 102.637C206.762 102.637 207.305 102.688 207.797 102.789C208.289 102.883 208.703 102.992 209.039 103.117L208.324 105.203C208.059 105.117 207.762 105.039 207.434 104.969C207.105 104.891 206.754 104.852 206.379 104.852C205.754 104.852 205.293 105.047 204.996 105.438C204.707 105.828 204.562 106.398 204.562 107.148V108.027H207.715V110.125ZM212.672 108.027V121H209.918V108.027H212.672ZM211.312 103.059C211.734 103.059 212.098 103.172 212.402 103.398C212.715 103.625 212.871 104.016 212.871 104.57C212.871 105.117 212.715 105.508 212.402 105.742C212.098 105.969 211.734 106.082 211.312 106.082C210.875 106.082 210.504 105.969 210.199 105.742C209.902 105.508 209.754 105.117 209.754 104.57C209.754 104.016 209.902 103.625 210.199 103.398C210.504 103.172 210.875 103.059 211.312 103.059ZM219.375 121H216.609V102.766H219.375V121ZM228.48 107.781C229.637 107.781 230.629 108.02 231.457 108.496C232.285 108.973 232.922 109.648 233.367 110.523C233.812 111.398 234.035 112.445 234.035 113.664V115.141H225.375C225.406 116.398 225.742 117.367 226.383 118.047C227.031 118.727 227.938 119.066 229.102 119.066C229.93 119.066 230.672 118.988 231.328 118.832C231.992 118.668 232.676 118.43 233.379 118.117V120.355C232.73 120.66 232.07 120.883 231.398 121.023C230.727 121.164 229.922 121.234 228.984 121.234C227.711 121.234 226.59 120.988 225.621 120.496C224.66 119.996 223.906 119.254 223.359 118.27C222.82 117.285 222.551 116.062 222.551 114.602C222.551 113.148 222.797 111.914 223.289 110.898C223.781 109.883 224.473 109.109 225.363 108.578C226.254 108.047 227.293 107.781 228.48 107.781ZM228.48 109.855C227.613 109.855 226.91 110.137 226.371 110.699C225.84 111.262 225.527 112.086 225.434 113.172H231.34C231.332 112.523 231.223 111.949 231.012 111.449C230.809 110.949 230.496 110.559 230.074 110.277C229.66 109.996 229.129 109.855 228.48 109.855Z" fill="#ED7424"/>
<path d="M59.1201 141.452C59.1201 142.899 58.8506 144.109 58.3115 145.082C57.7725 146.049 56.9902 146.778 55.9648 147.271C54.9395 147.757 53.7031 148 52.2559 148H48.6875V135.15H52.6426C53.9727 135.15 55.1211 135.391 56.0879 135.871C57.0547 136.346 57.8018 137.052 58.3291 137.989C58.8564 138.921 59.1201 140.075 59.1201 141.452ZM56.9229 141.514C56.9229 140.459 56.7559 139.592 56.4219 138.912C56.0938 138.232 55.6074 137.729 54.9629 137.4C54.3242 137.066 53.5361 136.899 52.5986 136.899H50.7969V146.233H52.291C53.8438 146.233 55.0039 145.838 55.7715 145.047C56.5391 144.256 56.9229 143.078 56.9229 141.514ZM66.6084 138.086C66.7725 138.086 66.9512 138.095 67.1445 138.112C67.3379 138.13 67.5049 138.153 67.6455 138.183L67.4521 140.116C67.3291 140.081 67.1768 140.055 66.9951 140.037C66.8193 140.02 66.6611 140.011 66.5205 140.011C66.1514 140.011 65.7998 140.072 65.4658 140.195C65.1318 140.312 64.8359 140.494 64.5781 140.74C64.3203 140.98 64.1182 141.282 63.9717 141.646C63.8252 142.009 63.752 142.431 63.752 142.911V148H61.6777V138.271H63.2949L63.5762 139.984H63.6729C63.8662 139.639 64.1064 139.322 64.3936 139.035C64.6807 138.748 65.0088 138.52 65.3779 138.35C65.7529 138.174 66.1631 138.086 66.6084 138.086ZM73.2617 138.086C74.4922 138.086 75.4209 138.358 76.0479 138.903C76.6807 139.448 76.9971 140.298 76.9971 141.452V148H75.5293L75.1338 146.62H75.0635C74.7881 146.972 74.5039 147.262 74.2109 147.49C73.918 147.719 73.5781 147.889 73.1914 148C72.8105 148.117 72.3447 148.176 71.7939 148.176C71.2139 148.176 70.6953 148.07 70.2383 147.859C69.7812 147.643 69.4209 147.314 69.1572 146.875C68.8936 146.436 68.7617 145.879 68.7617 145.205C68.7617 144.203 69.1338 143.45 69.8779 142.946C70.6279 142.442 71.7588 142.164 73.2705 142.111L74.958 142.05V141.54C74.958 140.866 74.7998 140.386 74.4834 140.099C74.1729 139.812 73.7334 139.668 73.165 139.668C72.6787 139.668 72.207 139.738 71.75 139.879C71.293 140.02 70.8477 140.192 70.4141 140.397L69.7461 138.938C70.2207 138.687 70.7598 138.481 71.3633 138.323C71.9727 138.165 72.6055 138.086 73.2617 138.086ZM74.9492 143.351L73.6924 143.395C72.6611 143.43 71.9375 143.605 71.5215 143.922C71.1055 144.238 70.8975 144.672 70.8975 145.223C70.8975 145.703 71.041 146.055 71.3281 146.277C71.6152 146.494 71.9932 146.603 72.4619 146.603C73.1768 146.603 73.7686 146.4 74.2373 145.996C74.7119 145.586 74.9492 144.985 74.9492 144.194V143.351ZM82.666 152.324C81.3477 152.324 80.3369 152.087 79.6338 151.612C78.9307 151.138 78.5791 150.473 78.5791 149.617C78.5791 149.02 78.7666 148.513 79.1416 148.097C79.5166 147.687 80.0527 147.402 80.75 147.244C80.4863 147.127 80.2578 146.945 80.0645 146.699C79.877 146.447 79.7832 146.169 79.7832 145.864C79.7832 145.501 79.8857 145.19 80.0908 144.933C80.2959 144.675 80.6035 144.426 81.0137 144.186C80.5039 143.969 80.0938 143.617 79.7832 143.131C79.4785 142.639 79.3262 142.062 79.3262 141.399C79.3262 140.696 79.4756 140.099 79.7744 139.606C80.0732 139.108 80.5098 138.73 81.084 138.473C81.6582 138.209 82.3525 138.077 83.167 138.077C83.3428 138.077 83.5332 138.089 83.7383 138.112C83.9492 138.13 84.1426 138.153 84.3184 138.183C84.5 138.206 84.6377 138.232 84.7314 138.262H88.0977V139.413L86.4453 139.721C86.6035 139.943 86.7295 140.198 86.8232 140.485C86.917 140.767 86.9639 141.074 86.9639 141.408C86.9639 142.416 86.6152 143.21 85.918 143.79C85.2266 144.364 84.2715 144.651 83.0527 144.651C82.7598 144.64 82.4756 144.616 82.2002 144.581C81.9893 144.71 81.8281 144.854 81.7168 145.012C81.6055 145.164 81.5498 145.337 81.5498 145.53C81.5498 145.688 81.6055 145.817 81.7168 145.917C81.8281 146.011 81.9922 146.081 82.209 146.128C82.4316 146.175 82.7012 146.198 83.0176 146.198H84.6963C85.7627 146.198 86.5771 146.424 87.1396 146.875C87.7021 147.326 87.9834 147.988 87.9834 148.861C87.9834 149.969 87.5264 150.821 86.6123 151.419C85.6982 152.022 84.3828 152.324 82.666 152.324ZM82.7451 150.874C83.4658 150.874 84.0723 150.804 84.5645 150.663C85.0566 150.522 85.4287 150.32 85.6807 150.057C85.9326 149.799 86.0586 149.491 86.0586 149.134C86.0586 148.817 85.9795 148.574 85.8213 148.404C85.6631 148.234 85.4258 148.117 85.1094 148.053C84.793 147.988 84.4004 147.956 83.9316 147.956H82.4023C82.0215 147.956 81.6846 148.015 81.3916 148.132C81.0986 148.255 80.8701 148.431 80.7061 148.659C80.5479 148.888 80.4688 149.163 80.4688 149.485C80.4688 149.931 80.665 150.273 81.0576 150.514C81.4561 150.754 82.0186 150.874 82.7451 150.874ZM83.1494 143.298C83.7529 143.298 84.2012 143.134 84.4941 142.806C84.7871 142.472 84.9336 142.003 84.9336 141.399C84.9336 140.743 84.7812 140.251 84.4766 139.923C84.1777 139.595 83.7324 139.431 83.1406 139.431C82.5605 139.431 82.1182 139.598 81.8135 139.932C81.5146 140.266 81.3652 140.761 81.3652 141.417C81.3652 142.009 81.5146 142.472 81.8135 142.806C82.1182 143.134 82.5635 143.298 83.1494 143.298ZM103.162 143.113C103.162 143.922 103.057 144.64 102.846 145.267C102.635 145.894 102.327 146.424 101.923 146.857C101.519 147.285 101.032 147.613 100.464 147.842C99.8955 148.064 99.2539 148.176 98.5391 148.176C97.8711 148.176 97.2588 148.064 96.7021 147.842C96.1455 147.613 95.6621 147.285 95.252 146.857C94.8477 146.424 94.5342 145.894 94.3115 145.267C94.0889 144.64 93.9775 143.922 93.9775 143.113C93.9775 142.041 94.1621 141.133 94.5312 140.389C94.9062 139.639 95.4395 139.067 96.1309 138.675C96.8223 138.282 97.6455 138.086 98.6006 138.086C99.4971 138.086 100.288 138.282 100.974 138.675C101.659 139.067 102.195 139.639 102.582 140.389C102.969 141.139 103.162 142.047 103.162 143.113ZM96.1045 143.113C96.1045 143.822 96.1895 144.429 96.3594 144.933C96.5352 145.437 96.8047 145.823 97.168 146.093C97.5312 146.356 98 146.488 98.5742 146.488C99.1484 146.488 99.6172 146.356 99.9805 146.093C100.344 145.823 100.61 145.437 100.78 144.933C100.95 144.429 101.035 143.822 101.035 143.113C101.035 142.404 100.95 141.804 100.78 141.312C100.61 140.813 100.344 140.436 99.9805 140.178C99.6172 139.914 99.1455 139.782 98.5654 139.782C97.71 139.782 97.0859 140.069 96.6934 140.644C96.3008 141.218 96.1045 142.041 96.1045 143.113ZM110.466 138.086C110.63 138.086 110.809 138.095 111.002 138.112C111.195 138.13 111.362 138.153 111.503 138.183L111.31 140.116C111.187 140.081 111.034 140.055 110.853 140.037C110.677 140.02 110.519 140.011 110.378 140.011C110.009 140.011 109.657 140.072 109.323 140.195C108.989 140.312 108.693 140.494 108.436 140.74C108.178 140.98 107.976 141.282 107.829 141.646C107.683 142.009 107.609 142.431 107.609 142.911V148H105.535V138.271H107.152L107.434 139.984H107.53C107.724 139.639 107.964 139.322 108.251 139.035C108.538 138.748 108.866 138.52 109.235 138.35C109.61 138.174 110.021 138.086 110.466 138.086ZM121.9 148.176C120.98 148.176 120.184 147.997 119.51 147.64C118.836 147.282 118.317 146.734 117.954 145.996C117.591 145.258 117.409 144.32 117.409 143.184C117.409 142 117.608 141.033 118.007 140.283C118.405 139.533 118.956 138.979 119.659 138.622C120.368 138.265 121.18 138.086 122.094 138.086C122.674 138.086 123.198 138.145 123.667 138.262C124.142 138.373 124.543 138.511 124.871 138.675L124.256 140.327C123.898 140.181 123.532 140.058 123.157 139.958C122.782 139.858 122.422 139.809 122.076 139.809C121.508 139.809 121.033 139.935 120.652 140.187C120.277 140.438 119.996 140.813 119.809 141.312C119.627 141.81 119.536 142.428 119.536 143.166C119.536 143.881 119.63 144.484 119.817 144.977C120.005 145.463 120.283 145.832 120.652 146.084C121.021 146.33 121.476 146.453 122.015 146.453C122.548 146.453 123.025 146.389 123.447 146.26C123.869 146.131 124.268 145.964 124.643 145.759V147.552C124.273 147.763 123.878 147.918 123.456 148.018C123.034 148.123 122.516 148.176 121.9 148.176ZM129.002 148H126.928V134.324H129.002V148ZM134.021 138.271V148H131.955V138.271H134.021ZM133.001 134.544C133.317 134.544 133.59 134.629 133.818 134.799C134.053 134.969 134.17 135.262 134.17 135.678C134.17 136.088 134.053 136.381 133.818 136.557C133.59 136.727 133.317 136.812 133.001 136.812C132.673 136.812 132.395 136.727 132.166 136.557C131.943 136.381 131.832 136.088 131.832 135.678C131.832 135.262 131.943 134.969 132.166 134.799C132.395 134.629 132.673 134.544 133.001 134.544ZM140.902 148.176C139.982 148.176 139.186 147.997 138.512 147.64C137.838 147.282 137.319 146.734 136.956 145.996C136.593 145.258 136.411 144.32 136.411 143.184C136.411 142 136.61 141.033 137.009 140.283C137.407 139.533 137.958 138.979 138.661 138.622C139.37 138.265 140.182 138.086 141.096 138.086C141.676 138.086 142.2 138.145 142.669 138.262C143.144 138.373 143.545 138.511 143.873 138.675L143.258 140.327C142.9 140.181 142.534 140.058 142.159 139.958C141.784 139.858 141.424 139.809 141.078 139.809C140.51 139.809 140.035 139.935 139.654 140.187C139.279 140.438 138.998 140.813 138.811 141.312C138.629 141.81 138.538 142.428 138.538 143.166C138.538 143.881 138.632 144.484 138.819 144.977C139.007 145.463 139.285 145.832 139.654 146.084C140.023 146.33 140.478 146.453 141.017 146.453C141.55 146.453 142.027 146.389 142.449 146.26C142.871 146.131 143.27 145.964 143.645 145.759V147.552C143.275 147.763 142.88 147.918 142.458 148.018C142.036 148.123 141.518 148.176 140.902 148.176ZM147.995 134.324V140.934C147.995 141.232 147.983 141.561 147.96 141.918C147.937 142.27 147.913 142.601 147.89 142.911H147.934C148.086 142.706 148.268 142.466 148.479 142.19C148.695 141.915 148.9 141.675 149.094 141.47L152.064 138.271H154.438L150.544 142.454L154.692 148H152.267L149.155 143.729L147.995 144.722V148H145.93V134.324H147.995ZM164.545 146.506C164.814 146.506 165.081 146.482 165.345 146.436C165.608 146.383 165.849 146.321 166.065 146.251V147.815C165.837 147.915 165.541 148 165.178 148.07C164.814 148.141 164.437 148.176 164.044 148.176C163.493 148.176 162.998 148.085 162.559 147.903C162.119 147.716 161.771 147.396 161.513 146.945C161.255 146.494 161.126 145.87 161.126 145.073V139.844H159.799V138.921L161.223 138.191L161.899 136.108H163.2V138.271H165.986V139.844H163.2V145.047C163.2 145.539 163.323 145.905 163.569 146.146C163.815 146.386 164.141 146.506 164.545 146.506ZM176.656 143.113C176.656 143.922 176.551 144.64 176.34 145.267C176.129 145.894 175.821 146.424 175.417 146.857C175.013 147.285 174.526 147.613 173.958 147.842C173.39 148.064 172.748 148.176 172.033 148.176C171.365 148.176 170.753 148.064 170.196 147.842C169.64 147.613 169.156 147.285 168.746 146.857C168.342 146.424 168.028 145.894 167.806 145.267C167.583 144.64 167.472 143.922 167.472 143.113C167.472 142.041 167.656 141.133 168.025 140.389C168.4 139.639 168.934 139.067 169.625 138.675C170.316 138.282 171.14 138.086 172.095 138.086C172.991 138.086 173.782 138.282 174.468 138.675C175.153 139.067 175.689 139.639 176.076 140.389C176.463 141.139 176.656 142.047 176.656 143.113ZM169.599 143.113C169.599 143.822 169.684 144.429 169.854 144.933C170.029 145.437 170.299 145.823 170.662 146.093C171.025 146.356 171.494 146.488 172.068 146.488C172.643 146.488 173.111 146.356 173.475 146.093C173.838 145.823 174.104 145.437 174.274 144.933C174.444 144.429 174.529 143.822 174.529 143.113C174.529 142.404 174.444 141.804 174.274 141.312C174.104 140.813 173.838 140.436 173.475 140.178C173.111 139.914 172.64 139.782 172.06 139.782C171.204 139.782 170.58 140.069 170.188 140.644C169.795 141.218 169.599 142.041 169.599 143.113ZM192.187 138.271V148H190.561L190.279 146.69H190.165C189.96 147.024 189.699 147.303 189.383 147.525C189.066 147.742 188.715 147.903 188.328 148.009C187.941 148.12 187.534 148.176 187.106 148.176C186.374 148.176 185.747 148.053 185.226 147.807C184.71 147.555 184.314 147.168 184.039 146.646C183.764 146.125 183.626 145.451 183.626 144.625V138.271H185.7V144.238C185.7 144.994 185.853 145.56 186.157 145.935C186.468 146.31 186.948 146.497 187.599 146.497C188.226 146.497 188.724 146.368 189.093 146.11C189.462 145.853 189.723 145.472 189.875 144.968C190.033 144.464 190.112 143.846 190.112 143.113V138.271H192.187ZM200.141 138.086C201.295 138.086 202.221 138.508 202.918 139.352C203.621 140.195 203.973 141.449 203.973 143.113C203.973 144.215 203.809 145.144 203.48 145.899C203.158 146.649 202.704 147.218 202.118 147.604C201.538 147.985 200.861 148.176 200.088 148.176C199.596 148.176 199.168 148.111 198.805 147.982C198.441 147.854 198.131 147.687 197.873 147.481C197.615 147.271 197.398 147.042 197.223 146.796H197.1C197.129 147.03 197.155 147.291 197.179 147.578C197.208 147.859 197.223 148.117 197.223 148.352V152.315H195.148V138.271H196.836L197.126 139.615H197.223C197.404 139.34 197.624 139.085 197.882 138.851C198.146 138.616 198.462 138.432 198.831 138.297C199.206 138.156 199.643 138.086 200.141 138.086ZM199.587 139.773C199.019 139.773 198.562 139.888 198.216 140.116C197.876 140.339 197.627 140.676 197.469 141.127C197.316 141.578 197.234 142.144 197.223 142.823V143.113C197.223 143.834 197.296 144.446 197.442 144.95C197.595 145.448 197.844 145.829 198.189 146.093C198.541 146.351 199.016 146.479 199.613 146.479C200.117 146.479 200.533 146.342 200.861 146.066C201.195 145.791 201.444 145.398 201.608 144.889C201.772 144.379 201.854 143.778 201.854 143.087C201.854 142.038 201.667 141.224 201.292 140.644C200.923 140.063 200.354 139.773 199.587 139.773ZM208.438 148H206.363V134.324H208.438V148ZM220.004 143.113C220.004 143.922 219.898 144.64 219.688 145.267C219.477 145.894 219.169 146.424 218.765 146.857C218.36 147.285 217.874 147.613 217.306 147.842C216.737 148.064 216.096 148.176 215.381 148.176C214.713 148.176 214.101 148.064 213.544 147.842C212.987 147.613 212.504 147.285 212.094 146.857C211.689 146.424 211.376 145.894 211.153 145.267C210.931 144.64 210.819 143.922 210.819 143.113C210.819 142.041 211.004 141.133 211.373 140.389C211.748 139.639 212.281 139.067 212.973 138.675C213.664 138.282 214.487 138.086 215.442 138.086C216.339 138.086 217.13 138.282 217.815 138.675C218.501 139.067 219.037 139.639 219.424 140.389C219.811 141.139 220.004 142.047 220.004 143.113ZM212.946 143.113C212.946 143.822 213.031 144.429 213.201 144.933C213.377 145.437 213.646 145.823 214.01 146.093C214.373 146.356 214.842 146.488 215.416 146.488C215.99 146.488 216.459 146.356 216.822 146.093C217.186 145.823 217.452 145.437 217.622 144.933C217.792 144.429 217.877 143.822 217.877 143.113C217.877 142.404 217.792 141.804 217.622 141.312C217.452 140.813 217.186 140.436 216.822 140.178C216.459 139.914 215.987 139.782 215.407 139.782C214.552 139.782 213.928 140.069 213.535 140.644C213.143 141.218 212.946 142.041 212.946 143.113ZM226.191 138.086C227.422 138.086 228.351 138.358 228.978 138.903C229.61 139.448 229.927 140.298 229.927 141.452V148H228.459L228.063 146.62H227.993C227.718 146.972 227.434 147.262 227.141 147.49C226.848 147.719 226.508 147.889 226.121 148C225.74 148.117 225.274 148.176 224.724 148.176C224.144 148.176 223.625 148.07 223.168 147.859C222.711 147.643 222.351 147.314 222.087 146.875C221.823 146.436 221.691 145.879 221.691 145.205C221.691 144.203 222.063 143.45 222.808 142.946C223.558 142.442 224.688 142.164 226.2 142.111L227.888 142.05V141.54C227.888 140.866 227.729 140.386 227.413 140.099C227.103 139.812 226.663 139.668 226.095 139.668C225.608 139.668 225.137 139.738 224.68 139.879C224.223 140.02 223.777 140.192 223.344 140.397L222.676 138.938C223.15 138.687 223.689 138.481 224.293 138.323C224.902 138.165 225.535 138.086 226.191 138.086ZM227.879 143.351L226.622 143.395C225.591 143.43 224.867 143.605 224.451 143.922C224.035 144.238 223.827 144.672 223.827 145.223C223.827 145.703 223.971 146.055 224.258 146.277C224.545 146.494 224.923 146.603 225.392 146.603C226.106 146.603 226.698 146.4 227.167 145.996C227.642 145.586 227.879 144.985 227.879 144.194V143.351ZM236.088 148.176C234.928 148.176 233.996 147.754 233.293 146.91C232.596 146.061 232.247 144.81 232.247 143.157C232.247 141.487 232.602 140.225 233.311 139.369C234.025 138.514 234.966 138.086 236.132 138.086C236.624 138.086 237.055 138.153 237.424 138.288C237.793 138.417 238.109 138.593 238.373 138.815C238.643 139.038 238.871 139.287 239.059 139.562H239.155C239.126 139.381 239.091 139.12 239.05 138.78C239.015 138.435 238.997 138.115 238.997 137.822V134.324H241.071V148H239.454L239.085 146.673H238.997C238.821 146.954 238.599 147.209 238.329 147.438C238.065 147.66 237.749 147.839 237.38 147.974C237.017 148.108 236.586 148.176 236.088 148.176ZM236.668 146.497C237.553 146.497 238.177 146.242 238.54 145.732C238.903 145.223 239.091 144.458 239.103 143.438V143.166C239.103 142.076 238.927 141.241 238.575 140.661C238.224 140.075 237.582 139.782 236.65 139.782C235.906 139.782 235.338 140.084 234.945 140.688C234.559 141.285 234.365 142.12 234.365 143.192C234.365 144.265 234.559 145.085 234.945 145.653C235.338 146.216 235.912 146.497 236.668 146.497Z" fill="#8E8E8E"/>
<defs>
<clipPath id="clip0_2850_24552">
<rect width="80" height="80" fill="white" transform="translate(105 8)"/>
</clipPath>
<clipPath id="clip1_2850_24552">
<rect width="26" height="31" fill="white" transform="translate(141 45)"/>
</clipPath>
</defs>
</svg>
