<svg width="400" height="400" viewBox="0 0 500 500" fill="none" xmlns="http://www.w3.org/2000/svg">
<g clip-path="url(#clip0_1882_16129)">
<path d="M109.46 77.91C164.95 32.72 239.6 10.53 310.18 22.3C380.76 34.07 445.51 80.96 474.98 146.17C492.72 185.41 497.67 229.47 495.62 272.49C493.46 317.77 483.41 363.55 459.63 402.14C435.84 440.73 397.08 471.45 352.36 478.89C316.67 484.83 280.35 475.97 245.26 467.18C191.94 453.82 137.5 439.98 91.4601 409.95C47.0001 380.95 14.3201 334.75 5.20009 281.96C-2.48991 237.44 26.9701 180.93 50.1801 144.76C66.3301 119.59 86.2701 96.8099 109.47 77.9199L109.46 77.91Z" fill="#FAFAFA"/>
<path d="M423.36 34.8201H347.67C328.042 34.8201 312.13 50.7319 312.13 70.3601C312.13 89.9883 328.042 105.9 347.67 105.9H423.36C442.988 105.9 458.9 89.9883 458.9 70.3601C458.9 50.7319 442.988 34.8201 423.36 34.8201Z" fill="#F3CD6C"/>
<path d="M443.02 99.96L403.77 127.42V99.96H443.02Z" fill="#F3CD6C"/>
<path d="M332.89 55.5701H436.09" stroke="white" stroke-width="4" stroke-linecap="round" stroke-linejoin="round"/>
<path d="M332.89 70.73H436.09" stroke="white" stroke-width="4" stroke-linecap="round" stroke-linejoin="round"/>
<path d="M392.37 85.8901H436.09" stroke="white" stroke-width="4" stroke-linecap="round" stroke-linejoin="round"/>
<path d="M93.9202 184.43H438.13C447.05 184.43 453.68 191.66 452.95 200.57L437.69 386.11C436.96 395.03 429.14 402.25 420.22 402.25H76.0102C67.0902 402.25 60.4602 395.02 61.1902 386.11L76.4502 200.57C77.1802 191.65 85.0102 184.43 93.9202 184.43Z" fill="#DACCC8"/>
<path d="M445.03 199.64L429.62 387.05C428.93 395.45 421.56 402.26 413.16 402.26H67.0902C58.6902 402.26 52.4402 395.45 53.1302 387.05L64.5302 248.4L68.5402 199.64C68.6202 198.7 68.7802 197.76 69.0302 196.87C70.9102 189.79 77.5502 184.44 85.0002 184.44H431.08C439.47 184.44 445.72 191.24 445.03 199.64Z" fill="#EFE8E9"/>
<path d="M93.9402 197.95H420.21C426.85 197.95 431.79 203.23 431.25 209.75L417.24 376.94C416.69 383.46 410.87 388.74 404.23 388.74H77.9502C71.3102 388.74 66.3702 383.46 66.9102 376.94L80.9202 209.75C81.4702 203.23 87.2902 197.95 93.9302 197.95H93.9402Z" fill="#DACCC8"/>
<path d="M431.06 214.2L417.71 372.47L417.31 377.24C416.78 383.6 411.06 388.75 404.55 388.75H84.4902C77.9802 388.75 73.1302 383.6 73.6702 377.24L87.4102 214.2C87.9502 207.85 93.6602 202.7 100.18 202.7H420.23C426.75 202.7 431.59 207.85 431.06 214.2Z" fill="white"/>
<path d="M267.89 222.041H112.45" stroke="#EFE8E9" stroke-width="8" stroke-linecap="round" stroke-linejoin="round"/>
<path d="M265.92 242.41H110.48" stroke="#EFE8E9" stroke-width="8" stroke-linecap="round" stroke-linejoin="round"/>
<path d="M263.94 262.79H108.5" stroke="#EFE8E9" stroke-width="8" stroke-linecap="round" stroke-linejoin="round"/>
<path d="M261.96 283.17H106.52" stroke="#EFE8E9" stroke-width="8" stroke-linecap="round" stroke-linejoin="round"/>
<path d="M259.98 303.54H104.54" stroke="#EFE8E9" stroke-width="8" stroke-linecap="round" stroke-linejoin="round"/>
<path d="M258 323.92H102.56" stroke="#EFE8E9" stroke-width="8" stroke-linecap="round" stroke-linejoin="round"/>
<path d="M256.03 344.29H100.59" stroke="#EFE8E9" stroke-width="8" stroke-linecap="round" stroke-linejoin="round"/>
<path d="M399.86 291.75H282.79C278.53 291.75 275.19 288.09 275.58 283.85L281.19 222.38C281.53 218.65 284.66 215.8 288.4 215.8H405.47C409.73 215.8 413.07 219.46 412.68 223.7L407.07 285.17C406.73 288.9 403.6 291.75 399.86 291.75Z" fill="#F7F3F4"/>
<path d="M398.44 346.07H279.4C275.76 346.07 272.89 342.98 273.15 339.35L275.79 302.82C276.03 299.54 278.75 297.01 282.04 297.01H401.08C404.72 297.01 407.59 300.1 407.33 303.73L404.69 340.26C404.45 343.54 401.73 346.07 398.44 346.07Z" fill="#F7F3F4"/>
<g style="mix-blend-mode:multiply" opacity="0.3">
<path d="M275.78 184.44V241.17C275.78 245.16 272.54 248.4 268.55 248.4H64.53L68.54 199.64C68.62 198.7 68.78 197.76 69.03 196.87C70.91 189.79 77.55 184.44 85 184.44H275.78Z" fill="#EFE8E9"/>
</g>
<path d="M52.44 214.43C48.73 214.43 45.71 211.41 45.71 207.7V89.28H238.75C242.46 89.28 245.48 92.3 245.48 96.01V207.7C245.48 211.41 242.46 214.43 238.75 214.43H52.44Z" fill="white"/>
<path d="M238.76 89.79C242.2 89.79 244.99 92.58 244.99 96.02V207.71C244.99 211.15 242.2 213.94 238.76 213.94H52.44C49 213.94 46.21 211.15 46.21 207.71V89.79H238.75M238.76 88.79H45.21V207.71C45.21 211.7 48.45 214.94 52.44 214.94H238.75C242.74 214.94 245.98 211.7 245.98 207.71V96.02C245.98 92.03 242.74 88.79 238.75 88.79H238.76Z" fill="#EFE8E9"/>
<path d="M108.49 73.46H50.41C47.54 73.46 45.21 75.79 45.21 78.66V88.79H119.92L113.05 76.17C112.14 74.5 110.39 73.46 108.49 73.46Z" fill="#F3CD6C"/>
<path d="M62.67 84.8199C64.7134 84.8199 66.37 83.1634 66.37 81.1199C66.37 79.0765 64.7134 77.4199 62.67 77.4199C60.6265 77.4199 58.97 79.0765 58.97 81.1199C58.97 83.1634 60.6265 84.8199 62.67 84.8199Z" stroke="white" stroke-miterlimit="10"/>
<path d="M81.91 81.1199C81.91 83.1599 80.25 84.8199 78.21 84.8199C76.17 84.8199 74.51 83.1599 74.51 81.1199C74.51 79.0799 76.17 77.4199 78.21 77.4199C80.25 77.4199 81.91 79.0799 81.91 81.1199Z" stroke="white" stroke-miterlimit="10"/>
<path d="M93.7601 84.8199C95.8035 84.8199 97.4601 83.1634 97.4601 81.1199C97.4601 79.0765 95.8035 77.4199 93.7601 77.4199C91.7166 77.4199 90.0601 79.0765 90.0601 81.1199C90.0601 83.1634 91.7166 84.8199 93.7601 84.8199Z" stroke="white" stroke-miterlimit="10"/>
<path d="M180.89 143.95C182.19 141.46 185.26 140.5 187.75 141.79C190.24 143.09 191.2 146.16 189.91 148.65C188.61 151.14 185.54 152.1 183.05 150.81C180.56 149.51 179.6 146.44 180.89 143.95Z" fill="#BCE0C1"/>
<path d="M193.9 120.99C193.12 122.48 193.7 124.33 195.19 125.1C196.68 125.88 198.53 125.3 199.3 123.81C200.08 122.32 199.5 120.47 198.01 119.7C196.52 118.92 194.67 119.5 193.9 120.99Z" fill="#BCE0C1"/>
<path d="M165.53 121.15C163.7 124.66 165.06 128.99 168.57 130.82C172.08 132.65 176.41 131.29 178.24 127.78C180.07 124.27 178.71 119.94 175.2 118.11C171.69 116.28 167.36 117.64 165.53 121.15Z" fill="#94C19B"/>
<path d="M207.24 136.58C207.24 137.95 206.13 139.05 204.77 139.05C203.41 139.05 202.3 137.94 202.3 136.58C202.3 135.22 203.41 134.11 204.77 134.11C206.13 134.11 207.24 135.22 207.24 136.58Z" fill="#94C19B"/>
<path d="M184.03 110.18C184.03 109.12 183.17 108.27 182.12 108.27C181.07 108.27 180.21 109.13 180.21 110.18C180.21 111.23 181.07 112.09 182.12 112.09C183.17 112.09 184.03 111.23 184.03 110.18Z" fill="#94C19B"/>
<path d="M188.13 130.51C188.13 129.45 187.27 128.6 186.22 128.6C185.17 128.6 184.31 129.46 184.31 130.51C184.31 131.56 185.17 132.42 186.22 132.42C187.27 132.42 188.13 131.56 188.13 130.51Z" fill="#BCE0C1"/>
<path d="M210.25 122.4C210.25 121.34 209.39 120.49 208.34 120.49C207.29 120.49 206.43 121.35 206.43 122.4C206.43 123.45 207.29 124.31 208.34 124.31C209.39 124.31 210.25 123.45 210.25 122.4Z" fill="#BCE0C1"/>
<path d="M171.89 143.96C171.89 143.42 171.45 142.99 170.92 142.99C170.39 142.99 169.95 143.43 169.95 143.96C169.95 144.49 170.39 144.93 170.92 144.93C171.45 144.93 171.89 144.49 171.89 143.96Z" fill="#94C19B"/>
<path d="M208.015 152.3C220.051 140.264 220.051 120.75 208.015 108.714C195.979 96.6778 176.465 96.6778 164.429 108.714C152.393 120.75 152.393 140.264 164.429 152.3C176.465 164.336 195.979 164.336 208.015 152.3Z" stroke="#F1CB6B" stroke-miterlimit="10" stroke-dasharray="4.03 2.02"/>
<path d="M137.12 121.44C132.03 139.89 120.25 149.01 101.65 149.01C101.65 149.01 101.33 135.27 110.41 124.83L137.12 121.44Z" fill="#94C19B"/>
<path d="M101.65 149.01L128.98 123.06" stroke="#5E7969" stroke-miterlimit="10"/>
<path d="M140.9 129.41C140.39 126.9 138.78 123.47 137.06 121.37L110.34 124.66C116.95 129.26 127.63 132.3 140.9 129.41Z" fill="#BCE0C1"/>
<path d="M101.65 185.19V148.48" stroke="#5E7969" stroke-miterlimit="10"/>
<path d="M101.65 178.39C100.91 181.61 98.7399 184.48 95.8499 186.08C93.2999 187.49 90.3399 187.91 87.6299 188.98C84.9199 190.05 82.2599 192.12 81.9399 195.02" stroke="#5E7969" stroke-miterlimit="10"/>
<path d="M101.76 184.99C100.96 186.91 101.25 189.25 102.51 190.92C103.2 191.83 104.14 192.54 104.82 193.45C105.51 194.37 105.91 195.65 105.36 196.65" stroke="#5E7969" stroke-miterlimit="10"/>
<path d="M101.58 185.12C102.94 186.43 104.87 186.94 106.74 187.21C108.61 187.48 110.53 187.56 112.29 188.24C114.05 188.91 115.68 190.35 115.93 192.22" stroke="#5E7969" stroke-miterlimit="10"/>
<path d="M93.2698 186.9C93.1398 187.63 93.0098 188.35 92.8698 189.08C92.6598 190.26 92.4298 191.46 91.8498 192.51C91.2598 193.56 90.2398 194.44 89.0398 194.52" stroke="#5E7969" stroke-miterlimit="10"/>
<path d="M101.65 175.94C102.21 178.26 104.3 179.8 106.61 180.41C108.92 181.02 111.34 180.91 113.71 181.2C116.92 181.59 120.04 182.71 122.77 184.46C124.44 185.53 125.96 186.84 127.67 187.85C129.38 188.86 131.36 189.59 133.33 189.35" stroke="#5E7969" stroke-miterlimit="10"/>
<path d="M112.72 194.8C111.35 194.02 110.36 192.61 110.07 191.06C109.86 189.94 110 188.76 109.63 187.68" stroke="#5E7969" stroke-miterlimit="10"/>
<path d="M118.78 182.54C119.82 182.89 120.04 184.31 119.72 185.37C119.4 186.42 118.74 187.39 118.7 188.49C118.66 189.68 119.34 190.76 120.05 191.71C120.76 192.66 121.55 193.63 121.76 194.79C121.98 195.96 121.36 197.38 120.18 197.57" stroke="#5E7969" stroke-miterlimit="10"/>
<path d="M74.1599 185.74C76.0699 186.98 78.6199 186.79 80.7299 185.94C82.8499 185.09 84.6799 183.68 86.6299 182.5C88.5799 181.32 90.7999 180.36 93.0699 180.57C94.4499 180.7 95.7499 181.25 97.1199 181.46C98.4899 181.66 100.28 181.24 101.1 180.12" stroke="#5E7969" stroke-miterlimit="10"/>
<path d="M116.81 177.34C115.79 176.58 114.31 176.79 113.18 177.39C112.05 177.98 111.12 178.89 110.03 179.55C108.94 180.21 107.37 180.87 106.23 180.3" stroke="#5E7969" stroke-miterlimit="10"/>
<path d="M79.8499 179.44C81.3199 178.29 83.3999 177.96 85.1599 178.61C86.9399 179.26 88.2399 181 90.1299 180.9" stroke="#5E7969" stroke-miterlimit="10"/>
<mask id="mask0_1882_16129" style="mask-type:luminance" maskUnits="userSpaceOnUse" x="110" y="121" width="31" height="10">
<path d="M140.9 129.41C140.39 126.9 138.78 123.47 137.06 121.37L110.34 124.66C116.95 129.26 127.63 132.3 140.9 129.41Z" fill="white"/>
</mask>
<g mask="url(#mask0_1882_16129)">
<path d="M142.1 130.54L124.95 121.02" stroke="#5E7969" stroke-miterlimit="10"/>
</g>
<mask id="mask1_1882_16129" style="mask-type:luminance" maskUnits="userSpaceOnUse" x="56" y="123" width="46" height="28">
<path d="M101.65 149.01C94.65 122.47 80.15 119.18 56.25 126.36C69.31 160.85 101.65 149.01 101.65 149.01Z" fill="white"/>
</mask>
<g mask="url(#mask1_1882_16129)">
<path d="M101.65 149.01C94.65 122.47 80.15 119.18 56.25 126.36C69.31 160.85 101.65 149.01 101.65 149.01Z" fill="#94C19B"/>
<path d="M56.24 126.36L101.65 149.01" stroke="#5E7969" stroke-miterlimit="10"/>
</g>
<path d="M130.12 141.07C137.095 141.07 142.75 135.415 142.75 128.44C142.75 121.464 137.095 115.81 130.12 115.81C123.145 115.81 117.49 121.464 117.49 128.44C117.49 135.415 123.145 141.07 130.12 141.07Z" stroke="#F1CB6B" stroke-miterlimit="10" stroke-dasharray="4 2"/>
<path d="M142.75 128.44L155.4 130.51" stroke="#E0DFDB" stroke-miterlimit="10" stroke-dasharray="4 2"/>
<path d="M126.61 165.93C126.61 169.07 124.06 171.62 120.92 171.62C117.78 171.62 115.23 169.07 115.23 165.93C115.23 162.79 120.92 154.85 120.92 154.85C120.92 154.85 126.61 162.78 126.61 165.93Z" fill="#B3C3F7"/>
<path d="M97.4901 113.87C97.4901 116.46 95.3901 118.57 92.7901 118.57C90.1901 118.57 88.0901 116.47 88.0901 113.87C88.0901 111.27 92.7901 104.73 92.7901 104.73C92.7901 104.73 97.4901 111.27 97.4901 113.87Z" fill="#B3C3F7"/>
<path d="M85.8101 166.97C85.8101 169.11 84.0801 170.84 81.9401 170.84C79.8001 170.84 78.0701 169.11 78.0701 166.97C78.0701 164.83 81.9401 159.44 81.9401 159.44C81.9401 159.44 85.8101 164.83 85.8101 166.97Z" fill="#B3C3F7"/>
<path d="M150.74 170.69H218.84" stroke="#EFE8E9" stroke-width="4" stroke-linecap="round" stroke-linejoin="round"/>
<path d="M150.74 181.47H218.84" stroke="#EFE8E9" stroke-width="4" stroke-linecap="round" stroke-linejoin="round"/>
<path d="M150.74 192.25H192.05" stroke="#EFE8E9" stroke-width="4" stroke-linecap="round" stroke-linejoin="round"/>
<path d="M150.74 203.02H176.22" stroke="#EFE8E9" stroke-width="4" stroke-linecap="round" stroke-linejoin="round"/>
<path d="M269.23 303.94C273.23 318.74 290.06 325.82 303.45 318.38C338.66 298.82 365.39 264.28 379.68 228.56C383.83 218.18 379.3 206.36 369.27 201.43C360.62 197.18 350.2 199.23 343.82 206.45L274.61 281.88C269.15 287.83 267.12 296.16 269.23 303.95V303.94Z" fill="#849CF1"/>
<path d="M186.79 212.74C187.16 213.21 187.52 213.69 187.91 214.19C190.75 217.9 194.27 222.5 199.33 227.11C205.92 233.14 215.1 239.23 228.71 243.52L234.08 230.02L225.27 199.24L186.8 212.75L186.79 212.74Z" fill="#F2C7BF"/>
<path d="M201.46 188.99L206.75 242.78C206.94 244.68 208.63 246.07 210.53 245.89C212.48 245.71 213.89 243.95 213.64 242.01L207.11 189.73L201.45 188.99H201.46Z" fill="#212121"/>
<path d="M187.9 214.19C190.74 217.9 194.26 222.5 199.32 227.11C201 226.76 202.45 225.59 203.07 223.86C203.33 223.13 203.4 222.37 203.32 221.63C203.32 221.49 203.29 221.37 203.27 221.24C203.25 221.13 203.23 221.01 203.17 220.91C202.75 219.23 201.47 217.79 199.66 217.29L189.47 214.36C188.95 214.22 188.42 214.16 187.9 214.18V214.19Z" fill="#E89E91"/>
<path d="M185.71 208.65C185.47 210.38 186.16 212.17 187.67 213.29L196.24 219.56C198.44 221.17 201.55 220.74 203.23 218.59C203.71 217.97 204.01 217.27 204.17 216.54C204.21 216.4 204.23 216.28 204.24 216.16C204.25 216.06 204.27 215.94 204.26 215.83C204.39 214.09 203.62 212.32 202.06 211.28L193.3 205.3C192.05 204.47 190.52 204.26 189.16 204.67C188.97 204.73 188.77 204.8 188.57 204.88C187.87 205.16 187.22 205.63 186.72 206.26C186.14 206.99 185.8 207.81 185.69 208.65H185.71Z" fill="#E89E91"/>
<path d="M206.78 199.65C206.93 200.26 206.97 200.91 206.87 201.56C206.84 201.74 206.81 201.9 206.77 202.07C206.34 203.84 205 205.2 203.33 205.69C202.69 205.89 202.01 205.96 201.31 205.88L196.94 205.42L190.77 204.75C189.89 204.65 189.09 204.33 188.43 203.85C187.49 203.18 186.82 202.19 186.54 201.06C186.39 200.45 186.36 199.8 186.46 199.15C186.82 196.75 188.87 195.02 191.25 195H191.26C191.39 195 191.52 195 191.65 195.02L202.23 195.81C202.33 195.81 202.44 195.83 202.54 195.85C204.66 196.13 206.29 197.7 206.77 199.66L206.78 199.65Z" fill="#F2C7BF"/>
<path d="M181.67 219C181.99 220.72 183.21 222.2 184.99 222.79L195.1 226.04C197.7 226.87 200.51 225.49 201.43 222.92C201.69 222.18 201.76 221.42 201.68 220.68C201.68 220.53 201.65 220.41 201.63 220.29C201.61 220.19 201.59 220.07 201.55 219.97C201.13 218.27 199.84 216.84 198.04 216.34L187.85 213.41C186.4 213.01 184.88 213.29 183.72 214.12C183.55 214.23 183.39 214.37 183.23 214.5C182.65 214.98 182.19 215.63 181.91 216.39C181.59 217.26 181.53 218.15 181.68 218.98L181.67 219Z" fill="#F2C7BF"/>
<path d="M183.7 214.14C184.11 214.98 184.77 215.72 185.65 216.22L194.84 221.5C197.13 222.83 200.75 222.67 202.26 219.44C201.84 217.74 199.82 216.86 198.02 216.36L187.83 213.43C186.38 213.03 184.86 213.31 183.7 214.14Z" fill="#E89E91"/>
<path d="M183.45 208.25C183.21 209.98 183.9 211.77 185.41 212.89L193.98 219.16C196.18 220.77 199.29 220.34 200.97 218.19C201.45 217.57 201.75 216.87 201.91 216.14C201.95 216 201.97 215.88 201.98 215.76C201.99 215.66 202.01 215.54 202 215.43C202.13 213.69 201.36 211.92 199.8 210.88L191.04 204.9C189.79 204.07 188.26 203.86 186.9 204.27C186.71 204.33 186.51 204.4 186.31 204.48C185.61 204.76 184.96 205.23 184.46 205.86C183.88 206.59 183.54 207.41 183.43 208.25H183.45Z" fill="#F2C7BF"/>
<path d="M186.91 204.27C187.03 205.2 187.43 206.1 188.11 206.86L195.17 214.77C196.93 216.75 200.41 217.74 202.86 215.14C202.99 213.4 201.36 211.92 199.8 210.88L191.04 204.9C189.79 204.07 188.26 203.86 186.9 204.27H186.91Z" fill="#E89E91"/>
<path d="M192.92 203.06C192.63 204.4 192.9 205.87 193.8 207.05L198.33 212.78C199.98 214.96 203.07 215.42 205.28 213.85C206.25 213.14 206.9 212.19 207.2 211.11C207.24 211.01 207.27 210.89 207.29 210.79C207.61 209.33 207.29 207.77 206.28 206.52L201.49 200.98C200.69 200.01 199.58 199.41 198.42 199.24C197.22 199.04 195.97 199.32 194.9 200.05C193.83 200.78 193.16 201.86 192.91 203.04L192.92 203.06Z" fill="#E89E91"/>
<path d="M205.11 210.33C205.09 210.43 205.08 210.55 205.05 210.66C205.03 210.79 204.98 210.92 204.96 211.04H204.95C204.69 211.98 204.16 212.84 203.35 213.53C201.27 215.29 198.15 215.06 196.33 213.01L189.25 205.11C188.91 204.72 188.64 204.3 188.44 203.85C188.06 203.01 187.94 202.08 188.06 201.19C188.22 199.99 188.81 198.87 189.81 198.05C190.39 197.59 191.01 197.28 191.69 197.1C192.2 196.97 192.74 196.93 193.26 196.97C194.42 197.04 195.58 197.55 196.45 198.45L203.33 205.68L203.77 206.14C204.87 207.3 205.3 208.83 205.11 210.31V210.33Z" fill="#F2C7BF"/>
<path d="M203.3 205.59L203.74 206.05C204.84 207.21 205.27 208.74 205.08 210.22C205.06 210.32 205.05 210.44 205.02 210.55C205 210.68 204.95 210.81 204.93 210.93H204.92C202.82 211.59 200.44 210.78 199.19 208.84L196.92 205.31L192.01 197.65C191.87 197.44 191.75 197.21 191.66 196.99C191.35 196.31 191.22 195.59 191.23 194.87H191.24C191.37 194.87 191.5 194.87 191.63 194.89L202.21 195.68C202.31 195.68 202.42 195.7 202.52 195.72L206.74 201.95C206.31 203.72 204.97 205.08 203.3 205.57V205.59Z" fill="#E89E91"/>
<path d="M212.32 194.71C212.53 195.56 212.52 196.47 212.25 197.36C211.46 199.99 208.72 201.5 206.08 200.8L202.77 199.92L195.83 198.05C194.79 197.77 193.91 197.17 193.29 196.39C192.83 195.84 192.51 195.19 192.34 194.49C192.13 193.64 192.15 192.73 192.44 191.84C193.21 189.42 195.72 187.98 198.2 188.55L201.54 189.34L205.09 190.16L208.53 190.97C210.47 191.41 211.87 192.9 212.31 194.7L212.32 194.71Z" fill="#F2C7BF"/>
<path d="M198.23 196.82C197.74 198.1 197.78 199.59 198.49 200.9L202.09 207.26C203.38 209.67 206.37 210.6 208.8 209.38C209.87 208.82 210.66 207.98 211.11 206.97C211.17 206.88 211.21 206.77 211.25 206.67C211.79 205.27 211.72 203.68 210.91 202.29L207.03 196.09C206.39 195.01 205.39 194.25 204.26 193.9C203.11 193.52 201.82 193.6 200.66 194.17C199.5 194.73 198.67 195.69 198.23 196.82Z" fill="#E89E91"/>
<path d="M193.71 194.13C193.32 195.45 193.48 196.93 194.28 198.18L200.07 207.08C201.55 209.38 204.6 210.08 206.92 208.67C207.95 208.03 208.66 207.13 209.04 206.09C209.09 206 209.12 205.88 209.15 205.78C209.58 204.34 209.38 202.77 208.47 201.44L202.41 192.72C201.69 191.69 200.63 191.01 199.48 190.76C198.3 190.47 197.03 190.65 195.91 191.3C194.79 191.95 194.04 192.97 193.7 194.13H193.71Z" fill="#F2C7BF"/>
<path d="M228.01 227.72L220.46 201.67L206.51 192.75L205 202.57L209.37 207.69C209.37 207.69 202.9 228.92 228 227.72H228.01Z" fill="#E89E91"/>
<path d="M206.51 192.76L197.56 196.25C195.62 197.01 194.64 199.19 195.37 201.14C196.02 202.88 197.82 203.9 199.64 203.56L205 202.57L206.51 192.75V192.76Z" fill="#E89E91"/>
<path d="M205.11 190.17L205.38 198.93L202.79 199.92L199.38 201.21C199.2 201.28 199.01 201.34 198.84 201.39C196.93 201.86 194.93 201.04 193.9 199.32C193.35 198.41 193.17 197.38 193.31 196.4C193.48 195.11 194.21 193.92 195.39 193.18L201.56 189.35L205.11 190.17Z" fill="#E89E91"/>
<path d="M207.52 194.26L197.23 113.79C197.15 113.03 196.59 112.4 195.84 112.25C194.69 112.01 193.63 112.96 193.73 114.13L201.68 196.4L207.53 194.26H207.52Z" fill="#212121"/>
<path d="M234.06 230.01L225.25 199.23L208.82 188.65L207 200.24L212.14 206.3C212.14 206.3 204.42 231.33 234.05 230.02L234.06 230.01Z" fill="#F2C7BF"/>
<path d="M208.83 188.65L198.26 192.73C195.96 193.62 194.8 196.18 195.65 198.5C196.41 200.55 198.53 201.77 200.68 201.38L207.01 200.24L208.83 188.65Z" fill="#F2C7BF"/>
<path d="M225.49 240.7C240.77 272.73 260.23 295.07 271.71 309.48C275.52 314.27 280.77 316.86 286.14 317.41C288.73 317.67 291.36 317.46 293.87 316.8C299.73 315.25 304.99 311.21 307.8 304.92C310.46 298.98 310.19 292.35 307.46 286.81C305.98 283.81 303.78 281.14 300.95 279.06L281.15 264.54L234.05 230.02L225.48 240.7H225.49Z" fill="#F2C7BF"/>
<path d="M376.33 192.38L345.12 201.97L338.19 189.39L327.98 170.87L323.93 163.54L351.09 111.39L376.33 192.38Z" fill="#F2C7BF"/>
<path d="M349.66 163.99C349.66 163.99 352.5 178.33 337.35 188.01L329.4 173.6L349.66 163.99Z" fill="#E89E91"/>
<path d="M320.89 114.1C293.48 109.38 304.58 78.08 328.19 90.17C345.08 98.82 357.66 78.8 375.16 88.72C398.1 101.73 375.79 126.16 375.79 126.16L320.9 114.1H320.89Z" fill="black"/>
<path d="M357.58 162.31L325.05 180.71C316.91 185.31 306.64 180.56 304.94 171.35C302.57 158.8 300.94 141.87 305.1 127.76C307.56 119.43 312.69 112.48 319.4 107.68C322.41 105.51 325.75 103.78 329.32 102.58L329.36 102.56L331.38 101.94L331.58 101.87C332.6 101.59 333.62 101.38 334.66 101.2C337.13 100.75 339.66 100.52 342.23 100.58C344.69 100.62 347.06 101.08 349.25 101.88C358.43 105.24 364.52 114.72 363.04 125.06L361.74 133.94L357.58 162.33V162.31Z" fill="#F2C7BF"/>
<path d="M323.93 104.87C344.76 89.57 366.59 97 378.48 106.81C386.85 113.71 393.98 124.84 387.85 134.48C382.27 143.25 368.36 144.82 366.55 160.98L347.88 117.21L323.94 104.86L323.93 104.87Z" fill="black"/>
<path d="M350.77 138.45C385.22 112.58 389.62 158.37 352.23 155.91L350.77 138.45Z" fill="#F2C7BF"/>
<path d="M304.09 131.68C302.21 138.7 297.55 140.7 294.38 141.16C292.35 141.46 290.88 143.26 290.99 145.31C291.13 148.02 292.85 150.39 295.38 151.36L304.33 154.8C309.22 155.75 313.86 152.28 314.34 147.32L315.96 130.51L304.08 131.68H304.09Z" fill="#F2C7BF"/>
<path d="M302.74 154.19C323.3 145.51 353.51 149.07 353.51 149.07C353.51 149.07 353.54 158.56 350.13 166.52C346.72 174.48 301.46 208.19 302.74 154.18V154.19Z" fill="black"/>
<path d="M413.32 271.15C406.7 302.61 398.6 329.29 398.6 329.29L332.97 333.2L347.05 273.89C333.01 260.78 332.13 244.86 335.02 231C337.64 218.38 343.38 207.49 345.12 201.98L371.17 176.48C372.56 175.1 404.34 177.21 413.95 222.04C417.61 239.12 416.49 256.07 413.31 271.15H413.32Z" fill="#A2B7F3"/>
<path d="M367.85 216.66L384.5 291.24L361.93 331.47L398.6 329.29L418.12 264.95V221L367.85 216.66Z" fill="#849CF1"/>
<path d="M346.05 109.75L343.21 154.95L352.37 159.22L362.25 123.92L346.05 109.75Z" fill="black"/>
<path d="M311.13 141.55C310.35 144.75 310.9 147.64 312.36 148C313.82 148.36 315.64 146.05 316.42 142.84C317.2 139.64 316.65 136.75 315.19 136.39C313.73 136.03 311.91 138.34 311.13 141.55Z" fill="black"/>
<path d="M319.53 127.46C325.84 130.57 327.83 127.36 323.36 124.25C318.55 120.9 311.68 123.58 319.53 127.46Z" fill="black"/>
<path d="M324.17 157.6C323.52 165.87 316.98 166.58 314.04 159.65L324.17 157.6Z" fill="white"/>
<path d="M417.71 372.47L417.31 377.24C416.78 383.6 411.06 388.75 404.55 388.75H312.31C319.24 352.5 332.79 333.2 332.79 333.2L398.41 329.3C409.58 340.3 415.05 357.41 417.71 372.47Z" fill="black"/>
<path d="M426 309.93C440.04 312.5 453.19 300.93 451.41 286.76C446.81 250.35 419.36 215.28 398.26 194.08C389.82 185.61 375.83 186.24 367.16 194.48C359.68 201.58 357.89 212.81 362.77 221.89L411.58 300.12C414.8 305.27 420.03 308.83 426.01 309.93H426Z" fill="#A2B7F3"/>
<path d="M409.38 280.73L361.46 324.29L362.02 341.86C362.02 341.86 410.58 333.44 442.15 306.68C463.86 288.28 436.71 256.17 409.38 280.73Z" fill="#F2C7BF"/>
<path d="M362.5 341.75L310.06 352.26L352.68 314.61L373.56 333.32L362.5 341.75Z" fill="#F2C7BF"/>
<path d="M350.42 322.27L355.2 315.77C356.61 313.85 355.83 311.11 353.62 310.23L352.94 309.96C348.75 308.28 344.03 310.57 342.75 314.89C341.89 317.79 342.82 320.93 345.12 322.89C346.73 324.26 349.17 323.98 350.42 322.28V322.27Z" fill="#F2C7BF"/>
<path d="M338.55 331.54L310.06 352.25L309.04 351.83C305.03 350.18 300.51 350.37 296.67 352.37C296.05 352.68 295.31 352.55 294.85 352.08C294.78 352 294.72 351.92 294.66 351.83C293.12 349.45 293.51 346.38 295.46 344.48C295.78 344.16 296.16 343.89 296.57 343.64L298.52 342.66L298.72 342.56C302.09 340.88 306.05 340.96 309.34 342.78L337.64 331.9L338.56 331.54H338.55Z" fill="#F2C7BF"/>
<path d="M330.58 341.79L315.6 349.29C309.19 346.15 304.67 347.05 300.84 349.04C300.22 349.35 299.48 349.22 299.02 348.75C298.95 348.68 298.89 348.59 298.83 348.5C297.64 346.68 297.6 344.45 298.53 342.67L298.73 342.57C302.1 340.89 306.06 340.97 309.35 342.79L316.7 345.78L330.6 341.78L330.58 341.79Z" fill="#E89E91"/>
<path d="M316.68 345.78L315.66 345.36C311.66 343.71 307.14 343.91 303.29 345.9C302.58 346.27 301.71 346.04 301.27 345.37C299.46 342.59 300.33 338.87 303.17 337.17L305.32 336.1C308.69 334.43 312.66 334.51 315.95 336.32L345.16 325.08L316.66 345.79L316.68 345.78Z" fill="#F2C7BF"/>
<path d="M344.76 214.18L334.09 188.8L369.71 165.55L376.33 177.75L344.76 214.18Z" fill="#A2B7F3"/>
<path d="M351.95 126.62C335.65 126.62 325.48 119.93 337.76 107.66C346.32 99.1099 363.81 106.78 351.95 126.62Z" fill="black"/>
<path d="M398.15 359.24H100.02C97.4575 359.24 95.3801 361.317 95.3801 363.88V376.47C95.3801 379.033 97.4575 381.11 100.02 381.11H398.15C400.713 381.11 402.79 379.033 402.79 376.47V363.88C402.79 361.317 400.713 359.24 398.15 359.24Z" fill="#060606"/>
<path d="M113.48 370.88L105.85 375.74C105.29 376.09 104.56 375.69 104.56 375.03V365.31C104.56 364.65 105.29 364.25 105.85 364.6L113.48 369.46C114 369.79 114 370.54 113.48 370.87V370.88Z" fill="#FFFFFD"/>
<path d="M221 372.68H123.34C121.96 372.68 120.84 371.56 120.84 370.18C120.84 368.8 121.96 367.68 123.34 367.68H221C222.38 367.68 223.5 368.8 223.5 370.18C223.5 371.56 222.38 372.68 221 372.68Z" fill="#E15938"/>
<path d="M384.04 372.68H222.37C220.99 372.68 219.87 371.56 219.87 370.18C219.87 368.8 220.99 367.68 222.37 367.68H384.04C385.42 367.68 386.54 368.8 386.54 370.18C386.54 371.56 385.42 372.68 384.04 372.68Z" fill="#FFFFFD"/>
<path d="M228.28 370.18C228.28 374.2 225.02 377.46 221 377.46C216.98 377.46 213.72 374.2 213.72 370.18C213.72 366.16 216.98 362.9 221 362.9C225.02 362.9 228.28 366.16 228.28 370.18Z" fill="#E15938"/>
<path d="M224.59 370.18C224.59 372.16 222.98 373.77 221.01 373.77C219.04 373.77 217.42 372.16 217.42 370.18C217.42 368.2 219.03 366.59 221.01 366.59C222.99 366.59 224.59 368.2 224.59 370.18Z" fill="#FFFFFD"/>
<path d="M45.2102 171.62C0.000175476 214.17 32.1102 293.94 96.3602 293.75" stroke="#F1CB6B" stroke-miterlimit="10" stroke-dasharray="4 2"/>
<g style="mix-blend-mode:multiply" opacity="0.3">
<path d="M259.44 270.52H191.32L184.45 257.9C183.54 256.23 181.79 255.19 179.89 255.19H121.81C118.94 255.19 116.61 257.52 116.61 260.39V343.24C116.61 347.23 119.85 350.47 123.84 350.47H259.44C263.43 350.47 266.67 347.23 266.67 343.24V277.75C266.67 273.76 263.43 270.52 259.44 270.52Z" fill="#EFE8E9"/>
</g>
<path d="M103.59 333.23C99.8801 333.23 96.8601 330.21 96.8601 326.5V254.28H239.19C242.9 254.28 245.92 257.3 245.92 261.01V326.5C245.92 330.21 242.9 333.23 239.19 333.23H103.59Z" fill="white"/>
<path d="M239.19 254.78C242.63 254.78 245.42 257.57 245.42 261.01V326.5C245.42 329.94 242.63 332.73 239.19 332.73H103.59C100.15 332.73 97.3601 329.93 97.3601 326.5V254.78H239.19ZM239.19 253.78H96.3601V326.5C96.3601 330.49 99.6001 333.73 103.59 333.73H239.19C243.18 333.73 246.42 330.49 246.42 326.5V261.01C246.42 257.02 243.18 253.78 239.19 253.78Z" fill="#EFE8E9"/>
<path d="M159.64 238.45H101.56C98.6901 238.45 96.3601 240.78 96.3601 243.65V253.78H171.07L164.2 241.16C163.29 239.49 161.54 238.45 159.64 238.45Z" fill="#94C19B"/>
<path d="M113.82 249.81C115.864 249.81 117.52 248.154 117.52 246.11C117.52 244.067 115.864 242.41 113.82 242.41C111.777 242.41 110.12 244.067 110.12 246.11C110.12 248.154 111.777 249.81 113.82 249.81Z" stroke="white" stroke-miterlimit="10"/>
<path d="M133.06 246.11C133.06 248.15 131.4 249.81 129.36 249.81C127.32 249.81 125.66 248.15 125.66 246.11C125.66 244.07 127.32 242.41 129.36 242.41C131.4 242.41 133.06 244.07 133.06 246.11Z" stroke="white" stroke-miterlimit="10"/>
<path d="M144.91 249.81C146.954 249.81 148.61 248.154 148.61 246.11C148.61 244.067 146.954 242.41 144.91 242.41C142.867 242.41 141.21 244.067 141.21 246.11C141.21 248.154 142.867 249.81 144.91 249.81Z" stroke="white" stroke-miterlimit="10"/>
<path d="M171.07 271.83V312.69" stroke="#EFE8E9" stroke-width="4" stroke-linecap="round" stroke-linejoin="round"/>
<path d="M180.84 274.75V309.77" stroke="#EFE8E9" stroke-width="4" stroke-linecap="round" stroke-linejoin="round"/>
<path d="M190.61 283.25V301.26" stroke="#EFE8E9" stroke-width="4" stroke-linecap="round" stroke-linejoin="round"/>
<path d="M117.52 271.83V312.69" stroke="#EFE8E9" stroke-width="4" stroke-linecap="round" stroke-linejoin="round"/>
<path d="M126.82 274.75V309.77" stroke="#EFE8E9" stroke-width="4" stroke-linecap="round" stroke-linejoin="round"/>
<path d="M136.12 283.25V301.26" stroke="#EFE8E9" stroke-width="4" stroke-linecap="round" stroke-linejoin="round"/>
<path d="M223.81 312.69V271.83" stroke="#EFE8E9" stroke-width="4" stroke-linecap="round" stroke-linejoin="round"/>
<path d="M214.51 309.77V274.75" stroke="#EFE8E9" stroke-width="4" stroke-linecap="round" stroke-linejoin="round"/>
<path d="M205.2 301.27V283.26" stroke="#EFE8E9" stroke-width="4" stroke-linecap="round" stroke-linejoin="round"/>
<path d="M161.3 309.48V274.46" stroke="#EFE8E9" stroke-width="4" stroke-linecap="round" stroke-linejoin="round"/>
<path d="M151.53 301.981V282.041" stroke="#EFE8E9" stroke-width="4" stroke-linecap="round" stroke-linejoin="round"/>
<path d="M116.13 271.83C143.6 271.83 143.6 312.69 171.07 312.69C198.54 312.69 198.54 271.83 226.01 271.83" stroke="#F3CD6C" stroke-width="4" stroke-linecap="round" stroke-linejoin="round"/>
<path d="M226.02 312.69C198.55 312.69 198.55 271.83 171.08 271.83C143.61 271.83 143.61 312.69 116.14 312.69" stroke="#E15938" stroke-width="4" stroke-linecap="round" stroke-linejoin="round"/>
<path d="M147.56 267.42C147.56 268.88 146.38 270.06 144.92 270.06C143.46 270.06 142.28 268.88 142.28 267.42C142.28 265.96 143.46 264.78 144.92 264.78C146.38 264.78 147.56 265.96 147.56 267.42Z" fill="#BCE0C1"/>
<path d="M197.54 317.51C197.54 318.97 196.36 320.15 194.9 320.15C193.44 320.15 192.26 318.97 192.26 317.51C192.26 316.05 193.44 314.87 194.9 314.87C196.36 314.87 197.54 316.05 197.54 317.51Z" fill="#BCE0C1"/>
<path d="M209.15 267.42C209.15 268.88 207.97 270.06 206.51 270.06C205.05 270.06 203.87 268.88 203.87 267.42C203.87 265.96 205.05 264.78 206.51 264.78C207.97 264.78 209.15 265.96 209.15 267.42Z" fill="#BCE0C1"/>
<path d="M112.27 295.72C112.27 297.18 111.09 298.36 109.63 298.36C108.17 298.36 106.99 297.18 106.99 295.72C106.99 294.26 108.17 293.08 109.63 293.08C111.09 293.08 112.27 294.26 112.27 295.72Z" fill="#94C19B"/>
<path d="M147.55 317.51C147.55 318.97 146.37 320.15 144.91 320.15C143.45 320.15 142.27 318.97 142.27 317.51C142.27 316.05 143.45 314.87 144.91 314.87C146.37 314.87 147.55 316.05 147.55 317.51Z" fill="#94C19B"/>
<path d="M236.71 291.97C236.71 293.43 235.53 294.61 234.07 294.61C232.61 294.61 231.43 293.43 231.43 291.97C231.43 290.51 232.61 289.33 234.07 289.33C235.53 289.33 236.71 290.51 236.71 291.97Z" fill="#94C19B"/>
<path d="M356.62 460.62C430.306 460.62 490.04 457.164 490.04 452.9C490.04 448.636 430.306 445.18 356.62 445.18C282.934 445.18 223.2 448.636 223.2 452.9C223.2 457.164 282.934 460.62 356.62 460.62Z" fill="#EFE8E9"/>
<path d="M399.74 355.29V399.76H279.65C271.52 399.76 264.54 394.86 261.49 387.84C260.45 385.44 259.87 382.78 259.87 379.98V375.07C259.87 364.15 268.73 355.29 279.65 355.29H399.74Z" fill="#E15938"/>
<path d="M362.27 387.84V399.76H279.65C271.52 399.76 264.54 394.86 261.49 387.84H362.27Z" fill="#D0391A"/>
<path d="M342.09 377.52C342.09 382.11 343.95 386.26 346.95 389.26C349.95 392.27 354.11 394.13 358.69 394.13H451.59V399.76H358.76C352.61 399.76 347.06 397.27 343.03 393.25C339 389.22 336.52 383.66 336.52 377.52C336.52 365.24 346.48 355.29 358.76 355.29H451.59V360.92H358.69C349.52 360.92 342.09 368.35 342.09 377.52Z" fill="#D0391A"/>
<path d="M356.86 360.92H446.78V394.14H356.86C348.71 394.14 342.09 387.52 342.09 379.37V375.7C342.09 367.55 348.71 360.93 356.86 360.93V360.92Z" fill="white"/>
<path d="M353.56 367.21H384.76" stroke="#EFE8E9" stroke-width="4" stroke-linecap="round" stroke-linejoin="round"/>
<path d="M391.21 367.21H398.2" stroke="#EFE8E9" stroke-width="4" stroke-linecap="round" stroke-linejoin="round"/>
<path d="M441.95 373.67H373.82" stroke="#EFE8E9" stroke-width="4" stroke-linecap="round" stroke-linejoin="round"/>
<path d="M441.95 380.3H363.78" stroke="#EFE8E9" stroke-width="4" stroke-linecap="round" stroke-linejoin="round"/>
<path d="M366.83 373.67H356.07" stroke="#EFE8E9" stroke-width="4" stroke-linecap="round" stroke-linejoin="round"/>
<path d="M346.92 380.3H350.87" stroke="#EFE8E9" stroke-width="4" stroke-linecap="round" stroke-linejoin="round"/>
<path d="M358.04 387.83H393.12" stroke="#EFE8E9" stroke-width="4" stroke-linecap="round" stroke-linejoin="round"/>
<path d="M437.65 367.21H421.87" stroke="#EFE8E9" stroke-width="4" stroke-linecap="round" stroke-linejoin="round"/>
<path d="M409.99 387.83H419.4" stroke="#EFE8E9" stroke-width="4" stroke-linecap="round" stroke-linejoin="round"/>
<path d="M285.7 393.26C289.73 397.27 295.29 399.77 301.42 399.77H290.1C283.96 399.77 278.41 397.27 274.38 393.26C272.79 391.68 271.45 389.85 270.4 387.84C268.78 384.76 267.87 381.25 267.87 377.53C267.87 365.24 277.83 355.3 290.1 355.3H301.42C289.15 355.3 279.19 365.24 279.19 377.53C279.19 381.25 280.1 384.76 281.72 387.84C282.77 389.85 284.12 391.68 285.7 393.26Z" fill="#F3CD6C"/>
<path d="M330.59 393.26C334.62 397.27 340.18 399.77 346.32 399.77H324.27C318.13 399.77 312.56 397.27 308.54 393.26C306.96 391.68 305.61 389.85 304.56 387.84C302.94 384.76 302.02 381.25 302.02 377.53C302.02 365.24 311.98 355.3 324.27 355.3H346.32C334.04 355.3 324.08 365.24 324.08 377.53C324.08 381.25 324.99 384.76 326.61 387.84C327.66 389.85 329.01 391.68 330.59 393.26Z" fill="#F3CD6C"/>
<path d="M285.7 393.26C289.73 397.27 295.29 399.77 301.42 399.77H290.1C283.96 399.77 278.41 397.27 274.38 393.26C272.79 391.68 271.45 389.85 270.4 387.84H281.72C282.77 389.85 284.12 391.68 285.7 393.26Z" fill="#EEB142"/>
<path d="M346.32 399.77H324.27C318.13 399.77 312.56 397.27 308.54 393.26C306.96 391.68 305.61 389.85 304.56 387.84H326.61C327.66 389.85 329.01 391.68 330.59 393.26C334.62 397.27 340.18 399.77 346.32 399.77Z" fill="#EEB142"/>
<path d="M479.93 399.73H312.69V452.91H479.93V399.73Z" fill="#EEB142"/>
<path d="M479.94 406.46H319.35V446.18H479.94V406.46Z" fill="#EFE8E9"/>
<path d="M277.45 399.73H383.7V452.91H277.45C263.33 452.91 251.86 441.44 251.86 427.32V425.32C251.86 411.2 263.33 399.73 277.45 399.73Z" fill="#F3CD6C"/>
<path d="M383.7 406.46H278.38C267.41 406.46 258.52 415.35 258.52 426.32C258.52 437.29 267.41 446.18 278.38 446.18H383.7V406.46Z" fill="white"/>
<path d="M311.24 415.54H402" stroke="#EFE8E9" stroke-width="4" stroke-linecap="round" stroke-linejoin="round"/>
<path d="M281.96 424.31H338.32" stroke="#EFE8E9" stroke-width="4" stroke-linecap="round" stroke-linejoin="round"/>
<path d="M295.28 434.78H368.61" stroke="#EFE8E9" stroke-width="4" stroke-linecap="round" stroke-linejoin="round"/>
<path d="M365.21 424.31H400.3" stroke="#EFE8E9" stroke-width="4" stroke-linecap="round" stroke-linejoin="round"/>
<path d="M295.28 415.54H274.53" stroke="#EFE8E9" stroke-width="4" stroke-linecap="round" stroke-linejoin="round"/>
<path d="M285.05 434.78H270.19" stroke="#EFE8E9" stroke-width="4" stroke-linecap="round" stroke-linejoin="round"/>
<path d="M274.53 424.31H267.73" stroke="#EFE8E9" stroke-width="4" stroke-linecap="round" stroke-linejoin="round"/>
<path d="M344.18 424.31H351.13" stroke="#EFE8E9" stroke-width="4" stroke-linecap="round" stroke-linejoin="round"/>
<path d="M265.12 157.6C265.12 160.5 262.77 162.86 259.86 162.86C256.95 162.86 254.6 160.51 254.6 157.6C254.6 154.69 256.95 152.34 259.86 152.34C262.77 152.34 265.12 154.69 265.12 157.6Z" stroke="#E7DDDD" stroke-width="3" stroke-linecap="round" stroke-linejoin="round"/>
<path d="M475.06 196.96C475.06 194.13 472.76 191.83 469.93 191.83C467.1 191.83 464.8 194.13 464.8 196.96C464.8 199.79 467.1 202.09 469.93 202.09C472.76 202.09 475.06 199.79 475.06 196.96Z" stroke="#E7DDDD" stroke-width="3" stroke-linecap="round" stroke-linejoin="round"/>
<path d="M53.1 242.41C53.1 244.79 51.17 246.73 48.78 246.73C46.39 246.73 44.46 244.8 44.46 242.41C44.46 240.02 46.39 238.09 48.78 238.09C51.17 238.09 53.1 240.02 53.1 242.41Z" stroke="#E7DDDD" stroke-width="3" stroke-linecap="round" stroke-linejoin="round"/>
<path d="M208.67 415.54C208.67 417.96 206.71 419.93 204.28 419.93C201.85 419.93 199.89 417.97 199.89 415.54C199.89 413.11 201.85 411.15 204.28 411.15C206.71 411.15 208.67 413.11 208.67 415.54Z" stroke="#E7DDDD" stroke-width="3" stroke-linecap="round" stroke-linejoin="round"/>
<path d="M407.72 159.13C406.49 157.87 407.55 155.53 409.21 154.94C410.87 154.35 412.7 154.94 414.34 155.59C415.98 156.24 417.71 156.98 419.44 156.68C421.18 156.38 422.75 154.5 422.01 152.89" stroke="#E7DDDD" stroke-width="3" stroke-linecap="round" stroke-linejoin="round"/>
<path d="M277.98 121.95C275.16 121.87 273.18 119.07 272.37 116.36C271.56 113.66 271.4 110.7 269.93 108.29C268.46 105.88 264.88 104.39 262.8 106.3" stroke="#E7DDDD" stroke-width="3" stroke-linecap="round" stroke-linejoin="round"/>
<path d="M19.0699 102.32C17.7999 105.7 19.4499 111.99 22.6699 113.61C24.2499 114.41 26.0599 114.61 27.7899 114.99C29.5199 115.37 31.3199 116 32.4299 117.39C33.5399 118.78 33.6199 121.1 32.1899 122.15" stroke="#E7DDDD" stroke-width="3" stroke-linecap="round" stroke-linejoin="round"/>
<path d="M116.4 431.25C116.9 434.66 121.56 434.55 124.35 432.51C125.78 431.47 126.55 429.79 127.37 428.23C128.19 426.67 129.26 425.07 130.92 424.48C132.58 423.89 134.87 424.95 134.83 426.71" stroke="#E7DDDD" stroke-width="3" stroke-linecap="round" stroke-linejoin="round"/>
<path d="M464.19 319.74C461.97 317.55 461.54 313.77 463.21 311.13C464.15 309.64 465.62 308.57 466.95 307.41C468.28 306.25 469.55 304.85 469.88 303.12C470.21 301.39 469.19 299.3 467.44 299.07" stroke="#E7DDDD" stroke-width="3" stroke-linecap="round" stroke-linejoin="round"/>
<path d="M163.5 77.4802C163.06 74.5502 165.72 71.5602 168.69 71.6602C170.32 71.7202 171.82 72.5502 173.29 73.2502C174.77 73.9502 176.43 74.5602 178.01 74.1402C179.59 73.7202 180.85 71.8402 180.05 70.4102" stroke="#E7DDDD" stroke-width="3" stroke-linecap="round" stroke-linejoin="round"/>
<path d="M149.15 451.47C149.15 454.16 118.13 456.33 79.8601 456.33C41.5901 456.33 10.5701 454.15 10.5701 451.47C10.5701 448.79 41.5901 446.61 79.8601 446.61C118.13 446.61 149.15 448.79 149.15 451.47Z" fill="#EFE8E9"/>
<path d="M69.2202 417.85C86.4302 373.45 88.3002 323.27 74.4402 277.72C69.8102 326.15 62.8902 374.35 53.7002 422.13L69.2202 417.86V417.85Z" fill="#94C19B"/>
<path d="M43.4303 406.95C32.0403 369.71 35.4603 328.15 52.7903 293.27C39.7403 331.42 69.4303 373.91 58.1403 412.62L43.4303 406.95Z" fill="#94C19B"/>
<path d="M120.01 316.39C97.3302 341.76 83.9302 333.2 75.6602 375.39C73.9902 383.91 65.5302 415.46 76.4602 414.44C87.4502 413.41 91.4802 380.71 97.0702 364.47C104.59 342.58 113.64 332.27 120.01 316.4V316.39Z" fill="#94C19B"/>
<path d="M53.5403 403.16C62.3603 396.58 66.8903 385.5 68.0503 374.55C69.2103 363.61 67.4103 352.6 65.8303 341.71C64.2503 330.82 62.8703 319.69 64.8603 308.87C67.0903 326.63 78.6103 340.06 83.5003 357.28C88.3403 374.33 85.0903 393.5 74.8903 408L53.5403 403.16Z" fill="#BCE0C1"/>
<path d="M42.9802 414.46C28.2602 387.12 20.2602 352.78 30.7202 308.87C41.1602 338.57 56.3602 412.39 56.3602 412.39L42.9802 414.46Z" fill="#BCE0C1"/>
<path d="M91.2202 398.75L86.8702 426.67L83.3202 449.63C83.0302 451.51 81.4002 452.91 79.4902 452.91H38.8302C36.8802 452.91 35.2302 451.46 34.9802 449.51L28.3902 398.66C28.1002 396.33 29.9102 394.29 32.2402 394.29H87.4002C89.7802 394.29 91.5902 396.4 91.2302 398.75H91.2202Z" fill="#849CF1"/>
<path d="M91.2201 398.75L86.8701 426.67C78.9901 421.42 70.1201 411.82 63.3901 394.29H87.3901C89.7701 394.29 91.5801 396.4 91.2201 398.75Z" fill="#B3C3F7"/>
</g>
<defs>
<clipPath id="clip0_1882_16129">
<rect width="500" height="500" fill="white"/>
</clipPath>
</defs>
</svg>
