<svg width="360" height="200" viewBox="0 0 360 200" fill="none" xmlns="http://www.w3.org/2000/svg">
<rect width="360" height="200" rx="8" fill="#F5F5F5"/>
<path d="M225.536 45.3574H134.464C132.049 45.3574 129.732 46.3169 128.024 48.0248C126.316 49.7328 125.357 52.0492 125.357 54.4646V145.536C125.357 147.951 126.316 150.268 128.024 151.976C129.732 153.684 132.049 154.643 134.464 154.643H225.536C227.951 154.643 230.267 153.684 231.975 151.976C233.683 150.268 234.643 147.951 234.643 145.536V54.4646C234.643 52.0492 233.683 49.7328 231.975 48.0248C230.267 46.3169 227.951 45.3574 225.536 45.3574ZM134.464 54.4646H225.536V98.509L211.482 84.4498C209.774 82.7432 207.459 81.7845 205.044 81.7845C202.63 81.7845 200.315 82.7432 198.607 84.4498L137.521 145.536H134.464V54.4646ZM152.678 81.786C152.678 79.9848 153.212 78.224 154.213 76.7263C155.214 75.2287 156.636 74.0614 158.3 73.3721C159.964 72.6828 161.796 72.5024 163.562 72.8538C165.329 73.2052 166.952 74.0726 168.225 75.3463C169.499 76.6199 170.366 78.2427 170.718 80.0093C171.069 81.7759 170.889 83.607 170.199 85.2711C169.51 86.9353 168.343 88.3576 166.845 89.3583C165.347 90.359 163.587 90.8931 161.786 90.8931C159.37 90.8931 157.054 89.9336 155.346 88.2257C153.638 86.5178 152.678 84.2014 152.678 81.786Z" fill="white"/>
</svg>
