<svg width="109" height="29" viewBox="0 0 109 29" fill="none" xmlns="http://www.w3.org/2000/svg">
<path d="M36.24 24.16C35.8533 24.16 35.5667 24.0867 35.38 23.94C35.1933 23.7933 35.1 23.5933 35.1 23.34L35.24 22.68C35.1333 22.8533 34.9533 23.06 34.7 23.3C34.4467 23.5267 34.1133 23.7333 33.7 23.92C33.2867 24.0933 32.7867 24.18 32.2 24.18C31.5733 24.18 30.98 24.0533 30.42 23.8C29.8733 23.5333 29.3867 23.1733 28.96 22.72C28.5467 22.2533 28.2133 21.7267 27.96 21.14C27.72 20.54 27.6 19.9 27.6 19.22C27.6 18.5667 27.72 17.9533 27.96 17.38C28.2133 16.7933 28.5533 16.2733 28.98 15.82C29.4067 15.3667 29.8933 15.0133 30.44 14.76C31 14.4933 31.5867 14.36 32.2 14.36C32.7467 14.36 33.2067 14.4333 33.58 14.58C33.9667 14.7267 34.2933 14.9133 34.56 15.14C34.8267 15.3533 35.0467 15.58 35.22 15.82L35.1 15.24C35.1 14.9467 35.1933 14.7267 35.38 14.58C35.5667 14.42 35.86 14.34 36.26 14.34C36.6333 14.34 36.9 14.4 37.06 14.52C37.22 14.6267 37.32 14.78 37.36 14.98C37.4 15.1667 37.42 15.38 37.42 15.62V22.94C37.42 23.1667 37.4 23.3733 37.36 23.56C37.32 23.7467 37.2133 23.8933 37.04 24C36.88 24.1067 36.6133 24.16 36.24 24.16ZM32.56 21.84C33.0133 21.84 33.42 21.7267 33.78 21.5C34.14 21.2733 34.4267 20.9667 34.64 20.58C34.8667 20.18 34.98 19.74 34.98 19.26C34.98 18.74 34.8667 18.2867 34.64 17.9C34.4133 17.5133 34.1133 17.2133 33.74 17C33.38 16.7733 32.9733 16.66 32.52 16.66C32.0267 16.66 31.5867 16.78 31.2 17.02C30.8133 17.2467 30.5067 17.56 30.28 17.96C30.0667 18.3467 29.96 18.7867 29.96 19.28C29.96 19.76 30.0733 20.1933 30.3 20.58C30.5267 20.9667 30.8333 21.2733 31.22 21.5C31.62 21.7267 32.0667 21.84 32.56 21.84ZM44.1867 24.24C43.5467 24.24 42.9201 24.1333 42.3067 23.92C41.7067 23.6933 41.1601 23.3667 40.6667 22.94C40.1867 22.5133 39.8001 21.9933 39.5067 21.38C39.2267 20.7533 39.0867 20.0467 39.0867 19.26C39.0867 18.4733 39.2267 17.7733 39.5067 17.16C39.8001 16.5467 40.1867 16.0267 40.6667 15.6C41.1467 15.1733 41.6867 14.8467 42.2867 14.62C42.8867 14.3933 43.5067 14.28 44.1467 14.28C44.6134 14.28 45.0534 14.3467 45.4667 14.48C45.8934 14.6133 46.2601 14.7733 46.5667 14.96C46.8734 15.1467 47.0934 15.3333 47.2267 15.52C47.4001 15.68 47.5467 15.8333 47.6667 15.98C47.7867 16.1267 47.8267 16.3067 47.7867 16.52C47.7467 16.6533 47.6867 16.78 47.6067 16.9C47.5267 17.0067 47.4267 17.12 47.3067 17.24C46.9867 17.6 46.6734 17.7333 46.3667 17.64C46.1934 17.5467 46.0201 17.4467 45.8467 17.34C45.6734 17.2333 45.4934 17.1333 45.3067 17.04C45.1334 16.9333 44.9534 16.8467 44.7667 16.78C44.5801 16.7133 44.3734 16.68 44.1467 16.68C43.6401 16.68 43.1867 16.7933 42.7867 17.02C42.4001 17.2333 42.0934 17.5333 41.8667 17.92C41.6534 18.3067 41.5467 18.7533 41.5467 19.26C41.5467 19.7667 41.6534 20.22 41.8667 20.62C42.0934 21.0067 42.4001 21.3133 42.7867 21.54C43.1734 21.7533 43.6134 21.86 44.1067 21.86C44.3467 21.86 44.5734 21.8333 44.7867 21.78C45.0134 21.7133 45.2134 21.6333 45.3867 21.54C45.5601 21.4333 45.7001 21.3267 45.8067 21.22C45.9534 21.1267 46.0867 21.04 46.2067 20.96C46.3267 20.88 46.4534 20.84 46.5867 20.84C46.7467 20.84 46.9001 20.9 47.0467 21.02C47.2067 21.1267 47.3801 21.3 47.5667 21.54C47.7401 21.74 47.8334 21.9333 47.8467 22.12C47.8734 22.3067 47.8334 22.4867 47.7267 22.66C47.6334 22.8333 47.4734 22.9933 47.2467 23.14C47.0867 23.3 46.8467 23.4667 46.5267 23.64C46.2201 23.8 45.8601 23.94 45.4467 24.06C45.0467 24.18 44.6267 24.24 44.1867 24.24ZM57.7634 24.16C57.3768 24.16 57.0901 24.0867 56.9034 23.94C56.7168 23.7933 56.6234 23.5933 56.6234 23.34L56.7634 22.68C56.6568 22.8533 56.4768 23.06 56.2234 23.3C55.9701 23.5267 55.6368 23.7333 55.2234 23.92C54.8101 24.0933 54.3101 24.18 53.7234 24.18C53.0968 24.18 52.5034 24.0533 51.9434 23.8C51.3968 23.5333 50.9101 23.1733 50.4834 22.72C50.0701 22.2533 49.7368 21.7267 49.4834 21.14C49.2434 20.54 49.1234 19.9 49.1234 19.22C49.1234 18.5667 49.2434 17.9533 49.4834 17.38C49.7368 16.7933 50.0768 16.2733 50.5034 15.82C50.9301 15.3667 51.4168 15.0133 51.9634 14.76C52.5234 14.4933 53.1101 14.36 53.7234 14.36C54.2701 14.36 54.7301 14.4333 55.1034 14.58C55.4901 14.7267 55.8168 14.9133 56.0834 15.14C56.3501 15.3533 56.5701 15.58 56.7434 15.82L56.6234 15.24C56.6234 14.9467 56.7168 14.7267 56.9034 14.58C57.0901 14.42 57.3834 14.34 57.7834 14.34C58.1568 14.34 58.4234 14.4 58.5834 14.52C58.7434 14.6267 58.8434 14.78 58.8834 14.98C58.9234 15.1667 58.9434 15.38 58.9434 15.62V22.94C58.9434 23.1667 58.9234 23.3733 58.8834 23.56C58.8434 23.7467 58.7368 23.8933 58.5634 24C58.4034 24.1067 58.1368 24.16 57.7634 24.16ZM54.0834 21.84C54.5368 21.84 54.9434 21.7267 55.3034 21.5C55.6634 21.2733 55.9501 20.9667 56.1634 20.58C56.3901 20.18 56.5034 19.74 56.5034 19.26C56.5034 18.74 56.3901 18.2867 56.1634 17.9C55.9368 17.5133 55.6368 17.2133 55.2634 17C54.9034 16.7733 54.4968 16.66 54.0434 16.66C53.5501 16.66 53.1101 16.78 52.7234 17.02C52.3368 17.2467 52.0301 17.56 51.8034 17.96C51.5901 18.3467 51.4834 18.7867 51.4834 19.28C51.4834 19.76 51.5968 20.1933 51.8234 20.58C52.0501 20.9667 52.3568 21.2733 52.7434 21.5C53.1434 21.7267 53.5901 21.84 54.0834 21.84ZM65.1902 24.18C64.5768 24.18 63.9968 24.0533 63.4502 23.8C62.9035 23.5467 62.4235 23.2 62.0102 22.76C61.5968 22.3067 61.2702 21.78 61.0302 21.18C60.7902 20.5667 60.6702 19.9133 60.6702 19.22C60.6702 18.5533 60.7902 17.9267 61.0302 17.34C61.2702 16.74 61.5968 16.22 62.0102 15.78C62.4368 15.3267 62.9235 14.9733 63.4702 14.72C64.0168 14.4667 64.5902 14.34 65.1902 14.34C65.8302 14.34 66.4035 14.4667 66.9102 14.72C67.4168 14.9733 67.8435 15.3267 68.1902 15.78C68.5502 16.22 68.8235 16.74 69.0102 17.34C69.1968 17.9267 69.2968 18.56 69.3102 19.24C69.3102 19.92 69.2168 20.56 69.0302 21.16C68.8568 21.7467 68.5902 22.2667 68.2302 22.72C67.8835 23.1733 67.4502 23.5333 66.9302 23.8C66.4235 24.0533 65.8435 24.18 65.1902 24.18ZM65.5102 21.84C65.9768 21.84 66.3902 21.7333 66.7502 21.52C67.1235 21.2933 67.4168 20.9867 67.6302 20.6C67.8568 20.2133 67.9702 19.7733 67.9702 19.28C67.9702 18.7733 67.8568 18.3267 67.6302 17.94C67.4168 17.5533 67.1235 17.2467 66.7502 17.02C66.3902 16.7933 65.9768 16.68 65.5102 16.68C65.0435 16.68 64.6235 16.7933 64.2502 17.02C63.8768 17.2333 63.5768 17.54 63.3502 17.94C63.1368 18.3267 63.0302 18.7733 63.0302 19.28C63.0302 19.7733 63.1368 20.2133 63.3502 20.6C63.5768 20.9867 63.8768 21.2933 64.2502 21.52C64.6368 21.7333 65.0568 21.84 65.5102 21.84ZM69.2102 24.18C68.8368 24.18 68.5635 24.12 68.3902 24C68.2168 23.8667 68.1035 23.66 68.0502 23.38V11.06C68.0502 10.8333 68.0635 10.6333 68.0902 10.46C68.1302 10.2733 68.2302 10.1267 68.3902 10.02C68.5635 9.9 68.8302 9.84 69.1902 9.84C69.5768 9.84 69.8502 9.89333 70.0102 10C70.1702 10.1067 70.2702 10.2533 70.3102 10.44C70.3635 10.6133 70.3902 10.8133 70.3902 11.04V22.96C70.3902 23.1867 70.3702 23.3933 70.3302 23.58C70.2902 23.7667 70.1835 23.9133 70.0102 24.02C69.8502 24.1267 69.5835 24.18 69.2102 24.18ZM77.2141 24.32C76.3474 24.32 75.5874 24.18 74.9341 23.9C74.2941 23.62 73.7541 23.24 73.3141 22.76C72.8874 22.2667 72.5607 21.72 72.3341 21.12C72.1207 20.5067 72.0141 19.8733 72.0141 19.22C72.0141 18.26 72.2341 17.4067 72.6741 16.66C73.1141 15.9133 73.7207 15.3267 74.4941 14.9C75.2807 14.4733 76.1807 14.26 77.1941 14.26C77.9141 14.26 78.5474 14.3733 79.0941 14.6C79.6407 14.8267 80.0941 15.1267 80.4541 15.5C80.8274 15.86 81.1074 16.26 81.2941 16.7C81.4941 17.14 81.5941 17.5667 81.5941 17.98C81.5941 18.6867 81.4207 19.2 81.0741 19.52C80.7407 19.84 80.3207 20 79.8141 20H74.5341C74.5474 20.4533 74.6874 20.8467 74.9541 21.18C75.2341 21.5133 75.5807 21.7733 75.9941 21.96C76.4207 22.1333 76.8541 22.22 77.2941 22.22C77.6274 22.22 77.9207 22.2 78.1741 22.16C78.4407 22.12 78.6674 22.0733 78.8541 22.02C79.0407 21.9533 79.2007 21.8867 79.3341 21.82C79.4807 21.7533 79.6141 21.6933 79.7341 21.64C79.8541 21.5867 79.9674 21.5533 80.0741 21.54C80.2207 21.5267 80.3674 21.56 80.5141 21.64C80.6607 21.72 80.7807 21.86 80.8741 22.06C80.9541 22.1933 81.0074 22.32 81.0341 22.44C81.0741 22.5467 81.0941 22.6533 81.0941 22.76C81.0941 23.0267 80.9341 23.28 80.6141 23.52C80.2941 23.7467 79.8407 23.9333 79.2541 24.08C78.6807 24.24 78.0007 24.32 77.2141 24.32ZM74.5341 18.58H78.6341C78.8607 18.58 79.0341 18.5467 79.1541 18.48C79.2741 18.4 79.3341 18.24 79.3341 18C79.3341 17.6933 79.2407 17.42 79.0541 17.18C78.8674 16.9267 78.6141 16.7333 78.2941 16.6C77.9741 16.4533 77.6007 16.38 77.1741 16.38C76.6807 16.38 76.2341 16.48 75.8341 16.68C75.4341 16.8667 75.1141 17.1267 74.8741 17.46C74.6474 17.7933 74.5341 18.1667 74.5341 18.58ZM84.3953 24.18C84.0353 24.18 83.7686 24.1267 83.5953 24.02C83.4353 23.9133 83.3353 23.7667 83.2953 23.58C83.2553 23.3933 83.2353 23.1933 83.2353 22.98V15.5C83.2353 15.2867 83.2553 15.0933 83.2953 14.92C83.3353 14.7467 83.442 14.6067 83.6153 14.5C83.7886 14.3933 84.062 14.34 84.4353 14.34C84.822 14.34 85.102 14.42 85.2753 14.58C85.462 14.74 85.5553 14.9933 85.5553 15.34L85.3753 15.9C85.442 15.7533 85.5553 15.5933 85.7153 15.42C85.8753 15.2467 86.0686 15.0733 86.2953 14.9C86.5353 14.7267 86.802 14.5867 87.0953 14.48C87.3886 14.3733 87.6953 14.32 88.0153 14.32C88.4553 14.32 88.8553 14.3933 89.2153 14.54C89.5886 14.6867 89.9153 14.9 90.1953 15.18C90.4886 15.46 90.742 15.8 90.9553 16.2C91.182 15.8533 91.4353 15.54 91.7153 15.26C91.9953 14.9667 92.322 14.74 92.6953 14.58C93.0686 14.4067 93.4886 14.32 93.9553 14.32C94.7286 14.32 95.3753 14.5133 95.8953 14.9C96.4286 15.2867 96.8286 15.84 97.0953 16.56C97.3753 17.2667 97.5153 18.1133 97.5153 19.1V22.98C97.5153 23.2067 97.4886 23.4133 97.4353 23.6C97.3953 23.7733 97.2886 23.9133 97.1153 24.02C96.9553 24.1267 96.6886 24.18 96.3153 24.18C95.942 24.18 95.6686 24.12 95.4953 24C95.322 23.8933 95.2153 23.7533 95.1753 23.58C95.1353 23.3933 95.1153 23.1867 95.1153 22.96V19.08C95.1153 18.5867 95.0553 18.16 94.9353 17.8C94.8153 17.44 94.6353 17.16 94.3953 16.96C94.1686 16.76 93.8686 16.66 93.4953 16.66C93.0953 16.66 92.7486 16.76 92.4553 16.96C92.1753 17.1467 91.9553 17.42 91.7953 17.78C91.6353 18.14 91.5553 18.58 91.5553 19.1V23C91.5553 23.2267 91.522 23.44 91.4553 23.64C91.3886 23.8267 91.2553 23.9667 91.0553 24.06C90.8686 24.1667 90.5953 24.2067 90.2353 24.18C89.902 24.1667 89.6553 24.1 89.4953 23.98C89.3486 23.86 89.2553 23.7133 89.2153 23.54C89.1886 23.3533 89.1753 23.16 89.1753 22.96V19.08C89.1753 18.5867 89.1153 18.16 88.9953 17.8C88.8753 17.4267 88.6953 17.1467 88.4553 16.96C88.2286 16.76 87.922 16.66 87.5353 16.66C87.122 16.66 86.7686 16.7667 86.4753 16.98C86.1953 17.1933 85.982 17.48 85.8353 17.84C85.6886 18.2 85.6153 18.6133 85.6153 19.08V23C85.6153 23.2133 85.5886 23.4133 85.5353 23.6C85.4953 23.7867 85.3886 23.9267 85.2153 24.02C85.0553 24.1267 84.782 24.18 84.3953 24.18ZM101.399 28.14C100.972 27.9533 100.726 27.74 100.659 27.5C100.592 27.2733 100.652 26.9667 100.839 26.58L105.999 15.02C106.186 14.5933 106.386 14.34 106.599 14.26C106.812 14.1667 107.139 14.2133 107.579 14.4C107.992 14.5867 108.232 14.7933 108.299 15.02C108.379 15.2467 108.332 15.5533 108.159 15.94L102.959 27.56C102.786 27.9867 102.592 28.2333 102.379 28.3C102.166 28.38 101.839 28.3267 101.399 28.14ZM103.259 23.24L98.6389 16.14C98.3989 15.78 98.2989 15.48 98.3389 15.24C98.3922 15 98.6056 14.7667 98.9789 14.54C99.3922 14.2867 99.7122 14.1867 99.9389 14.24C100.179 14.2933 100.419 14.5067 100.659 14.88L104.319 20.58L103.259 23.24Z" fill="#ED7424"/>
<rect x="16.6791" y="27.0979" width="9" height="27.9176" rx="4.5" transform="rotate(-143.162 16.6791 27.0979)" fill="#ED7424" stroke="#ED7424"/>
<rect x="-0.163552" y="0.687932" width="9" height="15.3978" rx="4.5" transform="matrix(0.851484 -0.52438 -0.52438 -0.851484 7.88637 17.6425)" fill="#ED7424" stroke="#ED7424"/>
</svg>
