<svg width="40" height="40" viewBox="0 0 40 40" fill="none" xmlns="http://www.w3.org/2000/svg">
<g clip-path="url(#clip0_8252_52855)">
<rect width="40" height="40" rx="4" fill="#FFF9F4"/>
<g clip-path="url(#clip1_8252_52855)">
<path fill-rule="evenodd" clip-rule="evenodd" d="M18.4162 21.5968C18.7328 21.4584 19.1012 21.6026 19.2395 21.9184C19.3778 22.2351 19.2337 22.6034 18.9178 22.7418C18.2278 23.0434 17.467 23.2109 16.667 23.2109C13.5628 23.2109 11.042 20.6901 11.042 17.5859C11.042 14.4818 13.5628 11.9609 16.667 11.9609C19.7712 11.9609 22.292 14.4818 22.292 17.5859C22.292 18.3859 22.1245 19.1468 21.8228 19.8368C21.6845 20.1526 21.3162 20.2968 20.9995 20.1584C20.6837 20.0201 20.5395 19.6518 20.6778 19.3351C20.912 18.7993 21.042 18.2076 21.042 17.5859C21.042 15.1709 19.082 13.2109 16.667 13.2109C14.252 13.2109 12.292 15.1709 12.292 17.5859C12.292 20.0009 14.252 21.9609 16.667 21.9609C17.2887 21.9609 17.8803 21.8309 18.4162 21.5968Z" fill="#F6B97B"/>
<path fill-rule="evenodd" clip-rule="evenodd" d="M23.3335 18.6289C26.4377 18.6289 28.9585 21.1497 28.9585 24.2539C28.9585 27.3581 26.4377 29.8789 23.3335 29.8789C20.2293 29.8789 17.7085 27.3581 17.7085 24.2539C17.7085 21.1497 20.2293 18.6289 23.3335 18.6289ZM23.3335 19.8789C20.9185 19.8789 18.9585 21.8389 18.9585 24.2539C18.9585 26.6689 20.9185 28.6289 23.3335 28.6289C25.7485 28.6289 27.7085 26.6689 27.7085 24.2539C27.7085 21.8389 25.7485 19.8789 23.3335 19.8789Z" fill="#F6B97B"/>
<path fill-rule="evenodd" clip-rule="evenodd" d="M13.9751 18.0274C13.731 17.7841 13.731 17.3874 13.9751 17.1441C14.2185 16.8999 14.6151 16.8999 14.8585 17.1441L15.9168 18.2016L18.4751 15.6441C18.7185 15.3999 19.1151 15.3999 19.3584 15.6441C19.6026 15.8874 19.6026 16.2841 19.3584 16.5274L16.3585 19.5274C16.1143 19.7716 15.7193 19.7716 15.4751 19.5274L13.9751 18.0274Z" fill="#F6B97B"/>
<path fill-rule="evenodd" clip-rule="evenodd" d="M22.2754 26.1915C22.0321 26.4356 21.6354 26.4356 21.3921 26.1915C21.1479 25.9481 21.1479 25.5515 21.3921 25.3081L24.3921 22.3081C24.6354 22.064 25.0321 22.064 25.2754 22.3081C25.5196 22.5515 25.5196 22.9481 25.2754 23.1915L22.2754 26.1915Z" fill="#F6B97B"/>
<path fill-rule="evenodd" clip-rule="evenodd" d="M25.2754 25.3081C25.5196 25.5515 25.5196 25.9481 25.2754 26.1915C25.0321 26.4356 24.6354 26.4356 24.3921 26.1915L21.3921 23.1915C21.1479 22.9481 21.1479 22.5515 21.3921 22.3081C21.6354 22.064 22.0321 22.064 22.2754 22.3081L25.2754 25.3081Z" fill="#F6B97B"/>
</g>
<path d="M7.77539 4.50586C7.36523 4.50586 6.99805 4.58008 6.67383 4.72852C6.35352 4.87695 6.08203 5.0918 5.85938 5.37305C5.63672 5.65039 5.4668 5.98828 5.34961 6.38672C5.23242 6.78125 5.17383 7.22656 5.17383 7.72266C5.17383 8.38672 5.26758 8.95898 5.45508 9.43945C5.64258 9.91602 5.92773 10.2832 6.31055 10.541C6.69336 10.7949 7.17773 10.9219 7.76367 10.9219C8.12695 10.9219 8.48047 10.8867 8.82422 10.8164C9.16797 10.7461 9.52344 10.6504 9.89062 10.5293V11.7246C9.54297 11.8613 9.19141 11.9609 8.83594 12.0234C8.48047 12.0859 8.07031 12.1172 7.60547 12.1172C6.73047 12.1172 6.00391 11.9355 5.42578 11.5723C4.85156 11.209 4.42188 10.6973 4.13672 10.0371C3.85547 9.37695 3.71484 8.60352 3.71484 7.7168C3.71484 7.06836 3.80469 6.47461 3.98438 5.93555C4.16406 5.39648 4.42578 4.93164 4.76953 4.54102C5.11328 4.14648 5.53711 3.84375 6.04102 3.63281C6.54883 3.41797 7.12891 3.31055 7.78125 3.31055C8.21094 3.31055 8.63281 3.35938 9.04688 3.45703C9.46484 3.55078 9.85156 3.68555 10.207 3.86133L9.71484 5.02148C9.41797 4.88086 9.10742 4.75977 8.7832 4.6582C8.45898 4.55664 8.12305 4.50586 7.77539 4.50586Z" fill="#F6B97B"/>
</g>
<rect x="0.5" y="0.5" width="39" height="39" rx="3.5" stroke="#FDEDD7"/>
<defs>
<clipPath id="clip0_8252_52855">
<rect width="40" height="40" rx="4" fill="white"/>
</clipPath>
<clipPath id="clip1_8252_52855">
<rect width="20" height="19.1667" fill="white" transform="translate(10 10.918)"/>
</clipPath>
</defs>
</svg>
