<svg width="200" height="200" viewBox="0 0 200 200" fill="none" xmlns="http://www.w3.org/2000/svg">
<g id="12085879_20944363 3" clip-path="url(#clip0_5453_32488)">
<g id="Illustration">
<g id="Group">
<path id="Vector" d="M165.411 124.502C150.747 158.776 112.041 173.497 81.7139 170.987C73.4333 170.302 56.7727 168.923 43.7639 156.621C18.7816 132.996 22.6291 83.6127 46.5444 54.5387C49.6242 50.7946 70.9421 25.7093 104.162 26.045C128.484 26.2909 145.555 40.03 147.631 41.7416C150.253 43.9038 156.037 49.042 161.25 57.1934C173.497 76.3464 174.574 103.084 165.411 124.502Z" fill="#FFF9F4"/>
<g id="Group_2">
<g id="Group_3">
<path id="Vector_2" d="M141.562 159.591C141.562 159.591 130.348 125.089 133.44 107.612C136.199 92.0141 141.556 70.3221 142.677 65.8365C142.753 65.5295 143.166 65.4727 143.322 65.748C145.875 70.253 158.439 94.7607 149.014 125.797C138.564 160.205 141.562 159.591 141.562 159.591Z" fill="#FDEDD7"/>
<path id="Vector_3" opacity="0.43" d="M144.527 77.0066C144.63 82.1506 144.486 87.2896 144.202 92.4226C143.916 97.555 143.448 102.678 142.791 107.778C142.455 110.327 142.065 112.869 141.625 115.403C141.174 117.936 140.658 120.457 140.083 122.965C139.487 125.468 138.826 127.957 138.075 130.42C137.305 132.878 136.448 135.309 135.477 137.697C135.419 137.841 135.255 137.91 135.112 137.851C134.968 137.793 134.899 137.63 134.958 137.486L134.958 137.485L134.959 137.482C135.933 135.116 136.796 132.704 137.572 130.264C138.329 127.817 138.998 125.342 139.603 122.851C140.187 120.355 140.712 117.845 141.172 115.323C141.622 112.798 142.022 110.264 142.368 107.722C143.046 102.636 143.536 97.5247 143.844 92.4016C144.149 87.2797 144.315 82.1427 144.235 77.015V77.0119C144.234 76.9313 144.298 76.8648 144.379 76.8636C144.459 76.8623 144.526 76.926 144.527 77.0066Z" fill="white"/>
</g>
<g id="Group_4">
<path id="Vector_4" d="M138.986 167.066C138.986 167.066 141.137 130.852 150.393 115.708C158.655 102.193 171.559 83.9517 174.239 80.1844C174.422 79.9265 174.827 80.0241 174.872 80.3373C175.605 85.4633 178.359 112.866 158.257 138.322C135.971 166.543 138.986 167.066 138.986 167.066Z" fill="#FAD6AE"/>
<path id="Vector_5" opacity="0.43" d="M171.885 91.2593C170.104 96.086 168.094 100.818 165.957 105.494C163.817 110.168 161.513 114.767 159.039 119.275C157.796 121.526 156.505 123.75 155.171 125.949C153.827 128.142 152.427 130.301 150.976 132.426C149.508 134.539 147.984 136.615 146.386 138.634C144.772 140.642 143.087 142.592 141.311 144.462C141.204 144.574 141.027 144.578 140.915 144.472C140.802 144.365 140.798 144.188 140.905 144.076L140.905 144.075L140.907 144.072C142.678 142.225 144.361 140.294 145.974 138.305C147.573 136.303 149.098 134.244 150.57 132.145C152.024 130.034 153.429 127.889 154.779 125.708C156.119 123.522 157.416 121.309 158.666 119.068C161.153 114.581 163.474 110 165.631 105.343C167.784 100.686 169.814 95.9638 171.61 91.1604L171.611 91.1575C171.64 91.082 171.724 91.0436 171.799 91.0718C171.875 91.1002 171.913 91.1837 171.885 91.2593Z" fill="white"/>
</g>
</g>
<g id="Group_5">
<g id="Group_6">
<path id="Vector_6" d="M24.647 75.0156C27.9888 84.614 49.1335 139.594 90.9457 126.561C90.9457 126.561 83.933 86.3385 25.3111 73.8435C24.7983 73.7342 24.4287 74.3886 24.647 75.0156Z" fill="#FAD6AE"/>
<path id="Vector_7" opacity="0.43" d="M31.7916 80.3747C33.5821 82.8152 35.4678 85.1912 37.3907 87.532C39.3173 89.8707 41.2945 92.1676 43.3216 94.4195C47.3768 98.9211 51.6292 103.248 56.1322 107.298C60.6371 111.341 65.3928 115.123 70.5122 118.344C71.794 119.145 73.0937 119.917 74.4228 120.634C75.7524 121.35 77.1052 122.022 78.4829 122.636C81.2398 123.858 84.1072 124.839 87.0547 125.441L87.0566 125.441C87.2083 125.472 87.3062 125.621 87.2752 125.772C87.2442 125.924 87.096 126.022 86.9444 125.991L86.9432 125.99C83.9487 125.365 81.05 124.358 78.2709 123.111C76.8822 122.484 75.5205 121.801 74.1838 121.073C72.8476 120.344 71.5424 119.561 70.2562 118.75C65.1199 115.486 60.3644 111.669 55.8649 107.595C51.3673 103.513 47.1263 99.1586 43.0846 94.6318C41.0644 92.3675 39.0947 90.0585 37.1758 87.7081C35.2601 85.3547 33.3847 82.9703 31.5986 80.5131C31.5601 80.46 31.5718 80.3858 31.6249 80.3472C31.6779 80.3087 31.7522 80.3204 31.7907 80.3735L31.7916 80.3747Z" fill="white"/>
</g>
<g id="Group_7">
<path id="Vector_8" d="M56.2555 25.3794C56.385 24.5256 57.1823 24.6925 57.8598 25.2279C94.9557 54.5425 109.556 109.578 99.964 125.385C99.964 125.385 42.1581 118.412 56.2555 25.3794Z" fill="#FDEDD7"/>
<path id="Vector_9" opacity="0.43" d="M58.7848 36.7178C58.8211 36.9248 58.8777 37.1564 58.9271 37.3786L59.0888 38.05L59.427 39.3899C59.6576 40.282 59.8978 41.1718 60.1403 42.0609C60.6305 43.8377 61.1429 45.6084 61.6714 47.3741C62.7242 50.9067 63.8436 54.4193 65.0311 57.9085C67.4176 64.882 70.0245 71.7822 72.9779 78.5335C74.4675 81.9025 75.9904 85.2579 77.6446 88.5493C77.8445 88.9642 78.0544 89.3739 78.2673 89.7822L78.9012 91.0093L79.535 92.2365C79.7494 92.6439 79.9736 93.0459 80.1924 93.4509C80.6355 94.2579 81.0665 95.0719 81.5194 95.8733L82.8934 98.2692C83.0083 98.4686 83.1197 98.6701 83.2376 98.8678L83.5951 99.4584L84.3102 100.64L85.0252 101.821C85.2684 102.212 85.522 102.596 85.7699 102.984L86.5176 104.145C86.77 104.53 87.0083 104.924 87.2748 105.3L88.84 107.575C90.9651 110.582 93.2339 113.487 95.6653 116.257L95.666 116.258C95.6992 116.296 95.6954 116.354 95.6576 116.387C95.6204 116.419 95.564 116.416 95.5305 116.38C93.0267 113.664 90.7142 110.776 88.5329 107.794L86.9391 105.527C86.6679 105.153 86.425 104.76 86.1677 104.376L85.4057 103.219C85.153 102.832 84.8946 102.449 84.6466 102.06L83.9172 100.882L83.1877 99.7038L82.8228 99.1147C82.7027 98.9176 82.5888 98.7167 82.4715 98.5177C78.7149 92.1533 75.416 85.5271 72.4727 78.7535L71.3821 76.2074L70.3302 73.6453C69.9736 72.7936 69.6473 71.93 69.3051 71.0726L68.7974 69.7843L68.3068 68.4895C66.9926 65.0391 65.7492 61.5616 64.5966 58.0544C63.441 54.5483 62.3401 51.0241 61.3315 47.4733C60.8296 45.6972 60.3442 43.9165 59.881 42.1301C59.652 41.2362 59.4253 40.3416 59.2083 39.4446L58.8902 38.097L58.7386 37.4211C58.6923 37.1923 58.6396 36.9756 58.6026 36.7272C58.5952 36.6777 58.6293 36.6317 58.6787 36.6244C58.7273 36.6171 58.7726 36.65 58.7812 36.6981L58.7848 36.7178Z" fill="white"/>
</g>
</g>
<g id="Group_8">
<g id="Group_9">
<g id="Group_10">
<path id="Vector_10" d="M48.5986 170.678L154.552 170.678V149.471L48.5986 149.471C50.8665 149.471 50.8665 170.678 48.5986 170.678Z" fill="#FDEDD7"/>
<path id="Vector_11" d="M154.552 165.371V155.666C154.552 152.245 152.458 149.471 149.876 149.471H49.0452C47.014 149.471 45.3674 147.825 45.3674 145.793C45.3674 145.176 45.8678 144.676 46.4848 144.676H156.685C159.212 144.676 163.224 148.649 163.224 153.551V167.105C163.224 171.726 159.329 175.473 156.946 175.473H47.0646C46.1273 175.473 45.3674 174.713 45.3674 173.775C45.3674 172.065 46.7544 170.678 48.4653 170.678H150.546C152.759 170.678 154.552 168.302 154.552 165.371Z" fill="#F19146"/>
</g>
<path id="Vector_12" d="M151.614 154.005H52.2675C52.1668 154.005 52.0852 153.923 52.0852 153.822C52.0852 153.722 52.1668 153.64 52.2675 153.64H151.614C151.714 153.64 151.796 153.722 151.796 153.822C151.796 153.923 151.714 154.005 151.614 154.005Z" fill="#FFF9F4"/>
<path id="Vector_13" d="M151.614 157.152H52.2675C52.1668 157.152 52.0852 157.071 52.0852 156.97C52.0852 156.869 52.1668 156.788 52.2675 156.788H151.614C151.714 156.788 151.796 156.869 151.796 156.97C151.796 157.071 151.714 157.152 151.614 157.152Z" fill="#FFF9F4"/>
<path id="Vector_14" d="M151.614 160.3H52.2675C52.1668 160.3 52.0852 160.218 52.0852 160.118C52.0852 160.017 52.1668 159.935 52.2675 159.935H151.614C151.714 159.935 151.796 160.017 151.796 160.118C151.796 160.218 151.714 160.3 151.614 160.3Z" fill="#FFF9F4"/>
<path id="Vector_15" d="M151.614 163.448H52.2675C52.1668 163.448 52.0852 163.366 52.0852 163.265C52.0852 163.165 52.1668 163.083 52.2675 163.083H151.614C151.714 163.083 151.796 163.165 151.796 163.265C151.796 163.366 151.714 163.448 151.614 163.448Z" fill="#FFF9F4"/>
<path id="Vector_16" d="M151.614 166.596H52.2675C52.1668 166.596 52.0852 166.514 52.0852 166.413C52.0852 166.313 52.1668 166.231 52.2675 166.231H151.614C151.714 166.231 151.796 166.313 151.796 166.413C151.796 166.514 151.714 166.596 151.614 166.596Z" fill="#FFF9F4"/>
</g>
<g id="Group_11">
<path id="Vector_17" d="M62.7278 144.579H150.738C152.762 144.579 154.402 142.939 154.402 140.915V125.23C154.402 123.206 152.762 121.566 150.738 121.566H62.7278C60.7043 121.566 59.064 123.206 59.064 125.23V140.915C59.064 142.939 60.7044 144.579 62.7278 144.579Z" fill="#FAD6AE"/>
<path id="Vector_18" d="M132.818 141.934H143.237C143.453 141.934 143.628 141.76 143.628 141.544V124.601C143.628 124.386 143.453 124.211 143.237 124.211H132.818C132.602 124.211 132.427 124.386 132.427 124.601V141.544C132.427 141.76 132.602 141.934 132.818 141.934Z" fill="#FDEDD7"/>
<path id="Vector_19" d="M126.775 141.934H130.582C130.691 141.934 130.78 141.846 130.78 141.737V124.409C130.78 124.3 130.691 124.211 130.582 124.211H126.775C126.666 124.211 126.578 124.3 126.578 124.409V141.736C126.578 141.846 126.666 141.934 126.775 141.934Z" fill="#FDEDD7"/>
</g>
<g id="Group_12">
<path id="Vector_20" d="M53.3509 121.688H161.536C162.135 121.688 162.62 121.203 162.62 120.605V102.73C162.62 102.132 162.135 101.647 161.536 101.647H53.3509C52.7526 101.647 52.2676 102.132 52.2676 102.73V120.605C52.2676 121.203 52.7525 121.688 53.3509 121.688Z" fill="#F19146"/>
<path id="Vector_21" d="M138.505 118.839H148.828C149.557 118.839 150.148 118.248 150.148 117.518V106.662C150.148 105.933 149.557 105.342 148.828 105.342H138.505C137.776 105.342 137.185 105.933 137.185 106.662V117.518C137.185 118.248 137.776 118.839 138.505 118.839Z" fill="#FAD6AE"/>
<path id="Vector_22" d="M131.643 118.839H135.17C135.539 118.839 135.839 118.539 135.839 118.17V106.011C135.839 105.642 135.539 105.342 135.17 105.342H131.643C131.274 105.342 130.974 105.642 130.974 106.011V118.17C130.974 118.539 131.274 118.839 131.643 118.839Z" fill="#FAD6AE"/>
<path id="Vector_23" d="M152.122 118.287H154.431C154.8 118.287 155.1 117.987 155.1 117.618V105.459C155.1 105.089 154.8 104.79 154.431 104.79H152.122C151.752 104.79 151.453 105.089 151.453 105.459V117.618C151.453 117.987 151.752 118.287 152.122 118.287Z" fill="#FAD6AE"/>
</g>
</g>
<g id="Group_13">
<path id="Vector_24" d="M142.428 64.0581C153.344 64.0581 162.192 55.2092 162.192 44.2937C162.192 33.3781 153.344 24.5292 142.428 24.5292C131.512 24.5292 122.664 33.3781 122.664 44.2937C122.664 55.2092 131.512 64.0581 142.428 64.0581Z" fill="#FAD6AE"/>
<path id="Vector_25" d="M126.873 54.311C126.812 54.311 126.753 54.2811 126.719 54.2262C124.838 51.2589 123.844 47.8243 123.844 44.2937C123.844 34.0466 132.181 25.71 142.428 25.71C142.6 25.71 142.77 25.7118 142.941 25.7172C143.743 25.739 144.551 25.813 145.341 25.9373C145.44 25.953 145.508 26.0462 145.492 26.1458C145.477 26.2452 145.384 26.3131 145.284 26.2975C144.51 26.1756 143.718 26.1031 142.93 26.0817C142.763 26.0765 142.596 26.0747 142.428 26.0747C132.382 26.0747 124.209 34.2478 124.209 44.2937C124.209 47.7551 125.183 51.1223 127.027 54.0312C127.08 54.1162 127.055 54.2288 126.97 54.2827C126.94 54.3018 126.906 54.311 126.873 54.311Z" fill="#FAD6AE"/>
<path id="Vector_26" d="M141.25 62.8403C141.246 62.8403 141.243 62.8402 141.239 62.8399C138.131 62.6434 135.102 61.658 132.479 59.99C131.587 59.4245 130.738 58.7775 129.953 58.067C129.879 57.9994 129.873 57.8842 129.941 57.8094C130.008 57.7348 130.123 57.7291 130.198 57.7967C130.967 58.4934 131.8 59.1277 132.674 59.6822C135.245 61.3174 138.215 62.2834 141.262 62.476C141.362 62.4823 141.439 62.5689 141.432 62.6694C141.426 62.766 141.346 62.8403 141.25 62.8403Z" fill="#FAD6AE"/>
<path id="Vector_27" d="M157.806 34.3657C157.746 34.3657 157.688 34.3368 157.653 34.2837C156.193 32.067 154.227 30.1599 151.967 28.7688C151.882 28.716 151.855 28.6037 151.908 28.5179C151.961 28.4322 152.073 28.4053 152.159 28.4583C154.463 29.8772 156.468 31.8223 157.958 34.083C158.013 34.1672 157.99 34.2802 157.906 34.3356C157.875 34.356 157.84 34.3657 157.806 34.3657Z" fill="#FAD6AE"/>
<g id="Group_14">
<path id="Vector_28" d="M142.428 35.8381L125.902 40.8754L142.428 45.9126L158.954 40.8754L142.428 35.8381Z" fill="white"/>
<path id="Vector_29" d="M142.428 47.6786L132.027 44.5082V51.7506C132.027 52.9393 132.858 53.9674 134.021 54.214C139.607 55.3982 144.978 55.435 150.12 54.2527C151.26 53.9908 152.063 52.9701 152.063 51.8012V44.7418L142.428 47.6786Z" fill="white"/>
<path id="Vector_30" d="M129.73 50.6827C128.826 51.0841 128.036 51.0925 127.359 50.708C127.161 50.5955 127.063 50.3644 127.108 50.1412L128.579 42.8279L130.039 50.0859C130.088 50.3325 129.96 50.5806 129.73 50.6827Z" fill="white"/>
<path id="Vector_31" d="M142.428 40.1292L128.365 41.6235V44.0631H128.782L128.824 41.9251L142.428 40.1292Z" fill="white"/>
</g>
</g>
</g>
</g>
</g>
<defs>
<clipPath id="clip0_5453_32488">
<rect width="200" height="200" fill="white"/>
</clipPath>
</defs>
</svg>
