<svg width="40" height="40" viewBox="0 0 40 40" fill="none" xmlns="http://www.w3.org/2000/svg">
<rect x="0.5" y="0.5" width="39" height="39" rx="3.5" fill="#FFF9F4"/>
<rect x="0.5" y="0.5" width="39" height="39" rx="3.5" stroke="#FDEDD7"/>
<g clip-path="url(#clip0_8345_47596)">
<path d="M26.24 12.8008H13.76C13.364 12.8008 13.04 13.1248 13.04 13.5208C13.04 13.9168 13.364 14.2408 13.76 14.2408H26.24C26.636 14.2408 26.96 13.9168 26.96 13.5208C26.96 13.1248 26.636 12.8008 26.24 12.8008Z" fill="#F6B97B"/>
<path d="M26.24 17.1211H13.76C13.364 17.1211 13.04 17.4451 13.04 17.8411C13.04 18.2371 13.364 18.5611 13.76 18.5611H26.24C26.636 18.5611 26.96 18.2371 26.96 17.8411C26.96 17.4451 26.636 17.1211 26.24 17.1211Z" fill="#F6B97B"/>
<path d="M26.24 21.4414H13.76C13.364 21.4414 13.04 21.7654 13.04 22.1614C13.04 22.5574 13.364 22.8814 13.76 22.8814H26.24C26.636 22.8814 26.96 22.5574 26.96 22.1614C26.96 21.7654 26.636 21.4414 26.24 21.4414Z" fill="#F6B97B"/>
<path d="M20 25.7617H13.76C13.364 25.7617 13.04 26.0857 13.04 26.4817C13.04 26.8777 13.364 27.2017 13.76 27.2017H20C20.396 27.2017 20.72 26.8777 20.72 26.4817C20.72 26.0857 20.396 25.7617 20 25.7617Z" fill="#F6B97B"/>
<path d="M23.8401 27.2017C24.2378 27.2017 24.5601 26.8794 24.5601 26.4817C24.5601 26.0841 24.2378 25.7617 23.8401 25.7617C23.4425 25.7617 23.1201 26.0841 23.1201 26.4817C23.1201 26.8794 23.4425 27.2017 23.8401 27.2017Z" fill="#F6B97B"/>
</g>
<defs>
<clipPath id="clip0_8345_47596">
<rect width="24" height="24" fill="white" transform="translate(8 8)"/>
</clipPath>
</defs>
</svg>
