<svg width="40" height="40" viewBox="0 0 40 40" fill="none" xmlns="http://www.w3.org/2000/svg">
<rect x="0.5" y="0.5" width="39" height="39" rx="3.5" fill="#FFF9F4"/>
<rect x="0.5" y="0.5" width="39" height="39" rx="3.5" stroke="#FDEDD7"/>
<g clip-path="url(#clip0_8252_52755)">
<path fill-rule="evenodd" clip-rule="evenodd" d="M18.099 21.813C18.479 21.647 18.921 21.82 19.087 22.199C19.253 22.579 19.08 23.021 18.701 23.187C17.873 23.549 16.96 23.75 16 23.75C12.275 23.75 9.25 20.725 9.25 17C9.25 13.275 12.275 10.25 16 10.25C19.725 10.25 22.75 13.275 22.75 17C22.75 17.96 22.549 18.873 22.187 19.701C22.021 20.08 21.579 20.253 21.199 20.087C20.82 19.921 20.647 19.479 20.813 19.099C21.094 18.456 21.25 17.746 21.25 17C21.25 14.102 18.898 11.75 16 11.75C13.102 11.75 10.75 14.102 10.75 17C10.75 19.898 13.102 22.25 16 22.25C16.746 22.25 17.456 22.094 18.099 21.813Z" fill="#F6B97B"/>
<path fill-rule="evenodd" clip-rule="evenodd" d="M24 18.25C27.725 18.25 30.75 21.275 30.75 25C30.75 28.725 27.725 31.75 24 31.75C20.275 31.75 17.25 28.725 17.25 25C17.25 21.275 20.275 18.25 24 18.25ZM24 19.75C21.102 19.75 18.75 22.102 18.75 25C18.75 27.898 21.102 30.25 24 30.25C26.898 30.25 29.25 27.898 29.25 25C29.25 22.102 26.898 19.75 24 19.75Z" fill="#F6B97B"/>
<path fill-rule="evenodd" clip-rule="evenodd" d="M12.77 17.529C12.477 17.237 12.477 16.761 12.77 16.469C13.062 16.176 13.538 16.176 13.83 16.469L15.1 17.738L18.17 14.669C18.462 14.376 18.938 14.376 19.23 14.669C19.523 14.961 19.523 15.437 19.23 15.729L15.63 19.329C15.337 19.622 14.863 19.622 14.57 19.329L12.77 17.529Z" fill="#F6B97B"/>
<path fill-rule="evenodd" clip-rule="evenodd" d="M22.7299 27.329C22.4379 27.622 21.9619 27.622 21.6699 27.329C21.3769 27.037 21.3769 26.561 21.6699 26.269L25.2699 22.669C25.5619 22.376 26.0379 22.376 26.3299 22.669C26.6229 22.961 26.6229 23.437 26.3299 23.729L22.7299 27.329Z" fill="#F6B97B"/>
<path fill-rule="evenodd" clip-rule="evenodd" d="M26.3299 26.269C26.6229 26.561 26.6229 27.037 26.3299 27.329C26.0379 27.622 25.5619 27.622 25.2699 27.329L21.6699 23.729C21.3769 23.437 21.3769 22.961 21.6699 22.669C21.9619 22.376 22.4379 22.376 22.7299 22.669L26.3299 26.269Z" fill="#F6B97B"/>
</g>
<defs>
<clipPath id="clip0_8252_52755">
<rect width="24" height="23" fill="white" transform="translate(8 9)"/>
</clipPath>
</defs>
</svg>
