<svg width="241" height="54" viewBox="0 0 241 54" fill="none" xmlns="http://www.w3.org/2000/svg">
<path d="M36.74 36.66C36.3533 36.66 36.0667 36.5867 35.88 36.44C35.6933 36.2933 35.6 36.0933 35.6 35.84L35.74 35.18C35.6333 35.3533 35.4533 35.56 35.2 35.8C34.9467 36.0267 34.6133 36.2333 34.2 36.42C33.7867 36.5933 33.2867 36.68 32.7 36.68C32.0733 36.68 31.48 36.5533 30.92 36.3C30.3733 36.0333 29.8867 35.6733 29.46 35.22C29.0467 34.7533 28.7133 34.2267 28.46 33.64C28.22 33.04 28.1 32.4 28.1 31.72C28.1 31.0667 28.22 30.4533 28.46 29.88C28.7133 29.2933 29.0533 28.7733 29.48 28.32C29.9067 27.8667 30.3933 27.5133 30.94 27.26C31.5 26.9933 32.0867 26.86 32.7 26.86C33.2467 26.86 33.7067 26.9333 34.08 27.08C34.4667 27.2267 34.7933 27.4133 35.06 27.64C35.3267 27.8533 35.5467 28.08 35.72 28.32L35.6 27.74C35.6 27.4467 35.6933 27.2267 35.88 27.08C36.0667 26.92 36.36 26.84 36.76 26.84C37.1333 26.84 37.4 26.9 37.56 27.02C37.72 27.1267 37.82 27.28 37.86 27.48C37.9 27.6667 37.92 27.88 37.92 28.12V35.44C37.92 35.6667 37.9 35.8733 37.86 36.06C37.82 36.2467 37.7133 36.3933 37.54 36.5C37.38 36.6067 37.1133 36.66 36.74 36.66ZM33.06 34.34C33.5133 34.34 33.92 34.2267 34.28 34C34.64 33.7733 34.9267 33.4667 35.14 33.08C35.3667 32.68 35.48 32.24 35.48 31.76C35.48 31.24 35.3667 30.7867 35.14 30.4C34.9133 30.0133 34.6133 29.7133 34.24 29.5C33.88 29.2733 33.4733 29.16 33.02 29.16C32.5267 29.16 32.0867 29.28 31.7 29.52C31.3133 29.7467 31.0067 30.06 30.78 30.46C30.5667 30.8467 30.46 31.2867 30.46 31.78C30.46 32.26 30.5733 32.6933 30.8 33.08C31.0267 33.4667 31.3333 33.7733 31.72 34C32.12 34.2267 32.5667 34.34 33.06 34.34ZM44.6867 36.74C44.0467 36.74 43.4201 36.6333 42.8067 36.42C42.2067 36.1933 41.6601 35.8667 41.1667 35.44C40.6867 35.0133 40.3001 34.4933 40.0067 33.88C39.7267 33.2533 39.5867 32.5467 39.5867 31.76C39.5867 30.9733 39.7267 30.2733 40.0067 29.66C40.3001 29.0467 40.6867 28.5267 41.1667 28.1C41.6467 27.6733 42.1867 27.3467 42.7867 27.12C43.3867 26.8933 44.0067 26.78 44.6467 26.78C45.1134 26.78 45.5534 26.8467 45.9667 26.98C46.3934 27.1133 46.7601 27.2733 47.0667 27.46C47.3734 27.6467 47.5934 27.8333 47.7267 28.02C47.9001 28.18 48.0467 28.3333 48.1667 28.48C48.2867 28.6267 48.3267 28.8067 48.2867 29.02C48.2467 29.1533 48.1867 29.28 48.1067 29.4C48.0267 29.5067 47.9267 29.62 47.8067 29.74C47.4867 30.1 47.1734 30.2333 46.8667 30.14C46.6934 30.0467 46.5201 29.9467 46.3467 29.84C46.1734 29.7333 45.9934 29.6333 45.8067 29.54C45.6334 29.4333 45.4534 29.3467 45.2667 29.28C45.0801 29.2133 44.8734 29.18 44.6467 29.18C44.1401 29.18 43.6867 29.2933 43.2867 29.52C42.9001 29.7333 42.5934 30.0333 42.3667 30.42C42.1534 30.8067 42.0467 31.2533 42.0467 31.76C42.0467 32.2667 42.1534 32.72 42.3667 33.12C42.5934 33.5067 42.9001 33.8133 43.2867 34.04C43.6734 34.2533 44.1134 34.36 44.6067 34.36C44.8467 34.36 45.0734 34.3333 45.2867 34.28C45.5134 34.2133 45.7134 34.1333 45.8867 34.04C46.0601 33.9333 46.2001 33.8267 46.3067 33.72C46.4534 33.6267 46.5867 33.54 46.7067 33.46C46.8267 33.38 46.9534 33.34 47.0867 33.34C47.2467 33.34 47.4001 33.4 47.5467 33.52C47.7067 33.6267 47.8801 33.8 48.0667 34.04C48.2401 34.24 48.3334 34.4333 48.3467 34.62C48.3734 34.8067 48.3334 34.9867 48.2267 35.16C48.1334 35.3333 47.9734 35.4933 47.7467 35.64C47.5867 35.8 47.3467 35.9667 47.0267 36.14C46.7201 36.3 46.3601 36.44 45.9467 36.56C45.5467 36.68 45.1267 36.74 44.6867 36.74ZM58.2634 36.66C57.8768 36.66 57.5901 36.5867 57.4034 36.44C57.2168 36.2933 57.1234 36.0933 57.1234 35.84L57.2634 35.18C57.1568 35.3533 56.9768 35.56 56.7234 35.8C56.4701 36.0267 56.1368 36.2333 55.7234 36.42C55.3101 36.5933 54.8101 36.68 54.2234 36.68C53.5968 36.68 53.0034 36.5533 52.4434 36.3C51.8968 36.0333 51.4101 35.6733 50.9834 35.22C50.5701 34.7533 50.2368 34.2267 49.9834 33.64C49.7434 33.04 49.6234 32.4 49.6234 31.72C49.6234 31.0667 49.7434 30.4533 49.9834 29.88C50.2368 29.2933 50.5768 28.7733 51.0034 28.32C51.4301 27.8667 51.9168 27.5133 52.4634 27.26C53.0234 26.9933 53.6101 26.86 54.2234 26.86C54.7701 26.86 55.2301 26.9333 55.6034 27.08C55.9901 27.2267 56.3168 27.4133 56.5834 27.64C56.8501 27.8533 57.0701 28.08 57.2434 28.32L57.1234 27.74C57.1234 27.4467 57.2168 27.2267 57.4034 27.08C57.5901 26.92 57.8834 26.84 58.2834 26.84C58.6568 26.84 58.9234 26.9 59.0834 27.02C59.2434 27.1267 59.3434 27.28 59.3834 27.48C59.4234 27.6667 59.4434 27.88 59.4434 28.12V35.44C59.4434 35.6667 59.4234 35.8733 59.3834 36.06C59.3434 36.2467 59.2368 36.3933 59.0634 36.5C58.9034 36.6067 58.6368 36.66 58.2634 36.66ZM54.5834 34.34C55.0368 34.34 55.4434 34.2267 55.8034 34C56.1634 33.7733 56.4501 33.4667 56.6634 33.08C56.8901 32.68 57.0034 32.24 57.0034 31.76C57.0034 31.24 56.8901 30.7867 56.6634 30.4C56.4368 30.0133 56.1368 29.7133 55.7634 29.5C55.4034 29.2733 54.9968 29.16 54.5434 29.16C54.0501 29.16 53.6101 29.28 53.2234 29.52C52.8368 29.7467 52.5301 30.06 52.3034 30.46C52.0901 30.8467 51.9834 31.2867 51.9834 31.78C51.9834 32.26 52.0968 32.6933 52.3234 33.08C52.5501 33.4667 52.8568 33.7733 53.2434 34C53.6434 34.2267 54.0901 34.34 54.5834 34.34ZM65.6902 36.68C65.0768 36.68 64.4968 36.5533 63.9502 36.3C63.4035 36.0467 62.9235 35.7 62.5102 35.26C62.0968 34.8067 61.7702 34.28 61.5302 33.68C61.2902 33.0667 61.1702 32.4133 61.1702 31.72C61.1702 31.0533 61.2902 30.4267 61.5302 29.84C61.7702 29.24 62.0968 28.72 62.5102 28.28C62.9368 27.8267 63.4235 27.4733 63.9702 27.22C64.5168 26.9667 65.0902 26.84 65.6902 26.84C66.3302 26.84 66.9035 26.9667 67.4102 27.22C67.9168 27.4733 68.3435 27.8267 68.6902 28.28C69.0502 28.72 69.3235 29.24 69.5102 29.84C69.6968 30.4267 69.7968 31.06 69.8102 31.74C69.8102 32.42 69.7168 33.06 69.5302 33.66C69.3568 34.2467 69.0902 34.7667 68.7302 35.22C68.3835 35.6733 67.9502 36.0333 67.4302 36.3C66.9235 36.5533 66.3435 36.68 65.6902 36.68ZM66.0102 34.34C66.4768 34.34 66.8902 34.2333 67.2502 34.02C67.6235 33.7933 67.9168 33.4867 68.1302 33.1C68.3568 32.7133 68.4702 32.2733 68.4702 31.78C68.4702 31.2733 68.3568 30.8267 68.1302 30.44C67.9168 30.0533 67.6235 29.7467 67.2502 29.52C66.8902 29.2933 66.4768 29.18 66.0102 29.18C65.5435 29.18 65.1235 29.2933 64.7502 29.52C64.3768 29.7333 64.0768 30.04 63.8502 30.44C63.6368 30.8267 63.5302 31.2733 63.5302 31.78C63.5302 32.2733 63.6368 32.7133 63.8502 33.1C64.0768 33.4867 64.3768 33.7933 64.7502 34.02C65.1368 34.2333 65.5568 34.34 66.0102 34.34ZM69.7102 36.68C69.3368 36.68 69.0635 36.62 68.8902 36.5C68.7168 36.3667 68.6035 36.16 68.5502 35.88V23.56C68.5502 23.3333 68.5635 23.1333 68.5902 22.96C68.6302 22.7733 68.7302 22.6267 68.8902 22.52C69.0635 22.4 69.3302 22.34 69.6902 22.34C70.0768 22.34 70.3502 22.3933 70.5102 22.5C70.6702 22.6067 70.7702 22.7533 70.8102 22.94C70.8635 23.1133 70.8902 23.3133 70.8902 23.54V35.46C70.8902 35.6867 70.8702 35.8933 70.8302 36.08C70.7902 36.2667 70.6835 36.4133 70.5102 36.52C70.3502 36.6267 70.0835 36.68 69.7102 36.68ZM77.7141 36.82C76.8474 36.82 76.0874 36.68 75.4341 36.4C74.7941 36.12 74.2541 35.74 73.8141 35.26C73.3874 34.7667 73.0607 34.22 72.8341 33.62C72.6207 33.0067 72.5141 32.3733 72.5141 31.72C72.5141 30.76 72.7341 29.9067 73.1741 29.16C73.6141 28.4133 74.2207 27.8267 74.9941 27.4C75.7807 26.9733 76.6807 26.76 77.6941 26.76C78.4141 26.76 79.0474 26.8733 79.5941 27.1C80.1407 27.3267 80.5941 27.6267 80.9541 28C81.3274 28.36 81.6074 28.76 81.7941 29.2C81.9941 29.64 82.0941 30.0667 82.0941 30.48C82.0941 31.1867 81.9207 31.7 81.5741 32.02C81.2407 32.34 80.8207 32.5 80.3141 32.5H75.0341C75.0474 32.9533 75.1874 33.3467 75.4541 33.68C75.7341 34.0133 76.0807 34.2733 76.4941 34.46C76.9207 34.6333 77.3541 34.72 77.7941 34.72C78.1274 34.72 78.4207 34.7 78.6741 34.66C78.9407 34.62 79.1674 34.5733 79.3541 34.52C79.5407 34.4533 79.7007 34.3867 79.8341 34.32C79.9807 34.2533 80.1141 34.1933 80.2341 34.14C80.3541 34.0867 80.4674 34.0533 80.5741 34.04C80.7207 34.0267 80.8674 34.06 81.0141 34.14C81.1607 34.22 81.2807 34.36 81.3741 34.56C81.4541 34.6933 81.5074 34.82 81.5341 34.94C81.5741 35.0467 81.5941 35.1533 81.5941 35.26C81.5941 35.5267 81.4341 35.78 81.1141 36.02C80.7941 36.2467 80.3407 36.4333 79.7541 36.58C79.1807 36.74 78.5007 36.82 77.7141 36.82ZM75.0341 31.08H79.1341C79.3607 31.08 79.5341 31.0467 79.6541 30.98C79.7741 30.9 79.8341 30.74 79.8341 30.5C79.8341 30.1933 79.7407 29.92 79.5541 29.68C79.3674 29.4267 79.1141 29.2333 78.7941 29.1C78.4741 28.9533 78.1007 28.88 77.6741 28.88C77.1807 28.88 76.7341 28.98 76.3341 29.18C75.9341 29.3667 75.6141 29.6267 75.3741 29.96C75.1474 30.2933 75.0341 30.6667 75.0341 31.08ZM84.8953 36.68C84.5353 36.68 84.2686 36.6267 84.0953 36.52C83.9353 36.4133 83.8353 36.2667 83.7953 36.08C83.7553 35.8933 83.7353 35.6933 83.7353 35.48V28C83.7353 27.7867 83.7553 27.5933 83.7953 27.42C83.8353 27.2467 83.942 27.1067 84.1153 27C84.2886 26.8933 84.562 26.84 84.9353 26.84C85.322 26.84 85.602 26.92 85.7753 27.08C85.962 27.24 86.0553 27.4933 86.0553 27.84L85.8753 28.4C85.942 28.2533 86.0553 28.0933 86.2153 27.92C86.3753 27.7467 86.5686 27.5733 86.7953 27.4C87.0353 27.2267 87.302 27.0867 87.5953 26.98C87.8886 26.8733 88.1953 26.82 88.5153 26.82C88.9553 26.82 89.3553 26.8933 89.7153 27.04C90.0886 27.1867 90.4153 27.4 90.6953 27.68C90.9886 27.96 91.242 28.3 91.4553 28.7C91.682 28.3533 91.9353 28.04 92.2153 27.76C92.4953 27.4667 92.822 27.24 93.1953 27.08C93.5686 26.9067 93.9886 26.82 94.4553 26.82C95.2286 26.82 95.8753 27.0133 96.3953 27.4C96.9286 27.7867 97.3286 28.34 97.5953 29.06C97.8753 29.7667 98.0153 30.6133 98.0153 31.6V35.48C98.0153 35.7067 97.9886 35.9133 97.9353 36.1C97.8953 36.2733 97.7886 36.4133 97.6153 36.52C97.4553 36.6267 97.1886 36.68 96.8153 36.68C96.442 36.68 96.1686 36.62 95.9953 36.5C95.822 36.3933 95.7153 36.2533 95.6753 36.08C95.6353 35.8933 95.6153 35.6867 95.6153 35.46V31.58C95.6153 31.0867 95.5553 30.66 95.4353 30.3C95.3153 29.94 95.1353 29.66 94.8953 29.46C94.6686 29.26 94.3686 29.16 93.9953 29.16C93.5953 29.16 93.2486 29.26 92.9553 29.46C92.6753 29.6467 92.4553 29.92 92.2953 30.28C92.1353 30.64 92.0553 31.08 92.0553 31.6V35.5C92.0553 35.7267 92.022 35.94 91.9553 36.14C91.8886 36.3267 91.7553 36.4667 91.5553 36.56C91.3686 36.6667 91.0953 36.7067 90.7353 36.68C90.402 36.6667 90.1553 36.6 89.9953 36.48C89.8486 36.36 89.7553 36.2133 89.7153 36.04C89.6886 35.8533 89.6753 35.66 89.6753 35.46V31.58C89.6753 31.0867 89.6153 30.66 89.4953 30.3C89.3753 29.9267 89.1953 29.6467 88.9553 29.46C88.7286 29.26 88.422 29.16 88.0353 29.16C87.622 29.16 87.2686 29.2667 86.9753 29.48C86.6953 29.6933 86.482 29.98 86.3353 30.34C86.1886 30.7 86.1153 31.1133 86.1153 31.58V35.5C86.1153 35.7133 86.0886 35.9133 86.0353 36.1C85.9953 36.2867 85.8886 36.4267 85.7153 36.52C85.5553 36.6267 85.282 36.68 84.8953 36.68ZM101.899 40.64C101.472 40.4533 101.226 40.24 101.159 40C101.092 39.7733 101.152 39.4667 101.339 39.08L106.499 27.52C106.686 27.0933 106.886 26.84 107.099 26.76C107.312 26.6667 107.639 26.7133 108.079 26.9C108.492 27.0867 108.732 27.2933 108.799 27.52C108.879 27.7467 108.832 28.0533 108.659 28.44L103.459 40.06C103.286 40.4867 103.092 40.7333 102.879 40.8C102.666 40.88 102.339 40.8267 101.899 40.64ZM103.759 35.74L99.1389 28.64C98.8989 28.28 98.7989 27.98 98.8389 27.74C98.8922 27.5 99.1056 27.2667 99.4789 27.04C99.8922 26.7867 100.212 26.6867 100.439 26.74C100.679 26.7933 100.919 27.0067 101.159 27.38L104.819 33.08L103.759 35.74Z" fill="#ED7424"/>
<rect x="17.1791" y="39.5979" width="9" height="27.9176" rx="4.5" transform="rotate(-143.162 17.1791 39.5979)" fill="#ED7424" stroke="#ED7424"/>
<rect x="-0.163552" y="0.687932" width="9" height="15.3978" rx="4.5" transform="matrix(0.851484 -0.52438 -0.52438 -0.851484 8.38637 30.1425)" fill="#ED7424" stroke="#ED7424"/>
<path d="M129.78 36.7C129.54 36.7 129.353 36.66 129.22 36.58C129.1 36.5 129.013 36.3933 128.96 36.26C128.907 36.1133 128.88 35.9533 128.88 35.78V23.62C128.88 23.4467 128.907 23.3 128.96 23.18C129.013 23.0467 129.107 22.94 129.24 22.86C129.373 22.78 129.567 22.74 129.82 22.74C130.02 22.74 130.18 22.7533 130.3 22.78C130.42 22.8067 130.513 22.8467 130.58 22.9C130.66 22.94 130.74 23.0067 130.82 23.1L136.04 30.66H135.42L140.7 23.04C140.78 22.9467 140.86 22.88 140.94 22.84C141.02 22.8 141.12 22.7733 141.24 22.76C141.373 22.7467 141.527 22.74 141.7 22.74C141.953 22.74 142.14 22.78 142.26 22.86C142.393 22.94 142.487 23.0533 142.54 23.2C142.593 23.3333 142.62 23.4867 142.62 23.66V35.82C142.62 35.98 142.593 36.1267 142.54 36.26C142.487 36.3933 142.393 36.5 142.26 36.58C142.127 36.66 141.933 36.7 141.68 36.7C141.44 36.7 141.253 36.66 141.12 36.58C141 36.5 140.913 36.3933 140.86 36.26C140.82 36.1133 140.8 35.9533 140.8 35.78V25.74L136.52 32.04C136.48 32.1067 136.427 32.1733 136.36 32.24C136.293 32.2933 136.207 32.34 136.1 32.38C136.007 32.42 135.887 32.44 135.74 32.44C135.58 32.44 135.453 32.42 135.36 32.38C135.28 32.34 135.207 32.2933 135.14 32.24C135.073 32.1733 135.007 32.1 134.94 32.02L130.68 25.76V35.82C130.68 35.98 130.653 36.1267 130.6 36.26C130.56 36.3933 130.473 36.5 130.34 36.58C130.22 36.66 130.033 36.7 129.78 36.7ZM149.424 36.9C148.917 36.9 148.437 36.84 147.984 36.72C147.544 36.6 147.137 36.44 146.764 36.24C146.404 36.0267 146.084 35.7933 145.804 35.54C145.524 35.2867 145.304 35.0333 145.144 34.78C144.997 34.5667 144.904 34.3933 144.864 34.26C144.824 34.1133 144.831 33.9733 144.884 33.84C144.951 33.7067 145.077 33.56 145.264 33.4C145.477 33.24 145.664 33.1667 145.824 33.18C145.984 33.18 146.131 33.24 146.264 33.36C146.411 33.48 146.557 33.64 146.704 33.84C147.037 34.2933 147.444 34.6267 147.924 34.84C148.404 35.04 148.877 35.14 149.344 35.14C149.944 35.14 150.477 35.06 150.944 34.9C151.411 34.74 151.777 34.5 152.044 34.18C152.324 33.8467 152.464 33.42 152.464 32.9C152.464 32.4733 152.357 32.1133 152.144 31.82C151.931 31.5267 151.644 31.28 151.284 31.08C150.924 30.8667 150.524 30.6867 150.084 30.54C149.644 30.38 149.197 30.2267 148.744 30.08C148.384 29.96 148.031 29.8267 147.684 29.68C147.337 29.52 147.011 29.3467 146.704 29.16C146.397 28.96 146.124 28.7267 145.884 28.46C145.657 28.1933 145.477 27.88 145.344 27.52C145.224 27.16 145.164 26.74 145.164 26.26C145.164 25.5267 145.337 24.88 145.684 24.32C146.044 23.76 146.544 23.3267 147.184 23.02C147.824 22.7 148.564 22.54 149.404 22.54C149.897 22.54 150.351 22.5867 150.764 22.68C151.177 22.7733 151.544 22.9 151.864 23.06C152.184 23.2067 152.457 23.3667 152.684 23.54C152.911 23.7 153.084 23.8533 153.204 24C153.444 24.2533 153.577 24.4667 153.604 24.64C153.631 24.8133 153.531 25.0267 153.304 25.28C153.091 25.52 152.884 25.6467 152.684 25.66C152.484 25.6733 152.264 25.58 152.024 25.38C151.771 25.0867 151.504 24.86 151.224 24.7C150.957 24.54 150.671 24.4333 150.364 24.38C150.071 24.3133 149.744 24.28 149.384 24.28C149.037 24.28 148.711 24.3267 148.404 24.42C148.111 24.5 147.851 24.6267 147.624 24.8C147.411 24.9733 147.244 25.1867 147.124 25.44C147.004 25.68 146.944 25.96 146.944 26.28C146.944 26.64 147.037 26.9467 147.224 27.2C147.424 27.4533 147.684 27.6733 148.004 27.86C148.324 28.0333 148.684 28.1933 149.084 28.34C149.484 28.4733 149.904 28.6067 150.344 28.74C150.824 28.8867 151.297 29.0667 151.764 29.28C152.231 29.48 152.651 29.7333 153.024 30.04C153.397 30.3333 153.697 30.7067 153.924 31.16C154.151 31.6133 154.264 32.1733 154.264 32.84C154.264 33.5067 154.131 34.0933 153.864 34.6C153.611 35.1067 153.257 35.5333 152.804 35.88C152.351 36.2133 151.831 36.4667 151.244 36.64C150.671 36.8133 150.064 36.9 149.424 36.9Z" fill="#ED7424"/>
<rect x="115.771" y="36.4089" width="3.17911" height="10.6968" rx="1.58956" transform="rotate(-90.0258 115.771 36.4089)" stroke="#ED7424" stroke-width="1.45"/>
<rect width="3" height="8" rx="1.5" transform="matrix(1 0 0 -1 115.5 31.5)" stroke="#ED7424" stroke-width="1.45"/>
</svg>
