<svg width="241" height="54" viewBox="0 0 241 54" fill="none" xmlns="http://www.w3.org/2000/svg">
<path d="M36.74 36.66C36.3533 36.66 36.0667 36.5867 35.88 36.44C35.6933 36.2933 35.6 36.0933 35.6 35.84L35.74 35.18C35.6333 35.3533 35.4533 35.56 35.2 35.8C34.9467 36.0267 34.6133 36.2333 34.2 36.42C33.7867 36.5933 33.2867 36.68 32.7 36.68C32.0733 36.68 31.48 36.5533 30.92 36.3C30.3733 36.0333 29.8867 35.6733 29.46 35.22C29.0467 34.7533 28.7133 34.2267 28.46 33.64C28.22 33.04 28.1 32.4 28.1 31.72C28.1 31.0667 28.22 30.4533 28.46 29.88C28.7133 29.2933 29.0533 28.7733 29.48 28.32C29.9067 27.8667 30.3933 27.5133 30.94 27.26C31.5 26.9933 32.0867 26.86 32.7 26.86C33.2467 26.86 33.7067 26.9333 34.08 27.08C34.4667 27.2267 34.7933 27.4133 35.06 27.64C35.3267 27.8533 35.5467 28.08 35.72 28.32L35.6 27.74C35.6 27.4467 35.6933 27.2267 35.88 27.08C36.0667 26.92 36.36 26.84 36.76 26.84C37.1333 26.84 37.4 26.9 37.56 27.02C37.72 27.1267 37.82 27.28 37.86 27.48C37.9 27.6667 37.92 27.88 37.92 28.12V35.44C37.92 35.6667 37.9 35.8733 37.86 36.06C37.82 36.2467 37.7133 36.3933 37.54 36.5C37.38 36.6067 37.1133 36.66 36.74 36.66ZM33.06 34.34C33.5133 34.34 33.92 34.2267 34.28 34C34.64 33.7733 34.9267 33.4667 35.14 33.08C35.3667 32.68 35.48 32.24 35.48 31.76C35.48 31.24 35.3667 30.7867 35.14 30.4C34.9133 30.0133 34.6133 29.7133 34.24 29.5C33.88 29.2733 33.4733 29.16 33.02 29.16C32.5267 29.16 32.0867 29.28 31.7 29.52C31.3133 29.7467 31.0067 30.06 30.78 30.46C30.5667 30.8467 30.46 31.2867 30.46 31.78C30.46 32.26 30.5733 32.6933 30.8 33.08C31.0267 33.4667 31.3333 33.7733 31.72 34C32.12 34.2267 32.5667 34.34 33.06 34.34ZM44.6867 36.74C44.0467 36.74 43.4201 36.6333 42.8067 36.42C42.2067 36.1933 41.6601 35.8667 41.1667 35.44C40.6867 35.0133 40.3001 34.4933 40.0067 33.88C39.7267 33.2533 39.5867 32.5467 39.5867 31.76C39.5867 30.9733 39.7267 30.2733 40.0067 29.66C40.3001 29.0467 40.6867 28.5267 41.1667 28.1C41.6467 27.6733 42.1867 27.3467 42.7867 27.12C43.3867 26.8933 44.0067 26.78 44.6467 26.78C45.1134 26.78 45.5534 26.8467 45.9667 26.98C46.3934 27.1133 46.7601 27.2733 47.0667 27.46C47.3734 27.6467 47.5934 27.8333 47.7267 28.02C47.9001 28.18 48.0467 28.3333 48.1667 28.48C48.2867 28.6267 48.3267 28.8067 48.2867 29.02C48.2467 29.1533 48.1867 29.28 48.1067 29.4C48.0267 29.5067 47.9267 29.62 47.8067 29.74C47.4867 30.1 47.1734 30.2333 46.8667 30.14C46.6934 30.0467 46.5201 29.9467 46.3467 29.84C46.1734 29.7333 45.9934 29.6333 45.8067 29.54C45.6334 29.4333 45.4534 29.3467 45.2667 29.28C45.0801 29.2133 44.8734 29.18 44.6467 29.18C44.1401 29.18 43.6867 29.2933 43.2867 29.52C42.9001 29.7333 42.5934 30.0333 42.3667 30.42C42.1534 30.8067 42.0467 31.2533 42.0467 31.76C42.0467 32.2667 42.1534 32.72 42.3667 33.12C42.5934 33.5067 42.9001 33.8133 43.2867 34.04C43.6734 34.2533 44.1134 34.36 44.6067 34.36C44.8467 34.36 45.0734 34.3333 45.2867 34.28C45.5134 34.2133 45.7134 34.1333 45.8867 34.04C46.0601 33.9333 46.2001 33.8267 46.3067 33.72C46.4534 33.6267 46.5867 33.54 46.7067 33.46C46.8267 33.38 46.9534 33.34 47.0867 33.34C47.2467 33.34 47.4001 33.4 47.5467 33.52C47.7067 33.6267 47.8801 33.8 48.0667 34.04C48.2401 34.24 48.3334 34.4333 48.3467 34.62C48.3734 34.8067 48.3334 34.9867 48.2267 35.16C48.1334 35.3333 47.9734 35.4933 47.7467 35.64C47.5867 35.8 47.3467 35.9667 47.0267 36.14C46.7201 36.3 46.3601 36.44 45.9467 36.56C45.5467 36.68 45.1267 36.74 44.6867 36.74ZM58.2634 36.66C57.8768 36.66 57.5901 36.5867 57.4034 36.44C57.2168 36.2933 57.1234 36.0933 57.1234 35.84L57.2634 35.18C57.1568 35.3533 56.9768 35.56 56.7234 35.8C56.4701 36.0267 56.1368 36.2333 55.7234 36.42C55.3101 36.5933 54.8101 36.68 54.2234 36.68C53.5968 36.68 53.0034 36.5533 52.4434 36.3C51.8968 36.0333 51.4101 35.6733 50.9834 35.22C50.5701 34.7533 50.2368 34.2267 49.9834 33.64C49.7434 33.04 49.6234 32.4 49.6234 31.72C49.6234 31.0667 49.7434 30.4533 49.9834 29.88C50.2368 29.2933 50.5768 28.7733 51.0034 28.32C51.4301 27.8667 51.9168 27.5133 52.4634 27.26C53.0234 26.9933 53.6101 26.86 54.2234 26.86C54.7701 26.86 55.2301 26.9333 55.6034 27.08C55.9901 27.2267 56.3168 27.4133 56.5834 27.64C56.8501 27.8533 57.0701 28.08 57.2434 28.32L57.1234 27.74C57.1234 27.4467 57.2168 27.2267 57.4034 27.08C57.5901 26.92 57.8834 26.84 58.2834 26.84C58.6568 26.84 58.9234 26.9 59.0834 27.02C59.2434 27.1267 59.3434 27.28 59.3834 27.48C59.4234 27.6667 59.4434 27.88 59.4434 28.12V35.44C59.4434 35.6667 59.4234 35.8733 59.3834 36.06C59.3434 36.2467 59.2368 36.3933 59.0634 36.5C58.9034 36.6067 58.6368 36.66 58.2634 36.66ZM54.5834 34.34C55.0368 34.34 55.4434 34.2267 55.8034 34C56.1634 33.7733 56.4501 33.4667 56.6634 33.08C56.8901 32.68 57.0034 32.24 57.0034 31.76C57.0034 31.24 56.8901 30.7867 56.6634 30.4C56.4368 30.0133 56.1368 29.7133 55.7634 29.5C55.4034 29.2733 54.9968 29.16 54.5434 29.16C54.0501 29.16 53.6101 29.28 53.2234 29.52C52.8368 29.7467 52.5301 30.06 52.3034 30.46C52.0901 30.8467 51.9834 31.2867 51.9834 31.78C51.9834 32.26 52.0968 32.6933 52.3234 33.08C52.5501 33.4667 52.8568 33.7733 53.2434 34C53.6434 34.2267 54.0901 34.34 54.5834 34.34ZM65.6902 36.68C65.0768 36.68 64.4968 36.5533 63.9502 36.3C63.4035 36.0467 62.9235 35.7 62.5102 35.26C62.0968 34.8067 61.7702 34.28 61.5302 33.68C61.2902 33.0667 61.1702 32.4133 61.1702 31.72C61.1702 31.0533 61.2902 30.4267 61.5302 29.84C61.7702 29.24 62.0968 28.72 62.5102 28.28C62.9368 27.8267 63.4235 27.4733 63.9702 27.22C64.5168 26.9667 65.0902 26.84 65.6902 26.84C66.3302 26.84 66.9035 26.9667 67.4102 27.22C67.9168 27.4733 68.3435 27.8267 68.6902 28.28C69.0502 28.72 69.3235 29.24 69.5102 29.84C69.6968 30.4267 69.7968 31.06 69.8102 31.74C69.8102 32.42 69.7168 33.06 69.5302 33.66C69.3568 34.2467 69.0902 34.7667 68.7302 35.22C68.3835 35.6733 67.9502 36.0333 67.4302 36.3C66.9235 36.5533 66.3435 36.68 65.6902 36.68ZM66.0102 34.34C66.4768 34.34 66.8902 34.2333 67.2502 34.02C67.6235 33.7933 67.9168 33.4867 68.1302 33.1C68.3568 32.7133 68.4702 32.2733 68.4702 31.78C68.4702 31.2733 68.3568 30.8267 68.1302 30.44C67.9168 30.0533 67.6235 29.7467 67.2502 29.52C66.8902 29.2933 66.4768 29.18 66.0102 29.18C65.5435 29.18 65.1235 29.2933 64.7502 29.52C64.3768 29.7333 64.0768 30.04 63.8502 30.44C63.6368 30.8267 63.5302 31.2733 63.5302 31.78C63.5302 32.2733 63.6368 32.7133 63.8502 33.1C64.0768 33.4867 64.3768 33.7933 64.7502 34.02C65.1368 34.2333 65.5568 34.34 66.0102 34.34ZM69.7102 36.68C69.3368 36.68 69.0635 36.62 68.8902 36.5C68.7168 36.3667 68.6035 36.16 68.5502 35.88V23.56C68.5502 23.3333 68.5635 23.1333 68.5902 22.96C68.6302 22.7733 68.7302 22.6267 68.8902 22.52C69.0635 22.4 69.3302 22.34 69.6902 22.34C70.0768 22.34 70.3502 22.3933 70.5102 22.5C70.6702 22.6067 70.7702 22.7533 70.8102 22.94C70.8635 23.1133 70.8902 23.3133 70.8902 23.54V35.46C70.8902 35.6867 70.8702 35.8933 70.8302 36.08C70.7902 36.2667 70.6835 36.4133 70.5102 36.52C70.3502 36.6267 70.0835 36.68 69.7102 36.68ZM77.7141 36.82C76.8474 36.82 76.0874 36.68 75.4341 36.4C74.7941 36.12 74.2541 35.74 73.8141 35.26C73.3874 34.7667 73.0607 34.22 72.8341 33.62C72.6207 33.0067 72.5141 32.3733 72.5141 31.72C72.5141 30.76 72.7341 29.9067 73.1741 29.16C73.6141 28.4133 74.2207 27.8267 74.9941 27.4C75.7807 26.9733 76.6807 26.76 77.6941 26.76C78.4141 26.76 79.0474 26.8733 79.5941 27.1C80.1407 27.3267 80.5941 27.6267 80.9541 28C81.3274 28.36 81.6074 28.76 81.7941 29.2C81.9941 29.64 82.0941 30.0667 82.0941 30.48C82.0941 31.1867 81.9207 31.7 81.5741 32.02C81.2407 32.34 80.8207 32.5 80.3141 32.5H75.0341C75.0474 32.9533 75.1874 33.3467 75.4541 33.68C75.7341 34.0133 76.0807 34.2733 76.4941 34.46C76.9207 34.6333 77.3541 34.72 77.7941 34.72C78.1274 34.72 78.4207 34.7 78.6741 34.66C78.9407 34.62 79.1674 34.5733 79.3541 34.52C79.5407 34.4533 79.7007 34.3867 79.8341 34.32C79.9807 34.2533 80.1141 34.1933 80.2341 34.14C80.3541 34.0867 80.4674 34.0533 80.5741 34.04C80.7207 34.0267 80.8674 34.06 81.0141 34.14C81.1607 34.22 81.2807 34.36 81.3741 34.56C81.4541 34.6933 81.5074 34.82 81.5341 34.94C81.5741 35.0467 81.5941 35.1533 81.5941 35.26C81.5941 35.5267 81.4341 35.78 81.1141 36.02C80.7941 36.2467 80.3407 36.4333 79.7541 36.58C79.1807 36.74 78.5007 36.82 77.7141 36.82ZM75.0341 31.08H79.1341C79.3607 31.08 79.5341 31.0467 79.6541 30.98C79.7741 30.9 79.8341 30.74 79.8341 30.5C79.8341 30.1933 79.7407 29.92 79.5541 29.68C79.3674 29.4267 79.1141 29.2333 78.7941 29.1C78.4741 28.9533 78.1007 28.88 77.6741 28.88C77.1807 28.88 76.7341 28.98 76.3341 29.18C75.9341 29.3667 75.6141 29.6267 75.3741 29.96C75.1474 30.2933 75.0341 30.6667 75.0341 31.08ZM84.8953 36.68C84.5353 36.68 84.2686 36.6267 84.0953 36.52C83.9353 36.4133 83.8353 36.2667 83.7953 36.08C83.7553 35.8933 83.7353 35.6933 83.7353 35.48V28C83.7353 27.7867 83.7553 27.5933 83.7953 27.42C83.8353 27.2467 83.942 27.1067 84.1153 27C84.2886 26.8933 84.562 26.84 84.9353 26.84C85.322 26.84 85.602 26.92 85.7753 27.08C85.962 27.24 86.0553 27.4933 86.0553 27.84L85.8753 28.4C85.942 28.2533 86.0553 28.0933 86.2153 27.92C86.3753 27.7467 86.5686 27.5733 86.7953 27.4C87.0353 27.2267 87.302 27.0867 87.5953 26.98C87.8886 26.8733 88.1953 26.82 88.5153 26.82C88.9553 26.82 89.3553 26.8933 89.7153 27.04C90.0886 27.1867 90.4153 27.4 90.6953 27.68C90.9886 27.96 91.242 28.3 91.4553 28.7C91.682 28.3533 91.9353 28.04 92.2153 27.76C92.4953 27.4667 92.822 27.24 93.1953 27.08C93.5686 26.9067 93.9886 26.82 94.4553 26.82C95.2286 26.82 95.8753 27.0133 96.3953 27.4C96.9286 27.7867 97.3286 28.34 97.5953 29.06C97.8753 29.7667 98.0153 30.6133 98.0153 31.6V35.48C98.0153 35.7067 97.9886 35.9133 97.9353 36.1C97.8953 36.2733 97.7886 36.4133 97.6153 36.52C97.4553 36.6267 97.1886 36.68 96.8153 36.68C96.442 36.68 96.1686 36.62 95.9953 36.5C95.822 36.3933 95.7153 36.2533 95.6753 36.08C95.6353 35.8933 95.6153 35.6867 95.6153 35.46V31.58C95.6153 31.0867 95.5553 30.66 95.4353 30.3C95.3153 29.94 95.1353 29.66 94.8953 29.46C94.6686 29.26 94.3686 29.16 93.9953 29.16C93.5953 29.16 93.2486 29.26 92.9553 29.46C92.6753 29.6467 92.4553 29.92 92.2953 30.28C92.1353 30.64 92.0553 31.08 92.0553 31.6V35.5C92.0553 35.7267 92.022 35.94 91.9553 36.14C91.8886 36.3267 91.7553 36.4667 91.5553 36.56C91.3686 36.6667 91.0953 36.7067 90.7353 36.68C90.402 36.6667 90.1553 36.6 89.9953 36.48C89.8486 36.36 89.7553 36.2133 89.7153 36.04C89.6886 35.8533 89.6753 35.66 89.6753 35.46V31.58C89.6753 31.0867 89.6153 30.66 89.4953 30.3C89.3753 29.9267 89.1953 29.6467 88.9553 29.46C88.7286 29.26 88.422 29.16 88.0353 29.16C87.622 29.16 87.2686 29.2667 86.9753 29.48C86.6953 29.6933 86.482 29.98 86.3353 30.34C86.1886 30.7 86.1153 31.1133 86.1153 31.58V35.5C86.1153 35.7133 86.0886 35.9133 86.0353 36.1C85.9953 36.2867 85.8886 36.4267 85.7153 36.52C85.5553 36.6267 85.282 36.68 84.8953 36.68ZM101.899 40.64C101.472 40.4533 101.226 40.24 101.159 40C101.092 39.7733 101.152 39.4667 101.339 39.08L106.499 27.52C106.686 27.0933 106.886 26.84 107.099 26.76C107.312 26.6667 107.639 26.7133 108.079 26.9C108.492 27.0867 108.732 27.2933 108.799 27.52C108.879 27.7467 108.832 28.0533 108.659 28.44L103.459 40.06C103.286 40.4867 103.092 40.7333 102.879 40.8C102.666 40.88 102.339 40.8267 101.899 40.64ZM103.759 35.74L99.1389 28.64C98.8989 28.28 98.7989 27.98 98.8389 27.74C98.8922 27.5 99.1056 27.2667 99.4789 27.04C99.8922 26.7867 100.212 26.6867 100.439 26.74C100.679 26.7933 100.919 27.0067 101.159 27.38L104.819 33.08L103.759 35.74Z" fill="#ED7424"/>
<rect x="17.1791" y="39.5979" width="9" height="27.9176" rx="4.5" transform="rotate(-143.162 17.1791 39.5979)" fill="#ED7424" stroke="#ED7424"/>
<rect x="-0.163552" y="0.687932" width="9" height="15.3978" rx="4.5" transform="matrix(0.851484 -0.52438 -0.52438 -0.851484 8.38637 30.1425)" fill="#ED7424" stroke="#ED7424"/>
<path d="M131.98 36.8C131.66 36.8 131.327 36.7667 130.98 36.7C130.633 36.6333 130.293 36.54 129.96 36.42C129.64 36.2867 129.353 36.1333 129.1 35.96C128.86 35.7867 128.68 35.5933 128.56 35.38C128.493 35.2467 128.453 35.1267 128.44 35.02C128.427 34.9 128.447 34.7867 128.5 34.68C128.553 34.5733 128.633 34.4667 128.74 34.36C128.873 34.2 129.007 34.1267 129.14 34.14C129.273 34.14 129.44 34.2267 129.64 34.4C129.787 34.4933 129.96 34.6 130.16 34.72C130.36 34.8267 130.567 34.9267 130.78 35.02C130.993 35.1 131.207 35.1733 131.42 35.24C131.647 35.2933 131.867 35.32 132.08 35.32C132.693 35.32 133.187 35.2067 133.56 34.98C133.933 34.74 134.12 34.4267 134.12 34.04C134.12 33.8133 134.073 33.62 133.98 33.46C133.887 33.3 133.76 33.1667 133.6 33.06C133.44 32.94 133.26 32.84 133.06 32.76C132.86 32.68 132.633 32.6067 132.38 32.54C132.14 32.46 131.9 32.3867 131.66 32.32C131.3 32.2267 130.947 32.12 130.6 32C130.253 31.88 129.94 31.7267 129.66 31.54C129.38 31.34 129.153 31.0933 128.98 30.8C128.807 30.4933 128.72 30.1067 128.72 29.64C128.72 29.0933 128.86 28.62 129.14 28.22C129.42 27.82 129.813 27.5133 130.32 27.3C130.827 27.0733 131.42 26.96 132.1 26.96C132.393 26.96 132.667 26.98 132.92 27.02C133.173 27.06 133.413 27.1267 133.64 27.22C133.88 27.3 134.107 27.4 134.32 27.52C134.533 27.6267 134.74 27.76 134.94 27.92C135.18 28.08 135.307 28.2533 135.32 28.44C135.333 28.6267 135.26 28.82 135.1 29.02C134.98 29.1933 134.847 29.3067 134.7 29.36C134.553 29.4 134.407 29.36 134.26 29.24C134.047 29.08 133.82 28.94 133.58 28.82C133.34 28.7 133.093 28.6 132.84 28.52C132.587 28.44 132.327 28.4 132.06 28.4C131.727 28.4 131.427 28.4533 131.16 28.56C130.907 28.6533 130.707 28.8 130.56 29C130.427 29.1867 130.36 29.4 130.36 29.64C130.36 29.8533 130.413 30.0267 130.52 30.16C130.64 30.2933 130.787 30.4067 130.96 30.5C131.147 30.5933 131.36 30.68 131.6 30.76C131.853 30.8267 132.113 30.8933 132.38 30.96C132.767 31.0533 133.16 31.1667 133.56 31.3C133.973 31.42 134.34 31.5867 134.66 31.8C134.993 32 135.26 32.2733 135.46 32.62C135.673 32.9533 135.78 33.4 135.78 33.96C135.78 34.84 135.433 35.5333 134.74 36.04C134.047 36.5467 133.127 36.8 131.98 36.8ZM140.867 36.8C140.547 36.8 140.213 36.7667 139.867 36.7C139.52 36.6333 139.18 36.54 138.847 36.42C138.527 36.2867 138.24 36.1333 137.987 35.96C137.747 35.7867 137.567 35.5933 137.447 35.38C137.38 35.2467 137.34 35.1267 137.327 35.02C137.313 34.9 137.333 34.7867 137.387 34.68C137.44 34.5733 137.52 34.4667 137.627 34.36C137.76 34.2 137.893 34.1267 138.027 34.14C138.16 34.14 138.327 34.2267 138.527 34.4C138.673 34.4933 138.847 34.6 139.047 34.72C139.247 34.8267 139.453 34.9267 139.667 35.02C139.88 35.1 140.093 35.1733 140.307 35.24C140.533 35.2933 140.753 35.32 140.967 35.32C141.58 35.32 142.073 35.2067 142.447 34.98C142.82 34.74 143.007 34.4267 143.007 34.04C143.007 33.8133 142.96 33.62 142.867 33.46C142.773 33.3 142.647 33.1667 142.487 33.06C142.327 32.94 142.147 32.84 141.947 32.76C141.747 32.68 141.52 32.6067 141.267 32.54C141.027 32.46 140.787 32.3867 140.547 32.32C140.187 32.2267 139.833 32.12 139.487 32C139.14 31.88 138.827 31.7267 138.547 31.54C138.267 31.34 138.04 31.0933 137.867 30.8C137.693 30.4933 137.607 30.1067 137.607 29.64C137.607 29.0933 137.747 28.62 138.027 28.22C138.307 27.82 138.7 27.5133 139.207 27.3C139.713 27.0733 140.307 26.96 140.987 26.96C141.28 26.96 141.553 26.98 141.807 27.02C142.06 27.06 142.3 27.1267 142.527 27.22C142.767 27.3 142.993 27.4 143.207 27.52C143.42 27.6267 143.627 27.76 143.827 27.92C144.067 28.08 144.193 28.2533 144.207 28.44C144.22 28.6267 144.147 28.82 143.987 29.02C143.867 29.1933 143.733 29.3067 143.587 29.36C143.44 29.4 143.293 29.36 143.147 29.24C142.933 29.08 142.707 28.94 142.467 28.82C142.227 28.7 141.98 28.6 141.727 28.52C141.473 28.44 141.213 28.4 140.947 28.4C140.613 28.4 140.313 28.4533 140.047 28.56C139.793 28.6533 139.593 28.8 139.447 29C139.313 29.1867 139.247 29.4 139.247 29.64C139.247 29.8533 139.3 30.0267 139.407 30.16C139.527 30.2933 139.673 30.4067 139.847 30.5C140.033 30.5933 140.247 30.68 140.487 30.76C140.74 30.8267 141 30.8933 141.267 30.96C141.653 31.0533 142.047 31.1667 142.447 31.3C142.86 31.42 143.227 31.5867 143.547 31.8C143.88 32 144.147 32.2733 144.347 32.62C144.56 32.9533 144.667 33.4 144.667 33.96C144.667 34.84 144.32 35.5333 143.627 36.04C142.933 36.5467 142.013 36.8 140.867 36.8ZM151.386 36.8C150.586 36.8 149.873 36.6667 149.246 36.4C148.62 36.1333 148.086 35.7733 147.646 35.32C147.22 34.8533 146.893 34.32 146.666 33.72C146.44 33.12 146.326 32.4733 146.326 31.78C146.326 30.86 146.54 30.04 146.966 29.32C147.393 28.6 147.98 28.0333 148.726 27.62C149.486 27.1933 150.353 26.98 151.326 26.98C151.993 26.98 152.586 27.0867 153.106 27.3C153.64 27.5 154.093 27.7733 154.466 28.12C154.84 28.4667 155.126 28.8533 155.326 29.28C155.526 29.7067 155.626 30.1333 155.626 30.56C155.626 31.24 155.466 31.72 155.146 32C154.826 32.2667 154.433 32.4 153.966 32.4H148.186C148.173 32.9867 148.326 33.4933 148.646 33.92C148.98 34.3333 149.393 34.6533 149.886 34.88C150.393 35.1067 150.9 35.22 151.406 35.22C151.78 35.22 152.1 35.2 152.366 35.16C152.633 35.12 152.866 35.0667 153.066 35C153.266 34.9333 153.44 34.8667 153.586 34.8C153.733 34.7333 153.86 34.6667 153.966 34.6C154.086 34.5333 154.2 34.4867 154.306 34.46C154.426 34.4333 154.54 34.4467 154.646 34.5C154.766 34.54 154.86 34.6267 154.926 34.76C155.006 34.8667 155.06 34.9667 155.086 35.06C155.113 35.1533 155.126 35.2533 155.126 35.36C155.126 35.5467 154.966 35.7533 154.646 35.98C154.326 36.2067 153.88 36.4 153.306 36.56C152.746 36.72 152.106 36.8 151.386 36.8ZM148.186 31.22H153.206C153.46 31.22 153.646 31.1867 153.766 31.12C153.9 31.0533 153.966 30.8733 153.966 30.58C153.966 30.2067 153.853 29.8733 153.626 29.58C153.4 29.2733 153.086 29.0267 152.686 28.84C152.3 28.6533 151.853 28.56 151.346 28.56C150.76 28.56 150.22 28.68 149.726 28.92C149.246 29.1467 148.866 29.46 148.586 29.86C148.306 30.26 148.173 30.7133 148.186 31.22ZM160.847 36.8C160.527 36.8 160.194 36.7667 159.847 36.7C159.501 36.6333 159.161 36.54 158.827 36.42C158.507 36.2867 158.221 36.1333 157.967 35.96C157.727 35.7867 157.547 35.5933 157.427 35.38C157.361 35.2467 157.321 35.1267 157.307 35.02C157.294 34.9 157.314 34.7867 157.367 34.68C157.421 34.5733 157.501 34.4667 157.607 34.36C157.741 34.2 157.874 34.1267 158.007 34.14C158.141 34.14 158.307 34.2267 158.507 34.4C158.654 34.4933 158.827 34.6 159.027 34.72C159.227 34.8267 159.434 34.9267 159.647 35.02C159.861 35.1 160.074 35.1733 160.287 35.24C160.514 35.2933 160.734 35.32 160.947 35.32C161.561 35.32 162.054 35.2067 162.427 34.98C162.801 34.74 162.987 34.4267 162.987 34.04C162.987 33.8133 162.941 33.62 162.847 33.46C162.754 33.3 162.627 33.1667 162.467 33.06C162.307 32.94 162.127 32.84 161.927 32.76C161.727 32.68 161.501 32.6067 161.247 32.54C161.007 32.46 160.767 32.3867 160.527 32.32C160.167 32.2267 159.814 32.12 159.467 32C159.121 31.88 158.807 31.7267 158.527 31.54C158.247 31.34 158.021 31.0933 157.847 30.8C157.674 30.4933 157.587 30.1067 157.587 29.64C157.587 29.0933 157.727 28.62 158.007 28.22C158.287 27.82 158.681 27.5133 159.187 27.3C159.694 27.0733 160.287 26.96 160.967 26.96C161.261 26.96 161.534 26.98 161.787 27.02C162.041 27.06 162.281 27.1267 162.507 27.22C162.747 27.3 162.974 27.4 163.187 27.52C163.401 27.6267 163.607 27.76 163.807 27.92C164.047 28.08 164.174 28.2533 164.187 28.44C164.201 28.6267 164.127 28.82 163.967 29.02C163.847 29.1933 163.714 29.3067 163.567 29.36C163.421 29.4 163.274 29.36 163.127 29.24C162.914 29.08 162.687 28.94 162.447 28.82C162.207 28.7 161.961 28.6 161.707 28.52C161.454 28.44 161.194 28.4 160.927 28.4C160.594 28.4 160.294 28.4533 160.027 28.56C159.774 28.6533 159.574 28.8 159.427 29C159.294 29.1867 159.227 29.4 159.227 29.64C159.227 29.8533 159.281 30.0267 159.387 30.16C159.507 30.2933 159.654 30.4067 159.827 30.5C160.014 30.5933 160.227 30.68 160.467 30.76C160.721 30.8267 160.981 30.8933 161.247 30.96C161.634 31.0533 162.027 31.1667 162.427 31.3C162.841 31.42 163.207 31.5867 163.527 31.8C163.861 32 164.127 32.2733 164.327 32.62C164.541 32.9533 164.647 33.4 164.647 33.96C164.647 34.84 164.301 35.5333 163.607 36.04C162.914 36.5467 161.994 36.8 160.847 36.8ZM169.734 36.8C169.414 36.8 169.081 36.7667 168.734 36.7C168.387 36.6333 168.047 36.54 167.714 36.42C167.394 36.2867 167.107 36.1333 166.854 35.96C166.614 35.7867 166.434 35.5933 166.314 35.38C166.247 35.2467 166.207 35.1267 166.194 35.02C166.181 34.9 166.201 34.7867 166.254 34.68C166.307 34.5733 166.387 34.4667 166.494 34.36C166.627 34.2 166.761 34.1267 166.894 34.14C167.027 34.14 167.194 34.2267 167.394 34.4C167.541 34.4933 167.714 34.6 167.914 34.72C168.114 34.8267 168.321 34.9267 168.534 35.02C168.747 35.1 168.961 35.1733 169.174 35.24C169.401 35.2933 169.621 35.32 169.834 35.32C170.447 35.32 170.941 35.2067 171.314 34.98C171.687 34.74 171.874 34.4267 171.874 34.04C171.874 33.8133 171.827 33.62 171.734 33.46C171.641 33.3 171.514 33.1667 171.354 33.06C171.194 32.94 171.014 32.84 170.814 32.76C170.614 32.68 170.387 32.6067 170.134 32.54C169.894 32.46 169.654 32.3867 169.414 32.32C169.054 32.2267 168.701 32.12 168.354 32C168.007 31.88 167.694 31.7267 167.414 31.54C167.134 31.34 166.907 31.0933 166.734 30.8C166.561 30.4933 166.474 30.1067 166.474 29.64C166.474 29.0933 166.614 28.62 166.894 28.22C167.174 27.82 167.567 27.5133 168.074 27.3C168.581 27.0733 169.174 26.96 169.854 26.96C170.147 26.96 170.421 26.98 170.674 27.02C170.927 27.06 171.167 27.1267 171.394 27.22C171.634 27.3 171.861 27.4 172.074 27.52C172.287 27.6267 172.494 27.76 172.694 27.92C172.934 28.08 173.061 28.2533 173.074 28.44C173.087 28.6267 173.014 28.82 172.854 29.02C172.734 29.1933 172.601 29.3067 172.454 29.36C172.307 29.4 172.161 29.36 172.014 29.24C171.801 29.08 171.574 28.94 171.334 28.82C171.094 28.7 170.847 28.6 170.594 28.52C170.341 28.44 170.081 28.4 169.814 28.4C169.481 28.4 169.181 28.4533 168.914 28.56C168.661 28.6533 168.461 28.8 168.314 29C168.181 29.1867 168.114 29.4 168.114 29.64C168.114 29.8533 168.167 30.0267 168.274 30.16C168.394 30.2933 168.541 30.4067 168.714 30.5C168.901 30.5933 169.114 30.68 169.354 30.76C169.607 30.8267 169.867 30.8933 170.134 30.96C170.521 31.0533 170.914 31.1667 171.314 31.3C171.727 31.42 172.094 31.5867 172.414 31.8C172.747 32 173.014 32.2733 173.214 32.62C173.427 32.9533 173.534 33.4 173.534 33.96C173.534 34.84 173.187 35.5333 172.494 36.04C171.801 36.5467 170.881 36.8 169.734 36.8Z" fill="#ED7424"/>
<rect x="119.517" y="25.5" width="3.17911" height="10.6968" rx="1.58956" transform="rotate(34.2324 119.517 25.5)" stroke="#ED7424" stroke-width="1.45"/>
<rect width="3.17911" height="5.72154" rx="1.58956" transform="matrix(-0.826762 0.562552 0.562552 0.826762 123.281 29.8713)" stroke="#ED7424" stroke-width="1.45"/>
</svg>
