<svg width="400" height="400" viewBox="0 0 400 400" fill="none" xmlns="http://www.w3.org/2000/svg">
<rect x="0.5" y="0.5" width="399" height="399" rx="199.5" fill="#F5F5F5"/>
<rect x="0.5" y="0.5" width="399" height="399" rx="199.5" stroke="#CACACA"/>
<path d="M250.305 190.854C250.305 200.804 247.354 210.53 241.827 218.802C236.299 227.075 228.443 233.522 219.251 237.33C210.059 241.137 199.944 242.134 190.186 240.193C180.428 238.252 171.464 233.46 164.429 226.425C157.394 219.39 152.603 210.426 150.662 200.668C148.721 190.91 149.717 180.795 153.524 171.603C157.332 162.411 163.779 154.555 172.052 149.027C180.325 143.5 190.051 140.549 200 140.549C213.337 140.564 226.123 145.869 235.554 155.3C244.985 164.731 250.29 177.517 250.305 190.854ZM318.902 200.001C318.902 223.517 311.929 246.506 298.864 266.059C285.798 285.613 267.228 300.853 245.502 309.852C223.775 318.852 199.868 321.206 176.803 316.618C153.738 312.03 132.552 300.706 115.923 284.077C99.2944 267.449 87.97 246.262 83.3821 223.197C78.7943 200.132 81.1489 176.225 90.1484 154.499C99.1478 132.772 114.388 114.202 133.941 101.137C153.495 88.0717 176.483 81.0981 200 81.0981C231.525 81.1314 261.749 93.6693 284.04 115.961C306.331 138.252 318.869 168.476 318.902 200.001ZM300.61 200.001C300.595 186.459 297.85 173.059 292.537 160.602C287.225 148.146 279.455 136.888 269.693 127.504C259.93 118.119 248.375 110.799 235.719 105.983C223.062 101.166 209.565 98.9512 196.033 99.4709C142.184 101.552 99.2415 146.403 99.3901 200.286C99.4418 224.816 108.489 248.475 124.817 266.78C131.467 257.136 139.913 248.863 149.695 242.417C150.529 241.866 151.52 241.603 152.518 241.67C153.515 241.736 154.463 242.127 155.217 242.783C167.647 253.534 183.532 259.45 199.966 259.45C216.4 259.45 232.284 253.534 244.714 242.783C245.468 242.127 246.416 241.736 247.414 241.67C248.411 241.603 249.402 241.866 250.236 242.417C260.03 248.86 268.489 257.132 275.149 266.78C291.558 248.408 300.622 224.634 300.61 200.001Z" fill="white"/>
</svg>
