<svg width="483" height="481" viewBox="0 0 483 481" fill="none" xmlns="http://www.w3.org/2000/svg">
<path d="M425.262 412.565C415.449 422.895 406.165 429.557 398.829 434.821C312.602 496.69 210.572 478.655 188.888 474.251C156.867 467.747 94.9712 455.176 50.222 402.552C-17.4801 322.935 -6.93788 197.502 45.5764 114.702C55.1821 99.5567 105.922 15.4953 209.051 2.0144C271.463 -6.14398 344.216 10.3106 396.902 54.4507C507.494 147.105 499.621 334.282 425.262 412.565Z" fill="#FDEDD7"/>
<g opacity="0.3">
<path d="M247.924 93.4044C247.363 92.9682 247.211 92.1697 247.595 91.5534C248.434 90.2054 249.344 88.8742 250.3 87.5961C250.765 86.9744 251.646 86.847 252.268 87.312C252.275 87.3176 252.282 87.3233 252.289 87.3288C252.892 87.7977 253.011 88.6651 252.551 89.2795C251.643 90.4936 250.779 91.7585 249.982 93.0388C249.572 93.6978 248.705 93.8997 248.046 93.4893C248.003 93.463 247.963 93.4346 247.924 93.4044ZM255.514 83.7958C255.471 83.762 255.429 83.7253 255.389 83.6857C254.836 83.1404 254.831 82.2502 255.376 81.6978C256.496 80.5632 257.676 79.4651 258.882 78.4345C259.473 77.9302 260.356 77.9993 260.864 78.59C261.368 79.1803 261.298 80.0677 260.708 80.5716C259.562 81.5513 258.441 82.5943 257.376 83.673C256.871 84.1853 256.069 84.2272 255.514 83.7958ZM265.031 76.0973C264.908 76.0012 264.798 75.8826 264.709 75.7432C264.293 75.0885 264.485 74.2196 265.139 73.8024C266.481 72.9471 267.877 72.1396 269.288 71.4023C269.976 71.0432 270.825 71.3102 271.184 71.9971C271.544 72.685 271.277 73.5344 270.589 73.8938C269.25 74.5939 267.924 75.3605 266.65 76.1727C266.135 76.5011 265.487 76.4518 265.031 76.0973ZM276.033 70.719C275.829 70.5602 275.666 70.3431 275.573 70.0815C275.313 69.3502 275.695 68.5464 276.426 68.2861C277.926 67.7525 279.468 67.2772 281.007 66.8734C281.757 66.6774 282.526 67.1262 282.723 67.8766C282.92 68.6273 282.471 69.3956 281.72 69.5926C280.258 69.9759 278.794 70.4272 277.369 70.9349C276.899 71.1017 276.399 71.0041 276.033 70.719ZM287.958 67.9293C287.672 67.7066 287.471 67.3739 287.425 66.9856C287.334 66.2145 287.884 65.5154 288.655 65.4242C290.232 65.2372 291.84 65.1147 293.433 65.0614C294.209 65.0346 294.859 65.6423 294.885 66.4185C294.911 67.1942 294.303 67.8442 293.527 67.8706C292.013 67.9212 290.485 68.0375 288.987 68.2153C288.604 68.2609 288.239 68.1484 287.958 67.9293ZM300.202 67.8468C299.831 67.5584 299.613 67.091 299.666 66.5896C299.747 65.8176 300.439 65.2577 301.211 65.3388C302.793 65.5053 304.388 65.7418 305.951 66.0422C306.713 66.1889 307.212 66.9255 307.065 67.688C306.919 68.45 306.182 68.9493 305.42 68.8029C303.935 68.5176 302.42 68.2928 300.917 68.1345C300.646 68.1061 300.402 68.0025 300.202 67.8468ZM342.908 96.8311C342.754 96.7116 342.623 96.5583 342.527 96.375C341.826 95.0377 341.056 93.713 340.24 92.438C339.822 91.7842 340.013 90.9149 340.666 90.4969C341.32 90.0782 342.189 90.269 342.608 90.9228C343.467 92.2655 344.278 93.6605 345.017 95.0686C345.377 95.7562 345.112 96.6058 344.425 96.9662C343.921 97.2309 343.329 97.1591 342.908 96.8311ZM312.152 70.4782C311.692 70.1202 311.486 69.497 311.685 68.9145C311.936 68.1796 312.735 67.7877 313.469 68.0385C314.975 68.5525 316.477 69.1386 317.933 69.7801C318.641 70.0962 318.966 70.9223 318.652 71.6331C318.34 72.3433 317.51 72.6654 316.799 72.3525C315.417 71.743 313.991 71.1867 312.561 70.6984C312.409 70.6465 312.272 70.5715 312.152 70.4782ZM336.034 86.6988C335.96 86.6419 335.891 86.5771 335.829 86.5039C334.845 85.3568 333.799 84.2373 332.719 83.1756C332.166 82.631 332.158 81.7411 332.703 81.1878C333.247 80.6347 334.139 80.6239 334.69 81.1712C335.826 82.2884 336.927 83.4664 337.962 84.6732C338.468 85.2625 338.4 86.1501 337.811 86.6553C337.295 87.0978 336.55 87.1005 336.034 86.6988ZM323.214 75.713C322.655 75.2775 322.502 74.4805 322.884 73.8645C323.293 73.2045 324.159 73.0013 324.819 73.4099C326.17 74.2473 327.503 75.1542 328.781 76.1062C328.789 76.1118 328.797 76.118 328.805 76.124C329.406 76.5923 329.526 77.458 329.068 78.0725C328.604 78.6953 327.724 78.824 327.102 78.3601C325.888 77.4563 324.622 76.595 323.338 75.7994C323.295 75.7723 323.254 75.7435 323.214 75.713Z" fill="#FAD6AE"/>
<path d="M346.681 105.951C346.463 105.781 346.292 105.545 346.204 105.261C345.988 104.569 345.754 103.87 345.51 103.183C345.249 102.452 345.63 101.647 346.361 101.387C347.092 101.126 347.898 101.507 348.157 102.239C348.415 102.961 348.661 103.696 348.887 104.424C349.118 105.165 348.705 105.954 347.964 106.184C347.507 106.327 347.032 106.224 346.681 105.951Z" fill="#FAD6AE"/>
</g>
<g opacity="0.3">
<path d="M342.438 148.591C341.902 148.174 341.733 147.419 342.07 146.806C342.419 146.171 342.761 145.518 343.085 144.865C343.43 144.169 344.274 143.886 344.969 144.231C345.667 144.578 345.948 145.42 345.603 146.115C345.261 146.802 344.902 147.49 344.535 148.159C344.161 148.839 343.306 149.088 342.626 148.714C342.559 148.678 342.496 148.636 342.438 148.591Z" fill="#FAD6AE"/>
<path d="M260.868 165.513C260.357 165.116 259.851 164.709 259.351 164.292C258.755 163.794 258.674 162.908 259.171 162.312C259.668 161.716 260.559 161.635 261.151 162.132C262.306 163.095 263.498 164.009 264.708 164.858C265.343 165.306 265.497 166.181 265.051 166.816C264.605 167.452 263.728 167.605 263.093 167.159C262.344 166.634 261.596 166.08 260.868 165.513ZM253.989 159.162C253.927 159.114 253.868 159.059 253.813 158.999C252.755 157.842 251.734 156.626 250.78 155.387C250.306 154.772 250.42 153.89 251.035 153.416C251.65 152.942 252.535 153.056 253.006 153.672C253.913 154.849 254.883 156.003 255.888 157.104C256.412 157.677 256.371 158.566 255.799 159.089C255.285 159.558 254.519 159.575 253.989 159.162ZM269.426 170.979C268.903 170.572 268.727 169.838 269.041 169.227C269.396 168.537 270.243 168.265 270.934 168.62C272.254 169.3 273.622 169.932 274.999 170.498C275.717 170.795 276.06 171.615 275.764 172.333C275.468 173.051 274.647 173.393 273.929 173.098C272.479 172.501 271.038 171.835 269.648 171.12C269.568 171.079 269.494 171.032 269.426 170.979ZM246.888 149.423C246.747 149.313 246.625 149.175 246.531 149.011C245.754 147.65 245.026 146.24 244.367 144.819C244.041 144.115 244.347 143.28 245.051 142.953C245.755 142.626 246.59 142.932 246.917 143.637C247.543 144.986 248.234 146.325 248.972 147.617C249.357 148.291 249.123 149.15 248.449 149.534C247.939 149.825 247.324 149.762 246.888 149.423ZM280.679 175.267C280.25 174.933 280.036 174.365 280.181 173.805C280.376 173.054 281.143 172.602 281.894 172.796C283.331 173.168 284.804 173.484 286.273 173.735C287.038 173.865 287.553 174.591 287.422 175.357C287.291 176.122 286.565 176.636 285.8 176.505C284.254 176.242 282.703 175.909 281.19 175.518C280.998 175.468 280.826 175.381 280.679 175.267ZM292.601 176.983C292.258 176.716 292.043 176.294 292.058 175.827C292.084 175.051 292.733 174.442 293.509 174.468C294.997 174.517 296.505 174.503 297.989 174.428C298.764 174.388 299.425 174.985 299.464 175.761C299.503 176.536 298.907 177.196 298.131 177.236C296.569 177.315 294.983 177.329 293.417 177.277C293.109 177.267 292.827 177.159 292.601 176.983ZM304.613 176.058C304.352 175.855 304.162 175.56 304.095 175.21C303.951 174.448 304.453 173.712 305.216 173.568C306.68 173.292 308.148 172.951 309.58 172.554C310.328 172.347 311.102 172.785 311.31 173.534C311.517 174.282 311.079 175.056 310.33 175.263C308.823 175.68 307.278 176.04 305.737 176.331C305.325 176.408 304.92 176.297 304.613 176.058ZM316.137 172.537C315.956 172.396 315.807 172.209 315.71 171.984C315.403 171.271 315.732 170.445 316.444 170.137C317.812 169.548 319.17 168.893 320.48 168.192C321.164 167.826 322.017 168.084 322.382 168.767C322.749 169.452 322.491 170.303 321.807 170.67C320.427 171.409 318.997 172.098 317.557 172.719C317.069 172.929 316.528 172.841 316.137 172.537ZM326.61 166.569C326.509 166.49 326.416 166.395 326.337 166.286C325.88 165.658 326.019 164.779 326.646 164.322C327.847 163.448 329.026 162.511 330.152 161.536C330.739 161.028 331.628 161.094 332.134 161.679C332.643 162.266 332.578 163.153 331.992 163.662C330.807 164.688 329.565 165.674 328.301 166.594C327.782 166.972 327.092 166.943 326.61 166.569ZM335.511 158.451C335.488 158.433 335.466 158.414 335.444 158.395C334.861 157.882 334.805 156.994 335.318 156.412C336.042 155.59 336.75 154.735 337.421 153.872C337.664 153.56 337.903 153.245 338.138 152.929C338.602 152.306 339.482 152.176 340.105 152.64C340.745 153.097 340.857 153.983 340.394 154.606C340.147 154.939 339.896 155.269 339.64 155.598C338.934 156.506 338.189 157.405 337.427 158.27C336.934 158.83 336.093 158.904 335.511 158.451Z" fill="#FAD6AE"/>
<path d="M242.098 138.329C241.878 138.157 241.706 137.918 241.618 137.631C241.395 136.904 241.184 136.158 240.989 135.414C240.793 134.663 241.243 133.895 241.994 133.698C242.745 133.502 243.513 133.951 243.709 134.702C243.894 135.409 244.095 136.118 244.306 136.809C244.533 137.55 244.116 138.337 243.374 138.564C242.919 138.703 242.447 138.6 242.098 138.329Z" fill="#FAD6AE"/>
</g>
<path d="M253.604 126.626C253.611 126.906 253.794 127.151 254.061 127.236L261.679 129.666C262.615 133.281 264.134 136.772 266.235 139.989L262.904 147.252C262.787 147.507 262.844 147.807 263.047 148.001L269.984 154.623C270.187 154.816 270.49 154.86 270.739 154.731L277.839 151.066C281.151 153.015 284.709 154.37 288.363 155.136L291.145 162.632C291.243 162.895 291.496 163.067 291.776 163.06L301.364 162.837C301.644 162.831 301.889 162.647 301.974 162.38L304.404 154.763C308.019 153.827 311.51 152.308 314.727 150.207L321.99 153.538C322.245 153.655 322.546 153.597 322.739 153.394L329.361 146.457C329.554 146.254 329.598 145.951 329.469 145.702L325.803 138.602C327.753 135.291 329.108 131.732 329.874 128.078L337.37 125.296C337.633 125.199 337.805 124.945 337.798 124.665L337.575 115.078C337.569 114.797 337.385 114.552 337.118 114.467L329.501 112.037C328.565 108.423 327.046 104.931 324.945 101.714L328.276 94.4513C328.393 94.1967 328.335 93.8958 328.132 93.7022L321.195 87.0804C320.992 86.8869 320.689 86.8433 320.44 86.9719L313.34 90.6376C310.029 88.6882 306.47 87.3334 302.816 86.5669L300.034 79.0711C299.937 78.8082 299.683 78.6362 299.403 78.6428L289.816 78.866C289.535 78.8725 289.29 79.0562 289.205 79.3231L286.775 86.9402C283.161 87.876 279.669 89.3952 276.452 91.4965L269.189 88.1651C268.935 88.0484 268.634 88.106 268.44 88.3088L261.819 95.2462C261.625 95.449 261.581 95.752 261.71 96.0011L265.376 103.101C263.427 106.412 262.072 109.971 261.305 113.625L253.809 116.407C253.546 116.504 253.375 116.757 253.381 117.038L253.604 126.626Z" fill="#FAD6AE"/>
<path d="M289.667 128.456C285.958 125.571 284.82 120.314 287.201 116.105C289.819 111.478 295.711 109.844 300.338 112.461C302.58 113.728 304.193 115.793 304.881 118.274C305.569 120.755 305.25 123.356 303.982 125.597C301.364 130.224 295.471 131.858 290.845 129.241C290.428 129.005 290.034 128.742 289.667 128.456ZM300.143 115.026C299.857 114.803 299.553 114.6 299.231 114.418C295.684 112.411 291.165 113.665 289.159 117.211C287.152 120.759 288.403 125.278 291.952 127.284C295.499 129.291 300.018 128.037 302.025 124.49C302.997 122.772 303.242 120.778 302.714 118.875C302.285 117.329 301.387 115.994 300.143 115.026Z" fill="url(#paint0_linear_12694_10306)"/>
<path d="M281.271 139.567C280.634 139.072 280.018 138.541 279.426 137.977C279.24 137.799 279.057 137.618 278.876 137.434C277.986 136.529 277.17 135.553 276.439 134.524C276.429 134.51 276.419 134.496 276.409 134.482C276.381 134.442 276.353 134.402 276.326 134.362C276.271 134.284 276.217 134.205 276.164 134.127C276.024 133.92 276.039 133.653 276.185 133.466C276.22 133.421 276.263 133.38 276.314 133.346C276.57 133.171 276.919 133.239 277.094 133.495C277.991 134.817 279.037 136.051 280.203 137.163C285.99 142.688 293.972 144.524 301.219 142.741C305.25 141.75 309.053 139.639 312.126 136.42C312.665 135.855 313.171 135.268 313.644 134.66C316.824 130.571 318.488 125.554 318.365 120.305C318.225 114.275 315.745 108.661 311.383 104.497C302.372 95.8981 288.055 96.2347 279.46 105.24C278.93 105.796 278.43 106.376 277.962 106.978C275.933 109.586 274.497 112.61 273.769 115.837C273.75 115.92 273.714 115.995 273.664 116.058C273.535 116.224 273.316 116.311 273.097 116.261C272.794 116.192 272.603 115.892 272.672 115.589C273.437 112.201 274.944 109.027 277.074 106.288C277.565 105.656 278.09 105.047 278.646 104.464C287.671 95.0089 302.707 94.6622 312.159 103.684C316.739 108.055 319.342 113.949 319.49 120.278C319.618 125.789 317.872 131.056 314.533 135.349C314.037 135.987 313.505 136.604 312.94 137.196C308.568 141.776 302.674 144.38 296.345 144.527C290.833 144.656 285.565 142.908 281.271 139.567Z" fill="url(#paint1_linear_12694_10306)"/>
<g opacity="0.3">
<path d="M187.323 93.1891C187.027 92.9585 186.904 92.5528 187.049 92.1855C187.319 91.5 187.614 90.8132 187.926 90.1444C188.128 89.71 188.644 89.5217 189.079 89.7237C189.515 89.9245 189.702 90.4425 189.5 90.8769C189.203 91.5141 188.922 92.1687 188.664 92.8229C188.489 93.2685 187.984 93.4873 187.538 93.312C187.459 93.2807 187.387 93.2388 187.323 93.1891Z" fill="#FAD6AE"/>
<path d="M190.332 87.2278C189.985 86.9576 189.892 86.4631 190.131 86.0826C190.804 85.007 191.541 83.9539 192.319 82.9529C192.483 82.7422 192.65 82.5325 192.82 82.3238C193.122 81.9516 193.678 81.9251 194.041 82.1969C194.413 82.4992 194.47 83.046 194.168 83.4181C194.006 83.6175 193.846 83.8177 193.69 84.019C192.947 84.9739 192.244 85.9783 191.602 87.0037C191.347 87.4104 190.812 87.5332 190.405 87.2791C190.38 87.2626 190.356 87.2458 190.332 87.2278ZM196.017 80.2321C195.984 80.2069 195.953 80.1791 195.924 80.149C195.591 79.8033 195.601 79.2538 195.946 78.9209C197.054 77.8534 198.238 76.8454 199.464 75.9253C199.848 75.6373 200.393 75.7175 200.68 76.0987C200.967 76.4826 200.89 77.0259 200.507 77.314C199.336 78.1921 198.207 79.1536 197.151 80.1716C196.836 80.4746 196.352 80.4931 196.017 80.2321ZM203.227 74.8238C203.14 74.7561 203.065 74.6707 203.007 74.5696C202.769 74.1534 202.914 73.6229 203.33 73.3849C204.664 72.6233 206.06 71.9361 207.479 71.3445C207.922 71.1597 208.429 71.3682 208.615 71.8119C208.799 72.2541 208.59 72.7627 208.148 72.947C206.794 73.5115 205.463 74.1658 204.192 74.8928C203.877 75.0723 203.497 75.0334 203.227 74.8238ZM211.547 71.3536C211.405 71.2432 211.297 71.088 211.244 70.9021C211.116 70.4404 211.386 69.961 211.848 69.8327C213.331 69.4202 214.851 69.0961 216.369 68.8698C216.843 68.7995 217.284 69.1277 217.355 69.6006C217.426 70.0747 217.099 70.5163 216.625 70.5873C215.178 70.8027 213.727 71.112 212.314 71.5053C212.038 71.582 211.757 71.5168 211.547 71.3536ZM220.462 70.0208C220.264 69.8667 220.134 69.628 220.127 69.3573C220.115 68.8784 220.493 68.4801 220.973 68.4672C222.509 68.4283 224.062 68.4831 225.589 68.6313C226.067 68.6767 226.416 69.1016 226.37 69.579C226.323 70.0563 225.899 70.4059 225.422 70.3593C223.965 70.2182 222.483 70.1654 221.017 70.2033C220.808 70.2086 220.615 70.1396 220.462 70.0208ZM229.429 70.8919C229.173 70.6923 229.039 70.3553 229.115 70.0167C229.22 69.5491 229.684 69.2549 230.151 69.359C231.651 69.6942 233.144 70.1264 234.588 70.6439C235.04 70.8077 235.274 71.3032 235.112 71.7543C234.951 72.2054 234.453 72.4403 234.002 72.2786C232.625 71.7852 231.202 71.3732 229.773 71.0537C229.643 71.0249 229.527 70.9682 229.429 70.8919ZM237.909 73.9281C237.588 73.6783 237.478 73.2284 237.668 72.8522C237.884 72.4244 238.406 72.2528 238.834 72.4688C240.202 73.1596 241.543 73.9454 242.822 74.8041C243.217 75.0786 243.326 75.6119 243.058 76.0093C242.791 76.4073 242.252 76.5131 241.854 76.2461C240.634 75.4262 239.355 74.6767 238.051 74.0181C238 73.9924 237.953 73.9621 237.909 73.9281ZM248.615 82.1172C248.575 82.0865 248.537 82.0517 248.503 82.0128C247.655 81.073 246.741 80.163 245.786 79.3083C245.642 79.178 245.499 79.0518 245.355 78.9276C244.992 78.6135 244.952 78.0657 245.266 77.703C245.58 77.3392 246.139 77.291 246.49 77.6139C246.644 77.7469 246.796 77.8805 246.947 78.0172C247.945 78.9105 248.903 79.8643 249.792 80.8501C250.113 81.2064 250.085 81.7547 249.728 82.0759C249.411 82.3622 248.941 82.3711 248.615 82.1172Z" fill="#FAD6AE"/>
</g>
<g opacity="0.3">
<path d="M199.317 135.851C198.943 135.56 198.872 135.02 199.159 134.641C199.448 134.259 199.993 134.184 200.375 134.473C201.525 135.345 202.739 136.154 203.982 136.877C204.391 137.12 204.537 137.649 204.296 138.064C204.054 138.479 203.523 138.618 203.108 138.378C201.805 137.618 200.533 136.771 199.327 135.858C199.324 135.856 199.32 135.853 199.317 135.851ZM195.944 132.961C195.92 132.942 195.896 132.922 195.873 132.899C194.786 131.849 193.752 130.723 192.799 129.551C192.497 129.178 192.553 128.632 192.925 128.33C193.297 128.026 193.845 128.086 194.147 128.455C195.056 129.574 196.043 130.649 197.08 131.651C197.425 131.984 197.434 132.533 197.101 132.878C196.789 133.201 196.29 133.23 195.944 132.961ZM206.979 140.308C206.675 140.071 206.556 139.652 206.715 139.281C206.903 138.841 207.413 138.636 207.854 138.825C209.182 139.392 210.555 139.883 211.937 140.285C212.398 140.421 212.662 140.9 212.528 141.361C212.394 141.821 211.912 142.086 211.451 141.952C210.003 141.531 208.563 141.016 207.172 140.421C207.101 140.391 207.037 140.352 206.979 140.308ZM190.355 126.075C190.277 126.015 190.208 125.94 190.152 125.851C189.349 124.57 188.617 123.226 187.977 121.857C187.773 121.423 187.961 120.906 188.395 120.702C188.828 120.5 189.345 120.688 189.549 121.121C190.16 122.427 190.858 123.707 191.623 124.929C191.878 125.336 191.755 125.872 191.349 126.126C191.031 126.325 190.634 126.293 190.355 126.075ZM215.491 142.78C215.248 142.591 215.113 142.279 215.166 141.955C215.243 141.481 215.689 141.16 216.163 141.237C217.584 141.469 219.035 141.616 220.475 141.673C220.955 141.692 221.328 142.096 221.308 142.575C221.289 143.055 220.885 143.428 220.406 143.408C218.896 143.347 217.374 143.194 215.884 142.951C215.735 142.927 215.601 142.866 215.491 142.78ZM224.347 143.138C224.161 142.994 224.035 142.775 224.014 142.523C223.976 142.045 224.332 141.626 224.81 141.588C226.249 141.471 227.694 141.267 229.104 140.98C229.574 140.884 230.032 141.188 230.128 141.657C230.224 142.127 229.92 142.585 229.451 142.68C227.973 142.981 226.458 143.196 224.95 143.318C224.725 143.336 224.512 143.267 224.347 143.138ZM233.035 141.365C232.905 141.263 232.801 141.124 232.745 140.955C232.593 140.5 232.839 140.008 233.294 139.856C234.663 139.4 236.017 138.854 237.316 138.236C237.748 138.031 238.267 138.214 238.473 138.647C238.679 139.08 238.495 139.598 238.062 139.804C236.699 140.452 235.28 141.024 233.843 141.504C233.557 141.599 233.257 141.537 233.035 141.365Z" fill="#FAD6AE"/>
<path d="M186.582 118.006C186.45 117.904 186.346 117.762 186.29 117.59C186.06 116.884 185.85 116.167 185.665 115.461C185.544 114.997 185.822 114.522 186.285 114.401C186.749 114.281 187.223 114.558 187.345 115.021C187.521 115.695 187.722 116.379 187.941 117.053C188.09 117.509 187.84 117.999 187.384 118.147C187.1 118.239 186.802 118.177 186.582 118.006Z" fill="#FAD6AE"/>
</g>
<path d="M194.037 109.598C194.041 109.786 194.164 109.95 194.342 110.007L199.439 111.633C200.065 114.051 201.082 116.388 202.488 118.54L200.259 123.4C200.181 123.571 200.219 123.772 200.355 123.901L204.997 128.332C205.133 128.462 205.336 128.491 205.502 128.405L210.253 125.952C212.469 127.256 214.85 128.163 217.295 128.676L219.157 133.692C219.222 133.868 219.392 133.983 219.579 133.979L225.995 133.829C226.183 133.825 226.347 133.702 226.404 133.523L228.029 128.426C230.448 127.8 232.785 126.784 234.937 125.378L239.797 127.607C239.967 127.685 240.169 127.646 240.298 127.511L244.729 122.868C244.859 122.733 244.888 122.53 244.802 122.363L242.349 117.612C243.653 115.396 244.56 113.015 245.073 110.57L250.089 108.709C250.264 108.644 250.38 108.474 250.375 108.286L250.226 101.871C250.222 101.683 250.099 101.519 249.92 101.462L244.823 99.8362C244.197 97.4174 243.18 95.0811 241.774 92.9284L244.003 88.0684C244.081 87.898 244.043 87.6967 243.907 87.5672L239.265 83.1363C239.129 83.0068 238.926 82.9777 238.76 83.0637L234.009 85.5167C231.793 84.2124 229.412 83.3057 226.967 82.7927L225.105 77.7769C225.04 77.6009 224.871 77.4859 224.683 77.4904L218.267 77.6397C218.08 77.6442 217.916 77.7669 217.859 77.9456L216.233 83.0427C213.814 83.6688 211.478 84.6854 209.325 86.0916L204.465 83.8624C204.295 83.7842 204.093 83.8228 203.964 83.9586L199.533 88.6008C199.404 88.7366 199.374 88.9393 199.46 89.1059L201.913 93.8568C200.609 96.0726 199.702 98.4537 199.189 100.899L194.173 102.76C193.998 102.826 193.883 102.995 193.887 103.183L194.037 109.598Z" fill="#FAD6AE"/>
<path d="M218.088 110.91C216.983 110.05 216.185 108.864 215.804 107.49C215.335 105.8 215.553 104.028 216.417 102.502C218.199 99.3509 222.213 98.2373 225.365 100.019C228.517 101.81 229.63 105.817 227.847 108.968C226.983 110.495 225.577 111.594 223.887 112.063C222.197 112.532 220.425 112.315 218.898 111.45C218.613 111.288 218.342 111.108 218.088 110.91ZM225.1 101.924C224.916 101.781 224.719 101.649 224.51 101.531C222.192 100.22 219.239 101.039 217.928 103.357C217.293 104.48 217.132 105.783 217.477 107.026C217.822 108.27 218.631 109.303 219.754 109.939C220.876 110.575 222.18 110.735 223.423 110.39C224.666 110.045 225.701 109.237 226.336 108.113C227.529 106.005 226.959 103.37 225.1 101.924Z" fill="url(#paint2_linear_12694_10306)"/>
<path d="M212.235 118.636C211.802 118.299 211.382 117.937 210.976 117.55C210.171 116.781 209.442 115.93 208.81 115.018C208.782 114.976 208.754 114.935 208.726 114.894C208.509 114.575 208.534 114.163 208.758 113.874C208.813 113.803 208.88 113.741 208.957 113.688C209.353 113.419 209.892 113.524 210.162 113.919C210.744 114.777 211.421 115.575 212.174 116.293L212.175 116.294C212.216 116.333 212.258 116.372 212.299 116.411C214.097 118.094 216.246 119.265 218.568 119.868C219.828 120.196 221.14 120.355 222.475 120.336C222.486 120.336 222.497 120.336 222.508 120.336C222.541 120.335 222.574 120.335 222.607 120.334C226.511 120.242 230.145 118.637 232.841 115.813C233.19 115.448 233.517 115.067 233.823 114.674C235.882 112.027 236.959 108.779 236.88 105.38C236.789 101.477 235.183 97.8428 232.36 95.1474C229.536 92.4546 225.83 91.0172 221.927 91.1074C218.024 91.1985 214.389 92.8039 211.694 95.6282C211.35 95.9873 211.027 96.3631 210.724 96.7525C209.41 98.4418 208.481 100.399 208.01 102.487C207.981 102.616 207.925 102.732 207.848 102.829C207.648 103.086 207.311 103.22 206.972 103.143C206.505 103.036 206.211 102.573 206.317 102.104C206.844 99.7673 207.884 97.5772 209.353 95.6877C209.692 95.2515 210.054 94.8314 210.437 94.4295C213.454 91.2695 217.52 89.4734 221.887 89.3717C226.254 89.2704 230.399 90.8713 233.558 93.891C236.718 96.9068 238.515 100.972 238.616 105.34C238.705 109.142 237.5 112.775 235.196 115.737C234.854 116.177 234.487 116.603 234.097 117.011C228.258 123.129 218.772 123.721 212.235 118.636Z" fill="url(#paint3_linear_12694_10306)"/>
<path d="M482.139 34.6747C482.823 32.7426 480.178 31.118 478.317 32.3157C459.425 44.477 413.118 82.023 415.419 156.779C418.307 250.571 392.324 281.825 362.332 299.336C362.332 299.336 401.482 293.852 429.202 262.287C497.26 184.787 469.982 69.0269 482.139 34.6747Z" fill="#FAD6AE"/>
<path d="M465.768 62.0713C462.469 72.1149 459.402 82.2159 456.769 92.4116C454.075 102.592 451.74 112.848 449.781 123.163C447.867 133.484 446.179 143.842 445.003 154.26C443.773 164.672 443.063 175.132 442.392 185.637C441.654 196.132 440.979 206.709 439.05 217.224C437.136 227.719 433.737 238.145 428.22 247.662C426.842 250.033 425.408 252.391 423.825 254.647C422.29 256.931 420.636 259.154 418.936 261.348C415.509 265.724 411.734 269.9 407.609 273.804C399.334 281.595 389.656 288.249 379.208 293.633C378.108 294.2 376.658 293.871 375.969 292.9C375.292 291.946 375.6 290.726 376.653 290.146L376.66 290.142C379.156 288.769 381.63 287.372 384.02 285.883C385.23 285.155 386.398 284.381 387.583 283.627C388.732 282.834 389.919 282.08 391.038 281.257C395.577 278.03 399.84 274.524 403.772 270.753C411.671 263.255 418.28 254.659 423.569 245.576C426.155 241.005 428.341 236.267 430.092 231.387C431.84 226.506 433.153 221.488 434.134 216.393C436.098 206.197 436.866 195.735 437.692 185.248C438.533 174.761 439.462 164.229 440.891 153.761C441.589 148.526 442.396 143.304 443.311 138.101C443.751 135.497 444.25 132.903 444.743 130.308C445.265 127.717 445.803 125.13 446.366 122.548C448.64 112.224 451.278 101.976 454.289 91.8237C457.357 81.6859 460.737 71.6308 464.563 61.7179C464.672 61.4344 465.029 61.289 465.36 61.3929C465.68 61.4943 465.858 61.7947 465.768 62.0713Z" fill="white"/>
<path d="M396.325 293.621C398.052 296.976 402.643 297.477 405.09 294.605C418.594 278.762 452.724 230.514 439.68 159.842C428.664 100.163 428.362 66.7556 429.276 51.5805C429.47 48.3716 425.454 46.7811 423.393 49.2481C400.652 76.4657 333.768 172.062 396.325 293.621Z" fill="#F6B97B"/>
<path d="M401.395 292.998C401.479 293.04 401.568 293.073 401.662 293.099C402.447 293.312 403.256 292.848 403.469 292.063C403.711 291.173 427.506 202.107 415.938 118.435C415.827 117.63 415.083 117.067 414.277 117.178C413.471 117.29 412.908 118.033 413.019 118.839C424.503 201.902 400.866 290.407 400.626 291.291C400.438 291.983 400.775 292.693 401.395 292.998Z" fill="white"/>
<path d="M41.2657 373.431C41.2657 377.505 44.6023 380.839 48.6804 380.839H449.638C453.716 380.839 457.053 377.505 457.053 373.431L460.389 143.011C460.389 138.937 455.589 130.984 446.792 131.581L54.9319 121.442C49.815 121.309 44.8676 123.279 41.2442 126.891C37.6209 130.502 35.6382 135.44 35.7591 140.552L41.2657 373.431Z" fill="url(#paint4_linear_12694_10306)"/>
<path d="M48.5877 366.323C48.5877 370.181 51.7444 373.338 55.6024 373.338H439.971C443.829 373.338 446.986 370.181 446.986 366.323L450.134 157.146C449.763 144.558 438.727 140.034 432.037 140.301L56.4748 130.225C52.8801 130.129 49.4044 131.514 46.8583 134.054C44.3123 136.593 42.912 140.069 43.0021 143.663L48.5877 366.323Z" fill="#FDEDD7"/>
<path d="M442.832 266.873C442.827 266.873 442.822 266.873 442.817 266.873C442.292 266.865 441.873 266.433 441.881 265.908L442.13 248.944C442.138 248.42 442.568 248.038 443.094 248.008C443.619 248.015 444.039 248.448 444.031 248.973L443.782 265.936C443.774 266.456 443.35 266.873 442.832 266.873Z" fill="#91B3FA"/>
<path d="M443.442 225.301C443.437 225.301 443.432 225.301 443.427 225.301C442.902 225.293 442.483 224.861 442.491 224.336L443.445 159.364C443.427 155.481 442.247 152.381 439.939 150.169C435.637 146.048 428.812 146.261 428.521 146.27L308.488 143.051C307.963 143.038 307.549 142.6 307.563 142.076C307.577 141.56 307.999 141.15 308.513 141.15C308.521 141.15 308.53 141.15 308.539 141.151L428.506 144.37C429.25 144.335 436.459 144.203 441.254 148.796C443.949 151.379 445.326 154.938 445.346 159.373L444.391 224.364C444.384 224.884 443.96 225.301 443.442 225.301Z" fill="#91B3FA"/>
<path d="M9.18734 399.966H481.003C481.25 399.966 481.452 399.764 481.452 399.517V380.17C481.452 379.923 481.25 379.721 481.003 379.721H9.18734C8.94026 379.721 8.73828 379.923 8.73828 380.17V399.517C8.73828 399.764 8.94043 399.966 9.18734 399.966Z" fill="url(#paint5_linear_12694_10306)"/>
<path d="M390.742 347.853H92.7025C82.7261 347.853 74.6387 339.766 74.6387 329.789V185.039C74.6387 174.948 82.9056 166.814 92.9951 166.977L391.034 171.807C400.895 171.966 408.805 180.006 408.805 189.868V329.789C408.805 339.766 400.718 347.853 390.742 347.853Z" fill="#FAD6AE"/>
<path d="M240.388 316.703C205.26 316.703 176.682 288.124 176.682 252.997C176.682 217.87 205.26 189.291 240.388 189.291C275.516 189.291 304.094 217.869 304.094 252.997C304.094 288.125 275.516 316.703 240.388 316.703ZM240.388 199.967C211.147 199.967 187.357 223.756 187.357 252.997C187.357 282.238 211.147 306.027 240.388 306.027C269.629 306.027 293.418 282.238 293.418 252.997C293.418 223.756 269.629 199.967 240.388 199.967Z" fill="#BDD0FB"/>
<path fill-rule="evenodd" clip-rule="evenodd" d="M220.43 277.532V231.732C220.43 226.838 225.757 223.805 229.965 226.302L268.558 249.202C272.68 251.648 272.68 257.615 268.558 260.061L229.965 282.961C225.757 285.459 220.43 282.425 220.43 277.532Z" fill="white"/>
<path opacity="0.58" d="M393.061 349.311H105.683C102.753 349.311 100.377 347.07 100.377 344.306C100.377 341.542 102.753 339.301 105.434 339.301H392.811C395.991 339.301 398.367 341.542 398.367 344.306C398.367 347.07 395.991 349.311 393.061 349.311Z" fill="white"/>
<path d="M223.971 349.311H105.382C102.618 349.311 100.377 347.07 100.377 344.306C100.377 341.542 102.618 339.301 105.382 339.301H223.971C226.735 339.301 228.976 341.542 228.976 344.306C228.976 347.07 226.735 349.311 223.971 349.311Z" fill="url(#paint6_linear_12694_10306)"/>
<path d="M224.271 353.355C229.729 353.355 234.154 348.93 234.154 343.472C234.154 338.014 229.729 333.59 224.271 333.59C218.813 333.59 214.389 338.014 214.389 343.472C214.389 348.93 218.813 353.355 224.271 353.355Z" fill="url(#paint7_linear_12694_10306)"/>
<path d="M125.848 107.35L133.02 133.197C133.994 136.706 133.403 140.465 131.389 143.498C126.33 151.116 113.964 164.872 87.7438 171.89C61.1139 179.016 46.0382 171.684 39.5508 166.853C37.2017 165.104 35.4943 162.634 34.6869 159.818L26.8359 132.445L125.848 107.35Z" fill="url(#paint8_linear_12694_10306)"/>
<path d="M69.0776 74.0793L143.662 94.9724C147.502 96.0481 148.591 100.971 145.56 103.563C130.776 116.208 97.1752 145.66 84.4493 162.765C83.0878 164.595 80.6556 165.259 78.5484 164.387L3.08225 133.148C-0.331407 131.735 -1.07933 127.232 1.697 124.794C16.3382 111.94 53.5978 79.7557 65.7099 74.3217C66.7685 73.8468 67.9602 73.7662 69.0776 74.0793Z" fill="url(#paint9_linear_12694_10306)"/>
<path d="M70.6909 112.609C70.6909 112.609 30.9278 137.691 27.8979 143.421C24.8678 149.151 30.9676 175.2 30.9676 175.2C24.7076 197.247 23.7809 221.188 34.3547 233.712C34.3547 233.712 47.3906 204.72 41.5671 192.501C35.7435 180.281 33.4989 175.272 33.4989 175.272C33.4989 175.272 28.4042 147.503 30.0154 143.534C30.0154 143.534 74.0654 114.198 70.6909 112.609Z" fill="url(#paint10_linear_12694_10306)"/>
<path opacity="0.63" d="M133.625 101.889L95.4539 139.543L85.9111 148.956L83.5254 151.309L82.3346 152.48C81.9626 152.845 81.5421 153.157 81.1002 153.432C79.3218 154.526 77.0554 154.785 75.0676 154.087L49.6476 145.572C49.4469 145.504 49.2297 145.612 49.1625 145.813C49.0956 146.013 49.2026 146.229 49.4013 146.297L74.7562 155.005C76.9906 155.809 79.5884 155.542 81.6283 154.305C82.1365 153.995 82.6199 153.64 83.0492 153.226L84.257 152.056L86.6604 149.721L96.2743 140.381L134.73 103.018C135.042 102.714 135.05 102.214 134.746 101.901C134.442 101.589 133.942 101.582 133.629 101.885L133.625 101.889Z" fill="white"/>
<path opacity="0.63" d="M33.8785 188.595L33.9539 188.675L34.0422 188.78L34.2211 188.991L34.5643 189.453C34.791 189.765 34.9894 190.108 35.2049 190.433L35.7712 191.475C35.9475 191.831 36.1018 192.199 36.269 192.56C36.4447 192.917 36.5752 193.296 36.7112 193.673C36.8446 194.05 36.9929 194.423 37.1153 194.805L37.4403 195.966C37.545 196.355 37.6717 196.738 37.7369 197.137L37.9737 198.325C38.0491 198.722 38.146 199.115 38.1815 199.52C38.2763 200.324 38.3848 201.128 38.4699 201.935L38.587 204.371C38.5949 204.574 38.6113 204.777 38.612 204.981L38.5978 205.591L38.5695 206.814C38.5831 208.447 38.36 210.07 38.2286 211.7C38.2021 212.109 38.1355 212.512 38.0697 212.917L37.8787 214.13C37.7477 214.938 37.6326 215.749 37.4884 216.556C37.127 218.155 36.799 219.764 36.4098 221.358L35.0729 226.103L35.0689 226.117C35.0278 226.263 35.1128 226.415 35.2587 226.456C35.4023 226.496 35.5514 226.414 35.5953 226.273L37.0648 221.534C37.4989 219.938 37.8722 218.324 38.2791 216.718C38.4461 215.906 38.5841 215.088 38.7381 214.273L38.9634 213.049C39.0405 212.641 39.1184 212.234 39.1566 211.82C39.3339 210.168 39.6022 208.524 39.6331 206.855L39.6943 205.607L39.7248 204.983C39.7295 204.774 39.7183 204.565 39.7159 204.357L39.6604 201.851C39.595 201.018 39.505 200.184 39.4277 199.35C39.4013 198.931 39.3123 198.519 39.2447 198.105L39.0301 196.862C38.9721 196.445 38.8512 196.039 38.752 195.629L38.442 194.402C38.3236 193.996 38.1781 193.597 38.0467 193.195C37.913 192.792 37.7844 192.388 37.6073 191.999C37.4391 191.608 37.2837 191.211 37.1037 190.824L36.5185 189.678C36.2904 189.31 36.0835 188.933 35.8354 188.571L35.4551 188.031L35.2421 187.765L35.1337 187.631L35.0005 187.483C34.7085 187.16 34.2094 187.134 33.8857 187.426C33.5619 187.718 33.5362 188.217 33.8282 188.541C33.8311 188.544 33.8341 188.547 33.837 188.55L33.8785 188.595Z" fill="white"/>
<path opacity="0.63" d="M32.6635 198.856L32.6653 200.408L32.652 202.157L32.6062 205.663L32.486 212.677L32.2032 226.71C32.1978 226.947 32.3853 227.143 32.6223 227.149C32.8553 227.154 33.0494 226.971 33.0609 226.739L33.7041 212.716L34.0045 205.702L34.1404 202.191L34.1991 200.433L34.2209 199.546L34.2296 199.1C34.2284 198.909 34.2152 198.682 34.196 198.476C34.1567 198.054 33.7824 197.743 33.3599 197.783C32.9623 197.82 32.6638 198.154 32.6629 198.545L32.6635 198.856Z" fill="white"/>
<defs>
<linearGradient id="paint0_linear_12694_10306" x1="285.953" y1="120.851" x2="305.236" y2="120.851" gradientUnits="userSpaceOnUse">
<stop stop-color="#DAE3FE"/>
<stop offset="1" stop-color="#E9EFFD"/>
</linearGradient>
<linearGradient id="paint1_linear_12694_10306" x1="272.658" y1="120.836" x2="319.496" y2="120.836" gradientUnits="userSpaceOnUse">
<stop stop-color="#DAE3FE"/>
<stop offset="1" stop-color="#E9EFFD"/>
</linearGradient>
<linearGradient id="paint2_linear_12694_10306" x1="215.562" y1="105.737" x2="228.697" y2="105.737" gradientUnits="userSpaceOnUse">
<stop stop-color="#DAE3FE"/>
<stop offset="1" stop-color="#E9EFFD"/>
</linearGradient>
<linearGradient id="paint3_linear_12694_10306" x1="206.295" y1="105.717" x2="238.62" y2="105.717" gradientUnits="userSpaceOnUse">
<stop stop-color="#DAE3FE"/>
<stop offset="1" stop-color="#E9EFFD"/>
</linearGradient>
<linearGradient id="paint4_linear_12694_10306" x1="285.783" y1="363.125" x2="191.085" y2="79.0314" gradientUnits="userSpaceOnUse">
<stop stop-color="#09005D"/>
<stop offset="1" stop-color="#1A0F91"/>
</linearGradient>
<linearGradient id="paint5_linear_12694_10306" x1="243.899" y1="396.754" x2="252.118" y2="349.268" gradientUnits="userSpaceOnUse">
<stop stop-color="#09005D"/>
<stop offset="1" stop-color="#1A0F91"/>
</linearGradient>
<linearGradient id="paint6_linear_12694_10306" x1="100.377" y1="344.306" x2="228.976" y2="344.306" gradientUnits="userSpaceOnUse">
<stop stop-color="#FF928E"/>
<stop offset="1" stop-color="#FE7062"/>
</linearGradient>
<linearGradient id="paint7_linear_12694_10306" x1="240.777" y1="323.534" x2="202.05" y2="370.313" gradientUnits="userSpaceOnUse">
<stop stop-color="#E1473D"/>
<stop offset="1" stop-color="#E9605A"/>
</linearGradient>
<linearGradient id="paint8_linear_12694_10306" x1="189.453" y1="297.932" x2="102.459" y2="167.441" gradientUnits="userSpaceOnUse">
<stop stop-color="#4F52FF"/>
<stop offset="1" stop-color="#4042E2"/>
</linearGradient>
<linearGradient id="paint9_linear_12694_10306" x1="82.931" y1="161.54" x2="66.6914" y2="78.6022" gradientUnits="userSpaceOnUse">
<stop stop-color="#4F52FF"/>
<stop offset="1" stop-color="#4042E2"/>
</linearGradient>
<linearGradient id="paint10_linear_12694_10306" x1="66.8988" y1="104.008" x2="124.315" y2="-31.7022" gradientUnits="userSpaceOnUse">
<stop stop-color="#4F52FF"/>
<stop offset="1" stop-color="#4042E2"/>
</linearGradient>
</defs>
</svg>
