<svg width="400" height="401" viewBox="0 0 400 401" fill="none" xmlns="http://www.w3.org/2000/svg">
<path d="M251.641 200.973L389.299 63.3164C403.567 49.0572 403.567 25.936 389.299 11.6677C375.04 -2.59141 351.918 -2.59141 337.659 11.6677L200.001 149.334L62.3342 11.6677C48.075 -2.59141 24.9537 -2.59141 10.6944 11.6677C-3.56481 25.936 -3.56481 49.0572 10.6944 63.3164L148.352 200.973L10.6944 338.63C-3.56481 352.89 -3.56481 376.02 10.6944 390.279C17.824 397.409 27.1669 400.973 36.5189 400.973C45.8618 400.973 55.2046 397.409 62.3342 390.279L200.001 252.613L337.659 390.279C344.789 397.409 354.131 400.973 363.483 400.973C372.826 400.973 382.169 397.409 389.299 390.279C403.567 376.02 403.567 352.89 389.299 338.63L251.641 200.973Z" fill="#F25A4E"/>
</svg>
