<svg width="450" height="400" viewBox="0 0 450 400" fill="none" xmlns="http://www.w3.org/2000/svg">
<path d="M440.58 9.5628C434.453 3.8616 426.409 -0.36343 417.844 0.02471C414.997 0.41285 412.144 0.80104 409.297 1.18918C403.849 2.73538 399.123 5.52233 395.107 9.5628C327.916 62.6807 269.07 125.114 217.527 193.738C192.302 227.335 168.925 262.547 148.369 299.319C121.598 260.104 87.1981 226.266 48.1352 199.624C41.4739 195.081 30.8913 194.235 23.3564 196.341C15.8971 198.422 7.81552 204.256 4.13924 211.3C-4.43875 227.736 0.75201 245.667 15.6771 255.847C20.761 259.315 25.7445 262.917 30.6462 266.645C51.1014 283.125 69.6273 301.909 85.8972 322.639C100.031 341.728 112.197 362.217 122.126 383.876C126.764 393.993 139.395 400 149.89 400C160.127 400 173.349 394.038 177.654 383.876C181.946 373.753 186.973 363.916 192.038 354.18C205.769 327.78 221.034 302.201 237.354 277.367C249.262 259.251 261.787 241.556 274.839 224.262C311.137 177.093 351.513 133.138 395.692 93.4329C410.252 80.3443 425.234 67.7393 440.58 55.5988C446.613 50.8329 450 39.9142 450 32.5777C450 24.5922 446.5 15.054 440.58 9.5628Z" fill="#33B540"/>
</svg>
