<svg width="125" height="135" viewBox="0 0 125 135" fill="none" xmlns="http://www.w3.org/2000/svg">
<g id="noun-schedule-7410747 1" clip-path="url(#clip0_5354_51221)">
<path id="Vector" d="M62.6738 70.5599C63.0391 69.7545 62.6828 68.8072 61.8774 68.442C61.0719 68.0768 60.1247 68.433 59.7595 69.2384L57.3333 74.5891C56.8081 75.7475 56.7645 77.0694 57.2125 78.2607L58.3387 81.2556C58.6498 82.0829 59.572 82.501 60.3993 82.1899C61.2266 81.8788 61.6447 80.9566 61.3336 80.1294L60.2074 77.1345C60.058 76.7374 60.0721 76.2977 60.2476 75.9106L62.6738 70.5599Z" fill="#F6B97B"/>
<path id="Vector_2" fill-rule="evenodd" clip-rule="evenodd" d="M52.6414 32.6325C53.5538 30.6204 55.9241 29.729 57.9363 30.6414C59.9484 31.5538 60.8398 33.9241 59.9274 35.9363L64.299 37.9185C65.2114 35.9063 67.5817 35.015 69.5938 35.9273C71.606 36.8397 72.4973 39.21 71.585 41.2222L75.9565 43.2044C76.8689 41.1922 79.2392 40.3009 81.2514 41.2133C83.2636 42.1257 84.1549 44.496 83.2425 46.5081L87.6141 48.4904C88.5265 46.4782 90.8968 45.5868 92.909 46.4992C94.9211 47.4116 95.8125 49.7819 94.9001 51.7941L94.8859 51.8254C99.2064 54.2305 101.028 59.5891 98.9502 64.1713L84.7443 95.501C82.5543 100.331 76.8664 102.47 72.0366 100.28L63.2935 96.3153C59.0298 98.6505 53.7601 99.0197 48.9929 96.8581C44.2257 94.6965 41.0309 90.4891 39.9783 85.7434L31.2352 81.7789C26.4054 79.589 24.2664 73.9011 26.4564 69.0713L40.6624 37.7416C42.7401 33.1594 47.9711 30.9988 52.6272 32.6638L52.6414 32.6325ZM73.3581 97.3654L66.3169 94.1726C67.9058 92.7417 69.2328 90.9656 70.1723 88.8936C73.8219 80.8448 70.2565 71.3638 62.2078 67.7142C54.159 64.0647 44.678 67.63 41.0284 75.6788C40.0889 77.7508 39.6272 79.9192 39.5979 82.0573L32.5566 78.8646C29.3377 77.405 27.9112 73.6118 29.3708 70.3928L41.2642 44.1633L93.7232 67.95L81.8299 94.1795C80.3703 97.3985 76.5771 98.8249 73.3581 97.3654ZM53.3111 40.8418C55.3232 41.7542 57.6935 40.8628 58.6059 38.8506L62.9775 40.8329C62.0651 42.845 62.9565 45.2153 64.9686 46.1277C66.9808 47.0401 69.3511 46.1487 70.2635 44.1366L74.6351 46.1188C73.7227 48.131 74.614 50.5013 76.6262 51.4137C78.6384 52.326 81.0087 51.4347 81.921 49.4225L86.2926 51.4047C85.3802 53.4169 86.2716 55.7872 88.2838 56.6996C90.2817 57.6055 92.6302 56.7318 93.558 54.754C96.2699 56.416 97.3831 59.8785 96.0358 62.8498L95.0447 65.0356L42.5857 41.2489L43.5768 39.0631C44.9241 36.0918 48.2621 34.6477 51.2993 35.5925C50.4228 37.5935 51.3131 39.9358 53.3111 40.8418ZM56.6148 33.5558C56.2135 33.3738 55.7378 33.5527 55.5558 33.954L54.2343 36.8684C54.0524 37.2697 54.2312 37.7454 54.6325 37.9274C55.0338 38.1093 55.5096 37.9305 55.6915 37.5292L57.013 34.6148C57.195 34.2135 57.0161 33.7378 56.6148 33.5558ZM68.2723 38.8417C67.871 38.6598 67.3953 38.8387 67.2134 39.24L65.8919 42.1544C65.7099 42.5557 65.8888 43.0314 66.2901 43.2133C66.6914 43.3953 67.1671 43.2164 67.3491 42.8151L68.6706 39.9007C68.8525 39.4994 68.6736 39.0237 68.2723 38.8417ZM79.9299 44.1277C79.5286 43.9457 79.0529 44.1246 78.8709 44.5259L77.5495 47.4403C77.3675 47.8416 77.5464 48.3173 77.9477 48.4993C78.349 48.6812 78.8247 48.5023 79.0066 48.101L80.3281 45.1866C80.5101 44.7853 80.3312 44.3096 79.9299 44.1277ZM91.5875 49.4136C91.1862 49.2316 90.7105 49.4105 90.5285 49.8118L89.207 52.7262C89.0251 53.1275 89.2039 53.6032 89.6052 53.7852C90.0065 53.9672 90.4823 53.7883 90.6642 53.387L91.9857 50.4726C92.1677 50.0713 91.9888 49.5956 91.5875 49.4136ZM60.8863 70.6286C54.4485 67.7095 46.8619 70.5624 43.9428 77.0002C41.0236 83.4381 43.8766 91.0246 50.3144 93.9438C56.7522 96.8629 64.3388 94.0099 67.2579 87.5721C70.177 81.1343 67.3241 73.5477 60.8863 70.6286Z" fill="#F6B97B"/>
</g>
<defs>
<clipPath id="clip0_5354_51221">
<rect width="88" height="108" fill="white" transform="translate(44.6001) rotate(24.3912)"/>
</clipPath>
</defs>
</svg>
