<svg width="67" height="98" viewBox="0 0 67 98" fill="none" xmlns="http://www.w3.org/2000/svg">
<path id="Vector" d="M56.7912 47.2301L53.6559 52.7665C53.408 53.2043 52.8543 53.3576 52.4165 53.1096L22.355 36.0857C21.9172 35.8378 21.7639 35.2841 22.0118 34.8463L25.1471 29.3099C25.395 28.8721 25.9487 28.7188 26.3865 28.9668L56.448 45.9907C56.8858 46.2386 57.0391 46.7923 56.7912 47.2301ZM54.7605 47.1252L26.282 30.9977L24.0414 34.9542L52.5199 51.0817L54.7605 47.1252ZM27.3861 25.3562C27.1382 25.794 27.2915 26.3476 27.7293 26.5956L57.7908 43.6195C58.2286 43.8674 58.7823 43.7141 59.0302 43.2763C59.2781 42.8385 59.1248 42.2848 58.6871 42.0369L28.6255 25.013C28.1877 24.7651 27.6341 24.9184 27.3861 25.3562ZM29.6267 21.3997C29.3788 21.8375 29.5321 22.3911 29.9699 22.6391L46.5816 32.0463C47.0194 32.2942 47.573 32.1409 47.821 31.7031C48.0689 31.2653 47.9156 30.7116 47.4778 30.4637L30.8661 21.0565C30.4283 20.8086 29.8746 20.9619 29.6267 21.3997ZM31.8673 17.4432C31.6194 17.881 31.7727 18.4346 32.2105 18.6826L48.8221 28.0898C49.2599 28.3377 49.8136 28.1844 50.0615 27.7466C50.3095 27.3088 50.1561 26.7551 49.7184 26.5072L33.1067 17.1C32.6689 16.8521 32.1152 17.0054 31.8673 17.4432ZM57.9886 83.7096C57.7264 85.2635 56.8833 86.5493 55.6044 87.3047C54.3355 88.055 52.8018 88.1633 51.3012 87.6295C50.5531 88.5382 49.6062 89.1512 48.5681 89.418C48.565 89.4234 48.5662 89.4277 48.5631 89.4331L44.0158 97.4629C43.8726 97.7158 43.6147 97.8858 43.3233 97.9184C43.1319 97.9393 42.9395 97.8985 42.7764 97.8061C42.6921 97.7584 42.6155 97.6971 42.5493 97.6237L36.9771 91.4442L28.8117 89.844C28.5234 89.7885 28.2828 89.5984 28.1608 89.3318C28.0389 89.0652 28.052 88.7566 28.1952 88.5037L32.6747 80.5936L5.77881 65.3552C2.72511 63.6259 1.64993 59.7345 3.37771 56.6836C0.324013 54.9542 -0.75117 51.0629 0.976612 48.0119L26.0624 3.70824C27.7917 0.654539 31.6803 -0.422183 34.734 1.30714L58.4649 14.7461C58.6743 14.8646 58.8278 15.0629 58.8942 15.2944L66.0986 41.3133C66.1635 41.5476 66.1326 41.7923 66.0125 42.0044L56.1109 59.489C56.982 60.2337 57.5772 61.2818 57.8087 62.5154C59.3626 62.7777 60.6468 63.6235 61.401 64.8981C62.1514 66.167 62.2596 67.7007 61.7258 69.2013C62.9554 70.2136 63.6499 71.5874 63.6606 73.0587C63.6706 74.544 63.0016 75.9284 61.8039 76.9525C62.3512 78.4403 62.2649 79.9752 61.538 81.2588C60.8112 82.5423 59.5393 83.4057 57.9818 83.7017L57.9886 83.7096ZM56.2845 33.3604C55.7902 34.2333 56.098 35.3449 56.9708 35.8392L63.7635 39.6859L60.1313 26.568L56.2845 33.3604ZM4.27408 55.1012L28.4645 12.3848C30.1938 9.33106 34.0825 8.25434 37.1361 9.98366L58.9583 22.3416L57.2424 16.1445L33.8407 2.8921C31.6599 1.65709 28.8786 2.42719 27.6436 4.60802L2.55673 48.9074C1.32172 51.0882 2.09183 53.8695 4.27265 55.1045L4.27408 55.1012ZM6.67518 63.7728L32.5899 78.4484C32.6394 78.0311 32.7324 77.6133 32.88 77.1941C31.6505 76.1817 30.956 74.808 30.9452 73.3367C30.9352 71.8514 31.6042 70.467 32.8019 69.4429C32.7615 69.3303 32.7281 69.218 32.6963 69.103L20.2015 62.0272C19.7637 61.7792 19.6104 61.2256 19.8584 60.7878C20.1063 60.35 20.66 60.1967 21.0978 60.4446L32.494 66.8983C32.5707 66.281 32.7583 65.6833 33.0694 65.1341C33.7962 63.8505 35.0681 62.9871 36.6256 62.6911C36.6642 62.458 36.7219 62.2357 36.785 62.0164L24.2331 54.9083C23.7953 54.6603 23.642 54.1067 23.89 53.6689C24.1379 53.2311 24.6916 53.0778 25.1294 53.3257L37.5914 60.383C37.9735 59.8668 38.444 59.4293 39.0097 59.0961C40.2786 58.3458 41.8123 58.2375 43.3129 58.7713C44.3252 57.5418 45.699 56.8473 47.1703 56.8365C48.6541 56.8292 50.0373 57.494 51.0641 58.6932C52.2396 58.2599 53.4446 58.2312 54.5328 58.5925L63.9861 41.8994L56.0761 37.4199C54.3303 36.4313 53.7147 34.208 54.7033 32.4622L59.1828 24.5521L36.2434 11.5615C34.0626 10.3264 31.2813 11.0965 30.0463 13.2774L4.9594 57.5768C3.72439 59.7576 4.49449 62.5388 6.67532 63.7738L6.67518 63.7728ZM43.0554 95.4617L46.454 89.4604C45.3516 89.2383 44.3402 88.6332 43.5486 87.7037C42.0608 88.251 40.5259 88.1647 39.2423 87.4378C37.9588 86.711 37.0954 85.4391 36.7994 83.8816C35.5966 83.6781 34.5588 83.1263 33.7986 82.2936L30.4 88.2949L37.6247 89.7108C37.8187 89.7488 37.9927 89.8474 38.1251 89.9941L43.0554 95.4617ZM59.9635 80.3682C60.4994 79.4219 60.4703 78.224 59.8829 77.0797C59.6704 76.6685 59.803 76.1617 60.1911 75.9075C61.2532 75.2053 61.8578 74.1758 61.85 73.0797C61.8443 71.999 61.214 70.9813 60.1248 70.2854C59.7347 70.0358 59.5943 69.5289 59.8005 69.1142C60.3767 67.9572 60.391 66.7587 59.8428 65.8305C59.2856 64.8865 58.2365 64.3103 56.9672 64.2559C56.5035 64.2375 56.1293 63.8712 56.1 63.4093C56.0136 62.1286 55.4239 61.0835 54.4776 60.5476C53.5314 60.0117 52.3334 60.0408 51.1891 60.6282C50.7779 60.8407 50.2711 60.7081 50.0169 60.32C49.3147 59.2579 48.2837 58.656 47.1875 58.6638C46.1096 58.671 45.0891 59.2999 44.3933 60.389C44.1436 60.7791 43.6368 60.9195 43.222 60.7133C42.0651 60.1372 40.8665 60.1228 39.9384 60.671C38.9944 61.2282 38.4224 62.2762 38.3665 63.5482C38.3454 64.0103 37.9817 64.3861 37.5198 64.4154C36.2363 64.5002 35.194 65.0915 34.6582 66.0377C34.1223 66.984 34.1513 68.182 34.7388 69.3263C34.9512 69.7375 34.8187 70.2442 34.4305 70.4984C33.3685 71.2006 32.7639 72.2302 32.7716 73.3263C32.7774 74.407 33.4077 75.4247 34.4969 76.1205C34.887 76.3702 35.0274 76.8771 34.8212 77.2918C34.245 78.4487 34.2306 79.6473 34.7789 80.5755C35.336 81.5195 36.3852 82.0957 37.6545 82.1501C37.8026 82.1549 37.9403 82.197 38.0627 82.2663C38.321 82.4126 38.5015 82.6836 38.5217 82.9967C38.6081 84.2774 39.1978 85.3225 40.1441 85.8584C41.0903 86.3943 42.2883 86.3652 43.4326 85.7778C43.8438 85.5653 44.3506 85.6979 44.6048 86.086C45.307 87.1481 46.338 87.7499 47.4342 87.7422C48.5121 87.7349 49.5326 87.1061 50.2284 86.017C50.4781 85.6269 50.9849 85.4865 51.3997 85.6927C52.5566 86.2688 53.7552 86.2832 54.6833 85.735C55.6273 85.1778 56.1993 84.1298 56.2552 82.8578C56.2763 82.3957 56.64 82.0199 57.1019 81.9906C58.3853 81.9058 59.4276 81.3145 59.9635 80.3682ZM56.007 78.1277C53.2906 82.9244 47.1744 84.6179 42.3777 81.9015C37.581 79.1851 35.8874 73.0689 38.6038 68.2722C41.3202 63.4755 47.4364 61.7819 52.2332 64.4983C57.0299 67.2147 58.7234 73.3309 56.007 78.1277ZM54.4244 77.2314C56.6481 73.3049 55.261 68.3028 51.3368 66.0805C47.4102 63.8568 42.4097 65.2412 40.1859 69.1681C37.962 73.095 39.3493 78.0968 43.2735 80.319C47.2 82.5427 52.2006 81.1584 54.4244 77.2314ZM51.1224 72.5351L45.8027 74.0081L45.0161 71.1672C44.8816 70.6817 44.3813 70.3983 43.8984 70.5343C43.4129 70.6687 43.1295 71.1691 43.2655 71.6519L44.2951 75.3702C44.3623 75.613 44.5204 75.8031 44.7244 75.9186C44.9256 76.0325 45.1726 76.0719 45.4154 76.0047L51.6125 74.2888C52.098 74.1543 52.3814 73.6539 52.2454 73.1711C52.111 72.6856 51.6106 72.4022 51.1278 72.5382L51.1224 72.5351ZM26.6498 41.9583L21.3301 43.4313L20.5435 40.5904C20.4091 40.1049 19.9087 39.8215 19.4259 39.9575C18.9403 40.092 18.657 40.5923 18.793 41.0751L19.8225 44.7934C19.8898 45.0362 20.0479 45.2263 20.2518 45.3418C20.453 45.4558 20.7001 45.4951 20.9429 45.4279L27.14 43.712C27.6255 43.5775 27.9089 43.0772 27.7729 42.5943C27.6384 42.1088 27.1381 41.8254 26.6552 41.9614L26.6498 41.9583ZM41.8169 53.3775L29.1586 46.209C28.7208 45.9611 28.1671 46.1144 27.9192 46.5522C27.6712 46.9899 27.8246 47.5436 28.2623 47.7916L40.9207 54.96C41.3585 55.208 41.9122 55.0546 42.1601 54.6169C42.408 54.1791 42.2547 53.6254 41.8169 53.3775ZM22.6183 49.0773L17.2987 50.5503L16.512 47.7094C16.3776 47.2238 15.8772 46.9405 15.3944 47.0764C14.9089 47.2109 14.6255 47.7113 14.7615 48.1941L15.7911 51.9124C15.8583 52.1551 16.0164 52.3452 16.2203 52.4607C16.4215 52.5747 16.6686 52.614 16.9114 52.5468L23.1085 50.8309C23.594 50.6965 23.8774 50.1961 23.7414 49.7133C23.6069 49.2277 23.1066 48.9444 22.6238 49.0804L22.6183 49.0773ZM18.5855 56.1987L13.2658 57.6716L12.4792 54.8307C12.3447 54.3452 11.8444 54.0618 11.3616 54.1978C10.876 54.3323 10.5926 54.8326 10.7286 55.3155L11.7582 59.0337C11.8254 59.2765 11.9835 59.4666 12.1875 59.5821C12.3887 59.6961 12.6358 59.7354 12.8785 59.6682L19.0756 57.9523C19.5612 57.8178 19.8445 57.3175 19.7085 56.8346C19.5741 56.3491 19.0737 56.0657 18.5909 56.2017L18.5855 56.1987Z" fill="#F6B97B"/>
</svg>
