<svg width="116" height="122" viewBox="0 0 116 122" fill="none" xmlns="http://www.w3.org/2000/svg">
<g id="noun-exam-7250763" clip-path="url(#clip0_5354_51180)">
<path id="Vector" d="M75.3643 62.8406C74.8254 63.1317 74.6222 63.8098 74.9126 64.3475L82.0766 77.6081C82.5031 78.3975 82.2084 79.3807 81.4196 79.8068L44.0451 99.9982C43.2564 100.424 42.2725 100.132 41.846 99.3425L18.9227 56.9111C18.6322 56.3734 17.9537 56.1717 17.4123 56.4642C16.8735 56.7553 16.6727 57.4321 16.9631 57.9698L39.8864 100.401C40.8952 102.268 43.2287 102.962 45.1014 101.953L82.4759 81.7619C84.346 80.7485 85.0449 78.4166 84.0362 76.5494L76.8722 63.2889C76.7323 63.0298 76.496 62.8385 76.2133 62.7545C75.9306 62.6704 75.6264 62.699 75.3643 62.8406Z" fill="#F6B97B"/>
<path id="Vector_2" d="M44.2406 37.3297L28.8968 45.6191C28.3555 45.9116 28.1534 46.5859 28.4452 47.126C28.737 47.6661 29.4118 47.8667 29.9531 47.5743L45.2968 39.2849C45.8382 38.9924 46.0403 38.3181 45.7485 37.778C45.4567 37.2379 44.7819 37.0373 44.2406 37.3297Z" fill="#F6B97B"/>
<path id="Vector_3" d="M30.1585 64.7703L34.3349 62.514C35.3109 61.9836 35.6732 60.7681 35.1501 59.7941L32.8977 55.6247C32.3684 54.6509 31.1545 54.2901 30.1759 54.8156L25.9995 57.0719C25.0234 57.6024 24.6599 58.8154 25.1842 59.7919L27.4367 63.9612C27.9646 64.9326 29.1798 65.2959 30.1585 64.7703ZM27.2468 58.9238L31.0435 56.8727L33.09 60.6608L29.2933 62.7119L27.2468 58.9238Z" fill="#F6B97B"/>
<path id="Vector_4" d="M36.4523 56.3018C36.5935 56.5633 36.8298 56.7545 37.1125 56.8386C37.3952 56.9226 37.6981 56.8916 37.9602 56.75L58.7613 45.5123C59.3027 45.2199 59.5048 44.5455 59.213 44.0054C58.9225 43.4678 58.2464 43.2647 57.7051 43.5572L36.9039 54.7949C36.3626 55.0873 36.1618 55.7641 36.4523 56.3018Z" fill="#F6B97B"/>
<path id="Vector_5" d="M33.8184 75.7727C34.0706 76.2395 34.4972 76.5899 35.0099 76.7424C35.5202 76.8961 36.0725 76.8408 36.5428 76.5867L40.7192 74.3304C41.6953 73.8 42.0589 72.5869 41.5345 71.6105L39.2794 67.4362C38.749 66.4662 37.5365 66.1078 36.5602 66.632L32.3838 68.8883C31.4102 69.4174 31.0453 70.628 31.5659 71.6034L33.8184 75.7727ZM33.6298 70.7378L37.4265 68.6866L39.473 72.4747L35.6763 74.5259L33.6298 70.7378Z" fill="#F6B97B"/>
<path id="Vector_6" d="M40.1786 87.5447C40.7078 88.5185 41.9254 88.8805 42.9003 88.3538L47.0767 86.0975C48.0516 85.5708 48.4164 84.354 47.892 83.3776L45.6395 79.2082C45.1116 78.2368 43.8939 77.8749 42.919 78.4016L38.7426 80.6578C37.7677 81.1845 37.403 82.4013 37.9261 83.3754L40.1786 87.5447ZM39.99 82.5098L43.7867 80.4586L45.8332 84.2467L42.0365 86.2979L39.99 82.5098Z" fill="#F6B97B"/>
<path id="Vector_7" d="M76.9381 22.4508C76.3829 21.6868 75.5416 21.172 74.6033 21.0285L71.517 20.5522C70.5812 20.4074 69.6233 20.6375 68.8561 21.1972C68.0914 21.7556 67.5769 22.5956 67.4301 23.5305L64.714 40.7838L54.2849 21.4851C53.2761 19.618 50.9426 18.9244 49.0724 19.9316L11.6979 40.123C9.82775 41.1365 9.12885 43.4684 10.1362 45.3331L13.6362 51.8116C13.9267 52.3493 14.6028 52.5523 15.1442 52.2599C15.6831 51.9687 15.8863 51.2906 15.5958 50.753L12.0968 44.2763C11.6704 43.4869 11.9651 42.5037 12.7538 42.0776L50.1283 21.8862C50.9171 21.4601 51.901 21.7525 52.3274 22.5419L64.1443 44.4151L62.2622 56.3595L43.287 66.6076C42.7457 66.9 42.5449 67.5768 42.8354 68.1145C43.1272 68.6546 43.802 68.8552 44.3433 68.5627L61.8278 59.1168L61.2485 62.789L61.2499 62.7914C61.2203 62.9652 61.2346 63.1438 61.2895 63.3099L63.7392 70.773L49.6546 78.3821L49.6559 78.3845C49.1146 78.677 48.9124 79.3513 49.2042 79.8914C49.4947 80.4291 50.1708 80.6321 50.7122 80.3397L65.3354 72.4396C65.5679 72.3897 65.7733 72.2661 65.9297 72.0869C65.9794 72.0443 66.0176 71.992 66.0495 71.9338L71.1939 64.845C71.2979 64.7036 71.3662 64.5372 71.392 64.3623L77.5781 25.1064C77.7274 24.1702 77.4987 23.214 76.9373 22.4501L76.9381 22.4508ZM69.2345 63.7607L65.4741 68.9367L63.4807 62.8689L68.458 31.2915L74.2055 32.1835L69.2345 63.7607ZM75.3804 24.7633L74.5612 29.9829L68.8075 29.0911L69.6268 23.8715C69.6832 23.519 69.8764 23.2031 70.165 22.9935C70.4537 22.7839 70.8145 22.6963 71.166 22.7495L74.2537 23.2283L74.255 23.2307C74.9906 23.3448 75.4911 24.031 75.3755 24.7659L75.3804 24.7633Z" fill="#F6B97B"/>
</g>
<defs>
<clipPath id="clip0_5354_51180">
<rect width="78.4" height="96" fill="white" transform="translate(0.896118 37.4023) rotate(-28.3799)"/>
</clipPath>
</defs>
</svg>
