<svg width="300" height="143" viewBox="0 0 556 283" fill="none" xmlns="http://www.w3.org/2000/svg">
<path d="M106.251 278.837C164.932 278.837 212.502 271.519 212.502 262.491C212.502 253.463 164.932 246.145 106.251 246.145C47.5702 246.145 0 253.463 0 262.491C0 271.519 47.5702 278.837 106.251 278.837Z" fill="#DFDFEB"/>
<path d="M279.916 282.107C385.926 282.107 471.864 274.789 471.864 265.761C471.864 256.733 385.926 249.415 279.916 249.415C173.906 249.415 87.968 256.733 87.968 265.761C87.968 274.789 173.906 282.107 279.916 282.107Z" fill="#DFDFEB"/>
<path d="M116.282 239.487L117.99 252.36C117.99 252.36 150.011 266 147.041 266.197C144.071 266.395 98.055 263.425 98.055 263.425L100.763 240.055L116.282 239.487Z" fill="black"/>
<path d="M347.658 23.827C353.926 23.827 359.996 21.627 364.809 17.611L378.164 6.46698C382.97 2.45698 388.678 0.307983 394.527 0.307983H460.805C466.819 0.307983 471.695 5.18398 471.695 11.198V23.826V251.142C471.695 261.52 463.282 269.934 452.903 269.934H122.511C114.439 269.934 107.895 263.39 107.895 255.318V38.443C107.895 30.371 114.439 23.827 122.511 23.827H347.658Z" fill="#A0490F"/>
<path d="M107.896 256.543C107.896 256.543 130.381 214.366 132.63 209.522L194.081 84.33C195.626 81.003 198.96 78.875 202.628 78.875H430.986C439.288 78.875 451.295 74.523 457.669 69.204L466.884 61.515C471.69 57.505 477.399 55.356 483.247 55.356H546.321C553.035 55.356 557.595 62.176 555.03 68.381L478.759 252.85C474.484 263.19 464.398 269.934 453.209 269.934H112.02C109.796 269.934 107.742 268.029 107.743 265.805L107.896 256.543Z" fill="#F6B97B"/>
<path d="M200.78 90.779L110.608 266.066" stroke="black" stroke-miterlimit="10" stroke-linejoin="round"/>
<path d="M237.936 120.986H315.611C317.729 120.986 319.7 119.92 320.837 118.16C323.461 114.099 320.499 108.784 315.611 108.784H237.936C235.818 108.784 233.847 109.85 232.71 111.609C230.085 115.671 233.048 120.986 237.936 120.986Z" stroke="black" stroke-miterlimit="10" stroke-linejoin="round"/>
<path d="M383.235 181.232L322.758 217.262" stroke="black" stroke-miterlimit="10" stroke-linecap="round" stroke-linejoin="round"/>
<path d="M333.789 179.495L371.79 217.479" stroke="black" stroke-miterlimit="10" stroke-linecap="round" stroke-linejoin="round"/>
<path d="M362.893 232.087C387.098 225.392 402.62 205.139 397.561 186.852C392.503 168.564 368.78 159.167 344.574 165.863C320.369 172.558 304.847 192.811 309.906 211.098C314.964 229.386 338.687 238.783 362.893 232.087Z" stroke="black" stroke-miterlimit="10" stroke-linecap="round" stroke-linejoin="round"/>
</svg>
