<svg width="350" height="351" viewBox="0 0 350 351" fill="none" xmlns="http://www.w3.org/2000/svg">
<path d="M57.2992 309.205C121.151 343.309 224.675 343.31 288.526 309.206C352.378 275.1 352.378 219.807 288.526 185.703C224.674 151.598 121.15 151.598 57.2985 185.702C-6.55273 219.806 -6.55273 275.1 57.2992 309.205Z" fill="#F0F0F0"/>
<path d="M290.917 278.903C306.329 278.903 318.824 271.689 318.824 262.791C318.824 253.892 306.329 246.679 290.917 246.679C275.504 246.679 263.01 253.892 263.01 262.791C263.01 271.689 275.504 278.903 290.917 278.903Z" fill="#E0E0E0"/>
<path d="M118.647 281.77C134.06 281.77 146.554 274.557 146.554 265.658C146.554 256.76 134.06 249.546 118.647 249.546C103.235 249.546 90.7402 256.76 90.7402 265.658C90.7402 274.557 103.235 281.77 118.647 281.77Z" fill="#E0E0E0"/>
<path d="M26.3574 155.799C26.3574 154.228 27.4599 152.318 28.8207 151.532L154.841 78.7741C156.201 77.9887 158.408 77.9887 159.768 78.7741L162.544 80.3771C163.905 81.1625 165.007 83.0728 165.007 84.6436V181.241C165.007 182.805 163.898 184.725 162.544 185.507L36.5235 258.265C35.169 259.047 32.9514 259.047 31.5969 258.265L28.8207 256.662C27.4655 255.88 26.3574 253.96 26.3574 252.396V155.799Z" fill="#F6B97B"/>
<path d="M159.766 78.773L97.5096 47.5502C94.3708 45.6189 90.2548 46.6969 88.4656 49.9183L27.0742 153.371L30.3306 155.248L162.965 80.6616L159.766 78.773Z" fill="#F6B97B"/>
<path opacity="0.1" d="M159.766 78.773L97.5096 47.5502C94.3708 45.6189 90.2548 46.6969 88.4656 49.9183L27.0742 153.371L30.3306 155.248L162.965 80.6616L159.766 78.773Z" fill="black"/>
<path opacity="0.1" d="M26.3516 155.795V252.391C26.3516 253.965 27.4583 255.876 28.8219 256.656L31.5953 258.264C31.8053 258.381 32.0265 258.485 32.2708 258.567C32.5851 258.672 32.9232 258.753 33.2844 258.8C33.9256 258.881 34.6011 258.858 35.2304 258.73C35.3935 258.695 35.5566 258.649 35.7078 258.602C35.8128 258.567 35.9059 258.532 35.999 258.485C35.5447 258.648 35.1485 258.625 34.8223 258.462C34.3561 258.217 34.0649 257.658 34.0649 256.842V160.246C34.0649 159.233 34.5773 158.464 35.3466 158.149L34.0649 157.403L27.0726 153.371C26.6316 154.14 26.3516 155.014 26.3516 155.795Z" fill="black"/>
<path opacity="0.1" d="M164.424 82.4691L107.633 173.35L104.84 172.804C100.465 171.95 95.992 173.714 93.374 177.319L89.93 182.065L35.351 158.146L30.332 155.248L162.968 80.6631C163.584 81.1671 164.067 81.7691 164.424 82.4691Z" fill="black"/>
<path d="M162.963 80.6614C162.816 80.527 162.383 80.2757 161.89 80.0006L100.765 49.4267C97.626 47.4954 93.51 48.5734 91.7208 51.7948L30.3301 155.248L162.963 80.6614Z" fill="#F6B97B"/>
<path opacity="0.2" d="M163.844 184.312C164.525 183.422 164.984 182.292 165 181.293L107.631 173.35L163.844 184.312Z" fill="black"/>
<path opacity="0.2" d="M89.9284 182.065L34.6004 258.302C34.2644 258.015 34.0684 257.518 34.0684 256.846V255.796L89.9284 182.065Z" fill="black"/>
<path d="M283.888 30.9429L288.754 33.7527C288.73 33.535 288.713 33.3194 288.713 33.1087V31.6989C288.713 29.1901 290.474 28.173 292.647 29.4274C293.527 29.9356 294.336 30.7406 294.991 31.6821C295.347 28.5272 297.822 27.3526 300.828 29.0879C304.078 30.9646 306.713 35.5286 306.713 39.282V41.3911C306.713 42.3634 306.533 43.1817 306.215 43.8341L310.257 46.1679C311.462 46.8637 312.439 48.5556 312.439 49.9472C312.439 51.3388 311.461 51.903 310.257 51.2072L283.887 35.9829C282.682 35.2871 281.705 33.5952 281.705 32.2036C281.706 30.8113 282.683 30.2471 283.888 30.9429Z" fill="#EBEBEB"/>
<path d="M263.063 45.1217L266.736 47.242C266.718 47.0782 266.705 46.9151 266.705 46.7555V45.6915C266.705 43.798 268.035 43.0308 269.674 43.9772C270.338 44.3608 270.949 44.9684 271.444 45.6789C271.712 43.2982 273.58 42.4113 275.849 43.721C278.301 45.1371 280.29 48.5818 280.29 51.414V53.0058C280.29 53.7394 280.154 54.3575 279.914 54.8496L282.965 56.6108C283.874 57.1358 284.612 58.4133 284.612 59.4633C284.612 60.5133 283.875 60.9389 282.965 60.4139L263.063 48.9241C262.154 48.3991 261.416 47.1216 261.416 46.0716C261.416 45.0223 262.153 44.596 263.063 45.1217Z" fill="#EBEBEB"/>
<path d="M276.575 153.916C285.137 146.563 293.139 129.801 290.856 124.575C286.912 124.371 284.032 125.868 281.492 130.531C281.492 130.531 274.297 144.538 270.257 148.656C266.99 151.987 263.03 154.877 257.652 156.507C256.987 156.709 255.152 156.651 254.488 156.446C252.705 155.899 251.707 156.371 249.986 156.288C248.638 156.222 247.935 155.782 247.78 156.077C247.582 156.458 247.53 157.384 248.54 158.019C249.049 158.338 249.531 158.473 250.584 158.786C250.584 158.786 248.84 159.399 246.254 159.476C242.749 159.58 241.273 160.734 244.324 164.007C245.827 165.618 249.81 166.599 255.219 165.144C257.036 164.655 259.787 163.441 261.974 162.494C269.061 159.426 273.673 156.297 276.575 153.916Z" fill="#FFA8A7"/>
<path d="M304.042 256.439V255.561C303.695 256.591 302.089 261.026 299.651 263.249C297.714 265.016 295.071 267.057 294.399 269.027C293.7 271.076 298.077 271.764 299.887 271.444C301.99 271.071 304.712 269.878 306.192 268.059C307.234 266.779 307.897 265.263 308.64 264.257C309.383 263.251 311.098 262.127 311.499 260.963C311.721 260.324 311.458 258.923 311.148 257.739C310.863 256.653 310.554 255.459 310.184 255.561C310.183 255.693 310.184 256.231 310.184 256.231C309.738 256.725 308.505 257.215 307.113 257.269C306.214 257.303 304.035 257.125 304.042 256.439Z" fill="#263238"/>
<path d="M297.898 264.804C298.498 264.268 299.103 263.744 299.651 263.244C301.353 261.69 302.651 259.057 303.397 257.259C303.822 256.233 304.042 255.138 304.042 254.028V250.527H310.183V256.225V256.226V256.377L310.153 256.393C309.857 257.669 307.038 261.065 305.437 263.278C304.364 264.762 302.324 266.65 299.886 266.975C297.577 267.283 296.397 266.555 297.898 264.804Z" fill="#FFA8A7"/>
<path d="M280.085 250.385V249.506C279.738 250.537 278.132 254.972 275.694 257.195C273.757 258.962 271.114 261.003 270.442 262.973C269.743 265.022 274.12 265.71 275.93 265.39C278.033 265.018 280.754 263.824 282.235 262.005C283.277 260.725 283.94 259.209 284.683 258.203C285.426 257.197 287.141 256.074 287.542 254.91C287.764 254.27 287.501 252.869 287.19 251.685C286.905 250.6 286.597 249.406 286.226 249.507C286.226 249.639 286.226 250.177 286.226 250.177C285.781 250.671 284.547 251.161 283.156 251.215C282.257 251.249 280.077 251.07 280.085 250.385Z" fill="#263238"/>
<path d="M273.941 258.75C274.541 258.214 275.146 257.689 275.695 257.19C277.397 255.636 278.695 253.003 279.441 251.205C279.866 250.179 280.085 249.084 280.085 247.973V244.473H286.227V250.171V250.171V250.323L286.196 250.339C285.901 251.615 283.082 255.01 281.481 257.224C280.407 258.708 278.368 260.596 275.93 260.921C273.62 261.23 272.439 260.501 273.941 258.75Z" fill="#FFA8A7"/>
<path d="M308.962 160.987C313.724 171.387 308.791 208.022 308.791 208.022C308.934 209.709 310.864 213.03 311.583 220.458C312.432 229.235 310.25 251.271 310.25 251.271C310.25 251.271 307.406 253.131 304.043 251.518C304.043 251.518 298.189 218.329 297.088 209.602C296.128 201.987 294.284 185.242 294.284 185.242L289.044 209.561C289.044 209.561 290.389 213.828 290.704 217.078C291.201 222.211 286.228 246.108 286.228 246.108C286.228 246.108 284.109 246.886 280.086 246.293C280.086 246.293 278.327 214.579 277.864 208.396C277.085 198.012 279.842 165.612 281.748 159.465L308.962 160.987Z" fill="#F6B97B"/>
<path opacity="0.15" d="M294.283 185.242L292.736 175.583C292.736 175.583 286.196 174.228 283.23 171.439C283.23 171.439 286.342 175.31 290.964 176.578L292.7 184.015L289.665 206.533L294.283 185.242Z" fill="black"/>
<path d="M300.562 124.856C306.667 125.276 307.095 128.224 308.623 131.449C309.786 133.904 309.799 136.75 308.911 139.317L304.657 151.623C304.657 151.623 306.65 156.438 308.962 160.987C298.286 166.945 284.956 163.812 281.746 159.465C281.61 158.542 282.435 151.332 282.943 146.623C281.062 141.906 280.566 138.916 281.359 135.798C282.832 130.011 288.548 124.373 291.078 124.578L300.562 124.856Z" fill="#F0F0F0"/>
<path d="M281.516 123.122H303.782C306.575 123.122 308.839 120.858 308.839 118.065V107.319C308.839 100.391 303.223 94.7744 296.295 94.7744H294.061C287.132 94.7744 281.516 100.391 281.516 107.319V123.122H281.516Z" fill="#263238"/>
<path d="M307.018 96.3984L305.17 99.3685C305.989 99.9166 307.067 99.6954 307.577 98.8757C308.088 98.0553 307.838 96.9465 307.018 96.3984Z" fill="#263238"/>
<path d="M309.565 99.1138L306.105 99.6325C306.22 100.611 307.087 101.289 308.042 101.145C308.997 101.002 309.679 100.092 309.565 99.1138Z" fill="#263238"/>
<path d="M286.703 100.3C285.26 101.152 283.477 104.783 283.653 112.391C283.802 118.839 285.892 120.433 286.941 120.892C287.991 121.351 290.015 121.072 291.983 120.743V124.614C291.983 124.614 289.263 127.773 289.434 129.547C289.605 131.322 293.361 131.741 295.906 130.008C298.451 128.274 300.083 125.636 300.083 125.636V116.28C300.083 116.28 301.412 118.054 303.584 116.611C305.757 115.169 305.84 111.596 304.576 110.314C303.313 109.032 300.591 109.438 300.082 111.209C300.082 111.209 296.944 111.324 292.765 109.028C288.586 106.732 286.981 102.8 286.703 100.3Z" fill="#FFA8A7"/>
<path d="M291.575 110.77C291.552 111.235 291.896 111.629 292.343 111.65C292.791 111.671 293.172 111.312 293.196 110.847C293.219 110.382 292.875 109.988 292.428 109.967C291.98 109.946 291.598 110.306 291.575 110.77Z" fill="#263238"/>
<path d="M290.638 116.237L288.754 116.838C288.91 117.377 289.459 117.679 289.979 117.513C290.499 117.348 290.794 116.776 290.638 116.237Z" fill="#F28F8F"/>
<path d="M284.927 108.28L286.568 107.143C286.268 106.674 285.658 106.549 285.205 106.863C284.752 107.178 284.627 107.812 284.927 108.28Z" fill="#263238"/>
<path d="M285.304 110.184C285.28 110.649 285.624 111.043 286.072 111.064C286.519 111.085 286.901 110.726 286.924 110.261C286.947 109.796 286.603 109.402 286.156 109.381C285.709 109.36 285.327 109.719 285.304 110.184Z" fill="#263238"/>
<path d="M289.265 109.72L289.136 114.601L286.566 113.805L289.265 109.72Z" fill="#F28F8F"/>
<path d="M291.984 120.743C294.058 120.471 298.325 119.246 298.99 117.559C298.99 117.559 298.768 118.618 297.494 119.711C296.219 120.804 291.985 122.034 291.985 122.034V120.743H291.984Z" fill="#F28F8F"/>
<path d="M297.833 162.141C301.34 161.311 303.565 157.763 302.638 154.281C302.603 154.148 302.567 154.035 302.529 153.945C301.843 152.295 300.367 152.512 300.367 152.512C301.751 151.594 302.712 150.162 303.036 148.534L304.334 140.822C304.334 140.822 304.623 139.117 304.004 137.08L308.295 132.117C308.295 132.117 308.603 132.331 309.088 132.669C309.757 134.818 309.656 137.164 308.912 139.317L304.658 151.623C304.658 151.623 306.65 156.438 308.963 160.987C301.095 165.378 291.79 164.83 286.152 162.498C290.605 163.188 294.732 162.875 297.833 162.141Z" fill="#E6E6E6"/>
<path d="M319.886 155.49C314.344 132.835 310.245 125.279 303.513 125.366C301.548 127.716 302.09 134.813 305.197 139.12C305.197 139.12 312.123 153.732 313.228 158.927C314.199 163.49 315.299 169.231 315.229 173.154C315.216 173.849 314.93 174.509 314.459 175.02C313.194 176.391 313.189 177.495 312.37 179.011C311.728 180.198 311.027 180.642 311.227 180.909C311.484 181.252 312.296 181.7 313.306 181.062C313.814 180.741 314.144 180.365 314.881 179.55C314.881 179.55 314.681 181.388 313.632 183.753C312.211 186.959 312.557 188.595 316.883 187.452C319.595 186.737 321.297 184.479 321.703 177.962C321.82 176.084 321.997 173.123 321.774 170.749C321.196 164.569 320.778 159.137 319.886 155.49Z" fill="#FFA8A7"/>
<path d="M163.522 139.849C162.456 140.73 161.238 141.181 159.836 142.541C158.602 143.739 158.071 144.211 156.581 144.802C154.966 145.443 153.445 145.253 148.963 144.536C143.48 143.659 141.12 142.738 138.755 140.72C135.989 138.36 129.803 131.245 126.812 128.45C123.649 125.494 119.301 126.636 119.301 126.636C119.301 126.636 121.093 133.047 125.235 138.943C127.631 142.353 132.105 145.616 134.13 147.301C137.368 149.996 139.09 151.061 146.205 151.596C151.574 152 152.287 152.131 156.68 152C158.268 151.953 159.259 151.937 161.859 151.72C163.147 151.613 164.195 151.451 165.198 151.138C166.472 150.74 167.575 150.502 168.686 149.758C170.084 148.82 171.283 147.553 172.003 146.03C172.399 145.193 172.648 144.273 172.621 143.347C172.595 142.421 172.277 141.489 171.654 140.804C171.527 140.665 171.383 140.533 171.204 140.475C170.881 140.37 170.538 140.528 170.236 140.683C168.549 141.547 166.859 142.73 165.098 143.409C163.61 143.983 162.48 144.182 162.589 143.882C162.7 143.583 163.597 143.306 164.521 142.266C165.403 141.272 165.676 139.771 165.079 139.321C164.483 138.871 164.588 138.968 163.522 139.849Z" fill="#B16668"/>
<path d="M118.027 126.611C118.027 126.611 120.701 125.225 123.469 126.021C126.236 126.816 128.453 128.625 131.093 131.458C133.733 134.29 138.186 138.873 138.186 138.873C138.186 138.873 135.994 144.424 131.066 146.396L120.734 136.838L118.027 126.611Z" fill="#455A64"/>
<path d="M102.846 264.177H109.109V253.454H102.846V264.177Z" fill="#B16668"/>
<path d="M120.178 256.155L126.438 256.37L126.751 245.023L120.178 244.808V256.155Z" fill="#B16668"/>
<path d="M100.178 173.39C100.178 179.371 101.235 214.16 101.235 214.16C101.09 215.882 99.433 218.941 99.3042 225.141C99.1173 234.131 102.579 258.815 102.579 258.815C102.579 258.815 105.62 260.591 109.552 258.953C109.552 258.953 112.393 225.492 113.516 216.594C114.495 208.828 116.157 187.73 116.157 187.73L119.106 213.083C119.106 213.083 117.951 217.715 118.329 223.037C118.622 227.153 119.782 252.639 119.782 252.639C119.782 252.639 122.73 254.639 127.014 253.192C127.014 253.192 131.431 216.859 131.503 213.082C131.586 208.777 129.867 164.827 129.867 164.827L100.178 173.39Z" fill="#37474F"/>
<path d="M104.294 129.392C102.917 130.008 101.828 131.129 101.276 132.534C100.784 133.784 100.359 135.556 100.359 137.947V150.219L100.18 173.392C109.17 178.13 120.599 178.447 130.189 171.443C130.189 171.443 129.654 141.616 129.654 136.737C129.654 136.517 129.648 136.293 129.637 136.067C129.288 129.098 122.427 124.316 115.67 126.054L109.994 127.515L104.294 129.392Z" fill="#F0F0F0"/>
<path d="M128.752 108.554C129.845 103.927 126.98 99.2908 122.353 98.1983C117.726 97.1058 113.09 99.9708 111.998 104.597C110.905 109.224 113.77 113.86 118.397 114.953C123.023 116.045 127.66 113.18 128.752 108.554Z" fill="#263238"/>
<path d="M105.496 112.685C105.496 112.685 106.891 119.238 107.45 120.315C108.01 121.391 109.165 121.697 109.165 121.697L109.068 117.087L105.496 112.685Z" fill="#263238"/>
<path d="M107.247 103.297C107.247 103.297 105.744 103.04 104.573 104.237C103.425 105.411 104.067 109.086 105.496 112.686L108.124 112.987L107.247 103.297Z" fill="#263238"/>
<path d="M108.911 112.989C108.384 113.304 107.633 112.292 106.982 111.612C106.333 110.932 104.212 110.003 103.153 112.233C102.075 114.505 104.087 117.506 105.757 118.031C108.635 118.934 109.067 117.088 109.067 117.088L109.28 127.786C112.857 132.373 122.787 131.986 118.649 127.194L118.641 124.035C118.641 124.035 121.248 124.43 122.52 124.233C124.636 123.906 125.968 122.236 126.61 119.946C127.641 116.267 128.032 113.295 127.158 106.059C126.199 98.1282 116.974 98.0449 111.992 101.181C107.011 104.316 108.911 112.989 108.911 112.989Z" fill="#B16668"/>
<path d="M108.911 113.875C108.645 113.88 107.638 112.208 106.982 111.611C106.073 110.785 107.245 103.297 107.245 103.297C107.245 103.297 106.372 101.436 108.122 99.5098C109.367 98.1399 110.721 97.2747 114.312 97.0829C116.414 96.9709 119.775 97.3006 121.663 97.428C125.207 97.6674 126.516 96.7945 128.551 96.2233C130.109 95.7865 130.286 101.411 126.351 103.274C126.351 103.274 125.071 104.1 121.7 104.511C118.328 104.921 113.078 104.432 112.36 104.334C111.383 104.2 111.174 105.147 110.647 107.736C110.185 110.007 109.801 113.858 108.911 113.875Z" fill="#263238"/>
<path d="M107.25 103.879L104.064 102.169C104.517 101.256 105.596 100.899 106.476 101.371C107.356 101.843 107.702 102.966 107.25 103.879Z" fill="#263238"/>
<path d="M118.641 124.035C118.641 124.035 113.917 123.083 112.266 122.205C111.161 121.617 110.25 120.599 109.982 119.946C109.982 119.946 110.292 121.348 111.28 122.61C112.488 124.154 118.641 125.291 118.641 125.291V124.035Z" fill="#9A4A4D"/>
<path d="M118.41 111.808C118.41 112.352 117.986 112.791 117.464 112.79C116.941 112.788 116.518 112.347 116.518 111.803C116.518 111.26 116.941 110.821 117.464 110.823C117.987 110.823 118.41 111.265 118.41 111.808Z" fill="#263238"/>
<path d="M117.407 108.234L115.382 109.352C115.083 108.77 115.294 108.048 115.854 107.74C116.413 107.43 117.108 107.652 117.407 108.234Z" fill="#263238"/>
<path d="M118.214 118.348L120.375 119.159C120.162 119.778 119.504 120.099 118.907 119.875C118.311 119.651 118 118.967 118.214 118.348Z" fill="#9A4A4D"/>
<path d="M126.577 109.022L124.73 107.6C125.107 107.071 125.826 106.961 126.336 107.353C126.846 107.746 126.954 108.494 126.577 109.022Z" fill="#263238"/>
<path d="M126.011 111.539C126.011 112.082 125.587 112.521 125.064 112.519C124.541 112.518 124.117 112.076 124.117 111.533C124.117 110.99 124.541 110.55 125.064 110.552C125.586 110.554 126.011 110.996 126.011 111.539Z" fill="#263238"/>
<path d="M121.186 110.641L121.496 116.334L124.469 115.321L121.186 110.641Z" fill="#9A4A4D"/>
<path d="M109.11 261.086V260.19C109.71 260.451 111.102 265.763 113.587 268.03C115.562 269.832 118.258 271.914 118.943 273.923C119.657 276.012 115.19 277.166 113.345 276.839C111.2 276.459 107.483 274.949 106.55 273.549C105.617 272.149 105.18 270.084 104.422 269.058C103.664 268.032 101.916 266.887 101.506 265.699C101.28 265.047 101.548 263.618 101.864 262.411C102.154 261.304 102.469 260.086 102.847 260.19C102.847 260.325 102.847 260.874 102.847 260.874C103.302 261.378 104.56 261.877 105.978 261.932C106.895 261.966 109.118 261.784 109.11 261.086Z" fill="#263238"/>
<path d="M126.506 254.438C126.83 254.449 127.096 254.908 127.813 255.685C128.68 256.623 130.098 257.636 131.498 258.336C133.843 259.51 138.403 261.316 140.466 262.245C141.756 262.826 141.695 264.383 140.363 265.269C139.03 266.155 135.813 266.794 131.949 265.93C129.845 265.46 127.105 263.516 125.371 263.621C123.637 263.726 120.392 263.7 119.112 262.818C117.833 261.936 118.344 260.052 118.706 258.433C119.101 256.666 119.594 253.91 120.18 254.031V254.64C120.933 255.78 124.819 256.244 126.473 255.405L126.506 254.438Z" fill="#263238"/>
<path d="M116.156 187.731C116.156 187.731 121.163 186.32 124.878 182.73C124.878 182.73 123.195 185.881 118.19 188.814L118.858 210.953L116.156 187.731Z" fill="#263238"/>
<path d="M238.293 55.0469C238.188 54.2629 237.551 53.9759 236.795 54.4169L154.524 101.924C154.111 102.162 153.733 102.582 153.453 103.058L150.611 101.413C150.891 100.937 151.262 100.524 151.682 100.286L233.953 52.7789C234.786 52.2959 236.102 52.2679 236.886 52.7229C237.607 53.1429 238.202 54.1369 238.293 55.0469Z" fill="#FAFAFA"/>
<path d="M154.24 253.091C154.184 253.119 153.731 253.271 153.347 253.313C152.717 253.38 152.059 253.285 151.583 253.012C150.799 252.557 150.162 251.409 150.162 250.443V102.911C150.162 102.848 150.162 102.792 150.169 102.729C150.183 102.603 150.204 102.477 150.232 102.351C150.309 102.036 150.442 101.714 150.61 101.413L153.452 103.058C153.179 103.534 153.011 104.066 153.011 104.549V252.081C153.011 252.767 153.354 253.166 153.844 253.166C153.907 253.166 153.977 253.159 154.04 253.145C154.103 253.131 154.177 253.119 154.24 253.091Z" fill="#E0E0E0"/>
<path d="M153.008 104.552C153.008 120.235 153.008 236.402 153.008 252.084C153.008 253.05 153.686 253.442 154.523 252.959L236.794 205.45C237.631 204.967 238.309 203.792 238.309 202.825L238.308 55.2933C238.308 54.3266 237.63 53.9353 236.793 54.4183L154.523 101.927C153.686 102.41 153.008 103.585 153.008 104.552Z" fill="#FAFAFA"/>
<path d="M168.602 123.53C168.488 123.421 168.432 123.183 168.432 122.817V108.01C168.432 107.645 168.488 107.337 168.602 107.088C168.715 106.84 168.902 106.64 169.161 106.49L170.377 105.788C170.648 105.632 170.837 105.611 170.945 105.723C171.053 105.835 171.107 106.083 171.107 106.466V121.272C171.107 121.638 171.053 121.941 170.945 122.177C170.838 122.415 170.648 122.611 170.377 122.768L169.161 123.47C168.902 123.619 168.715 123.639 168.602 123.53Z" fill="#F6B97B"/>
<path d="M173.338 120.796C173.225 120.687 173.168 120.449 173.168 120.083V105.251C173.168 104.885 173.225 104.581 173.338 104.341C173.452 104.1 173.643 103.902 173.913 103.746L174.919 103.165C175.103 103.059 175.241 103.017 175.333 103.038C175.425 103.061 175.525 103.148 175.633 103.302L180.174 110.543V101.229C180.174 100.863 180.231 100.556 180.344 100.307C180.458 100.058 180.645 99.859 180.904 99.7092L182.12 99.0071C182.39 98.851 182.579 98.8293 182.687 98.942C182.795 99.054 182.85 99.3018 182.85 99.6847V114.491C182.85 114.857 182.795 115.16 182.687 115.396C182.579 115.633 182.39 115.831 182.12 115.986L181.098 116.576C180.925 116.676 180.792 116.715 180.701 116.693C180.61 116.671 180.51 116.583 180.401 116.429L175.843 109.223V118.536C175.843 118.902 175.79 119.205 175.681 119.441C175.573 119.679 175.383 119.875 175.113 120.032L173.897 120.734C173.638 120.886 173.452 120.906 173.338 120.796Z" fill="#F6B97B"/>
<path d="M188.997 111.868C188.909 111.818 188.829 111.674 188.753 111.434L184.65 98.3713C184.618 98.2404 184.602 98.1172 184.602 98.0003C184.602 97.7175 184.699 97.5194 184.893 97.4074L186.839 96.2839C186.991 96.1964 187.107 96.1796 187.188 96.2321C187.269 96.2853 187.332 96.391 187.375 96.5492L189.97 105.763L192.564 93.5532C192.651 93.1206 192.835 92.8231 193.116 92.6607L195.062 91.5372C195.256 91.4245 195.354 91.5106 195.354 91.7934C195.354 91.9103 195.338 92.0524 195.305 92.2204L191.219 110.011C191.143 110.338 191.059 110.578 190.967 110.731C190.876 110.883 190.743 111.01 190.57 111.11L189.387 111.794C189.212 111.893 189.083 111.918 188.997 111.868Z" fill="#F6B97B"/>
<path d="M197.274 106.976C197.16 106.867 197.104 106.629 197.104 106.263V91.4569C197.104 91.0915 197.16 90.7835 197.274 90.535C197.387 90.2865 197.574 90.087 197.834 89.9372L199.049 89.2351C199.32 89.079 199.509 89.0573 199.617 89.17C199.724 89.282 199.779 89.5298 199.779 89.9127V104.719C199.779 105.085 199.725 105.388 199.617 105.624C199.509 105.861 199.319 106.058 199.049 106.214L197.834 106.916C197.574 107.066 197.387 107.086 197.274 106.976Z" fill="#F6B97B"/>
<path d="M204.703 102.687C204.59 102.578 204.533 102.34 204.533 101.974V89.1151L201.873 90.6509C201.614 90.8007 201.435 90.8252 201.338 90.723C201.24 90.6208 201.191 90.3793 201.191 89.9957V89.0724C201.191 88.6895 201.24 88.3864 201.338 88.1638C201.435 87.9419 201.613 87.755 201.873 87.6052L209.885 82.9796C210.144 82.8298 210.325 82.8088 210.428 82.9152C210.53 83.023 210.582 83.268 210.582 83.6509V84.5742C210.582 84.9403 210.531 85.2371 210.428 85.4625C210.325 85.6886 210.144 85.8762 209.885 86.026L207.225 87.5618V100.421C207.225 100.787 207.167 101.091 207.054 101.331C206.941 101.571 206.749 101.77 206.479 101.926L205.279 102.619C205.009 102.773 204.817 102.797 204.703 102.687Z" fill="#F6B97B"/>
<path d="M212.162 98.3804C212.049 98.2719 211.992 98.0339 211.992 97.6678V82.8614C211.992 82.496 212.049 82.188 212.162 81.9395C212.276 81.691 212.463 81.4915 212.722 81.3417L219.452 77.456C219.712 77.3062 219.89 77.2824 219.988 77.3839C220.085 77.4861 220.133 77.7283 220.133 78.1112V79.0352C220.133 79.4181 220.085 79.7205 219.988 79.9431C219.89 80.1664 219.712 80.3519 219.452 80.5017L214.668 83.2639V87.2091L218.009 85.2799C218.268 85.1301 218.446 85.1063 218.544 85.2078C218.641 85.31 218.69 85.5529 218.69 85.9358V86.8094C218.69 87.1923 218.641 87.4947 218.544 87.7173C218.446 87.9406 218.268 88.1268 218.009 88.2766L214.668 90.2058V94.1755L219.436 91.4224C219.696 91.2726 219.874 91.253 219.971 91.3636C220.069 91.4735 220.118 91.7199 220.118 92.1028V93.0016C220.118 93.3845 220.069 93.6834 219.971 93.8976C219.874 94.1125 219.696 94.2938 219.436 94.4436L212.722 98.3202C212.463 98.4693 212.276 98.4896 212.162 98.3804Z" fill="#F6B97B"/>
<path d="M168.743 136.041L222.582 104.958C223.419 104.475 224.097 104.866 224.097 105.833V107.258C224.097 108.225 223.418 109.4 222.582 109.883L168.744 140.967C167.907 141.45 167.229 141.058 167.229 140.092V138.666C167.228 137.7 167.906 136.525 168.743 136.041Z" fill="#E0E0E0"/>
<path d="M177.275 146.651L214.052 125.423C214.889 124.94 215.567 125.332 215.567 126.298V127.723C215.567 128.69 214.888 129.865 214.052 130.348L177.275 151.577C176.438 152.06 175.76 151.668 175.76 150.702V149.276C175.759 148.31 176.437 147.135 177.275 146.651Z" fill="#E6E6E6"/>
<path d="M177.275 156.637L214.052 135.409C214.889 134.926 215.567 135.317 215.567 136.284V137.709C215.567 138.675 214.888 139.851 214.052 140.334L177.275 161.562C176.438 162.045 175.76 161.654 175.76 160.687V159.262C175.759 158.296 176.437 157.12 177.275 156.637Z" fill="#E6E6E6"/>
<path d="M177.275 166.622L214.052 145.394C214.889 144.911 215.567 145.302 215.567 146.269V147.694C215.567 148.661 214.888 149.836 214.052 150.319L177.275 171.547C176.438 172.03 175.76 171.639 175.76 170.672V169.247C175.759 168.281 176.437 167.106 177.275 166.622Z" fill="#E6E6E6"/>
<path d="M168.743 187.295L222.582 156.211C223.419 155.728 224.097 156.12 224.097 157.086V158.512C224.097 159.478 223.418 160.654 222.582 161.137L168.744 192.22C167.907 192.703 167.229 192.312 167.229 191.345V189.92C167.228 188.954 167.906 187.779 168.743 187.295Z" fill="#E0E0E0"/>
<path d="M177.275 197.947L214.052 176.719C214.889 176.236 215.567 176.627 215.567 177.594V179.019C215.567 179.986 214.888 181.161 214.052 181.644L177.275 202.873C176.438 203.356 175.76 202.964 175.76 201.998V200.572C175.759 199.606 176.437 198.43 177.275 197.947Z" fill="#E6E6E6"/>
<path d="M177.275 207.933L214.052 186.705C214.889 186.222 215.567 186.613 215.567 187.58V189.005C215.567 189.972 214.888 191.147 214.052 191.63L177.275 212.858C176.438 213.341 175.76 212.95 175.76 211.983V210.558C175.759 209.591 176.437 208.416 177.275 207.933Z" fill="#E6E6E6"/>
<path d="M177.275 217.919L214.052 196.69C214.889 196.207 215.567 196.599 215.567 197.565V198.991C215.567 199.957 214.888 201.133 214.052 201.616L177.275 222.844C176.438 223.327 175.76 222.935 175.76 221.969V220.544C175.759 219.577 176.437 218.402 177.275 217.919Z" fill="#E6E6E6"/>
<path d="M149.147 155.595C147.969 156.319 146.7 156.596 145.123 157.748C143.733 158.762 143.117 158.773 141.56 159.15C139.872 159.56 126.498 155.605 124.156 153.559C120.519 150.383 114.071 138.921 111.665 136.166C109.683 133.898 106.929 130.827 104.488 130.812C100.449 132.034 101.363 138.04 104.742 143.449C107.535 147.92 113.291 156.849 119.301 160.791C122.214 162.701 136.45 166.068 140.907 166.36C142.263 166.449 144.662 167.033 146.789 167.169C149.731 167.358 151.678 166.709 152.881 166.127C154.397 165.393 155.761 164.305 156.685 162.898C157.194 162.124 157.569 161.248 157.671 160.328C157.774 159.407 157.59 158.44 157.067 157.675C156.962 157.519 156.837 157.369 156.668 157.286C156.363 157.138 156.001 157.246 155.681 157.357C153.89 157.978 152.051 158.914 150.213 159.341C148.66 159.702 147.512 159.742 147.663 159.46C147.814 159.179 148.742 159.03 149.801 158.128C149.927 158.02 150.053 157.901 150.162 157.777L150.161 154.983C149.971 155.052 149.698 155.256 149.147 155.595Z" fill="#B16668"/>
<path d="M104.23 129.395C101.247 130.858 100.037 133.081 101.362 138.04C102.551 142.493 107.115 150.085 110.707 153.801C110.707 153.801 116.85 150.89 120.121 147.106C116.882 142.152 115.326 139.239 112.285 135.049C109.244 130.86 106.051 128.894 104.23 129.395Z" fill="#455A64"/>
</svg>
