<svg width="400" height="401" viewBox="0 0 400 401" fill="none" xmlns="http://www.w3.org/2000/svg">
<path d="M328.832 96.4123C328.832 96.4123 309.28 52.9054 266.104 46.4572C222.928 40.009 192.784 71.4348 161.008 87.5461C144.368 95.9818 125.368 92.7119 107.704 96.7879C51.224 109.849 29.944 191.679 53.472 238.218C73.84 278.51 109.688 299.457 164.272 304.293C218.856 309.129 257.144 314.771 306.024 275.285C354.904 235.799 351.648 153.613 328.832 96.4123Z" fill="#F6B97B"/>
<path opacity="0.8" d="M328.832 96.4123C328.832 96.4123 309.28 52.9054 266.104 46.4572C222.928 40.009 192.784 71.4348 161.008 87.5461C144.368 95.9818 125.368 92.7119 107.704 96.7879C51.224 109.849 29.944 191.679 53.472 238.218C73.84 278.51 109.688 299.457 164.272 304.293C218.856 309.129 257.144 314.771 306.024 275.285C354.904 235.799 351.648 153.613 328.832 96.4123Z" fill="white"/>
<path d="M297.064 136.028L288.664 171.068C288.664 171.068 291.56 175.124 292.72 176.284C293.88 177.444 296.488 177.444 297.352 177.444C298.216 177.444 330.944 178.02 330.944 178.02L337.384 135.156" stroke="#263238" stroke-width="0.8" stroke-linecap="round" stroke-linejoin="round"/>
<path d="M304.072 129.412L301.408 129.364" stroke="#263238" stroke-width="0.8" stroke-linecap="round" stroke-linejoin="round"/>
<path d="M290.4 171.644L325.736 171.524L333.256 129.94L307.344 129.468" stroke="#263238" stroke-width="0.8" stroke-linecap="round" stroke-linejoin="round"/>
<path d="M292.424 171.932L295.32 175.124L329.208 175.988L335.336 138.836L332.68 135.156" stroke="#263238" stroke-width="0.8" stroke-linecap="round" stroke-linejoin="round"/>
<path d="M298.352 173.772H303.256C303.256 173.772 302.44 177.652 302.032 181.332C301.624 185.012 301.416 189.708 301.416 189.708L298.552 184.396L295.08 188.892L298.352 173.772Z" fill="#263238"/>
<path d="M77.672 226.452L98.552 218.036C98.552 218.036 99.568 215.092 99.736 214.084C99.904 213.076 98.96 211.748 98.648 211.308C98.336 210.868 86.776 193.996 86.776 193.996L62.624 206.236" stroke="#263238" stroke-width="0.8" stroke-linecap="round" stroke-linejoin="round"/>
<path d="M71.7681 225.276L72.7041 226.652" stroke="#263238" stroke-width="0.8" stroke-linecap="round" stroke-linejoin="round"/>
<path d="M98.224 216.94L85.368 198.996L61.4641 210.22L70.6081 223.588" stroke="#263238" stroke-width="0.8" stroke-linecap="round" stroke-linejoin="round"/>
<path d="M97.6321 215.804L98.2081 213.18L86.3761 195.612L65.2401 205.94L64.3281 208.628" stroke="#263238" stroke-width="0.8" stroke-linecap="round" stroke-linejoin="round"/>
<path d="M96.4241 212.124L94.6481 209.628C94.6481 209.628 96.9201 208.636 98.9441 207.516C100.968 206.396 103.432 204.796 103.432 204.796L101.76 208.18L105.304 208.324L96.4241 212.132V212.124Z" fill="#263238"/>
<path d="M173.168 141.252L171.512 142.084L186.144 170.084L210.648 143.988L240.56 134.764L225.608 110.9L224.288 110.996" stroke="#263238" stroke-width="0.8" stroke-linecap="round" stroke-linejoin="round"/>
<path d="M195.056 117.58L208.104 141.124C208.104 141.124 202.376 139.852 201.104 145.26C199.832 150.668 194.104 157.668 191.56 160.852C189.016 164.036 186.472 166.26 186.472 166.26L172.472 139.532C172.472 139.532 179.152 134.124 182.336 126.484C185.52 118.844 190.608 116.62 195.064 117.572L195.056 117.58Z" stroke="#263238" stroke-width="0.8" stroke-linecap="round" stroke-linejoin="round"/>
<path d="M208.104 141.124C208.104 141.124 209.696 136.348 213.512 136.036C217.328 135.716 224.328 136.988 230.376 135.084C236.424 133.172 237.376 132.54 237.376 132.54L222.736 108.676C222.736 108.676 219.232 111.54 210.328 111.54C201.424 111.54 196.008 113.132 195.056 117.588L208.104 141.132V141.124Z" stroke="#263238" stroke-width="0.8" stroke-linecap="round" stroke-linejoin="round"/>
<path d="M209.056 143.676C209.056 143.676 206.832 144.628 204.6 146.54C202.376 148.452 200.464 151.948 196.648 156.724" stroke="#263238" stroke-width="0.8" stroke-linecap="round" stroke-linejoin="round"/>
<path d="M211.6 141.764C211.6 141.764 213.824 138.9 217.328 138.58C220.832 138.26 226.872 138.26 236.736 134.444" stroke="#263238" stroke-width="0.8" stroke-linecap="round" stroke-linejoin="round"/>
<path d="M177.24 143.036C177.24 143.036 180.424 139.532 184.88 133.172C189.336 126.812 192.52 124.26 196.016 124.26" stroke="#263238" stroke-width="0.8" stroke-linecap="round" stroke-linejoin="round"/>
<path d="M179.784 147.172C179.784 147.172 182.968 143.668 187.424 137.308C191.88 130.94 195.064 128.396 198.56 128.396" stroke="#263238" stroke-width="0.8" stroke-linecap="round" stroke-linejoin="round"/>
<path d="M182.328 151.308C182.328 151.308 185.512 147.804 189.968 141.444C194.424 135.076 197.608 132.532 201.104 132.532" stroke="#263238" stroke-width="0.8" stroke-linecap="round" stroke-linejoin="round"/>
<path d="M184.872 155.444C184.872 155.444 188.056 151.94 192.512 145.58C196.968 139.212 200.152 136.668 203.648 136.668" stroke="#263238" stroke-width="0.8" stroke-linecap="round" stroke-linejoin="round"/>
<path d="M200.464 122.356C200.464 122.356 201.736 118.852 206.512 118.852C211.288 118.852 221.824 118.436 223.056 114.716" stroke="#263238" stroke-width="0.8" stroke-linecap="round" stroke-linejoin="round"/>
<path d="M203.328 127.124C203.328 127.124 205.552 124.26 211.6 124.26C217.648 124.26 223.056 122.988 226.552 119.484" stroke="#263238" stroke-width="0.8" stroke-linecap="round" stroke-linejoin="round"/>
<path d="M205.24 131.9C205.24 131.9 207.152 127.764 212.56 127.764C217.968 127.764 224.648 126.812 228.472 123.948" stroke="#263238" stroke-width="0.8" stroke-linecap="round" stroke-linejoin="round"/>
<path d="M207.464 135.396C207.464 135.396 208.416 132.212 213.832 131.892C219.24 131.572 225.92 130.3 231.016 128.076" stroke="#263238" stroke-width="0.8" stroke-linecap="round" stroke-linejoin="round"/>
<path d="M266.424 64.2445L265.592 63.2925L249.496 77.8765L271.096 89.6605L282.416 107.964L295.704 93.8845L295.416 93.0285" stroke="#263238" stroke-width="0.8" stroke-linecap="round" stroke-linejoin="round"/>
<path d="M285.968 74.7162L272.56 87.4762C272.56 87.4762 272.416 83.4442 268.592 83.5322C264.776 83.6202 259.12 81.0202 256.568 79.8842C254.008 78.7402 252.088 77.4362 252.088 77.4362L267.448 63.4922C267.448 63.4922 272.208 67.0042 277.84 67.7962C283.472 68.5882 285.84 71.5962 285.976 74.7242L285.968 74.7162Z" stroke="#263238" stroke-width="0.8" stroke-linecap="round" stroke-linejoin="round"/>
<path d="M272.56 87.4767C272.56 87.4767 276.008 87.7087 276.888 90.1967C277.76 92.6847 278.128 97.5567 280.448 101.253C282.768 104.941 283.352 105.469 283.352 105.469L296.696 91.5967C296.696 91.5967 294.184 89.7647 292.64 83.8367C291.096 77.9087 289.104 74.5887 285.968 74.7247L272.56 87.4847V87.4767Z" stroke="#263238" stroke-width="0.8" stroke-linecap="round" stroke-linejoin="round"/>
<path d="M271.032 88.5483C271.032 88.5483 270.008 87.2283 268.352 86.0763C266.696 84.9243 264.04 84.2603 260.2 82.5483" stroke="#263238" stroke-width="0.8" stroke-linecap="round" stroke-linejoin="round"/>
<path d="M272.744 89.9082C272.744 89.9082 275.032 90.8922 275.856 93.1642C276.672 95.4362 277.72 99.4602 281.968 105.364" stroke="#263238" stroke-width="0.8" stroke-linecap="round" stroke-linejoin="round"/>
<path d="M265.944 67.2686C265.944 67.2686 268.824 68.7806 273.832 70.6446C278.84 72.5086 281.08 74.1806 281.688 76.5086" stroke="#263238" stroke-width="0.8" stroke-linecap="round" stroke-linejoin="round"/>
<path d="M263.632 69.6763C263.632 69.6763 266.512 71.1883 271.52 73.0523C276.528 74.9163 278.768 76.5883 279.376 78.9163" stroke="#263238" stroke-width="0.8" stroke-linecap="round" stroke-linejoin="round"/>
<path d="M261.32 72.0845C261.32 72.0845 264.2 73.5965 269.208 75.4605C274.216 77.3245 276.456 78.9965 277.064 81.3245" stroke="#263238" stroke-width="0.8" stroke-linecap="round" stroke-linejoin="round"/>
<path d="M259.008 74.5C259.008 74.5 261.888 76.012 266.896 77.876C271.904 79.74 274.144 81.412 274.752 83.74" stroke="#263238" stroke-width="0.8" stroke-linecap="round" stroke-linejoin="round"/>
<path d="M283.728 79.1406C283.728 79.1406 286.28 79.3806 287.104 82.5566C287.928 85.7326 290.032 92.6766 292.72 92.8526" stroke="#263238" stroke-width="0.8" stroke-linecap="round" stroke-linejoin="round"/>
<path d="M281.048 81.8687C281.048 81.8687 283.336 82.8527 284.384 86.8767C285.432 90.9007 287.216 94.2767 290.152 96.0047" stroke="#263238" stroke-width="0.8" stroke-linecap="round" stroke-linejoin="round"/>
<path d="M278.208 83.9727C278.208 83.9727 281.288 84.5247 282.224 88.1247C283.16 91.7247 284.952 96.0047 287.52 98.0527" stroke="#263238" stroke-width="0.8" stroke-linecap="round" stroke-linejoin="round"/>
<path d="M276.264 86.0605C276.264 86.0605 278.544 86.1405 279.696 89.6925C280.848 93.2445 282.848 97.4605 285.216 100.461" stroke="#263238" stroke-width="0.8" stroke-linecap="round" stroke-linejoin="round"/>
<path d="M106.04 105.908L92.6721 126.868L95.5681 127.588L108.936 107.716L130.256 119.996L133.144 117.108L109.656 104.828" stroke="#263238" stroke-width="0.8" stroke-linecap="round" stroke-linejoin="round"/>
<path d="M108.936 107.716L114.712 142.404L132.416 152.516L129.888 121.804" stroke="#263238" stroke-width="0.8" stroke-linecap="round" stroke-linejoin="round"/>
<path d="M132.416 152.516L135.312 147.1L133.144 117.108" stroke="#263238" stroke-width="0.8" stroke-linecap="round" stroke-linejoin="round"/>
<path d="M114.712 142.405L102.792 158.661L96.6481 130.477" stroke="#263238" stroke-width="0.8" stroke-linecap="round" stroke-linejoin="round"/>
<path d="M92.6721 126.868L99.5441 158.3L102.792 158.66" stroke="#263238" stroke-width="0.8" stroke-linecap="round" stroke-linejoin="round"/>
<path d="M109.656 119.636L100.264 132.644" stroke="#263238" stroke-width="0.8" stroke-linecap="round" stroke-linejoin="round"/>
<path d="M110.376 125.78L100.984 138.788" stroke="#263238" stroke-width="0.8" stroke-linecap="round" stroke-linejoin="round"/>
<path d="M111.104 131.924L101.712 144.932" stroke="#263238" stroke-width="0.8" stroke-linecap="round" stroke-linejoin="round"/>
<path d="M111.824 138.068L102.432 151.076" stroke="#263238" stroke-width="0.8" stroke-linecap="round" stroke-linejoin="round"/>
<path d="M113.632 119.996L126.28 127.228" stroke="#263238" stroke-width="0.8" stroke-linecap="round" stroke-linejoin="round"/>
<path d="M113.632 125.78L126.28 133.004" stroke="#263238" stroke-width="0.8" stroke-linecap="round" stroke-linejoin="round"/>
<path d="M115.44 131.924L128.088 139.148" stroke="#263238" stroke-width="0.8" stroke-linecap="round" stroke-linejoin="round"/>
<path d="M115.8 138.068L128.448 145.292" stroke="#263238" stroke-width="0.8" stroke-linecap="round" stroke-linejoin="round"/>
<path d="M260.104 241.044L271.296 218.844L268.344 218.42L257.048 239.532L234.6 229.46L232.016 232.628L256.616 242.484" stroke="#263238" stroke-width="0.8" stroke-linecap="round" stroke-linejoin="round"/>
<path d="M257.048 239.532L247.8 205.604L229.168 197.324L234.776 227.628" stroke="#263238" stroke-width="0.8" stroke-linecap="round" stroke-linejoin="round"/>
<path d="M229.168 197.324L226.84 203.012L232.016 232.628" stroke="#263238" stroke-width="0.8" stroke-linecap="round" stroke-linejoin="round"/>
<path d="M247.8 205.605L258.024 188.229L266.976 215.653" stroke="#263238" stroke-width="0.8" stroke-linecap="round" stroke-linejoin="round"/>
<path d="M271.296 218.845L261.296 188.261L258.024 188.229" stroke="#263238" stroke-width="0.8" stroke-linecap="round" stroke-linejoin="round"/>
<path d="M255.128 227.748L263.16 213.86" stroke="#263238" stroke-width="0.8" stroke-linecap="round" stroke-linejoin="round"/>
<path d="M253.792 221.708L261.824 207.82" stroke="#263238" stroke-width="0.8" stroke-linecap="round" stroke-linejoin="round"/>
<path d="M252.448 215.668L260.488 201.78" stroke="#263238" stroke-width="0.8" stroke-linecap="round" stroke-linejoin="round"/>
<path d="M251.112 209.628L259.152 195.74" stroke="#263238" stroke-width="0.8" stroke-linecap="round" stroke-linejoin="round"/>
<path d="M251.136 227.788L237.824 221.868" stroke="#263238" stroke-width="0.8" stroke-linecap="round" stroke-linejoin="round"/>
<path d="M250.552 222.036L237.24 216.116" stroke="#263238" stroke-width="0.8" stroke-linecap="round" stroke-linejoin="round"/>
<path d="M248.136 216.108L234.824 210.188" stroke="#263238" stroke-width="0.8" stroke-linecap="round" stroke-linejoin="round"/>
<path d="M247.16 210.028L233.848 204.116" stroke="#263238" stroke-width="0.8" stroke-linecap="round" stroke-linejoin="round"/>
<path d="M298.696 249.86H214.12V267.172H298.696V249.86Z" fill="white" stroke="#263238" stroke-width="0.8" stroke-linecap="round" stroke-linejoin="round"/>
<path d="M215 254.348H229.84" stroke="#263238" stroke-width="0.8" stroke-linecap="round" stroke-linejoin="round"/>
<path d="M234.792 259.068H236.816" stroke="#263238" stroke-width="0.8" stroke-linecap="round" stroke-linejoin="round"/>
<path d="M214.768 259.068H231.416" stroke="#263238" stroke-width="0.8" stroke-linecap="round" stroke-linejoin="round"/>
<path d="M215.12 263.964H221.968" stroke="#263238" stroke-width="0.8" stroke-linecap="round" stroke-linejoin="round"/>
<path d="M281.336 250.452C281.336 250.452 278.952 257.812 281.336 266.772H315.416C315.416 266.772 311.832 256.428 315.416 250.452H281.336Z" fill="white"/>
<mask id="mask0_1186_28592" style="mask-type:luminance" maskUnits="userSpaceOnUse" x="280" y="250" width="36" height="17">
<path d="M281.336 250.452C281.336 250.452 278.952 257.812 281.336 266.772H315.416C315.416 266.772 311.832 256.428 315.416 250.452H281.336Z" fill="white"/>
</mask>
<g mask="url(#mask0_1186_28592)">
<path opacity="0.24" d="M281.336 250.452C281.336 250.452 278.952 257.812 281.336 266.772H315.416C315.416 266.772 311.832 256.428 315.416 250.452H281.336Z" fill="black" stroke="#263238" stroke-width="0.8" stroke-linecap="round" stroke-linejoin="round"/>
</g>
<path d="M281.336 250.452C281.336 250.452 278.952 257.812 281.336 266.772H315.416C315.416 266.772 311.832 256.428 315.416 250.452H281.336Z" stroke="#263238" stroke-width="0.8" stroke-linecap="round" stroke-linejoin="round"/>
<path d="M215.12 263.964V252.14C215.12 251.532 215.608 251.044 216.216 251.044H316.776C317.232 251.044 317.608 250.676 317.608 250.212C317.608 249.756 317.24 249.38 316.776 249.38H213.496C212.888 249.38 212.4 249.868 212.4 250.476V265.612C212.4 266.588 213.192 267.38 214.168 267.38H316.768C317.224 267.38 317.6 267.012 317.6 266.548C317.6 266.092 317.232 265.716 316.768 265.716H216.888C215.912 265.716 215.12 264.924 215.12 263.948V263.964Z" fill="#263238" stroke="#263238" stroke-width="0.8" stroke-linecap="round" stroke-linejoin="round"/>
<path d="M298.696 285.588H214.12V302.9H298.696V285.588Z" fill="white" stroke="#263238" stroke-width="0.8" stroke-linecap="round" stroke-linejoin="round"/>
<path d="M215.536 288.924H230.384" stroke="#263238" stroke-width="0.8" stroke-linecap="round" stroke-linejoin="round"/>
<path d="M235.328 293.652H237.352" stroke="#263238" stroke-width="0.8" stroke-linecap="round" stroke-linejoin="round"/>
<path d="M215.312 293.652H231.952" stroke="#263238" stroke-width="0.8" stroke-linecap="round" stroke-linejoin="round"/>
<path d="M215.656 298.54H222.504" stroke="#263238" stroke-width="0.8" stroke-linecap="round" stroke-linejoin="round"/>
<path d="M281.864 286.188C281.864 286.188 279.48 293.548 281.864 302.508H315.408C315.408 302.508 311.824 292.156 315.408 286.188H281.864Z" fill="white"/>
<mask id="mask1_1186_28592" style="mask-type:luminance" maskUnits="userSpaceOnUse" x="280" y="286" width="36" height="17">
<path d="M281.864 286.188C281.864 286.188 279.48 293.548 281.864 302.508H315.408C315.408 302.508 311.824 292.156 315.408 286.188H281.864Z" fill="white"/>
</mask>
<g mask="url(#mask1_1186_28592)">
<path opacity="0.24" d="M281.864 286.188C281.864 286.188 279.48 293.548 281.864 302.508H315.408C315.408 302.508 311.824 292.156 315.408 286.188H281.864Z" fill="black" stroke="#263238" stroke-width="0.8" stroke-linecap="round" stroke-linejoin="round"/>
</g>
<path d="M281.864 286.188C281.864 286.188 279.48 293.548 281.864 302.508H315.408C315.408 302.508 311.824 292.156 315.408 286.188H281.864Z" stroke="#263238" stroke-width="0.8" stroke-linecap="round" stroke-linejoin="round"/>
<path d="M215.12 299.7V287.876C215.12 287.268 215.608 286.78 216.216 286.78H316.776C317.232 286.78 317.608 286.412 317.608 285.948C317.608 285.492 317.24 285.116 316.776 285.116H213.496C212.888 285.116 212.4 285.604 212.4 286.212V301.348C212.4 302.324 213.192 303.116 214.168 303.116H316.768C317.224 303.116 317.6 302.748 317.6 302.284C317.6 301.828 317.232 301.452 316.768 301.452H216.888C215.912 301.452 215.12 300.66 215.12 299.684V299.7Z" fill="#263238" stroke="#263238" stroke-width="0.8" stroke-linecap="round" stroke-linejoin="round"/>
<path d="M215.2 319.396C215.792 317.412 217.968 309.188 215.28 303.932H312.608V319.396H215.2Z" fill="white" stroke="#263238" stroke-width="0.8" stroke-linecap="round" stroke-linejoin="round"/>
<path d="M273.312 307.348H258.464" stroke="#263238" stroke-width="0.8" stroke-linecap="round" stroke-linejoin="round"/>
<path d="M253.512 312.068H251.488" stroke="#263238" stroke-width="0.8" stroke-linecap="round" stroke-linejoin="round"/>
<path d="M273.536 312.068H256.888" stroke="#263238" stroke-width="0.8" stroke-linecap="round" stroke-linejoin="round"/>
<path d="M273.184 316.964H266.336" stroke="#263238" stroke-width="0.8" stroke-linecap="round" stroke-linejoin="round"/>
<path d="M273.856 317.836V306.012C273.856 305.404 273.368 304.916 272.76 304.916H213.224C212.768 304.916 212.392 304.548 212.392 304.084C212.392 303.628 212.76 303.252 213.224 303.252H316.504C317.112 303.252 317.6 303.74 317.6 304.348V319.484C317.6 320.46 316.808 321.252 315.832 321.252H213.232C212.776 321.252 212.4 320.884 212.4 320.42C212.4 319.964 212.768 319.588 213.232 319.588H272.088C273.064 319.588 273.856 318.796 273.856 317.82V317.836Z" fill="#263238" stroke="#263238" stroke-width="0.8" stroke-linecap="round" stroke-linejoin="round"/>
<path d="M215.2 337.525C215.792 335.541 217.968 327.317 215.28 322.061H312.608V337.525H215.2Z" fill="white" stroke="#263238" stroke-width="0.8" stroke-linecap="round" stroke-linejoin="round"/>
<path d="M273.264 325.588H258.416" stroke="#263238" stroke-width="0.8" stroke-linecap="round" stroke-linejoin="round"/>
<path d="M253.464 330.316H251.44" stroke="#263238" stroke-width="0.8" stroke-linecap="round" stroke-linejoin="round"/>
<path d="M273.488 330.316H256.84" stroke="#263238" stroke-width="0.8" stroke-linecap="round" stroke-linejoin="round"/>
<path d="M273.136 335.213H266.288" stroke="#263238" stroke-width="0.8" stroke-linecap="round" stroke-linejoin="round"/>
<path d="M273.856 335.964V324.14C273.856 323.532 273.368 323.044 272.76 323.044H213.224C212.768 323.044 212.392 322.676 212.392 322.212C212.392 321.756 212.76 321.38 213.224 321.38H316.504C317.112 321.38 317.6 321.868 317.6 322.476V337.612C317.6 338.588 316.808 339.38 315.832 339.38H213.232C212.776 339.38 212.4 339.012 212.4 338.548C212.4 338.092 212.768 337.716 213.232 337.716H272.088C273.064 337.716 273.856 336.924 273.856 335.948V335.964Z" fill="#F6B97B" stroke="#263238" stroke-width="0.8" stroke-linecap="round" stroke-linejoin="round"/>
<path d="M215.2 283.124C215.792 281.14 217.968 272.916 215.28 267.66H312.608V283.124H215.2Z" fill="white" stroke="#263238" stroke-width="0.8" stroke-linecap="round" stroke-linejoin="round"/>
<path d="M273.52 271.125H258.672" stroke="#263238" stroke-width="0.8" stroke-linecap="round" stroke-linejoin="round"/>
<path d="M253.72 275.844H251.696" stroke="#263238" stroke-width="0.8" stroke-linecap="round" stroke-linejoin="round"/>
<path d="M273.744 275.844H257.096" stroke="#263238" stroke-width="0.8" stroke-linecap="round" stroke-linejoin="round"/>
<path d="M273.4 280.74H266.544" stroke="#263238" stroke-width="0.8" stroke-linecap="round" stroke-linejoin="round"/>
<path d="M273.856 281.564V269.74C273.856 269.132 273.368 268.644 272.76 268.644H213.224C212.768 268.644 212.392 268.276 212.392 267.812C212.392 267.356 212.76 266.98 213.224 266.98H316.504C317.112 266.98 317.6 267.468 317.6 268.076V283.212C317.6 284.188 316.808 284.98 315.832 284.98H213.232C212.776 284.98 212.4 284.612 212.4 284.148C212.4 283.692 212.768 283.316 213.232 283.316H272.088C273.064 283.316 273.856 282.524 273.856 281.548V281.564Z" fill="#F6B97B" stroke="#263238" stroke-width="0.8" stroke-linecap="round" stroke-linejoin="round"/>
<path d="M134.936 294.124C134.936 294.124 126.672 294.388 114.672 291.46C102.672 288.524 92.808 290.66 90.936 302.124C89.072 313.588 119.736 325.324 141.072 329.588C162.408 333.852 183.736 335.724 194.136 331.188C204.536 326.652 204.272 310.388 200.272 302.924C196.272 295.46 182.936 294.388 176.008 295.46C169.072 296.524 134.944 294.124 134.944 294.124H134.936Z" fill="#263238" stroke="#263238" stroke-width="0.8" stroke-linecap="round" stroke-linejoin="round"/>
<path d="M188.8 243.996C187.656 236.316 186.52 228.628 185.368 220.94C184.304 213.804 183.856 206.164 182 199.196C179.6 188.796 176 183.196 165.2 181.196C154.4 179.196 142.4 190.796 142.4 195.996C142.4 201.196 146.112 212.932 140.4 231.396C138.448 237.708 146 238.604 155.128 235.812L188.8 243.996Z" fill="#263238" stroke="#263238" stroke-width="0.8" stroke-linecap="round" stroke-linejoin="round"/>
<path d="M159.8 227.996C159.8 227.996 146.6 229.796 140.4 231.396C134.2 232.996 131.968 235.268 129.768 239.468C127.568 243.668 124.216 259.42 121.016 266.02C117.816 272.62 112 274.396 111 281.396C110 288.396 115.6 290.796 119.8 291.596C124 292.396 129.2 292.596 129.2 292.596C129.2 292.596 136 308.596 149.2 309.796C162.4 310.996 172.2 301.796 178.2 298.396C184.2 294.996 184.6 287.196 184.8 278.196C185 269.196 190.32 248.964 188.92 243.364C187.52 237.764 185.424 236.844 176.344 232.18C172.456 230.188 165.408 227.596 159.808 227.996H159.8Z" fill="#F6B97B" stroke="#263238" stroke-width="0.8" stroke-linecap="round" stroke-linejoin="round"/>
<path d="M118.304 270.148C115.256 273.804 111.76 276.108 111 281.396C110.832 282.588 110.864 283.628 111.032 284.572C111.848 285.804 114.352 288.724 119.24 287.324C125.352 285.58 124.696 277.06 120.984 271.828C120.248 270.788 119.32 270.276 118.296 270.148H118.304Z" fill="white" stroke="#263238" stroke-width="0.8" stroke-linecap="round" stroke-linejoin="round"/>
<path d="M158.864 255.004C164.456 252.444 167.48 248.012 170.048 239.628C171.248 235.7 171.936 232.596 172.328 230.404C168.528 228.948 163.8 227.708 159.8 227.996C159.8 227.996 154.104 228.772 148.432 229.764C147.96 232.708 146.832 241.084 148.152 247.324C149.784 255.012 153.28 257.572 158.864 255.012V255.004Z" fill="white" stroke="#263238" stroke-width="0.8" stroke-linecap="round" stroke-linejoin="round"/>
<path d="M132.4 284.196C132.4 284.196 136.4 274.196 136.4 271.396C136.4 268.596 134.6 265.796 133.2 262.196C131.8 258.596 135.4 252.596 135.4 252.596C135.4 252.596 137.672 235.204 139.768 232.18" stroke="#263238" stroke-width="0.8" stroke-linecap="round" stroke-linejoin="round"/>
<path d="M113.4 264.596L116.4 261.396C116.4 261.396 118.264 262.548 122.6 263.996C130.704 266.692 134.4 268.396 134.8 273.196C134.8 273.196 140.2 269.796 145.6 270.396C151 270.996 155.8 273.196 157.4 273.396L159 273.596L159.4 276.396L156.4 292.196L133 289.796L117 275.796L113.4 264.596Z" fill="white" stroke="#263238" stroke-width="0.8" stroke-linecap="round" stroke-linejoin="round"/>
<path d="M112.4 263.996L131.4 280.196L133.4 276.996L160.6 276.396L159 293.996L133.2 292.796L131.4 293.996L117.4 283.596L112.4 263.996Z" fill="#263238" stroke="#263238" stroke-width="0.8" stroke-linecap="round" stroke-linejoin="round"/>
<path d="M178.6 258.596L178.2 281.396C178.2 281.396 166.4 287.996 159.8 289.796C153.2 291.596 149.2 291.596 148.6 291.596C148 291.596 145.4 287.396 144 285.996C142.6 284.596 141.472 284.572 138.912 283.292C135.352 281.508 133.8 281.196 134 281.996C134.2 282.796 134.4 283.596 136.2 284.596C138 285.596 139.2 286.396 139.2 286.396L139.6 287.196C139.6 287.196 135.2 286.596 133.4 286.196C131.6 285.796 127 282.596 127 282.596C127 282.596 125.04 282.476 126.44 284.876C127.84 287.276 129.2 287.396 129.2 287.396C129.2 287.396 129.6 289.796 131.2 291.196C132.8 292.596 134 293.396 134 293.396C134 293.396 130.2 292.396 130.6 293.396C131 294.396 133.4 294.796 136.4 296.196C139.4 297.596 146.2 297.796 150 298.396C153.8 298.996 162.8 299.596 170.8 298.796C178.8 297.996 190.8 292.596 193 290.796C195.2 288.996 193.8 268.796 193.2 264.196C192.6 259.596 191.4 250.996 190.6 246.996C189.8 242.996 186.6 237.396 184.6 236.196C182.6 234.996 179 238.796 178.6 258.596Z" fill="white" stroke="#263238" stroke-width="0.8" stroke-linecap="round" stroke-linejoin="round"/>
<path d="M129.2 287.396C129.2 287.396 133.96 290.22 137.528 291.013L129.2 287.396Z" fill="white"/>
<path d="M129.2 287.396C129.2 287.396 133.96 290.221 137.528 291.013" stroke="#263238" stroke-width="0.8" stroke-linecap="round" stroke-linejoin="round"/>
<path d="M134 293.396C134 293.396 136.536 294.372 138.712 294.372L134 293.396Z" fill="white"/>
<path d="M134 293.396C134 293.396 136.536 294.372 138.712 294.372" stroke="#263238" stroke-width="0.8" stroke-linecap="round" stroke-linejoin="round"/>
<path d="M129.808 289.428C129.808 289.428 133.176 292.004 138.12 293.188L129.808 289.428Z" fill="white"/>
<path d="M129.808 289.428C129.808 289.428 133.176 292.004 138.12 293.188" stroke="#263238" stroke-width="0.8" stroke-linecap="round" stroke-linejoin="round"/>
<path d="M173.184 298.444C181 296.996 191.008 292.42 193 290.788C195.2 288.988 193.8 268.788 193.2 264.188C192.6 259.588 191.4 250.988 190.6 246.988C189.8 242.988 186.6 237.388 184.6 236.188C182.6 234.988 179 238.788 178.6 258.588L178.2 281.388C178.2 281.388 173.616 283.956 168.56 286.324C170.512 288.444 173.8 292.916 173.184 298.444Z" fill="#F6B97B" stroke="#263238" stroke-width="0.8" stroke-linecap="round" stroke-linejoin="round"/>
<path d="M152.704 225.62C152.704 225.62 150.912 235.988 150.736 242.428C150.56 248.868 155.384 255.3 162.184 247.076C168.976 238.852 167.904 225.26 167.904 225.26C167.904 225.26 160.928 229.012 152.704 225.62Z" fill="white" stroke="#263238" stroke-width="0.8" stroke-linecap="round" stroke-linejoin="round"/>
<path d="M153.24 230.092C153.24 230.092 153.6 235.636 153.064 238.676" stroke="#263238" stroke-width="0.8" stroke-linecap="round" stroke-linejoin="round"/>
<path d="M112.936 279.268C112.936 279.268 112.432 280.692 113.24 282.012C114.048 283.332 118.312 285.868 118.312 284.852C118.312 283.836 116.184 282.42 116.08 281.708C115.976 280.996 115.368 279.98 115.368 279.98C115.368 279.98 113.848 278.052 112.936 279.268Z" fill="white" stroke="#263238" stroke-width="0.8" stroke-linecap="round" stroke-linejoin="round"/>
<path d="M110.888 273.34C110.888 273.34 110.688 276.308 111.2 277.692C111.704 279.084 117.056 282.772 118.432 282.068C119.808 281.364 115.576 277.692 114.584 276.54C113.584 275.388 110.896 273.34 110.896 273.34H110.888Z" fill="white" stroke="#263238" stroke-width="0.8" stroke-linecap="round" stroke-linejoin="round"/>
<path d="M110.904 269.732C110.904 269.732 110.496 272.676 110.904 274.1C111.312 275.524 116.384 279.58 117.808 278.972C119.232 278.364 115.272 274.404 114.36 273.188C113.448 271.972 110.912 269.74 110.912 269.74L110.904 269.732Z" fill="white" stroke="#263238" stroke-width="0.8" stroke-linecap="round" stroke-linejoin="round"/>
<path d="M113.344 266.38C113.344 266.38 110.296 264.756 109.792 266.788C109.288 268.82 111.616 270.948 113.752 272.676C115.88 274.404 116.8 274.1 116.8 272.476C116.8 270.852 113.352 266.388 113.352 266.388L113.344 266.38Z" fill="white" stroke="#263238" stroke-width="0.8" stroke-linecap="round" stroke-linejoin="round"/>
<path d="M113.064 329.86C113.064 329.86 109.064 331.996 101.6 332.26C94.136 332.524 88 328.524 91.464 325.324C94.928 322.124 100.264 320.26 105.064 321.06C109.864 321.86 117.064 323.724 117.064 323.724L113.064 329.86Z" fill="white" stroke="#263238" stroke-width="0.8" stroke-linecap="round" stroke-linejoin="round"/>
<path d="M114.136 323.196C114.496 323.236 114.88 323.26 115.264 323.276C112.816 322.668 108.376 321.612 105.064 321.06C100.264 320.26 94.9281 322.124 91.4641 325.324C89.6961 326.956 90.4241 328.788 92.5521 330.164C92.4241 328.66 92.7281 326.204 95.7361 324.788C100.272 322.652 109.6 322.652 114.136 323.188V323.196Z" fill="white" stroke="#263238" stroke-width="0.8" stroke-linecap="round" stroke-linejoin="round"/>
<path d="M196.536 307.724C196.536 307.724 188.536 319.724 180.536 324.524C172.536 329.324 136 329.86 128.536 329.86H113.072V324.26C113.072 324.26 137.608 320.796 151.208 313.06C164.808 305.324 172.008 296.796 182.672 293.324C193.336 289.86 202.672 295.724 202.408 310.124" fill="#263238"/>
<path d="M196.536 307.724C196.536 307.724 188.536 319.724 180.536 324.524C172.536 329.324 136 329.86 128.536 329.86H113.072V324.26C113.072 324.26 137.608 320.796 151.208 313.06C164.808 305.324 172.008 296.796 182.672 293.324C193.336 289.86 202.672 295.724 202.408 310.124" stroke="#263238" stroke-width="0.8" stroke-linecap="round" stroke-linejoin="round"/>
<path d="M191.16 316.908C186.848 320.988 179.368 326.308 167.832 328.444" stroke="white" stroke-width="0.8" stroke-linecap="round" stroke-linejoin="round"/>
<path d="M196.4 310.396C196.4 310.396 195.736 311.732 194.152 313.684" stroke="white" stroke-width="0.8" stroke-linecap="round" stroke-linejoin="round"/>
<path d="M156 311.596C156 311.596 150.8 315.996 143.2 316.396" stroke="white" stroke-width="0.8" stroke-linecap="round" stroke-linejoin="round"/>
<path d="M108.344 296.348C108.056 296.316 107.76 296.292 107.464 296.26L108.344 296.348Z" fill="#263238"/>
<path d="M108.344 296.348C108.056 296.316 107.76 296.292 107.464 296.26" stroke="#263238" stroke-width="0.8" stroke-linecap="round" stroke-linejoin="round"/>
<path d="M183.464 330.925C183.464 330.925 190.128 328.525 195.728 327.725C201.328 326.925 205.864 327.725 207.464 331.189C209.064 334.653 208 338.925 202.4 339.989C196.8 341.053 186.664 338.925 185.6 338.925C184.536 338.925 182.936 338.125 182.936 338.125L183.472 330.925H183.464Z" fill="white" stroke="#263238" stroke-width="0.8" stroke-linecap="round" stroke-linejoin="round"/>
<path d="M201.008 327.516C202.712 328.172 205.928 329.972 205.336 334.132C204.536 339.732 197.872 339.732 193.336 339.732C192.992 339.732 192.664 339.78 192.344 339.868C195.704 340.268 199.608 340.524 202.4 339.996C208 338.932 209.064 334.66 207.464 331.196C206.408 328.908 204.072 327.788 201.008 327.516Z" fill="white" stroke="#263238" stroke-width="0.8" stroke-linecap="round" stroke-linejoin="round"/>
<path d="M105.336 290.396C105.336 290.396 96.272 288.796 90.4 293.332C84.536 297.868 85.336 302.668 90.936 309.596C96.536 316.532 110.936 328.796 142.136 334.396C173.336 339.996 182.936 338.132 182.936 338.132L183.472 330.932C183.472 330.932 164.008 331.996 146.136 318.932C128.672 306.164 120.888 297.724 108.352 296.348" fill="#263238"/>
<path d="M105.336 290.396C105.336 290.396 96.272 288.796 90.4 293.332C84.536 297.868 85.336 302.668 90.936 309.596C96.536 316.532 110.936 328.796 142.136 334.396C173.336 339.996 182.936 338.132 182.936 338.132L183.472 330.932C183.472 330.932 164.008 331.996 146.136 318.932C128.672 306.164 120.888 297.724 108.352 296.348" stroke="#263238" stroke-width="0.8" stroke-linecap="round" stroke-linejoin="round"/>
<path d="M104.864 296.452C103.904 296.5 102.952 296.62 102 296.796" stroke="white" stroke-width="0.8" stroke-linecap="round" stroke-linejoin="round"/>
<path d="M179.6 330.796C179.6 330.796 161.2 330.396 140.4 314.396C125.696 303.084 116.992 298.172 110.048 296.828" stroke="white" stroke-width="0.8" stroke-linecap="round" stroke-linejoin="round"/>
<path d="M179.424 214.5C174.512 217.092 173.848 211.892 173.864 208.756C173.912 208.708 173.952 208.668 173.96 208.62C174.32 207.18 173.96 199.996 169.824 197.116C166.176 194.58 161.344 192.396 156.832 192.388C153.656 192.388 150.832 194.412 149.128 196.98C147.096 200.044 147.272 203.596 147.104 207.14C146.936 210.716 146.6 214.58 147.312 218.116C148.256 222.836 152.664 232.756 158.016 232.756C162.872 232.756 171.496 225.492 174.456 221.212C174.8 221.108 175.496 220.836 176.272 220.172C177.376 219.228 179.576 217.652 179.416 214.508L179.424 214.5Z" fill="white" stroke="#263238" stroke-width="0.8" stroke-linecap="round" stroke-linejoin="round"/>
<path d="M158.024 211.356C158.024 211.356 155.824 218.124 155.976 218.908C156.128 219.692 158.808 218.908 158.808 218.908" stroke="#263238" stroke-width="0.8" stroke-linecap="round" stroke-linejoin="round"/>
<path d="M155.976 221.74C155.976 221.74 158.888 223.932 163.528 220.484" stroke="#263238" stroke-width="0.8" stroke-linecap="round" stroke-linejoin="round"/>
<path d="M163.056 213.716C163.056 213.716 164.632 217.02 169.664 215.132" stroke="#263238" stroke-width="0.8" stroke-linecap="round" stroke-linejoin="round"/>
<path d="M148.736 209.78C148.736 209.78 149.68 213.084 154.72 211.828" stroke="#263238" stroke-width="0.8" stroke-linecap="round" stroke-linejoin="round"/>
<path d="M157.656 207.268C157.656 207.268 155.872 200.844 149.992 204.116" stroke="#263238" stroke-width="0.8" stroke-linecap="round" stroke-linejoin="round"/>
<path d="M171.571 216.597C172.895 213.382 171.363 209.702 168.148 208.378C164.933 207.053 161.253 208.586 159.928 211.801C158.604 215.016 160.136 218.696 163.351 220.02C166.566 221.345 170.246 219.812 171.571 216.597Z" stroke="#263238" stroke-width="0.8" stroke-linecap="round" stroke-linejoin="round"/>
<path d="M151.256 217.653C154.733 217.653 157.552 214.834 157.552 211.357C157.552 207.879 154.733 205.061 151.256 205.061C147.779 205.061 144.96 207.879 144.96 211.357C144.96 214.834 147.779 217.653 151.256 217.653Z" stroke="#263238" stroke-width="0.8" stroke-linecap="round" stroke-linejoin="round"/>
<path d="M171.712 215.444L176.912 214.5" stroke="#263238" stroke-width="0.8" stroke-linecap="round" stroke-linejoin="round"/>
<path d="M145.12 209.78L147.008 208.364" stroke="#263238" stroke-width="0.8" stroke-linecap="round" stroke-linejoin="round"/>
<path d="M151.32 194.78C151.32 194.78 156.888 191.364 158.864 194.604C160.84 197.836 169.792 219.308 179.424 214.5C189.056 209.7 179.352 193.884 170.008 188.852C160.664 183.82 152.76 188.132 151.32 194.78Z" fill="#263238" stroke="#263238" stroke-width="0.8" stroke-linecap="round" stroke-linejoin="round"/>
<path d="M156.84 192.388C156.84 192.388 153.696 189.74 151.864 190.956C150.032 192.18 150.032 193.7 150.032 193.7" stroke="white" stroke-width="0.8" stroke-linecap="round" stroke-linejoin="round"/>
<path d="M179.768 208.86C180.48 209.316 181.248 209.66 182.088 209.892" stroke="white" stroke-width="0.8" stroke-linecap="round" stroke-linejoin="round"/>
<path d="M155.528 185.772C155.528 185.772 161.024 179.668 167.128 189.132C171.136 195.34 173.432 201.556 176.44 205.604" stroke="white" stroke-width="0.8" stroke-linecap="round" stroke-linejoin="round"/>
<path d="M164.52 206.388C164.52 206.388 168.928 204.028 172.704 207.644" stroke="white" stroke-width="0.8" stroke-linecap="round" stroke-linejoin="round"/>
<path d="M156.32 267.524C156.32 267.524 162.352 275.068 172.312 275.068" stroke="#263238" stroke-width="0.8" stroke-linecap="round" stroke-linejoin="round"/>
<path d="M64.4641 339.396H340.552" stroke="#263238" stroke-width="0.8" stroke-linecap="round" stroke-linejoin="round"/>
</svg>
