<svg width="460" height="364" viewBox="0 0 460 364" fill="none" xmlns="http://www.w3.org/2000/svg">
<path d="M69.572 215.839C69.316 215.494 69.066 215.145 68.808 214.802C65.902 210.941 62.818 207.213 59.564 203.643C59.645 196.449 59.473 169.244 52.183 170.644C45.452 171.937 54.238 193.477 57.986 201.967C56.566 200.456 55.118 198.971 53.635 197.521C48.717 191.138 32.181 170.578 27.334 176.144C22.843 181.301 42.496 192.681 51.133 197.326C52.737 198.856 54.313 200.417 55.844 202.018C47.52 197.861 26.767 188.254 24.922 194.819C22.922 201.937 50.058 203.443 57.431 203.72C61.26 207.851 64.857 212.197 68.218 216.722C60.763 211.999 40.129 199.671 37.59 206.18C34.87 213.154 62.449 217.326 69.351 218.255C72.979 223.261 76.321 228.478 79.385 233.851C72.258 227.811 54.454 213.618 51.109 219.543C47.477 225.975 73.419 233.881 80.546 235.914C81.04 236.807 81.533 237.699 82.012 238.6C84.44 243.172 86.683 247.854 88.746 252.616C82.286 246.285 65.038 230.292 61.226 236.06C57.135 242.25 82.714 252.012 89.544 254.484C92.599 261.743 95.2 269.194 97.313 276.767C91.794 269.582 76.983 251.364 72.403 256.536C67.484 262.091 91.446 275.347 97.864 278.753C97.949 279.073 98.046 279.39 98.129 279.71C98.806 282.306 99.465 284.927 99.925 287.573C100.101 288.586 101.679 288.343 101.503 287.328C101.045 284.698 100.455 282.08 99.785 279.478C103.059 272.894 114.608 248.561 107.471 246.655C100.977 244.92 99.432 267.21 99.068 276.82C97.851 272.488 96.424 268.208 94.932 264.015C93.863 261.012 92.718 258.034 91.506 255.081C93.758 248.322 101.947 222.253 94.562 221.36C87.821 220.545 89.518 243.285 90.502 252.684C88.14 247.139 85.523 241.699 82.644 236.402C84.418 229.504 90.765 202.923 83.335 202.549C76.481 202.204 79.908 225.263 81.527 234.378C78.39 228.774 74.959 223.337 71.226 218.115C72.037 210.614 74.392 184.118 67.082 184.791C60.431 185.399 66.572 206.605 69.572 215.839Z" fill="#EB725F"/>
<path d="M414.429 172.012C414.61 171.623 414.797 171.236 414.975 170.845C416.978 166.447 418.779 161.957 420.361 157.393C426.719 154.027 450.536 140.877 445.823 135.143C441.471 129.847 426.747 147.858 421.08 155.207C421.729 153.237 422.342 151.256 422.907 149.26C426.165 141.89 436.326 117.54 429.12 115.942C422.445 114.461 421.837 137.163 421.884 146.969C421.306 149.11 420.688 151.239 420.013 153.35C419.688 144.051 418.211 121.23 411.563 122.746C404.354 124.39 415.997 148.947 419.277 155.557C417.478 160.895 415.379 166.13 413.009 171.245C413.595 162.439 414.567 138.422 407.635 139.302C400.209 140.245 409.721 166.465 412.202 172.973C409.538 178.552 406.552 183.98 403.296 189.239C405.197 180.092 409.159 157.671 402.355 157.563C394.969 157.445 400.419 184.012 402.039 191.244C401.491 192.104 400.942 192.964 400.38 193.815C397.524 198.133 394.482 202.34 391.285 206.428C393.76 197.729 399.568 174.935 392.68 174.342C385.287 173.705 388.933 200.84 390.025 208.021C385.108 214.173 379.806 220.018 374.162 225.492C377.837 217.211 386.764 195.495 380.033 193.943C372.803 192.276 372.607 219.659 372.681 226.925C372.441 227.153 372.208 227.389 371.967 227.615C370.01 229.45 368.022 231.281 365.918 232.95C365.112 233.589 366.08 234.859 366.887 234.219C368.979 232.56 370.996 230.791 372.962 228.959C380.31 228.689 407.203 227.209 405.468 220.029C403.889 213.495 383.57 222.788 374.954 227.06C378.178 223.921 381.256 220.623 384.227 217.308C386.354 214.935 388.423 212.505 390.438 210.03C397.452 208.779 424.265 203.517 421.521 196.603C419.016 190.292 399.85 202.648 392.064 208.003C395.807 203.279 399.335 198.38 402.613 193.321C409.52 191.584 435.903 184.459 432.683 177.753C429.712 171.567 411.092 185.595 403.859 191.372C407.283 185.938 410.42 180.327 413.224 174.553C420.201 171.682 444.602 161.091 440.518 154.991C436.802 149.438 421.108 164.965 414.429 172.012Z" fill="#EB725F"/>
<path d="M122.609 192.877C122.609 192.877 125.233 187.296 126.572 179.931C126.348 177.621 126.028 175.377 125.603 173.204C125.241 171.304 124.789 169.465 124.295 167.656C122.971 169.922 121.309 172.286 119.453 173.816C119.453 173.816 121.533 169.398 122.936 163.236C121.497 159.068 119.704 155.144 117.6 151.433C116.921 153.668 116.017 155.938 114.826 157.641C114.826 157.641 115.562 153.614 115.568 148.065C115.164 147.433 114.767 146.796 114.345 146.176C111.999 142.757 109.356 139.541 106.413 136.532C106.174 139.066 105.696 141.752 104.774 143.837C104.774 143.837 104.766 139.575 103.731 133.934C100.751 131.199 97.477 128.666 93.86 126.368C93.963 128.812 93.866 131.387 93.299 133.487C93.299 133.487 92.739 129.713 91.148 124.704C87.919 122.837 84.415 121.159 80.607 119.69C81.041 121.714 81.318 123.791 81.219 125.614C81.219 125.614 80.173 122.706 78.126 118.776C75.373 117.82 72.435 116.992 69.3 116.3C66.111 115.595 62.743 115.014 58.811 114.819C57.584 118.56 56.921 121.913 56.437 125.143C55.961 128.318 55.682 131.358 55.589 134.271C58.526 137.59 60.866 139.608 60.866 139.608C59.128 139.048 57.288 138.045 55.554 136.915C55.563 140.996 55.874 144.869 56.462 148.552C60.568 151.832 63.892 153.706 63.892 153.706C61.728 153.483 59.289 152.652 57.044 151.68C57.894 155.88 59.087 159.844 60.574 163.606C65.47 166.592 69.446 168.126 69.446 168.126C67.17 168.24 64.491 167.724 62.039 167.04C63.795 170.865 65.851 174.484 68.203 177.899C68.631 178.515 69.083 179.114 69.529 179.718C74.712 181.699 78.736 182.454 78.736 182.454C76.719 182.957 74.276 182.988 71.946 182.821C74.657 186.114 77.679 189.194 81.055 192.03C87.311 192.927 92.18 192.567 92.18 192.567C90.086 193.753 87.284 194.458 84.694 194.882C86.206 195.992 87.76 197.072 89.405 198.09C91.282 199.264 93.262 200.367 95.339 201.403C102.695 202.79 108.846 202.339 108.846 202.339C107.016 203.375 104.644 204.043 102.347 204.48C103.001 204.73 103.662 204.974 104.333 205.212C107.124 206.191 110.1 207.042 113.283 207.751C116.465 208.461 119.821 209.051 123.737 209.256C124.948 205.526 125.599 202.181 126.075 198.956C126.553 195.73 126.824 192.647 126.91 189.69C126.928 188.978 126.937 188.273 126.938 187.573C125.705 189.565 124.232 191.54 122.609 192.877Z" fill="#6E7FDD"/>
<mask id="mask0_10927_45358" style="mask-type:luminance" maskUnits="userSpaceOnUse" x="55" y="114" width="72" height="96">
<path d="M122.609 192.877C122.609 192.877 125.233 187.296 126.572 179.931C126.348 177.621 126.028 175.377 125.603 173.204C125.241 171.304 124.789 169.465 124.295 167.656C122.971 169.922 121.309 172.286 119.453 173.816C119.453 173.816 121.533 169.398 122.936 163.236C121.497 159.068 119.704 155.144 117.6 151.433C116.921 153.668 116.017 155.938 114.826 157.641C114.826 157.641 115.562 153.614 115.568 148.065C115.164 147.433 114.767 146.796 114.345 146.176C111.999 142.757 109.356 139.541 106.413 136.532C106.174 139.066 105.696 141.752 104.774 143.837C104.774 143.837 104.766 139.575 103.731 133.934C100.751 131.199 97.477 128.666 93.86 126.368C93.963 128.812 93.866 131.387 93.299 133.487C93.299 133.487 92.739 129.713 91.148 124.704C87.919 122.837 84.415 121.159 80.607 119.69C81.041 121.714 81.318 123.791 81.219 125.614C81.219 125.614 80.173 122.706 78.126 118.776C75.373 117.82 72.435 116.992 69.3 116.3C66.111 115.595 62.743 115.014 58.811 114.819C57.584 118.56 56.921 121.913 56.437 125.143C55.961 128.318 55.682 131.358 55.589 134.271C58.526 137.59 60.866 139.608 60.866 139.608C59.128 139.048 57.288 138.045 55.554 136.915C55.563 140.996 55.874 144.869 56.462 148.552C60.568 151.832 63.892 153.706 63.892 153.706C61.728 153.483 59.289 152.652 57.044 151.68C57.894 155.88 59.087 159.844 60.574 163.606C65.47 166.592 69.446 168.126 69.446 168.126C67.17 168.24 64.491 167.724 62.039 167.04C63.795 170.865 65.851 174.484 68.203 177.899C68.631 178.515 69.083 179.114 69.529 179.718C74.712 181.699 78.736 182.454 78.736 182.454C76.719 182.957 74.276 182.988 71.946 182.821C74.657 186.114 77.679 189.194 81.055 192.03C87.311 192.927 92.18 192.567 92.18 192.567C90.086 193.753 87.284 194.458 84.694 194.882C86.206 195.992 87.76 197.072 89.405 198.09C91.282 199.264 93.262 200.367 95.339 201.403C102.695 202.79 108.846 202.339 108.846 202.339C107.016 203.375 104.644 204.043 102.347 204.48C103.001 204.73 103.662 204.974 104.333 205.212C107.124 206.191 110.1 207.042 113.283 207.751C116.465 208.461 119.821 209.051 123.737 209.256C124.948 205.526 125.599 202.181 126.075 198.956C126.553 195.73 126.824 192.647 126.91 189.69C126.928 188.978 126.937 188.273 126.938 187.573C125.705 189.565 124.232 191.54 122.609 192.877Z" fill="white"/>
</mask>
<g mask="url(#mask0_10927_45358)">
<path d="M112.732 138.106L111.708 137.989C111.7 138.169 110.833 155.897 99.021 172.428L90.148 159.522C102.31 142.607 100.792 120.871 100.775 120.652L99.754 120.663C99.77 120.878 101.241 142 89.502 158.583L81.608 147.101C93.722 130.062 82.264 106.032 82.146 105.79L81.236 106.207C81.35 106.443 92.393 129.634 80.959 146.158L72.495 133.847C76.946 116.925 65.398 95.5868 65.28 95.3718L64.395 95.8398C64.508 96.0468 75.472 116.323 71.701 132.693L54.266 107.333L53.442 107.899L70.877 133.259C54.243 130.918 39.237 113.421 39.084 113.241L38.33 113.899C38.488 114.086 54.276 132.509 71.67 134.413L80.134 146.724C60.612 151.482 42.913 132.867 42.733 132.677L42.018 133.377C42.202 133.574 60.536 152.876 80.783 147.668L88.677 159.15C69.003 164.169 49.795 155.235 49.601 155.143L49.225 156.093C49.423 156.188 69.175 165.388 89.323 160.089L98.196 172.995C78.546 178.1 61.668 172.566 61.497 172.509L61.24 173.507C61.413 173.565 78.752 179.263 98.841 173.933L105.516 183.642C85.875 188.836 71.313 186.701 71.167 186.679L71.083 187.719C71.232 187.742 86.144 189.938 106.159 184.578L113.439 195.167C96.982 199.498 84.789 197.722 84.666 197.702L84.583 198.743C84.709 198.763 97.251 200.603 114.084 196.105L120.15 204.928C109.816 207.681 102.221 206.67 102.144 206.659L102.072 207.701C102.398 207.747 110.093 208.782 120.793 205.864L132.614 223.057L133.438 222.491L121.617 205.298C128.173 196.353 129.963 188.797 130.036 188.476L129.037 188.17C129.019 188.246 127.244 195.699 120.973 204.362L114.907 195.539C125.134 181.432 127.908 169.063 127.934 168.938L126.933 168.643C126.907 168.765 124.199 180.785 114.262 194.6L106.982 184.011C119.153 167.242 122.443 152.533 122.475 152.385L121.474 152.091C121.442 152.235 118.221 166.596 106.338 183.075L99.663 173.366C111.836 156.518 112.725 138.289 112.732 138.106Z" fill="#B3C9F9"/>
</g>
<path opacity="0.1" d="M115.567 148.067C115.163 147.435 114.766 146.798 114.344 146.178C111.998 142.759 109.355 139.543 106.412 136.534C106.173 139.068 105.695 141.754 104.773 143.839C104.773 143.839 104.765 139.577 103.73 133.936C100.75 131.201 97.476 128.668 93.859 126.37C93.962 128.814 93.865 131.389 93.298 133.489C93.298 133.489 92.738 129.715 91.147 124.706C87.918 122.839 84.414 121.161 80.606 119.692C81.04 121.716 81.317 123.793 81.218 125.616C81.218 125.616 80.172 122.708 78.125 118.778C75.372 117.822 72.434 116.994 69.299 116.302C66.11 115.597 62.742 115.016 58.81 114.821L123.736 209.258C124.947 205.528 125.598 202.183 126.074 198.958C126.552 195.732 126.823 192.649 126.909 189.692C126.927 188.98 126.936 188.275 126.937 187.575C125.706 189.564 124.233 191.539 122.611 192.877C122.611 192.877 125.235 187.296 126.574 179.931C126.35 177.621 126.03 175.377 125.605 173.204C125.243 171.304 124.791 169.465 124.297 167.656C122.973 169.922 121.311 172.286 119.455 173.816C119.455 173.816 121.535 169.398 122.938 163.236C121.499 159.068 119.706 155.144 117.602 151.433C116.923 153.668 116.019 155.938 114.828 157.641C114.825 157.643 115.561 153.615 115.567 148.067Z" fill="#0046A0"/>
<path d="M394.555 280.19C394.555 280.19 400.709 280.586 408.053 279.134C410.121 278.079 412.091 276.959 413.957 275.768C415.593 274.735 417.138 273.641 418.639 272.518C416.045 272.116 413.237 271.436 411.133 270.269C411.133 270.269 416.006 270.586 422.254 269.633C425.604 266.767 428.599 263.661 431.281 260.344C428.953 260.531 426.509 260.522 424.488 260.037C424.488 260.037 428.505 259.246 433.67 257.219C434.11 256.611 434.557 256.009 434.98 255.389C437.302 251.953 439.325 248.316 441.047 244.476C438.601 245.182 435.927 245.721 433.65 245.628C433.65 245.628 437.612 244.059 442.482 241.029C443.936 237.254 445.093 233.279 445.905 229.072C443.669 230.064 441.237 230.916 439.076 231.159C439.076 231.159 442.383 229.256 446.46 225.939C447.015 222.251 447.291 218.375 447.264 214.294C445.54 215.439 443.709 216.458 441.976 217.034C441.976 217.034 444.298 214.996 447.205 211.65C447.086 208.739 446.78 205.701 446.275 202.53C445.762 199.304 445.069 195.957 443.809 192.227C439.879 192.456 436.516 193.068 433.333 193.801C430.204 194.522 427.273 195.376 424.529 196.356C422.517 200.305 421.497 203.221 421.497 203.221C421.382 201.399 421.641 199.319 422.056 197.292C418.262 198.795 414.772 200.504 411.56 202.4C410.013 207.423 409.487 211.201 409.487 211.201C408.902 209.106 408.782 206.532 408.863 204.087C405.267 206.417 402.015 208.979 399.06 211.741C398.075 217.391 398.105 221.652 398.105 221.652C397.165 219.576 396.663 216.894 396.401 214.362C393.485 217.397 390.871 220.636 388.556 224.076C388.139 224.7 387.748 225.34 387.35 225.976C387.405 231.524 388.177 235.545 388.177 235.545C386.97 233.853 386.046 231.591 385.348 229.362C383.277 233.091 381.519 237.031 380.117 241.212C381.574 247.362 383.694 251.761 383.694 251.761C381.824 250.247 380.141 247.899 378.797 245.644C378.319 247.457 377.883 249.299 377.538 251.203C377.133 253.379 376.832 255.626 376.629 257.938C378.034 265.291 380.707 270.848 380.707 270.848C379.073 269.525 377.582 267.563 376.334 265.585C376.341 266.285 376.356 266.99 376.381 267.701C376.493 270.656 376.791 273.737 377.298 276.959C377.803 280.18 378.484 283.519 379.728 287.237C383.642 286.997 386.993 286.377 390.168 285.639C393.345 284.902 396.313 284.024 399.095 283.021C399.764 282.777 400.423 282.527 401.075 282.271C398.772 281.857 396.394 281.21 394.555 280.19Z" fill="#6E7FDD"/>
<mask id="mask1_10927_45358" style="mask-type:luminance" maskUnits="userSpaceOnUse" x="376" y="192" width="72" height="96">
<path d="M394.555 280.19C394.555 280.19 400.709 280.586 408.053 279.134C410.121 278.079 412.091 276.959 413.957 275.768C415.593 274.735 417.138 273.641 418.639 272.518C416.045 272.116 413.237 271.436 411.133 270.269C411.133 270.269 416.006 270.586 422.254 269.633C425.604 266.767 428.599 263.661 431.281 260.344C428.953 260.531 426.509 260.522 424.488 260.037C424.488 260.037 428.505 259.246 433.67 257.219C434.11 256.611 434.557 256.009 434.98 255.389C437.302 251.953 439.325 248.316 441.047 244.476C438.601 245.182 435.927 245.721 433.65 245.628C433.65 245.628 437.612 244.059 442.482 241.029C443.936 237.254 445.093 233.279 445.905 229.072C443.669 230.064 441.237 230.916 439.076 231.159C439.076 231.159 442.383 229.256 446.46 225.939C447.015 222.251 447.291 218.375 447.264 214.294C445.54 215.439 443.709 216.458 441.976 217.034C441.976 217.034 444.298 214.996 447.205 211.65C447.086 208.739 446.78 205.701 446.275 202.53C445.762 199.304 445.069 195.957 443.809 192.227C439.879 192.456 436.516 193.068 433.333 193.801C430.204 194.522 427.273 195.376 424.529 196.356C422.517 200.305 421.497 203.221 421.497 203.221C421.382 201.399 421.641 199.319 422.056 197.292C418.262 198.795 414.772 200.504 411.56 202.4C410.013 207.423 409.487 211.201 409.487 211.201C408.902 209.106 408.782 206.532 408.863 204.087C405.267 206.417 402.015 208.979 399.06 211.741C398.075 217.391 398.105 221.652 398.105 221.652C397.165 219.576 396.663 216.894 396.401 214.362C393.485 217.397 390.871 220.636 388.556 224.076C388.139 224.7 387.748 225.34 387.35 225.976C387.405 231.524 388.177 235.545 388.177 235.545C386.97 233.853 386.046 231.591 385.348 229.362C383.277 233.091 381.519 237.031 380.117 241.212C381.574 247.362 383.694 251.761 383.694 251.761C381.824 250.247 380.141 247.899 378.797 245.644C378.319 247.457 377.883 249.299 377.538 251.203C377.133 253.379 376.832 255.626 376.629 257.938C378.034 265.291 380.707 270.848 380.707 270.848C379.073 269.525 377.582 267.563 376.334 265.585C376.341 266.285 376.356 266.99 376.381 267.701C376.493 270.656 376.791 273.737 377.298 276.959C377.803 280.18 378.484 283.519 379.728 287.237C383.642 286.997 386.993 286.377 390.168 285.639C393.345 284.902 396.313 284.024 399.095 283.021C399.764 282.777 400.423 282.527 401.075 282.271C398.772 281.857 396.394 281.21 394.555 280.19Z" fill="white"/>
</mask>
<g mask="url(#mask1_10927_45358)">
<path d="M441.899 250.933L441.633 249.937C441.463 249.995 424.65 255.684 404.94 250.75L413.698 237.766C433.893 242.885 453.562 233.509 453.759 233.413L453.375 232.467C453.181 232.561 434.066 241.669 414.336 236.822L422.127 225.27C442.42 230.298 460.581 210.834 460.763 210.635L460.041 209.941C459.863 210.133 442.331 228.905 422.767 224.321L431.121 211.935C448.497 209.876 464.12 191.314 464.277 191.125L463.518 190.473C463.367 190.655 448.518 208.285 431.905 210.774L449.114 185.259L448.285 184.7L431.076 210.214C427.16 193.879 437.942 173.506 438.054 173.298L437.165 172.838C437.049 173.054 425.692 194.493 430.293 211.375L421.939 223.761C410.359 207.34 421.195 184.051 421.307 183.814L420.393 183.405C420.277 183.648 409.034 207.779 421.299 224.71L413.508 236.262C401.63 219.794 402.905 198.649 402.919 198.435L401.898 198.433C401.883 198.652 400.559 220.401 412.871 237.207L404.113 250.191C392.163 233.777 391.129 216.045 391.119 215.866L390.096 215.992C390.105 216.175 391.156 234.395 403.476 251.134L396.888 260.902C384.859 244.529 381.511 230.198 381.477 230.054L380.479 230.357C380.512 230.504 383.932 245.184 396.253 261.843L389.068 272.496C379.009 258.77 376.194 246.775 376.167 246.653L375.168 246.957C375.195 247.081 378.079 259.426 388.431 273.441L382.444 282.317C376.096 273.71 374.254 266.273 374.236 266.198L373.24 266.513C373.317 266.833 375.174 274.372 381.809 283.259L370.142 300.557L370.971 301.116L382.638 283.818C393.363 286.641 401.049 285.538 401.375 285.489L401.294 284.448C401.217 284.459 393.631 285.538 383.274 282.877L389.261 274.001C406.134 278.349 418.659 276.397 418.785 276.376L418.692 275.336C418.569 275.357 406.393 277.241 389.898 273.057L397.083 262.404C417.145 267.585 432.037 265.257 432.186 265.232L432.093 264.193C431.947 264.216 417.405 266.481 397.719 261.462L404.307 251.694C424.439 256.845 441.726 250.993 441.899 250.933Z" fill="#B3C9F9"/>
</g>
<path opacity="0.1" d="M433.669 257.22C434.109 256.612 434.556 256.01 434.979 255.39C437.301 251.954 439.324 248.317 441.046 244.477C438.6 245.183 435.926 245.722 433.649 245.629C433.649 245.629 437.611 244.06 442.481 241.03C443.935 237.255 445.092 233.28 445.904 229.073C443.668 230.065 441.236 230.917 439.075 231.16C439.075 231.16 442.382 229.257 446.459 225.94C447.014 222.252 447.29 218.376 447.263 214.295C445.539 215.44 443.708 216.459 441.975 217.035C441.975 217.035 444.297 214.997 447.204 211.651C447.085 208.74 446.779 205.702 446.274 202.531C445.761 199.305 445.068 195.958 443.808 192.228L379.726 287.239C383.64 286.999 386.991 286.379 390.166 285.641C393.343 284.904 396.311 284.026 399.093 283.023C399.762 282.779 400.421 282.529 401.073 282.273C398.771 281.857 396.394 281.21 394.555 280.19C394.555 280.19 400.709 280.586 408.053 279.134C410.121 278.079 412.091 276.959 413.957 275.768C415.593 274.735 417.138 273.641 418.639 272.518C416.045 272.116 413.237 271.436 411.133 270.269C411.133 270.269 416.006 270.586 422.254 269.633C425.604 266.767 428.599 263.661 431.281 260.344C428.953 260.531 426.509 260.522 424.488 260.037C424.488 260.037 428.504 259.247 433.669 257.22Z" fill="#0046A0"/>
<path d="M230 363.676C356.865 363.676 459.709 356.036 459.709 346.612C459.709 337.188 356.865 329.548 230 329.548C103.135 329.548 0.291 337.188 0.291 346.612C0.291 356.036 103.135 363.676 230 363.676Z" fill="#EDF0FC"/>
<path d="M400.413 76.0898H108.93V337.573H400.413V76.0898Z" fill="#F5F9FF"/>
<path d="M400.413 76.0898H108.93V107.012H400.413V76.0898Z" fill="#D0DBF7"/>
<path d="M132.447 91.5508C132.447 94.8308 129.788 97.4908 126.507 97.4908C123.227 97.4908 120.568 94.8318 120.568 91.5508C120.568 88.2698 123.227 85.6118 126.507 85.6118C129.788 85.6108 132.447 88.2698 132.447 91.5508Z" fill="#EB725F"/>
<path d="M152.447 91.5508C152.447 94.8308 149.788 97.4908 146.507 97.4908C143.227 97.4908 140.568 94.8318 140.568 91.5508C140.568 88.2698 143.227 85.6118 146.507 85.6118C149.788 85.6108 152.447 88.2698 152.447 91.5508Z" fill="#F9AB43"/>
<path d="M172.447 91.5508C172.447 94.8308 169.788 97.4908 166.507 97.4908C163.226 97.4908 160.568 94.8318 160.568 91.5508C160.568 88.2698 163.227 85.6118 166.507 85.6118C169.787 85.6118 172.447 88.2698 172.447 91.5508Z" fill="#6E7FDD"/>
<path d="M357.701 196.286C359.098 192.744 357.125 189.846 353.318 189.846H213.018C209.211 189.846 204.953 192.744 203.556 196.286L172.457 275.153C171.06 278.695 173.033 281.593 176.84 281.593H317.14C320.947 281.593 325.205 278.695 326.602 275.153L357.701 196.286Z" fill="#FFCF74"/>
<path d="M165.732 268.427L196.831 189.56C198.228 186.018 202.485 183.12 206.293 183.12H316.43V176.131C316.43 172.324 313.315 169.209 309.508 169.209H260.378C256.571 169.209 251.97 166.471 250.153 163.125L243.463 150.802C241.647 147.456 237.045 144.718 233.238 144.718H170.114C166.307 144.718 163.192 147.833 163.192 151.64V267.942C163.192 271.285 165.595 274.093 168.759 274.728C165.862 274.121 164.512 271.52 165.732 268.427Z" fill="#FFCF74"/>
<path d="M267.669 211.671C253.223 211.671 241.511 223.382 241.511 237.829C241.511 252.276 253.222 263.987 267.669 263.987C282.116 263.987 293.827 252.276 293.827 237.829C293.826 223.383 282.115 211.671 267.669 211.671ZM280.468 246.858L276.699 250.627L267.669 241.598L258.639 250.627L254.87 246.858L263.9 237.829L254.87 228.8L258.639 225.031L267.669 234.061L276.699 225.031L280.468 228.8L271.438 237.829L280.468 246.858Z" fill="#EB725F"/>
<path d="M384.666 296.512L243.272 336.874L245.751 345.559L387.146 305.197L384.666 296.512Z" fill="#6E7FDD"/>
<path d="M384.666 296.511L320.187 314.917L322.666 323.602L387.146 305.196L384.666 296.511Z" fill="#EB725F"/>
<path d="M389.749 345.919C414.657 343.802 433.132 321.894 431.014 296.986C428.897 272.079 406.989 253.604 382.082 255.721C357.174 257.838 338.699 279.746 340.816 304.654C342.934 329.561 364.842 348.036 389.749 345.919Z" fill="#EB725F"/>
<path d="M419.214 315.663C427.408 297.283 419.151 275.741 400.771 267.548C382.392 259.354 360.85 267.611 352.657 285.991C344.463 304.37 352.72 325.912 371.099 334.105C389.479 342.299 411.021 334.042 419.214 315.663Z" fill="#D0DBF7"/>
<path d="M413.294 293.018L408.952 294.258C405.324 281.551 392.035 274.165 379.328 277.793L378.088 273.451C393.189 269.139 408.983 277.918 413.294 293.018Z" fill="white"/>
<path d="M352.173 74.4419L308.851 61.3079L282.802 147.232L350.117 167.64L369.096 105.035L352.173 74.4419Z" fill="#E2E6FF"/>
<path d="M347.796 108.405L344.701 102.615L330.831 110.031L323.414 96.1619L317.625 99.2579L325.042 113.127L311.172 120.543L314.267 126.333L328.137 118.916L335.554 132.786L341.344 129.69L333.927 115.821L347.796 108.405Z" fill="#CAD2F9"/>
<path d="M237.214 15.6079L193.231 26.3219L214.481 113.557L282.823 96.9089L267.34 33.3499L237.214 15.6079Z" fill="#E2E6FF"/>
<path d="M250.711 47.079L245.102 43.668L236.928 57.105L223.49 48.932L220.079 54.541L233.517 62.714L225.343 76.152L230.952 79.563L239.126 66.126L252.564 74.299L255.975 68.69L242.537 60.517L250.711 47.079Z" fill="#CAD2F9"/>
<path d="M391.337 23.463H380.156V12.282H376.177V23.463H364.997V27.442H376.177V38.622H380.156V27.442H391.337V23.463Z" fill="#E2E6FF"/>
<path d="M416.378 61.933H410.288V55.843H408.12V61.933H402.031V64.1H408.12V70.19H410.288V64.1H416.378V61.933Z" fill="#E2E6FF"/>
<path d="M349.171 51.3071H341.796V43.9331H339.171V51.3071H331.797V53.9321H339.171V61.3071H341.796V53.9321H349.171V51.3071Z" fill="#E2E6FF"/>
<path d="M69.962 50.1571H58.781V38.9771H54.802V50.1571H43.622V54.1371H54.802V65.3171H58.781V54.1371H69.962V50.1571Z" fill="#E2E6FF"/>
<path d="M118.763 43.484H112.673V37.394H110.505V43.484H104.415V45.651H110.505V51.741H112.673V45.651H118.763V43.484Z" fill="#E2E6FF"/>
<path d="M81.685 93.147H74.31V85.772H71.685V93.147H64.311V95.771H71.685V103.146H74.31V95.771H81.685V93.147Z" fill="#E2E6FF"/>
<path d="M326.53 4.95599C326.53 6.29499 325.445 7.37998 324.106 7.37998C322.767 7.37998 321.682 6.29499 321.682 4.95599C321.682 3.61799 322.767 2.53198 324.106 2.53198C325.445 2.53198 326.53 3.61699 326.53 4.95599Z" fill="#CAD2F9"/>
<path d="M435.982 92.1029C435.982 94.6379 433.927 96.6929 431.392 96.6929C428.857 96.6929 426.802 94.6379 426.802 92.1029C426.802 89.5679 428.857 87.5129 431.392 87.5129C433.927 87.5129 435.982 89.5679 435.982 92.1029Z" fill="#CAD2F9"/>
<path d="M290.693 30.2331C290.693 31.5721 289.608 32.6571 288.269 32.6571C286.93 32.6571 285.845 31.5721 285.845 30.2331C285.845 28.8941 286.93 27.8091 288.269 27.8091C289.608 27.8091 290.693 28.8941 290.693 30.2331Z" fill="#CAD2F9"/>
<path d="M152.659 4.95597C152.659 7.49097 150.604 9.54597 148.069 9.54597C145.534 9.54597 143.479 7.49097 143.479 4.95597C143.479 2.42097 145.534 0.365967 148.069 0.365967C150.604 0.365967 152.659 2.42097 152.659 4.95597Z" fill="#CAD2F9"/>
<path d="M170.493 53.6191C170.493 54.9581 169.408 56.0431 168.069 56.0431C166.73 56.0431 165.645 54.9581 165.645 53.6191C165.645 52.2801 166.73 51.1951 168.069 51.1951C169.408 51.1961 170.493 52.2811 170.493 53.6191Z" fill="#CAD2F9"/>
<path d="M28.865 100.557C28.865 101.896 27.78 102.981 26.441 102.981C25.102 102.981 24.017 101.896 24.017 100.557C24.017 99.2181 25.102 98.1331 26.441 98.1331C27.78 98.1331 28.865 99.2181 28.865 100.557Z" fill="#CAD2F9"/>
</svg>
