<svg width="238" height="238" viewBox="0 0 238 238" fill="none" xmlns="http://www.w3.org/2000/svg">
<path d="M169.305 109.854C169.305 119.804 166.354 129.53 160.827 137.802C155.299 146.075 147.443 152.522 138.251 156.33C129.059 160.137 118.944 161.134 109.186 159.193C99.4277 157.252 90.4642 152.46 83.429 145.425C76.3937 138.39 71.6026 129.426 69.6616 119.668C67.7206 109.91 68.7168 99.7954 72.5243 90.6034C76.3317 81.4114 82.7794 73.5548 91.052 68.0273C99.3246 62.4997 109.051 59.5494 119 59.5494C132.337 59.5645 145.123 64.8693 154.554 74.3C163.985 83.7307 169.29 96.5172 169.305 109.854ZM237.902 119.001C237.902 142.517 230.929 165.506 217.864 185.059C204.798 204.613 186.228 219.853 164.502 228.852C142.775 237.852 118.868 240.206 95.8032 235.618C72.7384 231.03 51.552 219.706 34.9232 203.077C18.2944 186.449 6.97002 165.262 2.38214 142.197C-2.20573 119.132 0.148931 95.2252 9.14837 73.4986C18.1478 51.772 33.3878 33.202 52.9412 20.1368C72.4947 7.07165 95.4832 0.0981445 119 0.0981445C150.525 0.131435 180.749 12.6693 203.04 34.9606C225.331 57.2519 237.869 87.4759 237.902 119.001ZM219.61 119.001C219.595 105.459 216.85 92.0588 211.537 79.6022C206.225 67.1457 198.455 55.8885 188.693 46.5036C178.93 37.1188 167.375 29.7992 154.719 24.9826C142.062 20.166 128.565 17.9512 115.033 18.4709C61.1836 20.5516 18.2415 65.403 18.3901 119.286C18.4418 143.816 27.4887 167.475 43.817 185.78C50.4666 176.136 58.9135 167.863 68.695 161.417C69.529 160.866 70.5204 160.603 71.5177 160.67C72.515 160.736 73.4631 161.127 74.2171 161.783C86.6468 172.534 102.532 178.45 118.966 178.45C135.4 178.45 151.284 172.534 163.714 161.783C164.468 161.127 165.416 160.736 166.414 160.67C167.411 160.603 168.402 160.866 169.236 161.417C179.03 167.86 187.489 176.132 194.149 185.78C210.558 167.408 219.622 143.634 219.61 119.001Z" fill="white"/>
</svg>
