<svg width="260" height="222" viewBox="0 0 260 222" fill="none" xmlns="http://www.w3.org/2000/svg">
<path d="M259.799 102.402C259.408 101.222 258.535 100.503 257.522 100.316L248.446 97.7077V62.2711L254.737 57.9833C256.863 56.5353 256.393 53.2773 253.946 52.4929L95.282 1.34991C91.7289 0.203489 87.8409 0.72648 84.7169 2.78462C62.6614 17.2981 40.5993 31.8051 18.544 46.3187C16.3787 50.8169 13.1074 59.1363 12.9264 70.0232C12.732 81.9358 16.3386 91.0127 18.544 95.5981L29.2055 100.565L6.01035 108.042C3.56296 108.831 3.09315 112.089 5.21803 113.537L11.508 117.824V153.259L2.44773 155.863C1.42808 156.045 0.549139 156.765 0.158046 157.952C-0.277671 159.274 0.204645 160.66 1.26327 161.434L79.0856 218.391C83.4022 221.55 89.0961 222.11 93.945 219.851L241.412 151.151C243.616 146.564 247.222 137.488 247.027 125.575C247.017 125.011 246.999 124.454 246.974 123.904C246.974 123.902 246.974 123.901 246.974 123.899C246.88 121.856 246.679 119.911 246.402 118.072C246.402 118.071 246.401 118.07 246.401 118.069C246.359 117.787 246.314 117.508 246.268 117.231C246.268 117.229 246.268 117.227 246.267 117.225C246.245 117.089 246.222 116.955 246.199 116.82C246.198 116.815 246.197 116.81 246.196 116.805C246.173 116.67 246.149 116.535 246.124 116.401C246.1 116.265 246.075 116.129 246.049 115.994C246.049 115.994 246.049 115.993 246.049 115.993C246.001 115.741 245.952 115.49 245.902 115.242L258.693 105.882C259.752 105.111 260.234 103.723 259.799 102.402Z" fill="#EDE4C3"/>
<path d="M259.799 102.402C259.408 101.222 258.535 100.503 257.522 100.316L248.446 97.7077V105.486L244.103 108.51L244.102 108.51L232.449 116.624L195.304 142.489C192.614 144.361 189.924 146.233 187.234 148.106C185.833 149.081 184.432 150.056 183.031 151.031C180.601 152.723 178.171 154.415 175.74 156.106C175.562 155.554 175.38 154.97 175.199 154.354C174.76 152.864 174.323 151.19 173.93 149.349C173.809 148.787 173.693 148.209 173.583 147.616C173.231 145.732 172.934 143.695 172.729 141.521C172.672 140.909 172.621 140.287 172.579 139.654C172.463 137.903 172.41 136.072 172.438 134.168C172.444 133.794 172.453 133.424 172.464 133.057C172.485 132.369 172.517 131.691 172.558 131.025C172.567 130.865 172.578 130.706 172.589 130.547C172.752 128.147 173.035 125.887 173.393 123.781C173.525 123.008 173.667 122.256 173.817 121.525C173.914 121.053 174.014 120.59 174.117 120.137C174.862 116.856 175.753 114.058 176.572 111.821H175.741L205.752 91.3675L215.427 84.7743L248.446 62.271L254.738 57.9832C256.863 56.5352 256.393 53.2772 253.947 52.4927L95.282 1.34991C91.7289 0.203489 87.8408 0.72648 84.7168 2.78462C62.6614 17.2981 40.5993 31.8051 18.544 46.3187C16.3787 50.8169 13.1074 59.1363 12.9264 70.0232C12.732 81.9358 16.3385 91.0127 18.544 95.5981L29.2055 100.565L6.01033 108.042C3.56294 108.831 3.09313 112.089 5.21801 113.537L11.508 117.824L84.2123 167.37C85.5107 169.494 87.7395 173.558 89.1519 179.124C89.3416 179.871 89.5167 180.646 89.6727 181.446C90.1031 183.655 90.3893 186.062 90.4424 188.644C90.4462 188.83 90.449 189.016 90.4504 189.204C90.4511 189.295 90.4515 189.386 90.4516 189.477C90.4516 189.49 90.4515 189.503 90.4515 189.516C90.4515 189.779 90.449 190.04 90.4442 190.299C90.4422 190.403 90.44 190.506 90.4374 190.609C90.3798 192.827 90.1505 194.915 89.8071 196.857C89.7023 197.449 89.5871 198.027 89.4626 198.592C89.0116 200.638 88.4426 202.501 87.8325 204.16C87.6338 204.7 87.4307 205.22 87.226 205.716C86.1317 208.371 84.9908 210.388 84.2124 211.661L72.7199 203.659L27.5053 172.176L11.5083 161.037V153.259L2.44798 155.863C1.42832 156.045 0.549383 156.765 0.158291 157.952C-0.277427 159.274 0.20489 160.66 1.26351 161.434L79.0858 218.391C83.4024 221.55 89.0964 222.11 93.9452 219.851L241.413 151.151C243.616 146.564 247.223 137.488 247.027 125.575C247.018 125.011 247 124.454 246.974 123.904C246.974 123.902 246.974 123.901 246.974 123.899C246.88 121.856 246.679 119.911 246.402 118.072C246.402 118.071 246.402 118.07 246.402 118.069C246.359 117.787 246.315 117.508 246.269 117.231C246.268 117.229 246.268 117.227 246.268 117.225C246.245 117.089 246.222 116.955 246.199 116.82C246.198 116.815 246.197 116.81 246.196 116.805C246.173 116.67 246.149 116.535 246.125 116.401C246.1 116.265 246.075 116.129 246.049 115.994C246.049 115.994 246.049 115.993 246.049 115.993C246.001 115.741 245.953 115.49 245.902 115.242L258.693 105.882C259.752 105.111 260.234 103.723 259.799 102.402Z" fill="#FBB911"/>
<path d="M247.026 125.575C247.017 125.011 246.999 124.454 246.974 123.904C246.974 123.903 246.974 123.901 246.974 123.899C246.879 121.856 246.679 119.911 246.402 118.073C246.401 118.071 246.401 118.07 246.401 118.069C246.359 117.787 246.314 117.508 246.268 117.232C246.268 117.229 246.268 117.227 246.267 117.225C246.245 117.09 246.222 116.955 246.199 116.821C246.198 116.815 246.197 116.81 246.196 116.805C246.172 116.67 246.148 116.535 246.124 116.402C246.099 116.265 246.074 116.129 246.049 115.994C246.049 115.994 246.049 115.994 246.049 115.993C246.001 115.741 245.952 115.491 245.902 115.243L245.902 115.243L216.265 136.932L198.217 150.141L180.868 162.837C176.551 166.001 170.86 166.558 166.006 164.299L165.492 164.059L159.216 161.135L149.698 156.701L149.698 156.701L145.04 154.531C145.04 154.531 145.04 154.531 145.04 154.531L138.29 151.386L138.291 151.387L133.623 149.213C133.623 149.212 133.623 149.212 133.623 149.212L130.871 147.93L118.361 142.102L50.0389 110.271L50.0393 110.274L45.4257 108.124L45.4253 108.122L44.0335 107.473L38.6261 104.954C38.6262 104.955 38.6264 104.956 38.6265 104.957L33.946 102.776C33.9459 102.775 33.9458 102.775 33.9456 102.774L29.2053 100.565L6.01009 108.042C3.5627 108.831 3.09289 112.09 5.21777 113.538L11.5078 117.824L84.212 167.371C85.5105 169.494 87.7392 173.558 89.1517 179.124C89.3414 179.871 89.5165 180.646 89.6724 181.446C90.1029 183.655 90.3891 186.062 90.4421 188.644C90.4459 188.83 90.4487 189.017 90.4502 189.204C90.4508 189.295 90.4512 189.386 90.4513 189.477C90.4513 189.49 90.4512 189.503 90.4512 189.516C90.4512 189.779 90.4487 190.04 90.444 190.299C90.442 190.403 90.4398 190.506 90.4371 190.61C90.3796 192.828 90.1503 194.915 89.8068 196.857C89.7021 197.449 89.5869 198.027 89.4623 198.592C89.0114 200.638 88.4423 202.501 87.8323 204.16C87.6335 204.701 87.4304 205.22 87.2257 205.717C86.1314 208.371 84.9905 210.388 84.2122 211.661L72.7196 203.659L27.505 172.176L11.508 161.037V153.259L2.44774 155.864C1.42808 156.045 0.549139 156.765 0.158046 157.952C-0.277671 159.275 0.204647 160.66 1.26327 161.435L79.0856 218.391C83.4022 221.551 89.0961 222.11 93.945 219.851L241.412 151.151C243.616 146.564 247.222 137.488 247.026 125.575Z" fill="#0D759C"/>
<path d="M90.4424 188.644C90.3892 186.061 90.1032 183.654 89.6727 181.446C89.5167 180.645 89.3417 179.87 89.152 179.123C87.7395 173.557 85.5108 169.494 84.2123 167.37L11.5081 117.823V131.296C13.7773 131.636 16.0473 132.209 18.2937 132.97L45.5252 151.464C46.3902 152.384 47.2111 153.301 47.983 154.209C51.0987 157.875 54.1745 161.816 57.0487 165.965L35.3017 151.196L30.36 147.84L11.5081 135.037V137.006L28.3231 148.425L36.7052 154.118L59.4592 169.571C61.7218 173.083 63.8157 176.722 65.6509 180.451L41.4636 164.025L21.417 150.41L11.5081 143.681V145.65L19.3801 150.996L42.8671 166.947L67.0138 183.345C68.3436 186.303 69.4999 189.31 70.439 192.347L37.2029 169.775L12.474 152.981L11.5081 152.325V154.294L35.0781 170.301L71.1468 194.796C71.3793 195.662 71.5934 196.53 71.7879 197.399C72.5488 200.81 72.9904 202.112 72.7196 203.658L84.2122 211.66C84.9905 210.387 86.1316 208.37 87.2257 205.716C87.4304 205.219 87.6335 204.7 87.8323 204.159C88.4423 202.5 89.0114 200.637 89.4624 198.591C89.5868 198.027 89.702 197.448 89.8069 196.856C90.1503 194.914 90.3796 192.827 90.4371 190.609C90.4398 190.505 90.4422 190.402 90.444 190.298C90.4487 190.039 90.4512 189.778 90.4512 189.516C90.4512 189.502 90.4514 189.489 90.4514 189.476C90.4512 189.385 90.451 189.294 90.4502 189.203C90.4489 189.016 90.4462 188.829 90.4424 188.644Z" fill="#D0C9AD"/>
<path d="M215.427 84.7748L205.752 91.3681L175.74 111.822H176.572C175.753 114.059 174.862 116.856 174.117 120.137C174.014 120.591 173.914 121.054 173.817 121.525C173.667 122.256 173.525 123.009 173.393 123.782C173.035 125.887 172.752 128.148 172.588 130.548C172.578 130.706 172.567 130.865 172.557 131.025C172.517 131.692 172.485 132.37 172.464 133.057C172.452 133.425 172.444 133.795 172.438 134.168C172.41 136.073 172.463 137.904 172.579 139.654C172.621 140.287 172.672 140.91 172.729 141.521C172.934 143.695 173.231 145.732 173.583 147.617C173.693 148.21 173.809 148.788 173.929 149.35C174.323 151.191 174.76 152.865 175.198 154.355C175.38 154.97 175.561 155.555 175.74 156.107C178.171 154.415 180.601 152.723 183.031 151.032C184.432 150.056 185.833 149.081 187.234 148.106C186.964 146.56 187.406 145.258 188.166 141.849C188.361 140.979 188.575 140.112 188.807 139.246L224.876 114.751L241.996 103.124L248.446 98.7437V96.7748L247.48 97.4307L241.174 101.714L240.196 102.378L222.751 114.225L189.515 136.796C190.454 133.76 191.61 130.753 192.94 127.795L214.763 112.975L217.087 111.396L236.181 98.4292L240.574 95.4456L248.446 90.0995V88.1306L238.537 94.8601L234.709 97.4603L218.491 108.474L207.262 116.1L194.304 124.901C195.024 123.436 195.785 121.986 196.58 120.551C197.809 118.333 199.121 116.153 200.495 114.02L215.485 103.841L219.461 101.14L223.249 98.5675L229.716 94.1756L231.631 92.875L248.446 81.4556V79.4867L229.594 92.2895L228.244 93.2069L224.653 95.6456L218.046 100.132L208.581 106.56L202.905 110.415C203.429 109.66 203.958 108.911 204.494 108.17C206.901 104.84 209.422 101.657 211.971 98.6592C212.466 98.0769 212.981 97.4906 213.515 96.9023C213.814 96.5732 214.119 96.2435 214.429 95.9135L223.251 89.9224L241.661 77.4198C243.907 76.6584 246.177 76.0861 248.446 75.7454V62.2715L215.427 84.7748Z" fill="#D0C9AD"/>
<path d="M45.5253 151.464L89.6727 181.446C89.5167 180.646 89.3417 179.871 89.152 179.124L37.7249 144.198L26.6646 136.687L11.5081 126.394V128.362L18.2937 132.971L45.5253 151.464Z" fill="#AEA992"/>
<path d="M36.705 154.118L59.4591 169.571L90.437 190.609C90.4397 190.505 90.442 190.402 90.4439 190.298C90.4486 190.039 90.4511 189.778 90.4511 189.516C90.4511 189.502 90.4513 189.489 90.4513 189.476C90.4511 189.385 90.4509 189.294 90.4501 189.203C90.4486 189.016 90.446 188.829 90.442 188.644L57.0484 165.965L35.3014 151.196L30.3598 147.84L11.5078 135.037V137.006L28.3228 148.425L36.705 154.118Z" fill="#AEA992"/>
<path d="M42.8671 166.948L67.0138 183.346L89.4624 198.592C89.5868 198.027 89.702 197.449 89.8069 196.857L65.6509 180.452L41.4636 164.025L21.417 150.411L11.5081 143.682V145.651L19.3801 150.997L42.8671 166.948Z" fill="#AEA992"/>
<path d="M35.0783 170.301L71.147 194.796L87.2259 205.716C87.4306 205.219 87.6337 204.7 87.8325 204.159L70.439 192.347L37.2029 169.775L12.474 152.981L11.5081 152.325V154.294L35.0783 170.301Z" fill="#AEA992"/>
<path d="M222.229 88.6461L221.778 88.9526L211.836 95.7045L178.27 118.5L173.817 121.525C173.667 122.255 173.525 123.008 173.393 123.781L185.173 115.781L213.25 96.7129L214.429 95.9127L223.251 89.9216L241.66 77.419L248.446 72.8107V70.8418L233.289 81.135L222.229 88.6461Z" fill="#AEA992"/>
<path d="M228.243 93.2066L224.652 95.6453L218.046 100.132L208.58 106.56L202.905 110.414L174.327 129.823L172.557 131.025C172.516 131.691 172.485 132.369 172.463 133.057L181.828 126.697L200.494 114.02L215.484 103.84L219.46 101.14L223.249 98.5672L229.715 94.1753L231.631 92.8747L248.446 81.4552V79.4863L229.594 92.2892L228.243 93.2066Z" fill="#AEA992"/>
<path d="M234.708 97.4596L218.49 108.474L207.261 116.1L194.303 124.9L172.579 139.653C172.621 140.286 172.671 140.909 172.729 141.52L192.94 127.794L214.763 112.974L217.087 111.396L236.181 98.4285L240.574 95.4449L248.446 90.0988V88.1299L238.537 94.8594L234.708 97.4596Z" fill="#AEA992"/>
<path d="M241.174 101.713L240.196 102.377L222.751 114.225L189.515 136.796L173.583 147.616C173.693 148.209 173.809 148.787 173.929 149.35L188.807 139.246L224.876 114.75L241.996 103.124L248.446 98.7433V96.7744L247.48 97.4304L241.174 101.713Z" fill="#AEA992"/>
<path d="M111.409 85.0148L139.23 96.6077C139.231 96.6072 139.231 96.6067 139.231 96.6063L143.336 98.3168C143.336 98.3173 143.336 98.3178 143.336 98.3184L148.571 100.5L148.572 100.498L152.789 102.255C152.789 102.256 152.789 102.257 152.788 102.257L163.925 106.898L175.741 111.821L205.752 91.3677L215.427 84.7744L248.446 62.2711L254.738 57.9833C256.863 56.5353 256.393 53.2773 253.947 52.4929L95.2819 1.34991C91.7288 0.203489 87.8408 0.72648 84.7168 2.78462C62.6613 17.2981 40.5993 31.8051 18.5439 46.3187L96.5955 78.8421L111.409 85.0148ZM39.4692 46.319L88.8915 11.0873C89.7973 10.4415 90.9573 10.2676 92.0127 10.6195L226.991 55.6124C229.727 56.5244 230.231 60.1772 227.844 61.7956L217.63 68.7205L204.527 77.6038L195.258 83.8874L173.051 98.9432L167.448 96.7361L125.647 80.2689L110.582 74.3336L39.4692 46.319Z" fill="#F3A318"/>
<path d="M244.102 108.51L244.102 108.511L232.449 116.625L195.303 142.489L187.234 148.107L183.041 151.027L175.742 156.11L184.305 150.491L187.32 148.513L234.969 117.248L244.811 110.791L244.811 110.791L246.065 109.968L248.446 108.405L252.553 105.711C253.059 105.378 253.114 104.723 252.795 104.301C252.681 104.149 252.519 104.028 252.311 103.962L251.158 103.597L248.446 102.739V105.486L244.102 108.51Z" fill="#F3A318"/>
<path d="M37.6384 97.4879C36.8112 90.253 36.3879 82.9458 36.8519 75.6695C37.2472 69.4706 38.342 63.31 40.2929 57.4063C40.4887 56.8133 40.6953 56.2245 40.9109 55.6392L36.6675 53.8711C34.3144 60.2099 33.1566 67.1326 32.6041 73.4801C31.9459 81.0405 32.3079 88.6573 33.1335 96.1895C33.2429 97.1885 33.358 98.188 33.4793 99.1872C33.6245 100.383 33.7789 101.58 33.9459 102.773C33.946 102.774 33.9461 102.775 33.9463 102.776L38.6267 104.956C38.6267 104.955 38.6265 104.955 38.6263 104.954C38.295 102.582 37.9568 100.212 37.6787 97.8334C37.6651 97.7183 37.6516 97.6032 37.6384 97.4879Z" fill="#FFD86D"/>
<path d="M50.0393 110.273L50.0389 110.271C49.9615 109.77 49.8868 109.271 49.8208 108.773C49.6846 107.743 49.5416 106.714 49.3977 105.685C49.0588 103.262 48.7146 100.84 48.4365 98.4081C48.2877 97.1061 48.1521 95.8018 48.0323 94.4959C47.4858 88.5443 47.2694 82.5568 47.6499 76.5897C48.0146 70.8696 48.9757 65.1822 50.6549 59.699L46.4084 57.9297C44.7514 63.3696 43.8647 69.0867 43.4021 74.4005C42.7804 81.5431 43.0692 88.736 43.7992 95.8605C43.842 96.2773 43.8861 96.6937 43.9317 97.1099C44.2959 100.434 44.7169 103.764 45.2513 107.067C45.3045 107.396 45.3585 107.725 45.414 108.053L45.4255 108.121L45.4259 108.124L50.0393 110.273Z" fill="#FFD86D"/>
<path d="M138.291 151.387L138.29 151.386C138.042 149.599 137.801 147.812 137.596 146.019C137.564 145.735 137.532 145.451 137.501 145.167C137.125 141.747 136.845 138.313 136.709 134.874C136.568 131.317 136.583 127.755 136.809 124.201C137.205 118.002 138.3 111.841 140.25 105.937C141.112 103.33 142.175 100.802 143.336 98.3185C143.336 98.318 143.336 98.3175 143.336 98.3169L139.231 96.6064C139.231 96.607 139.231 96.6075 139.23 96.6079C135.064 104.311 133.289 113.659 132.562 122.011C132.14 126.853 132.137 131.718 132.406 136.569C132.557 139.292 132.794 142.012 133.091 144.721C133.171 145.447 133.253 146.174 133.339 146.901C133.43 147.671 133.524 148.442 133.623 149.211C133.623 149.212 133.623 149.212 133.623 149.212L138.291 151.387Z" fill="#FFD86D"/>
<path d="M148.572 100.498L148.571 100.5C145.433 107.561 143.996 115.627 143.36 122.932C143.086 126.076 142.989 129.23 143.028 132.384C143.071 135.805 143.274 139.225 143.586 142.631C143.678 143.636 143.779 144.639 143.889 145.641C144.214 148.607 144.584 151.578 145.04 154.53C145.04 154.53 145.04 154.531 145.04 154.531L149.698 156.701L149.698 156.7C149.26 153.447 148.767 150.201 148.394 146.939C148.164 144.922 147.964 142.899 147.807 140.873C147.543 137.473 147.397 134.063 147.418 130.655C147.43 128.809 147.49 126.964 147.608 125.121C148.003 118.922 149.098 112.762 151.048 106.858C151.564 105.298 152.151 103.768 152.788 102.257C152.788 102.257 152.789 102.256 152.789 102.256L148.572 100.498Z" fill="#FFD86D"/>
<path d="M129.355 145.241C129.447 145.515 129.828 145.458 129.849 145.174C130.029 142.702 129.769 140.19 129.558 137.69C129.47 136.641 129.391 135.594 129.356 134.554C129.247 131.224 129.245 127.889 129.385 124.56C129.676 117.628 131.098 110.948 131.888 104.093C131.964 103.438 130.959 103.36 130.777 103.943C128.753 110.418 128.285 117.817 128.002 124.56C127.821 128.857 127.555 133.705 127.987 138.309C128.213 140.725 128.632 143.074 129.355 145.241Z" fill="#F3A318"/>
<path d="M52.645 93.0096C52.8167 96.7091 53.1316 100.591 53.9537 104.167C54.3187 105.754 54.7837 107.281 55.3804 108.705C55.4825 108.949 55.8751 108.946 55.8741 108.639C55.8697 106.986 55.6671 105.331 55.4141 103.68C55.1292 101.821 54.7805 99.9646 54.5784 98.1175C54.3759 96.2644 54.207 94.4074 54.0777 92.5476C53.9759 91.0837 53.8985 89.6183 53.8486 88.1519C53.6128 81.2065 54.5282 74.4494 54.7927 67.5451C54.817 66.9121 53.8259 66.7707 53.6817 67.3946C52.1491 74.0281 52.2361 81.3816 52.4661 88.1519C52.5189 89.7038 52.5673 91.338 52.645 93.0096Z" fill="#F3A318"/>
<path d="M29.8063 98.6553C29.9898 95.1435 29.282 91.5699 29.0938 88.0557C28.9155 84.7288 28.8442 81.3949 28.9151 78.0638C29.0627 71.1221 30.3472 64.4237 30.9945 57.5474C31.0557 56.8973 30.0559 56.8025 29.8835 57.3971C27.9896 63.9262 27.676 71.3078 27.5324 78.0638C27.3929 84.6233 27.0808 92.4679 29.3124 98.7222C29.4073 98.9878 29.7912 98.946 29.8063 98.6553Z" fill="#F3A318"/>
<path d="M173.929 149.35C173.809 148.787 173.693 148.209 173.583 147.616C173.231 145.732 172.934 143.695 172.729 141.521C172.671 140.909 172.621 140.287 172.579 139.654C172.463 137.903 172.41 136.072 172.438 134.168C172.443 133.795 172.452 133.425 172.464 133.057C172.485 132.369 172.517 131.692 172.557 131.025C172.567 130.865 172.577 130.706 172.588 130.547C172.752 128.147 173.035 125.887 173.393 123.782C173.525 123.008 173.667 122.256 173.817 121.525C173.914 121.053 174.014 120.591 174.117 120.137C174.862 116.856 175.753 114.058 176.572 111.821H175.74C174.639 113.626 172.862 116.833 171.486 121.173C171.244 121.938 171.014 122.738 170.802 123.572C170.613 124.319 170.438 125.094 170.282 125.894C169.924 127.733 169.666 129.709 169.559 131.809C169.538 132.232 169.522 132.659 169.514 133.091C169.51 133.278 169.507 133.466 169.506 133.655C169.503 134.128 169.507 134.595 169.52 135.056C169.578 137.274 169.807 139.361 170.151 141.303C170.255 141.895 170.371 142.473 170.495 143.038C170.946 145.084 171.515 146.947 172.124 148.607C172.323 149.147 172.526 149.667 172.73 150.164C173.444 151.896 174.177 153.356 174.816 154.516C175.156 155.133 175.47 155.664 175.74 156.106C175.561 155.554 175.38 154.97 175.198 154.354C174.76 152.864 174.322 151.191 173.929 149.35Z" fill="#EC7B1E"/>
<path d="M216.265 136.932L246.974 123.905C246.974 123.903 246.974 123.901 246.974 123.899C246.88 121.857 246.679 119.912 246.402 118.073C246.402 118.072 246.401 118.07 246.401 118.069C246.359 117.788 246.314 117.509 246.269 117.232C246.268 117.23 246.268 117.228 246.267 117.225C246.245 117.09 246.222 116.955 246.199 116.821C246.198 116.815 246.197 116.81 246.196 116.805C246.173 116.67 246.149 116.535 246.124 116.402C246.1 116.265 246.075 116.13 246.049 115.995C246.049 115.994 246.049 115.994 246.049 115.993C246.001 115.741 245.952 115.491 245.902 115.243L216.265 136.932Z" fill="#004972"/>
<path d="M145.04 154.531C145.04 154.531 145.04 154.531 145.04 154.531L138.29 151.386L138.291 151.387L133.623 149.213C133.623 149.212 133.623 149.212 133.623 149.212L130.871 147.93L96.0284 162.448L84.2124 167.371C85.5109 169.495 87.7396 173.558 89.1521 179.124C89.3418 179.871 89.5168 180.646 89.6728 181.447C90.1033 183.655 90.3895 186.062 90.4425 188.645C90.4463 188.83 90.4491 189.017 90.4505 189.204C90.4512 189.295 90.4516 189.386 90.4517 189.477C90.4517 189.49 90.4516 189.503 90.4516 189.517C90.4516 189.779 90.4491 190.04 90.4443 190.299C90.4442 190.303 90.4442 190.307 90.4441 190.311L91.9533 189.671L98.0033 187.104L99.7878 186.347L99.7888 186.347L159.216 161.135L149.698 156.701L149.698 156.701L145.04 154.531Z" fill="#004972"/>
<path d="M50.0393 110.274L45.4257 108.125L45.4253 108.122L44.0335 107.474L32.9626 111.164C30.2267 112.076 29.7231 115.729 32.1102 117.347L42.3242 124.272L86.9027 154.495L92.5053 152.288L118.362 142.102L50.0389 110.271L50.0393 110.274Z" fill="#004972"/>
<path d="M116.276 188.524V193.48C116.276 197.342 120.248 199.928 123.779 198.365L221.787 154.979C223.72 154.124 224.966 152.209 224.966 150.095V146.839C224.966 143.011 221.058 140.426 217.535 141.924L198.217 150.14L180.869 162.837C176.551 166.001 170.86 166.557 166.006 164.298L165.492 164.058L119.526 183.609C117.555 184.447 116.276 186.382 116.276 188.524Z" fill="#0A7BA5"/>
<path d="M27.5051 172.175L11.5081 161.037V158.29L8.79573 159.148L7.64246 159.513C7.43526 159.579 7.27322 159.7 7.15883 159.852C6.83961 160.274 6.8945 160.929 7.40117 161.262L11.5081 163.956L13.889 165.519L24.9851 172.799L72.6339 204.064L84.2122 211.66L72.7197 203.658L27.5051 172.175Z" fill="#004972"/>
</svg>
