<svg width="275" height="254" viewBox="0 0 275 254" fill="none" xmlns="http://www.w3.org/2000/svg">
<path d="M48.7583 164.688V148.908H21.5603V164.688H48.7583Z" fill="#EBEBEB"/>
<path d="M49.1953 208.704V196.242H15.2473V208.704H49.1953Z" fill="#F5F5F5"/>
<path d="M17.6896 208.848C17.7916 208.848 17.8816 205.998 17.8816 202.482C17.8816 198.966 17.7976 196.116 17.6896 196.116C17.5816 196.116 17.4976 198.966 17.4976 202.482C17.4976 205.998 17.5816 208.848 17.6896 208.848Z" fill="#FAFAFA"/>
<path d="M19.3033 208.158C19.4053 208.158 19.4953 205.464 19.4953 202.14C19.4953 198.816 19.4113 196.122 19.3033 196.122C19.1953 196.122 19.1113 198.816 19.1113 202.14C19.1113 205.464 19.1953 208.158 19.3033 208.158Z" fill="#FAFAFA"/>
<path d="M42.4938 202.831C42.4938 202.729 37.9938 202.639 32.4498 202.639C26.9058 202.639 22.4058 202.723 22.4058 202.831C22.4058 202.939 26.8998 203.023 32.4498 203.023C37.9998 203.023 42.4938 202.939 42.4938 202.831Z" fill="#FAFAFA"/>
<path d="M45.6017 208.704C45.7037 208.704 45.7937 205.974 45.7937 202.602C45.7937 199.23 45.7097 196.5 45.6017 196.5C45.4937 196.5 45.4097 199.23 45.4097 202.602C45.4097 205.974 45.4937 208.704 45.6017 208.704Z" fill="#FAFAFA"/>
<path d="M47.0597 208.704C47.1617 208.704 47.2517 205.902 47.2517 202.452C47.2517 199.002 47.1677 196.2 47.0597 196.2C46.9517 196.2 46.8677 199.002 46.8677 202.452C46.8677 205.902 46.9517 208.704 47.0597 208.704Z" fill="#FAFAFA"/>
<path d="M49.1899 196.248V186.24H11.57V196.248H49.1899Z" fill="#E0E0E0"/>
<path d="M28.85 196.315C28.892 196.345 29.378 195.823 30.134 194.935C30.884 194.047 31.892 192.799 32.966 191.383C34.0401 189.973 34.9761 188.665 35.6301 187.705C36.2841 186.745 36.662 186.133 36.62 186.103C36.578 186.073 36.1221 186.631 35.4141 187.549C34.6281 188.581 33.6981 189.805 32.666 191.155C31.64 192.511 30.71 193.735 29.924 194.767C29.228 195.697 28.808 196.285 28.85 196.315Z" fill="#FAFAFA"/>
<path d="M22.9579 196.357C23.0359 196.423 25.0219 194.239 27.3859 191.479C29.7499 188.719 31.6039 186.427 31.5259 186.355C31.4479 186.289 29.4619 188.467 27.0979 191.233C24.7339 193.993 22.8799 196.285 22.9579 196.357Z" fill="#FAFAFA"/>
<path d="M49.2134 239.755V234.967H13.3754V239.755H49.2134Z" fill="#E0E0E0"/>
<path d="M18.2592 239.556C18.3852 239.556 18.4872 238.554 18.4872 237.312C18.4872 236.07 18.3852 235.068 18.2592 235.068C18.1332 235.068 18.0312 236.07 18.0312 237.312C18.0312 238.554 18.1332 239.556 18.2592 239.556Z" fill="#FAFAFA"/>
<path d="M17.4795 239.659C17.6055 239.659 17.7075 238.657 17.7075 237.415C17.7075 236.173 17.6055 235.171 17.4795 235.171C17.3535 235.171 17.2515 236.173 17.2515 237.415C17.2515 238.657 17.3535 239.659 17.4795 239.659Z" fill="#FAFAFA"/>
<path d="M46.4477 239.556C46.5737 239.556 46.6757 238.554 46.6757 237.312C46.6757 236.07 46.5737 235.068 46.4477 235.068C46.3217 235.068 46.2197 236.07 46.2197 237.312C46.2197 238.554 46.3217 239.556 46.4477 239.556Z" fill="#FAFAFA"/>
<path d="M45.6675 239.659C45.7935 239.659 45.8955 238.657 45.8955 237.415C45.8955 236.173 45.7935 235.171 45.6675 235.171C45.5415 235.171 45.4395 236.173 45.4395 237.415C45.4395 238.657 45.5415 239.659 45.6675 239.659Z" fill="#FAFAFA"/>
<path d="M40.9815 237.217C40.9815 237.091 36.8775 236.989 31.8135 236.989C26.7495 236.989 22.6455 237.091 22.6455 237.217C22.6455 237.343 26.7495 237.445 31.8135 237.445C36.8775 237.445 40.9815 237.343 40.9815 237.217Z" fill="#FAFAFA"/>
<path d="M48.9858 218.305V208.729H13.1478V218.305H48.9858Z" fill="#E0E0E0"/>
<path d="M49.4479 211.416C49.4479 211.416 49.3879 211.374 49.2559 211.302C49.1239 211.236 48.9259 211.14 48.6559 211.032C48.1219 210.816 47.3179 210.504 46.2259 210.336C45.1519 210.18 43.7119 210.138 42.2839 210.894C41.5819 211.266 40.9159 211.836 40.4119 212.592C39.9139 213.342 39.5959 214.326 39.7579 215.352C39.8419 215.862 40.0579 216.36 40.4179 216.78C40.7659 217.194 41.3299 217.5 41.9299 217.464C42.5299 217.44 43.0699 217.092 43.4479 216.642C43.8259 216.192 44.0899 215.616 44.1439 215.01C44.2879 213.798 43.7719 212.538 42.9079 211.614C42.0559 210.66 40.7839 210.078 39.4639 209.928C38.1379 209.772 36.7639 209.982 35.4679 210.426C34.1659 210.876 32.8819 211.602 31.9759 212.772C31.5319 213.354 31.2079 214.074 31.1599 214.842C31.0939 215.604 31.3399 216.426 31.9219 216.996C32.2159 217.278 32.6179 217.47 33.0439 217.488C33.4639 217.506 33.8779 217.368 34.2139 217.158C34.9039 216.726 35.3479 215.994 35.5339 215.226C35.8699 213.66 35.2519 212.028 34.1239 211.008C32.9899 209.976 31.5079 209.52 30.0919 209.364C28.6639 209.22 27.2299 209.328 25.9099 209.778C24.5959 210.216 23.4079 211.08 22.7299 212.25C22.0339 213.39 21.8119 214.842 22.3339 216.054C22.5799 216.654 23.1319 217.188 23.7979 217.29C24.4459 217.41 25.1059 217.23 25.6039 216.852C26.6179 216.048 26.7859 214.674 26.4559 213.624C26.1259 212.544 25.3999 211.722 24.6499 211.08C23.1199 209.784 21.3019 209.226 19.7359 209.172C18.1519 209.118 16.8199 209.556 15.8419 210.054C14.8579 210.564 14.2099 211.146 13.8139 211.56C13.6159 211.77 13.4719 211.938 13.3819 212.058C13.2919 212.178 13.2499 212.238 13.2559 212.244C13.3039 212.304 13.9759 211.2 15.9199 210.21C16.8859 209.742 18.1939 209.34 19.7239 209.418C21.2419 209.496 22.9879 210.06 24.4399 211.32C25.1539 211.944 25.8319 212.742 26.1199 213.72C26.4139 214.668 26.2219 215.898 25.3759 216.552C24.9619 216.864 24.3919 217.014 23.8699 216.906C23.3359 216.816 22.9159 216.414 22.6999 215.886C22.2499 214.824 22.4479 213.504 23.0899 212.454C23.7259 211.38 24.8119 210.588 26.0539 210.174C27.3019 209.754 28.6819 209.652 30.0499 209.796C31.4059 209.946 32.7979 210.39 33.8299 211.332C34.8499 212.244 35.4079 213.744 35.1079 215.118C34.9459 215.79 34.5619 216.414 33.9919 216.768C33.4339 217.14 32.7019 217.128 32.2459 216.66C31.7839 216.216 31.5619 215.52 31.6219 214.866C31.6639 214.2 31.9399 213.564 32.3419 213.036C33.1639 211.968 34.3819 211.26 35.6239 210.828C36.8779 210.396 38.1859 210.192 39.4339 210.336C40.6759 210.474 41.8459 211.002 42.6379 211.878C43.4479 212.724 43.9099 213.876 43.7899 214.962C43.6999 216.018 42.9019 217.044 41.9299 217.11C41.4499 217.14 40.9939 216.906 40.6879 216.552C40.3699 216.198 40.1719 215.748 40.0939 215.292C39.9379 214.368 40.2139 213.456 40.6699 212.742C41.1379 212.028 41.7619 211.476 42.4219 211.11C43.7599 210.372 45.1639 210.378 46.2199 210.504C47.2939 210.642 48.1039 210.918 48.6379 211.11C49.1779 211.308 49.4539 211.428 49.4599 211.41L49.4479 211.416Z" fill="#FAFAFA"/>
<path d="M48.998 235.045V218.431H16.3581V235.045H48.998Z" fill="#EBEBEB"/>
<path d="M21.7881 234.475C21.9141 234.475 22.0161 230.875 22.0161 226.435C22.0161 221.995 21.9141 218.395 21.7881 218.395C21.6621 218.395 21.5601 221.995 21.5601 226.435C21.5601 230.875 21.6621 234.475 21.7881 234.475Z" fill="#E0E0E0"/>
<path d="M24.2597 234.679C24.3857 234.679 24.4877 231.127 24.4877 226.741C24.4877 222.355 24.3857 218.803 24.2597 218.803C24.1337 218.803 24.0317 222.355 24.0317 226.741C24.0317 231.127 24.1337 234.679 24.2597 234.679Z" fill="#E0E0E0"/>
<path d="M45.3139 235.212C45.4399 235.212 45.5419 231.468 45.5419 226.854C45.5419 222.24 45.4399 218.496 45.3139 218.496C45.1879 218.496 45.0859 222.24 45.0859 226.854C45.0859 231.468 45.1879 235.212 45.3139 235.212Z" fill="#E0E0E0"/>
<path d="M42.4038 234.991C42.5298 234.991 42.6318 231.343 42.6318 226.849C42.6318 222.355 42.5298 218.707 42.4038 218.707C42.2778 218.707 42.1758 222.355 42.1758 226.849C42.1758 231.343 42.2778 234.991 42.4038 234.991Z" fill="#E0E0E0"/>
<path d="M48.7578 186.246V176.67H12.9198V186.246H48.7578Z" fill="#EBEBEB"/>
<path d="M49.2199 179.364C49.2199 179.364 49.1599 179.322 49.0279 179.25C48.8959 179.184 48.6979 179.088 48.4279 178.98C47.8939 178.764 47.0899 178.452 45.9979 178.284C44.9239 178.134 43.4839 178.086 42.0559 178.842C41.3539 179.214 40.6879 179.784 40.1839 180.54C39.6859 181.29 39.3679 182.274 39.5299 183.3C39.6139 183.81 39.8299 184.308 40.1899 184.728C40.5379 185.142 41.1019 185.448 41.7019 185.412C42.3019 185.388 42.8419 185.04 43.2199 184.59C43.5979 184.14 43.8619 183.564 43.9159 182.958C44.0599 181.746 43.5439 180.486 42.6799 179.562C41.8279 178.608 40.5559 178.026 39.2359 177.876C37.9099 177.72 36.5359 177.93 35.2399 178.374C33.9379 178.824 32.6539 179.55 31.7479 180.72C31.3039 181.302 30.9799 182.022 30.9319 182.79C30.8659 183.552 31.1119 184.374 31.6939 184.944C31.9879 185.226 32.3899 185.418 32.8159 185.436C33.2359 185.454 33.6439 185.316 33.9859 185.106C34.6759 184.674 35.1199 183.942 35.3059 183.174C35.6419 181.608 35.0239 179.976 33.8959 178.956C32.7619 177.924 31.2799 177.468 29.8639 177.312C28.4359 177.168 27.0019 177.276 25.6819 177.726C24.3679 178.164 23.1799 179.028 22.5019 180.198C21.8059 181.338 21.5839 182.79 22.1059 184.002C22.3519 184.602 22.9039 185.136 23.5699 185.238C24.2179 185.358 24.8779 185.178 25.3759 184.8C26.3899 183.996 26.5579 182.622 26.2279 181.572C25.8979 180.492 25.1719 179.67 24.4219 179.028C22.8919 177.732 21.0739 177.174 19.5079 177.12C17.9239 177.066 16.5919 177.504 15.6139 178.002C14.6299 178.512 13.9819 179.094 13.5859 179.508C13.3879 179.718 13.2439 179.886 13.1539 180.006C13.0639 180.126 13.0219 180.186 13.0279 180.192C13.0759 180.252 13.7479 179.148 15.6919 178.158C16.6579 177.69 17.9659 177.288 19.4959 177.366C21.0139 177.444 22.7599 178.008 24.2119 179.268C24.9259 179.892 25.6039 180.69 25.8919 181.668C26.1859 182.616 25.9939 183.846 25.1479 184.5C24.7339 184.812 24.1639 184.962 23.6419 184.854C23.1079 184.764 22.6879 184.362 22.4719 183.834C22.0219 182.772 22.2199 181.452 22.8619 180.402C23.4979 179.328 24.5839 178.536 25.8259 178.122C27.0739 177.702 28.4539 177.6 29.8219 177.744C31.1779 177.894 32.5699 178.332 33.6019 179.28C34.6219 180.192 35.1799 181.692 34.8799 183.066C34.7179 183.738 34.3339 184.362 33.7639 184.716C33.2059 185.088 32.4739 185.076 32.0179 184.608C31.5559 184.164 31.3339 183.468 31.3939 182.814C31.4359 182.148 31.7119 181.512 32.1139 180.984C32.9359 179.916 34.1539 179.208 35.3959 178.776C36.6499 178.344 37.9579 178.14 39.2059 178.284C40.4479 178.422 41.6119 178.95 42.4099 179.826C43.2199 180.672 43.6819 181.824 43.5619 182.91C43.4719 183.966 42.6739 184.992 41.7019 185.058C41.2219 185.088 40.7659 184.854 40.4599 184.5C40.1419 184.146 39.9439 183.696 39.8659 183.24C39.7099 182.316 39.9859 181.404 40.4419 180.69C40.9099 179.976 41.5339 179.424 42.1939 179.058C43.5319 178.32 44.9359 178.326 45.9919 178.452C47.0659 178.59 47.8759 178.866 48.4159 179.058C48.9559 179.256 49.2319 179.376 49.2379 179.358L49.2199 179.364Z" fill="#FAFAFA"/>
<path d="M61.0337 253.069V239.761H11.1077V253.069H61.0337Z" fill="#F5F5F5"/>
<path d="M48.7583 176.676V164.232H15.2423V176.676H48.7583Z" fill="#E0E0E0"/>
<path d="M31.958 163.914C31.958 163.914 32.174 163.806 32.492 163.512C32.81 163.218 33.23 162.744 33.602 162.06C33.98 161.382 34.304 160.494 34.406 159.462C34.508 158.436 34.352 157.26 33.866 156.18C33.398 155.094 32.822 154.146 32.486 153.222C32.132 152.304 32.018 151.404 32.174 150.69C32.318 149.97 32.672 149.454 32.966 149.172C33.26 148.878 33.482 148.788 33.464 148.752C33.464 148.734 33.212 148.782 32.864 149.058C32.522 149.328 32.102 149.856 31.91 150.63C31.706 151.404 31.808 152.376 32.156 153.342C32.492 154.314 33.068 155.28 33.518 156.33C33.98 157.374 34.136 158.454 34.058 159.438C33.98 160.416 33.698 161.274 33.362 161.94C32.69 163.284 31.892 163.86 31.958 163.92V163.914Z" fill="#FAFAFA"/>
<path d="M35.27 164.197C35.27 164.197 35.486 164.089 35.804 163.795C36.122 163.501 36.542 163.027 36.914 162.343C37.292 161.665 37.616 160.777 37.718 159.745C37.82 158.719 37.664 157.543 37.178 156.463C36.71 155.377 36.134 154.429 35.798 153.505C35.444 152.587 35.33 151.687 35.486 150.973C35.63 150.253 35.984 149.737 36.278 149.455C36.572 149.161 36.794 149.071 36.776 149.035C36.776 149.017 36.524 149.065 36.176 149.341C35.834 149.611 35.414 150.139 35.222 150.913C35.018 151.687 35.12 152.659 35.468 153.625C35.804 154.597 36.38 155.563 36.83 156.613C37.292 157.657 37.448 158.737 37.37 159.721C37.292 160.699 37.01 161.557 36.674 162.223C36.002 163.567 35.204 164.143 35.27 164.203V164.197Z" fill="#FAFAFA"/>
<path d="M24.5362 163.993C24.6382 163.993 24.7282 160.567 24.7282 156.343C24.7282 152.119 24.6442 148.687 24.5362 148.687C24.4282 148.687 24.3442 152.113 24.3442 156.343C24.3442 160.573 24.4282 163.993 24.5362 163.993Z" fill="#FAFAFA"/>
<path d="M20.6419 169.626C20.6419 169.626 20.5219 169.674 20.4139 169.866C20.3059 170.052 20.2219 170.376 20.2939 170.772C20.3659 171.15 20.5999 171.624 21.1099 171.87C21.6199 172.128 22.3219 171.948 22.7419 171.498C23.1739 171.06 23.3359 170.358 23.0539 169.854C22.7899 169.356 22.3039 169.14 21.9259 169.08C21.5299 169.026 21.2119 169.122 21.0259 169.236C20.8399 169.35 20.7799 169.464 20.7919 169.476C20.8219 169.536 21.1939 169.182 21.8719 169.344C22.1899 169.422 22.5679 169.638 22.7419 170.01C22.9279 170.376 22.8139 170.886 22.4719 171.24C22.1299 171.594 21.6319 171.732 21.2539 171.558C20.8759 171.396 20.6479 171.03 20.5579 170.718C20.3719 170.052 20.7079 169.662 20.6479 169.638L20.6419 169.626Z" fill="#FAFAFA"/>
<path d="M45.404 170.43C45.404 170.328 40.706 170.238 34.91 170.238C29.114 170.238 24.416 170.322 24.416 170.43C24.416 170.538 29.114 170.622 34.91 170.622C40.706 170.622 45.404 170.538 45.404 170.43Z" fill="#FAFAFA"/>
<path d="M262.244 1.35645H207.824V91.4344H262.244V1.35645Z" fill="#E0E0E0"/>
<path d="M260.432 1.35645H206.012V91.4344H260.432V1.35645Z" fill="#EBEBEB"/>
<path d="M258.11 3.18066H208.328V89.6047H258.11V3.18066Z" fill="white"/>
<path d="M248.42 14.4131H217.808V78.3791H248.42V14.4131Z" fill="#EBEBEB"/>
<path d="M217.808 55.7406C217.736 49.7646 223.112 43.9326 229.028 43.0986C231.848 42.7026 234.848 43.2606 237.482 42.1806C242.186 40.2486 243.686 33.9966 248.42 32.1426L248.636 78.3726H217.808V55.7346V55.7406Z" fill="#E0E0E0"/>
<path d="M221.966 198.757C219.464 197.185 216.59 196.195 213.65 195.895C212.294 195.757 210.806 195.793 209.714 196.621C209.48 196.795 209.258 197.053 209.306 197.341C209.342 197.551 209.522 197.701 209.69 197.833C213.074 200.413 218.192 200.743 221.96 198.763" fill="#E0E0E0"/>
<path d="M221.75 198.522C219.866 197.052 217.976 195.576 216.38 193.794C214.784 192.018 213.488 189.906 213.014 187.566C212.87 186.858 212.822 186.048 213.278 185.484C217.562 188.826 220.922 193.152 221.75 198.522Z" fill="#E0E0E0"/>
<path d="M221.918 198.726C221.594 196.386 221.48 193.974 222.02 191.676C222.56 189.372 223.808 187.17 225.776 185.856C226.514 187.584 226.196 189.576 225.674 191.388C224.87 194.184 223.604 196.842 221.948 199.23" fill="#E0E0E0"/>
<path d="M226.118 206.244C223.568 206.556 221.348 207.894 219.446 209.622C217.544 211.344 216.188 213.666 215.63 216.174C218.132 216.018 220.25 214.26 221.786 212.28C223.322 210.306 224.39 208.134 226.076 206.286" fill="#E0E0E0"/>
<path d="M227.03 207.451C224.978 202.393 225.722 196.303 228.932 191.887C230.384 197.053 229.85 202.885 227.03 207.451Z" fill="#E0E0E0"/>
<path d="M232.574 214.057C230.264 213.913 227.912 214.465 225.902 215.623C223.892 216.781 222.236 218.533 221.198 220.609C221.054 220.891 220.934 221.251 221.12 221.503C221.282 221.725 221.6 221.743 221.876 221.725C224.12 221.581 226.106 220.231 227.744 218.695C229.382 217.159 230.81 215.383 232.622 214.057" fill="#E0E0E0"/>
<path d="M232.4 213.697C231.206 209.881 231.134 205.723 232.19 201.865C232.604 200.341 233.306 198.739 234.716 198.025C234.836 197.965 234.974 197.911 235.1 197.959C235.22 198.007 235.286 198.127 235.346 198.241C235.85 199.285 235.994 200.479 235.94 201.637C235.886 202.795 235.646 203.941 235.406 205.075C234.962 207.175 234.728 209.431 233.576 211.243C233.3 211.675 233.06 212.137 232.844 212.599C232.628 213.061 232.622 213.223 232.424 213.589" fill="#E0E0E0"/>
<path d="M247.076 215.88C245.99 211.74 247.142 206.724 249.752 203.334C249.944 203.082 250.196 202.818 250.514 202.848C250.994 202.89 251.12 203.532 251.096 204.012C250.91 208.242 249.5 212.406 247.076 215.88Z" fill="#E0E0E0"/>
<path d="M248.402 216.786C253.43 218.094 259.196 216.822 263.378 213.738C260.9 212.484 257.978 212.124 255.272 212.742C252.566 213.36 250.088 214.572 248.402 216.78" fill="#E0E0E0"/>
<path d="M249.518 214.033C252.332 209.443 257.732 206.449 263.108 206.173C262.49 208.363 260.69 210.061 258.662 211.087C256.634 212.113 254.372 212.563 252.14 212.995C251.27 213.163 250.082 213.349 249.518 214.033Z" fill="#E0E0E0"/>
<path d="M247.358 200.664C248.12 198.054 248.888 195.42 249.098 192.702C249.308 189.99 248.918 187.158 247.514 184.83C244.886 189.918 244.616 195.864 247.28 200.934" fill="#E0E0E0"/>
<path d="M256.214 196.189C259.292 190.597 265.562 186.133 271.91 185.509C269.462 191.605 262.784 196.321 256.214 196.189Z" fill="#E0E0E0"/>
<path d="M254.276 197.287C258.86 197.983 262.772 200.917 267.056 202.693C267.974 203.071 268.964 203.377 269.948 203.245C270.932 203.113 271.904 202.459 272.12 201.487C272.306 200.683 271.94 199.831 271.364 199.243C270.788 198.655 270.026 198.289 269.264 197.971C264.596 196.027 259.592 195.979 254.672 197.155" fill="#E0E0E0"/>
<path d="M251.624 200.503C252.662 200.803 253.016 201.337 253.838 202.039C256.628 204.415 259.976 206.131 263.528 207.019C263.9 207.109 264.386 207.145 264.566 206.815C264.728 206.521 264.524 206.167 264.314 205.909C262.826 204.043 260.696 202.771 258.464 201.937C256.226 201.103 254.288 200.101 251.618 200.317" fill="#E0E0E0"/>
<path d="M248.63 181.074C252.362 184.554 257.612 186.342 262.694 185.856C262.928 185.832 263.174 185.796 263.336 185.628C263.69 185.244 263.264 184.65 262.85 184.326C258.716 181.104 253.706 179.766 248.63 181.074Z" fill="#E0E0E0"/>
<path d="M252.182 179.773C257.114 176.077 263.87 174.961 269.726 176.875C267.518 179.053 264.452 180.223 261.368 180.547C258.284 180.871 255.194 180.529 252.182 179.773Z" fill="#E0E0E0"/>
<path d="M250.766 170.844C250.358 166.716 250.622 163.458 250.34 159.312C250.316 158.982 250.244 158.58 249.938 158.46C249.506 158.292 249.146 158.826 249.008 159.264C247.778 163.086 248.45 167.466 250.766 170.748" fill="#E0E0E0"/>
<path d="M250.472 171.301C253.268 169.573 255.368 167.311 257.306 164.659C258.656 162.811 259.796 160.597 259.49 158.329C257.594 158.293 255.794 159.337 254.558 160.777C253.322 162.217 252.59 164.017 252.044 165.835C251.498 167.653 251.114 169.519 250.472 171.301Z" fill="#E0E0E0"/>
<path d="M257.186 169.434C263.324 167.166 269.048 163.788 274.01 159.516C272 158.706 269.702 159.192 267.692 160.002C263.102 161.856 259.352 164.982 257.102 169.392" fill="#E0E0E0"/>
<path d="M252.362 173.563C255.47 173.905 258.62 174.121 261.704 173.611C264.734 173.107 267.596 171.907 270.422 170.713C270.656 170.617 270.914 170.497 271.016 170.263C271.13 170.011 271.01 169.705 270.806 169.519C270.602 169.333 270.326 169.243 270.062 169.171C266.984 168.313 263.666 168.715 260.636 169.735C257.612 170.755 255.128 171.967 252.362 173.569" fill="#E0E0E0"/>
<path d="M234.626 181.212C232.508 176.934 232.646 171.948 234.476 167.538C235.766 169.5 235.922 172.002 235.688 174.336C235.454 176.67 234.74 179.076 234.698 181.422" fill="#E0E0E0"/>
<path d="M226.166 176.947C220.874 176.845 215.588 179.101 211.994 182.983C214.634 183.397 217.352 182.719 219.752 181.543C222.152 180.373 224.288 178.723 226.4 177.091" fill="#E0E0E0"/>
<path d="M220.478 175.044C217.892 174.834 215.402 174.516 212.912 175.278C210.422 176.04 208.16 177.768 207.146 180.168C209.564 180.438 212.018 179.832 214.238 178.83C216.458 177.822 218.474 176.43 220.478 175.05" fill="#E0E0E0"/>
<path d="M228.902 175.129C226.574 173.605 224.186 172.051 221.474 171.421C218.762 170.791 215.624 171.259 213.734 173.299C215.93 174.589 218.588 174.739 221.132 174.739C223.676 174.739 226.796 174.709 229.19 175.555" fill="#E0E0E0"/>
<path d="M228.914 175.254C224.936 171.348 223.424 164.328 225.026 158.982C228.152 163.734 229.556 169.596 228.914 175.254Z" fill="#E0E0E0"/>
<path d="M239.858 164.179C240.608 162.433 241.136 160.603 241.808 158.827C242.48 157.051 243.32 155.305 244.592 153.895C245.864 152.485 247.622 151.435 249.518 151.339C248.33 156.715 244.76 161.521 239.954 164.209" fill="#E0E0E0"/>
<path d="M237.878 166.489C236.636 164.779 235.202 162.457 233.516 161.185C231.83 159.907 229.64 159.139 227.582 159.625C229.67 163.363 233.624 165.997 237.878 166.489Z" fill="#E0E0E0"/>
<path d="M238.274 164.322C237.458 162.252 236.642 160.164 236.312 157.962C235.982 155.766 236.186 153.414 237.308 151.5C239.492 155.628 240.194 160.062 238.388 164.37" fill="#E0E0E0"/>
<path d="M239.876 151.501C241.112 147.409 244.862 144.391 248.906 143.011C249.416 142.837 249.956 142.693 250.49 142.771C251.024 142.855 251.546 143.215 251.66 143.743C251.81 144.439 251.234 145.063 250.694 145.525C247.544 148.219 243.836 150.265 239.882 151.495" fill="#E0E0E0"/>
<path d="M239.924 148.153C240.08 145.513 240.248 142.837 241.106 140.335C241.964 137.833 243.62 135.487 246.026 134.395C246.434 137.059 245.258 139.711 243.842 142.009C242.426 144.301 240.716 146.467 239.864 149.029" fill="#E0E0E0"/>
<path d="M239.858 149.97C238.838 146.988 238.73 143.196 236.942 140.598C235.694 138.78 233.696 137.544 232.616 135.618C231.902 137.418 232.118 139.488 232.868 141.27C233.618 143.052 234.848 144.588 236.174 146.004C237.494 147.414 238.628 148.476 239.858 149.97Z" fill="#E0E0E0"/>
<path d="M239.876 237.829C239.798 237.829 239.726 217.927 239.72 193.381C239.72 168.829 239.774 148.927 239.852 148.927C239.93 148.927 240.002 168.823 240.008 193.381C240.008 217.927 239.954 237.829 239.876 237.829Z" fill="#E0E0E0"/>
<path d="M257.27 178.213C257.27 178.213 257.006 178.333 256.52 178.495C255.98 178.675 255.29 178.909 254.462 179.191C252.728 179.785 250.34 180.637 247.754 181.699C245.192 182.797 242.774 183.691 241.394 184.885C240.704 185.473 240.314 186.109 240.116 186.577C239.918 187.045 239.882 187.333 239.858 187.327C239.846 187.327 239.852 187.255 239.864 187.117C239.888 186.985 239.924 186.781 240.008 186.535C240.176 186.043 240.56 185.365 241.256 184.735C241.946 184.105 242.912 183.535 244.016 183.019C245.12 182.503 246.344 181.969 247.64 181.435C250.238 180.373 252.638 179.539 254.396 178.999C255.272 178.723 255.992 178.525 256.484 178.393C256.982 178.261 257.258 178.201 257.264 178.219L257.27 178.213Z" fill="#E0E0E0"/>
<path d="M262.97 164.208C262.97 164.208 262.904 164.292 262.76 164.43C262.592 164.592 262.382 164.79 262.124 165.03C261.53 165.57 260.726 166.302 259.742 167.196C257.684 169.026 254.894 171.516 251.804 174.264C248.708 177.024 246.032 179.658 244.172 181.638C243.242 182.628 242.51 183.45 242.012 184.02C241.778 184.284 241.586 184.506 241.436 184.68C241.304 184.83 241.226 184.902 241.22 184.896C241.214 184.89 241.274 184.8 241.388 184.644C241.508 184.482 241.682 184.248 241.922 183.948C242.396 183.354 243.104 182.508 244.016 181.5C245.84 179.478 248.498 176.808 251.606 174.048C254.714 171.3 257.54 168.828 259.598 167.046C260.606 166.182 261.434 165.468 262.04 164.946C262.31 164.718 262.538 164.538 262.712 164.388C262.868 164.262 262.952 164.202 262.958 164.208H262.97Z" fill="#E0E0E0"/>
<path d="M248.456 177.067C248.372 177.031 249.02 175.537 249.668 173.647C250.316 171.757 250.628 170.161 250.706 170.179C250.784 170.185 250.598 171.829 249.938 173.743C249.614 174.697 249.254 175.537 248.972 176.137C248.69 176.731 248.486 177.091 248.45 177.073L248.456 177.067Z" fill="#E0E0E0"/>
<path d="M239.894 189.114C239.894 189.114 239.708 188.928 239.414 188.562C239.09 188.148 238.682 187.62 238.19 186.996C237.164 185.67 235.742 183.834 234.152 181.83C232.562 179.826 231.098 178.026 230.036 176.724C229.538 176.106 229.118 175.584 228.788 175.176C228.494 174.81 228.344 174.6 228.356 174.588C228.374 174.576 228.554 174.762 228.872 175.104C229.19 175.452 229.64 175.956 230.192 176.592C231.29 177.864 232.784 179.64 234.374 181.65C235.97 183.66 237.362 185.514 238.352 186.87C238.844 187.548 239.24 188.106 239.504 188.496C239.768 188.886 239.906 189.102 239.894 189.114Z" fill="#E0E0E0"/>
<path d="M236.084 184.219C236.036 184.267 235.022 183.061 234.488 181.231C234.092 179.941 234.08 178.759 234.128 178.213L234.254 178.225C234.2 178.453 234.158 178.579 234.134 178.573C234.11 178.573 234.11 178.441 234.134 178.207L234.26 178.219C234.308 178.753 234.386 179.899 234.77 181.153C235.286 182.929 236.168 184.177 236.09 184.225L236.084 184.219Z" fill="#E0E0E0"/>
<path d="M231.158 178.027C231.122 178.069 230.792 177.655 230.042 177.379C229.298 177.091 228.176 177.025 226.946 177.133C225.716 177.223 224.612 177.445 223.826 177.637C223.04 177.835 222.56 177.985 222.542 177.943C222.53 177.907 222.986 177.685 223.772 177.439C224.552 177.193 225.668 176.935 226.922 176.845C228.164 176.737 229.346 176.833 230.114 177.187C230.894 177.535 231.176 178.015 231.152 178.021L231.158 178.027Z" fill="#E0E0E0"/>
<path d="M229.994 176.526C229.97 176.568 229.346 176.268 228.284 175.902C227.228 175.536 225.722 175.158 224.018 175.026C222.314 174.9 220.772 175.05 219.668 175.248C218.564 175.446 217.898 175.65 217.886 175.602C217.88 175.584 218.042 175.518 218.342 175.41C218.636 175.302 219.08 175.17 219.632 175.05C220.736 174.798 222.308 174.612 224.042 174.744C225.776 174.876 227.3 175.302 228.356 175.716C228.884 175.926 229.298 176.118 229.574 176.268C229.85 176.418 230 176.508 229.994 176.526Z" fill="#E0E0E0"/>
<path d="M239.858 170.178C239.78 170.196 239.222 168.258 238.61 165.852C237.998 163.44 237.566 161.472 237.644 161.454C237.722 161.436 238.28 163.374 238.892 165.786C239.504 168.198 239.936 170.166 239.858 170.184V170.178Z" fill="#E0E0E0"/>
<path d="M239.936 170.179C239.852 170.209 239.492 168.913 238.556 167.587C237.644 166.237 236.48 165.553 236.522 165.487C236.54 165.457 236.858 165.577 237.308 165.889C237.758 166.201 238.31 166.729 238.79 167.419C239.762 168.799 240.008 170.173 239.936 170.173V170.179Z" fill="#E0E0E0"/>
<path d="M239.876 227.221C239.846 227.221 239.786 226.741 239.564 225.895C239.342 225.049 238.922 223.849 238.232 222.451C236.858 219.643 234.356 216.079 231.176 212.509C229.598 210.709 228.074 209.011 226.772 207.385C225.47 205.759 224.402 204.217 223.622 202.843C222.842 201.475 222.332 200.305 222.032 199.477C221.888 199.063 221.78 198.739 221.72 198.511C221.66 198.289 221.63 198.169 221.636 198.169C221.66 198.163 221.804 198.625 222.134 199.435C222.464 200.245 222.998 201.397 223.796 202.741C224.594 204.085 225.668 205.609 226.976 207.217C228.278 208.825 229.808 210.517 231.386 212.317C234.572 215.893 237.068 219.505 238.406 222.361C239.078 223.789 239.474 225.007 239.66 225.871C239.75 226.303 239.816 226.639 239.834 226.867C239.864 227.095 239.87 227.215 239.864 227.221H239.876Z" fill="#E0E0E0"/>
<path d="M255.59 209.466C255.59 209.466 255.296 209.64 254.768 209.928C254.24 210.222 253.49 210.684 252.632 211.338C251.774 211.998 250.814 212.856 249.824 213.9C248.84 214.938 247.826 216.15 246.788 217.446C244.718 220.044 242.78 222.342 241.622 224.178C241.034 225.09 240.608 225.858 240.326 226.392C240.044 226.932 239.894 227.232 239.87 227.22C239.864 227.22 239.888 227.136 239.948 226.986C240.008 226.836 240.092 226.614 240.224 226.338C240.476 225.78 240.878 224.994 241.448 224.064C242.576 222.186 244.496 219.858 246.56 217.26C247.598 215.964 248.624 214.752 249.626 213.714C250.634 212.676 251.618 211.818 252.5 211.176C253.382 210.534 254.156 210.096 254.708 209.826C254.978 209.688 255.206 209.604 255.35 209.544C255.5 209.484 255.578 209.454 255.584 209.466H255.59Z" fill="#E0E0E0"/>
<path d="M255.902 215.226C255.902 215.268 255.236 215.346 254.162 215.478C253.088 215.616 251.594 215.796 250.034 216.294C248.474 216.804 247.178 217.572 246.338 218.232C245.486 218.892 245.084 219.438 245.042 219.402C245.03 219.39 245.114 219.246 245.3 219C245.486 218.754 245.792 218.43 246.206 218.07C247.034 217.356 248.342 216.534 249.944 216.012C251.546 215.502 253.058 215.358 254.138 215.268C255.224 215.19 255.896 215.178 255.902 215.22V215.226Z" fill="#E0E0E0"/>
<path d="M245.546 218.772C245.456 218.718 246.242 217.524 246.848 215.91C247.418 214.284 247.55 212.856 247.658 212.874C247.694 212.874 247.694 213.234 247.628 213.81C247.562 214.38 247.424 215.172 247.118 216.012C246.812 216.846 246.416 217.542 246.11 218.028C245.798 218.514 245.582 218.796 245.546 218.772Z" fill="#E0E0E0"/>
<path d="M260.684 194.004C260.684 194.004 260.594 194.064 260.408 194.154C260.192 194.25 259.922 194.376 259.592 194.526C259.232 194.682 258.8 194.874 258.308 195.132C257.816 195.384 257.24 195.648 256.646 196.008C256.34 196.182 256.028 196.362 255.698 196.548C255.368 196.74 255.044 196.962 254.696 197.178C253.994 197.604 253.292 198.126 252.548 198.66C251.084 199.77 249.542 201.09 248.06 202.608C246.59 204.144 245.33 205.728 244.268 207.228C243.758 207.996 243.26 208.716 242.858 209.43C242.654 209.784 242.438 210.12 242.264 210.45C242.09 210.786 241.916 211.11 241.754 211.416C241.418 212.028 241.172 212.61 240.938 213.108C240.698 213.606 240.518 214.05 240.374 214.41C240.236 214.746 240.122 215.022 240.032 215.238C239.948 215.43 239.9 215.526 239.894 215.52C239.882 215.52 239.912 215.412 239.978 215.22C240.056 214.998 240.152 214.716 240.272 214.368C240.398 213.996 240.566 213.546 240.794 213.042C241.016 212.532 241.25 211.944 241.574 211.32C241.73 211.008 241.898 210.678 242.066 210.336C242.24 209.994 242.45 209.658 242.654 209.298C243.05 208.572 243.542 207.846 244.052 207.066C245.108 205.542 246.374 203.94 247.856 202.392C249.35 200.862 250.91 199.542 252.392 198.432C253.148 197.898 253.862 197.382 254.57 196.962C254.924 196.746 255.254 196.524 255.584 196.338C255.92 196.158 256.238 195.978 256.55 195.81C257.156 195.462 257.738 195.21 258.242 194.97C258.74 194.724 259.184 194.544 259.55 194.406C259.892 194.274 260.168 194.166 260.39 194.082C260.582 194.01 260.684 193.98 260.69 193.986L260.684 194.004Z" fill="#E0E0E0"/>
<path d="M248.246 202.339C248.246 202.339 248.36 201.853 248.93 201.319C249.488 200.791 250.502 200.299 251.684 200.263C252.866 200.233 253.886 200.563 254.582 200.827C255.284 201.103 255.692 201.325 255.68 201.361C255.662 201.403 255.224 201.241 254.516 201.019C253.808 200.803 252.812 200.515 251.69 200.545C250.574 200.581 249.614 201.007 249.056 201.469C248.486 201.925 248.288 202.363 248.24 202.333L248.246 202.339Z" fill="#E0E0E0"/>
<path d="M246.386 204.259C246.308 204.217 247.01 203.185 247.166 201.715C247.352 200.245 246.902 199.081 246.992 199.057C247.022 199.045 247.178 199.315 247.316 199.801C247.454 200.281 247.544 200.983 247.454 201.751C247.364 202.519 247.112 203.179 246.872 203.617C246.632 204.055 246.416 204.283 246.386 204.265V204.259Z" fill="#E0E0E0"/>
<path d="M226.13 230.07C226.556 237.678 228.848 245.412 232.376 253.23H247.706C251.066 245.49 253.202 237.762 253.58 230.07H226.13Z" fill="#E0E0E0"/>
<path d="M251.096 242.376C251.096 242.454 246.05 242.52 239.822 242.52C233.594 242.52 228.548 242.454 228.548 242.376C228.548 242.298 233.594 242.232 239.822 242.232C246.05 242.232 251.096 242.298 251.096 242.376Z" fill="#FAFAFA"/>
<path d="M250.754 245.13C250.754 245.208 246.02 245.274 240.188 245.274C234.356 245.274 229.622 245.208 229.622 245.13C229.622 245.052 234.35 244.986 240.188 244.986C246.026 244.986 250.754 245.052 250.754 245.13Z" fill="#FAFAFA"/>
<path d="M232.622 235.062C232.7 235.062 232.766 236.647 232.766 238.597C232.766 240.547 232.7 242.13 232.622 242.13C232.544 242.13 232.478 240.553 232.478 238.597C232.478 236.641 232.544 235.062 232.622 235.062Z" fill="#FAFAFA"/>
<path d="M240.836 235.062C240.914 235.062 240.98 236.7 240.98 238.716C240.98 240.732 240.914 242.371 240.836 242.371C240.758 242.371 240.692 240.732 240.692 238.716C240.692 236.7 240.758 235.062 240.836 235.062Z" fill="#FAFAFA"/>
<path d="M248.552 235.002C248.63 235.002 248.696 236.67 248.696 238.734C248.696 240.798 248.63 242.466 248.552 242.466C248.474 242.466 248.408 240.798 248.408 238.734C248.408 236.67 248.474 235.002 248.552 235.002Z" fill="#FAFAFA"/>
<path d="M253.094 235.063C253.094 235.141 247.172 235.207 239.87 235.207C232.568 235.207 226.646 235.141 226.646 235.063C226.646 234.985 232.562 234.919 239.87 234.919C247.178 234.919 253.094 234.985 253.094 235.063Z" fill="#FAFAFA"/>
<path d="M90.9317 19.6318V80.3698H3.69771L0.553711 20.0578L90.9317 19.6318Z" fill="#E0E0E0"/>
<path d="M0.55957 20.0513L0.55957 80.2373H87.7936V20.0513L0.55957 20.0513Z" fill="white"/>
<path d="M88.2076 80.6575H0.139648V19.6436H88.2017V80.6575H88.2076ZM0.967649 79.8296H87.3736V20.4716H0.967649V79.8296Z" fill="#E0E0E0"/>
<path d="M78.3439 27.5342H10.0039V72.7622H78.3439V27.5342Z" fill="white"/>
<path d="M78.3439 27.5341C78.3439 27.5341 78.2239 27.5401 78.0079 27.5461C77.7739 27.5461 77.4559 27.5521 77.0359 27.5581C76.1719 27.5581 74.9119 27.5701 73.2799 27.5821C69.9979 27.5941 65.2219 27.6121 59.1979 27.6361C47.1439 27.6601 30.0859 27.6961 10.0039 27.7321L10.2019 27.5341C10.2019 41.3521 10.2139 56.6641 10.2199 72.7561L10.0039 72.5461C35.7859 72.5641 59.5519 72.5761 78.3439 72.5881L78.1699 72.7621C78.2059 58.9981 78.2359 47.7121 78.2599 39.8521C78.2779 35.9221 78.2959 32.8561 78.3019 30.7501C78.3079 29.7121 78.3139 28.9141 78.3199 28.3561C78.3259 27.8161 78.3379 27.5281 78.3379 27.5281C78.3379 27.5281 78.3499 27.7921 78.3559 28.3201C78.3559 28.8661 78.3679 29.6521 78.3739 30.6781C78.3859 32.7721 78.3979 35.8261 78.4159 39.7381C78.4399 47.6221 78.4699 58.9441 78.5059 72.7561V72.9301H78.3319C59.5399 72.9421 35.7739 72.9601 9.99188 72.9721H9.77588V72.7561C9.78188 56.6581 9.78788 41.3461 9.79388 27.5281V27.3301H9.99188C30.1279 27.3721 47.2339 27.4021 59.3179 27.4261C65.3239 27.4501 70.0819 27.4681 73.3579 27.4801C74.9719 27.4921 76.2139 27.4981 77.0719 27.5041C77.4799 27.5041 77.7979 27.5101 78.0199 27.5161C78.2299 27.5161 78.3319 27.5281 78.3319 27.5281L78.3439 27.5341Z" fill="#E0E0E0"/>
<path d="M0.553857 19.8898C0.589857 19.8418 1.15986 20.2198 2.05386 20.8618C2.94786 21.5038 4.15986 22.4218 5.47386 23.4718C6.78786 24.5218 7.93986 25.5178 8.75586 26.2618C9.56586 27.0058 10.0459 27.4978 10.0039 27.5398C9.91986 27.6298 7.82586 25.9018 5.20386 23.8078C2.58186 21.7198 0.475857 19.9918 0.553857 19.8898Z" fill="#E0E0E0"/>
<path d="M87.7936 20.0583C87.8656 20.1543 85.8136 21.9003 83.2036 23.9643C80.5936 26.0283 78.4216 27.6303 78.3436 27.5343C78.2716 27.4383 80.3236 25.6923 82.9336 23.6283C85.5436 21.5643 87.7156 19.9683 87.7936 20.0583Z" fill="#E0E0E0"/>
<path d="M87.7216 80.2502C84.4816 77.6222 81.2356 74.9942 77.9956 72.3662L87.7216 80.2502Z" fill="white"/>
<path d="M77.9954 72.3657C78.0734 72.2757 80.3114 73.9617 82.9934 76.1397C85.6814 78.3177 87.7934 80.1537 87.7214 80.2497C87.6494 80.3397 85.4114 78.6538 82.7234 76.4758C80.0354 74.2978 77.9234 72.4617 77.9954 72.3657Z" fill="#E0E0E0"/>
<path d="M0.553612 80.2438C0.481612 80.1478 2.51561 78.4198 5.09561 76.3798C7.67561 74.3398 9.82961 72.7558 9.90761 72.8518C9.97961 72.9478 7.94561 74.6758 5.36561 76.7218C2.78561 78.7618 0.631612 80.3458 0.553612 80.2498V80.2438Z" fill="#E0E0E0"/>
<path d="M23.8818 41.6285V56.7725H66.8838V41.6285H23.8818Z" fill="#E0E0E0"/>
<path d="M261.302 253.038C261.302 253.122 203.498 253.194 132.206 253.194C60.9141 253.194 3.09814 253.122 3.09814 253.038C3.09814 252.954 60.8901 252.882 132.206 252.882C203.522 252.882 261.302 252.954 261.302 253.038Z" fill="#263238"/>
<path d="M34.8136 241.41C34.8136 241.41 33.2836 249.576 46.7596 250.212C60.2356 250.848 87.9796 251.478 87.9796 251.478L86.2336 233.88L43.0396 230.868L36.1336 235.944L34.8136 241.41Z" fill="#E0E0E0"/>
<path d="M52.2196 0.114258H180.83C186.128 0.114258 190.43 4.41626 190.43 9.71426V243.552C190.43 248.85 186.128 253.152 180.83 253.152H52.2196C46.9216 253.152 42.6196 248.85 42.6196 243.552V9.72026C42.6196 4.42226 46.9216 0.120259 52.2196 0.120259V0.114258Z" fill="#263238"/>
<path d="M50.7617 11.7178H182.288V243.546H53.8877C52.1597 243.546 50.7617 242.142 50.7617 240.42V11.7178Z" fill="white"/>
<path d="M129.446 6.19203H101.318C100.388 6.19203 99.6377 5.44203 99.6377 4.51203C99.6377 3.58203 100.388 2.83203 101.318 2.83203H129.446C130.376 2.83203 131.126 3.58203 131.126 4.51203C131.126 5.44203 130.376 6.19203 129.446 6.19203Z" fill="#455A64"/>
<path d="M68.6959 36.4863V38.1363H68.5579C68.4559 37.7043 68.2639 37.3743 67.9819 37.1463C67.6999 36.9183 67.3819 36.8043 67.0279 36.8043C66.7279 36.8043 66.4579 36.8883 66.2059 37.0623C65.9599 37.2363 65.7739 37.4583 65.6599 37.7343C65.5099 38.0883 65.4379 38.4843 65.4379 38.9163C65.4379 39.3483 65.4919 39.7323 65.5999 40.0803C65.7079 40.4283 65.8759 40.6983 66.1039 40.8723C66.3319 41.0523 66.6319 41.1423 66.9979 41.1423C67.2979 41.1423 67.5739 41.0763 67.8199 40.9443C68.0719 40.8123 68.3299 40.5843 68.6119 40.2663V40.6803C68.3419 40.9563 68.0659 41.1603 67.7779 41.2863C67.4899 41.4123 67.1479 41.4723 66.7639 41.4723C66.2539 41.4723 65.8039 41.3703 65.4079 41.1663C65.0119 40.9623 64.7059 40.6683 64.4959 40.2903C64.2859 39.9123 64.1719 39.5043 64.1719 39.0723C64.1719 38.6163 64.2919 38.1843 64.5259 37.7763C64.7599 37.3683 65.0839 37.0503 65.4919 36.8283C65.8939 36.6003 66.3259 36.4923 66.7819 36.4923C67.1179 36.4923 67.4719 36.5643 67.8439 36.7083C68.0599 36.7923 68.1979 36.8343 68.2579 36.8343C68.3299 36.8343 68.3959 36.8043 68.4559 36.7503C68.5159 36.6963 68.5459 36.6063 68.5639 36.4863H68.7019H68.6959Z" fill="#263238"/>
<path d="M70.6758 36.5938V38.4958C70.8558 38.3038 71.0237 38.1718 71.1737 38.0938C71.3237 38.0158 71.4798 37.9738 71.6418 37.9738C71.8458 37.9738 72.0257 38.0338 72.1697 38.1478C72.3137 38.2678 72.4157 38.3997 72.4637 38.5617C72.5117 38.7237 72.5357 38.9878 72.5357 39.3598V40.6438C72.5357 40.8958 72.5597 41.0517 72.6077 41.1117C72.6557 41.1717 72.7517 41.2138 72.8897 41.2318V41.3578H71.2217V41.2318C71.3417 41.2138 71.4257 41.1658 71.4857 41.0938C71.5277 41.0338 71.5517 40.8838 71.5517 40.6498V39.1858C71.5517 38.9158 71.5397 38.7418 71.5217 38.6758C71.4977 38.6038 71.4677 38.5498 71.4137 38.5138C71.3657 38.4778 71.3057 38.4537 71.2457 38.4537C71.1497 38.4537 71.0597 38.4838 70.9697 38.5498C70.8797 38.6158 70.7837 38.7298 70.6817 38.8918V40.6558C70.6817 40.8898 70.6997 41.0338 70.7357 41.0938C70.7777 41.1718 70.8737 41.2198 71.0117 41.2438V41.3697H69.3438V41.2438C69.4818 41.2318 69.5777 41.1837 69.6377 41.1117C69.6797 41.0577 69.6977 40.9078 69.6977 40.6558V37.3138C69.6977 37.0678 69.6737 36.9118 69.6317 36.8518C69.5837 36.7918 69.4878 36.7498 69.3438 36.7318V36.5998H70.6817L70.6758 36.5938Z" fill="#263238"/>
<path d="M75.152 40.8785C74.75 41.2325 74.39 41.4065 74.072 41.4065C73.886 41.4065 73.73 41.3465 73.604 41.2205C73.478 41.0945 73.418 40.9445 73.418 40.7585C73.418 40.5065 73.526 40.2845 73.742 40.0805C73.958 39.8825 74.426 39.6125 75.152 39.2825V38.9525C75.152 38.7065 75.14 38.5505 75.11 38.4845C75.086 38.4185 75.032 38.3645 74.96 38.3165C74.888 38.2685 74.798 38.2445 74.708 38.2445C74.558 38.2445 74.432 38.2805 74.33 38.3465C74.27 38.3885 74.24 38.4365 74.24 38.4965C74.24 38.5445 74.27 38.6045 74.336 38.6765C74.426 38.7785 74.468 38.8745 74.468 38.9705C74.468 39.0845 74.426 39.1805 74.342 39.2645C74.258 39.3425 74.144 39.3845 74.006 39.3845C73.856 39.3845 73.736 39.3425 73.634 39.2525C73.532 39.1625 73.484 39.0605 73.484 38.9405C73.484 38.7725 73.55 38.6105 73.682 38.4545C73.814 38.2985 74 38.1845 74.24 38.1005C74.48 38.0165 74.726 37.9805 74.984 37.9805C75.296 37.9805 75.542 38.0465 75.722 38.1785C75.902 38.3105 76.022 38.4545 76.076 38.6105C76.106 38.7065 76.124 38.9345 76.124 39.2885V40.5665C76.124 40.7165 76.124 40.8125 76.142 40.8485C76.154 40.8845 76.172 40.9145 76.196 40.9325C76.22 40.9505 76.244 40.9625 76.274 40.9625C76.334 40.9625 76.4 40.9205 76.46 40.8305L76.568 40.9145C76.448 41.0885 76.328 41.2145 76.202 41.2925C76.076 41.3705 75.932 41.4125 75.776 41.4125C75.59 41.4125 75.44 41.3705 75.338 41.2805C75.23 41.1905 75.17 41.0585 75.146 40.8845L75.152 40.8785ZM75.152 40.6205V39.5225C74.87 39.6905 74.66 39.8645 74.522 40.0565C74.432 40.1825 74.384 40.3085 74.384 40.4405C74.384 40.5485 74.42 40.6445 74.498 40.7225C74.558 40.7885 74.636 40.8185 74.744 40.8185C74.864 40.8185 74.996 40.7525 75.152 40.6205Z" fill="#263238"/>
<path d="M78.2119 41.0278V42.2518C78.2119 42.4198 78.2239 42.5338 78.2539 42.5938C78.2779 42.6538 78.3199 42.7018 78.3799 42.7258C78.4339 42.7558 78.5479 42.7678 78.7099 42.7678V42.8998H76.8379V42.7678C76.9819 42.7678 77.0899 42.7198 77.1619 42.6418C77.2099 42.5878 77.2339 42.4498 77.2339 42.2218V38.7538C77.2339 38.5198 77.2099 38.3758 77.1559 38.3098C77.1019 38.2438 76.9999 38.2078 76.8439 38.2018V38.0698H78.2239V38.5018C78.3379 38.3338 78.4579 38.2138 78.5779 38.1358C78.7519 38.0278 78.9379 37.9678 79.1359 37.9678C79.3759 37.9678 79.5979 38.0458 79.7959 38.1958C79.9939 38.3458 80.1439 38.5558 80.2459 38.8258C80.3479 39.0958 80.4019 39.3838 80.4019 39.6898C80.4019 40.0198 80.3479 40.3258 80.2399 40.6018C80.1319 40.8778 79.9759 41.0878 79.7779 41.2318C79.5739 41.3758 79.3519 41.4478 79.0999 41.4478C78.9199 41.4478 78.7519 41.4058 78.5959 41.3278C78.4759 41.2678 78.3559 41.1598 78.2239 41.0158L78.2119 41.0278ZM78.2119 40.6738C78.4159 40.9618 78.6319 41.0998 78.8599 41.0998C78.9859 41.0998 79.0879 41.0338 79.1719 40.9018C79.2919 40.7038 79.3519 40.3318 79.3519 39.7738C79.3519 39.2158 79.2859 38.8198 79.1539 38.6098C79.0639 38.4718 78.9439 38.3998 78.7939 38.3998C78.5599 38.3998 78.3619 38.5738 78.2119 38.9158V40.6678V40.6738Z" fill="#263238"/>
<path d="M82.2498 36.8704V38.0704H83.0298V38.4184H82.2498V40.4464C82.2498 40.6384 82.2558 40.7584 82.2738 40.8124C82.2918 40.8664 82.3218 40.9144 82.3698 40.9444C82.4118 40.9804 82.4538 40.9984 82.4898 40.9984C82.6398 40.9984 82.7838 40.8844 82.9218 40.6504L83.0298 40.7284C82.8378 41.1784 82.5318 41.4004 82.1058 41.4004C81.8958 41.4004 81.7219 41.3404 81.5779 41.2264C81.4339 41.1124 81.3438 40.9804 81.3018 40.8364C81.2778 40.7584 81.2658 40.5424 81.2658 40.1884V38.4124H80.8398V38.2864C81.1338 38.0764 81.3858 37.8604 81.5958 37.6264C81.8058 37.3924 81.9859 37.1404 82.1419 36.8584H82.2558L82.2498 36.8704Z" fill="#263238"/>
<path d="M86.1259 39.6006H84.3199C84.3439 40.0386 84.4579 40.3806 84.6679 40.6326C84.8299 40.8246 85.0219 40.9266 85.2499 40.9266C85.3879 40.9266 85.5199 40.8846 85.6339 40.8066C85.7479 40.7286 85.8739 40.5846 86.0059 40.3806L86.1259 40.4586C85.9459 40.8246 85.7539 41.0766 85.5379 41.2326C85.3219 41.3826 85.0699 41.4606 84.7879 41.4606C84.3019 41.4606 83.9299 41.2746 83.6779 40.8966C83.4739 40.5966 83.3779 40.2186 83.3779 39.7686C83.3779 39.2226 83.5279 38.7846 83.8219 38.4606C84.1159 38.1366 84.4639 37.9746 84.8659 37.9746C85.1959 37.9746 85.4899 38.1126 85.7299 38.3826C85.9699 38.6526 86.1079 39.0606 86.1259 39.5946V39.6006ZM85.2619 39.3666C85.2619 38.9886 85.2439 38.7306 85.2019 38.5926C85.1599 38.4546 85.0999 38.3466 85.0099 38.2746C84.9619 38.2326 84.8959 38.2086 84.8119 38.2086C84.6919 38.2086 84.5899 38.2686 84.5119 38.3886C84.3739 38.5986 84.3019 38.8806 84.3019 39.2466V39.3726H85.2559L85.2619 39.3666Z" fill="#263238"/>
<path d="M87.9018 38.0766V38.8206C88.1178 38.4786 88.3098 38.2566 88.4778 38.1426C88.6398 38.0286 88.8018 37.9746 88.9518 37.9746C89.0838 37.9746 89.1858 38.0166 89.2638 38.0946C89.3418 38.1726 89.3838 38.2926 89.3838 38.4366C89.3838 38.5926 89.3478 38.7126 89.2698 38.8026C89.1918 38.8866 89.1018 38.9346 88.9938 38.9346C88.8678 38.9346 88.7598 38.8926 88.6698 38.8146C88.5798 38.7366 88.5258 38.6886 88.5078 38.6826C88.4838 38.6706 88.4598 38.6586 88.4298 38.6586C88.3638 38.6586 88.2978 38.6826 88.2378 38.7366C88.1418 38.8146 88.0698 38.9286 88.0218 39.0786C87.9498 39.3066 87.9078 39.5586 87.9078 39.8286V40.7826C87.9078 40.9146 87.9198 41.0046 87.9378 41.0406C87.9678 41.1066 88.0098 41.1486 88.0638 41.1786C88.1178 41.2086 88.2138 41.2266 88.3458 41.2326V41.3586H86.5698V41.2326C86.7138 41.2206 86.8098 41.1786 86.8578 41.1126C86.9058 41.0466 86.9358 40.8666 86.9358 40.5846V38.7666C86.9358 38.5806 86.9238 38.4606 86.9058 38.4066C86.8818 38.3406 86.8458 38.2926 86.8038 38.2626C86.7618 38.2326 86.6778 38.2086 86.5698 38.1966V38.0646H87.9138L87.9018 38.0766Z" fill="#263238"/>
<path d="M93.5058 36.4982V40.3982C93.5058 40.6922 93.5178 40.8782 93.5418 40.9562C93.5658 41.0342 93.6198 41.1062 93.7038 41.1542C93.7878 41.2082 93.9198 41.2322 94.0998 41.2322H94.2078V41.3642H91.6998V41.2322H91.8258C92.0298 41.2322 92.1738 41.2082 92.2638 41.1602C92.3478 41.1122 92.4078 41.0462 92.4378 40.9682C92.4678 40.8842 92.4858 40.6922 92.4858 40.3922V37.9202C92.4858 37.6982 92.4738 37.5602 92.4558 37.5062C92.4318 37.4522 92.3958 37.4042 92.3358 37.3682C92.2758 37.3322 92.2098 37.3082 92.1378 37.3082C92.0178 37.3082 91.8738 37.3442 91.6998 37.4222L91.6338 37.2962L93.3858 36.4922H93.4998L93.5058 36.4982Z" fill="#263238"/>
<path d="M74.954 67.3447V71.2027H74.576C74.354 70.3147 74.102 69.6727 73.832 69.2827C73.556 68.8927 73.184 68.5867 72.71 68.3527C72.446 68.2267 71.978 68.1607 71.312 68.1607H70.25V79.1527C70.25 79.8787 70.292 80.3347 70.37 80.5207C70.448 80.7007 70.61 80.8627 70.844 81.0007C71.078 81.1387 71.402 81.2047 71.804 81.2047H72.278V81.5947H64.814V81.2047H65.288C65.702 81.2047 66.032 81.1327 66.284 80.9827C66.464 80.8867 66.608 80.7187 66.716 80.4787C66.794 80.3107 66.83 79.8667 66.83 79.1527V68.1607H65.798C64.838 68.1607 64.142 68.3647 63.704 68.7727C63.092 69.3427 62.708 70.1467 62.546 71.2027H62.144V67.3447H74.948H74.954Z" fill="#263238"/>
<path d="M167.059 51.5037C167.059 51.5877 161.665 51.6597 155.011 51.6597C148.357 51.6597 142.963 51.5877 142.963 51.5037C142.963 51.4197 148.357 51.3477 155.011 51.3477C161.665 51.3477 167.059 51.4197 167.059 51.5037Z" fill="#263238"/>
<path d="M166.784 70.2429C166.784 70.3269 147.122 70.3989 122.87 70.3989C98.6182 70.3989 78.9502 70.3269 78.9502 70.2429C78.9502 70.1589 98.6122 70.0869 122.87 70.0869C147.128 70.0869 166.784 70.1589 166.784 70.2429Z" fill="#263238"/>
<path d="M166.784 76.2791C166.784 76.3631 147.122 76.435 122.87 76.435C98.6182 76.435 78.9502 76.3631 78.9502 76.2791C78.9502 76.1951 98.6122 76.123 122.87 76.123C147.128 76.123 166.784 76.1951 166.784 76.2791Z" fill="#263238"/>
<path d="M166.784 82.321C166.784 82.405 147.122 82.477 122.87 82.477C98.6182 82.477 78.9502 82.405 78.9502 82.321C78.9502 82.237 98.6122 82.165 122.87 82.165C147.128 82.165 166.784 82.237 166.784 82.321Z" fill="#263238"/>
<path d="M166.784 88.363C166.784 88.447 143.186 88.519 114.08 88.519C84.9741 88.519 61.3701 88.447 61.3701 88.363C61.3701 88.279 84.9621 88.207 114.08 88.207C143.198 88.207 166.784 88.279 166.784 88.363Z" fill="#263238"/>
<path d="M166.784 94.405C166.784 94.489 143.186 94.561 114.08 94.561C84.9741 94.561 61.3701 94.489 61.3701 94.405C61.3701 94.321 84.9621 94.249 114.08 94.249C143.198 94.249 166.784 94.321 166.784 94.405Z" fill="#263238"/>
<path d="M120.734 100.447C120.734 100.531 107.444 100.603 91.0521 100.603C74.6601 100.603 61.3701 100.531 61.3701 100.447C61.3701 100.363 74.6541 100.291 91.0521 100.291C107.45 100.291 120.734 100.363 120.734 100.447Z" fill="#263238"/>
<path d="M166.784 106.483C166.784 106.567 143.186 106.639 114.08 106.639C84.9741 106.639 61.3701 106.567 61.3701 106.483C61.3701 106.399 84.9621 106.327 114.08 106.327C143.198 106.327 166.784 106.399 166.784 106.483Z" fill="#263238"/>
<path d="M166.784 112.525C166.784 112.609 143.186 112.681 114.08 112.681C84.9741 112.681 61.3701 112.609 61.3701 112.525C61.3701 112.441 84.9621 112.369 114.08 112.369C143.198 112.369 166.784 112.441 166.784 112.525Z" fill="#263238"/>
<path d="M166.784 118.567C166.784 118.651 143.186 118.723 114.08 118.723C84.9741 118.723 61.3701 118.651 61.3701 118.567C61.3701 118.483 84.9621 118.411 114.08 118.411C143.198 118.411 166.784 118.483 166.784 118.567Z" fill="#263238"/>
<path d="M166.784 124.609C166.784 124.693 143.186 124.765 114.08 124.765C84.9741 124.765 61.3701 124.693 61.3701 124.609C61.3701 124.525 84.9621 124.453 114.08 124.453C143.198 124.453 166.784 124.525 166.784 124.609Z" fill="#263238"/>
<path d="M166.784 130.645C166.784 130.729 143.186 130.801 114.08 130.801C84.9741 130.801 61.3701 130.729 61.3701 130.645C61.3701 130.561 84.9621 130.489 114.08 130.489C143.198 130.489 166.784 130.561 166.784 130.645Z" fill="#263238"/>
<path d="M78.9565 136.687C78.9565 136.771 75.0205 136.843 70.1665 136.843C65.3125 136.843 61.3765 136.771 61.3765 136.687C61.3765 136.603 65.3125 136.531 70.1665 136.531C75.0205 136.531 78.9565 136.603 78.9565 136.687Z" fill="#263238"/>
<path d="M166.784 142.728C166.784 142.812 143.186 142.884 114.08 142.884C84.9741 142.884 61.3701 142.812 61.3701 142.728C61.3701 142.644 84.9621 142.572 114.08 142.572C143.198 142.572 166.784 142.644 166.784 142.728Z" fill="#263238"/>
<path d="M166.784 148.771C166.784 148.855 143.186 148.927 114.08 148.927C84.9741 148.927 61.3701 148.855 61.3701 148.771C61.3701 148.687 84.9621 148.615 114.08 148.615C143.198 148.615 166.784 148.687 166.784 148.771Z" fill="#263238"/>
<path d="M166.784 154.807C166.784 154.891 143.186 154.963 114.08 154.963C84.9741 154.963 61.3701 154.891 61.3701 154.807C61.3701 154.723 84.9621 154.651 114.08 154.651C143.198 154.651 166.784 154.723 166.784 154.807Z" fill="#263238"/>
<path d="M142.292 160.848C142.292 160.932 124.178 161.004 101.834 161.004C79.4901 161.004 61.3701 160.932 61.3701 160.848C61.3701 160.764 79.4841 160.692 101.834 160.692C124.184 160.692 142.292 160.764 142.292 160.848Z" fill="#263238"/>
<path d="M166.784 166.89C166.784 166.974 143.186 167.046 114.08 167.046C84.9741 167.046 61.3701 166.974 61.3701 166.89C61.3701 166.806 84.9621 166.734 114.08 166.734C143.198 166.734 166.784 166.806 166.784 166.89Z" fill="#263238"/>
<path d="M166.784 172.933C166.784 173.017 143.186 173.089 114.08 173.089C84.9741 173.089 61.3701 173.017 61.3701 172.933C61.3701 172.849 84.9621 172.777 114.08 172.777C143.198 172.777 166.784 172.849 166.784 172.933Z" fill="#263238"/>
<path d="M152.594 178.974C152.594 179.058 132.17 179.13 106.982 179.13C81.7941 179.13 61.3701 179.058 61.3701 178.974C61.3701 178.89 81.7881 178.818 106.982 178.818C132.176 178.818 152.594 178.89 152.594 178.974Z" fill="#263238"/>
<path d="M166.784 185.011C166.784 185.095 143.186 185.167 114.08 185.167C84.9741 185.167 61.3701 185.095 61.3701 185.011C61.3701 184.927 84.9621 184.855 114.08 184.855C143.198 184.855 166.784 184.927 166.784 185.011Z" fill="#263238"/>
<path d="M166.784 197.094C166.784 197.178 143.186 197.25 114.08 197.25C84.9741 197.25 61.3701 197.178 61.3701 197.094C61.3701 197.01 84.9621 196.938 114.08 196.938C143.198 196.938 166.784 197.01 166.784 197.094Z" fill="#263238"/>
<path d="M166.784 203.137C166.784 203.221 143.186 203.293 114.08 203.293C84.9741 203.293 61.3701 203.221 61.3701 203.137C61.3701 203.053 84.9621 202.981 114.08 202.981C143.198 202.981 166.784 203.053 166.784 203.137Z" fill="#263238"/>
<path d="M166.784 209.173C166.784 209.257 143.186 209.329 114.08 209.329C84.9741 209.329 61.3701 209.257 61.3701 209.173C61.3701 209.089 84.9621 209.017 114.08 209.017C143.198 209.017 166.784 209.089 166.784 209.173Z" fill="#263238"/>
<path d="M117.38 226.999L117.044 227.917H114.23V227.785C115.058 227.029 115.64 226.411 115.976 225.937C116.312 225.457 116.48 225.019 116.48 224.623C116.48 224.323 116.39 224.071 116.204 223.879C116.018 223.687 115.796 223.585 115.538 223.585C115.304 223.585 115.094 223.651 114.908 223.789C114.722 223.927 114.584 224.125 114.494 224.389H114.362C114.422 223.957 114.572 223.621 114.812 223.393C115.052 223.159 115.358 223.045 115.718 223.045C116.102 223.045 116.426 223.171 116.684 223.417C116.942 223.663 117.074 223.957 117.074 224.293C117.074 224.533 117.02 224.773 116.906 225.019C116.732 225.397 116.45 225.799 116.06 226.225C115.478 226.861 115.112 227.245 114.968 227.377H116.21C116.462 227.377 116.642 227.365 116.744 227.347C116.846 227.329 116.936 227.293 117.02 227.233C117.104 227.173 117.176 227.095 117.236 226.987H117.368L117.38 226.999Z" fill="#263238"/>
<path d="M117.938 225.559C117.938 225.013 118.022 224.545 118.184 224.155C118.346 223.765 118.568 223.471 118.838 223.279C119.048 223.129 119.264 223.051 119.492 223.051C119.858 223.051 120.188 223.237 120.476 223.609C120.842 224.071 121.022 224.695 121.022 225.487C121.022 226.039 120.944 226.513 120.782 226.897C120.62 227.281 120.422 227.563 120.17 227.737C119.918 227.911 119.684 228.001 119.456 228.001C119 228.001 118.622 227.731 118.322 227.197C118.064 226.747 117.938 226.201 117.938 225.565V225.559ZM118.628 225.649C118.628 226.303 118.706 226.843 118.868 227.257C119 227.605 119.198 227.779 119.468 227.779C119.594 227.779 119.726 227.725 119.864 227.611C120.002 227.497 120.104 227.305 120.176 227.041C120.284 226.639 120.338 226.069 120.338 225.337C120.338 224.791 120.284 224.341 120.17 223.975C120.086 223.705 119.978 223.513 119.846 223.405C119.75 223.327 119.636 223.291 119.498 223.291C119.336 223.291 119.198 223.363 119.072 223.507C118.904 223.699 118.79 224.005 118.73 224.425C118.67 224.845 118.64 225.253 118.64 225.661L118.628 225.649Z" fill="#263238"/>
<path d="M51.8055 242.959C47.3415 235.345 37.9035 235.261 34.8135 241.411V17.1731C34.8135 13.0271 37.8075 9.37911 41.9175 8.85111C44.5395 8.51511 46.9275 9.52311 50.9775 11.8631L51.8055 242.959Z" fill="white"/>
<path d="M51.8058 242.959C51.7998 241.309 51.3738 141.145 50.8218 11.8628L50.8998 11.9948C49.6758 11.2928 48.4218 10.5848 47.0958 9.99077C45.7758 9.40277 44.3598 8.93477 42.8898 8.94077C41.4258 8.95277 39.9498 9.37877 38.7078 10.1948C37.4598 10.9988 36.4518 12.1808 35.7978 13.5248C35.4678 14.2328 35.2278 14.9888 35.0898 15.7568C34.9518 16.5248 34.9698 17.3108 34.9698 18.1088C34.9698 19.6988 34.9698 21.2828 34.9698 22.8668C34.9698 26.0288 34.9698 29.1788 34.9698 32.3108C34.9698 38.5748 34.9698 44.7728 34.9698 50.8988C34.9698 63.1508 34.9698 75.1028 34.9698 86.7008C34.9638 109.891 34.9578 131.629 34.9518 151.369C34.9218 190.843 34.8978 222.325 34.8858 241.411L34.7658 241.381C35.5278 239.857 36.7338 238.681 38.0658 237.979C39.3978 237.265 40.8138 236.995 42.1098 236.977C42.7638 236.941 43.3818 237.055 43.9758 237.127C44.2698 237.181 44.5518 237.271 44.8278 237.337C45.1098 237.403 45.3798 237.475 45.6258 237.589C46.1358 237.787 46.6278 237.973 47.0478 238.237C47.2638 238.357 47.4738 238.471 47.6838 238.585C47.8818 238.711 48.0618 238.855 48.2418 238.981C48.6018 239.239 48.9438 239.479 49.2138 239.755C49.4958 240.025 49.7718 240.259 49.9998 240.505C50.4198 241.027 50.8218 241.429 51.0618 241.807C51.5358 242.539 51.7458 242.863 51.8058 242.953C51.7458 242.863 51.5298 242.545 51.0378 241.831C50.7858 241.453 50.3898 241.051 49.9638 240.541C49.7358 240.301 49.4538 240.067 49.1718 239.803C48.9018 239.527 48.5598 239.287 48.1998 239.035C48.0198 238.909 47.8398 238.771 47.6418 238.645C47.4378 238.531 47.2278 238.417 47.0118 238.303C46.5918 238.045 46.1058 237.865 45.5958 237.667C45.3498 237.553 45.0798 237.487 44.7978 237.421C44.5218 237.355 44.2398 237.271 43.9518 237.217C43.3638 237.145 42.7458 237.037 42.1038 237.079C40.8198 237.097 39.4218 237.373 38.1078 238.081C36.7998 238.783 35.6178 239.941 34.8678 241.447L34.7478 241.687V241.423C34.7358 222.331 34.7118 190.855 34.6818 151.381C34.6818 131.641 34.6698 109.903 34.6638 86.7128C34.6638 75.1208 34.6638 63.1628 34.6638 50.9108C34.6638 44.7848 34.6638 38.5868 34.6638 32.3228C34.6638 29.1908 34.6638 26.0408 34.6638 22.8788C34.6638 21.2948 34.6638 19.7108 34.6638 18.1208C34.6638 17.3348 34.6458 16.5188 34.7898 15.7148C34.9338 14.9168 35.1798 14.1368 35.5218 13.3988C36.1998 12.0008 37.2438 10.7768 38.5458 9.94277C39.8358 9.09077 41.3718 8.65277 42.8958 8.63477C44.4318 8.63477 45.8898 9.12077 47.2278 9.71477C48.5718 10.3148 49.8318 11.0288 51.0618 11.7308L51.1398 11.7728V11.8628C51.5178 141.145 51.8058 241.309 51.8118 242.959H51.8058Z" fill="#263238"/>
<path d="M173.246 136.987C173.156 136.987 173.066 136.945 173.006 136.867C172.904 136.735 172.934 136.549 173.066 136.447L176.474 133.861L173.09 131.713C172.952 131.623 172.91 131.437 173 131.299C173.09 131.161 173.276 131.119 173.414 131.209L177.164 133.585C177.248 133.639 177.302 133.729 177.302 133.825C177.302 133.921 177.26 134.017 177.182 134.077L173.432 136.921C173.378 136.963 173.312 136.981 173.252 136.981L173.246 136.987Z" fill="#E0E0E0"/>
<g opacity="0.3">
<path d="M148.921 11.7188V39.3908C148.921 39.9667 149.617 40.2548 150.025 39.8468L156.691 33.1808C156.943 32.9288 157.357 32.9288 157.609 33.1808L164.275 39.8468C164.683 40.2548 165.379 39.9667 165.379 39.3908V11.7188H148.921Z" fill="black"/>
</g>
<path d="M147.518 11.7178V36.8338C147.518 37.4098 148.214 37.6978 148.622 37.2898L155.288 30.6238C155.54 30.3718 155.954 30.3718 156.206 30.6238L162.872 37.2898C163.28 37.6978 163.976 37.4098 163.976 36.8338V11.7178H147.518Z" fill="#FF725E"/>
<path d="M201.632 50.0101C201.752 47.8801 203.066 46.5661 204.902 45.4741C206.738 44.3821 209.12 44.2741 211.052 45.1981C212.342 45.8101 213.47 46.8601 214.886 47.0461C217.22 47.3461 219.428 45.1861 221.72 45.7261C223.076 46.0441 224.108 47.4001 224.054 48.7921C224 50.1841 222.872 51.4561 221.498 51.6781C223.028 51.9001 223.892 53.8321 223.328 55.2721C222.764 56.7061 221.162 57.5401 219.614 57.5761C218.072 57.6121 216.584 56.9821 215.252 56.2021C213.914 55.4281 212.672 54.4921 211.28 53.8261C209.888 53.1601 208.286 52.7701 206.792 53.1661C204.77 53.7061 203.342 55.6081 202.814 57.6361C202.286 59.6581 202.514 61.7941 202.826 63.8641C203.138 65.9281 203.54 68.0161 203.342 70.0981C203.318 70.3441 203.264 70.6201 203.048 70.7401C202.736 70.9141 202.382 70.6201 202.154 70.3501C199.574 67.2901 197.6 63.7201 196.388 59.9041C195.686 57.6901 195.296 55.5301 196.142 53.3641C196.988 51.1981 199.838 49.1401 201.632 50.0161" fill="#263238"/>
<path d="M199.664 60.3176L203.078 81.3896C203.714 85.3256 206.27 89.1236 212.45 87.8336C217.724 86.3096 217.334 82.5176 216.644 77.8376C216.644 77.8376 222.446 76.3316 221.924 70.4276C221.672 67.5776 220.676 61.7456 219.716 56.4836C218.684 50.8316 213.476 46.9256 207.758 47.4956L207.188 47.5556C201.092 48.5276 198.518 54.2516 199.658 60.3116L199.664 60.3176Z" fill="#FFBF9D"/>
<path d="M216.644 77.8377C216.644 77.8377 212.954 78.4317 208.748 76.3438C208.748 76.3438 211.064 80.7237 216.884 79.6017L216.644 77.8377Z" fill="#FF9A6C"/>
<path d="M218.557 62.3868C218.617 62.8308 218.293 63.2448 217.831 63.3168C217.369 63.3888 216.949 63.0888 216.889 62.6448C216.829 62.2008 217.153 61.7868 217.615 61.7148C218.077 61.6428 218.497 61.9428 218.557 62.3868Z" fill="#263238"/>
<path d="M218.737 59.501C218.641 59.621 217.957 59.213 217.051 59.309C216.145 59.387 215.527 59.921 215.419 59.819C215.365 59.777 215.455 59.567 215.719 59.327C215.983 59.087 216.445 58.835 217.015 58.781C217.579 58.727 218.077 58.889 218.371 59.075C218.671 59.261 218.785 59.447 218.737 59.501Z" fill="#263238"/>
<path d="M210.572 63.1963C210.632 63.6403 210.308 64.0543 209.846 64.1263C209.384 64.1983 208.964 63.8983 208.904 63.4543C208.844 63.0103 209.168 62.5963 209.63 62.5243C210.092 62.4523 210.512 62.7523 210.572 63.1963Z" fill="#263238"/>
<path d="M209.857 60.5684C209.761 60.6884 209.077 60.2804 208.171 60.3764C207.265 60.4544 206.647 60.9884 206.539 60.8864C206.485 60.8444 206.569 60.6344 206.839 60.3944C207.103 60.1544 207.565 59.9024 208.129 59.8484C208.693 59.7944 209.191 59.9564 209.485 60.1424C209.785 60.3284 209.899 60.5144 209.851 60.5684H209.857Z" fill="#263238"/>
<path d="M213.818 66.9532C213.806 66.8992 214.364 66.7492 215.264 66.5392C215.492 66.4912 215.708 66.4252 215.732 66.2632C215.768 66.0892 215.648 65.8492 215.51 65.5912C215.234 65.0512 214.952 64.4872 214.652 63.8992C213.452 61.4872 212.558 59.4952 212.654 59.4472C212.75 59.3992 213.806 61.3132 215.006 63.7252C215.294 64.3192 215.576 64.8892 215.84 65.4292C215.954 65.6812 216.134 65.9632 216.05 66.3232C216.008 66.5032 215.846 66.6472 215.702 66.7012C215.558 66.7612 215.426 66.7792 215.312 66.7972C214.4 66.9412 213.83 67.0012 213.824 66.9472L213.818 66.9532Z" fill="#263238"/>
<path d="M209.732 56.9932C209.666 57.2512 208.754 57.2212 207.704 57.4552C206.648 57.6712 205.826 58.0672 205.664 57.8572C205.592 57.7552 205.718 57.5092 206.036 57.2392C206.354 56.9692 206.882 56.6872 207.512 56.5492C208.142 56.4172 208.736 56.4592 209.138 56.5792C209.546 56.6992 209.762 56.8732 209.732 56.9932Z" fill="#263238"/>
<path d="M218.144 56.9154C218.006 57.1374 217.358 56.9874 216.608 57.0534C215.852 57.0954 215.24 57.3294 215.072 57.1314C215 57.0354 215.072 56.8194 215.336 56.5974C215.588 56.3754 216.032 56.1714 216.548 56.1354C217.064 56.0994 217.532 56.2434 217.814 56.4234C218.102 56.6094 218.21 56.8134 218.15 56.9154H218.144Z" fill="#263238"/>
<path d="M200.582 64.6328C200.48 64.5968 196.412 63.8408 196.946 67.8548C197.48 71.8688 201.398 70.5068 201.392 70.3868C201.386 70.2728 200.582 64.6269 200.582 64.6269V64.6328Z" fill="#FFBF9D"/>
<path d="M199.964 69.0304C199.964 69.0304 199.898 69.0904 199.79 69.1564C199.682 69.2224 199.49 69.2884 199.268 69.2344C198.824 69.1324 198.374 68.5084 198.26 67.7884C198.2 67.4224 198.23 67.0684 198.32 66.7624C198.404 66.4504 198.566 66.2224 198.776 66.1564C198.98 66.0784 199.148 66.1864 199.214 66.2944C199.28 66.4024 199.268 66.4804 199.292 66.4864C199.304 66.4924 199.37 66.4084 199.316 66.2464C199.286 66.1684 199.232 66.0784 199.124 66.0184C199.016 65.9524 198.872 65.9344 198.722 65.9704C198.416 66.0304 198.176 66.3544 198.074 66.6904C197.954 67.0264 197.912 67.4344 197.978 67.8424C198.11 68.6464 198.626 69.3484 199.226 69.4384C199.52 69.4744 199.742 69.3604 199.85 69.2464C199.964 69.1324 199.97 69.0364 199.958 69.0304H199.964Z" fill="#FF9A6C"/>
<path d="M219.236 50.9942C218.594 49.8902 217.568 49.0562 216.476 48.3962C214.124 46.9682 211.334 46.2062 208.592 46.4402C205.85 46.6742 203.174 47.9342 201.38 50.0282C199.946 51.7022 199.118 53.8442 198.854 56.0342C198.59 58.2242 198.866 60.4502 199.472 62.5742C199.736 63.5042 200.096 64.4642 200.828 65.0882C201.29 65.4782 202.028 65.6942 202.466 65.2802C202.724 65.0342 202.79 64.6562 202.844 64.3022C203.306 61.1162 203.738 57.6962 202.298 54.8162C202.964 53.7362 203.768 52.7102 204.818 51.9902C205.862 51.2702 207.182 50.8682 208.43 51.1202C210.284 51.4922 211.562 53.1302 213.116 54.1982C215.336 55.7282 218.318 56.0942 220.844 55.1402L219.236 50.9942Z" fill="#263238"/>
<path d="M214.616 69.3964C214.55 69.7744 214.484 70.1584 214.316 70.5004C214.148 70.8424 213.86 71.1484 213.488 71.2444C213.092 71.3464 212.66 71.1904 212.366 70.9084C212.072 70.6204 211.91 70.2244 211.844 69.8224C211.784 69.4564 211.862 68.9944 212.21 68.8744C212.354 68.8264 212.516 68.8504 212.666 68.8744C213.35 69.0004 214.034 69.1204 214.712 69.2464" fill="#FF9A6C"/>
<path d="M214.184 71.1058C214.16 71.0458 213.782 71.3038 213.152 71.1898C212.846 71.1358 212.492 70.9738 212.246 70.6558C212 70.3438 211.868 69.8758 211.964 69.4258C211.982 69.3118 212.024 69.2038 212.072 69.1078C212.132 69.0118 212.12 69.0178 212.204 69.0178C212.288 69.0178 212.42 69.0538 212.534 69.0718C212.648 69.0898 212.762 69.1138 212.87 69.1318C213.308 69.2098 213.704 69.2758 214.04 69.3298C214.706 69.4318 215.126 69.4738 215.132 69.4258C215.144 69.3778 214.742 69.2578 214.088 69.0898C213.758 69.0058 213.368 68.9158 212.936 68.8198C212.828 68.7958 212.714 68.7718 212.6 68.7478C212.48 68.7238 212.384 68.6938 212.228 68.6758C212.15 68.6758 212.042 68.6758 211.952 68.7418C211.862 68.8018 211.814 68.8858 211.778 68.9518C211.718 69.0838 211.664 69.2158 211.64 69.3538C211.526 69.9178 211.7 70.4758 212.012 70.8538C212.336 71.2378 212.78 71.3998 213.134 71.4298C213.494 71.4658 213.782 71.3758 213.956 71.2918C214.136 71.2018 214.208 71.1178 214.196 71.1058H214.184Z" fill="#263238"/>
<path d="M223.064 46.5414C223.064 46.5414 223.1 46.6314 223.142 46.8054C223.172 46.9854 223.214 47.2494 223.166 47.5974C223.1 48.2754 222.704 49.2894 221.708 50.0634C220.718 50.8494 219.158 51.1614 217.55 50.9154C215.918 50.6934 214.292 49.9074 212.588 49.2054C210.89 48.5034 209.138 48.0294 207.572 48.3174C206.006 48.5814 204.794 49.4814 203.99 50.3634C203.18 51.2574 202.724 52.1394 202.46 52.7574C202.202 53.3814 202.112 53.7534 202.088 53.7414C202.082 53.7414 202.094 53.6454 202.136 53.4714C202.172 53.2914 202.25 53.0394 202.364 52.7154C202.604 52.0794 203.036 51.1614 203.852 50.2314C204.65 49.3134 205.892 48.3594 207.53 48.0714C209.168 47.7594 210.98 48.2454 212.69 48.9534C214.406 49.6614 216.008 50.4354 217.592 50.6634C219.152 50.9154 220.652 50.6274 221.606 49.9014C222.572 49.1814 222.98 48.2214 223.076 47.5674C223.178 46.9014 223.034 46.5294 223.076 46.5234L223.064 46.5414Z" fill="#455A64"/>
<path d="M196.7 58.7701C196.7 58.7701 196.67 58.3321 196.856 57.6601C197.03 56.9881 197.414 56.0821 198.074 55.2421C198.398 54.8221 198.764 54.4621 199.118 54.1681C199.472 53.8741 199.856 53.6581 200.222 53.5921C200.582 53.5261 200.882 53.5921 201.062 53.6881C201.242 53.7841 201.308 53.8741 201.296 53.8861C201.284 53.9281 200.912 53.6101 200.264 53.7781C199.634 53.9401 198.926 54.6181 198.284 55.4101C197.648 56.2201 197.252 57.0781 197.036 57.7201C196.814 58.3621 196.748 58.7821 196.7 58.7761V58.7701Z" fill="#455A64"/>
<path d="M197.762 62.2438C197.762 62.2438 197.768 61.8058 197.99 61.1398C198.206 60.4738 198.638 59.5918 199.328 58.7638C200.018 57.9418 200.816 57.3538 201.428 57.0238C202.046 56.6878 202.466 56.5798 202.478 56.6038C202.496 56.6458 202.1 56.8198 201.524 57.1858C200.948 57.5518 200.198 58.1338 199.532 58.9318C198.866 59.7298 198.422 60.5698 198.164 61.2058C197.906 61.8418 197.804 62.2558 197.762 62.2438Z" fill="#455A64"/>
<path d="M233.45 227.413L242.642 239.497L247.154 251.155C247.478 251.995 248.45 252.385 249.266 252.001C249.722 251.785 250.046 251.371 250.136 250.873C250.706 247.711 252.752 236.083 252.032 235.231C251.198 234.253 243.182 221.839 243.182 221.839L233.45 227.407V227.413Z" fill="#455A64"/>
<g opacity="0.6">
<path d="M249.266 252.001L251.426 234.403L251.804 234.925C252.128 235.375 252.29 235.927 252.248 236.479C252.134 237.961 251.726 242.053 250.172 250.843C250.082 251.353 249.74 251.791 249.266 251.995V252.001Z" fill="white"/>
</g>
<g opacity="0.6">
<path d="M246.032 232.267C245.876 232.705 246.116 233.245 246.548 233.413C246.98 233.587 247.526 233.347 247.688 232.915C247.85 232.483 247.586 231.823 247.136 231.703C246.692 231.583 246.062 231.895 246.008 232.351" fill="white"/>
</g>
<path d="M248.18 244.591C248.138 244.675 247.394 244.231 246.41 244.417C245.42 244.573 244.868 245.239 244.796 245.173C244.766 245.149 244.85 244.945 245.108 244.693C245.36 244.447 245.81 244.183 246.35 244.087C246.896 243.997 247.4 244.087 247.724 244.243C248.048 244.393 248.204 244.561 248.18 244.591Z" fill="#263238"/>
<path d="M248.498 246.871C248.48 246.967 247.796 246.853 247.028 247.135C246.254 247.399 245.792 247.915 245.714 247.849C245.636 247.813 246.038 247.123 246.914 246.817C247.79 246.505 248.534 246.793 248.498 246.871Z" fill="#263238"/>
<path d="M248.282 241.303C248.264 241.405 247.214 241.225 245.984 241.555C244.748 241.867 243.914 242.533 243.854 242.455C243.788 242.401 244.574 241.573 245.9 241.237C247.22 240.889 248.318 241.237 248.282 241.309V241.303Z" fill="#263238"/>
<path d="M245.792 237.391C245.81 237.487 244.928 237.697 244.022 238.303C243.104 238.897 242.57 239.635 242.486 239.575C242.408 239.539 242.852 238.669 243.836 238.027C244.814 237.373 245.786 237.307 245.792 237.391Z" fill="#263238"/>
<path d="M243.188 233.78C243.2 233.876 242.222 233.966 241.322 234.686C240.404 235.388 240.08 236.312 239.99 236.276C239.954 236.264 239.972 236.012 240.14 235.646C240.302 235.28 240.632 234.806 241.118 234.422C241.61 234.038 242.144 233.839 242.54 233.767C242.936 233.695 243.188 233.738 243.188 233.78Z" fill="#263238"/>
<path d="M240.842 233.977C240.842 233.977 240.68 233.845 240.488 233.527C240.302 233.209 240.068 232.711 239.972 232.039C239.942 231.715 239.864 231.319 240.092 230.911C240.206 230.707 240.482 230.551 240.746 230.611C241.004 230.665 241.196 230.833 241.34 231.025C241.892 231.817 241.772 233.053 240.974 233.803C240.164 234.541 239 234.613 238.16 234.193C237.956 234.073 237.752 233.899 237.692 233.623C237.632 233.347 237.824 233.083 238.022 232.981C238.424 232.771 238.808 232.813 239.138 232.813C239.81 232.849 240.332 233.017 240.668 233.161C241.01 233.305 241.172 233.431 241.166 233.449C241.148 233.515 240.416 233.071 239.132 233.053C238.82 233.059 238.442 233.053 238.166 233.221C238.028 233.299 237.956 233.431 237.986 233.569C238.01 233.701 238.148 233.839 238.316 233.929C239.012 234.265 240.074 234.193 240.752 233.563C241.43 232.939 241.538 231.847 241.094 231.211C240.986 231.061 240.836 230.935 240.692 230.905C240.548 230.875 240.41 230.935 240.332 231.067C240.164 231.337 240.188 231.709 240.212 232.021C240.35 233.299 240.908 233.959 240.848 233.989L240.842 233.977Z" fill="#263238"/>
<path d="M224.798 233.197L223.01 245.443C223.01 245.443 234.944 250.477 234.836 252.775L210.878 251.053L212.882 231.853L224.804 233.191L224.798 233.197Z" fill="#455A64"/>
<g opacity="0.6">
<path d="M215.738 243.601C215.264 243.679 214.886 244.159 214.94 244.639C214.994 245.119 215.486 245.503 215.96 245.437C216.434 245.371 216.908 244.801 216.8 244.333C216.692 243.865 216.092 243.439 215.642 243.619" fill="white"/>
</g>
<g opacity="0.6">
<path d="M210.872 251.058L211.076 249.12L234.152 251.586C234.152 251.586 234.896 251.982 234.938 252.96L210.872 251.058Z" fill="white"/>
</g>
<path d="M223.406 245.364C223.388 245.478 222.8 245.472 222.188 245.784C221.564 246.078 221.216 246.552 221.114 246.492C221.012 246.456 221.258 245.778 222.008 245.412C222.758 245.04 223.442 245.256 223.406 245.364Z" fill="#263238"/>
<path d="M225.8 246.678C225.812 246.792 225.29 246.936 224.84 247.386C224.378 247.824 224.216 248.346 224.102 248.328C223.988 248.334 223.982 247.644 224.552 247.092C225.116 246.54 225.806 246.564 225.8 246.678Z" fill="#263238"/>
<path d="M226.892 249.828C226.784 249.84 226.688 249.24 227.054 248.634C227.42 248.028 227.996 247.836 228.032 247.938C228.086 248.04 227.696 248.346 227.402 248.844C227.096 249.336 227.006 249.828 226.892 249.828Z" fill="#263238"/>
<path d="M223.508 242.533C223.448 242.635 222.932 242.413 222.266 242.389C221.6 242.347 221.066 242.515 221.018 242.407C220.958 242.317 221.51 241.939 222.29 241.981C223.07 242.017 223.58 242.449 223.508 242.533Z" fill="#263238"/>
<g opacity="0.3">
<path d="M224.438 235.62L224.126 237.804L212.402 236.412L212.606 234.438L224.438 235.62Z" fill="black"/>
</g>
<path d="M223.82 240.055C223.82 240.103 223.346 240.127 222.626 239.917C222.266 239.815 221.846 239.647 221.42 239.395C221.204 239.269 220.988 239.125 220.772 238.957C220.67 238.873 220.55 238.789 220.442 238.639C220.328 238.501 220.286 238.183 220.454 238.015C220.598 237.847 220.82 237.787 220.994 237.805C221.168 237.817 221.312 237.871 221.438 237.919C221.696 238.015 221.936 238.129 222.152 238.255C222.584 238.513 222.926 238.813 223.178 239.101C223.676 239.677 223.82 240.133 223.772 240.151C223.718 240.181 223.484 239.791 222.968 239.305C222.71 239.065 222.374 238.807 221.966 238.585C221.762 238.477 221.54 238.381 221.3 238.297C221.054 238.201 220.838 238.177 220.76 238.285C220.73 238.327 220.724 238.339 220.772 238.423C220.82 238.495 220.916 238.573 221.012 238.657C221.21 238.819 221.408 238.963 221.606 239.089C222.002 239.341 222.38 239.527 222.716 239.659C223.376 239.923 223.826 240.007 223.814 240.067L223.82 240.055Z" fill="#263238"/>
<path d="M223.652 240.205C223.61 240.217 223.424 239.773 223.466 239.017C223.49 238.639 223.574 238.189 223.772 237.727C223.874 237.493 224 237.259 224.156 237.037C224.324 236.815 224.528 236.521 224.984 236.515C225.224 236.533 225.398 236.737 225.446 236.905C225.506 237.073 225.506 237.217 225.518 237.355C225.53 237.637 225.494 237.913 225.428 238.159C225.296 238.657 225.044 239.059 224.78 239.341C224.246 239.911 223.742 239.995 223.736 239.953C223.706 239.893 224.132 239.707 224.558 239.155C224.768 238.879 224.966 238.513 225.062 238.075C225.11 237.859 225.134 237.619 225.116 237.379C225.104 237.121 225.032 236.905 224.936 236.923C224.816 236.911 224.594 237.079 224.474 237.271C224.33 237.469 224.204 237.679 224.108 237.889C223.91 238.303 223.802 238.711 223.748 239.059C223.64 239.755 223.718 240.205 223.652 240.217V240.205Z" fill="#263238"/>
<path d="M232.274 131.262C232.274 131.262 237.926 142.104 237.926 150.876C237.926 152.73 226.454 244.752 226.454 244.752L210.218 243.39L218.09 158.364L215.54 141.084L232.268 131.262H232.274Z" fill="#263238"/>
<path d="M196.124 140.868C196.124 140.868 199.916 172.554 201.698 184.764C203.564 197.544 207.224 199.962 207.224 199.962L239.57 240.876L250.202 231.45L222.35 189.594C222.35 189.594 216.446 139.632 216.692 140.868C216.932 142.104 196.13 140.868 196.13 140.868H196.124Z" fill="#263238"/>
<path d="M207.8 200.484C207.8 200.484 207.884 200.628 208.076 200.874C208.286 201.144 208.562 201.504 208.91 201.954C209.66 202.92 210.71 204.264 211.994 205.92C214.586 209.316 218.138 213.96 222.056 219.09C225.98 224.244 229.55 228.888 232.196 232.206C233.516 233.868 234.602 235.2 235.364 236.106C235.73 236.538 236.024 236.886 236.246 237.15C236.45 237.384 236.564 237.504 236.57 237.498C236.576 237.492 236.486 237.354 236.294 237.108C236.084 236.838 235.808 236.478 235.46 236.028C234.71 235.062 233.66 233.718 232.376 232.062C229.784 228.666 226.232 224.022 222.314 218.892C218.396 213.744 214.82 209.094 212.174 205.776C210.854 204.114 209.768 202.782 209.006 201.876C208.64 201.444 208.346 201.096 208.124 200.832C207.92 200.598 207.806 200.478 207.8 200.484Z" fill="#455A64"/>
<path d="M218.804 159.42C218.804 159.42 218.804 159.468 218.804 159.564C218.816 159.678 218.822 159.816 218.84 159.984C218.882 160.38 218.936 160.92 219.002 161.604C219.158 163.032 219.38 165.06 219.65 167.55C220.232 172.59 221.03 179.508 221.912 187.152C222.014 187.992 222.11 188.826 222.2 189.606V189.642L222.224 189.672C226.178 195.606 229.694 200.886 232.244 204.714C233.51 206.592 234.536 208.116 235.262 209.19C235.61 209.694 235.886 210.096 236.09 210.39C236.18 210.516 236.252 210.612 236.312 210.696C236.366 210.762 236.39 210.798 236.396 210.798C236.396 210.798 236.378 210.756 236.336 210.684C236.282 210.594 236.216 210.492 236.138 210.36C235.946 210.06 235.688 209.646 235.352 209.13C234.644 208.044 233.648 206.508 232.412 204.606C229.886 200.766 226.394 195.462 222.47 189.51L222.494 189.576C222.404 188.796 222.302 187.962 222.206 187.122C221.288 179.484 220.46 172.566 219.86 167.526C219.548 165.042 219.296 163.02 219.116 161.592C219.026 160.914 218.948 160.374 218.9 159.978C218.876 159.81 218.852 159.672 218.834 159.558C218.816 159.462 218.804 159.414 218.804 159.414V159.42Z" fill="#455A64"/>
<g opacity="0.3">
<path d="M197.582 152.868C197.582 152.868 210.158 156.186 218.798 154.812C230.984 152.868 237.65 147.3 237.65 147.3L236.564 143.82L197.078 148.776L197.582 152.874V152.868Z" fill="black"/>
</g>
<path d="M217.37 80.8799L226.988 83.6399C226.988 83.6399 232.652 124.008 234.062 129.9C235.826 137.292 237.812 143.118 237.638 145.176C237.638 145.176 233.258 150.978 220.37 152.496C207.482 154.014 195.2 150.408 195.2 150.408L194.144 126.186C194.144 126.186 188.198 104.502 188.066 100.884C187.748 91.9979 189.908 86.8139 189.908 86.8139L202.748 81.0599C206.318 85.0559 215.492 86.3699 217.37 80.8799Z" fill="#FF725E"/>
<path d="M235.202 91.0437C232.574 85.1637 226.994 83.6396 226.994 83.6396L227.816 103.932L233.12 110.568L227.816 114.168L236.732 125.73C236.732 125.73 245.264 121.722 245.648 118.122C246.026 114.522 236.63 94.2237 235.214 91.0437H235.202Z" fill="#FF725E"/>
<path d="M210.752 113.424L208.58 120.972C216.074 129.858 236.726 125.73 236.726 125.73L228.512 114.132C224.252 115.518 210.758 113.424 210.758 113.424H210.752Z" fill="#FF725E"/>
<path d="M208.922 112.326C208.922 112.326 205.07 104.736 204.656 104.646C204.242 104.556 198.182 102.426 198.182 102.426C198.182 102.426 197.858 103.26 198.182 103.95L196.01 104.226C196.01 104.226 196.334 105.57 197.072 105.75L196.286 106.446C196.286 106.446 196.934 107.334 197.768 107.7C198.602 108.066 199.202 107.7 199.202 107.7C199.202 107.7 198.926 108.204 200.174 108.99C201.422 109.776 203.942 113.418 203.942 113.418L208.928 112.32L208.922 112.326Z" fill="#FFBF9D"/>
<path d="M198.374 103.974C198.344 104.058 200.12 104.754 202.34 105.516C202.892 105.714 203.444 105.864 203.876 106.074C204.314 106.278 204.59 106.62 204.782 106.938C205.142 107.592 205.28 108.066 205.334 108.042C205.364 108.03 205.316 107.55 204.986 106.824C204.818 106.47 204.506 106.05 204.014 105.804C203.534 105.558 203 105.408 202.448 105.21C200.228 104.442 198.404 103.89 198.374 103.98V103.974Z" fill="#FF9A6C"/>
<path d="M196.964 105.756C196.952 105.798 197.36 105.978 198.062 106.152C198.758 106.338 199.736 106.494 200.774 106.776C201.812 107.058 202.682 107.496 203.228 107.928C203.78 108.354 204.026 108.732 204.068 108.702C204.098 108.69 203.918 108.252 203.378 107.754C202.844 107.25 201.932 106.746 200.858 106.458C199.79 106.17 198.806 106.05 198.11 105.924C197.408 105.804 196.982 105.708 196.964 105.756Z" fill="#FF9A6C"/>
<path d="M202.514 108.954C202.574 108.894 201.998 108.3 201.062 107.97C200.126 107.634 199.304 107.724 199.316 107.814C199.316 107.91 200.078 107.964 200.954 108.282C201.83 108.588 202.454 109.032 202.52 108.954H202.514Z" fill="#FF9A6C"/>
<path d="M193.436 86.9153C196.178 87.5873 196.988 90.8093 198.884 97.2533C200.78 103.697 202.862 110.333 202.862 110.333L203.936 113.423L227.816 107.657L232.646 115.307C232.646 115.307 217.112 127.643 205.952 128.135C200.516 127.631 196.97 125.591 192.536 118.259C190.028 114.113 188.39 110.273 187.646 106.535C186.608 101.321 184.868 96.2213 186.326 91.2893C187.472 87.4133 189.512 85.9493 193.43 86.9093L193.436 86.9153Z" fill="#FF725E"/>
<path d="M228.488 102.18C228.578 102.162 228.35 100.722 227.978 98.9636C227.606 97.2056 227.234 95.7956 227.15 95.8136C227.06 95.8316 227.288 97.2716 227.66 99.0296C228.032 100.788 228.404 102.198 228.488 102.18Z" fill="#263238"/>
<g opacity="0.3">
<path d="M211.622 127.098C212.846 126.582 214.634 126.048 215.948 125.844C217.544 125.604 218.876 126.072 220.466 126.324C225.212 127.068 228.752 126.504 233.228 126.306L233.468 127.68C231.5 129.216 229.022 129.702 226.526 129.66C224.258 129.618 222.038 128.88 219.77 128.946C217.982 128.994 216.254 129.54 214.526 130.002C211.64 130.77 208.622 131.238 205.67 130.794C198.248 129.678 195.386 123.84 194.15 121.122C194.588 121.83 195.638 123.336 196.202 123.93C200.924 128.844 207.704 128.754 211.622 127.104V127.098Z" fill="black"/>
</g>
<path d="M233.474 115.375C233.474 115.375 233.438 115.411 233.36 115.477C233.264 115.549 233.15 115.639 233.012 115.747C232.7 115.987 232.238 116.323 231.632 116.749C230.426 117.607 228.65 118.807 226.394 120.199C224.138 121.585 221.396 123.163 218.228 124.657C217.436 125.029 216.62 125.413 215.768 125.749C215.342 125.923 214.916 126.097 214.478 126.277C214.04 126.439 213.59 126.589 213.14 126.751C211.346 127.411 209.408 127.867 207.398 128.173C206.378 128.221 205.376 128.359 204.38 128.251C203.39 128.131 202.418 127.945 201.524 127.573C199.706 126.901 198.194 125.755 196.91 124.561C194.372 122.095 192.746 119.323 191.54 116.971C190.352 114.601 189.602 112.579 189.128 111.175C188.894 110.473 188.732 109.921 188.624 109.543C188.582 109.369 188.546 109.225 188.516 109.111C188.492 109.015 188.486 108.961 188.492 108.961C188.498 108.961 188.516 109.009 188.546 109.105C188.582 109.219 188.63 109.357 188.684 109.525C188.804 109.897 188.99 110.437 189.242 111.133C189.752 112.519 190.526 114.517 191.732 116.869C192.95 119.197 194.594 121.933 197.102 124.351C198.374 125.521 199.862 126.637 201.632 127.285C202.502 127.645 203.45 127.825 204.41 127.939C205.376 128.047 206.366 127.909 207.362 127.861C209.342 127.561 211.256 127.111 213.044 126.457C213.494 126.301 213.938 126.145 214.376 125.995C214.808 125.821 215.234 125.647 215.66 125.473C216.512 125.143 217.322 124.765 218.114 124.399C221.276 122.923 224.018 121.369 226.286 120.013C228.554 118.651 230.342 117.481 231.572 116.653C232.166 116.251 232.64 115.933 232.982 115.699C233.132 115.597 233.252 115.519 233.348 115.453C233.432 115.399 233.474 115.375 233.48 115.375H233.474Z" fill="#263238"/>
<path d="M198.248 94.3869C198.248 94.3869 198.266 94.5249 198.332 94.7769C198.41 95.0529 198.506 95.4189 198.632 95.8749C198.914 96.8589 199.31 98.2329 199.796 99.9309C200.816 103.387 202.22 108.139 203.792 113.467L203.834 113.605L203.99 113.563C204.548 113.425 205.214 113.287 205.85 113.149C211.736 111.889 217.046 110.659 220.862 109.651C222.77 109.153 224.306 108.709 225.362 108.391C225.866 108.229 226.268 108.097 226.574 108.001C226.85 107.911 226.994 107.857 226.988 107.845C226.988 107.833 226.838 107.869 226.556 107.941C226.25 108.025 225.842 108.139 225.332 108.277C224.264 108.559 222.728 108.973 220.814 109.441C216.986 110.395 211.676 111.589 205.79 112.849C205.136 112.993 204.524 113.113 203.888 113.281L204.086 113.377C202.478 108.055 201.044 103.315 200 99.8649C199.478 98.1849 199.052 96.8169 198.746 95.8389C198.602 95.3889 198.482 95.0289 198.392 94.7529C198.308 94.5069 198.26 94.3809 198.248 94.3809V94.3869Z" fill="#263238"/>
<path d="M234.632 113.52L244.886 113.334C245.834 113.37 246.71 112.716 247.1 111.69L253.088 93.5225C253.538 92.1605 252.53 91.0505 250.91 90.9545L238.358 90.2465C236.342 90.2285 235.268 90.8765 234.92 92.0285L231.002 106.344C230.006 109.656 231.656 113.412 234.62 113.52H234.632Z" fill="#263238"/>
<path d="M227.342 106.596L228.98 103.128L232.004 102.276L231.038 105.474C232.094 105.984 233.492 106.32 234.41 105.816C235.322 105.312 238.904 101.754 239.576 102.096C240.248 102.438 240.854 103.254 240.236 104.034C239.618 104.814 236.264 107.238 236.96 107.952C237.656 108.666 241.52 105.528 242.654 105.762C243.794 105.996 244.484 106.656 243.848 107.136C243.224 107.616 241.658 109.182 241.382 109.86C241.448 110.712 241.856 111.924 241.484 112.134C240.938 112.446 239.03 113.1 238.64 113.118C238.436 113.13 236.996 113.694 235.67 114.228C234.176 114.828 232.52 114.87 231.002 114.336L230.228 114.066C229.022 113.646 228.224 112.5 228.236 111.228L228.26 108.666L227.336 106.596H227.342Z" fill="#FFBF9D"/>
</svg>
