<svg width="48" height="48" viewBox="0 0 48 48" fill="none" xmlns="http://www.w3.org/2000/svg">
<rect x="0.06" y="0.06" width="47.88" height="47.88" rx="23.94" fill="url(#paint0_linear_104_3163)"/>
<rect x="0.06" y="0.06" width="47.88" height="47.88" rx="23.94" stroke="#CACACA" stroke-width="0.12"/>
<path d="M30.0363 22.9027C30.0363 24.0966 29.6823 25.2637 29.019 26.2564C28.3557 27.2491 27.4129 28.0228 26.3098 28.4797C25.2068 28.9366 23.993 29.0562 22.8221 28.8233C21.6511 28.5903 20.5755 28.0154 19.7312 27.1712C18.887 26.3269 18.3121 25.2513 18.0792 24.0803C17.8462 22.9094 17.9658 21.6956 18.4227 20.5926C18.8796 19.4895 19.6533 18.5467 20.646 17.8834C21.6387 17.2201 22.8058 16.8661 23.9997 16.8661C25.6002 16.8679 27.1346 17.5045 28.2662 18.6362C29.3979 19.7678 30.0345 21.3022 30.0363 22.9027ZM38.268 24.0002C38.268 26.8222 37.4312 29.5809 35.8634 31.9273C34.2956 34.2737 32.0672 36.1025 29.46 37.1824C26.8528 38.2623 23.9839 38.5449 21.2161 37.9944C18.4484 37.4438 15.906 36.0849 13.9105 34.0894C11.9151 32.094 10.5562 29.5516 10.0056 26.7838C9.45507 24.0161 9.73763 21.1472 10.8176 18.54C11.8975 15.9328 13.7263 13.7044 16.0727 12.1366C18.4191 10.5688 21.1777 9.73193 23.9997 9.73193C27.7827 9.73593 31.4096 11.2405 34.0845 13.9154C36.7595 16.5904 38.264 20.2173 38.268 24.0002ZM36.0729 24.0002C36.0712 22.3752 35.7417 20.7672 35.1042 19.2724C34.4668 17.7776 33.5344 16.4268 32.3629 15.3006C31.1914 14.1744 29.8048 13.2961 28.286 12.7181C26.7672 12.1401 25.1475 11.8743 23.5237 11.9367C17.0618 12.1864 11.9087 17.5685 11.9266 24.0345C11.9328 26.9781 13.0184 29.8171 14.9778 32.0138C15.7758 30.8564 16.7894 29.8638 17.9632 29.0902C18.0632 29.0241 18.1822 28.9926 18.3019 29.0005C18.4216 29.0084 18.5353 29.0553 18.6258 29.1341C20.1174 30.4242 22.0235 31.1342 23.9956 31.1342C25.9677 31.1342 27.8739 30.4242 29.3654 29.1341C29.4559 29.0553 29.5697 29.0084 29.6894 29.0005C29.809 28.9926 29.928 29.0241 30.0281 29.0902C31.2034 29.8633 32.2184 30.856 33.0176 32.0138C34.9867 29.8091 36.0744 26.9562 36.0729 24.0002Z" fill="white"/>
<defs>
<linearGradient id="paint0_linear_104_3163" x1="24" y1="0" x2="24" y2="48" gradientUnits="userSpaceOnUse">
<stop stop-color="#EBF2FF"/>
<stop offset="1" stop-color="#93C5FD"/>
</linearGradient>
</defs>
</svg>
