<svg width="40" height="40" viewBox="0 0 40 40" fill="none" xmlns="http://www.w3.org/2000/svg">
<g clip-path="url(#clip0_8252_52899)">
<rect width="40" height="40" rx="4" fill="#FFF9F4"/>
<g clip-path="url(#clip1_8252_52899)">
<path d="M26.24 12.8008H13.76C13.364 12.8008 13.04 13.1248 13.04 13.5208C13.04 13.9168 13.364 14.2408 13.76 14.2408H26.24C26.636 14.2408 26.96 13.9168 26.96 13.5208C26.96 13.1248 26.636 12.8008 26.24 12.8008Z" fill="#F6B97B"/>
<path d="M26.24 17.1211H13.76C13.364 17.1211 13.04 17.4451 13.04 17.8411C13.04 18.2371 13.364 18.5611 13.76 18.5611H26.24C26.636 18.5611 26.96 18.2371 26.96 17.8411C26.96 17.4451 26.636 17.1211 26.24 17.1211Z" fill="#F6B97B"/>
<path d="M26.24 21.4414H13.76C13.364 21.4414 13.04 21.7654 13.04 22.1614C13.04 22.5574 13.364 22.8814 13.76 22.8814H26.24C26.636 22.8814 26.96 22.5574 26.96 22.1614C26.96 21.7654 26.636 21.4414 26.24 21.4414Z" fill="#F6B97B"/>
<path d="M20 25.7617H13.76C13.364 25.7617 13.04 26.0857 13.04 26.4817C13.04 26.8777 13.364 27.2017 13.76 27.2017H20C20.396 27.2017 20.72 26.8777 20.72 26.4817C20.72 26.0857 20.396 25.7617 20 25.7617Z" fill="#F6B97B"/>
<path d="M23.8401 27.2017C24.2378 27.2017 24.5601 26.8794 24.5601 26.4817C24.5601 26.0841 24.2378 25.7617 23.8401 25.7617C23.4425 25.7617 23.1201 26.0841 23.1201 26.4817C23.1201 26.8794 23.4425 27.2017 23.8401 27.2017Z" fill="#F6B97B"/>
</g>
<path d="M7.77539 4.50586C7.36523 4.50586 6.99805 4.58008 6.67383 4.72852C6.35352 4.87695 6.08203 5.0918 5.85938 5.37305C5.63672 5.65039 5.4668 5.98828 5.34961 6.38672C5.23242 6.78125 5.17383 7.22656 5.17383 7.72266C5.17383 8.38672 5.26758 8.95898 5.45508 9.43945C5.64258 9.91602 5.92773 10.2832 6.31055 10.541C6.69336 10.7949 7.17773 10.9219 7.76367 10.9219C8.12695 10.9219 8.48047 10.8867 8.82422 10.8164C9.16797 10.7461 9.52344 10.6504 9.89062 10.5293V11.7246C9.54297 11.8613 9.19141 11.9609 8.83594 12.0234C8.48047 12.0859 8.07031 12.1172 7.60547 12.1172C6.73047 12.1172 6.00391 11.9355 5.42578 11.5723C4.85156 11.209 4.42188 10.6973 4.13672 10.0371C3.85547 9.37695 3.71484 8.60352 3.71484 7.7168C3.71484 7.06836 3.80469 6.47461 3.98438 5.93555C4.16406 5.39648 4.42578 4.93164 4.76953 4.54102C5.11328 4.14648 5.53711 3.84375 6.04102 3.63281C6.54883 3.41797 7.12891 3.31055 7.78125 3.31055C8.21094 3.31055 8.63281 3.35938 9.04688 3.45703C9.46484 3.55078 9.85156 3.68555 10.207 3.86133L9.71484 5.02148C9.41797 4.88086 9.10742 4.75977 8.7832 4.6582C8.45898 4.55664 8.12305 4.50586 7.77539 4.50586Z" fill="#F6B97B"/>
</g>
<rect x="0.5" y="0.5" width="39" height="39" rx="3.5" stroke="#FDEDD7"/>
<defs>
<clipPath id="clip0_8252_52899">
<rect width="40" height="40" rx="4" fill="white"/>
</clipPath>
<clipPath id="clip1_8252_52899">
<rect width="24" height="24" fill="white" transform="translate(8 8)"/>
</clipPath>
</defs>
</svg>
