<svg width="350" height="278" viewBox="0 0 350 278" fill="none" xmlns="http://www.w3.org/2000/svg">
<g clip-path="url(#clip0_95_1454)">
<path d="M37.9352 146.393C52.1417 162.476 70.1233 168.725 78.9909 188.265C85.0697 201.66 82.2179 217.518 86.7091 231.524C92.8649 250.722 113.089 263.619 133.25 263.688C153.411 263.758 172.629 252.335 184.592 236.108C188.515 230.785 191.916 224.802 197.416 221.132C205.293 215.878 215.511 216.553 224.942 215.712C248.196 213.64 270.234 200.582 283.219 181.179C283.219 181.179 316.904 141.433 293.058 84.5709C286.127 68.0432 274.891 52.8644 259.397 43.8575C243.903 34.8499 216.942 34.6357 200.989 42.8026C184.028 51.4854 172.752 70.5163 154.161 74.6967C143.385 77.1194 132.26 73.9708 121.409 71.9114C106.187 69.0218 90.6711 67.227 75.3012 69.1786C57.2111 71.476 38.9642 80.5466 30.5257 100.94C27.5703 108.082 26.577 115.918 27.7551 123.557C28.8107 130.408 31.4805 139.086 37.9352 146.393Z" fill="#F7FAFF"/>
<path d="M177.731 28.9531C173.821 24.044 167.728 21.3644 161.636 19.8545C153.231 17.7713 144.192 17.611 136.038 20.5279C127.884 23.4448 120.733 29.6629 117.726 37.7843C114.72 45.9057 116.376 55.8345 122.615 61.8412C126.111 65.2068 131.02 67.017 135.846 67.0037C138.709 67.3089 141.632 66.9869 144.323 65.9509C150.308 63.6451 154.707 58.4112 160.447 55.5475C166.685 52.436 174.703 51.939 178.925 46.3922C182.726 41.3977 181.641 33.8622 177.731 28.9531Z" fill="#F7FAFF"/>
<path d="M65.267 202.925C64.6153 201.591 64.0091 200.24 63.6129 198.81C62.3452 194.232 63.2664 189.011 60.808 184.946C57.721 179.841 50.1169 178.909 44.9439 181.881C39.7709 184.853 36.8127 190.667 35.5513 196.498C34.7743 200.089 34.5482 203.914 35.7781 207.375C37.2089 211.401 40.4632 214.529 44.0115 216.908C47.9567 219.553 52.5641 221.494 57.3115 221.333C59.4255 221.261 61.5563 220.701 63.4365 219.718C64.9191 219.074 66.2351 218.079 67.1409 216.788C67.7989 216.009 68.354 215.143 68.76 214.188C70.4463 210.22 68.9252 204.998 65.267 202.925Z" fill="#F7FAFF"/>
<path d="M252.323 202.586H104.105C102.714 202.586 101.576 201.448 101.576 200.057V104.955C101.576 103.564 102.714 102.426 104.105 102.426H252.323C253.714 102.426 254.852 103.564 254.852 104.955V200.057C254.852 201.448 253.714 202.586 252.323 202.586Z" fill="#3B82F6"/>
<path d="M251.057 109.709H105.369V192.873H251.057V109.709Z" fill="#93C5FD"/>
<path d="M179.131 105.769C179.131 106.275 178.721 106.685 178.214 106.685C177.708 106.685 177.299 106.274 177.299 105.769C177.299 105.263 177.709 104.853 178.214 104.853C178.721 104.853 179.131 105.263 179.131 105.769Z" fill="#93C5FD"/>
<path d="M275.481 235.267L256.654 205.303C255.592 203.611 253.734 202.585 251.737 202.585H174.932H170.683H104.69C102.693 202.585 100.836 203.611 99.7736 205.303L80.9464 235.267C80.4137 236.115 80.224 237.123 80.3906 238.097H276.036C276.203 237.124 276.014 236.115 275.481 235.267Z" fill="#93C5FD"/>
<path d="M80.3906 238.098C80.4249 238.299 80.469 238.498 80.5341 238.694L80.8309 239.584C81.3811 241.234 82.9246 242.347 84.6634 242.347H170.682H174.931H271.763C273.502 242.347 275.046 241.234 275.595 239.584L275.892 238.694C275.957 238.498 276.001 238.298 276.036 238.098H80.3906Z" fill="#3B82F6"/>
<path d="M111.774 217.373L112.691 215.356H108.154L107.184 217.373H111.774Z" fill="#3B82F6"/>
<path d="M119.765 211.631L120.215 210.579L120.627 209.614H116.237L115.32 211.631H119.765Z" fill="#3B82F6"/>
<path d="M113.627 215.356L112.711 217.373H117.311L118.173 215.356H113.627Z" fill="#3B82F6"/>
<path d="M113.078 214.502L113.995 212.485H109.536L108.564 214.502H113.078Z" fill="#3B82F6"/>
<path d="M205.447 209.614L205.955 211.631H209.856L209.294 209.614H205.447Z" fill="#3B82F6"/>
<path d="M135.45 215.356L134.834 217.373H139.472L140.062 215.356H135.45Z" fill="#3B82F6"/>
<path d="M130.027 215.356L129.301 217.373H133.942L134.558 215.356H130.027Z" fill="#3B82F6"/>
<path d="M124.577 215.356L123.77 217.373H128.394L129.12 215.356H124.577Z" fill="#3B82F6"/>
<path d="M119.102 215.356L118.24 217.373H122.849L123.657 215.356H119.102Z" fill="#3B82F6"/>
<path d="M210.18 209.614L210.741 211.631H214.386L213.796 209.614H210.18Z" fill="#3B82F6"/>
<path d="M151.136 212.485L150.629 214.502H154.297L154.75 212.485H151.136Z" fill="#3B82F6"/>
<path d="M190.934 209.614L191.277 211.631H195.509L195.111 209.614H190.934Z" fill="#3B82F6"/>
<path d="M150.472 211.631L150.98 209.614H147.132L146.57 211.631H150.472Z" fill="#3B82F6"/>
<path d="M145.683 211.631L146.245 209.614H142.629L142.039 211.631H145.683Z" fill="#3B82F6"/>
<path d="M154.942 211.631L155.395 209.614H151.858L151.352 211.631H154.942Z" fill="#3B82F6"/>
<path d="M214.686 209.614L215.275 211.631H219.836L219.219 209.614H214.686Z" fill="#3B82F6"/>
<path d="M132.091 209.614L131.365 211.631H135.696L136.015 210.59L136.313 209.614H132.091Z" fill="#3B82F6"/>
<path d="M130.459 211.631L131.185 209.614H126.875L126.068 211.631H130.459Z" fill="#3B82F6"/>
<path d="M121.556 209.614L120.693 211.631H125.147L125.567 210.581L125.955 209.614H121.556Z" fill="#3B82F6"/>
<path d="M201.031 209.614L201.483 211.631H205.074L204.567 209.614H201.031Z" fill="#3B82F6"/>
<path d="M195.98 209.614L196.379 211.631H200.607L200.155 209.614H195.98Z" fill="#3B82F6"/>
<path d="M141.15 211.631L141.74 209.614H137.207L136.59 211.631H141.15Z" fill="#3B82F6"/>
<path d="M146.485 208.761L147.008 206.883H143.428L142.879 208.761H146.485Z" fill="#3B82F6"/>
<path d="M141.989 208.761L142.538 206.883H138.041L137.467 208.761H141.989Z" fill="#3B82F6"/>
<path d="M185.949 209.614L186.184 211.631H190.411L190.068 209.614H185.949Z" fill="#3B82F6"/>
<path d="M160.613 208.761L160.984 206.883H156.884L156.463 208.761H160.613Z" fill="#3B82F6"/>
<path d="M155.587 208.761L156.009 206.883H152.546L152.074 208.761H155.587Z" fill="#3B82F6"/>
<path d="M151.193 208.761L151.665 206.883H147.893L147.369 208.761H151.193Z" fill="#3B82F6"/>
<path d="M235.799 209.614L236.661 211.631H241.106L240.189 209.614H235.799Z" fill="#3B82F6"/>
<path d="M120.992 208.761L121.795 206.883H117.478L116.625 208.761H120.992Z" fill="#3B82F6"/>
<path d="M126.298 208.761L127.05 206.883H122.725L121.922 208.761H126.298Z" fill="#3B82F6"/>
<path d="M136.574 208.761L137.148 206.883H133.074L132.398 208.761H136.574Z" fill="#3B82F6"/>
<path d="M241.125 209.614L242.042 211.631H246.477L245.506 209.614H241.125Z" fill="#3B82F6"/>
<path d="M131.493 208.761L132.168 206.883H127.971L127.219 208.761H131.493Z" fill="#3B82F6"/>
<path d="M220.111 209.614L220.729 211.631H225.06L224.334 209.614H220.111Z" fill="#3B82F6"/>
<path d="M160.182 215.356L159.783 217.373H164.172L164.515 215.356H160.182Z" fill="#3B82F6"/>
<path d="M140.953 215.356L140.363 217.373H144.084L144.647 215.356H140.953Z" fill="#3B82F6"/>
<path d="M154.982 215.356L154.529 217.373H158.913L159.311 215.356H154.982Z" fill="#3B82F6"/>
<path d="M145.533 215.356L144.971 217.373H149.027L149.535 215.356H145.533Z" fill="#3B82F6"/>
<path d="M150.416 215.356L149.908 217.373H153.654L154.107 215.356H150.416Z" fill="#3B82F6"/>
<path d="M166.359 209.614L166.016 211.631H170.243L170.477 209.614H166.359Z" fill="#3B82F6"/>
<path d="M165.638 208.761L165.958 206.883H161.853L161.482 208.761H165.638Z" fill="#3B82F6"/>
<path d="M160.748 212.485L160.35 214.502H164.66L165.004 212.485H160.748Z" fill="#3B82F6"/>
<path d="M230.471 209.614L231.278 211.631H235.733L234.87 209.614H230.471Z" fill="#3B82F6"/>
<path d="M169.908 214.502L170.143 212.485H165.869L165.525 214.502H169.908Z" fill="#3B82F6"/>
<path d="M225.24 209.614L225.967 211.631H230.357L229.549 209.614H225.24Z" fill="#3B82F6"/>
<path d="M114.383 211.631L115.3 209.614H110.919L109.947 211.631H114.383Z" fill="#3B82F6"/>
<path d="M211.457 217.373L210.894 215.356H206.893L207.399 217.373H211.457Z" fill="#3B82F6"/>
<path d="M146.333 212.485L145.771 214.502H149.75L150.258 212.485H146.333Z" fill="#3B82F6"/>
<path d="M218.959 208.761L218.385 206.883H213.889L214.437 208.761H218.959Z" fill="#3B82F6"/>
<path d="M229.208 208.761L228.456 206.883H224.258L224.934 208.761H229.208Z" fill="#3B82F6"/>
<path d="M224.027 208.761L223.351 206.883H219.277L219.851 208.761H224.027Z" fill="#3B82F6"/>
<path d="M199.963 208.761L199.541 206.883H195.441L195.812 208.761H199.963Z" fill="#3B82F6"/>
<path d="M194.942 208.761L194.571 206.883H190.467L190.787 208.761H194.942Z" fill="#3B82F6"/>
<path d="M234.505 208.761L233.702 206.883H229.377L230.129 208.761H234.505Z" fill="#3B82F6"/>
<path d="M209.056 208.761L208.533 206.883H204.76L205.232 208.761H209.056Z" fill="#3B82F6"/>
<path d="M204.351 208.761L203.878 206.883H200.416L200.837 208.761H204.351Z" fill="#3B82F6"/>
<path d="M206.519 217.373L206.011 215.356H202.32L202.773 217.373H206.519Z" fill="#3B82F6"/>
<path d="M238.186 217.373L237.324 215.356H232.77L233.577 217.373H238.186Z" fill="#3B82F6"/>
<path d="M227.126 217.373L226.4 215.356H221.867L222.484 217.373H227.126Z" fill="#3B82F6"/>
<path d="M249.244 217.373L248.272 215.356H243.736L244.653 217.373H249.244Z" fill="#3B82F6"/>
<path d="M243.715 217.373L242.798 215.356H238.252L239.114 217.373H243.715Z" fill="#3B82F6"/>
<path d="M232.657 217.373L231.849 215.356H227.309L228.034 217.373H232.657Z" fill="#3B82F6"/>
<path d="M201.897 217.373L201.445 215.356H197.115L197.514 217.373H201.897Z" fill="#3B82F6"/>
<path d="M239.799 208.761L238.946 206.883H234.629L235.432 208.761H239.799Z" fill="#3B82F6"/>
<path d="M247.427 211.631H251.52L250.379 209.614H246.455L247.427 211.631Z" fill="#3B82F6"/>
<path d="M216.064 217.373L215.474 215.356H211.779L212.341 217.373H216.064Z" fill="#3B82F6"/>
<path d="M245.096 208.761L244.191 206.883H239.885L240.738 208.761H245.096Z" fill="#3B82F6"/>
<path d="M221.591 217.373L220.974 215.356H216.363L216.953 217.373H221.591Z" fill="#3B82F6"/>
<path d="M249.897 208.761L248.835 206.883H245.139L246.044 208.761H249.897Z" fill="#3B82F6"/>
<path d="M213.547 208.761L212.998 206.883H209.418L209.942 208.761H213.547Z" fill="#3B82F6"/>
<path d="M185.992 217.373L185.757 215.356H181.332L181.414 217.373H185.992Z" fill="#3B82F6"/>
<path d="M120.329 212.485L119.879 213.537L119.467 214.502H123.999L124.806 212.485H120.329Z" fill="#3B82F6"/>
<path d="M190.901 214.502L190.557 212.485H186.283L186.518 214.502H190.901Z" fill="#3B82F6"/>
<path d="M118.538 214.502L119.401 212.485H114.932L114.452 213.54L114.016 214.502H118.538Z" fill="#3B82F6"/>
<path d="M156.271 209.614L155.818 211.631H160.046L160.445 209.614H156.271Z" fill="#3B82F6"/>
<path d="M161.315 209.614L160.916 211.631H165.149L165.493 209.614H161.315Z" fill="#3B82F6"/>
<path d="M136.328 212.485L135.711 214.502H140.311L140.9 212.485H136.328Z" fill="#3B82F6"/>
<path d="M125.726 212.485L124.918 214.502H129.425L130.151 212.485H125.726Z" fill="#3B82F6"/>
<path d="M141.791 212.485L141.201 214.502H144.884L145.446 212.485H141.791Z" fill="#3B82F6"/>
<path d="M181.217 212.485L181.298 214.502H185.658L185.422 212.485H181.217Z" fill="#3B82F6"/>
<path d="M131.06 212.485L130.334 214.502H134.82L135.436 212.485H131.06Z" fill="#3B82F6"/>
<path d="M184.989 208.761L184.77 206.883H180.99L181.066 208.761H184.989Z" fill="#3B82F6"/>
<path d="M196.644 217.373L196.246 215.356H191.912L192.255 217.373H196.644Z" fill="#3B82F6"/>
<path d="M176.289 206.883L176.213 208.761H180.211L180.136 206.883H176.289Z" fill="#3B82F6"/>
<path d="M176.179 209.614L176.098 211.631H180.327L180.246 209.614H176.179Z" fill="#3B82F6"/>
<path d="M185.325 211.631L185.089 209.614H181.102L181.183 211.631H185.325Z" fill="#3B82F6"/>
<path d="M189.922 208.761L189.602 206.883H185.631L185.85 208.761H189.922Z" fill="#3B82F6"/>
<path d="M176.064 212.485L175.982 214.502H180.444L180.363 212.485H176.064Z" fill="#3B82F6"/>
<path d="M175.949 215.356L175.867 217.373H180.56L180.479 215.356H175.949Z" fill="#3B82F6"/>
<path d="M175.359 208.761L175.435 206.883H171.654L171.436 208.761H175.359Z" fill="#3B82F6"/>
<path d="M166.504 208.761H170.576L170.794 206.883H166.825L166.504 208.761Z" fill="#3B82F6"/>
<path d="M196.077 214.502L195.678 212.485H191.422L191.766 214.502H196.077Z" fill="#3B82F6"/>
<path d="M155.627 212.485L155.174 214.502H159.48L159.878 212.485H155.627Z" fill="#3B82F6"/>
<path d="M101.179 218.226L100.182 219.991H104.975L105.824 218.226H101.179Z" fill="#3B82F6"/>
<path d="M215.226 214.502L214.637 212.485H210.98L211.543 214.502H215.226Z" fill="#3B82F6"/>
<path d="M212.58 218.226L213.072 219.991H216.83L216.314 218.226H212.58Z" fill="#3B82F6"/>
<path d="M205.797 214.502L205.289 212.485H201.676L202.128 214.502H205.797Z" fill="#3B82F6"/>
<path d="M175.012 217.373L175.093 215.356H170.668L170.434 217.373H175.012Z" fill="#3B82F6"/>
<path d="M228.34 218.226L228.975 219.991H233.704L232.998 218.226H228.34Z" fill="#3B82F6"/>
<path d="M242.411 214.502L241.494 212.485H237.025L237.888 214.502H242.411Z" fill="#3B82F6"/>
<path d="M233.918 218.226L234.624 219.991H239.304L238.55 218.226H233.918Z" fill="#3B82F6"/>
<path d="M165.381 215.356L165.037 217.373H169.575L169.81 215.356H165.381Z" fill="#3B82F6"/>
<path d="M102.802 215.356L101.662 217.373H106.236L107.208 215.356H102.802Z" fill="#3B82F6"/>
<path d="M186.949 218.226L187.155 219.991H191.835L191.534 218.226H186.949Z" fill="#3B82F6"/>
<path d="M117.876 218.226L117.121 219.991H121.801L122.508 218.226H117.876Z" fill="#3B82F6"/>
<path d="M174.977 218.226H170.334L170.129 219.991H174.906L174.977 218.226Z" fill="#3B82F6"/>
<path d="M236.957 214.502L236.096 212.485H231.619L232.426 214.502H236.957Z" fill="#3B82F6"/>
<path d="M106.772 218.226L105.922 219.991H110.584L111.386 218.226H106.772Z" fill="#3B82F6"/>
<path d="M196.549 212.485L196.948 214.502H201.254L200.801 212.485H196.549Z" fill="#3B82F6"/>
<path d="M217.203 218.226L217.719 219.991H222.393L221.853 218.226H217.203Z" fill="#3B82F6"/>
<path d="M197.682 218.226L198.03 219.991H202.484L202.089 218.226H197.682Z" fill="#3B82F6"/>
<path d="M220.714 214.502L220.097 212.485H215.525L216.114 214.502H220.714Z" fill="#3B82F6"/>
<path d="M226.093 214.502L225.367 212.485H220.99L221.607 214.502H226.093Z" fill="#3B82F6"/>
<path d="M192.4 218.226L192.701 219.991H197.16L196.812 218.226H192.4Z" fill="#3B82F6"/>
<path d="M222.746 218.226L223.286 219.991H228.069L227.434 218.226H222.746Z" fill="#3B82F6"/>
<path d="M106.047 209.614L104.906 211.631H109L109.971 209.614H106.047Z" fill="#3B82F6"/>
<path d="M245.041 218.226L245.843 219.991H250.505L249.654 218.226H245.041Z" fill="#3B82F6"/>
<path d="M107.591 206.883L106.529 208.761H110.383L111.287 206.883H107.591Z" fill="#3B82F6"/>
<path d="M231.507 214.502L230.7 212.485H226.273L227 214.502H231.507Z" fill="#3B82F6"/>
<path d="M163.725 219.991L164.026 218.226H123.428L122.721 219.991H163.725Z" fill="#3B82F6"/>
<path d="M202.965 218.226L203.36 219.991H207.177L206.733 218.226H202.965Z" fill="#3B82F6"/>
<path d="M171.102 211.631H175.243L175.325 209.614H171.336L171.102 211.631Z" fill="#3B82F6"/>
<path d="M253.625 215.356H249.219L251.452 219.991H256.245L253.625 215.356Z" fill="#3B82F6"/>
<path d="M248.808 214.502H253.141L252 212.485H247.836L248.808 214.502Z" fill="#3B82F6"/>
<path d="M247.862 214.502L246.89 212.485H242.432L243.349 214.502H247.862Z" fill="#3B82F6"/>
<path d="M169.269 219.991L169.474 218.226H164.89L164.59 219.991H169.269Z" fill="#3B82F6"/>
<path d="M175.833 218.226L175.762 219.991H186.297L186.091 218.226H175.833Z" fill="#3B82F6"/>
<path d="M239.479 218.226L240.232 219.991H244.904L244.102 218.226H239.479Z" fill="#3B82F6"/>
<path d="M210.657 214.502L210.094 212.485H206.17L206.677 214.502H210.657Z" fill="#3B82F6"/>
<path d="M207.613 218.226L208.058 219.991H212.186L211.694 218.226H207.613Z" fill="#3B82F6"/>
<path d="M104.423 212.485L103.283 214.502H107.617L108.589 212.485H104.423Z" fill="#3B82F6"/>
<path d="M115.688 208.761L116.542 206.883H112.234L111.33 208.761H115.688Z" fill="#3B82F6"/>
<path d="M112.324 218.226L111.521 219.991H116.193L116.947 218.226H112.324Z" fill="#3B82F6"/>
<path d="M175.127 214.502L175.209 212.485H171.002L170.768 214.502H175.127Z" fill="#3B82F6"/>
<path d="M191.046 215.356H186.617L186.852 217.373H191.39L191.046 215.356Z" fill="#3B82F6"/>
<path d="M204.96 235.024H151.469C151.242 235.024 151.034 234.919 150.899 234.736C150.764 234.554 150.725 234.324 150.792 234.106L154.192 223.055C154.285 222.755 154.557 222.555 154.87 222.555H201.56C201.873 222.555 202.145 222.756 202.237 223.055L205.638 234.106C205.705 234.324 205.666 234.554 205.531 234.736C205.395 234.919 205.187 235.024 204.96 235.024ZM154.869 223.187C154.835 223.187 154.806 223.209 154.796 223.242L151.396 234.293C151.386 234.323 151.396 234.347 151.407 234.361C151.417 234.375 151.436 234.392 151.469 234.392H204.96C204.992 234.392 205.011 234.375 205.021 234.361C205.032 234.347 205.042 234.323 205.033 234.293L201.633 223.241C201.623 223.209 201.593 223.187 201.559 223.187H154.869Z" fill="#3B82F6"/>
<path d="M204.191 122.453L146.086 131.618L201.954 159.57L259.818 150.964L204.191 122.453Z" fill="#1C1C84"/>
<path d="M146.086 131.618V132.947L201.996 162.165L259.818 152.237V150.964L201.954 159.57L146.086 131.618Z" fill="#2525AD"/>
<path d="M167.697 163.066L166.807 168.973C166.807 168.973 190.666 188.13 224.309 178.711L224.824 174.095C195.087 179.071 176.367 169.431 167.697 163.066Z" fill="#2525AD"/>
<path d="M238.537 194.171C235.423 191.702 233.217 188.059 232.167 184.226C232.089 183.942 231.709 184.045 231.665 184.289C231.595 184.194 231.453 184.181 231.338 184.24C231.284 184.043 230.963 183.953 230.839 184.191C228.704 188.331 230.354 193.006 231.782 197.1C231.894 197.422 232.251 197.249 232.138 196.926C231.02 193.721 229.823 190.133 230.503 186.757C230.124 191.026 231.546 195.397 234.152 198.784C234.34 199.029 234.632 198.735 234.443 198.489C232.078 195.414 230.855 191.511 230.981 187.635C231.054 189.162 231.291 190.685 231.779 192.125C232.528 194.33 233.779 196.436 235.031 198.389C235.215 198.677 235.506 198.38 235.321 198.093C234.118 196.216 233.08 194.199 232.329 192.092C232.007 191.189 231.796 190.242 231.66 189.283C232.38 192.387 233.879 195.306 236.035 197.676C236.262 197.925 236.562 197.704 236.332 197.451C233.97 194.855 232.551 191.53 231.965 188.1C232.832 191.313 234.43 194.351 236.542 196.96C236.756 197.224 236.978 196.938 236.763 196.671C234.701 194.124 233.338 191.145 232.487 188.011C233.634 191.244 235.122 194.362 237.75 196.661C238.008 196.887 238.289 196.626 238.033 196.401C236.227 194.822 235.037 192.689 234.067 190.55C235.12 192.42 236.385 194.168 237.854 195.748C238.086 195.998 238.282 195.6 238.053 195.353C236.761 193.963 235.769 192.424 234.809 190.797C235.798 192.122 236.948 193.329 238.25 194.361C238.516 194.573 238.805 194.384 238.537 194.171Z" fill="#F0C64B"/>
<path d="M233.063 149.439C231.849 147.989 230.211 147.035 228.532 146.221C225.194 144.603 221.486 143.899 217.867 143.215C212.753 142.247 207.521 141.351 203.269 138.129C203.104 138.003 202.944 138.066 202.849 138.194C202.841 138.201 202.835 138.211 202.828 138.22C202.825 138.225 202.822 138.227 202.819 138.232C202.717 138.358 202.689 138.54 202.841 138.684C205.957 141.664 210.123 143.139 214.225 144.177C218.369 145.226 222.599 145.944 226.566 147.591C226.69 147.642 226.813 147.693 226.936 147.745C226.96 147.754 227.091 147.815 227.092 147.814C227.295 147.913 227.496 148.014 227.698 148.114C228.441 148.482 229.164 148.864 229.844 149.342C230.659 149.915 231.413 150.617 231.937 151.471C232.509 152.404 232.708 153.45 232.687 154.535C232.665 155.664 232.456 156.787 232.273 157.899C232.083 159.05 231.912 160.205 231.735 161.357C231.369 163.742 231.028 166.127 230.771 168.525C230.204 173.805 230.05 179.19 230.999 184.436C231.069 184.826 231.723 184.74 231.693 184.343C231.324 179.364 231.73 174.371 232.429 169.438C232.777 166.983 233.198 164.538 233.627 162.096C234.03 159.803 234.562 157.493 234.75 155.17C234.921 153.064 234.433 151.077 233.063 149.439Z" fill="#F0C64B"/>
<path d="M230.736 184.812C230.796 184.782 230.857 184.756 230.919 184.73C230.956 184.715 230.954 184.716 230.913 184.731C230.931 184.725 230.949 184.718 230.967 184.712C230.994 184.703 231.021 184.694 231.049 184.686C231.181 184.645 231.316 184.616 231.453 184.596C231.486 184.591 231.52 184.586 231.553 184.583C231.46 184.588 231.568 184.583 231.586 184.582C231.653 184.579 231.72 184.577 231.787 184.579C231.853 184.58 231.92 184.583 231.986 184.59C232.019 184.593 232.053 184.597 232.085 184.601C232.104 184.604 232.123 184.606 232.142 184.609C232.096 184.601 232.093 184.6 232.133 184.608C232.23 184.626 232.316 184.631 232.407 184.583C232.482 184.543 232.554 184.462 232.577 184.378C232.622 184.212 232.541 183.97 232.347 183.934C231.682 183.81 231.012 183.888 230.402 184.187C230.235 184.269 230.162 184.505 230.257 184.666C230.357 184.836 230.558 184.899 230.736 184.812Z" fill="#D8A32B"/>
<path d="M230.665 184.121C230.726 184.092 230.786 184.065 230.848 184.04C230.885 184.025 230.884 184.026 230.842 184.041C230.861 184.035 230.878 184.028 230.896 184.022C230.924 184.013 230.951 184.004 230.978 183.995C231.111 183.955 231.246 183.925 231.383 183.906C231.416 183.901 231.449 183.895 231.482 183.893C231.39 183.898 231.498 183.893 231.516 183.892C231.582 183.888 231.65 183.887 231.716 183.888C231.783 183.89 231.85 183.893 231.916 183.9C231.949 183.904 231.982 183.907 232.015 183.911C232.034 183.914 232.053 183.917 232.072 183.92C232.025 183.911 232.022 183.911 232.063 183.918C232.16 183.937 232.245 183.942 232.336 183.893C232.411 183.853 232.485 183.771 232.506 183.688C232.551 183.522 232.471 183.28 232.276 183.244C231.611 183.12 230.941 183.199 230.331 183.498C230.166 183.58 230.091 183.816 230.187 183.977C230.287 184.146 230.487 184.209 230.665 184.121Z" fill="#D8A32B"/>
<path d="M226.572 160.195L226.861 157.896L201.996 162.165L170.694 145.807L170.023 149.672L201.371 165.454L226.572 160.195Z" fill="#0C0C5B"/>
<path d="M201.37 165.454L170.022 149.672L167.697 163.066C176.367 169.431 195.087 179.071 224.824 174.096L226.571 160.195L201.37 165.454Z" fill="#1C1C84"/>
<path d="M163.369 183.626C164.756 187.363 161.775 191.917 156.71 193.797C151.646 195.677 148.755 193.306 146.729 189.873C143.766 184.851 146.622 182.142 151.686 180.262C156.752 178.383 161.981 179.888 163.369 183.626Z" fill="#FFF6DC"/>
<path d="M112.795 142.465C112.795 142.465 125.363 155.408 135.662 178.639C135.662 178.639 140.547 191.25 143.751 194.403C143.751 194.403 141.158 191.48 145.118 186.814C148.028 183.387 152.27 181.287 156.762 181.128C159.272 181.039 161.894 181.564 163.386 183.674C163.386 183.674 146.624 163.928 135.673 146.891C131.297 140.084 129.226 134.461 128.316 130.161C128.316 130.161 127.491 129.19 125.847 128.378C119.8 125.392 112.678 129.411 111.623 136.072C111.524 136.694 111.462 137.356 111.446 138.06C111.446 138.06 111.36 141.012 112.795 142.465Z" fill="white"/>
<path d="M143.752 194.404C143.752 194.404 149.253 201.041 161.712 193.076C161.712 193.076 169.423 187.932 165.574 178.971C165.574 178.971 157.577 173.01 151.271 165.454C144.966 157.897 137.166 147.609 130.695 134.002L129.045 133.004C129.045 133.004 130.234 139.456 137.936 150.33C145.638 161.203 159.846 179.408 159.846 179.408L162.019 182.026C163.267 183.528 163.695 185.593 163.006 187.42C162.025 190.023 159.146 193.106 151.106 193.573L146.086 185.779C146.086 185.779 141.211 189.817 143.752 194.404Z" fill="#F4E7BD"/>
<path d="M155.921 170.507C155.921 170.507 141.482 155.451 131.36 131.618C131.36 131.618 129.534 128.716 128.373 127.377C128.373 127.377 137.172 154.575 155.921 170.507Z" fill="white"/>
<path d="M129.364 166.138C132.402 160.659 138.966 157.035 145.215 157.348C147.439 157.46 147.433 154.694 145.215 154.583C137.804 154.211 130.457 157.91 126.863 164.393C126.863 164.393 128.284 168.086 129.364 166.138Z" fill="#F0C64B"/>
<path d="M106.995 176.209H78.6568C74.8999 176.209 71.8262 173.136 71.8262 169.379V154.621C71.8262 150.864 74.8999 147.79 78.6568 147.79H106.995C110.752 147.79 113.825 150.864 113.825 154.621V169.379C113.825 173.136 110.752 176.209 106.995 176.209Z" fill="#2525AD"/>
<path d="M88.3184 162V156.796L92.8264 159.397L97.3337 162L92.8264 164.603L88.3184 167.205V162Z" fill="#93C5FD"/>
<path d="M84.6208 113.531C84.6208 104.853 77.5865 97.8198 68.91 97.8198C60.2335 97.8198 53.1992 104.853 53.1992 113.531C53.1992 119.819 56.8952 125.242 62.2327 127.752V132.763H75.588V127.752C80.9248 125.242 84.6208 119.819 84.6208 113.531Z" fill="white"/>
<path d="M76.0184 135.352H61.8028C61.0902 135.352 60.5078 134.77 60.5078 134.057C60.5078 133.345 61.0902 132.762 61.8028 132.762H76.0191C76.731 132.762 77.3141 133.345 77.3141 134.057C77.3134 134.77 76.731 135.352 76.0184 135.352Z" fill="#F0C64B"/>
<path d="M68.9108 142.701C66.0422 142.701 63.7168 140.376 63.7168 137.507V136.648H74.1055V137.507C74.1048 140.376 71.7794 142.701 68.9108 142.701Z" fill="#F0C64B"/>
<path d="M76.0184 137.942H61.8028C61.0902 137.942 60.5078 137.359 60.5078 136.647C60.5078 135.935 61.0902 135.352 61.8028 135.352H76.0191C76.731 135.352 77.3141 135.935 77.3141 136.647C77.3134 137.36 76.731 137.942 76.0184 137.942Z" fill="#D8A32B"/>
<path d="M70.3386 132.763H69.6022V110.937C69.6022 110.556 69.2914 110.245 68.9099 110.245C68.5277 110.245 68.2169 110.556 68.2169 110.937V132.763H67.4805V110.937C67.4805 110.149 68.1217 109.508 68.9099 109.508C69.6981 109.508 70.3386 110.149 70.3386 110.937V132.763Z" fill="#F0C64B"/>
<path d="M44.2164 108.174L43.7852 110.423L50.3519 111.681C50.4401 110.914 50.5745 110.161 50.7523 109.425L44.2164 108.174Z" fill="#3B82F6"/>
<path d="M49.4178 97.8198L48.0332 99.6461L53.2706 103.611C53.6899 102.97 54.1477 102.356 54.6405 101.774L49.4178 97.8198Z" fill="#3B82F6"/>
<path d="M58.5981 90.8261L56.5527 91.8558L59.4969 97.6924C60.1542 97.3081 60.8353 96.9609 61.5402 96.6578L58.5981 90.8261Z" fill="#3B82F6"/>
<path d="M94.0362 110.423L93.605 108.174L87.0684 109.425C87.2462 110.161 87.3813 110.914 87.4688 111.681L94.0362 110.423Z" fill="#3B82F6"/>
<path d="M89.787 99.6461L88.4024 97.8198L83.1797 101.774C83.6725 102.357 84.1296 102.97 84.5496 103.611L89.787 99.6461Z" fill="#3B82F6"/>
<path d="M81.2675 91.8558L79.2221 90.8261L76.2793 96.6585C76.9842 96.9616 77.6653 97.3088 78.3226 97.6931L81.2675 91.8558Z" fill="#3B82F6"/>
<path d="M70.0802 95.1864L70.0235 88.542L67.7324 88.563L67.7898 95.1822C68.1608 95.1605 68.5332 95.1458 68.9091 95.1458C69.3032 95.1465 69.6931 95.1626 70.0802 95.1864Z" fill="#3B82F6"/>
<path d="M300.981 233.523H234.586V246.614H300.981V233.523Z" fill="#F0C64B"/>
<path d="M240.996 233.523H238.322V246.614H240.996V233.523Z" fill="#D8A32B"/>
<path d="M245.011 233.523H242.336V246.614H245.011V233.523Z" fill="#D8A32B"/>
<path d="M293.229 233.523H290.555V246.614H293.229V233.523Z" fill="#D8A32B"/>
<path d="M297.243 233.523H294.568V246.614H297.243V233.523Z" fill="#D8A32B"/>
<path d="M307.368 226.229V224.215C307.368 221.352 305.039 219.024 302.177 219.024H243.002V231.42H302.177C305.039 231.42 307.368 229.091 307.368 226.229Z" fill="white"/>
<path d="M302.178 216.843H242.615V217.934V219.024H302.178C305.04 219.024 307.368 221.353 307.368 224.215V226.229C307.368 229.091 305.039 231.419 302.178 231.419H242.615V232.51V233.6H302.178C306.242 233.6 309.549 230.293 309.549 226.229V224.215C309.549 220.15 306.242 216.843 302.178 216.843Z" fill="#2525AD"/>
<path d="M303.336 221.799H243.002V222.791H303.336V221.799Z" fill="#F7FAFF"/>
<path d="M303.336 224.786H243.002V225.778H303.336V224.786Z" fill="#F7FAFF"/>
<path d="M303.336 227.774H243.002V228.766H303.336V227.774Z" fill="#F7FAFF"/>
<path d="M237.932 210.282V208.469C237.932 205.891 240.028 203.795 242.606 203.795H295.89V214.956H242.606C240.029 214.956 237.932 212.86 237.932 210.282Z" fill="white"/>
<path d="M242.605 201.831H296.237V202.813V203.795H242.605C240.027 203.795 237.931 205.891 237.931 208.469V210.282C237.931 212.86 240.027 214.956 242.605 214.956H296.237V215.938V216.921H242.605C238.945 216.921 235.967 213.943 235.967 210.282V208.469C235.967 204.808 238.945 201.831 242.605 201.831Z" fill="#F0C64B"/>
<path d="M241.561 207.187H295.889V206.293H241.561V207.187Z" fill="#F7FAFF"/>
<path d="M241.561 209.877H295.889V208.983H241.561V209.877Z" fill="#F7FAFF"/>
<path d="M241.561 212.567H295.889V211.674H241.561V212.567Z" fill="#F7FAFF"/>
<path d="M130.87 62.6455C133.378 62.6455 135.41 64.6167 135.41 67.0478V67.7177C136.324 70.2874 136.88 73.632 136.88 77.2993C136.88 80.9666 136.323 84.3105 135.41 86.8809V87.5508C135.41 89.9819 133.378 91.9531 130.87 91.9531C127.55 91.9531 124.859 85.3927 124.859 77.2993C124.859 69.2059 127.55 62.6455 130.87 62.6455Z" fill="#F0C64B"/>
<path d="M126.9 77.4855C126.9 82.4359 127.284 86.4497 127.756 86.4497C128.23 86.4497 128.613 82.4366 128.613 77.4855C128.613 72.5351 128.229 68.5213 127.756 68.5213C127.284 68.522 126.9 72.5351 126.9 77.4855Z" fill="#D8A32B"/>
<path d="M141.769 70.6591V71.2464V83.7253V84.3126C141.46 87.6908 138.352 90.8219 134.188 91.9531V83.7253V71.2464V63.0186C138.352 64.1498 141.46 67.2809 141.769 70.6591Z" fill="#3B82F6"/>
<path d="M134.188 93.5211C134.866 93.5211 135.42 92.9835 135.42 92.3262V62.6455C135.42 61.9882 134.865 61.4499 134.188 61.4499C133.509 61.4499 132.955 61.9875 132.955 62.6455V92.3262C132.954 92.9835 133.509 93.5211 134.188 93.5211Z" fill="#2525AD"/>
<path d="M107.28 62.6455C104.772 62.6455 102.739 64.6167 102.739 67.0478V67.7177C101.825 70.2874 101.27 73.632 101.27 77.2993C101.27 80.9666 101.826 84.3105 102.739 86.8809V87.5508C102.739 89.9819 104.772 91.9531 107.28 91.9531C110.599 91.9531 113.29 85.3927 113.29 77.2993C113.29 69.2059 110.599 62.6455 107.28 62.6455Z" fill="#F0C64B"/>
<path d="M111.247 77.4855C111.247 82.4359 110.864 86.4497 110.391 86.4497C109.919 86.4497 109.535 82.4366 109.535 77.4855C109.535 72.5351 109.919 68.5213 110.391 68.5213C110.864 68.522 111.247 72.5351 111.247 77.4855Z" fill="#D8A32B"/>
<path d="M96.3809 70.6591V71.2464V83.7253V84.3126C96.6903 87.6908 99.7976 90.8219 103.963 91.9531V83.7253V71.2464V63.0186C99.7976 64.1498 96.6903 67.2809 96.3809 70.6591Z" fill="#3B82F6"/>
<path d="M103.963 93.5211C103.285 93.5211 102.73 92.9835 102.73 92.3262V62.6455C102.73 61.9882 103.285 61.4499 103.963 61.4499C104.641 61.4499 105.196 61.9875 105.196 62.6455V92.3262C105.196 92.9835 104.641 93.5211 103.963 93.5211Z" fill="#2525AD"/>
<path d="M134.304 44.5827C131.841 42.5492 128.61 41.2619 125.547 40.5101C122.401 39.738 119.115 39.5406 115.898 39.9137C114.928 40.0264 113.961 40.1783 113.005 40.3799C112.35 40.5178 111.631 40.6256 111.024 40.9133C110.39 41.2143 109.769 41.5461 109.141 41.8625C107.443 42.7186 105.744 43.5747 104.046 44.4308C103.37 44.7717 103.45 45.7608 104.046 46.122C105.616 47.074 107.414 47.1958 109.192 46.9123C110.443 46.7128 111.584 46.2487 112.771 45.8378C114.902 45.0993 117.205 44.7381 119.457 44.7276C121.463 44.7185 123.499 45.0188 125.353 45.8119C128.097 46.9935 131.378 47.7796 134.106 46.122C134.602 45.8196 134.805 44.9964 134.304 44.5827Z" fill="#3B82F6"/>
<path d="M119.5 38.8245L119.504 38.8028C119.36 38.8028 119.219 38.8112 119.075 38.8133C118.933 38.8112 118.791 38.8028 118.647 38.8028L118.651 38.8245C104.508 39.2753 93.1797 50.8743 93.1797 65.1263V81.0989C93.1797 82.8727 94.6175 84.3112 96.392 84.3112V68.564L96.3227 68.1545C95.2405 61.7684 96.6244 55.1219 100.521 49.9482C102.341 47.5318 104.806 45.2561 108.144 43.6118C108.183 43.5922 108.223 43.5733 108.263 43.5537C115.063 40.2385 123.089 40.2385 129.889 43.5537C129.929 43.5733 129.968 43.5922 130.008 43.6118C133.366 45.2659 135.84 47.5591 137.663 49.9909C141.537 55.1604 142.908 61.7901 141.828 68.1587L141.76 68.5647V84.3119C143.533 84.3119 144.972 82.8741 144.972 81.0996V65.127C144.971 50.8743 133.642 39.2753 119.5 38.8245Z" fill="#2525AD"/>
<path d="M313.697 96.074H271.93V156.476H313.697V96.074Z" fill="#93C5FD"/>
<path d="M309.188 104.933H276.438V106.27H309.188V104.933Z" fill="#3B82F6"/>
<path d="M309.188 111.07H276.438V112.407H309.188V111.07Z" fill="#3B82F6"/>
<path d="M309.188 117.208H276.438V118.545H309.188V117.208Z" fill="#3B82F6"/>
<path d="M309.188 123.345H276.438V124.682H309.188V123.345Z" fill="#3B82F6"/>
<path d="M309.188 129.481H276.438V130.818H309.188V129.481Z" fill="#3B82F6"/>
<path d="M309.188 135.619H276.438V136.956H309.188V135.619Z" fill="#3B82F6"/>
<path d="M309.188 150.527H276.438V150.895H309.188V150.527Z" fill="white"/>
<path d="M280.913 144.727C282.586 145.008 284.285 145.092 285.976 144.945C287.538 144.809 289.197 144.546 290.655 143.946C291.692 143.518 292.823 142.346 292.095 141.162C291.453 140.118 289.844 140.012 288.778 140.265C287.535 140.561 286.429 141.375 285.673 142.392C284.916 143.409 284.39 144.875 285.285 145.976C286.112 146.992 287.627 147.196 288.847 147.026C289.533 146.931 290.2 146.704 290.8 146.357C291.08 146.195 291.34 146.003 291.588 145.796C291.913 145.528 292.254 145.171 292.693 145.11C293.22 145.036 293.341 145.435 293.677 145.722C293.91 145.922 294.209 145.989 294.51 145.959C294.88 145.921 295.217 145.761 295.56 145.629C295.991 145.462 296.418 145.399 296.881 145.41C298.873 145.458 300.882 145.722 302.868 145.884C303.222 145.913 303.22 145.581 302.868 145.553C301.389 145.432 299.91 145.091 298.432 144.972C297.757 144.917 297.063 144.814 296.386 144.869C295.749 144.921 295.237 145.252 294.627 145.383C293.942 145.529 293.847 144.84 293.299 144.629C292.811 144.442 292.275 144.599 291.859 144.878C291.35 145.217 290.937 145.66 290.394 145.953C289.785 146.281 289.097 146.479 288.406 146.521C287.286 146.589 285.619 146.247 285.383 144.922C285.167 143.713 286.17 142.465 287.044 141.752C287.941 141.019 289.152 140.534 290.322 140.748C290.879 140.85 291.605 141.112 291.742 141.736C291.901 142.465 291.257 143.053 290.672 143.339C289.99 143.674 289.201 143.845 288.463 144.009C287.644 144.192 286.814 144.321 285.978 144.394C284.338 144.536 282.685 144.615 281.062 144.342C280.712 144.283 280.562 144.668 280.913 144.727Z" fill="#3B82F6"/>
<path d="M327.657 132.738L320.314 128.754L322.473 124.776C322.939 123.915 324.016 123.596 324.877 124.063L329.102 126.355C329.963 126.822 330.282 127.899 329.815 128.76L327.657 132.738Z" fill="#93C5FD"/>
<path d="M327.139 133.662L319.797 129.678L298.589 168.762L305.931 172.746L327.139 133.662Z" fill="#2525AD"/>
<path d="M324.774 132.384L322.152 130.961L300.945 170.045L303.567 171.468L324.774 132.384Z" fill="#1C1C84"/>
<path d="M328.965 132.38L319.875 127.448L318.922 129.205L328.012 134.137L328.965 132.38Z" fill="#F0C64B"/>
<path d="M305.937 172.765L298.594 168.781L297.85 175.442L300.758 177.021L305.937 172.765Z" fill="#93C5FD"/>
<path d="M300.758 177.021L297.85 175.442L297.361 179.811L300.758 177.021Z" fill="#2525AD"/>
<path d="M65.0742 64.8694L72.5873 72.3825" stroke="#3B82F6" stroke-width="1.50199" stroke-miterlimit="10"/>
<path d="M72.7377 64.8694L65.2246 72.3825" stroke="#3B82F6" stroke-width="1.50199" stroke-miterlimit="10"/>
<path d="M317.824 177.56L325.337 185.073" stroke="#3B82F6" stroke-width="1.50199" stroke-miterlimit="10"/>
<path d="M325.488 177.56L317.975 185.073" stroke="#3B82F6" stroke-width="1.50199" stroke-miterlimit="10"/>
<path d="M43.875 151.23L50.5285 157.883" stroke="#2525AD" stroke-width="1.33007" stroke-miterlimit="10"/>
<path d="M50.6606 151.23L44.0078 157.883" stroke="#2525AD" stroke-width="1.33007" stroke-miterlimit="10"/>
<path d="M40.3498 96.074C40.3498 99.077 37.9152 101.512 34.9122 101.512C31.9092 101.512 29.4746 99.077 29.4746 96.074C29.4746 93.071 31.9092 90.6364 34.9122 90.6364C37.9152 90.6357 40.3498 93.0703 40.3498 96.074Z" stroke="#3B82F6" stroke-width="1.50199" stroke-miterlimit="10"/>
<path d="M253.143 91.8873C256.146 91.8873 258.58 89.4528 258.58 86.4497C258.58 83.4466 256.146 81.0121 253.143 81.0121C250.14 81.0121 247.705 83.4466 247.705 86.4497C247.705 89.4528 250.14 91.8873 253.143 91.8873Z" stroke="#3B82F6" stroke-width="1.50199" stroke-miterlimit="10"/>
<path d="M277.949 78.8673C277.949 79.6303 277.33 80.2491 276.567 80.2491C275.804 80.2491 275.186 79.6303 275.186 78.8673C275.186 78.1043 275.804 77.4855 276.567 77.4855C277.33 77.4855 277.949 78.1043 277.949 78.8673Z" stroke="#2525AD" stroke-width="1.33007" stroke-miterlimit="10"/>
<path d="M144.705 32.7954C144.705 33.5584 144.086 34.1772 143.323 34.1772C142.56 34.1772 141.941 33.5584 141.941 32.7954C141.941 32.0324 142.56 31.4136 143.323 31.4136C144.086 31.4136 144.705 32.0324 144.705 32.7954Z" stroke="#2525AD" stroke-width="1.33007" stroke-miterlimit="10"/>
<path d="M56.5374 208.145V211.412C52.147 211.659 48.6484 215.299 48.6484 219.751V222.531C48.6484 227.092 52.3206 230.806 56.8622 230.886C58.5114 239.833 66.3472 246.614 75.772 246.614C86.3952 246.614 95.0066 238.003 95.0066 227.379V208.145H56.5374ZM51.3511 222.53V219.75C51.3511 216.789 53.638 214.356 56.5374 214.114V227.379C56.5374 227.643 56.5465 227.905 56.557 228.167C53.6485 227.935 51.3511 225.498 51.3511 222.53Z" fill="#2525AD"/>
<path d="M85.4244 186.248C82.9772 184.986 79.7621 185.581 77.7951 187.508C77.4423 184.701 74.7746 182.58 71.9774 182.161C69.1795 181.743 66.341 182.724 63.8861 184.13C61.4788 185.509 59.2311 187.422 58.2224 190.006C57.2137 192.591 57.7786 195.922 60.0641 197.494C60.9923 198.133 62.1753 198.313 63.2862 198.126C63.4325 199.006 63.7804 199.844 64.3523 200.539C66.2584 202.857 70.1938 203.086 72.3561 201.005C73.9969 202.457 76.5155 202.824 78.5021 201.9C78.934 201.699 79.3337 201.437 79.697 201.131C79.5507 203.056 78.8192 204.942 77.5872 206.431C79.9735 205.601 82.014 203.822 83.1606 201.57C83.9124 200.093 84.2659 198.425 84.219 196.77C86.0768 196.413 87.7813 195.053 88.3861 193.235C89.2562 190.621 87.8723 187.509 85.4244 186.248Z" fill="#93C5FD"/>
<path d="M171.748 70.7858L171.745 70.7851C171.645 70.7767 171.542 70.7718 171.437 70.7718C169.39 70.7718 167.725 72.4371 167.725 74.4839C167.725 76.5307 169.39 78.196 171.437 78.196C171.542 78.196 171.644 78.1918 171.74 78.1834C173.653 78.0259 175.149 76.4012 175.149 74.4839C175.149 72.5673 173.655 70.9426 171.748 70.7858Z" fill="#2525AD"/>
<path d="M184.758 74.4846C184.758 73.8434 184.508 73.2407 184.053 72.7864C183.6 72.3328 182.996 72.0829 182.355 72.0829H180.98L180.839 71.6181C180.655 71.0119 180.41 70.4218 180.112 69.8639L179.884 69.4355L180.857 68.4625C181.793 67.5259 181.793 66.002 180.857 65.0654C180.403 64.6118 179.8 64.3619 179.158 64.3619C178.516 64.3619 177.913 64.6118 177.459 65.0647L176.486 66.0377L176.058 65.8088C175.5 65.5106 174.91 65.2663 174.304 65.0822L173.84 64.9408V63.566C173.84 62.4285 173.031 61.438 171.916 61.2119C171.759 61.1804 171.598 61.1643 171.438 61.1643C170.797 61.1643 170.193 61.4142 169.74 61.8678C169.286 62.3221 169.036 62.9248 169.036 63.566V64.9408L168.572 65.0822C167.966 65.2663 167.376 65.5113 166.818 65.8088L166.39 66.0377L165.417 65.0647C164.481 64.1288 162.956 64.1288 162.02 65.0647C161.567 65.5183 161.317 66.1217 161.317 66.7636C161.317 67.4055 161.567 68.0082 162.02 68.4618L162.993 69.4348L162.764 69.8632C162.466 70.4211 162.222 71.0112 162.037 71.6174L161.896 72.0822H160.521C159.196 72.0822 158.119 73.1595 158.119 74.4839C158.119 75.1251 158.369 75.7285 158.823 76.1821C159.276 76.6357 159.88 76.8856 160.521 76.8856H161.896L162.037 77.3497C162.222 77.9559 162.466 78.546 162.764 79.1039L162.993 79.5323L162.02 80.5053C161.084 81.4419 161.084 82.9658 162.02 83.9024C162.474 84.3553 163.077 84.6052 163.719 84.6052C164.361 84.6052 164.964 84.3553 165.417 83.9017L166.39 82.9287L166.819 83.1576C167.377 83.4558 167.967 83.7001 168.573 83.8849L169.037 84.0263V85.4011C169.037 86.7255 170.114 87.8028 171.439 87.8028C171.594 87.8028 171.752 87.7874 171.906 87.7573L171.979 87.7419C172.417 87.6411 172.816 87.4199 173.137 87.0993C173.591 86.645 173.84 86.0423 173.84 85.4011V84.0263L174.305 83.8849C174.911 83.7008 175.501 83.4558 176.059 83.1576L176.487 82.9287L177.46 83.9024C177.912 84.3546 178.516 84.6038 179.158 84.6038C179.801 84.6038 180.404 84.3546 180.857 83.9017C181.31 83.4481 181.56 82.8447 181.56 82.2028C181.56 81.5616 181.31 80.9582 180.857 80.5046L179.884 79.5323L180.112 79.1039C180.411 78.546 180.655 77.9552 180.84 77.3497L180.981 76.8856H182.356C183.68 76.8863 184.758 75.809 184.758 74.4846ZM176.407 79.0808C175.253 80.3275 173.688 81.0912 171.999 81.2298C171.819 81.2452 171.628 81.2536 171.437 81.2536C167.705 81.2536 164.668 78.217 164.668 74.4846C164.668 70.7522 167.705 67.7156 171.437 67.7156C171.629 67.7156 171.821 67.724 172.007 67.7401C173.689 67.878 175.253 68.641 176.407 69.8884C177.568 71.1428 178.207 72.7752 178.207 74.4853C178.206 76.1947 177.567 77.8271 176.407 79.0808Z" fill="#2525AD"/>
<path d="M274.531 179.063L274.53 179.065C274.501 179.124 274.474 179.186 274.449 179.249C273.969 180.496 274.593 181.902 275.84 182.381C277.087 182.861 278.492 182.237 278.972 180.99C278.996 180.927 279.017 180.864 279.035 180.803C279.388 179.6 278.749 178.308 277.581 177.858C276.414 177.409 275.073 177.938 274.531 179.063Z" fill="#2525AD"/>
<path d="M279.834 172.006C279.444 171.855 279.017 171.867 278.634 172.036C278.251 172.206 277.958 172.515 277.808 172.905L277.485 173.743L277.169 173.72C276.756 173.69 276.339 173.701 275.93 173.752L275.615 173.791L275.251 172.97C274.9 172.179 273.972 171.822 273.181 172.173C272.798 172.343 272.505 172.652 272.355 173.043C272.204 173.434 272.215 173.86 272.385 174.242L272.749 175.063L272.509 175.271C272.197 175.541 271.909 175.842 271.655 176.169L271.46 176.419L270.622 176.096C269.929 175.829 269.136 176.09 268.737 176.715C268.681 176.804 268.633 176.898 268.596 176.995C268.445 177.386 268.456 177.812 268.626 178.195C268.796 178.578 269.105 178.872 269.495 179.022L270.333 179.345L270.31 179.661C270.28 180.073 270.291 180.49 270.341 180.9L270.381 181.215L269.56 181.58C268.77 181.93 268.412 182.859 268.763 183.649C268.933 184.031 269.242 184.325 269.633 184.476C270.024 184.626 270.45 184.616 270.833 184.446L271.654 184.081L271.861 184.321C272.131 184.633 272.433 184.921 272.759 185.175L273.009 185.37L272.686 186.208C272.376 187.015 272.78 187.924 273.587 188.235C273.977 188.385 274.404 188.374 274.786 188.204C275.169 188.034 275.463 187.726 275.613 187.335L275.936 186.497L276.252 186.52C276.665 186.55 277.082 186.539 277.491 186.489L277.806 186.45L278.17 187.271C278.521 188.061 279.449 188.418 280.239 188.067C280.622 187.897 280.916 187.589 281.066 187.197C281.217 186.807 281.206 186.38 281.036 185.997L280.671 185.176L280.911 184.969C281.224 184.699 281.511 184.397 281.765 184.071L281.961 183.821L282.799 184.144C283.606 184.455 284.514 184.051 284.825 183.244C284.862 183.149 284.889 183.05 284.907 182.948L284.915 182.9C284.956 182.609 284.915 182.314 284.794 182.044C284.624 181.661 284.316 181.367 283.925 181.217L283.087 180.894L283.11 180.578C283.14 180.166 283.129 179.748 283.079 179.339L283.039 179.024L283.861 178.659C284.242 178.49 284.535 178.18 284.687 177.789C284.837 177.398 284.827 176.972 284.657 176.589C284.487 176.207 284.178 175.913 283.787 175.763C283.396 175.612 282.97 175.623 282.587 175.793L281.767 176.158L281.56 175.917C281.289 175.605 280.987 175.317 280.662 175.063L280.412 174.868L280.734 174.03C281.044 173.226 280.641 172.317 279.834 172.006ZM280.676 178.171C281.166 179.167 281.263 180.299 280.952 181.361C280.919 181.475 280.879 181.592 280.834 181.708C279.959 183.982 277.397 185.12 275.123 184.245C272.85 183.369 271.711 180.807 272.587 178.533C272.632 178.416 272.682 178.302 272.735 178.192C273.214 177.2 274.046 176.426 275.076 176.016C276.112 175.603 277.257 175.597 278.298 175.998C279.34 176.398 280.184 177.17 280.676 178.171Z" fill="#2525AD"/>
</g>
<defs>
<clipPath id="clip0_95_1454">
<rect width="350" height="278" fill="white"/>
</clipPath>
</defs>
</svg>
