<svg width="40" height="40" viewBox="0 0 40 40" fill="none" xmlns="http://www.w3.org/2000/svg">
<g clip-path="url(#clip0_8252_52886)">
<rect width="40" height="40" rx="4" fill="#FFF9F4"/>
<path d="M22.3002 18.2188H9.30028C8.47529 18.2188 7.80029 18.8937 7.80029 19.7187C7.80029 20.5437 8.47529 21.2187 9.30028 21.2187H22.3002C23.1252 21.2187 23.8002 20.5437 23.8002 19.7187C23.8002 18.8937 23.1252 18.2188 22.3002 18.2188Z" fill="#F6B97B"/>
<path d="M30.3003 21.2187C31.1287 21.2187 31.8003 20.5472 31.8003 19.7187C31.8003 18.8903 31.1287 18.2188 30.3003 18.2188C29.4719 18.2188 28.8003 18.8903 28.8003 19.7187C28.8003 20.5472 29.4719 21.2187 30.3003 21.2187Z" fill="#F6B97B"/>
<path d="M7.77539 4.50586C7.36523 4.50586 6.99805 4.58008 6.67383 4.72852C6.35352 4.87695 6.08203 5.0918 5.85938 5.37305C5.63672 5.65039 5.4668 5.98828 5.34961 6.38672C5.23242 6.78125 5.17383 7.22656 5.17383 7.72266C5.17383 8.38672 5.26758 8.95898 5.45508 9.43945C5.64258 9.91602 5.92773 10.2832 6.31055 10.541C6.69336 10.7949 7.17773 10.9219 7.76367 10.9219C8.12695 10.9219 8.48047 10.8867 8.82422 10.8164C9.16797 10.7461 9.52344 10.6504 9.89062 10.5293V11.7246C9.54297 11.8613 9.19141 11.9609 8.83594 12.0234C8.48047 12.0859 8.07031 12.1172 7.60547 12.1172C6.73047 12.1172 6.00391 11.9355 5.42578 11.5723C4.85156 11.209 4.42188 10.6973 4.13672 10.0371C3.85547 9.37695 3.71484 8.60352 3.71484 7.7168C3.71484 7.06836 3.80469 6.47461 3.98438 5.93555C4.16406 5.39648 4.42578 4.93164 4.76953 4.54102C5.11328 4.14648 5.53711 3.84375 6.04102 3.63281C6.54883 3.41797 7.12891 3.31055 7.78125 3.31055C8.21094 3.31055 8.63281 3.35938 9.04688 3.45703C9.46484 3.55078 9.85156 3.68555 10.207 3.86133L9.71484 5.02148C9.41797 4.88086 9.10742 4.75977 8.7832 4.6582C8.45898 4.55664 8.12305 4.50586 7.77539 4.50586Z" fill="#F6B97B"/>
</g>
<rect x="0.5" y="0.5" width="39" height="39" rx="3.5" stroke="#FDEDD7"/>
<defs>
<clipPath id="clip0_8252_52886">
<rect width="40" height="40" rx="4" fill="white"/>
</clipPath>
</defs>
</svg>
