<svg width="500" height="300" viewBox="0 0 500 300" fill="none" xmlns="http://www.w3.org/2000/svg">
<g clip-path="url(#clip0_5462_33631)">
<path d="M481.086 231.31C480.341 238.796 478.631 245.194 475.936 250.215C473.615 254.525 470.464 258.079 466.129 260.272C464.601 261.035 463.058 261.396 460.226 261.839H75.9529C74.6646 261.415 43.1525 262.784 41.6687 262.159C25.5359 255.375 -3.44392 225.768 28.7563 175.142C55.0056 133.872 23.0503 113.987 59.5273 77.3073C101.228 35.3746 173.749 81.1448 236.504 65.6852C280.933 54.7364 328.456 13.1162 396.43 29.3049C457.518 43.8523 456.087 72.9346 458.531 116.582C459.646 136.334 464.184 146.024 466.434 151.962C466.438 151.966 466.438 151.966 466.44 151.971C470.667 163.11 473.854 173.461 476.28 183.341C479.931 198.286 482.621 215.943 481.086 231.31Z" fill="#FFF9F4"/>
<path d="M476.28 183.342C473.854 173.462 470.667 163.111 466.44 151.972C466.438 151.966 466.438 151.966 466.434 151.963C464.777 147.588 461.887 141.246 460.004 130.112H406.928V162.154H318.792V196.779H239.628V224.996H180.314V261.615H461.564C463.218 261.315 464.633 261.019 466.129 260.272C476.226 255.168 479.962 242.584 481.086 231.31C481.289 229.284 481.422 227.176 481.484 224.996C481.869 211.365 479.516 196.589 476.28 183.342Z" fill="#FDEDD7"/>
<path d="M54.634 261.374H60.6852C60.6401 261.056 60.4857 260.092 60.2025 259.201C60.1044 258.892 59.9899 258.591 59.8599 258.33C59.2714 257.156 55.5332 257.903 55.5332 257.903C55.5332 257.903 55.186 258.201 54.9149 259.336C54.7949 259.837 54.6892 260.501 54.634 261.374Z" fill="#335599"/>
<path d="M65.7425 168.942C65.7425 168.942 70.5645 169.79 71.6547 172.636C72.7447 175.48 78.9035 221.455 78.9035 221.455C78.9035 221.455 75.8539 223.871 69.3073 223.003C62.7611 222.136 65.7425 168.942 65.7425 168.942Z" fill="#FDEDD7"/>
<path d="M72.92 259.463C72.9363 260.288 73.0401 261.067 73.3388 261.374H85.3078C85.1557 260.941 84.7249 260.289 83.4961 260.09C82.0999 259.864 79.9235 259.192 78.6526 257.849C78.1997 257.371 77.8626 256.807 77.7149 256.15C77.1517 253.643 73.0588 256.919 73.0588 256.919C73.0588 256.919 72.8934 258.239 72.92 259.463Z" fill="#335599"/>
<path d="M78.0744 258.247C76.7367 258.672 74.1805 259.976 72.5562 259.362C71.5069 258.967 65.6404 241.997 65.2597 234.575C65.2318 234.034 65.1255 233.282 64.9594 232.363C64.6119 230.448 64.0041 227.816 63.3043 224.91C61.4268 217.127 58.8876 207.391 58.9426 204.279C59.0277 199.448 73.3373 203.266 73.3373 203.266C73.3373 203.266 74.3216 207.229 74.5179 212.965C74.9063 224.352 75.9746 243.586 78.8805 256.943C79.0037 257.51 78.6291 258.069 78.0744 258.247Z" fill="#ED7424"/>
<path d="M68.1428 204.294L60.5782 259.12C60.5782 259.12 57.2562 259.923 54.6723 259.282C54.6723 259.282 52.4576 230.122 52.6422 223.072C52.8268 216.024 51.0528 204.21 53.0471 202.906C55.0415 201.604 68.1428 204.294 68.1428 204.294Z" fill="#F19146"/>
<path d="M52.0908 171.455C52.0908 171.455 60.0405 166.314 65.7425 168.943C66.6512 169.361 67.6877 170.53 68.4297 171.349C70.4907 173.619 74.5182 209.697 74.5182 209.697C74.5182 209.697 63.0855 213.569 52.0908 208.383V171.455Z" fill="white"/>
<path d="M66.1949 168.812C66.1949 168.812 74.243 172.109 75.333 174.643C76.423 177.179 79.9657 192.741 79.9657 194.565C79.9657 196.39 73.7971 194.973 72.8042 192.03C71.9796 189.586 69.1983 182.078 67.7316 177.33L66.1949 168.812Z" fill="#FDEDD7"/>
<path d="M64.5234 171.326C62.7666 171.671 60.1858 171.303 58.2963 170.059C59.1492 168.02 59.4989 166.411 59.6235 165.372C59.6307 165.316 59.6361 165.262 59.6416 165.21C59.6979 164.671 59.6898 164.305 59.6634 164.136H64.2056C64.2056 164.136 65.4473 164.704 65.4473 165.097C65.4473 165.307 65.4493 165.506 65.4529 165.698C65.4619 166.221 65.4829 166.677 65.51 167.069C65.5964 168.344 65.7425 168.943 65.7425 168.943C65.7425 168.943 66.2976 170.978 64.5234 171.326Z" fill="#FFB27D"/>
<path d="M65.51 167.067C62.069 167.732 60.0714 165.852 59.6235 165.37C59.5599 165.3 59.5273 165.259 59.5273 165.259C59.5635 165.241 59.6016 165.225 59.6417 165.209C60.9226 164.69 63.8295 165.103 65.4529 165.697C65.4619 166.22 65.4829 166.676 65.51 167.067Z" fill="#E2915A"/>
<path d="M58.4994 163.389C59.1145 166.698 63.3848 166.59 65.2303 166.382C65.7496 166.325 66.0763 166.258 66.0763 166.258C66.6619 166.102 66.9885 165.179 67.1404 163.97C67.4418 161.58 67.0611 158.07 66.6574 157.172C66.0493 155.821 64.9042 154.361 60.6039 155.415C56.3027 156.47 57.7104 159.149 58.4994 163.389Z" fill="#FFB27D"/>
<path d="M66.8173 155.325C66.2296 154.511 64.9833 153.517 63.8515 152.904C61.4198 151.59 58.3076 152.947 58.2945 152.953C54.7818 154.497 53.8645 157.183 55.7269 161.371C57.6962 165.798 59.5713 165.299 59.5713 165.299C59.5713 165.299 59.1732 165.051 59.2093 163.672C59.2112 163.593 59.2145 163.528 59.2181 163.472C59.236 163.189 59.1364 162.905 58.9252 162.716C58.4888 162.327 58.276 161.149 58.6414 160.822C59.0823 160.427 59.7017 160.906 59.8994 161.276C60.0723 161.536 60.3819 161.628 60.6703 161.447C61.7635 160.755 61.0535 159.373 62.0981 158.527C63.1427 157.681 65.2626 158.392 66.8297 157.717C68.8812 156.954 67.2602 155.939 66.8173 155.325Z" fill="#233862"/>
<path d="M67.3067 224.834C66.6144 225.012 65.9295 225.157 65.2482 225.27C64.6459 225.373 64.0463 225.45 63.4458 225.5C60.0439 225.797 56.6262 225.317 52.6319 224.171C51.7326 223.915 50.8033 223.622 49.8384 223.297C49.7359 223.263 50.101 212.7 50.5226 201.805C50.5652 200.681 50.6097 199.552 50.6533 198.431C50.6724 197.955 50.6907 197.483 50.7097 197.012C51.0921 187.376 51.471 178.674 51.5509 178.205C51.7335 177.146 51.9043 176.241 52.0905 175.458C52.6346 173.176 53.3105 171.924 54.7839 170.846C54.9274 170.739 56.1058 170.144 57.145 169.627C58.0063 169.2 58.7711 168.826 58.7711 168.826C58.772 168.826 58.772 168.826 58.772 168.826C59.1144 168.993 59.526 169.78 59.9566 170.881C60.7478 172.912 61.6017 176.022 62.1958 178.346C62.1977 178.351 62.1986 178.356 62.1986 178.358C62.5809 179.858 62.8553 181.027 62.9335 181.361C63.0662 181.928 63.2414 183.023 63.4478 184.509C63.7275 186.529 64.0619 189.273 64.4151 192.387C64.4514 192.706 64.4879 193.029 64.5241 193.358C64.566 193.73 64.6085 194.109 64.6504 194.489C64.664 194.613 64.6777 194.735 64.6904 194.857C64.8267 196.091 64.9637 197.364 65.1 198.657C65.2137 199.726 66.8353 200.5 66.947 201.586C67.0114 202.225 67.1463 208.117 67.3198 209.998C67.4442 211.341 67.3557 224.202 67.3067 224.834Z" fill="#FDEDD7"/>
<path d="M55.5739 182.09C55.5687 182.112 55.2983 191.834 62.6112 193.016C69.924 194.195 65.0651 194.508 65.0651 194.508C65.0651 194.508 51.306 193.924 51.0788 193.56C50.8516 193.197 55.5739 182.09 55.5739 182.09Z" fill="#9DB0F4"/>
<path d="M61.7526 197.188C61.7526 197.188 61.6154 197.285 61.3519 197.455C61.3474 197.457 61.3428 197.461 61.3383 197.463C60.2228 198.175 56.9116 200.117 52.0905 201.419C51.5845 201.555 51.0614 201.684 50.5226 201.805C50.5652 200.681 50.6097 199.551 50.6534 198.43C50.0166 198.38 49.4071 198.299 48.8411 198.179C48.8601 198.032 48.8802 197.883 48.8991 197.736C49.5123 197.484 50.122 197.242 50.7097 197.012C51.1885 196.825 51.6518 196.645 52.0905 196.48C54.0709 195.728 55.5389 195.22 55.5389 195.22L61.401 197.076L61.7526 197.188Z" fill="#9DB0F4"/>
<path d="M63.3041 197.024C63.3041 197.024 62.5509 197.212 61.3519 197.455C61.3474 197.455 61.3437 197.455 61.3392 197.457C59.128 197.9 55.4108 198.523 52.0905 198.491C51.6008 198.486 51.1193 198.466 50.6533 198.43C50.0166 198.38 49.4071 198.299 48.8411 198.179C47.6273 197.924 46.6109 197.489 45.9459 196.812C41.0067 191.78 48.6412 173.726 50.2464 171.968C52.1205 169.917 55.5407 169.197 57.4293 168.951C57.5083 168.94 57.5837 168.931 57.6573 168.922C58.3214 168.841 58.7475 168.825 58.7711 168.825C58.772 168.825 58.7719 168.825 58.7719 168.825C58.7719 168.825 58.6238 169.301 58.3758 170.109C58.2796 170.422 58.1679 170.784 58.0452 171.188C56.8852 174.986 54.6467 182.453 53.6603 186.664C53.2987 188.205 53.1053 189.309 53.1933 189.64C53.5784 191.076 57.5692 191.816 60.0974 192.143C61.152 192.279 61.9524 192.344 62.1315 192.358C62.144 192.358 62.1559 192.358 62.1686 192.36L62.3148 192.96L62.6646 194.398L63.0089 195.81L63.3041 197.024Z" fill="#FDEDD7"/>
<path d="M77.0797 205.681L60.1168 204.966L63.5582 183.826L80.5213 184.541L77.0797 205.681Z" fill="#ED7424"/>
<path d="M62.1686 192.362C62.1686 192.362 65.4706 192.132 65.6364 192.902C66.0223 194.696 62.7975 196.169 61.7527 196.068C60.7081 195.968 61.4086 192.242 62.1686 192.362Z" fill="#FFB27D"/>
<path d="M79.5937 188.833C79.5937 188.833 76.4344 187.846 76.0954 188.557C75.3047 190.212 78.1015 192.392 79.1412 192.536C80.1808 192.68 80.3609 188.892 79.5937 188.833Z" fill="#FFB27D"/>
<path d="M59.1146 167.765C59.1146 167.765 57.5474 168.036 56.851 169.036C56.851 169.036 62.2216 178.44 62.1984 178.356C62.1752 178.271 60.4431 168.919 59.1146 167.765Z" fill="#9DB0F4"/>
<path d="M65.582 167.893C66.0394 168.065 66.9165 168.963 67.1142 169.46L67.7316 177.331C67.7316 177.331 66.4135 171.554 65.7426 168.943C65.5722 168.28 65.6034 168.078 65.582 167.893Z" fill="#9DB0F4"/>
<path d="M69.1814 184.063C69.1814 184.063 69.3154 183.476 70.0876 183.544C70.8597 183.612 75.1976 183.826 75.1976 183.826C75.1976 183.826 76.0342 183.812 75.9565 184.349L69.1814 184.063Z" fill="#C65447"/>
<path d="M360.944 160.227H318.527C316.686 160.227 315.194 161.719 315.194 163.56C315.194 165.402 316.686 166.895 318.527 166.895H360.944C362.785 166.895 364.277 165.402 364.277 163.56C364.277 161.719 362.785 160.227 360.944 160.227Z" fill="#6980E2"/>
<path d="M203.699 218.327H171.264C169.58 218.327 168.213 219.694 168.213 221.378V221.942C168.213 223.627 169.58 224.993 171.264 224.993H203.699C205.385 224.993 206.75 223.627 206.75 221.942V221.378C206.75 219.694 205.385 218.327 203.699 218.327Z" fill="#6980E2"/>
<path d="M176.858 241.996C177.149 242.33 177.186 242.701 177.043 243.098C177.043 243.1 177.041 243.102 177.039 243.104C176.773 243.838 175.895 244.657 174.875 245.476C174.746 245.582 174.629 245.677 174.529 245.767C174.502 245.79 174.475 245.813 174.451 245.837C174.43 245.855 174.41 245.873 174.39 245.891C173.44 246.767 173.798 246.968 172.088 248.746C170.142 250.773 168.8 250.809 168.418 250.626C168.094 250.468 168.752 249.392 169.477 248.184C169.513 248.126 169.547 248.067 169.583 248.008C169.68 247.848 169.777 247.685 169.872 247.523C170.725 246.068 170.506 245.386 170.303 243.222C170.14 241.464 167.568 233.398 167.568 233.398L171.302 232.755C171.302 232.755 172.426 239.178 173.665 240.168C174.326 240.694 175.067 240.701 175.705 241.091C175.75 241.119 175.795 241.146 175.838 241.175C176.199 241.416 176.567 241.662 176.858 241.996Z" fill="#FFB27D"/>
<path d="M176.858 241.996C177.149 242.33 177.186 242.701 177.043 243.098C177.043 243.1 177.041 243.102 177.039 243.104C176.714 243.836 175.857 244.653 174.872 245.469C174.744 245.576 174.629 245.675 174.529 245.767C174.502 245.79 174.475 245.813 174.451 245.837C174.43 245.855 174.41 245.873 174.39 245.891C173.44 246.767 173.798 246.968 172.088 248.746C170.142 250.773 168.8 250.809 168.418 250.626C168.094 250.468 168.752 249.392 169.477 248.184C169.858 248.046 171.619 247.331 172.95 245.625C174.123 244.129 174.906 242.206 175.705 241.091C175.75 241.119 175.795 241.146 175.838 241.175C176.199 241.416 176.567 241.662 176.858 241.996Z" fill="#233862"/>
<path d="M146.755 239.665C146.524 240.818 144.882 240.625 143.046 240.176C141.211 239.727 141.647 240.261 139.035 239.972C136.424 239.683 135.632 238.709 135.553 238.32C135.481 237.975 136.772 237.855 138.156 237.695C138.33 237.675 138.505 237.653 138.68 237.632C140.243 237.436 141.388 236.427 142.807 235.599C144.152 234.814 146.159 231.618 146.159 231.618L149.741 231.902C149.741 231.902 147.861 234.757 147.134 235.998C146.706 236.729 146.729 237.693 146.782 238.438C146.81 238.844 146.837 239.259 146.755 239.665Z" fill="#FFB27D"/>
<path d="M143.046 240.176C141.211 239.727 141.647 240.261 139.035 239.972C136.424 239.683 135.632 238.709 135.553 238.32C135.481 237.975 136.772 237.855 138.156 237.695L138.169 237.722C138.169 237.722 139.735 238.831 141.91 238.883C143.682 238.927 145.559 238.418 146.782 238.438C146.81 238.844 146.837 239.259 146.755 239.665C146.524 240.818 144.882 240.625 143.046 240.176Z" fill="#233862"/>
<path d="M160.482 216.761L163.831 225.772L168.202 237.536C168.202 237.536 169.389 237.651 170.524 237.324C171.571 237.022 172.771 236.231 172.771 236.231C172.771 236.231 171.557 223.599 169.292 216.348C168.712 214.486 168.062 212.981 167.344 212.133C163.833 207.983 160.482 216.761 160.482 216.761Z" fill="#233862"/>
<path d="M163.887 202.45C166.08 201.742 172.338 202.651 178.623 203.881L179.939 201.712L193.515 200.65C193.515 200.65 197.994 210.585 195.543 216.915C195.182 217.847 194.465 218.443 193.244 218.463H193.046C193.046 218.463 184.966 218.457 182.342 218.457C175.59 218.457 168.053 213.817 167.078 213.621C165.483 213.302 164.844 216.494 163.248 219.845C161.653 223.196 148.247 234.687 148.247 234.687C148.247 234.687 146.187 234.707 145.336 234.389C144.42 234.044 144.085 233.599 144.085 233.599C144.085 233.599 158.939 204.046 163.887 202.45Z" fill="#F19146"/>
<path d="M176.157 182.835C180.438 186.317 190.753 192.351 190.811 192.326C190.811 192.326 194.115 194.305 196.369 193.333C200.127 191.713 203.013 186.046 197.814 179.775C195.223 176.647 193.073 175.618 193.578 171.459C194.124 166.955 192.091 161.29 186.905 161.053C186.472 161.033 183.847 160.683 181.972 161.27C177.195 162.769 169.21 180.528 176.157 182.835Z" fill="#A9453D"/>
<path d="M190.198 177.571C190.222 177.575 189.155 179.897 187.605 180.461C185.957 181.062 183.617 180.085 183.638 180.073C183.919 179.911 184.118 178.855 184.01 177.584C184.003 177.525 183.999 177.464 183.992 177.401C183.847 175.98 183.436 174.423 183.409 174.321C183.409 174.319 183.409 174.317 183.409 174.317L188.433 172.881L188.729 172.795C189.045 176.765 189.516 177.496 190.198 177.571Z" fill="#FFB27D"/>
<path d="M188.433 172.881C187.945 174.341 186.702 176.979 183.992 177.401C183.847 175.981 183.436 174.424 183.409 174.322C183.409 174.32 183.409 174.318 183.409 174.318L188.433 172.881Z" fill="#ED975D"/>
<path d="M182.572 175.83C182.572 175.83 189.345 175.381 188.999 171.166C188.654 166.954 189.295 164.059 184.957 164.167C180.618 164.276 179.911 165.953 179.684 167.388C179.458 168.821 180.801 175.839 182.572 175.83Z" fill="#FFB27D"/>
<path d="M181.354 164.092C181.354 164.092 183.037 169.029 187.032 169.603C189.947 170.022 191.105 169.233 191.105 169.233C191.105 169.233 189.478 167.687 188.597 165.309C188.336 164.609 187.722 164.099 186.984 163.984C184.908 163.665 182.231 162.291 181.354 164.092Z" fill="#A9453D"/>
<path d="M182.791 164.966C182.791 164.966 181.581 165.454 180.738 167.261C180.277 168.247 179.943 170.596 180.228 171.565C180.228 171.565 178.28 167.06 179.691 165.029C181.185 162.876 182.791 164.966 182.791 164.966Z" fill="#A9453D"/>
<path d="M195.837 193.12C195.717 193.632 195.613 194.103 195.53 194.535C195.392 195.237 195.297 195.841 195.23 196.374C195.024 198.035 195.086 199.019 194.946 200.097C194.869 200.698 194.727 201.33 194.442 202.124C194.162 202.895 186.822 203.582 182.645 203.306C181.32 203.22 180.309 203.033 179.952 202.722C178.461 201.429 178.61 204.276 178.406 190.658C178.307 184.018 184.041 178.102 184.041 178.102C184.041 178.102 184.499 180.94 190.186 177.562C190.389 177.445 192.628 180.76 194.783 184.845C197.159 189.356 196.507 190.31 195.837 193.12Z" fill="#FDEDD7"/>
<path d="M163.831 225.772L168.202 237.536C168.202 237.536 169.389 237.651 170.524 237.324C171.571 237.022 172.771 236.231 172.771 236.231C172.771 236.231 171.557 223.599 169.292 216.348L163.831 225.772Z" fill="#F19146"/>
<path d="M184.041 178.101C184.041 178.101 178.188 179.094 177.502 181.614C176.815 184.133 172.067 198.223 172.067 198.223C172.067 198.223 175.746 199.478 177.12 198.104C178.494 196.73 181.902 185.354 181.902 185.354L184.041 178.101Z" fill="#FDEDD7"/>
<path d="M183.703 173.123C183.703 173.123 183.538 173.854 182.8 173.976C182.062 174.098 181.845 174.021 181.678 173.888C181.512 173.755 181.324 173.477 181.324 173.477C181.324 173.477 182.507 173.033 183.703 173.123Z" fill="white"/>
<path d="M195.23 196.374C195.024 198.035 195.086 199.019 194.946 200.097C189.635 200.113 182.531 195.993 182.531 195.993L195.23 196.374Z" fill="#94B0ED"/>
<path d="M182.531 192.508C182.531 192.508 190.807 192.262 192.203 187.557C193.736 182.389 195.453 189.683 195.453 189.683L194.539 194.338H185.458L182.531 192.508Z" fill="#94B0ED"/>
<path d="M184.211 200.311L171.368 200.432L165.049 185.581L177.892 185.46L184.211 200.311Z" fill="#F9DDBF"/>
<path d="M182.53 193.6L181.59 192.444C181.59 192.444 180.952 191.874 180.491 191.777C180.029 191.682 179.052 191.118 178.957 191.276C178.864 191.436 179.708 192.567 179.708 192.567L179.751 192.573C178.781 193.302 176.333 192.659 176.03 192.957C175.665 193.316 176.534 194.096 177.001 194.534C177.468 194.972 178.804 195.701 179.846 195.378C180.605 195.141 181.803 194.9 181.803 194.9L182.53 193.6Z" fill="#FFB27D"/>
<path d="M190.186 177.564C190.186 177.564 195.561 177.916 196.904 180.011C198.247 182.107 199.912 192.745 199.213 196.399C198.515 200.054 181.309 195.701 181.309 195.701L181.857 192.531C181.857 192.531 191.788 192.589 192.353 191.296C193.106 189.576 190.186 177.564 190.186 177.564Z" fill="#FDEDD7"/>
<path d="M166.015 188.194C166.015 188.194 166.823 187.276 167.337 187.716C167.848 188.156 167.202 190.32 166.712 190.101C166.223 189.88 165.733 188.461 166.015 188.194Z" fill="#FFB27D"/>
<path d="M304.051 190.478C304.051 190.478 304.558 196.774 303.432 196.856C303.281 196.867 297.714 196.867 297.714 196.867L290.606 196.826C290.606 196.826 290.653 195.115 292.731 194.752C294.808 194.389 298.919 192.642 300.178 189.896C301.501 187.007 304.051 190.478 304.051 190.478Z" fill="#163560"/>
<path d="M346.889 157.035C346.889 157.035 346.844 158.214 346.702 159.716C346.404 162.878 343.754 165.297 340.579 165.297C340.579 165.297 325.457 165.036 320.425 165.297C318.758 165.383 314.386 165.922 313.834 166.329C313.139 166.843 316.253 171.941 304.581 191.863L298.863 191.718C298.863 191.718 303.877 159.737 306.691 158.204C310.325 156.223 326.089 153.109 329.273 153.016C332.456 152.922 346.889 157.035 346.889 157.035Z" fill="#F19146"/>
<path d="M331.532 123.074C329.592 124.275 329.483 126.669 329.483 126.669C334.214 127.892 341.098 122.639 341.098 122.639C341.098 122.639 338.052 120.594 336.924 116.097C336.867 115.871 336.815 115.638 336.77 115.399C336.621 114.643 336.529 113.822 336.513 112.937L334.34 114.885L330.725 118.123C330.725 118.123 330.808 119.466 331.26 121.777C331.338 122.18 331.429 122.612 331.532 123.074Z" fill="#FFB27D"/>
<path d="M328.859 147.912C329.021 148.967 328.694 149.813 328.536 150.598C328.475 150.9 328.437 151.189 328.464 151.48C328.525 152.173 328.515 152.724 328.464 153.171C328.306 154.608 327.76 154.996 328.01 155.714C328.01 155.714 329.12 156.362 331.156 157.135C332.043 157.47 333.105 157.828 334.326 158.165C334.39 158.183 334.453 158.203 334.518 158.219C339.248 159.498 344.219 159.771 345.625 159.733C348.309 159.659 348.85 152.859 347.855 144.293C346.303 130.947 344.206 124.479 338.682 119.801C338.332 119.508 338.567 120.51 336.709 121.406C334.994 122.229 332.923 122.424 331.318 122.067L330.054 123.362C327.545 127.329 327.281 132.035 327.493 135.957C327.712 139.953 328.161 143.302 328.572 146.044C328.675 146.701 328.768 147.324 328.859 147.912Z" fill="#F19146"/>
<path d="M330.725 118.123C330.725 118.123 330.533 117.92 330.986 120.231C334.988 119.073 336.292 117.033 336.827 115.681C336.98 115.3 335.339 115.096 334.34 114.885L330.725 118.123Z" fill="#ED975D"/>
<path d="M328.865 118.133C328.865 118.133 336.588 119.239 337.204 114.417C337.819 109.598 339.23 106.494 334.324 105.584C329.418 104.674 328.224 106.39 327.628 107.951C327.031 109.51 326.872 117.722 328.865 118.133Z" fill="#FFB27D"/>
<path d="M290.678 149.033L290.085 149.209L285.451 133.679L286.043 133.501L290.678 149.033Z" fill="#ED7424"/>
<path d="M307.095 148.24L290.087 148.193L290.086 149.209L307.091 149.258L307.095 148.24Z" fill="#ED7424"/>
<path d="M339.668 105.679C339.731 105.608 339.875 105.55 340.193 105.53C340.193 105.53 339.936 105.372 339.593 105.367C339.521 104.92 339.278 104.132 338.508 103.947C338.508 103.947 338.923 104.164 338.98 104.638C338.083 103.731 336.172 103.081 330.896 103.539C323.943 104.142 326.272 108.58 327.177 109.102C328.082 109.627 330.337 108.152 332.016 108.273C333.695 108.393 334.033 110.815 334.606 111.144C335.177 111.473 334.949 110.885 335.716 110.532C336.484 110.176 336.567 111.453 336.351 112.284C336.136 113.116 337.203 114.202 337.203 114.202C337.203 114.202 337.203 114.202 338.262 113.042C339.392 111.807 340.417 106.353 339.684 105.809C339.677 105.759 339.674 105.73 339.668 105.679Z" fill="#2C3A64"/>
<path d="M328.464 151.48C328.525 152.173 328.515 152.725 328.464 153.172C339.424 150.667 339.92 135.485 339.97 135.225L328.899 144.971C328.899 144.971 328.759 145.393 328.572 146.045C328.675 146.702 328.768 147.325 328.859 147.912C329.021 148.968 328.694 149.814 328.536 150.599C328.475 150.9 328.437 151.189 328.464 151.48Z" fill="#ED7424"/>
<path d="M312.053 148.648C312.053 148.648 311.346 148.763 310.597 148.413C309.85 148.061 307.269 146.953 306.786 147.106C306.301 147.256 304.719 148.151 304.347 148.32C303.974 148.488 303.317 149.359 303.317 149.359C303.59 149.636 304.534 149.731 304.963 149.744C305.393 149.756 308.578 150.758 309.521 150.796C310.464 150.834 311.933 150.641 311.933 150.641L312.053 148.648Z" fill="#FFB27D"/>
<path d="M310.597 148.412C310.597 148.412 309.566 147.457 309.223 146.997C309.223 146.997 309.016 147.09 309.009 147.265C308.995 147.556 309.279 148.091 309.279 148.091L310.597 148.412Z" fill="#FFB27D"/>
<path d="M330.9 125.608C336.571 122.153 343.267 128.191 340.451 134.206C337.188 141.181 331.754 149.689 327.436 150.192C324.358 150.549 315.564 151.677 311.838 150.982C311.838 150.982 310.033 151.072 311.012 148.165C311.012 148.165 323.049 144.81 325.047 142.21C326.119 140.815 327.944 137.992 330.767 125.691C330.779 125.641 330.855 125.635 330.9 125.608Z" fill="#F19146"/>
<path d="M447.87 128.463H406.14C404.299 128.463 402.807 129.955 402.807 131.798C402.807 133.639 404.299 135.131 406.14 135.131H447.87C449.71 135.131 451.203 133.639 451.203 131.798C451.203 129.955 449.71 128.463 447.87 128.463Z" fill="#6980E2"/>
<path d="M405.19 114.867C405.19 114.867 405.874 114.503 406.476 114.452C409.861 114.169 417.204 111.671 417.981 111.098C419.416 110.04 425.417 105.014 427.784 102.475C427.786 102.473 429.767 100.155 429.767 100.155C432.006 97.7536 429.987 93.5516 429.987 93.5516C429.987 93.5516 426.146 95.1731 424.756 96.7732C423.848 97.8183 416.895 106.391 416.027 106.813C413.204 108.182 405.199 112.858 404.364 113.224C404.364 113.224 403.279 113.975 405.19 114.867Z" fill="#FFB27D"/>
<path d="M384.007 156.354C384.007 156.354 384.46 162.372 383.427 162.451C383.289 162.46 378.189 162.451 378.189 162.451L371.679 162.397C371.679 162.397 371.724 160.761 373.628 160.418C375.533 160.077 379.302 158.412 380.461 155.791C381.68 153.032 384.007 156.354 384.007 156.354Z" fill="#163560"/>
<path d="M429.395 119.491C429.395 119.491 428.801 130.4 427.797 132.298C427.797 132.298 427.351 132.14 424.092 132.104C420.149 132.061 401.316 131.946 399.056 133.085C398.348 133.442 396.305 141.94 384.178 156.545C384.178 156.545 382.971 157.353 381.132 157.215C379.378 157.083 379.23 156.758 379.23 156.758C379.23 156.758 390.801 127.365 393.354 124.948C397.254 121.255 417.195 117.489 420.111 117.408C423.027 117.329 429.395 119.491 429.395 119.491Z" fill="#ED7D2B"/>
<path d="M397.504 156.637C397.504 156.637 397.957 162.405 396.924 162.479C396.786 162.489 391.686 162.479 391.686 162.479L385.176 162.428C385.176 162.428 385.221 160.859 387.126 160.532C389.03 160.203 392.799 158.611 393.957 156.096C395.175 153.453 397.504 156.637 397.504 156.637Z" fill="#163560"/>
<path d="M436.887 119.508C436.887 119.508 436.722 122.525 436.42 125.66C436.048 129.523 433.646 131.974 429.785 132.369C427.186 132.637 424.115 132.486 422.086 132.471C412.299 132.396 408.807 131.963 406.546 133.102C405.838 133.457 409.187 138.83 397.698 156.574C397.698 156.574 396.833 157.264 394.916 157.531C393.774 157.691 392.458 157.255 392.458 157.255C392.458 157.255 396.071 129.322 398.973 126.096C401.047 123.789 417.473 121.113 420.389 121.034C423.306 120.955 436.887 119.508 436.887 119.508Z" fill="#F99746"/>
<path d="M444.873 105.561C444.68 106.531 444.442 107.608 444.163 108.749C444.14 108.842 444.117 108.939 444.093 109.034C443.653 110.808 443.12 112.726 442.522 114.617C440.785 120.112 438.499 125.401 436.341 126.439C436.116 126.546 429.709 126.473 425.328 124.758C424.06 124.262 422.84 123.503 421.741 122.664C420.145 121.446 418.798 120.062 417.915 119.069C417.279 118.354 417.345 117.259 418.062 116.625C419.716 115.156 422.469 112.563 423.09 111.04C423.614 109.754 424.39 107.052 425.01 104.764C421.772 103.896 421.039 100.371 421.039 100.371C421.039 100.371 426.356 94.6052 428.019 93.5457C430.198 92.1612 433.076 91.9888 434.202 91.7985C436.969 91.328 440.685 91.5471 445.3 93.7612C446.491 94.3323 448.161 95.6181 449.278 97.8843C450.646 100.662 448.218 105.881 444.873 105.561Z" fill="#ED7424"/>
<path d="M437.065 95.9726C434.339 96.1719 434.107 93.9703 434.107 93.9703L434.172 92.5319V92.5122L434.245 90.7972C434.245 90.7972 434.385 90.7254 434.619 90.6033C435.265 90.2693 436.635 89.5689 437.779 89.041C438.774 88.5848 439.599 88.2562 439.633 88.4106C439.679 88.6405 439.749 88.9171 439.834 89.2205C439.837 89.2385 439.843 89.2547 439.846 89.2726C440.155 90.3806 440.662 91.819 441.188 92.5624C441.586 94.2181 439.792 95.7697 437.065 95.9726Z" fill="#FFB27D"/>
<path d="M404.364 113.224C404.364 113.224 402.742 113.495 401.895 113.218C401.047 112.942 395.859 114.93 396.482 114.978C397.104 115.028 400.21 114.574 400.934 114.637C401.658 114.7 402.044 114.734 401.76 114.992C401.476 115.251 399.465 115.319 400.167 115.544C400.868 115.768 402.591 115.709 403.326 115.551C404.06 115.393 404.856 115.041 405.343 114.791C405.887 114.511 404.364 113.224 404.364 113.224Z" fill="#FFB27D"/>
<path d="M439.888 89.2055C439.888 89.2055 439.873 89.2288 439.846 89.2719C439.559 89.7442 437.699 92.5402 434.172 92.5312V92.5115L434.245 90.7965C434.245 90.7965 434.385 90.7247 434.619 90.6026C435.062 90.4877 435.375 90.4176 435.375 90.4176L439.834 89.2199L439.888 89.2055Z" fill="#F2A16B"/>
<path d="M433.238 91.259C433.238 91.259 440.081 91.8911 440.412 87.6243C440.74 83.3558 441.845 80.5634 437.488 79.978C433.132 79.3926 432.157 80.9567 431.701 82.3538C431.245 83.7527 431.467 90.9842 433.238 91.259Z" fill="#FFAC73"/>
<path d="M442.858 79.6933C442.922 79.6233 443.068 79.5658 443.389 79.5496C443.389 79.5496 443.133 79.3862 442.788 79.3754C442.723 78.9265 442.49 78.131 441.717 77.9334C441.717 77.9334 442.131 78.1561 442.183 78.6338C441.294 77.7108 439.379 77.0302 434.068 77.4181C427.068 77.9299 429.347 82.4246 430.25 82.9634C431.153 83.5021 433.443 82.0511 435.129 82.1948C436.815 82.3384 437.122 84.7807 437.693 85.1183C438.264 85.4559 438.042 84.8633 438.819 84.5167C439.597 84.1719 439.661 85.4559 439.433 86.2891C439.205 87.1223 440.263 88.2285 440.263 88.2285C440.263 88.2285 440.263 88.2285 441.346 87.0774C442.427 85.9245 443.47 81.0239 442.987 79.9752C442.944 79.8818 442.903 79.7885 442.858 79.6933Z" fill="#2C3A64"/>
<path d="M443.018 102.495C443.018 102.495 438.498 115.298 437.029 116.424C435.562 117.55 421.068 120.54 421.068 120.54L419.394 123.044C419.394 123.044 435.874 124.882 440.414 121.51C442.558 119.919 449.71 106.508 449.71 106.508L443.018 102.495Z" fill="#FFB27D"/>
<path d="M448.484 96.6375C448.484 96.6375 450.818 99.4227 450.299 103.433C449.782 107.441 448.358 109.829 448.358 109.829L437.961 104.837L448.484 96.6375Z" fill="#ED7424"/>
<path d="M421.068 120.539C421.068 120.539 418.046 119.654 416.997 119.842C415.947 120.029 413.1 122.689 413.587 122.989C414.074 123.289 416.909 122.202 417.441 122.689C417.97 123.177 419.429 123.454 420.366 123.138C421.301 122.823 421.343 120.929 421.343 120.929L421.068 120.539Z" fill="#FFB27D"/>
<path d="M398.364 116.283L411.376 116.31C411.378 115.737 410.915 115.272 410.342 115.27L398.366 115.245L398.364 116.283Z" fill="#B24940"/>
<path d="M398.431 102.108L378.309 102.067L383.106 116.25L403.356 116.293L398.431 102.108Z" fill="#B24940"/>
<path d="M378.013 102.068L382.811 116.251L403.062 116.292L398.134 102.109L378.013 102.068Z" fill="#C65447"/>
<path d="M388.847 109.044C388.971 109.585 389.509 110.026 390.052 110.026C390.594 110.028 390.932 109.59 390.808 109.048C390.684 108.505 390.145 108.065 389.603 108.065C389.062 108.064 388.723 108.502 388.847 109.044Z" fill="#F9DDBF"/>
<path d="M475.936 250.216C473.615 254.526 470.464 258.079 466.129 260.272C464.633 261.019 463.22 261.315 461.564 261.615H119.335V257.86C119.335 253.638 122.759 250.216 126.981 250.216H475.936Z" fill="#FDEDD7"/>
<path d="M273.189 190.201H239.188C237.935 190.201 236.92 191.218 236.92 192.471V194.599C236.92 195.853 237.935 196.867 239.188 196.867H273.189C274.443 196.867 275.457 195.853 275.457 194.599V192.471C275.457 191.218 274.443 190.201 273.189 190.201Z" fill="#6980E2"/>
<path d="M273.257 153.154H323.092C323.95 153.154 324.645 152.458 324.645 151.601V151.157C324.645 150.109 323.794 149.258 322.745 149.258H273.257V153.154Z" fill="#F6B97B"/>
<path d="M450.197 72.3476C448.778 72.3476 447.627 73.4987 447.627 74.9173V135.131H452.971V75.1239C452.971 73.5903 451.729 72.3476 450.197 72.3476Z" fill="#F6B97B"/>
<path d="M366.518 120.127H412.919C413.887 120.127 414.672 119.342 414.672 118.374C414.672 117.189 413.713 116.23 412.527 116.23H366.518V120.127Z" fill="#F6B97B"/>
<path d="M130.189 185.158H129.949C128.595 185.158 127.496 186.255 127.496 187.611V250.215H132.841V187.809C132.841 186.345 131.653 185.158 130.189 185.158Z" fill="#F6B97B"/>
<path d="M127.496 200.159H170.458C171.426 200.159 172.21 199.374 172.21 198.407C172.21 197.223 171.251 196.262 170.066 196.262H127.496V200.159Z" fill="#F6B97B"/>
<path d="M146.573 193.904H137.967V190.864H146.601C147.272 190.864 147.816 191.408 147.816 192.08V192.662C147.816 193.348 147.26 193.904 146.573 193.904Z" fill="#FCECDB"/>
<path d="M155.162 192.116V192.572C155.162 192.816 155.097 193.046 154.982 193.242C154.751 193.639 154.322 193.904 153.831 193.904H137.703C137.597 193.904 137.51 193.818 137.51 193.71V193.642C137.51 193.536 137.597 193.45 137.703 193.45H147.534C147.587 193.385 147.633 193.317 147.672 193.242C147.764 193.069 147.816 192.872 147.816 192.662V192.08C147.816 191.974 147.803 191.87 147.776 191.771C147.732 191.604 147.654 191.449 147.549 191.318H137.703C137.597 191.318 137.51 191.232 137.51 191.126V191.058C137.51 190.95 137.597 190.864 137.703 190.864H153.912C154.483 190.864 154.965 191.247 155.114 191.771C155.146 191.88 155.162 191.995 155.162 192.116Z" fill="#699DEE"/>
<path d="M155.114 191.771H147.776C147.732 191.604 147.654 191.449 147.549 191.318H137.703C137.597 191.318 137.51 191.232 137.51 191.126V191.058C137.51 190.95 137.597 190.864 137.703 190.864H153.912C154.483 190.864 154.965 191.246 155.114 191.771Z" fill="#548EE2"/>
<path d="M137.967 192.385L139.161 192.435L137.967 192.466V192.385Z" fill="#F4D2B8"/>
<path d="M137.967 192.861L140.808 192.913L137.967 192.943V192.861Z" fill="#F4D2B8"/>
<path d="M140.02 196.261H149.181V193.896H139.945C139.313 193.896 138.8 194.409 138.8 195.041C138.8 195.715 139.346 196.261 140.02 196.261Z" fill="#ED7D2B"/>
<path d="M148.655 196.261H159.082V193.896H148.629C147.986 193.896 147.465 194.418 147.465 195.061V195.07C147.465 195.727 147.998 196.261 148.655 196.261Z" fill="#FCECDB"/>
<path d="M146.769 196.261H159.444C159.542 196.261 159.621 196.182 159.621 196.085C159.621 195.986 159.542 195.907 159.444 195.907H146.769C146.671 195.907 146.592 195.986 146.592 196.085C146.592 196.182 146.671 196.261 146.769 196.261Z" fill="#ED7D2B"/>
<path d="M146.769 194.251H159.444C159.542 194.251 159.621 194.172 159.621 194.075C159.621 193.976 159.542 193.897 159.444 193.897H146.769C146.671 193.897 146.592 193.976 146.592 194.075C146.592 194.172 146.671 194.251 146.769 194.251Z" fill="#ED7D2B"/>
<path d="M159.082 195.08L157.674 195.119L159.082 195.143V195.08Z" fill="#F4D2B8"/>
<path d="M159.082 194.536L155.731 194.575L159.082 194.599V194.536Z" fill="#F4D2B8"/>
<path d="M155.766 194.567C155.766 194.567 155.909 194.669 155.957 194.836C155.966 194.865 155.971 194.897 155.972 194.93C155.98 195.152 155.972 195.653 155.972 195.653L156.396 195.402L156.819 195.653V194.973C156.819 194.845 156.783 194.72 156.715 194.637C156.683 194.597 156.643 194.567 156.598 194.567H155.766Z" fill="#F99746"/>
<path d="M155.766 194.567C155.766 194.567 155.909 194.669 155.957 194.836L156.807 194.847C156.807 194.847 156.773 194.606 156.598 194.567H155.766Z" fill="#ED7D2B"/>
<path d="M216.262 168.16H209.041V165.12H216.287C216.907 165.12 217.408 165.621 217.408 166.241V167.014C217.408 167.647 216.894 168.16 216.262 168.16Z" fill="#FCECDB"/>
<path d="M223.648 166.37V166.828C223.648 167.072 223.592 167.3 223.494 167.498C223.298 167.893 222.933 168.16 222.517 168.16H208.817C208.727 168.16 208.653 168.072 208.653 167.966V167.898C208.653 167.792 208.727 167.704 208.817 167.704H217.167C217.212 167.641 217.251 167.571 217.286 167.498C217.363 167.323 217.408 167.126 217.408 166.916V166.336C217.408 166.228 217.395 166.124 217.374 166.025C217.336 165.858 217.269 165.705 217.18 165.574H208.817C208.727 165.574 208.653 165.488 208.653 165.382V165.312C208.653 165.206 208.727 165.12 208.817 165.12H222.585C223.07 165.12 223.479 165.502 223.607 166.025C223.634 166.135 223.648 166.251 223.648 166.37Z" fill="#699DEE"/>
<path d="M223.607 166.025H217.374C217.336 165.858 217.269 165.706 217.18 165.575H208.817C208.727 165.575 208.653 165.488 208.653 165.382V165.312C208.653 165.207 208.727 165.12 208.817 165.12H222.585C223.07 165.12 223.479 165.503 223.607 166.025Z" fill="#548EE2"/>
<path d="M209.041 166.639L210.056 166.691L209.041 166.722V166.639Z" fill="#F4D2B8"/>
<path d="M209.041 167.116L211.455 167.167L209.041 167.197V167.116Z" fill="#F4D2B8"/>
<path d="M210.873 170.518H218.566V168.153H210.805C210.221 168.153 209.749 168.625 209.749 169.208V169.393C209.749 170.013 210.252 170.518 210.873 170.518Z" fill="#ED7D2B"/>
<path d="M218.207 170.518H226.977V168.153H218.182C217.589 168.153 217.11 168.634 217.11 169.226V169.42C217.11 170.026 217.6 170.518 218.207 170.518Z" fill="#FCECDB"/>
<path d="M216.53 170.518H227.272C227.362 170.518 227.435 170.444 227.435 170.354V170.325C227.435 170.236 227.362 170.164 227.272 170.164H216.53C216.44 170.164 216.368 170.236 216.368 170.325V170.354C216.368 170.444 216.44 170.518 216.53 170.518Z" fill="#ED7D2B"/>
<path d="M216.53 168.507H227.272C227.362 168.507 227.435 168.433 227.435 168.343V168.316C227.435 168.227 227.362 168.153 227.272 168.153H216.53C216.44 168.153 216.368 168.227 216.368 168.316V168.343C216.368 168.433 216.44 168.507 216.53 168.507Z" fill="#ED7D2B"/>
<path d="M226.977 169.334L225.781 169.373L226.977 169.398V169.334Z" fill="#F4D2B8"/>
<path d="M226.977 168.79L224.131 168.829L226.977 168.854V168.79Z" fill="#F4D2B8"/>
<path d="M224.16 168.823C224.16 168.823 224.282 168.925 224.323 169.092C224.33 169.121 224.334 169.151 224.336 169.185C224.341 169.406 224.336 169.909 224.336 169.909L224.695 169.658L225.054 169.909V169.229C225.054 169.099 225.023 168.975 224.966 168.893C224.939 168.853 224.905 168.823 224.867 168.823H224.16Z" fill="#F99746"/>
<path d="M224.16 168.822C224.16 168.822 224.282 168.925 224.323 169.092L225.043 169.101C225.043 169.101 225.016 168.862 224.867 168.822H224.16Z" fill="#ED7D2B"/>
<path d="M238.973 173.752L231.998 181.761L241.007 179.121L238.973 173.752Z" fill="#F99746"/>
<path d="M231.558 169.296L231.219 169.138L234.268 162.503L234.609 162.659L231.558 169.296Z" fill="#F19146"/>
<path d="M231.219 169.138L231.104 169.88L231.558 169.296L231.219 169.138Z" fill="#F19146"/>
<path d="M248.481 134.258C248.481 134.258 250.539 133.571 252.549 134.522C257.46 136.844 255.223 140.527 257.654 142.25C260.086 143.97 262.384 148.163 260.709 150.639C259.033 153.116 255.925 153.437 254.596 151.649C253.267 149.862 248.927 150.271 249.336 147.836C249.746 145.401 251.951 136.846 249.895 137.227C247.84 137.608 248.481 134.258 248.481 134.258Z" fill="#233862"/>
<path d="M241.008 138.338C241.008 138.338 243.597 133.126 248.481 134.258C253.366 135.391 253.003 145.347 250.383 145.706C248 146.033 241.008 138.338 241.008 138.338Z" fill="#233862"/>
<path d="M255.293 165.27L250.64 175.794C250.64 175.794 246.377 180.433 243.164 178.754L254.323 159.054L255.293 165.27Z" fill="#ABDDDA"/>
<path d="M224.233 222.883C224.307 224.07 222.651 224.311 220.741 224.35C218.83 224.39 219.396 224.797 216.767 225.194C214.138 225.591 213.11 224.846 212.931 224.487C212.773 224.169 214.003 223.715 215.314 223.197C215.479 223.133 215.644 223.066 215.809 223C217.287 222.4 218.142 221.116 219.315 219.938C220.426 218.821 221.556 215.172 221.556 215.172L225.131 214.517C225.131 214.517 224.038 217.798 223.65 219.2C223.422 220.026 223.695 220.964 223.941 221.678C224.074 222.068 224.208 222.467 224.233 222.883Z" fill="#FFB27D"/>
<path d="M220.99 224.618C219.08 224.657 219.396 224.797 216.767 225.194C214.138 225.591 213.11 224.846 212.931 224.487C212.773 224.169 214.003 223.715 215.314 223.197L215.334 223.221C215.334 223.221 217.154 223.898 219.293 223.382C221.037 222.964 222.739 221.978 223.941 221.678C224.074 222.068 224.208 222.467 224.233 222.883C224.307 224.07 222.901 224.578 220.99 224.618Z" fill="#0F2549"/>
<path d="M226.302 185.114C229.493 182.185 245.806 175.393 252.27 174.96L259.735 172.563C259.735 172.563 265.435 181.775 265.209 188.641C265.103 191.841 263.618 192.099 263.616 192.101C263.616 192.101 240.801 191.361 239.797 191.424C238.154 191.526 235.832 195.518 235.144 199.21C234.457 202.902 224.343 217.626 224.343 217.626C224.343 217.626 222.335 218.183 221.419 218.093C220.435 217.996 219.992 217.646 219.992 217.646C219.992 217.646 222.429 188.671 226.302 185.114Z" fill="#ED7424"/>
<path d="M230.132 223.119C230.208 224.306 228.552 224.546 226.641 224.586C224.729 224.625 225.295 225.033 222.666 225.43C220.037 225.827 219.009 225.081 218.832 224.722C218.672 224.404 219.902 223.948 221.213 223.433C221.378 223.368 221.545 223.302 221.71 223.235C223.186 222.635 224.043 221.352 225.216 220.173C226.325 219.055 227.455 215.408 227.455 215.408L231.03 214.752C231.03 214.752 229.937 218.033 229.549 219.435C229.321 220.261 229.595 221.199 229.841 221.914C229.974 222.303 230.107 222.702 230.132 223.119Z" fill="#FFB27D"/>
<path d="M226.641 224.586C224.729 224.625 225.295 225.033 222.666 225.43C220.037 225.827 218.904 225.107 218.724 224.748C218.564 224.43 219.636 223.896 221.213 223.433L221.233 223.455C221.233 223.455 223.054 224.133 225.192 223.618C226.936 223.2 228.64 222.214 229.842 221.914C229.974 222.304 230.107 222.702 230.132 223.119C230.208 224.306 228.552 224.546 226.641 224.586Z" fill="#304F7F"/>
<path d="M230.378 185.822C232.257 184.009 241.699 180.647 247.837 178.916C249.315 178.498 263.781 172.033 263.781 172.033C263.781 172.033 265.225 192.163 262.519 192.082C257.448 191.932 240.584 191.89 239.813 191.914C237.484 191.987 237.468 197.795 236.378 202.024C235.265 206.348 230.296 217.864 230.296 217.864C230.296 217.864 228.286 218.421 227.372 218.331C226.388 218.234 225.945 217.884 225.945 217.884C225.945 217.884 226.593 189.475 230.378 185.822Z" fill="#F19146"/>
<path d="M247.275 154.137C247.257 154.154 249.798 154.509 251.256 153.496C252.628 152.545 253.289 149.858 253.267 149.862C252.578 149.961 251.714 149.51 250.383 145.706L250.114 145.866L245.567 148.565C245.567 148.565 246.222 150.065 246.74 151.512C247.174 152.728 247.508 153.908 247.275 154.137Z" fill="#FFB27D"/>
<path d="M245.567 148.564C245.567 148.564 245.662 148.884 246.274 150.277C248.846 148.753 249.8 147.469 250.351 146.158L245.567 148.564Z" fill="#ED975D"/>
<path d="M244.577 149.071C244.577 149.071 251.389 148.203 250.784 143.969C250.177 139.735 250.649 136.772 246.274 137.147C241.898 137.522 241.288 139.259 241.146 140.721C241.004 142.182 242.789 149.188 244.577 149.071Z" fill="#FFB27D"/>
<path d="M241.41 138.404C241.41 138.404 245.741 142.188 248.702 142.511C251.663 142.833 252.791 141.89 252.791 141.89C252.791 141.89 251.055 140.428 250.019 138.079C249.713 137.388 249.063 136.91 248.309 136.84C246.195 136.643 242.184 136.533 241.41 138.404Z" fill="#233862"/>
<path d="M244.136 138.086C244.136 138.086 242.669 139.485 242.202 140.528C241.753 141.534 241.604 143.945 241.95 144.904C241.95 144.904 239.707 140.474 241.008 138.337C242.387 136.073 244.136 138.086 244.136 138.086Z" fill="#233862"/>
<path d="M244.073 164.989C247.397 178.36 241.577 175.754 243.342 176.686C243.766 176.911 246.407 180.685 254.055 180.788C258.29 180.845 264.029 179.139 264.128 178.315C264.464 175.463 261.98 169.094 261.835 164.883C261.819 164.435 261.811 163.947 261.815 163.414C261.831 160.494 262.255 159.404 258.877 155.503C255.817 151.973 252.561 149.286 252.387 149.448C247.682 153.776 246.655 151.276 246.655 151.276L245.842 151.673C244.897 153.462 242.719 159.542 244.073 164.989Z" fill="#F9DDBF"/>
<path d="M245.842 151.673C245.842 151.673 241.207 153.641 241.108 156.281C241.009 158.923 238.282 178.868 238.282 178.868C238.282 178.868 245.867 177.8 246.905 176.13C247.74 174.79 246.845 164.542 246.461 160.546C246.355 159.465 246.334 158.377 246.393 157.29L245.842 151.673Z" fill="#F99746"/>
<path d="M265.97 191.055C265.97 191.055 262.248 196.194 251.349 194.785C251.349 194.785 250.042 184.554 250.099 175.469C250.11 173.516 250.186 171.614 250.351 169.881C250.356 169.809 250.363 169.732 250.372 169.655C250.888 164.372 252.754 149.623 252.754 149.623L256.726 153.417L261.741 153.626C261.741 153.626 263.241 157.494 264.516 172.034C265.545 183.796 265.97 191.055 265.97 191.055Z" fill="#F99746"/>
<path d="M232.95 167.355C232.95 167.355 231.889 168.306 231.583 168.387C231.276 168.466 231.1 168.4 231.1 168.4L231.871 167.464L232.95 167.355Z" fill="#FFB27D"/>
<path d="M233.358 166.251L230.639 167.007C230.639 167.007 230.712 167.199 231.023 167.242C231.334 167.284 232.16 167.144 232.16 167.144L233.358 166.251Z" fill="#FFB27D"/>
<path d="M238.018 167.673C238.018 167.673 234.087 166.009 233.358 166.251C232.63 166.494 230.77 167.523 230.484 167.946C230.197 168.37 232.02 167.867 232.593 167.821C232.963 167.79 233.832 168.284 234.263 168.521C236.08 169.519 237.326 169.406 237.326 169.406L238.018 167.673Z" fill="#FFB27D"/>
<path d="M298.951 154.285C298.951 154.285 297.475 168.138 286.176 168.262L286.038 158.482L298.951 154.285Z" fill="#ED7D2B"/>
<path d="M286.246 156.232L286.239 157.388C286.729 157.49 287.941 157.573 290.224 156.778C293.365 155.68 291.488 147.558 291.132 150.48C290.684 154.17 287.263 155.819 286.246 156.232Z" fill="#ED7D2B"/>
<path d="M261.036 160.717C261.036 160.717 260.748 171.856 257.722 173.691C255.359 175.12 251.62 175.409 250.099 175.469C250.11 173.515 250.186 171.613 250.351 169.88C250.356 169.809 250.363 169.731 250.372 169.654L261.036 160.717Z" fill="#ED7D2B"/>
<path d="M252.755 149.621C252.755 149.621 258.868 150.341 260.766 151.894C264.386 154.861 258.559 168.855 256.029 171.662C253.181 174.826 237.125 170.801 237.125 170.801C237.125 170.801 236.279 168.88 238.018 167.673C238.475 167.355 251.38 166.745 251.701 166.228C252.023 165.711 253.872 157.633 253.58 156.374C253.287 155.117 252.755 149.621 252.755 149.621Z" fill="#F99746"/>
<path d="M204.654 162.212C203.236 162.212 202.085 163.361 202.085 164.78V224.993H207.43V164.988C207.43 163.454 206.188 162.212 204.654 162.212Z" fill="#F6B97B"/>
<path d="M202.085 174.186H245.048C246.014 174.186 246.799 173.401 246.799 172.433C246.799 171.248 245.84 170.289 244.655 170.289H202.085V174.186Z" fill="#F6B97B"/>
<path d="M275.827 134.086C274.409 134.086 273.257 135.235 273.257 136.654V196.867H278.602V136.862C278.602 135.328 277.359 134.086 275.827 134.086Z" fill="#F6B97B"/>
<path d="M363.821 99.3705C362.402 99.3705 361.253 100.52 361.253 101.938V166.895H366.597V102.147C366.597 100.613 365.355 99.3705 363.821 99.3705Z" fill="#F6B97B"/>
<path d="M480.057 262.018V262.301C480.057 262.655 479.811 262.944 479.511 262.944H19.0402C18.741 262.944 18.4948 262.655 18.4948 262.301V262.018C18.4948 261.666 18.741 261.375 19.0402 261.375H479.511C479.811 261.375 480.057 261.666 480.057 262.018Z" fill="#233862"/>
</g>
<defs>
<clipPath id="clip0_5462_33631">
<rect width="499.699" height="300" fill="white"/>
</clipPath>
</defs>
</svg>
