<svg width="228" height="228" viewBox="0 0 228 228" fill="none" xmlns="http://www.w3.org/2000/svg">
<g id="Illustration">
<g id="Group">
<path id="Vector" d="M212.116 150.753C190.121 202.163 132.061 224.245 86.5707 220.48C74.1499 219.452 49.159 217.384 29.6458 198.931C-7.82776 163.493 -2.05653 89.419 33.8164 45.808C38.4361 40.1918 70.413 2.5639 120.243 3.06751C156.726 3.43632 182.333 24.0449 185.446 26.6123C189.38 29.8557 198.055 37.563 205.874 49.7901C224.246 78.5196 225.861 118.626 212.116 150.753Z" fill="#FFF9F4"/>
<g id="Group_2">
<g id="Group_3">
<path id="Vector_2" d="M176.343 203.387C176.343 203.387 159.522 151.634 164.16 125.418C168.298 102.021 176.334 69.4829 178.015 62.7545C178.13 62.294 178.749 62.2087 178.983 62.6217C182.812 69.3792 201.659 106.141 187.52 152.695C171.846 204.307 176.343 203.387 176.343 203.387Z" fill="#FDEDD7"/>
<path id="Vector_3" opacity="0.43" d="M180.791 79.5095C180.945 87.2255 180.729 94.934 180.304 102.633C179.874 110.332 179.173 118.017 178.186 125.667C177.683 129.49 177.097 133.304 176.437 137.105C175.761 140.903 174.987 144.684 174.124 148.447C173.231 152.202 172.239 155.935 171.113 159.63C169.958 163.316 168.673 166.963 167.216 170.546C167.128 170.761 166.883 170.864 166.668 170.777C166.453 170.689 166.349 170.444 166.437 170.229L166.437 170.227L166.439 170.223C167.9 166.674 169.194 163.056 170.358 159.395C171.494 155.725 172.498 152.013 173.404 148.277C174.28 144.533 175.068 140.768 175.758 136.983C176.433 133.196 177.033 129.396 177.552 125.583C178.57 117.954 179.304 110.287 179.766 102.602C180.224 94.9191 180.473 87.2137 180.353 79.522V79.5174C180.351 79.3964 180.447 79.2968 180.568 79.295C180.689 79.2929 180.789 79.3885 180.791 79.5095Z" fill="white"/>
</g>
<g id="Group_4">
<path id="Vector_4" d="M172.479 214.599C172.479 214.599 175.705 160.277 189.59 137.561C201.981 117.289 221.338 89.9274 225.358 84.2764C225.633 83.8896 226.24 84.036 226.307 84.5059C227.406 92.1948 231.538 133.299 201.385 171.483C167.956 213.815 172.479 214.599 172.479 214.599Z" fill="#FAD6AE"/>
<path id="Vector_5" opacity="0.43" d="M221.827 100.889C219.155 108.129 216.141 115.227 212.935 122.24C209.726 129.251 206.268 136.15 202.558 142.912C200.694 146.289 198.757 149.625 196.755 152.923C194.74 156.213 192.64 159.451 190.463 162.639C188.261 165.809 185.975 168.922 183.578 171.951C181.158 174.962 178.63 177.888 175.966 180.692C175.806 180.861 175.54 180.868 175.372 180.708C175.203 180.548 175.196 180.282 175.356 180.113L175.358 180.112L175.361 180.109C178.016 177.338 180.541 174.441 182.961 171.457C185.359 168.455 187.647 165.365 189.855 162.217C192.036 159.051 194.144 155.833 196.167 152.562C198.178 149.283 200.124 145.963 201.998 142.602C205.73 135.872 209.211 129.001 212.446 122.014C215.676 115.029 218.72 107.946 221.415 100.741L221.417 100.736C221.459 100.623 221.585 100.565 221.698 100.608C221.812 100.65 221.87 100.775 221.827 100.889Z" fill="white"/>
</g>
</g>
<g id="Group_5">
<g id="Group_6">
<path id="Vector_6" d="M0.970488 76.5233C5.98324 90.9209 37.7003 173.39 100.419 153.841C100.419 153.841 89.8996 93.5076 1.96663 74.7651C1.19739 74.6012 0.643076 75.5827 0.970488 76.5233Z" fill="#FAD6AE"/>
<path id="Vector_7" opacity="0.43" d="M11.6874 84.5616C14.3732 88.2223 17.2017 91.7863 20.086 95.2976C22.976 98.8056 25.9418 102.251 28.9824 105.629C35.0652 112.381 41.4438 118.872 48.1983 124.947C54.9556 131.011 62.0892 136.684 69.7683 141.516C71.691 142.717 73.6406 143.875 75.6342 144.95C77.6285 146.025 79.6578 147.032 81.7243 147.954C85.8598 149.787 90.1609 151.258 94.5821 152.161L94.5849 152.162C94.8125 152.208 94.9592 152.43 94.9127 152.658C94.8662 152.885 94.644 153.032 94.4166 152.986L94.4148 152.985C89.9231 152.047 85.5751 150.536 81.4063 148.666C79.3232 147.726 77.2807 146.701 75.2758 145.609C73.2713 144.516 71.3136 143.341 69.3844 142.125C61.6799 137.229 54.5467 131.503 47.7973 125.391C41.0509 119.269 34.6894 112.737 28.6269 105.947C25.5966 102.551 22.642 99.0873 19.7637 95.5617C16.8902 92.0316 14.0771 88.455 11.3979 84.7692C11.3401 84.6896 11.3577 84.5783 11.4373 84.5204C11.5169 84.4625 11.6283 84.4802 11.6861 84.5597L11.6874 84.5616Z" fill="white"/>
</g>
<g id="Group_7">
<path id="Vector_8" d="M48.3833 2.06896C48.5774 0.788178 49.7735 1.03853 50.7898 1.84174C106.434 45.8136 128.333 128.368 113.946 152.078C113.946 152.078 27.2372 141.617 48.3833 2.06896Z" fill="#FDEDD7"/>
<path id="Vector_9" opacity="0.43" d="M52.1772 19.0763C52.2316 19.3867 52.3165 19.7341 52.3906 20.0674L52.6332 21.0745L53.1405 23.0843C53.4863 24.4226 53.8467 25.7572 54.2104 27.0909C54.9457 29.7561 55.7143 32.4121 56.5071 35.0606C58.0864 40.3596 59.7654 45.6286 61.5466 50.8622C65.1263 61.3226 69.0367 71.6729 73.4668 81.7998C75.7012 86.8533 77.9857 91.8864 80.4668 96.8235C80.7668 97.4458 81.0816 98.0604 81.401 98.6728L82.3518 100.514L83.3025 102.354C83.624 102.965 83.9604 103.568 84.2887 104.176C84.9533 105.386 85.5998 106.607 86.2792 107.809L88.3401 111.403C88.5125 111.702 88.6796 112.005 88.8563 112.301L89.3926 113.187L90.4653 114.959L91.5378 116.731C91.9027 117.317 92.283 117.894 92.6548 118.476L93.7763 120.217C94.155 120.794 94.5124 121.386 94.9121 121.949L97.2601 125.362C100.448 129.873 103.851 134.231 107.498 138.386L107.499 138.387C107.549 138.444 107.543 138.53 107.486 138.58C107.431 138.629 107.346 138.624 107.296 138.57C103.54 134.495 100.071 130.164 96.7993 125.691L94.4087 122.29C94.0018 121.729 93.6375 121.139 93.2515 120.564L92.1085 118.828C91.7295 118.248 91.3419 117.674 90.9698 117.089L89.8758 115.322L88.7815 113.555L88.2343 112.672C88.054 112.376 87.8832 112.075 87.7072 111.776C82.0723 102.229 77.124 92.2901 72.709 82.1297L71.0732 78.3106L69.4953 74.4675C68.9604 73.19 68.4709 71.8946 67.9577 70.6085L67.1962 68.676L66.4602 66.7338C64.4889 61.5582 62.6238 56.342 60.895 51.0811C59.1614 45.8221 57.5102 40.5357 55.9972 35.2095C55.2444 32.5453 54.5164 29.8744 53.8214 27.1947C53.478 25.8538 53.138 24.512 52.8124 23.1665L52.3353 21.1451L52.1079 20.1311C52.0384 19.788 51.9594 19.463 51.9039 19.0903C51.8928 19.0161 51.9439 18.9471 52.018 18.9361C52.091 18.9252 52.1589 18.9746 52.1717 19.0467L52.1772 19.0763Z" fill="white"/>
</g>
</g>
<g id="Group_8">
<g id="Group_9">
<g id="Group_10">
<path id="Vector_10" d="M36.8979 220.016L195.829 220.016V188.206L36.8979 188.206C40.2998 188.206 40.2998 220.016 36.8979 220.016Z" fill="#FDEDD7"/>
<path id="Vector_11" d="M195.829 212.056V197.498C195.829 192.367 192.688 188.207 188.813 188.207H37.568C34.5211 188.207 32.0513 185.737 32.0513 182.69C32.0513 181.764 32.8018 181.014 33.7274 181.014H199.027C202.818 181.014 208.836 186.974 208.836 194.326V214.657C208.836 221.589 202.993 227.209 199.419 227.209H34.597C33.1911 227.209 32.0513 226.069 32.0513 224.663C32.0513 222.097 34.1318 220.016 36.6981 220.016H189.819C193.138 220.016 195.829 216.452 195.829 212.056Z" fill="#F19146"/>
</g>
<path id="Vector_12" d="M191.421 195.007H42.4014C42.2503 195.007 42.1279 194.884 42.1279 194.733C42.1279 194.582 42.2503 194.46 42.4014 194.46H191.421C191.572 194.46 191.694 194.582 191.694 194.733C191.694 194.884 191.572 195.007 191.421 195.007Z" fill="#FFF9F4"/>
<path id="Vector_13" d="M191.421 199.728H42.4014C42.2503 199.728 42.1279 199.605 42.1279 199.454C42.1279 199.303 42.2503 199.181 42.4014 199.181H191.421C191.572 199.181 191.694 199.303 191.694 199.454C191.694 199.605 191.572 199.728 191.421 199.728Z" fill="#FFF9F4"/>
<path id="Vector_14" d="M191.421 204.449H42.4014C42.2503 204.449 42.1279 204.327 42.1279 204.176C42.1279 204.025 42.2503 203.902 42.4014 203.902H191.421C191.572 203.902 191.694 204.025 191.694 204.176C191.694 204.327 191.572 204.449 191.421 204.449Z" fill="#FFF9F4"/>
<path id="Vector_15" d="M191.421 209.171H42.4014C42.2503 209.171 42.1279 209.049 42.1279 208.897C42.1279 208.746 42.2503 208.624 42.4014 208.624H191.421C191.572 208.624 191.694 208.746 191.694 208.897C191.694 209.049 191.572 209.171 191.421 209.171Z" fill="#FFF9F4"/>
<path id="Vector_16" d="M191.421 213.893H42.4014C42.2503 213.893 42.1279 213.77 42.1279 213.619C42.1279 213.468 42.2503 213.346 42.4014 213.346H191.421C191.572 213.346 191.694 213.468 191.694 213.619C191.694 213.77 191.572 213.893 191.421 213.893Z" fill="#FFF9F4"/>
</g>
<g id="Group_11">
<path id="Vector_17" d="M58.0919 180.868H190.108C193.143 180.868 195.603 178.408 195.603 175.373V151.844C195.603 148.809 193.143 146.349 190.108 146.349H58.0919C55.0566 146.349 52.5961 148.809 52.5961 151.844V175.373C52.5962 178.408 55.0567 180.868 58.0919 180.868Z" fill="#FAD6AE"/>
<path id="Vector_18" d="M163.227 176.902H178.856C179.179 176.902 179.442 176.639 179.442 176.316V150.902C179.442 150.579 179.179 150.316 178.856 150.316H163.227C162.904 150.316 162.641 150.579 162.641 150.902V176.316C162.641 176.639 162.904 176.902 163.227 176.902Z" fill="#FDEDD7"/>
<path id="Vector_19" d="M154.163 176.902H159.874C160.037 176.902 160.17 176.769 160.17 176.605V150.613C160.17 150.449 160.037 150.316 159.874 150.316H154.163C153.999 150.316 153.867 150.449 153.867 150.613V176.605C153.867 176.769 153.999 176.902 154.163 176.902Z" fill="#FDEDD7"/>
</g>
<g id="Group_12">
<path id="Vector_20" d="M44.0264 146.532H206.305C207.202 146.532 207.93 145.805 207.93 144.907V118.095C207.93 117.197 207.202 116.47 206.305 116.47H44.0264C43.129 116.47 42.4015 117.197 42.4015 118.095V144.907C42.4015 145.805 43.1289 146.532 44.0264 146.532Z" fill="#F19146"/>
<path id="Vector_21" d="M171.758 142.258H187.242C188.336 142.258 189.223 141.371 189.223 140.277V123.993C189.223 122.899 188.336 122.013 187.242 122.013H171.758C170.664 122.013 169.777 122.899 169.777 123.993V140.277C169.777 141.371 170.664 142.258 171.758 142.258Z" fill="#FAD6AE"/>
<path id="Vector_22" d="M161.465 142.258H166.755C167.309 142.258 167.758 141.808 167.758 141.254V123.016C167.758 122.462 167.309 122.013 166.755 122.013H161.465C160.911 122.013 160.462 122.462 160.462 123.016V141.254C160.462 141.808 160.911 142.258 161.465 142.258Z" fill="#FAD6AE"/>
<path id="Vector_23" d="M192.183 141.43H195.647C196.201 141.43 196.65 140.98 196.65 140.426V122.188C196.65 121.634 196.201 121.185 195.647 121.185H192.183C191.629 121.185 191.179 121.634 191.179 122.188V140.426C191.179 140.98 191.629 141.43 192.183 141.43Z" fill="#FAD6AE"/>
</g>
</g>
<g id="Group_13">
<path id="Vector_24" d="M177.642 60.0872C194.015 60.0872 207.289 46.814 207.289 30.4406C207.289 14.0672 194.015 0.793945 177.642 0.793945C161.269 0.793945 147.995 14.0672 147.995 30.4406C147.995 46.814 161.269 60.0872 177.642 60.0872Z" fill="#FAD6AE"/>
<path id="Vector_25" d="M154.309 45.4669C154.219 45.4669 154.13 45.422 154.078 45.3398C151.257 40.8888 149.766 35.7369 149.766 30.4409C149.766 15.0703 162.271 2.56543 177.642 2.56543C177.9 2.56543 178.156 2.5681 178.411 2.57626C179.615 2.60885 180.827 2.71996 182.011 2.90634C182.16 2.92987 182.262 3.06977 182.239 3.21912C182.215 3.36815 182.075 3.47004 181.926 3.44667C180.765 3.26384 179.577 3.155 178.395 3.12298C178.144 3.11513 177.894 3.11246 177.642 3.11246C162.573 3.11246 150.313 15.372 150.313 30.441C150.313 35.633 151.775 40.6839 154.54 45.0471C154.621 45.1746 154.583 45.3436 154.455 45.4245C154.41 45.4531 154.359 45.4669 154.309 45.4669Z" fill="#FAD6AE"/>
<path id="Vector_26" d="M175.875 58.2602C175.87 58.2602 175.864 58.26 175.858 58.2596C171.196 57.9649 166.652 56.4867 162.718 53.9847C161.381 53.1365 160.106 52.1661 158.93 51.1003C158.818 50.9989 158.809 50.826 158.911 50.7139C159.012 50.602 159.185 50.5934 159.297 50.6948C160.451 51.7398 161.7 52.6913 163.011 53.5231C166.868 55.9758 171.322 57.4249 175.892 57.7137C176.043 57.7232 176.158 57.8531 176.148 58.0039C176.139 58.1487 176.019 58.2602 175.875 58.2602Z" fill="#FAD6AE"/>
<path id="Vector_27" d="M200.708 15.5483C200.619 15.5483 200.532 15.5051 200.48 15.4254C198.289 12.1004 195.34 9.23977 191.951 7.15303C191.823 7.07387 191.783 6.90535 191.862 6.7767C191.941 6.64813 192.109 6.60778 192.238 6.68726C195.695 8.81565 198.702 11.7333 200.937 15.1244C201.02 15.2506 200.985 15.4202 200.859 15.5032C200.812 15.5338 200.76 15.5483 200.708 15.5483Z" fill="#FAD6AE"/>
<g id="Group_14">
<path id="Vector_28" d="M177.642 17.7568L152.853 25.3127L177.642 32.8686L202.431 25.3127L177.642 17.7568Z" fill="white"/>
<path id="Vector_29" d="M177.642 35.5172L162.041 30.7617V41.6253C162.041 43.4083 163.288 44.9505 165.032 45.3203C173.41 47.0967 181.466 47.1518 189.181 45.3784C190.889 44.9856 192.094 43.4545 192.094 41.7012V31.1121L177.642 35.5172Z" fill="white"/>
<path id="Vector_30" d="M158.595 40.0234C157.239 40.6255 156.054 40.6382 155.039 40.0614C154.742 39.8927 154.594 39.546 154.662 39.2113L156.868 28.2412L159.058 39.1283C159.132 39.4981 158.939 39.8703 158.595 40.0234Z" fill="white"/>
<path id="Vector_31" d="M177.642 24.1934L156.547 26.4349V30.0942H157.172L157.236 26.8872L177.642 24.1934Z" fill="white"/>
</g>
</g>
</g>
</g>
</svg>
