<svg width="40" height="40" viewBox="0 0 40 40" fill="none" xmlns="http://www.w3.org/2000/svg">
<rect x="0.5" y="0.5" width="39" height="39" rx="3.5" fill="#FFF9F4"/>
<rect x="0.5" y="0.5" width="39" height="39" rx="3.5" stroke="#FDEDD7"/>
<path d="M18.5 22.2485C18.3011 22.2485 18.1103 22.3275 17.9697 22.4682C17.829 22.6088 17.75 22.7996 17.75 22.9985V25.6882L14.2194 22.1547C14.0795 22.0147 14.0006 21.8249 14 21.6269V16.9047C14.707 16.7222 15.3232 16.2881 15.733 15.6837C16.1428 15.0794 16.3181 14.3463 16.2261 13.622C16.1341 12.8976 15.7811 12.2317 15.2332 11.749C14.6853 11.2663 13.9802 11 13.25 11C12.5198 11 11.8147 11.2663 11.2668 11.749C10.719 12.2317 10.3659 12.8976 10.2739 13.622C10.1819 14.3463 10.3572 15.0794 10.7671 15.6837C11.1769 16.2881 11.793 16.7222 12.5 16.9047V21.6279C12.4985 21.9237 12.5557 22.2169 12.6684 22.4905C12.781 22.7641 12.9469 23.0126 13.1563 23.2216L16.6897 26.7485H14C13.8011 26.7485 13.6103 26.8275 13.4697 26.9682C13.329 27.1088 13.25 27.2996 13.25 27.4985C13.25 27.6974 13.329 27.8882 13.4697 28.0288C13.6103 28.1695 13.8011 28.2485 14 28.2485H18.5C18.6989 28.2485 18.8897 28.1695 19.0303 28.0288C19.171 27.8882 19.25 27.6974 19.25 27.4985V22.9985C19.25 22.7996 19.171 22.6088 19.0303 22.4682C18.8897 22.3275 18.6989 22.2485 18.5 22.2485ZM11.75 13.9985C11.75 13.7018 11.838 13.4118 12.0028 13.1651C12.1676 12.9185 12.4019 12.7262 12.676 12.6127C12.9501 12.4991 13.2517 12.4694 13.5426 12.5273C13.8336 12.5852 14.1009 12.728 14.3107 12.9378C14.5204 13.1476 14.6633 13.4149 14.7212 13.7059C14.7791 13.9968 14.7494 14.2984 14.6358 14.5725C14.5223 14.8466 14.33 15.0809 14.0834 15.2457C13.8367 15.4105 13.5467 15.4985 13.25 15.4985C12.8522 15.4985 12.4707 15.3405 12.1893 15.0591C11.908 14.7778 11.75 14.3963 11.75 13.9985ZM27.5 23.0922V18.37C27.5015 18.0742 27.4443 17.781 27.3316 17.5074C27.219 17.2338 27.0531 16.9853 26.8438 16.7763L23.3103 13.2485H26C26.1989 13.2485 26.3897 13.1695 26.5303 13.0288C26.671 12.8882 26.75 12.6974 26.75 12.4985C26.75 12.2996 26.671 12.1088 26.5303 11.9682C26.3897 11.8275 26.1989 11.7485 26 11.7485H21.5C21.3011 11.7485 21.1103 11.8275 20.9697 11.9682C20.829 12.1088 20.75 12.2996 20.75 12.4985V16.9985C20.75 17.1974 20.829 17.3882 20.9697 17.5288C21.1103 17.6695 21.3011 17.7485 21.5 17.7485C21.6989 17.7485 21.8897 17.6695 22.0303 17.5288C22.171 17.3882 22.25 17.1974 22.25 16.9985V14.3088L25.7806 17.8422C25.8503 17.9119 25.9055 17.9947 25.9431 18.0857C25.9808 18.1768 26.0001 18.2743 26 18.3729V23.0922C25.293 23.2748 24.6769 23.7089 24.2671 24.3132C23.8572 24.9176 23.6819 25.6506 23.7739 26.375C23.8659 27.0993 24.219 27.7653 24.7668 28.248C25.3147 28.7307 26.0198 28.997 26.75 28.997C27.4802 28.997 28.1853 28.7307 28.7332 28.248C29.2811 27.7653 29.6341 27.0993 29.7261 26.375C29.8181 25.6506 29.6428 24.9176 29.233 24.3132C28.8232 23.7089 28.207 23.2748 27.5 23.0922ZM26.75 27.4985C26.4533 27.4985 26.1633 27.4105 25.9167 27.2457C25.67 27.0809 25.4777 26.8466 25.3642 26.5725C25.2507 26.2984 25.221 25.9968 25.2788 25.7059C25.3367 25.4149 25.4796 25.1476 25.6893 24.9378C25.8991 24.728 26.1664 24.5852 26.4574 24.5273C26.7483 24.4694 27.0499 24.4991 27.324 24.6127C27.5981 24.7262 27.8324 24.9185 27.9972 25.1651C28.162 25.4118 28.25 25.7018 28.25 25.9985C28.25 26.3963 28.092 26.7778 27.8107 27.0591C27.5294 27.3405 27.1478 27.4985 26.75 27.4985Z" fill="#F6B97B"/>
</svg>
