<svg width="40" height="40" viewBox="0 0 40 40" fill="none" xmlns="http://www.w3.org/2000/svg">
<rect x="0.5" y="0.5" width="39" height="39" rx="3.5" fill="#FFF9F4"/>
<rect x="0.5" y="0.5" width="39" height="39" rx="3.5" stroke="#FDEDD7"/>
<g clip-path="url(#clip0_8252_52733)">
<path d="M29.0004 20.2504C29.0004 20.4493 28.9214 20.6401 28.7807 20.7807C28.6401 20.9214 28.4493 21.0004 28.2504 21.0004H20.0004C19.8015 21.0004 19.6107 20.9214 19.4701 20.7807C19.3294 20.6401 19.2504 20.4493 19.2504 20.2504C19.2504 20.0515 19.3294 19.8607 19.4701 19.7201C19.6107 19.5794 19.8015 19.5004 20.0004 19.5004H28.2504C28.4493 19.5004 28.6401 19.5794 28.7807 19.7201C28.9214 19.8607 29.0004 20.0515 29.0004 20.2504ZM20.0004 15.0004H28.2504C28.4493 15.0004 28.6401 14.9214 28.7807 14.7807C28.9214 14.6401 29.0004 14.4493 29.0004 14.2504C29.0004 14.0515 28.9214 13.8607 28.7807 13.7201C28.6401 13.5794 28.4493 13.5004 28.2504 13.5004H20.0004C19.8015 13.5004 19.6107 13.5794 19.4701 13.7201C19.3294 13.8607 19.2504 14.0515 19.2504 14.2504C19.2504 14.4493 19.3294 14.6401 19.4701 14.7807C19.6107 14.9214 19.8015 15.0004 20.0004 15.0004ZM28.2504 25.5004H20.0004C19.8015 25.5004 19.6107 25.5794 19.4701 25.7201C19.3294 25.8607 19.2504 26.0515 19.2504 26.2504C19.2504 26.4493 19.3294 26.6401 19.4701 26.7807C19.6107 26.9214 19.8015 27.0004 20.0004 27.0004H28.2504C28.4493 27.0004 28.6401 26.9214 28.7807 26.7807C28.9214 26.6401 29.0004 26.4493 29.0004 26.2504C29.0004 26.0515 28.9214 25.8607 28.7807 25.7201C28.6401 25.5794 28.4493 25.5004 28.2504 25.5004ZM15.7198 12.2198L13.2504 14.6901L12.281 13.7198C12.1403 13.5791 11.9494 13.5 11.7504 13.5C11.5514 13.5 11.3605 13.5791 11.2198 13.7198C11.0791 13.8605 11 14.0514 11 14.2504C11 14.4494 11.0791 14.6403 11.2198 14.781L12.7198 16.281C12.7894 16.3508 12.8722 16.4061 12.9632 16.4438C13.0543 16.4816 13.1519 16.501 13.2504 16.501C13.349 16.501 13.4466 16.4816 13.5376 16.4438C13.6287 16.4061 13.7114 16.3508 13.781 16.281L16.781 13.281C16.9218 13.1403 17.0008 12.9494 17.0008 12.7504C17.0008 12.5514 16.9218 12.3605 16.781 12.2198C16.6403 12.0791 16.4494 12 16.2504 12C16.0514 12 15.8605 12.0791 15.7198 12.2198ZM15.7198 18.2198L13.2504 20.6901L12.281 19.7198C12.1403 19.5791 11.9494 19.5 11.7504 19.5C11.5514 19.5 11.3605 19.5791 11.2198 19.7198C11.0791 19.8605 11 20.0514 11 20.2504C11 20.349 11.0194 20.4465 11.0571 20.5376C11.0948 20.6286 11.1501 20.7114 11.2198 20.781L12.7198 22.281C12.7894 22.3508 12.8722 22.4061 12.9632 22.4438C13.0543 22.4816 13.1519 22.501 13.2504 22.501C13.349 22.501 13.4466 22.4816 13.5376 22.4438C13.6287 22.4061 13.7114 22.3508 13.781 22.281L16.781 19.281C16.9218 19.1403 17.0008 18.9494 17.0008 18.7504C17.0008 18.5514 16.9218 18.3605 16.781 18.2198C16.6403 18.0791 16.4494 18 16.2504 18C16.0514 18 15.8605 18.0791 15.7198 18.2198ZM15.7198 24.2198L13.2504 26.6901L12.281 25.7198C12.2114 25.6501 12.1286 25.5948 12.0376 25.5571C11.9465 25.5194 11.849 25.5 11.7504 25.5C11.6519 25.5 11.5543 25.5194 11.4632 25.5571C11.3722 25.5948 11.2895 25.6501 11.2198 25.7198C11.1501 25.7895 11.0948 25.8722 11.0571 25.9632C11.0194 26.0543 11 26.1519 11 26.2504C11 26.349 11.0194 26.4465 11.0571 26.5376C11.0948 26.6286 11.1501 26.7114 11.2198 26.781L12.7198 28.281C12.7894 28.3508 12.8722 28.4061 12.9632 28.4438C13.0543 28.4816 13.1519 28.501 13.2504 28.501C13.349 28.501 13.4466 28.4816 13.5376 28.4438C13.6287 28.4061 13.7114 28.3508 13.781 28.281L16.781 25.281C16.9218 25.1403 17.0008 24.9494 17.0008 24.7504C17.0008 24.5514 16.9218 24.3605 16.781 24.2198C16.6403 24.0791 16.4494 24 16.2504 24C16.0514 24 15.8605 24.0791 15.7198 24.2198Z" fill="#F6B97B"/>
</g>
<circle cx="14" cy="20.5" r="1.5" fill="#F6B97B"/>
<circle cx="14" cy="25.5" r="1.5" fill="#F6B97B"/>
<g clip-path="url(#clip1_8252_52733)">
<path d="M29.0004 20.2504C29.0004 20.4493 28.9214 20.6401 28.7807 20.7807C28.6401 20.9214 28.4493 21.0004 28.2504 21.0004H20.0004C19.8015 21.0004 19.6107 20.9214 19.4701 20.7807C19.3294 20.6401 19.2504 20.4493 19.2504 20.2504C19.2504 20.0515 19.3294 19.8607 19.4701 19.7201C19.6107 19.5794 19.8015 19.5004 20.0004 19.5004H28.2504C28.4493 19.5004 28.6401 19.5794 28.7807 19.7201C28.9214 19.8607 29.0004 20.0515 29.0004 20.2504ZM20.0004 15.0004H28.2504C28.4493 15.0004 28.6401 14.9214 28.7807 14.7807C28.9214 14.6401 29.0004 14.4493 29.0004 14.2504C29.0004 14.0515 28.9214 13.8607 28.7807 13.7201C28.6401 13.5794 28.4493 13.5004 28.2504 13.5004H20.0004C19.8015 13.5004 19.6107 13.5794 19.4701 13.7201C19.3294 13.8607 19.2504 14.0515 19.2504 14.2504C19.2504 14.4493 19.3294 14.6401 19.4701 14.7807C19.6107 14.9214 19.8015 15.0004 20.0004 15.0004ZM28.2504 25.5004H20.0004C19.8015 25.5004 19.6107 25.5794 19.4701 25.7201C19.3294 25.8607 19.2504 26.0515 19.2504 26.2504C19.2504 26.4493 19.3294 26.6401 19.4701 26.7807C19.6107 26.9214 19.8015 27.0004 20.0004 27.0004H28.2504C28.4493 27.0004 28.6401 26.9214 28.7807 26.7807C28.9214 26.6401 29.0004 26.4493 29.0004 26.2504C29.0004 26.0515 28.9214 25.8607 28.7807 25.7201C28.6401 25.5794 28.4493 25.5004 28.2504 25.5004ZM15.7198 12.2198L13.2504 14.6901L12.281 13.7198C12.1403 13.5791 11.9494 13.5 11.7504 13.5C11.5514 13.5 11.3605 13.5791 11.2198 13.7198C11.0791 13.8605 11 14.0514 11 14.2504C11 14.4494 11.0791 14.6403 11.2198 14.781L12.7198 16.281C12.7894 16.3508 12.8722 16.4061 12.9632 16.4438C13.0543 16.4816 13.1519 16.501 13.2504 16.501C13.349 16.501 13.4466 16.4816 13.5376 16.4438C13.6287 16.4061 13.7114 16.3508 13.781 16.281L16.781 13.281C16.9218 13.1403 17.0008 12.9494 17.0008 12.7504C17.0008 12.5514 16.9218 12.3605 16.781 12.2198C16.6403 12.0791 16.4494 12 16.2504 12C16.0514 12 15.8605 12.0791 15.7198 12.2198ZM15.7198 18.2198L13.2504 20.6901L12.281 19.7198C12.1403 19.5791 11.9494 19.5 11.7504 19.5C11.5514 19.5 11.3605 19.5791 11.2198 19.7198C11.0791 19.8605 11 20.0514 11 20.2504C11 20.349 11.0194 20.4465 11.0571 20.5376C11.0948 20.6286 11.1501 20.7114 11.2198 20.781L12.7198 22.281C12.7894 22.3508 12.8722 22.4061 12.9632 22.4438C13.0543 22.4816 13.1519 22.501 13.2504 22.501C13.349 22.501 13.4466 22.4816 13.5376 22.4438C13.6287 22.4061 13.7114 22.3508 13.781 22.281L16.781 19.281C16.9218 19.1403 17.0008 18.9494 17.0008 18.7504C17.0008 18.5514 16.9218 18.3605 16.781 18.2198C16.6403 18.0791 16.4494 18 16.2504 18C16.0514 18 15.8605 18.0791 15.7198 18.2198ZM15.7198 24.2198L13.2504 26.6901L12.281 25.7198C12.2114 25.6501 12.1286 25.5948 12.0376 25.5571C11.9465 25.5194 11.849 25.5 11.7504 25.5C11.6519 25.5 11.5543 25.5194 11.4632 25.5571C11.3722 25.5948 11.2895 25.6501 11.2198 25.7198C11.1501 25.7895 11.0948 25.8722 11.0571 25.9632C11.0194 26.0543 11 26.1519 11 26.2504C11 26.349 11.0194 26.4465 11.0571 26.5376C11.0948 26.6286 11.1501 26.7114 11.2198 26.781L12.7198 28.281C12.7894 28.3508 12.8722 28.4061 12.9632 28.4438C13.0543 28.4816 13.1519 28.501 13.2504 28.501C13.349 28.501 13.4466 28.4816 13.5376 28.4438C13.6287 28.4061 13.7114 28.3508 13.781 28.281L16.781 25.281C16.9218 25.1403 17.0008 24.9494 17.0008 24.7504C17.0008 24.5514 16.9218 24.3605 16.781 24.2198C16.6403 24.0791 16.4494 24 16.2504 24C16.0514 24 15.8605 24.0791 15.7198 24.2198Z" fill="#F6B97B"/>
</g>
<defs>
<clipPath id="clip0_8252_52733">
<rect width="8" height="5" fill="white" transform="translate(10 12)"/>
</clipPath>
<clipPath id="clip1_8252_52733">
<rect width="12" height="17" fill="white" transform="translate(18 12)"/>
</clipPath>
</defs>
</svg>
