<svg width="166" height="32" viewBox="0 0 166 32" fill="none" xmlns="http://www.w3.org/2000/svg">
<g clip-path="url(#clip0_11478_59496)">
<path d="M21.668 19.1838V10.9661L22.5199 9.19306L26.7804 5.81789C27.3484 5.34137 28.2003 5.74157 28.2003 6.48488V22.6154C28.2003 23.359 27.3295 23.7596 26.7612 23.2827L21.668 19.1838Z" fill="#00AC47"/>
<path d="M7.57149 3.37695L0.695312 10.2531H7.57149V3.37695Z" fill="#EA4335"/>
<path d="M7.57149 10.252H0.695312V19.191H7.57149V10.252Z" fill="#2684FC"/>
<path d="M0.695312 19.1934V23.7774C0.695312 25.0381 1.72674 26.0695 2.98749 26.0695H7.57149V19.1934H0.695312Z" fill="#0066DA"/>
<path d="M22.5275 5.64265C22.5275 4.39669 21.518 3.37695 20.2841 3.37695H7.57178V10.2531H15.9951V14.7226L22.5275 14.517V5.64265Z" fill="#FFBA00"/>
<path d="M15.9951 19.1902H7.57178V26.0664H20.2841C21.518 26.0664 22.5275 25.0484 22.5275 23.8041V14.7207H15.9951V19.1902Z" fill="#00AC47"/>
<path d="M22.5275 9.2207V19.8788L15.9951 14.7216L22.5275 9.2207Z" fill="#00832D"/>
<path d="M119 23.0434H116.975V7.28875H119L124.479 16.8824H124.567L130.046 7.28875H132.07V23.0434H130.046V13.6918L130.134 11.0514H130.046L125.117 19.6989H123.929L119 11.0514H118.912L119 13.6918V23.0434ZM139.729 23.3955C138.145 23.3955 136.839 22.8526 135.812 21.7672C134.785 20.6818 134.272 19.31 134.272 17.6525C134.272 16.0095 134.771 14.6452 135.768 13.5598C136.766 12.4596 138.042 11.9095 139.597 11.9095C141.196 11.9095 142.465 12.4304 143.404 13.4718C144.357 14.4988 144.834 15.9438 144.834 17.8066L144.812 18.0266H136.34C136.37 19.0828 136.722 19.9337 137.397 20.579C138.071 21.2244 138.878 21.5472 139.817 21.5472C141.108 21.5472 142.12 20.9019 142.853 19.6109L144.658 20.491C144.174 21.4004 143.499 22.1121 142.633 22.6254C141.783 23.1387 140.814 23.3955 139.729 23.3955ZM136.494 16.3543H142.677C142.619 15.6062 142.311 14.9901 141.753 14.506C141.21 14.0075 140.477 13.7579 139.553 13.7579C138.79 13.7579 138.13 13.9927 137.573 14.462C137.03 14.9313 136.67 15.5622 136.494 16.3543ZM151.633 23.3955C150.049 23.3955 148.744 22.8526 147.717 21.7672C146.69 20.6818 146.176 19.31 146.176 17.6525C146.176 16.0095 146.675 14.6452 147.673 13.5598C148.67 12.4596 149.946 11.9095 151.501 11.9095C153.1 11.9095 154.369 12.4304 155.308 13.4718C156.261 14.4988 156.738 15.9438 156.738 17.8066L156.716 18.0266H148.245C148.274 19.0828 148.626 19.9337 149.301 20.579C149.976 21.2244 150.782 21.5472 151.721 21.5472C153.012 21.5472 154.025 20.9019 154.758 19.6109L156.562 20.491C156.078 21.4004 155.403 22.1121 154.538 22.6254C153.687 23.1387 152.719 23.3955 151.633 23.3955ZM148.399 16.3543H154.582C154.523 15.6062 154.215 14.9901 153.658 14.506C153.115 14.0075 152.381 13.7579 151.457 13.7579C150.694 13.7579 150.034 13.9927 149.477 14.462C148.934 14.9313 148.575 15.5622 148.399 16.3543ZM162.536 23.2195C161.656 23.2195 160.922 22.9479 160.335 22.4053C159.763 21.8625 159.47 21.1071 159.455 20.139V14.1099H157.563V12.2616H159.455V8.96104H161.48V12.2616H164.12V14.1099H161.48V19.4788C161.48 20.1974 161.619 20.689 161.898 20.9531C162.177 21.2024 162.492 21.3272 162.844 21.3272C163.005 21.3272 163.159 21.3124 163.306 21.2831C163.456 21.243 163.603 21.1915 163.746 21.1291L164.384 22.9334C163.856 23.1242 163.24 23.2195 162.536 23.2195ZM50.231 16.3681V13.9628H58.2813C58.3635 14.3867 58.412 14.8911 58.412 15.4374C58.412 17.2413 57.9179 19.4744 56.3295 21.0638C54.7834 22.6742 52.8086 23.533 50.1894 23.533C45.3372 23.533 41.2583 19.5816 41.2583 14.7284C41.2583 9.87522 45.3372 5.92383 50.1894 5.92383C52.8729 5.92383 54.7834 6.97623 56.2222 8.35078L54.5259 10.0475C53.4951 9.08068 52.1 8.32946 50.1894 8.32946C46.6472 8.32946 43.8774 11.1855 43.8774 14.7288C43.8774 18.2721 46.6472 21.1284 50.1894 21.1284C52.4868 21.1284 53.7963 20.205 54.6332 19.3674C55.3156 18.6853 55.7646 17.7062 55.9393 16.3684L50.231 16.3681ZM70.6794 17.8643C70.6794 21.1284 68.1246 23.5337 64.9901 23.5337C61.8555 23.5337 59.3007 21.1284 59.3007 17.8643C59.3007 14.5785 61.8555 12.1949 64.9901 12.1949C68.1249 12.1949 70.6794 14.5782 70.6794 17.8643ZM68.1892 17.8643C68.1892 15.8238 66.7081 14.4283 64.9904 14.4283C63.2731 14.4283 61.7913 15.8241 61.7913 17.8643C61.7913 19.8825 63.2724 21.3 64.9904 21.3C66.7081 21.3 68.1892 19.8828 68.1892 17.8643ZM83.0906 17.8643C83.0906 21.1284 80.5357 23.5337 77.4012 23.5337C74.2667 23.5337 71.7119 21.1284 71.7119 17.8643C71.7119 14.5785 74.2667 12.1949 77.4012 12.1949C80.5361 12.1949 83.0906 14.5782 83.0906 17.8643ZM80.6004 17.8643C80.6004 15.8238 79.1192 14.4283 77.4016 14.4283C75.6842 14.4283 74.2024 15.8241 74.2024 17.8643C74.2024 19.8825 75.6839 21.3 77.4016 21.3C79.1192 21.3 80.6004 19.8828 80.6004 17.8643ZM94.987 12.538V22.7168C94.987 26.9044 92.5181 28.6224 89.5982 28.6224C86.8501 28.6224 85.1974 26.7755 84.5744 25.2727L86.7428 24.3706C87.1293 25.294 88.0737 26.3891 89.5982 26.3891C91.4661 26.3891 92.6254 25.2294 92.6254 23.0606V22.2444H92.5395C91.9811 22.9314 90.9077 23.5327 89.5552 23.5327C86.7212 23.5327 84.1234 21.0631 84.1234 17.8849C84.1234 14.6851 86.7212 12.1942 89.5552 12.1942C90.9077 12.1942 91.9811 12.7955 92.5395 13.4615H92.6254V12.538H94.987ZM92.797 17.8853C92.797 15.8881 91.4657 14.4279 89.7697 14.4279C88.0524 14.4279 86.6136 15.8881 86.6136 17.8853C86.6136 19.8608 88.0521 21.3 89.7697 21.3C91.4661 21.3 92.797 19.8605 92.797 17.8853ZM99.2049 6.58119V23.1899H96.7147V6.58119H99.2049ZM108.822 19.7319L110.754 21.0201C110.131 21.9436 108.629 23.5327 106.031 23.5327C102.81 23.5327 100.406 21.0415 100.406 17.8633C100.406 14.4919 102.832 12.1939 105.751 12.1939C108.693 12.1939 110.131 14.5349 110.604 15.8018L110.861 16.4461L103.282 19.5813C103.862 20.7193 104.764 21.2993 106.031 21.2993C107.297 21.3 108.178 20.677 108.822 19.7319ZM102.875 17.6921L107.941 15.588C107.662 14.8794 106.825 14.3853 105.837 14.3853C104.571 14.385 102.81 15.5017 102.875 17.6921Z" fill="#5F6368"/>
</g>
<defs>
<clipPath id="clip0_11478_59496">
<rect width="164.609" height="32" fill="white" transform="translate(0.695312)"/>
</clipPath>
</defs>
</svg>
