<svg width="40" height="40" viewBox="0 0 40 40" fill="none" xmlns="http://www.w3.org/2000/svg">
<rect x="0.5" y="0.5" width="39" height="39" rx="3.5" fill="#FFF9F4"/>
<rect x="0.5" y="0.5" width="39" height="39" rx="3.5" stroke="#FDEDD7"/>
<path d="M20 10.25C18.0716 10.25 16.1866 10.8218 14.5832 11.8932C12.9798 12.9645 11.7301 14.4873 10.9922 16.2688C10.2542 18.0504 10.0611 20.0108 10.4373 21.9021C10.8136 23.7934 11.7422 25.5307 13.1057 26.8943C14.4693 28.2579 16.2066 29.1865 18.0979 29.5627C19.9892 29.9389 21.9496 29.7458 23.7312 29.0078C25.5127 28.2699 27.0355 27.0202 28.1068 25.4168C29.1782 23.8134 29.75 21.9284 29.75 20C29.7473 17.415 28.7192 14.9366 26.8913 13.1087C25.0634 11.2808 22.585 10.2527 20 10.25ZM20 28.25C18.3683 28.25 16.7733 27.7661 15.4165 26.8596C14.0598 25.9531 13.0024 24.6646 12.378 23.1571C11.7536 21.6496 11.5902 19.9908 11.9085 18.3905C12.2269 16.7902 13.0126 15.3202 14.1664 14.1664C15.3202 13.0126 16.7902 12.2268 18.3905 11.9085C19.9909 11.5902 21.6497 11.7536 23.1571 12.378C24.6646 13.0024 25.9531 14.0598 26.8596 15.4165C27.7661 16.7733 28.25 18.3683 28.25 20C28.2475 22.1873 27.3775 24.2843 25.8309 25.8309C24.2843 27.3775 22.1873 28.2475 20 28.25ZM22.0447 19.5678C22.4855 19.1572 22.7925 18.6234 22.9257 18.0359C23.0589 17.4484 23.0122 16.8344 22.7916 16.2739C22.571 15.7133 22.1867 15.2321 21.6888 14.893C21.1909 14.5539 20.6024 14.3725 20 14.3725C19.3976 14.3725 18.8091 14.5539 18.3112 14.893C17.8133 15.2321 17.429 15.7133 17.2084 16.2739C16.9878 16.8344 16.9411 17.4484 17.0743 18.0359C17.2075 18.6234 17.5145 19.1572 17.9553 19.5678C17.3934 19.9957 16.9799 20.589 16.7731 21.2643C16.5662 21.9396 16.5763 22.6627 16.8021 23.3319C17.0279 24.0011 17.4579 24.5826 18.0316 24.9945C18.6053 25.4064 19.2938 25.6279 20 25.6279C20.7063 25.6279 21.3947 25.4064 21.9684 24.9945C22.5421 24.5826 22.9721 24.0011 23.1979 23.3319C23.4237 22.6627 23.4338 21.9396 23.227 21.2643C23.0201 20.589 22.6066 19.9957 22.0447 19.5678ZM18.5 17.375C18.5 17.0783 18.588 16.7883 18.7528 16.5416C18.9176 16.295 19.1519 16.1027 19.426 15.9892C19.7001 15.8756 20.0017 15.8459 20.2926 15.9038C20.5836 15.9617 20.8509 16.1046 21.0607 16.3143C21.2704 16.5241 21.4133 16.7914 21.4712 17.0824C21.5291 17.3733 21.4994 17.6749 21.3858 17.949C21.2723 18.2231 21.08 18.4574 20.8334 18.6222C20.5867 18.787 20.2967 18.875 20 18.875C19.6022 18.875 19.2206 18.717 18.9393 18.4357C18.658 18.1544 18.5 17.7728 18.5 17.375ZM20 24.125C19.6292 24.125 19.2667 24.015 18.9583 23.809C18.65 23.603 18.4096 23.3101 18.2677 22.9675C18.1258 22.6249 18.0887 22.2479 18.161 21.8842C18.2334 21.5205 18.412 21.1864 18.6742 20.9242C18.9364 20.662 19.2705 20.4834 19.6342 20.411C19.9979 20.3387 20.3749 20.3758 20.7175 20.5177C21.0601 20.6596 21.353 20.9 21.559 21.2083C21.765 21.5166 21.875 21.8792 21.875 22.25C21.875 22.7473 21.6775 23.2242 21.3258 23.5758C20.9742 23.9275 20.4973 24.125 20 24.125Z" fill="#F6B97B"/>
</svg>
