<svg width="201" height="201" viewBox="0 0 201 201" fill="none" xmlns="http://www.w3.org/2000/svg">
<rect x="0.5" y="0.5" width="200" height="200" rx="100" fill="#F5F5F5"/>
<path d="M146.036 45.8572H54.9642C52.5488 45.8572 50.2324 46.8167 48.5245 48.5246C46.8166 50.2325 45.8571 52.549 45.8571 54.9643V146.036C45.8571 148.451 46.8166 150.768 48.5245 152.475C50.2324 154.183 52.5488 155.143 54.9642 155.143H146.036C148.451 155.143 150.767 154.183 152.475 152.475C154.183 150.768 155.143 148.451 155.143 146.036V54.9643C155.143 52.549 154.183 50.2325 152.475 48.5246C150.767 46.8167 148.451 45.8572 146.036 45.8572ZM54.9642 54.9643H146.036V99.0087L131.982 84.9496C130.274 83.243 127.959 82.2843 125.545 82.2843C123.13 82.2843 120.815 83.243 119.107 84.9496L58.0208 146.036H54.9642V54.9643ZM73.1785 82.2857C73.1785 80.4845 73.7126 78.7238 74.7133 77.2261C75.714 75.7284 77.1364 74.5611 78.8005 73.8718C80.4646 73.1825 82.2957 73.0022 84.0623 73.3536C85.829 73.705 87.4517 74.5724 88.7253 75.846C89.999 77.1197 90.8664 78.7424 91.2178 80.509C91.5692 82.2756 91.3888 84.1068 90.6995 85.7709C90.0102 87.435 88.8429 88.8574 87.3453 89.8581C85.8476 90.8588 84.0868 91.3929 82.2856 91.3929C79.8703 91.3929 77.5538 90.4334 75.8459 88.7255C74.138 87.0175 73.1785 84.7011 73.1785 82.2857Z" fill="white"/>
</svg>
