<svg width="180" height="180" viewBox="0 0 180 180" fill="none" xmlns="http://www.w3.org/2000/svg">
<g clip-path="url(#clip0_3527_31352)">
<path d="M81.6794 8.24917C82.2351 10.4513 81.9635 6.39693 83.0542 1.43704C84.145 -3.52285 86.0137 -1.51008 86.0137 -1.51008" stroke="#263238" stroke-width="0.411609" stroke-linecap="round" stroke-linejoin="round"/>
<path d="M81.3384 3.17681L84.7588 1.77734" stroke="#263238" stroke-width="0.411609" stroke-linecap="round" stroke-linejoin="round"/>
<path d="M87.5864 0.0996094C87.5864 0.0996094 85.5448 4.32683 88.6237 6.12145" stroke="#263238" stroke-width="0.411609" stroke-linecap="round" stroke-linejoin="round"/>
<path d="M90.4844 -1.08984C90.4844 -1.08984 93.8555 0.782976 91.7439 4.84144" stroke="#263238" stroke-width="0.411609" stroke-linecap="round" stroke-linejoin="round"/>
<path d="M88.1709 1.52539L90.587 3.29119" stroke="#263238" stroke-width="0.411609" stroke-linecap="round" stroke-linejoin="round"/>
<path d="M90.0697 0.753906L88.1763 3.76277" stroke="#263238" stroke-width="0.411609" stroke-linecap="round" stroke-linejoin="round"/>
<path d="M16.4485 107.734C16.4485 107.734 10.7148 107.648 10.7065 112.6" stroke="#263238" stroke-width="0.411609" stroke-linecap="round" stroke-linejoin="round"/>
<path d="M15.9713 110.849C15.8519 110.121 13.3534 109.219 12.9254 111.105C12.4932 112.99 15.5926 111.862 16.5516 110.973C16.5516 110.973 14.7735 112.702 15.3333 113.191" stroke="#263238" stroke-width="0.411609" stroke-linecap="round" stroke-linejoin="round"/>
<path d="M16.3287 113.744C16.3287 113.744 15.5754 114.691 14.7563 114.242" stroke="#263238" stroke-width="0.411609" stroke-linecap="round" stroke-linejoin="round"/>
<path d="M21.3394 110.422L17.0381 114.81C17.0381 114.81 19.1867 112.616 20.4544 113.311C22.0186 114.172 19.9893 116.514 18.3182 114.834" stroke="#263238" stroke-width="0.411609" stroke-linecap="round" stroke-linejoin="round"/>
<path d="M23.5117 111.619C23.5117 111.619 24.6478 116.847 18.7659 117.032" stroke="#263238" stroke-width="0.411609" stroke-linecap="round" stroke-linejoin="round"/>
<path d="M100.301 22.8249L102.375 23.1665L102.404 27.8794L106.948 19.5938L114.118 20.771" stroke="#263238" stroke-width="0.411609" stroke-linecap="round" stroke-linejoin="round"/>
<path d="M107.734 23.2227L110.887 28.7876" stroke="#263238" stroke-width="0.411609" stroke-linecap="round" stroke-linejoin="round"/>
<path d="M111.697 23.875L106.054 27.9952" stroke="#263238" stroke-width="0.411609" stroke-linecap="round" stroke-linejoin="round"/>
<path d="M71.9552 31.2112C71.4242 30.5362 68.366 31.0177 68.9875 33.1869C69.6049 35.3561 72.1363 32.4625 72.6179 31.0177C72.6179 31.0177 71.7741 33.7837 72.6179 33.9649" stroke="#263238" stroke-width="0.411609" stroke-linecap="round" stroke-linejoin="round"/>
<path d="M74.297 28.9844L73.6138 31.4293C73.6138 31.4293 73.9554 30.2069 74.5522 30.2069C75.289 30.2069 75.0215 31.4581 74.083 31.1824" stroke="#263238" stroke-width="0.411609" stroke-linecap="round" stroke-linejoin="round"/>
<path d="M131.951 58.9199L130.506 64.1268L133.659 67.5761" stroke="#263238" stroke-width="0.411609" stroke-linecap="round" stroke-linejoin="round"/>
<path d="M133.754 61.0352L137.36 64.0522" stroke="#263238" stroke-width="0.411609" stroke-linecap="round" stroke-linejoin="round"/>
<path d="M136.236 60.293L134.676 64.125" stroke="#263238" stroke-width="0.411609" stroke-linecap="round" stroke-linejoin="round"/>
<path d="M138.77 63.6328C138.77 63.6328 138.803 64.7195 138.333 64.8594" stroke="#263238" stroke-width="0.411609" stroke-linecap="round" stroke-linejoin="round"/>
<path d="M139.229 59.8379L141.406 61.4555" stroke="#263238" stroke-width="0.411609" stroke-linecap="round" stroke-linejoin="round"/>
<path d="M142.214 58.5078L140.065 66.2461" stroke="#263238" stroke-width="0.411609" stroke-linecap="round" stroke-linejoin="round"/>
<path d="M142.32 55.8203L145.811 59.7718L144.325 64.0937" stroke="#263238" stroke-width="0.411609" stroke-linecap="round" stroke-linejoin="round"/>
<path d="M46.1934 157.782L51.2438 142.75L57.3685 149.587L46.1934 157.782Z" stroke="#263238" stroke-width="0.411609" stroke-linecap="round" stroke-linejoin="round"/>
<path d="M55.8672 150.685L54.5747 149.207L55.9536 148.014" stroke="#263238" stroke-width="0.411609" stroke-linecap="round" stroke-linejoin="round"/>
<path d="M16.3436 73.3288C18.9667 72.2423 20.2124 69.2349 19.1259 66.6118C18.0393 63.9886 15.032 62.743 12.4088 63.8295C9.78567 64.9161 8.54 67.9234 9.62655 70.5465C10.7131 73.1697 13.7204 74.4154 16.3436 73.3288Z" stroke="#263238" stroke-width="0.411609" stroke-linecap="round" stroke-linejoin="round"/>
<path d="M20.0789 69.7809C23.2296 69.7809 25.7838 67.2267 25.7838 64.076C25.7838 60.9253 23.2296 58.3711 20.0789 58.3711C16.9282 58.3711 14.374 60.9253 14.374 64.076C14.374 67.2267 16.9282 69.7809 20.0789 69.7809Z" stroke="#263238" stroke-width="0.411609" stroke-linecap="round" stroke-linejoin="round"/>
<path d="M15.3878 63.5371L14.6921 65.9533" stroke="#263238" stroke-width="0.411609" stroke-linecap="round" stroke-linejoin="round"/>
<path d="M16.3702 63.8359L15.3865 67.3181" stroke="#263238" stroke-width="0.411609" stroke-linecap="round" stroke-linejoin="round"/>
<path d="M17.4023 64.4199L16.3691 68.359" stroke="#263238" stroke-width="0.411609" stroke-linecap="round" stroke-linejoin="round"/>
<path d="M18.5507 65.5781L17.814 69.3155" stroke="#263238" stroke-width="0.411609" stroke-linecap="round" stroke-linejoin="round"/>
<path d="M19.1985 66.7969L18.5522 69.5752" stroke="#263238" stroke-width="0.411609" stroke-linecap="round" stroke-linejoin="round"/>
<path d="M9.45827 61.9897C9.00961 61.8498 7.7789 63.0187 8.73383 63.8049C9.68877 64.5911 9.93162 62.496 9.697 61.6934C9.697 61.6934 10.1786 63.204 10.6149 63.0229" stroke="#263238" stroke-width="0.411609" stroke-linecap="round" stroke-linejoin="round"/>
<path d="M16.095 55.3906L17.7291 58.3871C17.7291 58.3871 16.91 56.8889 17.4862 56.325C18.1983 55.6335 19.1162 57.0906 17.9513 57.708" stroke="#263238" stroke-width="0.411609" stroke-linecap="round" stroke-linejoin="round"/>
<path d="M46.1792 55.0352L48.5048 57.2373" stroke="#263238" stroke-width="0.411609" stroke-linecap="round" stroke-linejoin="round"/>
<path d="M48.504 54.4609L46.5571 57.3669" stroke="#263238" stroke-width="0.411609" stroke-linecap="round" stroke-linejoin="round"/>
<path d="M50.7935 55.2962L53.119 54.4277" stroke="#263238" stroke-width="0.411609" stroke-linecap="round" stroke-linejoin="round"/>
<path d="M54.2354 52.0059L55.6513 53.2571" stroke="#263238" stroke-width="0.411609" stroke-linecap="round" stroke-linejoin="round"/>
<path d="M56.7324 50.498L54.9419 56.6475" stroke="#263238" stroke-width="0.411609" stroke-linecap="round" stroke-linejoin="round"/>
<path d="M158.382 49.2631L158.287 44.5625H161.84C161.84 44.5625 159.872 45.645 160.773 48.1764C161.675 50.7078 163.14 49.259 163.14 49.259" stroke="#263238" stroke-width="0.411609" stroke-linecap="round" stroke-linejoin="round"/>
<path d="M152.365 129.447L156.407 126.664L161.758 127.039L162.092 133.822L158.165 136.633L153.316 136.279L152.365 129.447Z" stroke="#263238" stroke-width="0.411609" stroke-linecap="round" stroke-linejoin="round"/>
<path d="M153.316 136.278L157.231 133.463L162.092 133.821" stroke="#263238" stroke-width="0.411609" stroke-linecap="round" stroke-linejoin="round"/>
<path d="M157.23 133.464L156.407 126.664" stroke="#263238" stroke-width="0.411609" stroke-linecap="round" stroke-linejoin="round"/>
<path d="M152.365 129.447L157.704 130.064L161.758 127.039" stroke="#263238" stroke-width="0.411609" stroke-linecap="round" stroke-linejoin="round"/>
<path d="M157.704 130.066L158.165 136.636" stroke="#263238" stroke-width="0.411609" stroke-linecap="round" stroke-linejoin="round"/>
<path d="M153.102 78.498L152.929 87.5411L160.853 83.9436L153.102 78.498Z" stroke="#263238" stroke-width="0.411609" stroke-linecap="round" stroke-linejoin="round"/>
<path d="M153.102 78.498L156.876 85.6971" stroke="#263238" stroke-width="0.411609" stroke-linecap="round" stroke-linejoin="round"/>
<path d="M156.271 84.5402L157.189 84.0957L157.806 85.3264" stroke="#263238" stroke-width="0.411609" stroke-linecap="round" stroke-linejoin="round"/>
<path d="M84.0186 77.6426L87.295 81.1536" stroke="#263238" stroke-width="0.411609" stroke-linecap="round" stroke-linejoin="round"/>
<path d="M87.3188 77.168L84.5652 80.9383" stroke="#263238" stroke-width="0.411609" stroke-linecap="round" stroke-linejoin="round"/>
<path d="M88.6623 75.3298C88.6623 75.3298 89.4238 75.0335 89.5843 75.8238C89.7448 76.614 88.4482 77.6431 88.4482 77.6431H90.2964" stroke="#263238" stroke-width="0.411609" stroke-linecap="round" stroke-linejoin="round"/>
<path d="M6.73511 175.457H173.264" stroke="#263238" stroke-width="0.411609" stroke-linecap="round" stroke-linejoin="round"/>
<path d="M91.232 88.6624L88.5195 140.307L54.1543 138.504L54.4424 133.03L56.8668 86.8555L78.5051 87.9915L91.232 88.6624Z" fill="white"/>
<mask id="mask0_3527_31352" style="mask-type:luminance" maskUnits="userSpaceOnUse" x="54" y="86" width="38" height="55">
<path d="M91.2328 88.6624L88.5202 140.307L54.155 138.504L54.4432 133.03L56.8675 86.8555L78.5058 87.9915L91.2328 88.6624Z" fill="white"/>
</mask>
<g mask="url(#mask0_3527_31352)">
<path opacity="0.2" d="M80.504 118.92L72.7616 119.558L75.0214 129.309L54.4409 133.03L56.8653 86.8555L78.5036 87.9915L80.504 118.92Z" fill="black" fill-opacity="0.7"/>
</g>
<path d="M91.232 88.6624L88.5195 140.307L54.1543 138.504L54.4424 133.03L56.8668 86.8555L78.5051 87.9915L91.232 88.6624Z" stroke="#263238" stroke-width="0.411609" stroke-linecap="round" stroke-linejoin="round"/>
<path d="M59.2903 90.3887L68.2345 90.8579" stroke="#263238" stroke-width="0.823218" stroke-linecap="round" stroke-linejoin="round"/>
<path d="M59.2007 92.1035L65.2843 92.4246" stroke="#263238" stroke-width="0.823218" stroke-linecap="round" stroke-linejoin="round"/>
<path d="M61.168 96.2754L86.8935 97.6255" stroke="#263238" stroke-width="0.823218" stroke-linecap="round" stroke-linejoin="round"/>
<path d="M61.0767 97.9902L86.8022 99.3403" stroke="#263238" stroke-width="0.823218" stroke-linecap="round" stroke-linejoin="round"/>
<path d="M60.9746 99.9941L82.9134 101.143" stroke="#263238" stroke-width="0.823218" stroke-linecap="round" stroke-linejoin="round"/>
<path d="M63.0754 101.934L60.9832 101.824L60.8731 103.916L62.9653 104.026L63.0754 101.934Z" stroke="#263238" stroke-width="0.411609" stroke-linecap="round" stroke-linejoin="round"/>
<path d="M66.8705 102.133L64.7783 102.023L64.6683 104.116L66.7605 104.226L66.8705 102.133Z" stroke="#263238" stroke-width="0.411609" stroke-linecap="round" stroke-linejoin="round"/>
<path d="M70.6567 102.337L68.5645 102.227L68.4544 104.319L70.5466 104.429L70.6567 102.337Z" stroke="#263238" stroke-width="0.411609" stroke-linecap="round" stroke-linejoin="round"/>
<path d="M74.4482 102.536L72.356 102.426L72.2459 104.518L74.3381 104.628L74.4482 102.536Z" stroke="#263238" stroke-width="0.411609" stroke-linecap="round" stroke-linejoin="round"/>
<path d="M59.7972 96.1987C59.7807 96.4868 59.5337 96.7091 59.2456 96.6967C58.9575 96.6803 58.7352 96.4333 58.7476 96.1452C58.764 95.8571 59.011 95.6348 59.2991 95.6512C59.5872 95.6677 59.8095 95.9147 59.793 96.2028L59.7972 96.1987Z" fill="#263238"/>
<path d="M60.6406 106.289L86.3662 107.639" stroke="#263238" stroke-width="0.823218" stroke-linecap="round" stroke-linejoin="round"/>
<path d="M60.5493 108.004L86.2749 109.354" stroke="#263238" stroke-width="0.823218" stroke-linecap="round" stroke-linejoin="round"/>
<path d="M60.4473 110.008L82.386 111.156" stroke="#263238" stroke-width="0.823218" stroke-linecap="round" stroke-linejoin="round"/>
<path d="M62.5495 111.954L60.4573 111.844L60.3473 113.936L62.4395 114.046L62.5495 111.954Z" stroke="#263238" stroke-width="0.411609" stroke-linecap="round" stroke-linejoin="round"/>
<path d="M66.3393 112.149L64.2471 112.039L64.1371 114.131L66.2293 114.241L66.3393 112.149Z" stroke="#263238" stroke-width="0.411609" stroke-linecap="round" stroke-linejoin="round"/>
<path d="M70.1274 112.35L68.0352 112.24L67.9251 114.332L70.0173 114.442L70.1274 112.35Z" stroke="#263238" stroke-width="0.411609" stroke-linecap="round" stroke-linejoin="round"/>
<path d="M73.9189 112.551L71.8267 112.441L71.7166 114.534L73.8088 114.644L73.9189 112.551Z" stroke="#263238" stroke-width="0.411609" stroke-linecap="round" stroke-linejoin="round"/>
<path d="M59.2732 106.214C59.2568 106.502 59.0098 106.725 58.7217 106.708C58.4336 106.692 58.2113 106.445 58.2236 106.157C58.2401 105.869 58.4871 105.646 58.7752 105.659C59.0633 105.675 59.2856 105.922 59.2732 106.21V106.214Z" fill="#263238"/>
<path d="M60.1182 116.301L85.8396 117.651" stroke="#263238" stroke-width="0.823218" stroke-linecap="round" stroke-linejoin="round"/>
<path d="M60.0286 118.016L85.75 119.366" stroke="#263238" stroke-width="0.823218" stroke-linecap="round" stroke-linejoin="round"/>
<path d="M59.9214 120.018L81.8601 121.17" stroke="#263238" stroke-width="0.823218" stroke-linecap="round" stroke-linejoin="round"/>
<path d="M62.0236 121.964L59.9314 121.854L59.8214 123.946L61.9136 124.056L62.0236 121.964Z" stroke="#263238" stroke-width="0.411609" stroke-linecap="round" stroke-linejoin="round"/>
<path d="M65.8134 122.163L63.7212 122.053L63.6112 124.145L65.7034 124.255L65.8134 122.163Z" stroke="#263238" stroke-width="0.411609" stroke-linecap="round" stroke-linejoin="round"/>
<path d="M69.6015 122.366L67.5093 122.256L67.3993 124.348L69.4915 124.458L69.6015 122.366Z" stroke="#263238" stroke-width="0.411609" stroke-linecap="round" stroke-linejoin="round"/>
<path d="M73.3966 122.561L71.3044 122.451L71.1944 124.543L73.2866 124.653L73.3966 122.561Z" stroke="#263238" stroke-width="0.411609" stroke-linecap="round" stroke-linejoin="round"/>
<path d="M58.7478 116.23C58.7314 116.518 58.4844 116.74 58.1963 116.728C57.9082 116.712 57.6859 116.465 57.6982 116.176C57.7147 115.888 57.9617 115.666 58.2498 115.682C58.5379 115.699 58.7602 115.946 58.7478 116.234V116.23Z" fill="#263238"/>
<path d="M59.5747 126.6L85.2961 127.954" stroke="#263238" stroke-width="0.823218" stroke-linecap="round" stroke-linejoin="round"/>
<path d="M59.4834 128.316L85.2089 129.671" stroke="#263238" stroke-width="0.823218" stroke-linecap="round" stroke-linejoin="round"/>
<path d="M59.3813 130.318L81.3201 131.471" stroke="#263238" stroke-width="0.823218" stroke-linecap="round" stroke-linejoin="round"/>
<path d="M61.4772 132.264L59.385 132.154L59.275 134.247L61.3672 134.357L61.4772 132.264Z" stroke="#263238" stroke-width="0.411609" stroke-linecap="round" stroke-linejoin="round"/>
<path d="M65.2758 132.464L63.1836 132.354L63.0736 134.446L65.1658 134.556L65.2758 132.464Z" stroke="#263238" stroke-width="0.411609" stroke-linecap="round" stroke-linejoin="round"/>
<path d="M69.0673 132.661L66.9751 132.551L66.8651 134.643L68.9573 134.753L69.0673 132.661Z" stroke="#263238" stroke-width="0.411609" stroke-linecap="round" stroke-linejoin="round"/>
<path d="M72.8573 132.866L70.7651 132.756L70.6551 134.848L72.7473 134.958L72.8573 132.866Z" stroke="#263238" stroke-width="0.411609" stroke-linecap="round" stroke-linejoin="round"/>
<path d="M58.2046 126.531C58.1882 126.819 57.9412 127.041 57.6531 127.029C57.365 127.016 57.1427 126.765 57.155 126.477C57.1715 126.189 57.4185 125.967 57.7066 125.979C57.9947 125.991 58.217 126.242 58.2046 126.531Z" fill="#263238"/>
<path d="M61.6948 102.695L61.9665 103.164L63.082 101.934" stroke="#263238" stroke-width="0.823218" stroke-linecap="round" stroke-linejoin="round"/>
<path d="M68.7578 112.982L69.0295 113.451L70.1449 112.221" stroke="#263238" stroke-width="0.823218" stroke-linecap="round" stroke-linejoin="round"/>
<path d="M72.3015 123.553L72.5732 124.022L73.6886 122.787" stroke="#263238" stroke-width="0.823218" stroke-linecap="round" stroke-linejoin="round"/>
<path d="M63.9062 132.986L64.1779 133.456L65.2934 132.221" stroke="#263238" stroke-width="0.823218" stroke-linecap="round" stroke-linejoin="round"/>
<path d="M68.3957 125.693L35.2406 134.909L21.394 85.0751L35.1212 81.2595L54.5491 75.8633L67.1114 121.079L68.3957 125.693Z" fill="white"/>
<mask id="mask1_3527_31352" style="mask-type:luminance" maskUnits="userSpaceOnUse" x="21" y="75" width="48" height="60">
<path d="M68.3961 125.695L35.2411 134.911L21.3945 85.077L35.1217 81.2614L54.5496 75.8652L67.1119 121.08L68.3961 125.695Z" fill="white"/>
</mask>
<g mask="url(#mask1_3527_31352)">
<path opacity="0.2" d="M67.1118 121.08L41.4768 122.735L35.1216 81.2614L54.5495 75.8652L67.1118 121.08Z" fill="black" fill-opacity="0.7"/>
</g>
<path d="M68.3957 125.693L35.2406 134.909L21.394 85.0751L35.1212 81.2595L54.5491 75.8633L67.1114 121.079L68.3957 125.693Z" stroke="#263238" stroke-width="0.411609" stroke-linecap="round" stroke-linejoin="round"/>
<path d="M24.8186 87.6514L33.4459 85.2559" stroke="#263238" stroke-width="0.823218" stroke-linecap="round" stroke-linejoin="round"/>
<path d="M25.2739 89.3097L31.1435 87.6797" stroke="#263238" stroke-width="0.823218" stroke-linecap="round" stroke-linejoin="round"/>
<path d="M28.4651 92.6347L53.2851 85.7402" stroke="#263238" stroke-width="0.823218" stroke-linecap="round" stroke-linejoin="round"/>
<path d="M28.9255 94.289L53.7455 87.3945" stroke="#263238" stroke-width="0.823218" stroke-linecap="round" stroke-linejoin="round"/>
<path d="M29.4619 96.2237L50.631 90.3418" stroke="#263238" stroke-width="0.823218" stroke-linecap="round" stroke-linejoin="round"/>
<path d="M32.0772 97.3941L30.0586 97.9551L30.6195 99.9737L32.6381 99.4127L32.0772 97.3941Z" stroke="#263238" stroke-width="0.411609" stroke-linecap="round" stroke-linejoin="round"/>
<path d="M35.7388 96.3726L33.7202 96.9336L34.2812 98.9522L36.2998 98.3912L35.7388 96.3726Z" stroke="#263238" stroke-width="0.411609" stroke-linecap="round" stroke-linejoin="round"/>
<path d="M39.3985 95.357L37.3799 95.918L37.9408 97.9366L39.9594 97.3756L39.3985 95.357Z" stroke="#263238" stroke-width="0.411609" stroke-linecap="round" stroke-linejoin="round"/>
<path d="M43.0513 94.3414L41.0327 94.9023L41.5937 96.9209L43.6123 96.36L43.0513 94.3414Z" stroke="#263238" stroke-width="0.411609" stroke-linecap="round" stroke-linejoin="round"/>
<path d="M27.1443 93.003C27.2225 93.2829 27.0579 93.571 26.778 93.6492C26.4981 93.7274 26.21 93.5628 26.1318 93.2829C26.0536 93.003 26.2182 92.7149 26.4981 92.6366C26.778 92.5584 27.0661 92.7231 27.1443 93.003Z" fill="#263238"/>
<path d="M31.1467 102.295L55.9667 95.4004" stroke="#263238" stroke-width="0.823218" stroke-linecap="round" stroke-linejoin="round"/>
<path d="M31.6072 103.953L56.4272 97.0547" stroke="#263238" stroke-width="0.823218" stroke-linecap="round" stroke-linejoin="round"/>
<path d="M32.147 105.884L53.3119 100.002" stroke="#263238" stroke-width="0.823218" stroke-linecap="round" stroke-linejoin="round"/>
<path d="M34.7618 107.056L32.7432 107.617L33.3041 109.636L35.3227 109.075L34.7618 107.056Z" stroke="#263238" stroke-width="0.411609" stroke-linecap="round" stroke-linejoin="round"/>
<path d="M38.4197 106.041L36.4011 106.602L36.9621 108.62L38.9807 108.059L38.4197 106.041Z" stroke="#263238" stroke-width="0.411609" stroke-linecap="round" stroke-linejoin="round"/>
<path d="M42.0796 105.023L40.061 105.584L40.622 107.603L42.6406 107.042L42.0796 105.023Z" stroke="#263238" stroke-width="0.411609" stroke-linecap="round" stroke-linejoin="round"/>
<path d="M45.7393 104.002L43.7207 104.562L44.2816 106.581L46.3003 106.02L45.7393 104.002Z" stroke="#263238" stroke-width="0.411609" stroke-linecap="round" stroke-linejoin="round"/>
<path d="M29.8321 102.667C29.9103 102.947 29.7456 103.235 29.4657 103.313C29.1858 103.391 28.8977 103.227 28.8195 102.947C28.7413 102.667 28.9059 102.379 29.1858 102.301C29.4657 102.223 29.7539 102.387 29.8321 102.667Z" fill="#263238"/>
<path d="M33.8362 111.961L58.6521 105.062" stroke="#263238" stroke-width="0.823218" stroke-linecap="round" stroke-linejoin="round"/>
<path d="M34.2969 113.615L59.1128 106.721" stroke="#263238" stroke-width="0.823218" stroke-linecap="round" stroke-linejoin="round"/>
<path d="M34.8328 115.552L56.0018 109.67" stroke="#263238" stroke-width="0.823218" stroke-linecap="round" stroke-linejoin="round"/>
<path d="M37.4446 116.718L35.426 117.279L35.987 119.298L38.0056 118.737L37.4446 116.718Z" stroke="#263238" stroke-width="0.411609" stroke-linecap="round" stroke-linejoin="round"/>
<path d="M41.106 115.701L39.0874 116.262L39.6483 118.28L41.6669 117.719L41.106 115.701Z" stroke="#263238" stroke-width="0.411609" stroke-linecap="round" stroke-linejoin="round"/>
<path d="M44.7622 114.683L42.7437 115.244L43.3046 117.263L45.3232 116.702L44.7622 114.683Z" stroke="#263238" stroke-width="0.411609" stroke-linecap="round" stroke-linejoin="round"/>
<path d="M48.4222 113.666L46.4036 114.227L46.9645 116.245L48.9831 115.684L48.4222 113.666Z" stroke="#263238" stroke-width="0.411609" stroke-linecap="round" stroke-linejoin="round"/>
<path d="M32.5144 112.325C32.5926 112.605 32.428 112.893 32.1481 112.971C31.8682 113.05 31.5801 112.885 31.5019 112.605C31.4237 112.325 31.5883 112.037 31.8682 111.959C32.1481 111.881 32.4362 112.045 32.5144 112.325Z" fill="#263238"/>
<path d="M36.5977 121.898L61.4136 115.004" stroke="#263238" stroke-width="0.823218" stroke-linecap="round" stroke-linejoin="round"/>
<path d="M37.0547 123.557L61.8747 116.658" stroke="#263238" stroke-width="0.823218" stroke-linecap="round" stroke-linejoin="round"/>
<path d="M37.5942 125.487L58.7633 119.605" stroke="#263238" stroke-width="0.823218" stroke-linecap="round" stroke-linejoin="round"/>
<path d="M40.2095 126.658L38.1909 127.219L38.7519 129.237L40.7705 128.676L40.2095 126.658Z" stroke="#263238" stroke-width="0.411609" stroke-linecap="round" stroke-linejoin="round"/>
<path d="M43.8711 125.64L41.8525 126.201L42.4135 128.22L44.4321 127.659L43.8711 125.64Z" stroke="#263238" stroke-width="0.411609" stroke-linecap="round" stroke-linejoin="round"/>
<path d="M47.5308 124.623L45.5122 125.184L46.0732 127.202L48.0917 126.641L47.5308 124.623Z" stroke="#263238" stroke-width="0.411609" stroke-linecap="round" stroke-linejoin="round"/>
<path d="M51.1871 123.605L49.1685 124.166L49.7294 126.185L51.748 125.624L51.1871 123.605Z" stroke="#263238" stroke-width="0.411609" stroke-linecap="round" stroke-linejoin="round"/>
<path d="M35.2762 122.263C35.3544 122.543 35.1897 122.831 34.9098 122.909C34.6299 122.987 34.3418 122.823 34.2636 122.543C34.1854 122.263 34.35 121.975 34.6299 121.896C34.9098 121.818 35.198 121.983 35.2762 122.263Z" fill="#263238"/>
<path d="M34.4497 97.5965L34.8572 97.9546L35.524 96.4316" stroke="#263238" stroke-width="0.823218" stroke-linecap="round" stroke-linejoin="round"/>
<path d="M33.4583 108.376L33.8657 108.734L34.5284 107.211" stroke="#263238" stroke-width="0.823218" stroke-linecap="round" stroke-linejoin="round"/>
<path d="M36.1426 117.936L36.5501 118.294L37.2128 116.771" stroke="#263238" stroke-width="0.823218" stroke-linecap="round" stroke-linejoin="round"/>
<path d="M46.2148 125.77L46.6223 126.128L47.2891 124.605" stroke="#263238" stroke-width="0.823218" stroke-linecap="round" stroke-linejoin="round"/>
<path d="M71.6338 64.3524L37.3811 67.6445L42.3291 119.126L76.5818 115.834L71.6338 64.3524Z" fill="white" stroke="#263238" stroke-width="0.411609" stroke-linecap="round" stroke-linejoin="round"/>
<path d="M40.2991 70.7839L49.2145 69.9277" stroke="#263238" stroke-width="0.823218" stroke-linecap="round" stroke-linejoin="round"/>
<path d="M40.4644 72.4966L46.5274 71.9121" stroke="#263238" stroke-width="0.823218" stroke-linecap="round" stroke-linejoin="round"/>
<path d="M43.0259 76.3288L68.665 73.8633" stroke="#263238" stroke-width="0.823218" stroke-linecap="round" stroke-linejoin="round"/>
<path d="M43.1912 78.0376L68.8303 75.5762" stroke="#263238" stroke-width="0.823218" stroke-linecap="round" stroke-linejoin="round"/>
<path d="M43.3845 80.0328L65.2533 77.9336" stroke="#263238" stroke-width="0.823218" stroke-linecap="round" stroke-linejoin="round"/>
<path d="M45.7554 81.6374L43.6699 81.8379L43.8704 83.9234L45.9558 83.7229L45.7554 81.6374Z" stroke="#263238" stroke-width="0.411609" stroke-linecap="round" stroke-linejoin="round"/>
<path d="M49.5364 81.2722L47.4509 81.4727L47.6514 83.5581L49.7368 83.3577L49.5364 81.2722Z" stroke="#263238" stroke-width="0.411609" stroke-linecap="round" stroke-linejoin="round"/>
<path d="M53.3157 80.9128L51.2302 81.1133L51.4307 83.1988L53.5161 82.9983L53.3157 80.9128Z" stroke="#263238" stroke-width="0.411609" stroke-linecap="round" stroke-linejoin="round"/>
<path d="M57.095 80.5457L55.0095 80.7461L55.21 82.8316L57.2954 82.6311L57.095 80.5457Z" stroke="#263238" stroke-width="0.411609" stroke-linecap="round" stroke-linejoin="round"/>
<path d="M41.6619 76.4603C41.6907 76.7484 41.4766 77.0037 41.1885 77.0325C40.9004 77.0613 40.6452 76.8472 40.6164 76.5591C40.5876 76.271 40.8016 76.0158 41.0897 75.987C41.3778 75.9582 41.633 76.1722 41.6619 76.4603Z" fill="#263238"/>
<path d="M43.98 86.3091L69.6191 83.8477" stroke="#263238" stroke-width="0.823218" stroke-linecap="round" stroke-linejoin="round"/>
<path d="M44.1453 88.0222L69.7844 85.5566" stroke="#263238" stroke-width="0.823218" stroke-linecap="round" stroke-linejoin="round"/>
<path d="M44.3386 90.0193L66.2074 87.916" stroke="#263238" stroke-width="0.823218" stroke-linecap="round" stroke-linejoin="round"/>
<path d="M46.7158 91.614L44.6304 91.8145L44.8308 93.8999L46.9163 93.6995L46.7158 91.614Z" stroke="#263238" stroke-width="0.411609" stroke-linecap="round" stroke-linejoin="round"/>
<path d="M50.4969 91.2546L48.4114 91.4551L48.6118 93.5406L50.6973 93.3401L50.4969 91.2546Z" stroke="#263238" stroke-width="0.411609" stroke-linecap="round" stroke-linejoin="round"/>
<path d="M54.2762 90.8914L52.1907 91.0918L52.3911 93.1773L54.4766 92.9768L54.2762 90.8914Z" stroke="#263238" stroke-width="0.411609" stroke-linecap="round" stroke-linejoin="round"/>
<path d="M58.0555 90.532L55.97 90.7324L56.1704 92.8179L58.2559 92.6175L58.0555 90.532Z" stroke="#263238" stroke-width="0.411609" stroke-linecap="round" stroke-linejoin="round"/>
<path d="M42.6199 86.4408C42.6487 86.7289 42.4346 86.9841 42.1465 87.0129C41.8584 87.0417 41.6032 86.8277 41.5744 86.5396C41.5456 86.2515 41.7596 85.9963 42.0477 85.9674C42.3359 85.9386 42.591 86.1527 42.6199 86.4408Z" fill="#263238"/>
<path d="M44.9419 96.2895L70.581 93.8281" stroke="#263238" stroke-width="0.823218" stroke-linecap="round" stroke-linejoin="round"/>
<path d="M45.1072 98.0026L70.7463 95.5371" stroke="#263238" stroke-width="0.823218" stroke-linecap="round" stroke-linejoin="round"/>
<path d="M45.3005 99.9998L67.1693 97.8965" stroke="#263238" stroke-width="0.823218" stroke-linecap="round" stroke-linejoin="round"/>
<path d="M47.6763 101.602L45.5908 101.803L45.7913 103.888L47.8767 103.688L47.6763 101.602Z" stroke="#263238" stroke-width="0.411609" stroke-linecap="round" stroke-linejoin="round"/>
<path d="M51.4522 101.237L49.3667 101.438L49.5671 103.523L51.6526 103.323L51.4522 101.237Z" stroke="#263238" stroke-width="0.411609" stroke-linecap="round" stroke-linejoin="round"/>
<path d="M55.2366 100.874L53.1511 101.074L53.3516 103.16L55.437 102.959L55.2366 100.874Z" stroke="#263238" stroke-width="0.411609" stroke-linecap="round" stroke-linejoin="round"/>
<path d="M59.0159 100.514L56.9304 100.715L57.1309 102.8L59.2163 102.6L59.0159 100.514Z" stroke="#263238" stroke-width="0.411609" stroke-linecap="round" stroke-linejoin="round"/>
<path d="M43.5745 96.4213C43.6033 96.7094 43.3892 96.9646 43.1011 96.9934C42.813 97.0222 42.5578 96.8082 42.529 96.5201C42.5002 96.2319 42.7142 95.9767 43.0023 95.9479C43.2904 95.9191 43.5456 96.1331 43.5745 96.4213Z" fill="#263238"/>
<path d="M45.9292 106.561L71.5683 104.096" stroke="#263238" stroke-width="0.823218" stroke-linecap="round" stroke-linejoin="round"/>
<path d="M46.0947 108.27L71.7338 105.809" stroke="#263238" stroke-width="0.823218" stroke-linecap="round" stroke-linejoin="round"/>
<path d="M46.2827 110.267L68.1515 108.168" stroke="#263238" stroke-width="0.823218" stroke-linecap="round" stroke-linejoin="round"/>
<path d="M48.6607 111.87L46.5752 112.07L46.7756 114.156L48.8611 113.955L48.6607 111.87Z" stroke="#263238" stroke-width="0.411609" stroke-linecap="round" stroke-linejoin="round"/>
<path d="M52.4453 111.505L50.3599 111.705L50.5603 113.791L52.6458 113.59L52.4453 111.505Z" stroke="#263238" stroke-width="0.411609" stroke-linecap="round" stroke-linejoin="round"/>
<path d="M56.221 111.141L54.1355 111.342L54.3359 113.427L56.4214 113.227L56.221 111.141Z" stroke="#263238" stroke-width="0.411609" stroke-linecap="round" stroke-linejoin="round"/>
<path d="M60.0003 110.778L57.9148 110.979L58.1152 113.064L60.2007 112.864L60.0003 110.778Z" stroke="#263238" stroke-width="0.411609" stroke-linecap="round" stroke-linejoin="round"/>
<path d="M44.564 106.687C44.5928 106.975 44.3787 107.23 44.0906 107.259C43.8025 107.288 43.5473 107.074 43.5185 106.786C43.4897 106.498 43.7037 106.242 43.9918 106.214C44.2799 106.185 44.5351 106.399 44.564 106.687Z" fill="#263238"/>
<path d="M44.4932 82.5997L44.8307 83.0236L45.7527 81.6406" stroke="#263238" stroke-width="0.823218" stroke-linecap="round" stroke-linejoin="round"/>
<path d="M53.001 91.7286L53.3385 92.1525L54.2564 90.7695" stroke="#263238" stroke-width="0.823218" stroke-linecap="round" stroke-linejoin="round"/>
<path d="M50.1973 102.283L50.5348 102.707L51.4568 101.324" stroke="#263238" stroke-width="0.823218" stroke-linecap="round" stroke-linejoin="round"/>
<path d="M58.6895 111.746L59.027 112.17L59.949 110.787" stroke="#263238" stroke-width="0.823218" stroke-linecap="round" stroke-linejoin="round"/>
<path d="M113.519 44.0566H92.2555C90.6913 44.0566 89.4236 45.3244 89.4236 46.8885V65.1557C89.4236 66.7198 90.6913 67.9876 92.2555 67.9876H101.681L107.082 74.4992L105.727 67.9876H113.519C115.083 67.9876 116.351 66.7198 116.351 65.1557V46.8885C116.351 45.3244 115.083 44.0566 113.519 44.0566Z" fill="white" stroke="#263238" stroke-width="0.411609" stroke-linecap="round" stroke-linejoin="round"/>
<path d="M104.587 54.0817V52.1472L103.138 52.0237C103.052 51.7191 102.933 51.4268 102.78 51.1552L103.715 50.0438L102.348 48.6773L101.237 49.6116C100.965 49.4594 100.673 49.34 100.368 49.2535L100.245 47.8047H98.3103L98.1868 49.2535C97.8822 49.34 97.5899 49.4594 97.3183 49.6116L96.2069 48.6773L94.8404 50.0438L95.7747 51.1552C95.6224 51.4268 95.5031 51.7191 95.4166 52.0237L93.9678 52.1472V54.0817L95.4166 54.2052C95.5031 54.5098 95.6224 54.802 95.7747 55.0737L94.8404 56.185L96.2069 57.5516L97.3183 56.6172C97.5899 56.7695 97.8822 56.8889 98.1868 56.9753L98.3103 58.4242H100.245L100.368 56.9753C100.673 56.8889 100.965 56.7695 101.237 56.6172L102.348 57.5516L103.715 56.185L102.78 55.0737C102.933 54.802 103.052 54.5098 103.138 54.2052L104.587 54.0817ZM99.2734 55.3659C98.0304 55.3659 97.026 54.3575 97.026 53.1186C97.026 51.8796 98.0345 50.8712 99.2734 50.8712C100.512 50.8712 101.521 51.8796 101.521 53.1186C101.521 54.3575 100.512 55.3659 99.2734 55.3659Z" fill="#F19146"/>
<path d="M110.987 58.3995V57.0248L109.954 56.9342C109.892 56.7161 109.806 56.5103 109.699 56.3168L110.366 55.5265L109.394 54.5551L108.604 55.2219C108.411 55.1149 108.205 55.0285 107.987 54.9667L107.896 53.9336H106.521L106.431 54.9667C106.213 55.0285 106.007 55.1149 105.813 55.2219L105.023 54.5551L104.052 55.5265L104.719 56.3168C104.611 56.5103 104.525 56.7161 104.463 56.9342L103.43 57.0248V58.3995L104.463 58.4901C104.525 58.7083 104.611 58.9141 104.719 59.1075L104.052 59.8978L105.023 60.8692L105.813 60.2024C106.007 60.3094 106.213 60.3958 106.431 60.4576L106.521 61.4907H107.896L107.987 60.4576C108.205 60.3958 108.411 60.3094 108.604 60.2024L109.394 60.8692L110.366 59.8978L109.699 59.1075C109.806 58.9141 109.892 58.7083 109.954 58.4901L110.987 58.3995ZM107.205 59.3133C106.32 59.3133 105.603 58.5971 105.603 57.7122C105.603 56.8272 106.32 56.111 107.205 56.111C108.09 56.111 108.806 56.8272 108.806 57.7122C108.806 58.5971 108.09 59.3133 107.205 59.3133Z" fill="#F19146"/>
<path d="M104.253 61.6073V60.6277L103.52 60.5659C103.475 60.4095 103.417 60.2655 103.339 60.1255L103.813 59.5616L103.121 58.8701L102.557 59.3435C102.421 59.2653 102.273 59.2076 102.117 59.1624L102.055 58.4297H101.075L101.014 59.1624C100.857 59.2076 100.713 59.2653 100.573 59.3435L100.009 58.8701L99.3179 59.5616L99.7912 60.1255C99.713 60.2613 99.6554 60.4095 99.6101 60.5659L98.8774 60.6277V61.6073L99.6101 61.669C99.6554 61.8255 99.713 61.9695 99.7912 62.1095L99.3179 62.6734L100.009 63.3649L100.573 62.8915C100.709 62.9697 100.857 63.0274 101.014 63.0726L101.075 63.8053H102.055L102.117 63.0726C102.273 63.0274 102.417 62.9697 102.557 62.8915L103.121 63.3649L103.813 62.6734L103.339 62.1095C103.417 61.9736 103.475 61.8255 103.52 61.669L104.253 61.6073ZM101.561 62.2576C100.931 62.2576 100.421 61.7473 100.421 61.1175C100.421 60.4877 100.931 59.9773 101.561 59.9773C102.191 59.9773 102.701 60.4877 102.701 61.1175C102.701 61.7473 102.191 62.2576 101.561 62.2576Z" fill="#F19146"/>
<path d="M102.318 114.297L118.898 175.454H121.376L104.8 114.297H102.318Z" fill="#757575" stroke="#263238" stroke-width="0.411609" stroke-linecap="round" stroke-linejoin="round"/>
<path d="M139.66 158.119H108.233V160.679H139.66V158.119Z" fill="#999999" stroke="#263238" stroke-width="0.411609" stroke-linecap="round" stroke-linejoin="round"/>
<path d="M156.425 100.559L136.124 175.455H133.647L153.947 100.559C154.696 97.797 152.98 95.5496 150.119 95.5496H132.626C129.769 95.5496 126.83 97.7929 126.081 100.559L105.781 175.455H103.303L123.603 100.559C124.711 96.4716 129.041 93.1582 133.276 93.1582H150.769C155.005 93.1582 157.536 96.4716 156.429 100.559H156.425Z" fill="#757575" stroke="#263238" stroke-width="0.411609" stroke-linecap="round" stroke-linejoin="round"/>
<path d="M156.745 100.585L151.707 119.181C151.291 120.717 149.665 121.96 148.077 121.96H119.33C117.741 121.96 116.79 120.717 117.206 119.181L122.248 100.585C122.664 99.0538 124.29 97.8066 125.879 97.8066H154.621C156.21 97.8066 157.161 99.0538 156.745 100.585Z" fill="#F19146"/>
<mask id="mask2_3527_31352" style="mask-type:luminance" maskUnits="userSpaceOnUse" x="117" y="97" width="40" height="25">
<path d="M156.743 100.585L151.705 119.181C151.289 120.717 149.664 121.96 148.075 121.96H119.328C117.739 121.96 116.788 120.717 117.204 119.181L122.246 100.585C122.662 99.0538 124.288 97.8066 125.877 97.8066H154.619C156.208 97.8066 157.159 99.0538 156.743 100.585Z" fill="white"/>
</mask>
<g mask="url(#mask2_3527_31352)">
<path opacity="0.2" d="M156.743 100.585L151.705 119.181C151.289 120.717 149.664 121.96 148.075 121.96H119.328C117.739 121.96 116.788 120.717 117.204 119.181L122.246 100.585C122.662 99.0538 124.288 97.8066 125.877 97.8066H140.74C147.165 104.405 146.346 116.531 145.926 120.194C147.243 119.881 148.445 118.799 148.795 117.51L153.837 98.9139C153.944 98.5187 153.961 98.1442 153.899 97.8066H154.619C156.208 97.8066 157.159 99.0538 156.743 100.585Z" fill="black" fill-opacity="0.7"/>
</g>
<path d="M156.745 100.585L151.707 119.181C151.291 120.717 149.665 121.96 148.077 121.96H119.33C117.741 121.96 116.79 120.717 117.206 119.181L122.248 100.585C122.664 99.0538 124.29 97.8066 125.879 97.8066H154.621C156.21 97.8066 157.161 99.0538 156.745 100.585Z" stroke="#263238" stroke-width="0.411609" stroke-linecap="round" stroke-linejoin="round"/>
<path d="M139.846 140.781L149.247 175.455H151.725L142.328 140.781H139.846Z" fill="#757575" stroke="#263238" stroke-width="0.411609" stroke-linecap="round" stroke-linejoin="round"/>
<path d="M142.335 136.803V140.195H105.323V136.803C105.323 135.424 106.438 134.309 107.817 134.309H139.836C140.989 134.309 141.96 135.087 142.248 136.148C142.306 136.354 142.335 136.577 142.335 136.803Z" fill="#F19146"/>
<mask id="mask3_3527_31352" style="mask-type:luminance" maskUnits="userSpaceOnUse" x="105" y="134" width="38" height="7">
<path d="M142.336 136.805V140.197H105.324V136.805C105.324 135.426 106.44 134.311 107.819 134.311H139.838C140.99 134.311 141.962 135.088 142.25 136.15C142.307 136.356 142.336 136.579 142.336 136.805Z" fill="white"/>
</mask>
<g mask="url(#mask3_3527_31352)">
<path opacity="0.2" d="M142.25 136.15C141.052 137.558 138.903 138.991 135.207 140.197H105.324V136.805C105.324 135.426 106.44 134.311 107.819 134.311H139.838C140.99 134.311 141.962 135.088 142.25 136.15Z" fill="black" fill-opacity="0.7"/>
</g>
<path d="M142.335 136.803V140.195H105.323V136.803C105.323 135.424 106.438 134.309 107.817 134.309H139.836C140.989 134.309 141.96 135.087 142.248 136.148C142.306 136.354 142.335 136.577 142.335 136.803Z" stroke="#263238" stroke-width="0.411609" stroke-linecap="round" stroke-linejoin="round"/>
<path d="M143.59 139.152H104.388C103.999 139.152 103.684 139.467 103.684 139.856V141.63C103.684 142.019 103.999 142.334 104.388 142.334H143.59C143.978 142.334 144.293 142.019 144.293 141.63V139.856C144.293 139.467 143.978 139.152 143.59 139.152Z" fill="#999999" stroke="#263238" stroke-width="0.411609" stroke-linecap="round" stroke-linejoin="round"/>
<path d="M104.125 139.267C102.351 141.074 110.949 169.466 110.949 169.466C110.011 170.281 108.628 170.668 107.319 170.841C105.425 171.092 103.692 170.895 103.692 170.895C103.692 170.895 91.3688 141.004 94.7605 133.586C98.1522 126.169 119.198 122.773 119.198 122.773L120.095 120.551L130.982 119.02L132.781 132.352C132.781 132.352 130.994 132.524 128.307 132.87C121.099 133.796 107.385 135.949 104.125 139.267Z" fill="#263238"/>
<mask id="mask4_3527_31352" style="mask-type:luminance" maskUnits="userSpaceOnUse" x="94" y="119" width="39" height="52">
<path d="M104.122 139.265C102.348 141.072 110.947 169.464 110.947 169.464C110.008 170.279 108.625 170.666 107.316 170.839C105.423 171.09 103.69 170.893 103.69 170.893C103.69 170.893 91.3664 141.002 94.7581 133.584C98.1497 126.167 119.195 122.771 119.195 122.771L120.093 120.549L130.98 119.018L132.778 132.35C132.778 132.35 130.992 132.522 128.304 132.868C121.097 133.794 107.382 135.947 104.122 139.265Z" fill="white"/>
</mask>
<g mask="url(#mask4_3527_31352)">
<path opacity="0.3" d="M110.949 169.465C110.01 170.28 108.627 170.667 107.318 170.84C104.927 161.949 98.8392 138.224 101.148 135.323C103.993 131.742 118.07 128.486 118.07 128.486C118.127 126.658 123.062 125.012 123.062 125.012L128.306 132.869C121.099 133.795 107.384 135.948 104.124 139.266C102.35 141.073 110.949 169.465 110.949 169.465Z" fill="black"/>
</g>
<path d="M104.125 139.267C102.351 141.074 110.949 169.466 110.949 169.466C110.011 170.281 108.628 170.668 107.319 170.841C105.425 171.092 103.692 170.895 103.692 170.895C103.692 170.895 91.3688 141.004 94.7605 133.586C98.1522 126.169 119.198 122.773 119.198 122.773L120.095 120.551L130.982 119.02L132.781 132.352C132.781 132.352 130.994 132.524 128.307 132.87C121.099 133.796 107.385 135.949 104.125 139.267Z" stroke="#263238" stroke-width="0.411609" stroke-linecap="round" stroke-linejoin="round"/>
<path d="M98.0324 112.38C96.2254 112.067 109.088 100.793 109.088 100.793L115.291 104.967C115.291 104.967 104.737 112.4 103.079 112.602C101.42 112.804 98.0365 112.38 98.0365 112.38H98.0324Z" fill="white"/>
<mask id="mask5_3527_31352" style="mask-type:luminance" maskUnits="userSpaceOnUse" x="97" y="100" width="19" height="13">
<path d="M98.0331 112.378C96.2262 112.065 109.089 100.791 109.089 100.791L115.292 104.965C115.292 104.965 104.738 112.398 103.079 112.6C101.421 112.802 98.0372 112.378 98.0372 112.378H98.0331Z" fill="white"/>
</mask>
<g mask="url(#mask5_3527_31352)">
<path opacity="0.2" d="M98.0331 112.378C96.2262 112.065 109.089 100.791 109.089 100.791L115.292 104.965C115.292 104.965 104.738 112.398 103.079 112.6C101.421 112.802 98.0372 112.378 98.0372 112.378H98.0331Z" fill="black" fill-opacity="0.7"/>
</g>
<path d="M98.0324 112.38C96.2254 112.067 109.088 100.793 109.088 100.793L115.291 104.967C115.291 104.967 104.737 112.4 103.079 112.602C101.42 112.804 98.0365 112.38 98.0365 112.38H98.0324Z" stroke="#263238" stroke-width="0.411609" stroke-linecap="round" stroke-linejoin="round"/>
<path d="M100.298 107.637C100.298 107.637 102.994 108.308 103.818 108.884C104.641 109.46 104.41 111.489 104.41 111.489C104.41 111.489 100.809 110.46 100.298 107.641V107.637Z" fill="white" stroke="#263238" stroke-width="0.411609" stroke-linecap="round" stroke-linejoin="round"/>
<path d="M98.5703 102.476L103.584 112.087H104.176L99.4141 101.998L98.5703 102.476Z" fill="#263238"/>
<path d="M103.09 109.423C103.09 109.423 99.9287 107.176 99.1549 107.176C98.3811 107.176 96.0637 109.913 96.0637 111.284C96.0637 112.654 101.114 113.416 102.106 112.251C102.596 111.671 101.62 110.271 101.62 110.271C101.62 110.271 103.09 111.794 103.51 112.02C103.93 112.247 104.703 111.95 104.703 111.95C104.703 111.95 103.65 110.271 103.086 109.423H103.09Z" fill="white" stroke="#263238" stroke-width="0.411609" stroke-linecap="round" stroke-linejoin="round"/>
<path d="M101.62 112.575C101.62 112.575 100.418 111.015 98.9817 110.27" stroke="#263238" stroke-width="0.411609" stroke-linecap="round" stroke-linejoin="round"/>
<path d="M101.622 110.272C101.622 110.272 100.527 109.317 99.7903 109.107" stroke="#263238" stroke-width="0.411609" stroke-linecap="round" stroke-linejoin="round"/>
<path d="M98.1768 111.486C98.1768 111.486 99.9467 112.417 100.387 112.812" stroke="#263238" stroke-width="0.411609" stroke-linecap="round" stroke-linejoin="round"/>
<path d="M113.12 95.8594C111.498 96.9913 104.238 104.458 104.238 104.458C104.238 104.458 107.642 108.331 110.626 108.891L118.714 104.964L113.124 95.8594H113.12Z" fill="#F19146" stroke="#263238" stroke-width="0.411609" stroke-linecap="round" stroke-linejoin="round"/>
<path opacity="0.4" d="M113.12 95.8594C111.498 96.9913 104.238 104.458 104.238 104.458C104.238 104.458 107.642 108.331 110.626 108.891L118.714 104.964L113.124 95.8594H113.12Z" fill="white" stroke="#263238" stroke-width="0.411609" stroke-linecap="round" stroke-linejoin="round"/>
<path d="M109.212 166.453L112.633 175.451C112.633 175.451 113.201 177.768 102.861 177.036L97.1602 176.546L109.208 166.449L109.212 166.453Z" fill="#F19146"/>
<mask id="mask6_3527_31352" style="mask-type:luminance" maskUnits="userSpaceOnUse" x="97" y="166" width="16" height="12">
<path d="M109.209 166.453L112.63 175.451C112.63 175.451 113.198 177.768 102.858 177.036L97.1572 176.546L109.205 166.449L109.209 166.453Z" fill="white"/>
</mask>
<g mask="url(#mask6_3527_31352)">
<path opacity="0.3" d="M109.209 166.453L112.63 175.451C112.63 175.451 113.198 177.768 102.858 177.036L97.1572 176.546L109.205 166.449L109.209 166.453Z" fill="black"/>
</g>
<path d="M109.212 166.453L112.633 175.451C112.633 175.451 113.201 177.768 102.861 177.036L97.1602 176.546L109.208 166.449L109.212 166.453Z" stroke="#263238" stroke-width="0.411609" stroke-linecap="round" stroke-linejoin="round"/>
<path d="M107.911 170.767C107.911 170.767 108.644 174.27 107.911 176.876C107.911 176.876 96.9993 178.584 94.5585 177.933C92.1177 177.283 90.6359 176.065 90.5618 175.451C90.5618 175.451 90.6482 173.78 93.0932 173.291C95.534 172.801 100.403 172.476 102.326 169.71C104.248 166.944 107.911 170.767 107.911 170.767Z" fill="#F19146" stroke="#263238" stroke-width="0.411609" stroke-linecap="round" stroke-linejoin="round"/>
<path d="M122.449 119.975C125.935 115.003 141.964 120.987 141.964 120.987C141.964 120.987 143.495 132.957 137.111 136.147C130.727 139.337 121.523 139.168 119.037 141.757L108.92 171.632C108.92 171.632 105.285 173.151 100 170.759C100 170.759 106.425 148.199 108.31 140.189C110.175 132.265 122.252 126.882 122.252 126.882C122.252 126.882 121.235 125.733 120.86 124.379" fill="#263238"/>
<path d="M122.449 119.975C125.935 115.003 141.964 120.987 141.964 120.987C141.964 120.987 143.495 132.957 137.111 136.147C130.727 139.337 121.523 139.168 119.037 141.757L108.92 171.632C108.92 171.632 105.285 173.151 100 170.759C100 170.759 106.425 148.199 108.31 140.189C110.175 132.265 122.252 126.882 122.252 126.882C122.252 126.882 121.235 125.733 120.86 124.379" stroke="#263238" stroke-width="0.411609" stroke-linecap="round" stroke-linejoin="round"/>
<path d="M138.533 131.645C138.018 132.101 137.479 132.521 136.915 132.912" stroke="white" stroke-width="0.411609" stroke-linecap="round" stroke-linejoin="round"/>
<path d="M139.848 121.508C141.156 124.348 141.255 127.954 139.424 130.584" stroke="white" stroke-width="0.411609" stroke-linecap="round" stroke-linejoin="round"/>
<path d="M136.197 121.957C136.197 121.957 135.863 124.147 136.839 125.015C137.814 125.884 140.807 126.328 140.807 126.328" stroke="white" stroke-width="0.411609" stroke-linecap="round" stroke-linejoin="round"/>
<path d="M123.057 122.064C123.057 122.064 123.193 124.246 122.308 124.143C121.423 124.04 121.378 125.016 121.378 125.016" stroke="white" stroke-width="0.411609" stroke-linecap="round" stroke-linejoin="round"/>
<path d="M113.331 97.539C113.195 96.9586 113.121 96.3947 113.121 95.8596C113.121 95.8596 118.072 91.6942 124.42 91.7189C131.993 91.7436 136.624 94.1268 138.476 97.4361C141.411 102.672 141.822 121.219 141.822 121.219C141.822 121.219 122.822 124.15 120.093 120.552C119.62 119.931 119.982 115.51 119.982 115.51C119.982 115.51 117.854 109.933 117.406 105.602C117.406 105.602 116.587 104.499 115.665 102.927C115.055 101.89 114.405 100.647 113.911 99.383" fill="#F19146"/>
<path d="M113.331 97.539C113.195 96.9586 113.121 96.3947 113.121 95.8596C113.121 95.8596 118.072 91.6942 124.42 91.7189C131.993 91.7436 136.624 94.1268 138.476 97.4361C141.411 102.672 141.822 121.219 141.822 121.219C141.822 121.219 122.822 124.15 120.093 120.552C119.62 119.931 119.982 115.51 119.982 115.51C119.982 115.51 117.854 109.933 117.406 105.602C117.406 105.602 116.587 104.499 115.665 102.927C115.055 101.89 114.405 100.647 113.911 99.383" stroke="#263238" stroke-width="0.411609" stroke-linecap="round" stroke-linejoin="round"/>
<g opacity="0.6">
<path d="M113.331 97.539C113.195 96.9586 113.121 96.3947 113.121 95.8596C113.121 95.8596 118.072 91.6942 124.42 91.7189C131.993 91.7436 136.624 94.1268 138.476 97.4361C141.411 102.672 141.822 121.219 141.822 121.219C141.822 121.219 122.822 124.15 120.093 120.552C119.62 119.931 119.982 115.51 119.982 115.51C119.982 115.51 117.854 109.933 117.406 105.602C117.406 105.602 116.587 104.499 115.665 102.927C115.055 101.89 114.405 100.647 113.911 99.383" fill="white"/>
<path d="M113.331 97.539C113.195 96.9586 113.121 96.3947 113.121 95.8596C113.121 95.8596 118.072 91.6942 124.42 91.7189C131.993 91.7436 136.624 94.1268 138.476 97.4361C141.411 102.672 141.822 121.219 141.822 121.219C141.822 121.219 122.822 124.15 120.093 120.552C119.62 119.931 119.982 115.51 119.982 115.51C119.982 115.51 117.854 109.933 117.406 105.602C117.406 105.602 116.587 104.499 115.665 102.927C115.055 101.89 114.405 100.647 113.911 99.383" stroke="#263238" stroke-width="0.411609" stroke-linecap="round" stroke-linejoin="round"/>
</g>
<path d="M120.607 101.996C120.607 101.996 123.509 113.254 123.061 115.727C122.838 116.954 123.485 118.226 123.485 118.226C123.485 118.226 122.159 119.531 123.061 121.263" stroke="#263238" stroke-width="0.411609" stroke-linecap="round" stroke-linejoin="round"/>
<path d="M128.305 111.312C127.737 111.263 127.219 111.131 126.848 110.851L125.988 107.081C125.988 107.081 128.643 107.373 131.084 106.723L132.006 110.851C132.006 110.851 131.322 111.053 130.425 111.193" stroke="#263238" stroke-width="0.411609" stroke-linecap="round" stroke-linejoin="round"/>
<path d="M118.547 103.461C118.547 103.461 116.093 92.9406 122.309 91.7181C128.524 90.4956 129.82 93.4057 129.454 95.3814C128.964 98.0116 123.803 104.462 123.803 104.462L120.613 102L118.551 103.461H118.547Z" fill="#F19146" stroke="#263238" stroke-width="0.411609" stroke-linecap="round" stroke-linejoin="round"/>
<path opacity="0.4" d="M118.547 103.461C118.547 103.461 116.093 92.9406 122.309 91.7181C128.524 90.4956 129.82 93.4057 129.454 95.3814C128.964 98.0116 123.803 104.462 123.803 104.462L120.613 102L118.551 103.461H118.547Z" fill="white" stroke="#263238" stroke-width="0.411609" stroke-linecap="round" stroke-linejoin="round"/>
<path d="M110.372 135.938C110.372 135.938 114.394 131.291 123.486 127.78C123.486 127.78 121.132 127.06 120.609 126.08" stroke="white" stroke-width="0.411609" stroke-linecap="round" stroke-linejoin="round"/>
<path d="M105.639 150.182L101.959 163.542" stroke="white" stroke-width="0.411609" stroke-linecap="round" stroke-linejoin="round"/>
<path d="M134.075 111.674C134.075 111.674 135.729 114.457 142.5 114.197C142.5 114.197 140.64 112.077 137.874 111.328C135.104 110.575 134.075 111.674 134.075 111.674Z" fill="#F19146" stroke="#263238" stroke-width="0.411609" stroke-linecap="round" stroke-linejoin="round"/>
<path d="M107.772 112.79C107.772 112.79 109.345 110.353 110.79 109.863C112.234 109.373 116.462 109.332 117.112 109.316C117.762 109.299 129.398 112.254 134.852 114.07L134.379 104.965L141.714 105.541C141.714 105.541 141.417 116.659 140.277 119.598C139.137 122.536 137.503 121.824 134.716 120.622C123.755 115.901 117.334 112.608 116.737 112.785C116.14 112.962 107.777 112.785 107.777 112.785L107.772 112.79Z" fill="white" stroke="#263238" stroke-width="0.411609" stroke-linecap="round" stroke-linejoin="round"/>
<path d="M132.541 99.672C132.348 100.466 132.278 101.273 132.36 101.985C132.685 104.834 134.068 111.675 134.068 111.675C134.068 111.675 140.909 112.65 142.494 114.198C142.494 114.198 143.622 105.13 141.325 100.545C139.032 95.9593 136.653 95.4407 136.653 95.4407C135.151 95.0702 133.788 96.4697 133.01 98.2684" fill="#F19146"/>
<path d="M132.541 99.672C132.348 100.466 132.278 101.273 132.36 101.985C132.685 104.834 134.068 111.675 134.068 111.675C134.068 111.675 140.909 112.65 142.494 114.198C142.494 114.198 143.622 105.13 141.325 100.545C139.032 95.9593 136.653 95.4407 136.653 95.4407C135.151 95.0702 133.788 96.4697 133.01 98.2684" stroke="#263238" stroke-width="0.411609" stroke-linecap="round" stroke-linejoin="round"/>
<g opacity="0.4">
<path d="M132.541 99.672C132.348 100.466 132.278 101.273 132.36 101.985C132.685 104.834 134.068 111.675 134.068 111.675C134.068 111.675 140.909 112.65 142.494 114.198C142.494 114.198 143.622 105.13 141.325 100.545C139.032 95.9593 136.653 95.4407 136.653 95.4407C135.151 95.0702 133.788 96.4697 133.01 98.2684" fill="white"/>
<path d="M132.541 99.672C132.348 100.466 132.278 101.273 132.36 101.985C132.685 104.834 134.068 111.675 134.068 111.675C134.068 111.675 140.909 112.65 142.494 114.198C142.494 114.198 143.622 105.13 141.325 100.545C139.032 95.9593 136.653 95.4407 136.653 95.4407C135.151 95.0702 133.788 96.4697 133.01 98.2684" stroke="#263238" stroke-width="0.411609" stroke-linecap="round" stroke-linejoin="round"/>
</g>
<path d="M112.455 103.197C112.455 103.197 113.797 104.412 115.954 104.971" stroke="#263238" stroke-width="0.411609" stroke-linecap="round" stroke-linejoin="round"/>
<path d="M134.075 103.197C134.075 103.197 136.561 107.865 139.664 108.898" stroke="#263238" stroke-width="0.411609" stroke-linecap="round" stroke-linejoin="round"/>
<path d="M118.07 139.148C118.07 139.148 118.527 139.494 118.708 140.741" stroke="white" stroke-width="0.411609" stroke-linecap="round" stroke-linejoin="round"/>
<path d="M116.377 140.742C116.377 140.742 117.636 140.82 118.39 141.903" stroke="white" stroke-width="0.411609" stroke-linecap="round" stroke-linejoin="round"/>
<path d="M102.765 135.938C102.765 135.938 104.082 136.604 103.798 138.494" stroke="white" stroke-width="0.411609" stroke-linecap="round" stroke-linejoin="round"/>
<path d="M101.374 137.564C101.374 137.564 103.173 138.631 103.3 139.59" stroke="white" stroke-width="0.411609" stroke-linecap="round" stroke-linejoin="round"/>
<path d="M122.222 126.049C122.222 126.049 126.227 126.613 127.124 126.049" stroke="white" stroke-width="0.411609" stroke-linecap="round" stroke-linejoin="round"/>
<path d="M120.606 101.541C120.606 101.541 120.096 100.327 120.186 98.4829C120.203 98.1495 120.236 97.7996 120.297 97.4333L119.602 96.3302L118.708 94.9101L119.742 90.7734C119.742 90.7734 126.319 92.0412 126.821 93.877C127.319 95.721 120.606 101.541 120.606 101.541Z" fill="white"/>
<mask id="mask7_3527_31352" style="mask-type:luminance" maskUnits="userSpaceOnUse" x="118" y="90" width="9" height="12">
<path d="M120.603 101.541C120.603 101.541 120.093 100.327 120.183 98.4829C120.2 98.1495 120.233 97.7996 120.295 97.4333L119.599 96.3302L118.706 94.9101L119.739 90.7734C119.739 90.7734 126.316 92.0412 126.819 93.877C127.317 95.721 120.603 101.541 120.603 101.541Z" fill="white"/>
</mask>
<g mask="url(#mask7_3527_31352)">
<path opacity="0.2" d="M120.185 98.4809C120.202 98.1475 120.234 97.7977 120.296 97.4313L119.601 96.3282C120.741 96.1019 121.988 95.5956 122.815 94.5254C122.815 94.5254 123.033 97.3778 120.185 98.4809Z" fill="black" fill-opacity="0.7"/>
</g>
<path d="M120.606 101.541C120.606 101.541 120.096 100.327 120.186 98.4829C120.203 98.1495 120.236 97.7996 120.297 97.4333L119.602 96.3302L118.708 94.9101L119.742 90.7734C119.742 90.7734 126.319 92.0412 126.821 93.877C127.319 95.721 120.606 101.541 120.606 101.541Z" stroke="#263238" stroke-width="0.411609" stroke-linecap="round" stroke-linejoin="round"/>
<path d="M124.74 91.1446C126.778 85.7772 125.432 76.6848 115.549 78.43C109.733 79.459 109.058 86.4646 110.997 89.5723C112.94 92.6799 110.878 92.7828 113.788 95.0919C114.965 96.0263 115.92 97.611 117.327 97.7098C118.999 97.8291 121.147 96.2403 122.748 94.5322" fill="white"/>
<path d="M124.74 91.1446C126.778 85.7772 125.432 76.6848 115.549 78.43C109.733 79.459 109.058 86.4646 110.997 89.5723C112.94 92.6799 110.878 92.7828 113.788 95.0919C114.965 96.0263 115.92 97.611 117.327 97.7098C118.999 97.8291 121.147 96.2403 122.748 94.5322" stroke="#263238" stroke-width="0.411609" stroke-linecap="round" stroke-linejoin="round"/>
<path d="M115.005 89.5766C115.005 89.5766 116.462 88.2553 118.191 88.8028" stroke="#263238" stroke-width="0.411609" stroke-linecap="round" stroke-linejoin="round"/>
<path d="M112.276 89.5768C112.276 89.5768 111.782 88.5272 110.391 88.3008" stroke="#263238" stroke-width="0.411609" stroke-linecap="round" stroke-linejoin="round"/>
<path d="M113.238 91.4863C113.238 91.4863 113.029 92.5565 112.757 93.6349C112.489 94.6804 114.486 94.1247 114.395 93.956" fill="white"/>
<path d="M113.238 91.4863C113.238 91.4863 113.029 92.5565 112.757 93.6349C112.489 94.6804 114.486 94.1247 114.395 93.956" stroke="#263238" stroke-width="0.411609" stroke-linecap="round" stroke-linejoin="round"/>
<path d="M115.434 95.3204C115.434 95.3204 116.71 95.0159 117.603 93.9004" stroke="#263238" stroke-width="0.411609" stroke-linecap="round" stroke-linejoin="round"/>
<path d="M117.035 90.93C117.117 91.2304 116.994 91.5227 116.759 91.5885C116.525 91.6503 116.269 91.4609 116.187 91.1605C116.105 90.86 116.228 90.5678 116.463 90.5019C116.698 90.4402 116.953 90.6295 117.035 90.93Z" fill="#263238"/>
<path d="M112.626 90.8375C112.708 91.138 112.646 91.4138 112.49 91.455C112.334 91.4961 112.14 91.2903 112.062 90.9898C111.98 90.6894 112.041 90.4136 112.198 90.3724C112.354 90.3313 112.548 90.5371 112.626 90.8375Z" fill="#263238"/>
<path d="M118.648 84.0637C118.648 84.0637 117.117 88.0687 113.33 87.9781C113.33 87.9781 114.643 86.9779 115.005 86.023C115.005 86.023 112.091 88.9084 109.177 87.443C106.263 85.9777 107.679 79.1697 112.161 76.4696C116.643 73.7694 121.196 74.4979 122.743 77.0705C122.743 77.0705 125.872 76.7824 127.251 81.38C128.481 85.4879 126.514 91.732 124.579 91.8061C121.587 91.9172 120.986 88.6696 120.986 88.6696C120.986 88.6696 119.191 87.0726 118.648 84.0678V84.0637Z" fill="#263238" stroke="#263238" stroke-width="0.411609" stroke-linecap="round" stroke-linejoin="round"/>
<path d="M121.928 91.1627C121.928 91.1627 121.837 87.3842 123.978 87.8411C126.118 88.2979 124.57 92.6651 122.953 92.6198" fill="white"/>
<path d="M121.928 91.1627C121.928 91.1627 121.837 87.3842 123.978 87.8411C126.118 88.2979 124.57 92.6651 122.953 92.6198" stroke="#263238" stroke-width="0.411609" stroke-linecap="round" stroke-linejoin="round"/>
<path d="M115.282 112.379H82.0938C81.7232 112.379 81.4229 112.679 81.4229 113.05V114.206C81.4229 114.577 81.7232 114.877 82.0938 114.877H115.282C115.652 114.877 115.953 114.577 115.953 114.206V113.05C115.953 112.679 115.652 112.379 115.282 112.379Z" fill="#F19146" stroke="#263238" stroke-width="0.411609" stroke-linecap="round" stroke-linejoin="round"/>
<path d="M33.1136 162.656H19.1147L20.5801 175.453H31.6482L33.1136 162.656Z" fill="#263238" stroke="#263238" stroke-width="0.411609" stroke-linecap="round" stroke-linejoin="round"/>
<path d="M34.7726 153.748C34.7726 153.748 28.6602 154.23 28.405 158.741C28.405 158.741 34.5956 161.593 34.7726 153.748Z" fill="#F19146" stroke="#263238" stroke-width="0.411609" stroke-linecap="round" stroke-linejoin="round"/>
<path d="M22.6792 154.868C22.6792 154.868 19.2628 150.25 13.7432 152.616C13.7432 152.616 17.1142 158.198 22.6792 154.868Z" fill="#F19146" stroke="#263238" stroke-width="0.411609" stroke-linecap="round" stroke-linejoin="round"/>
<path d="M14.2132 140.288C14.2132 140.288 13.2295 149.171 21.3176 146.726C21.3176 146.726 18.7491 140.193 14.2132 140.288Z" fill="#F19146" stroke="#263238" stroke-width="0.411609" stroke-linecap="round" stroke-linejoin="round"/>
<path d="M24.1408 135.34C24.1408 135.34 17.7444 138.789 22.4491 144.021C22.4491 144.021 26.9356 140.283 24.1408 135.34Z" fill="#F19146" stroke="#263238" stroke-width="0.411609" stroke-linecap="round" stroke-linejoin="round"/>
<path d="M32.0102 143.28C32.0102 143.28 25.0581 142.58 25.0581 149.014C25.0581 149.014 32.0102 149.29 32.0102 143.28Z" fill="#F19146" stroke="#263238" stroke-width="0.411609" stroke-linecap="round" stroke-linejoin="round"/>
<path d="M25.4519 167.926C25.4519 167.926 28.6213 161.275 25.5795 154.5C22.5377 147.725 21.5087 142.02 23.0975 137.994" stroke="#263238" stroke-width="0.411609" stroke-linecap="round" stroke-linejoin="round"/>
<path d="M29.7262 145.01C29.7262 145.01 25.5566 146.664 24.1406 150.958" stroke="#263238" stroke-width="0.411609" stroke-linecap="round" stroke-linejoin="round"/>
<path d="M16.4097 143.84C16.4097 143.84 18.8176 147.12 22.9007 146.766" stroke="#263238" stroke-width="0.411609" stroke-linecap="round" stroke-linejoin="round"/>
<path d="M16.4097 153.561C16.4097 153.561 23.0818 155.483 25.7326 154.853" stroke="#263238" stroke-width="0.411609" stroke-linecap="round" stroke-linejoin="round"/>
<path d="M32.779 155.775C32.779 155.775 29.799 159.048 26.7983 158.998" stroke="#263238" stroke-width="0.411609" stroke-linecap="round" stroke-linejoin="round"/>
<path d="M18.5127 164.18H33.7134V162.373H18.5127V164.18Z" fill="#263238" stroke="#263238" stroke-width="0.411609" stroke-linecap="round" stroke-linejoin="round"/>
<path d="M144.019 150.771C144.019 150.771 138.919 153.784 135.297 159.835C131.675 165.886 128.802 174.398 133.264 175.46L137.507 175.299L145.674 172.496L144.818 170.837C144.818 170.837 137.664 174.628 136.441 174.628C135.219 174.628 133.63 174.933 132.959 174.443C132.288 173.953 135.309 162.951 141.776 159.284C148.242 155.616 144.023 150.771 144.023 150.771H144.019Z" fill="#F19146"/>
<mask id="mask8_3527_31352" style="mask-type:luminance" maskUnits="userSpaceOnUse" x="130" y="150" width="16" height="26">
<path d="M144.02 150.77C144.02 150.77 138.92 153.783 135.298 159.833C131.676 165.884 128.803 174.396 133.264 175.458L137.508 175.297L145.674 172.494L144.818 170.835C144.818 170.835 137.665 174.626 136.442 174.626C135.22 174.626 133.631 174.931 132.96 174.441C132.289 173.951 135.31 162.949 141.777 159.282C148.243 155.614 144.024 150.77 144.024 150.77H144.02Z" fill="white"/>
</mask>
<g mask="url(#mask8_3527_31352)">
<path opacity="0.5" d="M144.02 150.77C144.02 150.77 138.92 153.783 135.298 159.833C131.676 165.884 128.803 174.396 133.264 175.458L137.508 175.297L145.674 172.494L144.818 170.835C144.818 170.835 137.665 174.626 136.442 174.626C135.22 174.626 133.631 174.931 132.96 174.441C132.289 173.951 135.31 162.949 141.777 159.282C148.243 155.614 144.024 150.77 144.024 150.77H144.02Z" fill="black" fill-opacity="0.7"/>
</g>
<path d="M144.019 150.771C144.019 150.771 138.919 153.784 135.297 159.835C131.675 165.886 128.802 174.398 133.264 175.46L137.507 175.299L145.674 172.496L144.818 170.837C144.818 170.837 137.664 174.628 136.441 174.628C135.219 174.628 133.63 174.933 132.959 174.443C132.288 173.953 135.309 162.951 141.776 159.284C148.242 155.616 144.023 150.771 144.023 150.771H144.019Z" stroke="#263238" stroke-width="0.411609" stroke-linecap="round" stroke-linejoin="round"/>
<path d="M148.666 146.816C148.666 146.816 148.666 145.042 151.354 144.799C154.042 144.556 154.424 147.145 154.424 147.145H153.498C153.498 147.145 153.519 145.594 151.543 145.474C149.567 145.355 149.641 147.145 149.641 147.145L148.662 146.816H148.666Z" fill="#F19146" stroke="#263238" stroke-width="0.411609" stroke-linecap="round" stroke-linejoin="round"/>
<path d="M144.691 175.462C139.007 175.462 140.086 149.971 140.74 148.699C141.394 147.427 157.888 146.806 159.513 147.341C161.139 147.876 167.659 173.285 164.062 175.301L144.696 175.462H144.691Z" fill="#F19146"/>
<mask id="mask9_3527_31352" style="mask-type:luminance" maskUnits="userSpaceOnUse" x="140" y="147" width="26" height="29">
<path d="M144.691 175.46C139.007 175.46 140.086 149.969 140.74 148.697C141.394 147.425 157.888 146.804 159.513 147.339C161.139 147.874 167.659 173.283 164.062 175.3L144.696 175.46H144.691Z" fill="white"/>
</mask>
<g mask="url(#mask9_3527_31352)">
<path opacity="0.2" d="M144.691 175.46C139.007 175.46 140.086 149.969 140.74 148.697C141.394 147.425 157.888 146.804 159.513 147.339C161.139 147.874 167.659 173.283 164.062 175.3L144.696 175.46H144.691Z" fill="black" fill-opacity="0.7"/>
</g>
<path d="M144.691 175.462C139.007 175.462 140.086 149.971 140.74 148.699C141.394 147.427 157.888 146.806 159.513 147.341C161.139 147.876 167.659 173.285 164.062 175.301L144.696 175.462H144.691Z" stroke="#263238" stroke-width="0.411609" stroke-linecap="round" stroke-linejoin="round"/>
<path d="M140.74 148.699C142.798 149.139 143.983 157.483 146.753 159.607C149.523 161.73 162.584 161.274 164.061 159.607C165.539 157.939 162.649 148.575 160.55 147.147C158.447 145.715 156.957 147.106 151.054 146.451C142.295 145.476 140.744 148.699 140.744 148.699H140.74Z" fill="#F19146" stroke="#263238" stroke-width="0.411609" stroke-linecap="round" stroke-linejoin="round"/>
<path d="M155.729 153.494L158.149 155.47C158.294 155.585 158.31 155.803 158.182 155.939L156.301 157.972C156.178 158.104 155.972 158.112 155.844 157.989L153.441 155.712C153.305 155.585 153.309 155.371 153.441 155.243L155.305 153.51C155.425 153.399 155.602 153.395 155.729 153.498V153.494Z" fill="#F19146"/>
<mask id="mask10_3527_31352" style="mask-type:luminance" maskUnits="userSpaceOnUse" x="153" y="153" width="6" height="6">
<path d="M155.734 153.494L158.155 155.47C158.299 155.585 158.315 155.803 158.188 155.939L156.306 157.972C156.183 158.104 155.977 158.112 155.85 157.989L153.446 155.712C153.31 155.585 153.314 155.371 153.446 155.243L155.31 153.51C155.43 153.399 155.607 153.395 155.734 153.498V153.494Z" fill="white"/>
</mask>
<g mask="url(#mask10_3527_31352)">
<path opacity="0.2" d="M155.734 153.494L158.155 155.47C158.299 155.585 158.315 155.803 158.188 155.939L156.306 157.972C156.183 158.104 155.977 158.112 155.85 157.989L153.446 155.712C153.31 155.585 153.314 155.371 153.446 155.243L155.31 153.51C155.43 153.399 155.607 153.395 155.734 153.498V153.494Z" fill="black" fill-opacity="0.7"/>
</g>
<path d="M155.729 153.494L158.149 155.47C158.294 155.585 158.31 155.803 158.182 155.939L156.301 157.972C156.178 158.104 155.972 158.112 155.844 157.989L153.441 155.712C153.305 155.585 153.309 155.371 153.441 155.243L155.305 153.51C155.425 153.399 155.602 153.395 155.729 153.498V153.494Z" stroke="#263238" stroke-width="0.411609" stroke-linecap="round" stroke-linejoin="round"/>
<path d="M147.749 163.869C147.749 163.869 158.689 164.77 164.061 163.379C164.061 163.379 165.11 164.112 165.6 165.581C166.09 167.046 167.111 172.06 164.061 173.344C161.015 174.628 150.07 174.381 148.605 172.916C147.139 171.451 147.749 163.869 147.749 163.869Z" fill="#F19146"/>
<mask id="mask11_3527_31352" style="mask-type:luminance" maskUnits="userSpaceOnUse" x="147" y="163" width="20" height="12">
<path d="M147.748 163.873C147.748 163.873 158.689 164.774 164.06 163.383C164.06 163.383 165.11 164.115 165.6 165.585C166.089 167.05 167.11 172.064 164.06 173.348C161.014 174.632 150.07 174.385 148.604 172.92C147.139 171.454 147.748 163.873 147.748 163.873Z" fill="white"/>
</mask>
<g mask="url(#mask11_3527_31352)">
<path opacity="0.4" d="M147.748 163.873C147.748 163.873 158.689 164.774 164.06 163.383C164.06 163.383 165.11 164.115 165.6 165.585C166.089 167.05 167.11 172.064 164.06 173.348C161.014 174.632 150.07 174.385 148.604 172.92C147.139 171.454 147.748 163.873 147.748 163.873Z" fill="black" fill-opacity="0.7"/>
</g>
<path d="M147.749 163.869C147.749 163.869 158.689 164.77 164.061 163.379C164.061 163.379 165.11 164.112 165.6 165.581C166.09 167.046 167.111 172.06 164.061 173.344C161.015 174.628 150.07 174.381 148.605 172.916C147.139 171.451 147.749 163.869 147.749 163.869Z" stroke="#263238" stroke-width="0.411609" stroke-linecap="round" stroke-linejoin="round"/>
<path d="M147.748 163.869C147.748 163.869 149.033 167.33 149.704 167.861C150.375 168.392 164.587 168.392 166.16 167.108C167.736 165.824 165.575 163.502 164.056 163.379C164.056 163.379 154.104 164.54 147.744 163.869H147.748Z" fill="#F19146" stroke="#263238" stroke-width="0.411609" stroke-linecap="round" stroke-linejoin="round"/>
<path d="M143.161 163.137C143.161 163.137 143.527 170.41 144.26 172.06C144.26 172.06 142.588 173.04 140.732 172.06C138.88 171.081 139.184 164.816 139.551 164.833C139.917 164.849 143.157 163.137 143.157 163.137H143.161Z" fill="#F19146"/>
<mask id="mask12_3527_31352" style="mask-type:luminance" maskUnits="userSpaceOnUse" x="139" y="163" width="6" height="10">
<path d="M143.16 163.139C143.16 163.139 143.526 170.412 144.259 172.062C144.259 172.062 142.588 173.042 140.731 172.062C138.879 171.083 139.184 164.818 139.55 164.834C139.916 164.851 143.156 163.139 143.156 163.139H143.16Z" fill="white"/>
</mask>
<g mask="url(#mask12_3527_31352)">
<path opacity="0.4" d="M143.16 163.139C143.16 163.139 143.526 170.412 144.259 172.062C144.259 172.062 142.588 173.042 140.731 172.062C138.879 171.083 139.184 164.818 139.55 164.834C139.916 164.851 143.156 163.139 143.156 163.139H143.16Z" fill="black" fill-opacity="0.7"/>
</g>
<path d="M143.161 163.137C143.161 163.137 143.527 170.41 144.26 172.06C144.26 172.06 142.588 173.04 140.732 172.06C138.88 171.081 139.184 164.816 139.551 164.833C139.917 164.849 143.157 163.137 143.157 163.137H143.161Z" stroke="#263238" stroke-width="0.411609" stroke-linecap="round" stroke-linejoin="round"/>
<path d="M143.163 163.137L140.409 163.688C140.409 163.688 137.783 165.705 138.944 166.376C140.105 167.047 143.101 165.396 143.163 163.137Z" fill="#F19146" stroke="#263238" stroke-width="0.411609" stroke-linecap="round" stroke-linejoin="round"/>
</g>
<defs>
<clipPath id="clip0_3527_31352">
<rect width="180" height="180" fill="white"/>
</clipPath>
</defs>
</svg>
