<svg width="500" height="500" viewBox="0 0 500 500" fill="none" xmlns="http://www.w3.org/2000/svg">
<g clip-path="url(#clip0_7677_39654)">
<path d="M223.139 384.389C314.615 384.389 388.771 310.233 388.771 218.757C388.771 127.281 314.615 53.125 223.139 53.125C131.663 53.125 57.5068 127.281 57.5068 218.757C57.5068 310.233 131.663 384.389 223.139 384.389Z" fill="#FDEDD7"/>
<path d="M247.051 280.015C247.051 280.015 200.881 336.045 184.551 334.585C168.221 333.125 157.031 305.815 157.031 305.815C157.031 305.815 157.591 305.515 158.541 304.945C163.321 302.125 178.021 292.785 181.461 282.815C184.791 277.405 209.011 238.135 216.381 228.115C224.311 217.345 233.641 216.925 233.641 216.925C238.901 225.575 245.541 232.155 253.771 233.395C254.901 233.565 256.001 233.675 257.051 233.725C257.551 237.245 260.861 255.205 276.991 264.395C276.991 264.395 277.611 251.885 285.881 250.775C285.881 250.775 294.641 245.975 301.871 252.995C301.871 252.995 313.331 240.695 301.871 206.155L293.691 198.755L293.681 198.745L289.931 189.825C289.931 189.825 331.781 187.735 341.461 196.705C351.141 205.665 413.061 287.605 413.061 287.605L322.991 357.535C322.991 357.535 268.381 303.375 247.051 280.015Z" fill="white"/>
<path d="M301.871 206.155C313.331 240.695 301.871 252.995 301.871 252.995C294.641 245.975 285.881 250.775 285.881 250.775L297.561 207.955L293.691 198.755L301.871 206.155Z" fill="#FDEDD7"/>
<path d="M273.771 242.785L285.881 250.775C277.611 251.885 276.991 264.395 276.991 264.395C260.861 255.205 257.551 237.245 257.051 233.725C258.071 233.775 259.061 233.765 260.001 233.705L273.771 242.785Z" fill="#FDEDD7"/>
<path d="M246.771 279.565C241.733 273.347 236.695 267.129 231.656 260.91C231.251 260.41 230.547 261.121 230.949 261.617C235.987 267.835 241.025 274.053 246.064 280.272C246.469 280.772 247.173 280.06 246.771 279.565Z" fill="#2E303D"/>
<path d="M242.356 280.789C238.789 279.258 235.223 277.727 231.656 276.196C231.071 275.945 230.561 276.806 231.151 277.059C234.718 278.59 238.284 280.121 241.851 281.652C242.436 281.904 242.946 281.043 242.356 280.789Z" fill="#2E303D"/>
<path d="M321.972 309.31C317.437 301.808 312.902 294.307 308.367 286.805C303.854 279.339 299.34 271.873 294.827 264.407C292.269 260.176 289.712 255.946 287.154 251.715C286.821 251.165 285.956 251.667 286.291 252.22C290.826 259.722 295.361 267.223 299.896 274.725C304.41 282.191 308.923 289.657 313.436 297.123C315.994 301.354 318.551 305.584 321.109 309.815C321.441 310.365 322.306 309.863 321.972 309.31Z" fill="#2E303D"/>
<path d="M182.191 279.125C182.141 280.355 181.891 281.585 181.461 282.815C178.021 292.785 163.321 302.125 158.541 304.945L157.031 299.415C157.031 299.415 149.281 301.155 143.611 296.245C143.461 296.535 143.221 296.795 142.941 296.975C142.141 297.465 141.131 297.465 140.191 297.385C135.941 297.005 131.801 295.375 128.431 292.745C126.441 291.195 124.651 289.185 124.101 286.725C123.571 284.395 124.461 281.625 126.531 280.485C126.451 280.115 126.401 279.735 126.381 279.355C126.291 277.185 127.431 275.105 128.981 273.585C130.411 272.165 132.181 271.155 133.951 270.195C133.971 270.105 133.991 270.025 134.011 269.945C134.441 268.405 135.541 267.125 136.821 266.175C137.981 265.315 139.301 264.695 140.621 264.095C134.211 260.795 128.061 257.135 128.681 255.495C129.931 252.165 143.061 253.345 156.341 257.995C169.611 262.655 173.951 269.595 173.951 269.595C178.081 267.765 182.601 268.125 182.191 279.125Z" fill="#FF9971"/>
<path d="M177.325 280.997C174.231 282.325 171.136 283.652 168.042 284.98C166.476 285.652 164.909 286.324 163.343 286.996C162.055 287.548 160.488 288.448 159.043 288.001C157.487 287.519 157.471 285.777 158.067 284.529C158.663 283.281 159.595 282.142 160.456 281.068C162.157 278.948 164.08 277.005 166.178 275.277C168.612 273.272 171.293 271.578 174.133 270.21C174.713 269.931 174.206 269.068 173.628 269.347C168.139 271.992 163.262 275.889 159.495 280.68C158.026 282.549 155.256 285.845 157.463 288.186C158.469 289.253 160.088 289.258 161.395 288.853C163.019 288.35 164.581 287.545 166.14 286.876C170.037 285.204 173.933 283.532 177.83 281.86C178.419 281.608 177.911 280.746 177.325 280.997Z" fill="#2E303D"/>
<path d="M152.932 271.013C149.052 268.697 145.173 266.38 141.293 264.064C140.739 263.733 140.236 264.598 140.788 264.928L152.427 271.877C152.981 272.208 153.484 271.343 152.932 271.013Z" fill="#2E303D"/>
<path d="M154.742 289.747C154.635 288.801 154.207 287.927 153.844 287.059C153.445 286.104 153.046 285.149 152.646 284.193C150.81 279.799 148.973 275.405 147.137 271.011C146.893 270.426 145.925 270.683 146.173 271.277C147.658 274.83 149.143 278.384 150.628 281.937C151.379 283.733 152.129 285.529 152.879 287.325C153.334 288.415 154.736 291.282 152.714 291.746C151.296 292.071 149.641 290.654 148.565 289.897C147.322 289.022 146.139 288.065 145.02 287.038C142.796 284.998 140.825 282.686 139.168 280.164C137.294 277.313 135.827 274.214 134.82 270.954C134.631 270.341 133.665 270.602 133.856 271.22C135.804 277.528 139.447 283.282 144.313 287.745C145.495 288.829 146.749 289.838 148.06 290.761C149.305 291.637 150.796 292.805 152.399 292.78C154.035 292.753 154.912 291.254 154.742 289.747Z" fill="#2E303D"/>
<path d="M146.339 290.271C145.956 289.764 145.087 290.262 145.476 290.776C146.153 291.672 146.221 292.891 145.427 293.746C144.639 294.594 143.47 294.602 142.463 294.158C141.437 293.706 140.541 292.943 139.667 292.256C138.756 291.54 137.862 290.804 136.985 290.047C133.503 287.044 130.302 283.725 127.413 280.148C127.009 279.647 126.305 280.359 126.706 280.855C129.36 284.141 132.277 287.21 135.435 290.015C136.973 291.382 138.565 292.694 140.213 293.927C141.661 295.011 143.553 296.044 145.333 295.07C147.061 294.125 147.519 291.833 146.339 290.271Z" fill="#2E303D"/>
<path d="M297.561 207.955L285.881 250.775L273.771 242.785C286.231 225.085 283.801 204.065 283.801 204.065C283.801 204.065 281.861 232.375 260.001 233.705C259.061 233.765 258.071 233.775 257.051 233.725C256.001 233.675 254.901 233.565 253.771 233.395C245.541 232.155 238.901 225.575 233.641 216.925C223.191 199.745 218.141 174.445 216.771 166.675C229.081 165.065 241.041 159.895 252.721 155.235C256.331 153.795 260.141 152.365 264.011 152.795C267.971 153.225 271.521 155.585 274.181 158.555C276.511 161.165 278.251 164.225 279.891 167.315C280.351 164.495 282.261 156.035 288.661 158.475C289.401 158.755 290.061 159.205 290.631 159.775C295.941 165.135 293.991 181.775 287.971 185.165L289.931 189.825L293.681 198.745L293.691 198.755L297.561 207.955Z" fill="#FF9971"/>
<path d="M283.801 204.065C283.801 204.065 286.231 225.085 273.771 242.785L260.001 233.705C281.861 232.375 283.801 204.065 283.801 204.065Z" fill="#2E303D"/>
<path d="M289.551 144.654C288.961 140.894 288.041 136.984 285.531 134.124C283.282 131.571 279.395 130.214 276.345 131.471C277.219 128.114 276.796 124.443 275.072 121.411C273.293 118.283 270.24 115.922 266.756 115.015C258.277 112.807 250.533 118.387 243.648 122.46C239.968 124.637 236.127 126.381 231.953 127.368C227.886 128.33 223.666 128.614 219.506 128.217C217.391 128.015 215.307 127.615 213.256 127.065C211.209 126.516 209.168 125.882 207.044 125.715C203.515 125.437 199.92 126.773 198.5 130.222C197.177 133.435 197.857 137.185 199.144 140.292C200.049 142.476 201.33 144.49 202.906 146.243C199.061 145.843 194.998 147.809 193.072 151.183C190.892 155.003 191.662 160.263 194.842 163.303C197.592 165.933 201.572 166.773 205.362 167.053C209.202 167.343 213.002 167.173 216.772 166.673C229.082 165.063 241.042 159.893 252.722 155.233C256.332 153.793 260.142 152.363 264.012 152.793C267.972 153.223 271.522 155.583 274.182 158.553C276.512 161.163 278.252 164.223 279.892 167.313C280.352 164.493 282.262 156.033 288.662 158.473C289.402 158.753 290.062 159.203 290.632 159.773C290.701 154.725 290.341 149.654 289.551 144.654ZM268.321 120.125C263.541 118.405 258.181 119.525 253.521 121.545C248.861 123.555 244.601 126.415 239.921 128.365C231.371 131.905 221.531 132.215 212.791 129.205C209.551 128.085 206.011 126.525 202.861 127.865C200.419 128.904 199.061 131.465 198.8 134.153C198.799 133.55 198.829 132.947 198.93 132.352C199.201 130.752 199.906 129.224 201.183 128.183C202.566 127.055 204.42 126.667 206.167 126.678C208.228 126.691 210.232 127.274 212.204 127.816C214.125 128.344 216.054 128.784 218.03 129.048C225.697 130.072 233.634 128.767 240.555 125.308C247.651 121.761 254.141 115.821 262.457 115.556C266.176 115.438 269.756 116.734 272.353 119.434C274.973 122.158 276.192 125.992 275.684 129.735C275.666 129.864 275.63 129.99 275.608 130.118C275.794 125.853 272.468 121.629 268.321 120.125Z" fill="#2E303D"/>
<path d="M268.511 204.405C268.511 204.405 274.071 214.565 265.591 220.465C257.111 226.375 251.131 217.985 251.131 217.985L268.511 204.405Z" fill="white"/>
<path d="M239.601 185.995L251.131 208.935C251.131 208.935 241.751 214.215 239.601 211.155C237.441 208.095 239.601 185.995 239.601 185.995Z" fill="#F9785A"/>
<path d="M235.356 191.174C236.241 194.168 235.272 197.093 233.192 197.707C231.112 198.321 228.709 196.393 227.825 193.399C226.94 190.405 227.909 187.48 229.989 186.865C232.069 186.251 234.472 188.18 235.356 191.174Z" fill="#2E303D"/>
<path d="M259.689 182.966C260.573 185.96 259.605 188.885 257.525 189.499C255.445 190.113 253.042 188.185 252.158 185.191C251.273 182.197 252.242 179.272 254.322 178.658C256.401 178.043 258.804 179.972 259.689 182.966Z" fill="#2E303D"/>
<path d="M230.3 179.06C228.405 179.512 226.575 180.252 224.873 181.196C223.957 181.704 223.641 183.09 224.23 183.951C224.867 184.882 226.004 185.138 226.985 184.594C227.407 184.36 227.841 184.151 228.278 183.948C229.3 183.512 230.352 183.155 231.433 182.897C232.452 182.654 233.124 181.397 232.784 180.412C232.416 179.341 231.392 178.799 230.3 179.06Z" fill="#2E303D"/>
<path d="M258.8 172.334C258.381 171.973 257.941 171.844 257.393 171.791C254.971 171.557 252.444 171.933 250.193 172.854C249.687 173.061 249.273 173.32 249.003 173.816C248.769 174.247 248.679 174.867 248.842 175.338C249.166 176.278 250.29 177.113 251.327 176.689C252.258 176.308 253.225 176.042 254.214 175.864C255.294 175.721 256.381 175.686 257.467 175.79C257.949 175.837 258.571 175.497 258.888 175.16C259.217 174.81 259.462 174.241 259.431 173.753C259.397 173.231 259.21 172.687 258.8 172.334Z" fill="#2E303D"/>
<path d="M276.076 114.651C275.822 114.062 274.96 114.57 275.213 115.156C277.072 119.461 277.993 124.124 277.945 128.81C277.938 129.454 278.938 129.454 278.945 128.81C278.994 123.937 278.007 119.123 276.076 114.651Z" fill="#2E303D"/>
<path d="M280.656 123.274C280.229 125.032 279.803 126.791 279.376 128.549C279.224 129.174 280.188 129.441 280.34 128.815C280.767 127.057 281.193 125.298 281.62 123.54C281.772 122.915 280.808 122.648 280.656 123.274Z" fill="#2E303D"/>
<path d="M273.86 419.442V425.832H184.64L116.63 388.862V383.112L185.94 419.442H273.86Z" fill="#8E8E8E"/>
<path d="M273.86 419.442H185.94L116.63 383.112H204.55L273.86 419.442Z" fill="#B7B7B7"/>
<path d="M195.245 416.648H184.418L175.883 412.174H186.71L195.245 416.648Z" fill="#8E8E8E"/>
<path d="M183.803 410.67H172.976L164.441 406.197H175.268L183.803 410.67Z" fill="#8E8E8E"/>
<path d="M174.122 404.927H163.295L154.76 400.453H165.587L174.122 404.927Z" fill="#8E8E8E"/>
<path d="M162.68 398.949H151.853L143.318 394.475H154.145L162.68 398.949Z" fill="#8E8E8E"/>
<path d="M208.312 415.779H197.485L188.949 411.305H199.776L208.312 415.779Z" fill="#8E8E8E"/>
<path d="M198.63 410.036H187.803L179.268 405.562H190.095L198.63 410.036Z" fill="#8E8E8E"/>
<path d="M187.189 404.058H176.362L167.827 399.584H178.653L187.189 404.058Z" fill="#8E8E8E"/>
<path d="M210.674 408.97H199.847L191.312 404.496H202.139L210.674 408.97Z" fill="#8E8E8E"/>
<path d="M200.993 403.226H190.166L181.631 398.752H192.458L200.993 403.226Z" fill="#8E8E8E"/>
<path d="M189.552 397.249H178.725L170.189 392.775H181.016L189.552 397.249Z" fill="#8E8E8E"/>
<path d="M250.557 417.188H239.73L231.195 412.715H242.022L250.557 417.188Z" fill="#8E8E8E"/>
<path d="M239.115 411.211H228.288L219.753 406.737H230.58L239.115 411.211Z" fill="#8E8E8E"/>
<path d="M229.434 405.467H218.607L210.072 400.993H220.899L229.434 405.467Z" fill="#8E8E8E"/>
<path d="M217.993 399.49H207.166L198.63 395.016H209.457L217.993 399.49Z" fill="#8E8E8E"/>
<path d="M263.624 416.319H252.797L244.262 411.846H255.089L263.624 416.319Z" fill="#8E8E8E"/>
<path d="M253.943 410.576H243.116L234.581 406.102H245.408L253.943 410.576Z" fill="#8E8E8E"/>
<path d="M242.501 404.598H231.674L223.139 400.124H233.966L242.501 404.598Z" fill="#8E8E8E"/>
<path d="M330.029 450.146H242.109L197.218 426.568H285.138L330.029 450.146Z" fill="#D5E0E0"/>
<path d="M269.054 447.315H243.466L230.401 440.453H255.989L269.054 447.315Z" fill="#F6B97B"/>
<path d="M277.043 446.883C276.887 446.883 276.728 446.846 276.579 446.769L246.238 430.833C245.749 430.576 245.56 429.972 245.817 429.482C246.075 428.993 246.678 428.807 247.168 429.061L277.509 444.996C277.998 445.253 278.187 445.857 277.93 446.347C277.75 446.689 277.402 446.883 277.043 446.883Z" fill="#B7B7B7"/>
<path d="M287.25 446.296C287.094 446.296 286.935 446.259 286.786 446.182L256.445 430.246C255.956 429.989 255.767 429.385 256.024 428.895C256.282 428.406 256.885 428.22 257.375 428.474L287.716 444.41C288.205 444.667 288.394 445.271 288.137 445.761C287.957 446.101 287.609 446.296 287.25 446.296Z" fill="#B7B7B7"/>
<path d="M301.128 447.177C300.972 447.177 300.813 447.14 300.664 447.063L270.323 431.128C269.834 430.871 269.645 430.267 269.902 429.777C270.16 429.288 270.763 429.102 271.252 429.356L301.593 445.292C302.082 445.549 302.271 446.153 302.014 446.643C301.835 446.983 301.487 447.177 301.128 447.177Z" fill="#B7B7B7"/>
<path d="M311.335 446.589C311.179 446.589 311.02 446.552 310.871 446.475L280.53 430.54C280.041 430.283 279.852 429.679 280.109 429.189C280.367 428.7 280.97 428.514 281.46 428.768L311.801 444.704C312.29 444.961 312.479 445.565 312.222 446.054C312.042 446.395 311.694 446.589 311.335 446.589Z" fill="#B7B7B7"/>
<path d="M403.006 181.275L420.117 172.366C426.94 174.154 434.351 174.054 441.552 171.674C461.433 165.106 472.225 143.665 465.657 123.784C459.089 103.903 437.648 93.111 417.767 99.679C397.897 106.244 387.105 127.685 393.673 147.566C395.573 153.316 398.725 158.314 402.719 162.344L403.006 181.275Z" fill="#FDEDD7"/>
<path d="M440.347 161.987V164.469H438.207H423.759H421.535V157.374L440.347 161.987Z" fill="#8E8E8E"/>
<path d="M423.759 164.469H438.207C438.207 164.469 437.866 167.458 430.937 167.458C424.017 167.458 423.759 164.469 423.759 164.469Z" fill="#B7B7B7"/>
<path d="M440.347 155.234V161.987L421.535 157.374V155.234H422.882H439.425H440.347Z" fill="#B7B7B7"/>
<path d="M453.338 125.48C453.338 133.654 448.919 140.805 442.331 144.652L439.425 155.234H422.883L419.986 144.652C413.399 140.805 408.97 133.655 408.97 125.48C408.97 113.228 418.907 103.301 431.159 103.301C443.41 103.3 453.338 113.228 453.338 125.48Z" fill="#F6B97B"/>
<path d="M422.25 130.624C422.167 130.095 421.363 130.319 421.445 130.846C422.684 138.795 423.924 146.744 425.163 154.694C425.246 155.223 426.05 154.999 425.968 154.472C424.729 146.523 423.489 138.574 422.25 130.624Z" fill="white"/>
<path d="M439.843 129.817C438.505 138.185 437.168 146.554 435.83 154.922C435.746 155.448 436.551 155.674 436.635 155.144C437.973 146.776 439.31 138.407 440.648 130.039C440.732 129.513 439.928 129.287 439.843 129.817Z" fill="white"/>
<path d="M442.101 135.862C441.474 137.592 439.534 138.761 437.708 138.411C436.165 138.115 434.987 136.971 434.182 135.653C434.935 134.57 435.467 133.311 435.753 132.145C436.055 130.915 436.132 129.631 435.955 128.375C435.82 127.419 435.371 126.199 434.268 126.05C432.979 125.876 432.317 127.174 432.108 128.237C431.838 129.609 431.84 131.022 432.085 132.398C432.273 133.456 432.633 134.55 433.158 135.554C433.048 135.69 432.94 135.827 432.822 135.955C432.107 136.737 431.198 137.463 430.096 137.523C429.042 137.581 428.308 136.923 427.769 136.107C428.326 135.305 428.713 134.357 428.913 133.414C429.206 132.027 429.329 130.484 429.235 129.07C429.162 127.97 428.4 126.678 427.11 127.048C425.784 127.429 425.562 129.045 425.475 130.207C425.376 131.536 425.541 132.897 425.948 134.166C426.151 134.801 426.419 135.468 426.763 136.086C426.222 136.712 425.518 137.172 424.607 137.323C422.094 137.741 421.147 135.169 420.658 133.214C420.528 132.693 419.722 132.914 419.853 133.436C420.396 135.604 421.451 138.209 424.097 138.199C425.371 138.194 426.412 137.634 427.209 136.795C427.412 137.07 427.634 137.326 427.883 137.548C428.846 138.405 430.146 138.559 431.33 138.081C432.213 137.725 432.981 137.111 433.627 136.362C434.398 137.534 435.435 138.502 436.753 139.002C439.217 139.936 442.022 138.517 442.905 136.08C443.09 135.578 442.283 135.36 442.101 135.862ZM426.373 129.616C426.45 129.082 426.554 128.443 426.975 128.064C427.485 127.605 428.061 127.905 428.284 128.475C428.49 129.002 428.408 129.64 428.391 130.192C428.373 130.78 428.35 131.368 428.293 131.953C428.186 133.057 427.893 134.293 427.315 135.307C426.438 133.566 426.096 131.544 426.373 129.616ZM433.644 134.651C432.744 132.658 432.451 130.257 432.987 128.124C433.108 127.64 433.333 127.066 433.859 126.906C434.371 126.751 434.716 127.187 434.902 127.607C435.282 128.469 435.26 129.557 435.186 130.477C435.064 132.002 434.551 133.506 433.716 134.795C433.693 134.746 433.666 134.699 433.644 134.651Z" fill="white"/>
<path d="M189.006 186.88L171.205 189.64C167.06 194.759 161.429 198.782 154.695 200.975C136.104 207.028 116.126 196.865 110.073 178.274C104.02 159.683 114.183 139.706 132.774 133.652C151.355 127.602 171.332 137.765 177.386 156.356C179.137 161.733 179.529 167.237 178.753 172.478L189.006 186.88Z" fill="white"/>
<path d="M171.864 155.956L138.717 189.103L120.696 171.071L129.433 162.334L138.717 171.617L163.116 147.218L171.864 155.956Z" fill="#F6B97B"/>
<path d="M379.111 265.677L356.531 291.017L350.761 306.587L349.581 291.987L347.211 274.197L347.451 270.907L348.801 252.317C345.051 252.667 341.401 252.567 337.971 251.947C324.471 249.547 314.171 239.237 312.881 216.927C312.091 203.337 313.771 193.097 316.041 185.717C319.371 174.877 324.001 170.227 324.001 170.227C324.001 170.227 340.891 198.517 363.271 201.647C363.271 201.647 367.371 191.977 373.761 194.827C380.161 197.677 380.161 216.917 370.021 219.437C368.691 232.747 370.631 246.387 375.631 258.797C376.591 261.167 377.701 263.547 379.111 265.677Z" fill="#FF9971"/>
<path d="M357.031 227.807C362.029 227.807 366.081 223.755 366.081 218.757C366.081 213.759 362.029 209.707 357.031 209.707C352.033 209.707 347.981 213.759 347.981 218.757C347.981 223.755 352.033 227.807 357.031 227.807Z" fill="#F9785A"/>
<path d="M360.071 250.087L348.091 262.047L348.801 252.317C352.481 251.987 356.271 251.217 360.071 250.087Z" fill="#2E303D"/>
<path d="M348.091 262.047L347.451 270.907C347.451 270.907 334.471 276.727 328.521 290.477C327.231 286.297 327.371 281.727 328.301 277.437C329.351 272.637 331.331 268.107 333.331 263.637C335.041 259.807 336.781 255.957 337.971 251.947C341.401 252.567 345.051 252.667 348.801 252.317L348.091 262.047Z" fill="#2E303D"/>
<path d="M326.641 205.947L331.791 227.637C331.791 227.637 322.821 230.347 321.641 228.187C320.461 226.037 326.641 205.947 326.641 205.947Z" fill="#F9785A"/>
<path d="M452.856 270.401C450.175 259.434 443.666 249.944 436.251 241.615C430.249 234.872 423.578 228.773 417.251 222.343C415.27 219.115 413.415 215.814 411.761 212.397C405.561 199.607 402.311 185.537 395.931 172.847C389.541 160.147 378.831 148.327 364.791 146.137C344.171 142.917 324.491 161.197 303.981 157.347C303.171 167.777 307.471 178.497 315.271 185.477L316.041 185.717C318.898 176.417 322.703 171.684 323.729 170.524C324.963 176.665 329.228 181.716 333.447 186.177C338.381 191.394 343.935 196.243 350.681 198.935C353.592 200.097 356.686 200.816 359.813 200.943C360.951 201.236 362.101 201.483 363.271 201.647C363.271 201.647 367.371 191.977 373.761 194.827C380.161 197.677 380.161 216.917 370.021 219.437C368.691 232.747 370.631 246.387 375.631 258.797C376.591 261.167 377.701 263.547 379.111 265.677C379.981 267.007 380.971 268.237 382.121 269.317V269.327C382.531 269.707 382.961 270.077 383.421 270.427C392.211 277.137 405.161 273.117 415.511 277.007C425.091 280.607 431.031 290.687 432.591 300.807C434.161 310.927 432.121 321.217 430.101 331.257L430.281 331.317C430.481 330.717 430.671 330.107 430.861 329.507C444.296 324.751 452.255 310.185 452.893 295.854C454.826 287.515 454.891 278.723 452.856 270.401ZM343.023 193.498C340.211 191.449 337.647 189.073 335.222 186.583C332.847 184.145 330.513 181.618 328.562 178.821C327.093 176.715 325.855 174.421 325.113 171.971C328.563 177.194 339.79 192.781 354.615 199.157C350.446 198.088 346.512 196.04 343.023 193.498ZM452.81 290.822C451.838 276.335 444.828 262.815 436.742 250.687C431.234 242.434 425.142 234.526 419.723 226.229C423.578 230.043 427.494 233.8 431.252 237.699C439.192 245.937 446.711 255.136 450.534 266.074C453.298 273.985 453.981 282.54 452.81 290.822Z" fill="#2E303D"/>
<path d="M322.869 206.136C322.869 209.258 321.111 211.788 318.942 211.788C316.773 211.788 315.015 209.257 315.015 206.136C315.015 203.015 316.773 200.484 318.942 200.484C321.111 200.484 322.869 203.014 322.869 206.136Z" fill="#2E303D"/>
<path d="M343.22 205.325C343.22 208.447 341.462 210.978 339.293 210.978C337.124 210.978 335.366 208.447 335.366 205.325C335.366 202.203 337.124 199.673 339.293 199.673C341.462 199.673 343.22 202.203 343.22 205.325Z" fill="#2E303D"/>
<path d="M321.452 193.086C319.507 192.983 317.542 193.173 315.642 193.597C314.62 193.825 313.924 195.065 314.245 196.057C314.592 197.13 315.61 197.698 316.705 197.454C317.176 197.349 317.652 197.271 318.128 197.2C319.231 197.072 320.341 197.027 321.451 197.086C322.498 197.142 323.498 196.126 323.451 195.086C323.401 193.954 322.573 193.145 321.452 193.086Z" fill="#2E303D"/>
<path d="M345.38 194.877C345.08 194.412 344.695 194.164 344.185 193.958C341.929 193.048 339.399 192.692 336.979 192.937C336.435 192.992 335.964 193.123 335.565 193.523C335.218 193.87 334.957 194.439 334.979 194.937C335.023 195.93 335.864 197.05 336.979 196.937C337.98 196.836 338.983 196.854 339.982 196.964C341.058 197.132 342.111 197.407 343.122 197.815C343.571 197.996 344.264 197.847 344.663 197.613C345.078 197.37 345.473 196.894 345.582 196.418C345.698 195.906 345.673 195.331 345.38 194.877Z" fill="#2E303D"/>
<path d="M346.896 234.977C348.346 238.56 346.983 242.491 343.851 243.758C340.72 245.025 337.006 243.148 335.556 239.565C334.106 235.982 335.469 232.051 338.601 230.784C341.733 229.517 345.447 231.395 346.896 234.977Z" fill="#E56B45"/>
<path d="M347.981 229.997C347.981 229.997 350.971 238.547 342.351 241.397C335.331 243.717 332.381 239.107 331.591 237.527L347.981 229.997Z" fill="white"/>
<path d="M430.101 331.257L430.281 331.317C427.501 339.947 424.341 348.607 421.151 356.777V356.787C411.291 382.027 401.131 402.617 400.821 403.227C391.081 389.777 372.941 380.847 367.051 378.197C365.841 377.657 365.151 377.377 365.151 377.377L361.441 388.497C361.751 388.787 362.071 389.077 362.371 389.357L328.741 393.837V379.977C328.741 379.977 327.911 378.177 326.681 375.317C325.001 371.417 322.571 365.537 320.541 359.617C318.311 353.117 316.561 346.567 316.771 342.537C317.331 332.157 340.071 292.127 340.071 292.127C340.101 297.897 341.381 302.557 341.381 302.557C341.481 301.937 341.711 301.277 342.051 300.607C342.151 301.037 345.371 314.317 351.381 324.377L364.181 302.557C364.711 303.927 365.231 305.457 365.701 307.137C365.701 307.137 379.901 284.177 382.121 269.327C382.531 269.707 382.961 270.077 383.421 270.427C392.211 277.137 405.161 273.117 415.511 277.007C425.091 280.607 431.031 290.687 432.591 300.807C434.161 310.927 432.121 321.217 430.101 331.257Z" fill="#F6B97B"/>
<path d="M421.151 356.787L427.141 409.437H400.161L402.401 405.547C401.911 404.757 401.381 403.987 400.821 403.227C401.131 402.617 411.291 382.027 421.151 356.787Z" fill="#F6B97B"/>
<path d="M400.821 403.227C401.381 403.987 401.911 404.757 402.401 405.547L400.161 409.437L388.871 429.087C388.871 429.087 384.901 410.417 362.371 389.357C362.071 389.077 361.751 388.787 361.441 388.497L365.151 377.377C365.151 377.377 365.841 377.657 367.051 378.197C372.941 380.847 391.081 389.777 400.821 403.227Z" fill="#F19146"/>
<path d="M388.871 429.087C388.871 429.087 363.041 429.547 290.831 425.377C290.831 425.377 273.961 437.057 267.111 436.317C260.251 435.577 246.721 422.877 243.381 417.597C240.051 412.317 248.761 404.437 248.761 404.437C248.761 404.437 248.851 400.457 254.321 398.137C256.761 397.107 263.451 397.247 270.131 397.717C278.451 398.317 286.751 399.437 286.751 399.437L306.841 396.757L328.741 393.837L362.371 389.357C384.901 410.417 388.871 429.087 388.871 429.087Z" fill="#FF9971"/>
<path d="M382.121 269.317V269.327C379.901 284.177 365.701 307.137 365.701 307.137C365.231 305.457 364.711 303.927 364.181 302.557C360.751 293.677 356.531 291.017 356.531 291.017L379.111 265.677C379.981 267.007 380.971 268.237 382.121 269.317Z" fill="white"/>
<path d="M364.181 302.557L351.381 324.377C345.371 314.317 342.151 301.037 342.051 300.607C342.051 300.597 342.051 300.597 342.051 300.597C344.061 296.537 349.581 291.987 349.581 291.987L350.761 306.587L356.531 291.017C356.531 291.017 360.751 293.677 364.181 302.557Z" fill="#FDEDD7"/>
<path d="M340.031 355.237H347.901H355.631L356.251 387.197H333.181L332.711 355.237H340.031ZM350.751 373.317V358.307H338.211V373.317H350.751Z" fill="white"/>
<path d="M350.751 358.307H338.211V373.317H350.751V358.307Z" fill="#F6B97B"/>
<path d="M347.211 274.197L349.581 291.987C349.581 291.987 344.061 296.537 342.051 300.597C342.051 300.597 342.051 300.597 342.051 300.607C341.711 301.277 341.481 301.937 341.381 302.557C341.381 302.557 340.101 297.897 340.071 292.127C340.041 285.997 341.411 278.597 347.211 274.197Z" fill="white"/>
<path d="M344.051 350.367L347.901 355.237H340.031L344.051 350.367Z" fill="#B7B7B7"/>
<path d="M328.521 290.477C334.471 276.727 347.451 270.907 347.451 270.907L347.211 274.197C341.411 278.597 340.041 285.997 340.071 292.127C340.071 292.127 317.331 332.157 316.771 342.537C316.561 346.567 318.311 353.117 320.541 359.617L319.181 359.957L309.421 355.217L309.731 354.587C309.731 354.587 322.151 310.567 327.151 294.167C327.541 292.877 328.001 291.647 328.521 290.477Z" fill="#F6B97B"/>
<path d="M328.741 379.977V393.837L306.841 396.757L240.189 396.619C228.909 401.469 223.076 401.729 218.716 399.559C216.936 399.679 210.261 400.417 208.481 400.527C208.311 402.447 207.721 404.157 206.131 404.157C202.521 404.157 198.491 396.097 198.491 396.097C198.491 396.097 197.381 404.157 193.761 402.217C190.151 400.267 191.121 389.237 191.121 389.237C191.121 389.237 182.921 397.277 181.811 394.247C180.701 391.207 186.121 376.777 199.601 375.527C213.081 374.277 243.521 379.697 243.521 379.697L303.891 369.597L326.681 375.317C327.911 378.177 328.741 379.977 328.741 379.977Z" fill="#FF9971"/>
<path d="M326.681 375.317L303.891 369.597C302.491 358.387 306.211 353.657 306.211 353.657L309.421 355.217L320.541 359.617C322.571 365.537 325.001 371.417 326.681 375.317Z" fill="#F19146"/>
<path d="M280.806 375.2C282.236 376.18 282.626 378.14 281.756 379.64C274.706 378.73 273.026 375.52 273.026 375.52C273.606 374.54 274.756 373.38 275.886 373.32C277.266 373.26 279.066 374.01 280.806 375.2Z" fill="#ED694F"/>
<path d="M281.756 379.64L277.496 386.99C271.886 386.18 268.886 382.47 268.886 382.47L273.026 375.52C273.026 375.52 274.706 378.73 281.756 379.64Z" fill="#FF9076"/>
<path d="M277.496 386.99L270.856 398.45L259.516 398.21L268.886 382.47C268.886 382.47 271.886 386.18 277.496 386.99Z" fill="#F6B97B"/>
<path d="M386.755 308.063C384.01 316.705 381.266 325.348 378.522 333.99C375.79 342.593 373.058 351.196 370.326 359.798C368.778 364.674 367.229 369.551 365.681 374.427C365.486 375.042 366.451 375.305 366.645 374.693C369.39 366.051 372.134 357.408 374.878 348.766C377.61 340.163 380.342 331.561 383.074 322.958C384.622 318.082 386.171 313.205 387.719 308.329C387.915 307.714 386.949 307.451 386.755 308.063Z" fill="#2E303D"/>
<path d="M420.655 358.208C414.906 369.641 409.623 381.308 404.825 393.172C403.472 396.518 402.158 399.881 400.882 403.257C400.654 403.86 401.62 404.12 401.846 403.523C406.34 391.633 411.315 379.926 416.764 368.442C418.311 365.181 419.897 361.938 421.518 358.713C421.807 358.139 420.944 357.632 420.655 358.208Z" fill="#2E303D"/>
<path d="M338.709 293.286C333.953 302.102 329.082 310.867 324.466 319.757C320.301 327.777 316.623 336.382 316.655 345.579C316.672 350.36 317.713 355.142 320.085 359.32C320.403 359.88 321.267 359.376 320.949 358.815C316.632 351.213 317.022 341.951 319.509 333.821C320.851 329.436 322.769 325.257 324.855 321.181C327.034 316.924 329.353 312.737 331.623 308.528C334.273 303.615 336.923 298.702 339.573 293.79C339.878 293.225 339.015 292.719 338.709 293.286Z" fill="#2E303D"/>
<path d="M364.133 303.724C358.73 315.945 353.327 328.167 347.924 340.388C346.608 343.366 345.291 346.343 343.975 349.32C341.952 337.14 341.086 324.772 341.422 312.429C341.522 308.765 341.728 305.105 342.035 301.453C342.089 300.812 341.088 300.815 341.035 301.453C339.945 314.44 340.161 327.53 341.698 340.472C342.118 344.014 342.638 347.543 343.25 351.057C343.246 351.149 343.268 351.233 343.307 351.31C343.361 351.472 343.475 351.561 343.612 351.586C343.813 351.665 344.042 351.626 344.156 351.368C344.16 351.36 344.163 351.351 344.167 351.343C344.198 351.295 344.225 351.242 344.238 351.183C349.614 339.023 354.989 326.864 360.365 314.704C361.909 311.212 363.452 307.72 364.996 304.229C365.254 303.646 364.393 303.136 364.133 303.724Z" fill="#2E303D"/>
<path d="M328.035 394.075C320.946 394.77 313.857 395.465 306.769 396.16C306.134 396.222 306.128 397.223 306.769 397.16C313.858 396.465 320.947 395.77 328.035 395.075C328.67 395.013 328.677 394.013 328.035 394.075Z" fill="#2E303D"/>
<path d="M229.151 395.932C223.188 397.82 217.03 399.075 210.799 399.629C210.084 399.693 209.369 399.747 208.653 399.793C208.052 399.831 207.43 399.902 206.834 399.779C206.378 399.684 205.869 399.467 205.9 398.917C205.939 398.235 206.807 397.597 207.256 397.171C209.307 395.227 211.506 393.445 213.834 391.843C216.466 390.031 219.254 388.455 222.157 387.121C222.741 386.852 222.233 385.99 221.652 386.257C216.005 388.853 210.798 392.386 206.312 396.69C205.471 397.497 204.37 398.692 205.177 399.907C205.756 400.778 206.99 400.877 207.936 400.838C211.318 400.698 214.71 400.26 218.043 399.682C221.893 399.014 225.692 398.079 229.417 396.899C230.028 396.703 229.767 395.737 229.151 395.932Z" fill="#2E303D"/>
<path d="M198.999 395.97C197.684 391.554 197.666 386.855 198.951 382.43C199.131 381.811 198.166 381.546 197.987 382.164C196.655 386.753 196.671 391.656 198.035 396.236C198.218 396.852 199.183 396.59 198.999 395.97Z" fill="#2E303D"/>
<path d="M195.235 380.814C194.979 380.661 194.714 380.78 194.551 380.993C192.689 383.425 191.419 386.286 190.859 389.298C190.742 389.927 191.706 390.197 191.823 389.564C192.37 386.624 193.597 383.872 195.414 381.498C195.58 381.282 195.447 380.941 195.235 380.814Z" fill="#2E303D"/>
<path d="M349.174 291.955C346.286 294.815 343.574 297.848 341.053 301.037C340.658 301.537 341.361 302.249 341.76 301.744C344.281 298.555 346.993 295.522 349.881 292.662C350.339 292.209 349.632 291.502 349.174 291.955Z" fill="#2E303D"/>
<path d="M365.856 306.109C364.16 300.4 361.212 295.125 357.246 290.684C356.816 290.203 356.111 290.912 356.539 291.391C360.389 295.703 363.246 300.835 364.892 306.375C365.074 306.99 366.04 306.728 365.856 306.109Z" fill="#2E303D"/>
<path d="M351.559 307.42C351.532 306.779 350.531 306.775 350.559 307.42C350.748 311.853 350.938 316.286 351.128 320.719C351.155 321.36 352.156 321.364 352.128 320.719C351.938 316.286 351.748 311.853 351.559 307.42Z" fill="#2E303D"/>
<path d="M355.178 309.971C354.902 309.402 354.156 309.091 353.564 309.323C353.385 309.393 353.225 309.501 353.084 309.631C353.067 309.645 353.045 309.651 353.03 309.669C353.001 309.702 352.988 309.745 352.962 309.78C352.915 309.838 352.855 309.885 352.82 309.952C352.801 309.988 352.801 310.029 352.785 310.066C352.771 310.099 352.765 310.133 352.754 310.167C352.714 310.29 352.686 310.412 352.682 310.541C352.682 310.555 352.674 310.568 352.674 310.582C352.674 310.618 352.691 310.65 352.693 310.686C352.7 310.768 352.69 310.85 352.713 310.93C352.722 310.962 352.745 310.987 352.756 311.018C352.777 311.077 352.809 311.129 352.837 311.185C352.883 311.274 352.929 311.359 352.994 311.436C353.008 311.453 353.014 311.475 353.029 311.492C353.063 311.529 353.112 311.549 353.151 311.581C353.201 311.624 353.239 311.68 353.296 311.715C353.318 311.729 353.347 311.729 353.37 311.742C353.434 311.775 353.504 311.791 353.572 311.814C353.655 311.841 353.732 311.878 353.82 311.888C354.136 311.934 354.465 311.877 354.724 311.691C354.988 311.501 355.184 311.241 355.272 310.925C355.363 310.601 355.323 310.27 355.178 309.971Z" fill="#2E303D"/>
<path d="M100.131 398.487L97.1608 422.967L148.311 419.817V430.017L73.8108 438.357L53.6108 422.967L76.6508 368.437L84.9308 348.837L105.501 354.217L102.921 375.527L100.131 398.487Z" fill="#8E8E8E"/>
<path d="M127.461 213.457L162.031 393.597H147.201L112.451 213.457H127.461Z" fill="#8E8E8E"/>
<path d="M148.311 419.817L97.1609 422.967L100.131 398.487L148.311 419.817Z" fill="#B7B7B7"/>
<path d="M112.451 213.457L147.201 393.597L102.921 375.527L105.501 354.217L84.9309 348.837L76.6509 368.437L72.9809 366.877L32.9409 213.457H112.451Z" fill="#B7B7B7"/>
<path d="M139.904 353.569C137.987 342.291 136.019 331.021 134.001 319.761C131.973 308.444 129.894 297.136 127.764 285.838C125.645 274.596 123.476 263.363 121.256 252.141C119.037 240.918 116.767 229.705 114.448 218.503C114.158 217.103 113.867 215.702 113.576 214.303C113.445 213.673 112.481 213.94 112.612 214.569C114.943 225.769 117.226 236.979 119.458 248.199C121.69 259.419 123.872 270.649 126.003 281.889C128.145 293.185 130.237 304.49 132.277 315.805C134.308 327.063 136.288 338.331 138.218 349.607C140.148 360.883 142.028 372.168 143.857 383.46C144.086 384.872 144.313 386.283 144.541 387.695C144.643 388.329 145.607 388.06 145.505 387.429C143.688 376.134 141.822 364.847 139.904 353.569Z" fill="#2E303D"/>
<path d="M99.3249 353.789C96.2829 364.633 93.1189 375.443 89.8299 386.215C86.5529 396.948 83.1539 407.643 79.6339 418.299C77.6419 424.327 75.6109 430.341 73.5429 436.343C73.3329 436.953 74.2989 437.215 74.5069 436.609C78.1769 425.961 81.7269 415.272 85.1539 404.543C88.5679 393.853 91.8599 383.124 95.0289 372.359C96.8219 366.269 98.5749 360.168 100.289 354.056C100.463 353.434 99.4989 353.169 99.3249 353.789Z" fill="#2E303D"/>
</g>
<defs>
<clipPath id="clip0_7677_39654">
<rect width="500" height="500" fill="white"/>
</clipPath>
</defs>
</svg>
