<svg width="40" height="40" viewBox="0 0 40 40" fill="none" xmlns="http://www.w3.org/2000/svg">
<rect x="0.5" y="0.5" width="39" height="39" rx="3.5" fill="#FFF9F4"/>
<rect x="0.5" y="0.5" width="39" height="39" rx="3.5" stroke="#FDEDD7"/>
<path d="M22.3002 18.2188H9.30028C8.47529 18.2188 7.80029 18.8937 7.80029 19.7187C7.80029 20.5437 8.47529 21.2187 9.30028 21.2187H22.3002C23.1252 21.2187 23.8002 20.5437 23.8002 19.7187C23.8002 18.8937 23.1252 18.2188 22.3002 18.2188Z" fill="#F6B97B"/>
<path d="M30.3003 21.2187C31.1287 21.2187 31.8003 20.5472 31.8003 19.7187C31.8003 18.8903 31.1287 18.2188 30.3003 18.2188C29.4719 18.2188 28.8003 18.8903 28.8003 19.7187C28.8003 20.5472 29.4719 21.2187 30.3003 21.2187Z" fill="#F6B97B"/>
</svg>
