<svg width="218" height="181" viewBox="0 0 218 181" fill="none" xmlns="http://www.w3.org/2000/svg">
<path opacity="0.4" d="M172.292 42.741L152.607 93.7436L118.935 0.679688L86.1993 102.631L45.5125 35.7505L0.61853 159.215H217.378L172.292 42.741Z" fill="#F19146"/>
<path d="M109.401 56.8061C108.938 55.5203 107.711 54.5991 106.268 54.5991C105.608 54.5991 104.997 54.7912 104.48 55.1212C103.824 53.3675 102.14 52.1211 100.159 52.1211C98.3364 52.1211 96.76 53.1803 96.0112 54.7173C95.7304 54.6385 95.4348 54.5941 95.1294 54.5941C93.686 54.5941 92.4593 55.5154 91.9962 56.8011H109.396L109.401 56.8061Z" fill="white"/>
<path d="M197.322 62.0274C203.974 62.0274 209.367 56.6347 209.367 49.9825C209.367 43.3302 203.974 37.9375 197.322 37.9375C190.67 37.9375 185.277 43.3302 185.277 49.9825C185.277 56.6347 190.67 62.0274 197.322 62.0274Z" fill="#EFC260"/>
<path d="M196.452 114.504H196.447C189.724 114.504 184.274 119.954 184.274 126.677V148.629C184.274 155.352 189.724 160.802 196.447 160.802H196.452C203.175 160.802 208.625 155.352 208.625 148.629V126.677C208.625 119.954 203.175 114.504 196.452 114.504Z" fill="#F19146"/>
<path d="M196.536 120.41H196.122V174.004H196.536V120.41Z" fill="white"/>
<path d="M190.25 136.573L196.202 141.573L202.867 136.844L202.64 136.489L196.221 141.046L190.571 136.297L190.25 136.573Z" fill="white"/>
<path d="M190.25 148.488L196.202 153.488L202.867 148.764L202.64 148.409L196.221 152.966L190.571 148.217L190.25 148.488Z" fill="white"/>
<path d="M190.25 124.653L196.202 129.653L202.867 124.924L202.64 124.569L196.221 129.126L190.571 124.377L190.25 124.653Z" fill="white"/>
<path d="M199.871 174.051H193.427C193.299 174.051 193.196 173.948 193.196 173.819C193.196 173.691 193.299 173.588 193.427 173.588H199.871C199.999 173.588 200.103 173.691 200.103 173.819C200.103 173.948 199.999 174.051 199.871 174.051Z" fill="#F19146"/>
<path d="M34.335 128.053C34.335 123.156 30.366 119.186 25.47 119.186C20.574 119.186 16.605 123.156 16.605 128.053V144.034C16.605 148.931 20.574 152.902 25.47 152.902C30.366 152.902 34.335 148.931 34.335 144.034V128.053Z" fill="#F19146"/>
<path d="M25.5331 123.492H25.2325V162.519H25.5331V123.492Z" fill="white"/>
<path d="M20.9535 135.256L25.2838 138.896L30.1362 135.458L29.9786 135.197L25.3035 138.517L21.185 135.059L20.9535 135.256Z" fill="white"/>
<path d="M20.9535 143.938L25.2838 147.579L30.1362 144.135L29.9786 143.874L25.3035 147.195L21.185 143.736L20.9535 143.938Z" fill="white"/>
<path d="M20.9535 126.574L25.2838 130.215L30.1362 126.776L29.9786 126.515L25.3035 129.835L21.185 126.377L20.9535 126.574Z" fill="white"/>
<path d="M27.9589 162.548H23.2641C23.1705 162.548 23.0917 162.474 23.0917 162.376C23.0917 162.277 23.1656 162.203 23.2641 162.203H27.9589C28.0525 162.203 28.1313 162.277 28.1313 162.376C28.1313 162.474 28.0574 162.548 27.9589 162.548Z" fill="#F19146"/>
<path d="M200.127 57.2735C199.343 55.0911 197.26 53.5245 194.806 53.5245C193.688 53.5245 192.648 53.8546 191.772 54.4113C190.663 51.4358 187.796 49.3125 184.431 49.3125C181.333 49.3125 178.653 51.1156 177.382 53.7265C176.904 53.5935 176.406 53.5196 175.884 53.5196C173.431 53.5196 171.347 55.0862 170.564 57.2686H200.122L200.127 57.2735Z" fill="white"/>
<path d="M153.706 36.084H64.293C61.9333 36.084 60.0219 37.9954 60.0219 40.3551V167.539C60.0219 169.899 61.9333 171.81 64.293 171.81H153.706C156.066 171.81 157.978 169.899 157.978 167.539V40.3551C157.978 37.9954 156.066 36.084 153.706 36.084Z" fill="#E1E1E1"/>
<path d="M150.022 43.6758H67.9785V164.702H150.022V43.6758Z" fill="white"/>
<path d="M150.022 41.2031H67.9785V162.229H150.022V41.2031Z" fill="white"/>
<path d="M80.6686 41.2031C80.7228 44.5826 83.4766 47.4695 87.0433 47.4695H130.962C134.528 47.4695 137.282 44.5826 137.337 41.2031H80.6735H80.6686Z" fill="#3E3577"/>
<path d="M135.971 33.0728C135.503 31.048 133.695 29.6095 131.616 29.6095H116.965C116.965 25.2103 113.398 21.6387 108.994 21.6387C104.59 21.6387 101.023 25.2054 101.023 29.6095H86.372C84.293 29.6095 82.4851 31.0431 82.0171 33.0728L80.82 38.2553C79.8938 42.2506 82.9284 46.0685 87.0321 46.0685H130.951C135.049 46.0685 138.084 42.2506 137.163 38.2553L135.966 33.0728H135.971ZM109.748 33.3683C107.048 33.8807 104.723 31.5604 105.235 28.8558C105.521 27.3483 106.738 26.1315 108.245 25.8458C110.945 25.3334 113.265 27.6587 112.753 30.3534C112.467 31.8609 111.25 33.0777 109.743 33.3634L109.748 33.3683Z" fill="#F19146"/>
<path d="M94.4583 73.8852H74.1962V53.623H94.4583V73.8852ZM75.8416 72.2398H92.808V55.2685H75.8416V72.2398Z" fill="#F19146"/>
<path d="M121.825 55.7695H99.2815V59.2968H121.825V55.7695Z" fill="#F19146"/>
<path d="M144.368 63.2969H99.2815V66.8242H144.368V63.2969Z" fill="#F19146"/>
<path d="M144.368 70.3125H99.2815V73.8398H144.368V70.3125Z" fill="#F19146"/>
<path d="M96.2917 51.8086L84.8132 63.4594L81.4091 60.4544L78.7932 63.425L85.0004 68.8981L99.1046 54.5871L96.2917 51.8086Z" fill="#E793A7"/>
<path d="M94.4583 100.772H74.1962V80.5098H94.4583V100.772ZM75.8416 99.1265H92.808V82.1552H75.8416V99.1265Z" fill="#F19146"/>
<path d="M121.825 82.6641H99.2815V86.1913H121.825V82.6641Z" fill="#F19146"/>
<path d="M144.368 90.1855H99.2815V93.7128H144.368V90.1855Z" fill="#F19146"/>
<path d="M144.368 97.2031H99.2815V100.73H144.368V97.2031Z" fill="#F19146"/>
<path d="M96.2906 78.6953L88.3937 86.745L90.916 89.691L99.1036 81.4787L96.2906 78.6953Z" fill="#E793A7"/>
<path d="M94.4583 127.666H74.1962V107.404H94.4583V127.666ZM75.8416 126.021H92.808V109.05H75.8416V126.021Z" fill="#F19146"/>
<path d="M121.825 109.561H99.2815V113.088H121.825V109.561Z" fill="#F19146"/>
<path d="M144.368 117.082H99.2815V120.609H144.368V117.082Z" fill="#F19146"/>
<path d="M144.368 124.1H99.2815V127.627H144.368V124.1Z" fill="#F19146"/>
<path d="M96.2917 105.59L84.8132 117.241L81.4091 114.236L78.7932 117.206L85.0004 122.679L99.1046 108.368L96.2917 105.59Z" fill="#E793A7"/>
<path d="M94.4583 155.022H74.1962V134.76H94.4583V155.022ZM75.8416 153.376H92.808V136.405H75.8416V153.376Z" fill="#F19146"/>
<path d="M121.825 136.912H99.2815V140.439H121.825V136.912Z" fill="#F19146"/>
<path d="M144.368 144.434H99.2815V147.961H144.368V144.434Z" fill="#F19146"/>
<path d="M144.368 151.451H99.2815V154.978H144.368V151.451Z" fill="#F19146"/>
<path d="M96.2917 132.945L84.8132 144.596L81.4091 141.596L78.7932 144.562L85.0004 150.035L99.1046 135.729L96.2917 132.945Z" fill="#E793A7"/>
<path d="M90.3212 91.2508L86.4097 88.965C86.252 88.8714 86.1535 88.7039 86.1486 88.5216C86.1486 88.3393 86.2372 88.1669 86.39 88.0634L89.5724 85.9895C89.7399 85.8811 89.9566 85.8761 90.1291 85.9747L92.5725 87.4033C92.8238 87.5511 92.9075 87.8762 92.7597 88.1275L91.0454 91.0587C90.8976 91.3099 90.5724 91.3937 90.3212 91.2459V91.2508Z" fill="#D87D98"/>
<path d="M87.7597 87.1719L86.3901 88.0635C86.2374 88.1621 86.1438 88.3345 86.1487 88.5217C86.1487 88.704 86.2522 88.8715 86.4098 88.9651L90.3214 91.2509C90.5726 91.3987 90.8978 91.3149 91.0456 91.0637L91.9027 89.5956L87.7597 87.1719Z" fill="#E793A7"/>
<path d="M137.21 123.926L96.2968 99.9937C94.9716 99.2203 94.0061 97.9099 93.7795 96.3925C93.5923 95.1314 92.8484 94.0377 91.7498 93.3973L89.7497 92.2248C89.4984 92.077 89.4147 91.7519 89.5625 91.5006L92.4247 86.6137C92.5725 86.3625 92.8976 86.2787 93.1489 86.4265L95.1687 87.6088C96.2574 88.2443 97.5629 88.3133 98.7551 87.8995C100.208 87.397 101.8 87.5497 103.125 88.3281L144.038 112.26C147.078 114.039 148.102 117.945 146.324 120.985L145.94 121.645C144.161 124.685 140.255 125.709 137.215 123.931L137.21 123.926Z" fill="white"/>
<path d="M102.469 88.5035L96.129 99.3415C95.996 99.5682 96.065 99.8637 96.2916 99.9967L139.846 125.476C141.427 126.402 143.462 125.87 144.383 124.289L147.856 118.347C148.782 116.766 148.25 114.731 146.669 113.81L103.115 88.3311C102.888 88.1981 102.597 88.2819 102.464 88.5085L102.469 88.5035Z" fill="#E793A7"/>
<path opacity="0.2" d="M146.674 113.808L103.12 88.329C101.79 87.5556 100.204 87.3979 98.7557 87.9053C97.5635 88.3192 96.258 88.2502 95.1693 87.6147L93.1495 86.4324C92.8982 86.2846 92.5731 86.3683 92.4253 86.6196L90.9622 89.1172C102.229 95.8663 130.743 112.808 145.857 121.784L146.128 121.321L146.32 120.991L147.867 118.35C148.793 116.769 148.261 114.734 146.679 113.813L146.674 113.808Z" fill="#D87D98"/>
<path d="M168.563 155.893L171.316 156.967L170.602 158.765L167.247 157.809L168.563 155.893Z" fill="white"/>
<path d="M145.097 174.811L145.767 177.126L143.85 177.535L142.215 174.668L145.097 174.811Z" fill="white"/>
<path d="M134.702 118.08C137.82 118.08 140.348 115.553 140.348 112.435C140.348 109.317 137.82 106.789 134.702 106.789C131.585 106.789 129.057 109.317 129.057 112.435C129.057 115.553 131.585 118.08 134.702 118.08Z" fill="#EEBCC5"/>
<path d="M131.422 114.906L133.225 120.365C133.225 120.365 136.831 121.557 136.831 121.37C136.831 121.182 135.152 115.153 135.152 115.153L131.422 114.906Z" fill="#EEBCC5"/>
<path d="M115.313 103.659C115.313 104.511 114.624 105.201 113.771 105.201C112.919 105.201 112.229 104.511 112.229 103.659C112.229 102.807 112.919 102.117 113.771 102.117C114.624 102.117 115.313 102.807 115.313 103.659Z" fill="#EEBCC5"/>
<path d="M139.817 121.402C140.669 121.402 141.359 120.712 141.359 119.86C141.359 119.009 140.669 118.318 139.817 118.318C138.965 118.318 138.275 119.009 138.275 119.86C138.275 120.712 138.965 121.402 139.817 121.402Z" fill="#EEBCC5"/>
<path d="M113.253 106.013C113.253 106.013 118.017 114.722 120.086 117.136C122.155 119.55 127.505 122.482 127.505 122.482L128.604 135.044L142.057 134.526L140.988 126.767C140.988 126.767 145.816 130.043 148.235 129.699C150.649 129.354 153.27 127.107 149.304 124.349C145.338 121.59 141.54 120.038 141.54 120.038L140.161 121.073C140.161 121.073 132.397 117.969 130.673 117.797C128.948 117.624 116.702 104.688 116.702 104.688L113.253 106.013Z" fill="#3E3577"/>
<path d="M128.605 135.049C128.605 135.049 132.132 149.321 134.29 156.026C136.443 162.731 140.276 175.421 140.276 175.421L145.099 174.805L136.714 140.991L151.976 156.706L167.302 160.061L168.568 155.893L154.439 151.104L142.064 134.537L128.61 135.054L128.605 135.049Z" fill="#EFC260"/>
<path d="M136.712 140.996L141.377 139.779L140.101 144.42L136.712 140.996Z" fill="url(#paint0_linear_3527_31784)"/>
<path d="M142.986 107.496C142.986 109.043 141.73 110.3 140.183 110.3C138.636 110.3 137.38 109.043 137.38 107.496C137.38 105.95 138.636 104.693 140.183 104.693C141.73 104.693 142.986 105.95 142.986 107.496Z" fill="#3E3577"/>
<path d="M140.349 112.435C140.349 109.316 137.821 106.789 134.703 106.789C133.136 106.789 131.723 107.425 130.698 108.454C130.782 111.356 132.826 114.578 134.398 116.588C134.792 117.09 135.22 117.583 135.713 117.987C138.349 117.509 140.349 115.208 140.349 112.435Z" fill="#3E3577"/>
<path d="M135.363 113.483C135.363 114.675 134.397 115.646 133.2 115.646C132.003 115.646 131.037 114.68 131.037 113.483C131.037 112.286 132.003 111.32 133.2 111.32C134.397 111.32 135.363 112.286 135.363 113.483Z" fill="#EEBCC5"/>
<path d="M145.769 177.127L143.852 177.536L143.035 179.176L140.576 179.723V180.679L146.995 180.403L145.769 177.127Z" fill="#3E3577"/>
<path d="M170.602 158.765L171.321 156.967L173.518 157.661L173.671 163.731L172.72 163.78C172.72 163.78 171.745 160.671 171.641 160.593C171.538 160.514 170.602 158.765 170.602 158.765Z" fill="#3E3577"/>
<path d="M130.342 136.885C130.342 136.885 130.594 139.038 133.003 141.447" stroke="#3F58FA" stroke-width="0.492636" stroke-miterlimit="10"/>
<path d="M139.905 172.092L144.004 171.678" stroke="#3F58FA" stroke-width="0.492636" stroke-miterlimit="10"/>
<path d="M164.921 155.326L164.152 158.582" stroke="#3F58FA" stroke-width="0.492636" stroke-miterlimit="10"/>
<path d="M51.4519 143.293L62.9497 143.205C64.063 143.196 64.9714 144.091 64.98 145.204L65.0988 160.672L49.5664 160.792L49.4476 145.323C49.4391 144.21 50.3336 143.302 51.447 143.293L51.4519 143.293Z" fill="#F19146"/>
<path d="M57.0893 146.589C56.0449 146.599 55.1926 145.757 55.1828 144.712L55.1384 138.968C55.1384 138.83 55.2517 138.712 55.3897 138.712L58.6608 138.688C58.7987 138.688 58.9169 138.801 58.9169 138.939L58.9613 144.683C58.9711 145.727 58.1287 146.58 57.0843 146.589H57.0893Z" fill="#EEBCC5"/>
<path d="M63.6599 137.644C63.6599 137.58 63.6599 137.516 63.6599 137.452C63.6599 136.881 63.586 136.329 63.453 135.802V135.068C63.453 131.462 60.5021 128.516 56.9009 128.516C53.2948 128.516 50.3489 131.467 50.3489 135.068V137.644H63.6599Z" fill="#3E3577"/>
<path d="M62.9567 135.816V135.185C62.9567 131.86 60.2374 129.141 56.9121 129.141C53.5868 129.141 50.8674 131.86 50.8674 135.185V137.663C50.8674 137.831 50.8871 137.993 50.9216 138.146C51.3157 141.156 53.8873 143.481 57.0057 143.481C60.395 143.481 63.1439 140.732 63.1439 137.343C63.1439 136.816 63.0799 136.308 62.9518 135.821L62.9567 135.816Z" fill="#EEBCC5"/>
<path d="M54.5913 138.885C54.847 138.885 55.0543 138.678 55.0543 138.422C55.0543 138.166 54.847 137.959 54.5913 137.959C54.3355 137.959 54.1282 138.166 54.1282 138.422C54.1282 138.678 54.3355 138.885 54.5913 138.885Z" fill="#3E3577"/>
<path d="M59.4723 138.422C59.4723 138.678 59.2654 138.885 59.0092 138.885C58.7531 138.885 58.5461 138.678 58.5461 138.422C58.5461 138.166 58.7531 137.959 59.0092 137.959C59.2654 137.959 59.4723 138.166 59.4723 138.422Z" fill="#3E3577"/>
<path d="M52.6105 138.206C52.6105 139.151 51.847 139.915 50.9011 139.915C49.9552 139.915 49.1917 139.151 49.1917 138.206C49.1917 137.26 49.9552 136.496 50.9011 136.496C51.847 136.496 52.6105 137.26 52.6105 138.206Z" fill="#EEBCC5"/>
<path d="M64.6645 138.206C64.6645 139.151 63.9009 139.915 62.955 139.915C62.0092 139.915 61.2456 139.151 61.2456 138.206C61.2456 137.26 62.0092 136.496 62.955 136.496C63.9009 136.496 64.6645 137.26 64.6645 138.206Z" fill="#EEBCC5"/>
<path d="M50.8601 137.084C50.2837 137.133 49.8304 137.616 49.8304 138.207C49.8304 138.798 50.2837 139.281 50.8601 139.33V137.084Z" fill="#D98E9D"/>
<path d="M62.8439 137.084C63.4203 137.133 63.8735 137.616 63.8735 138.207C63.8735 138.798 63.4203 139.281 62.8439 139.33V137.084Z" fill="#D98E9D"/>
<path d="M61.1593 135.819C61.3219 136.336 61.5583 136.932 62.0805 137.08C62.4943 137.193 62.9229 136.977 63.2776 136.73C63.4698 136.597 63.6717 136.43 63.7062 136.198C63.7358 136.001 63.6373 135.814 63.5437 135.642C63.1791 134.972 62.8096 134.292 62.3022 133.725C61.849 133.218 61.0411 132.395 60.5632 133.267C60.2381 133.858 60.9721 135.238 61.1593 135.829V135.819Z" fill="#3E3577"/>
<path d="M61.7933 131.942C60.4582 130.946 58.8079 130.355 57.0246 130.355L57.0935 129.271C55.32 129.271 53.6007 130.942 52.2706 131.927C53.4333 133.247 55.1378 134.498 57.0393 134.498C58.9409 134.498 60.6307 133.257 61.7933 131.942Z" fill="#3E3577"/>
<path d="M40.4035 156.447C40.1769 156.107 40.103 155.688 40.2064 155.294C41.0833 151.796 47.8817 144.697 48.1576 144.352C48.5714 143.835 50.7094 143.367 50.7094 143.367L50.9557 149.013L44.7584 154.53C44.3889 154.969 44.3101 155.58 44.5613 156.097L50.3991 165.063L48.6551 166.403L40.3985 156.452L40.4035 156.447Z" fill="#F19146"/>
<path d="M74.5357 156.767C74.718 156.452 74.787 156.082 74.718 155.723C74.0332 152.304 66.4713 144.697 66.1954 144.352C65.7816 143.835 63.6435 143.367 63.6435 143.367L63.3972 149.013L70.2202 154.88C70.5454 155.314 70.6242 155.885 70.4222 156.392L63.6041 165.467L65.6831 166.206L74.5357 156.772V156.767Z" fill="#F19146"/>
<path d="M52.7191 135.819C52.5565 136.336 52.32 136.932 51.7929 137.08C51.3791 137.193 50.9505 136.977 50.5958 136.73C50.4037 136.597 50.2017 136.43 50.1672 136.198C50.1376 136.001 50.2362 135.814 50.3298 135.642C50.6943 134.972 51.0638 134.292 51.5712 133.725C52.0244 133.218 52.8324 132.395 53.3102 133.267C53.6354 133.858 52.9013 135.238 52.7141 135.829L52.7191 135.819Z" fill="#3E3577"/>
<path d="M50.6399 166.366C50.6399 167.455 49.758 168.332 48.6742 168.332C47.5904 168.332 46.7086 167.45 46.7086 166.366C46.7086 165.282 47.5904 164.4 48.6742 164.4C49.758 164.4 50.6399 165.282 50.6399 166.366Z" fill="#EEBCC5"/>
<path d="M53.3105 165.837C47.5319 165.108 41.709 164.768 35.8811 164.812C34.482 164.822 32.7725 165.054 32.2356 166.345C31.6493 167.763 32.9597 169.226 34.2406 170.069C40.3591 174.094 48.1379 174.286 55.4584 174.34C55.8033 173.054 56.0841 171.773 56.2122 170.448C55.7442 169.862 58.3157 168.246 57.8477 167.66C57.158 166.798 53.1628 166.921 53.3056 165.827L53.3105 165.837Z" fill="#3E3577"/>
<path d="M58.4357 165.837C64.2143 165.108 70.0373 164.768 75.8652 164.812C77.2642 164.822 78.9737 165.054 79.5107 166.345C80.0969 167.763 78.7865 169.226 77.5056 170.069C71.3871 174.094 63.6084 174.286 56.2878 174.34C55.9429 173.054 55.6621 171.773 55.5341 170.448C56.0021 169.862 56.4208 169.3 56.8888 168.714C57.5785 167.852 58.5835 166.921 58.4406 165.832L58.4357 165.837Z" fill="#3E3577"/>
<path d="M67.8103 166.72C67.8744 165.636 67.0467 164.7 65.9629 164.636C64.8791 164.572 63.9431 165.4 63.8791 166.484C63.815 167.567 64.6427 168.503 65.7265 168.568C66.8103 168.632 67.7463 167.804 67.8103 166.72Z" fill="#EEBCC5"/>
<path d="M53.8764 172.188L57.3741 172.301C57.3741 172.301 62.6601 176.606 62.601 178.001C62.5419 179.395 60.192 178.459 59.1919 177.518C58.187 176.577 56.0686 174.71 56.0686 174.71L53.6498 173.769L53.8715 172.188H53.8764Z" fill="#3E3577"/>
<path d="M59.0781 172.354L55.5903 172.068C55.5903 172.068 49.8511 175.743 49.7427 177.133C49.6392 178.527 52.0827 177.862 53.1862 177.044C54.2897 176.226 56.61 174.61 56.61 174.61L59.1176 173.95L59.0781 172.354Z" fill="#3E3577"/>
<path d="M48.443 168.681H66.3109C66.9858 168.681 67.577 168.213 67.7297 167.553L69.2371 161.094C69.4638 159.843 68.4933 158.695 67.2223 158.705L46.7582 158.863C45.4871 158.873 44.5364 160.035 44.7827 161.282L47.0685 167.711C47.2754 168.292 47.8272 168.681 48.443 168.681Z" fill="white"/>
<path d="M59.375 158.763L46.7635 158.856C45.4925 158.866 44.5417 160.029 44.788 161.275L47.0739 167.704C47.2808 168.285 47.8325 168.675 48.4483 168.675H51.6554L59.3799 158.758L59.375 158.763Z" fill="url(#paint1_linear_3527_31784)"/>
<path d="M58.6005 164.535C58.6005 165.451 57.7926 166.195 56.8024 166.195C55.8122 166.195 55.0043 165.451 55.0043 164.535C55.0043 163.619 55.8122 162.875 56.8024 162.875C57.7926 162.875 58.6005 163.619 58.6005 164.535Z" fill="#3E3578"/>
<path d="M58.2018 131.761C58.4037 131.805 58.6057 131.859 58.7929 131.943C59.2215 132.145 59.5466 132.505 59.8767 132.84C60.724 133.702 61.665 134.465 62.6059 135.224C62.67 135.278 62.7439 135.332 62.8276 135.327C62.8769 135.327 62.9261 135.303 62.9655 135.273C63.2956 135.037 63.2365 134.539 63.1478 134.14C62.9015 133.046 62.6207 131.894 61.862 131.071C61.5862 130.775 61.261 130.529 60.9359 130.288C60.2659 129.79 59.5811 129.288 58.7831 129.031C58.3988 128.908 57.9998 128.849 57.6057 128.8C56.9997 128.726 56.3839 128.677 55.7878 128.81C55.5366 128.864 55.3001 128.953 55.0587 129.046C54.2607 129.347 53.4626 129.677 52.7926 130.199C51.3196 131.342 50.6349 133.298 50.7038 135.16C50.7137 135.416 50.8122 135.746 51.0684 135.741C51.2014 135.741 51.3048 135.643 51.3984 135.544C52.1325 134.766 52.4675 133.79 53.2705 133.081C54.1129 132.342 55.172 131.859 56.2805 131.697C56.916 131.603 57.5663 131.618 58.1968 131.751L58.2018 131.761Z" fill="#3E3577"/>
<path d="M63.3139 149.865H59.0674V150.333H63.3139V149.865Z" fill="#3E3577"/>
<defs>
<linearGradient id="paint0_linear_3527_31784" x1="144.825" y1="144.193" x2="134.909" y2="139.114" gradientUnits="userSpaceOnUse">
<stop stop-color="#484EC2" stop-opacity="0"/>
<stop offset="0.98" stop-color="#1F40E5" stop-opacity="0.5"/>
</linearGradient>
<linearGradient id="paint1_linear_3527_31784" x1="54.1137" y1="163.655" x2="35.6102" y2="164.093" gradientUnits="userSpaceOnUse">
<stop stop-color="#484EC2" stop-opacity="0"/>
<stop offset="1" stop-color="#444BCC" stop-opacity="0.5"/>
</linearGradient>
</defs>
</svg>
