<svg width="108" height="24" viewBox="0 0 108 24" fill="none" xmlns="http://www.w3.org/2000/svg">
<path fill-rule="evenodd" clip-rule="evenodd" d="M33.8182 3.7473C33.4255 2.27451 32.2637 1.1128 30.7856 0.714617C28.1129 0 17.3892 0 17.3892 0C17.3892 0 6.6711 0 3.99291 0.714617C2.52026 1.1073 1.35841 2.26916 0.960223 3.7473C0.245605 6.42 0.245605 11.9999 0.245605 11.9999C0.245605 11.9999 0.245605 17.58 0.960223 20.2527C1.35291 21.7255 2.51476 22.8872 3.99291 23.2854C6.6711 24 17.3892 24 17.3892 24C17.3892 24 28.1129 24 30.7856 23.2854C32.2583 22.8927 33.42 21.7308 33.8182 20.2527C34.5328 17.58 34.5329 12.0001 34.5329 12.0001C34.5329 12.0001 34.5328 6.42 33.8182 3.7473Z" fill="#FF0000"/>
<path fill-rule="evenodd" clip-rule="evenodd" d="M13.9639 17.1427L22.8711 11.999L13.9639 6.85547V17.1427Z" fill="white"/>
<path fill-rule="evenodd" clip-rule="evenodd" d="M50.0127 21.8354C49.3363 21.3773 48.8509 20.6682 48.5673 19.7028C48.2835 18.7373 48.1362 17.4555 48.1362 15.8518V13.67C48.1362 12.0501 48.2999 10.7519 48.6272 9.7699C48.9545 8.78819 49.4672 8.07371 50.1599 7.62633C50.8526 7.1791 51.7636 6.95006 52.8926 6.95006C54.0054 6.95006 54.8945 7.1791 55.5653 7.63733C56.2362 8.09542 56.7272 8.81003 57.0381 9.7809C57.349 10.7519 57.5018 12.0501 57.5018 13.6645V15.8464C57.5018 17.45 57.349 18.7373 57.0489 19.7082C56.749 20.679 56.2582 21.3936 55.5763 21.8409C54.8999 22.2881 53.9781 22.5174 52.8162 22.5174C51.6272 22.5226 50.689 22.2936 50.0127 21.8354ZM53.8144 19.4791C53.9999 18.9882 54.0982 18.1863 54.0982 17.0792V12.3937C54.0982 11.3136 54.0054 10.5282 53.8144 10.0264C53.6291 9.53001 53.2963 9.27911 52.8217 9.27911C52.3636 9.27911 52.0417 9.53001 51.8508 10.0264C51.6654 10.5227 51.5673 11.3136 51.5673 12.3937V17.0792C51.5673 18.1918 51.6545 18.9937 51.8345 19.4791C52.0145 19.97 52.3418 20.2154 52.8164 20.2154C53.2963 20.2154 53.6236 19.97 53.8144 19.4791ZM102.087 15.89V16.6483C102.087 17.6136 102.114 18.3336 102.174 18.819C102.229 19.2991 102.349 19.6536 102.529 19.8719C102.709 20.09 102.987 20.2046 103.363 20.2046C103.871 20.2046 104.22 20.0082 104.405 19.6154C104.591 19.2227 104.694 18.5682 104.711 17.6518L107.629 17.821C107.645 17.9518 107.651 18.1318 107.651 18.3608C107.651 19.7519 107.269 20.7881 106.511 21.4754C105.752 22.1627 104.678 22.5063 103.287 22.5063C101.618 22.5063 100.451 21.9827 99.7798 20.9354C99.1089 19.8881 98.7762 18.2736 98.7762 16.0809V13.4573C98.7762 11.1991 99.1252 9.55721 99.8179 8.51559C100.511 7.47918 101.7 6.96091 103.385 6.96091C104.547 6.96091 105.436 7.17374 106.058 7.59913C106.68 8.02452 107.116 8.68445 107.373 9.58455C107.623 10.4845 107.754 11.7283 107.754 13.31V15.8846H102.087V15.89ZM102.518 9.56271C102.349 9.77554 102.234 10.1245 102.174 10.6046C102.114 11.0845 102.087 11.821 102.087 12.7972V13.8773H104.563V12.7972C104.563 11.8317 104.531 11.1009 104.465 10.6046C104.4 10.1082 104.28 9.75369 104.111 9.55185C103.942 9.35001 103.674 9.24641 103.314 9.24641C102.954 9.24092 102.687 9.35001 102.518 9.56271ZM41.7763 15.6064L37.9255 1.70276H41.2854L42.6327 8.00281C42.9763 9.55735 43.2272 10.8773 43.3909 11.9737H43.489C43.6036 11.1881 43.8545 9.87364 44.2473 8.02452L45.6435 1.69727H49.0035L45.1091 15.6064V22.2773H41.7763V15.6064ZM68.4271 7.24464V22.2718H65.7817L65.4871 20.4336H65.4162C64.6962 21.8245 63.6162 22.5173 62.1816 22.5173C61.1836 22.5173 60.4471 22.19 59.9727 21.5354C59.4981 20.8809 59.2636 19.8609 59.2636 18.4701V7.24464H62.6454V18.2791C62.6454 18.95 62.7163 19.4301 62.8636 19.7137C63.0109 19.9972 63.2563 20.1445 63.5999 20.1445C63.8945 20.1445 64.1781 20.0571 64.4453 19.8773C64.7125 19.6973 64.9144 19.4681 65.0453 19.19V7.2445L68.4271 7.24464ZM85.7835 7.24464V22.2718H83.138L82.8434 20.4336H82.7725C82.0525 21.8245 80.9726 22.5173 79.538 22.5173C78.5399 22.5173 77.8034 22.19 77.329 21.5354C76.8544 20.8809 76.6199 19.8609 76.6199 18.4701V7.24464H80.0017V18.2791C80.0017 18.95 80.0726 19.4301 80.2199 19.7137C80.367 19.9972 80.6126 20.1445 80.9562 20.1445C81.2508 20.1445 81.5344 20.0571 81.8016 19.8773C82.0689 19.6973 82.2707 19.4681 82.4016 19.19V7.2445L85.7835 7.24464Z" fill="#282828"/>
<path fill-rule="evenodd" clip-rule="evenodd" d="M77.6236 4.42342H74.2637V22.2705H70.9527V4.42342H67.5928V1.70167H77.6181V4.42342H77.6236ZM96.9817 9.64872C96.7745 8.6997 96.4472 8.01243 95.989 7.58704C95.5309 7.16152 94.9037 6.94882 94.1017 6.94882C93.4801 6.94882 92.9018 7.12332 92.3618 7.47795C91.8218 7.82694 91.4073 8.29067 91.1127 8.86335H91.0855V0.943359H87.8236V22.276H90.6163L90.9599 20.8524H91.031C91.2927 21.3597 91.6854 21.7579 92.209 22.0523C92.7326 22.3469 93.311 22.4942 93.949 22.4942C95.0945 22.4942 95.9345 21.9651 96.4746 20.9123C97.0144 19.8597 97.2818 18.2124 97.2818 15.9706V13.5924C97.2873 11.9124 97.1836 10.5977 96.9817 9.64872ZM93.8781 15.7796C93.8781 16.8761 93.8344 17.7324 93.7418 18.3542C93.6545 18.9761 93.5018 19.4178 93.2891 19.6797C93.0763 19.9415 92.7927 20.0724 92.4327 20.0724C92.1545 20.0724 91.8982 20.007 91.6582 19.8761C91.4236 19.7451 91.2273 19.5488 91.08 19.2869V10.7507C91.1946 10.3415 91.3909 10.0088 91.6692 9.7471C91.9473 9.48522 92.2472 9.35428 92.5745 9.35428C92.9181 9.35428 93.1854 9.49058 93.3709 9.75782C93.5563 10.0252 93.6873 10.4833 93.7635 11.116C93.8346 11.7542 93.8726 12.6597 93.8726 13.8378V15.7796H93.8781Z" fill="#282828"/>
</svg>
