<svg width="104" height="24" viewBox="0 0 104 24" fill="none" xmlns="http://www.w3.org/2000/svg">
<path fill-rule="evenodd" clip-rule="evenodd" d="M82.5765 7.62273C82.9485 8.26455 83.0702 8.99478 83.1104 9.81571L83.1632 10.9099V18.5612L83.2171 19.6566C83.3251 21.4454 84.6443 22.7681 86.4469 22.8806L87.5365 22.9346V10.9099L87.5905 9.81571C87.6352 9.00396 87.7558 8.25996 88.1336 7.61354C88.5185 6.95052 89.071 6.40043 89.7358 6.01851C90.4005 5.63658 91.1541 5.43626 91.9207 5.43765C92.6874 5.43905 93.4401 5.64212 94.1035 6.02646C94.7669 6.41081 95.3174 6.9629 95.6999 7.62732C96.0719 8.26914 96.1879 9.01315 96.2327 9.81571L96.2866 10.9065V18.5612L96.3406 19.6566C96.4531 21.4546 97.762 22.7773 99.5704 22.8806L100.66 22.9346V9.81571C100.66 7.49594 99.7387 5.27113 98.0987 3.63048C96.4586 1.98983 94.2342 1.06767 91.9144 1.06675C90.6728 1.06544 89.4453 1.32911 88.3137 1.84014C87.1821 2.35118 86.1727 3.0978 85.3527 4.03015C84.5324 3.09817 83.5229 2.35172 82.3914 1.84054C81.26 1.32936 80.0326 1.06518 78.791 1.0656C76.9746 1.0656 75.2891 1.61672 73.893 2.56854C73.041 1.61787 71.1351 1.0656 70.0409 1.0656V22.9346L71.1351 22.8806C72.9652 22.76 74.2879 21.473 74.3591 19.6566L74.4177 18.5612V10.9099L74.4716 9.81571C74.5176 8.99019 74.6324 8.26455 75.0055 7.61814C75.3908 6.95553 75.9431 6.40557 76.6073 6.02317C77.2716 5.64078 78.0245 5.43933 78.791 5.43893C79.558 5.4391 80.3116 5.64095 80.976 6.02425C81.6404 6.40754 82.1923 6.9588 82.5765 7.62273ZM7.71317 22.8817L8.80737 22.9346H25.2088L25.1548 21.8438C25.0067 20.0458 23.7334 18.7323 21.9297 18.6152L20.8355 18.5612H10.9958L24.1146 5.43779L24.0606 4.34819C23.9757 2.5318 22.6484 1.21946 20.8355 1.11957L19.7413 1.0702L3.33984 1.0656L3.39381 2.1598C3.53733 3.94059 4.829 5.28164 6.61783 5.38497L7.71317 5.43893H17.5529L4.43404 18.5624L4.488 19.6566C4.59593 21.4592 5.89679 22.7646 7.71317 22.8806V22.8817ZM65.7479 4.26667C66.7635 5.282 67.5691 6.48745 68.1187 7.81417C68.6683 9.14088 68.9512 10.5629 68.9512 11.9989C68.9512 13.435 68.6683 14.857 68.1187 16.1837C67.5691 17.5104 66.7635 18.7159 65.7479 19.7312C63.6962 21.7813 60.9144 22.9329 58.0139 22.9329C55.1135 22.9329 52.3317 21.7813 50.28 19.7312C46.01 15.4612 46.01 8.53666 50.28 4.26667C51.2946 3.25167 52.4992 2.44646 53.825 1.89702C55.1508 1.34759 56.5719 1.06468 58.0071 1.06446C59.4445 1.06346 60.8681 1.34587 62.1964 1.89553C63.5246 2.44519 64.7315 3.25132 65.7479 4.26781V4.26667ZM62.6536 7.36325C63.8836 8.5941 64.5744 10.2629 64.5744 12.0029C64.5744 13.743 63.8836 15.4118 62.6536 16.6427C61.4228 17.8726 59.754 18.5635 58.0139 18.5635C56.2739 18.5635 54.6051 17.8726 53.3742 16.6427C52.1443 15.4118 51.4534 13.743 51.4534 12.0029C51.4534 10.2629 52.1443 8.5941 53.3742 7.36325C54.6051 6.13333 56.2739 5.44245 58.0139 5.44245C59.754 5.44245 61.4228 6.13333 62.6536 7.36325ZM35.0577 1.06446C36.4929 1.06483 37.914 1.34792 39.2399 1.89755C40.5657 2.44719 41.7703 3.25261 42.7848 4.26781C47.0559 8.53666 47.0559 15.4623 42.7848 19.7312C40.733 21.7813 37.9512 22.9329 35.0508 22.9329C32.1504 22.9329 29.3686 21.7813 27.3168 19.7312C23.0468 15.4612 23.0468 8.53666 27.3168 4.26667C28.3314 3.25167 29.536 2.44646 30.8619 1.89702C32.1877 1.34759 33.6088 1.06468 35.0439 1.06446H35.0577ZM39.6905 7.36095C40.9208 8.59185 41.6119 10.2609 41.6119 12.0012C41.6119 13.7415 40.9208 15.4106 39.6905 16.6415C38.4597 17.8714 36.7908 18.5623 35.0508 18.5623C33.3108 18.5623 31.6419 17.8714 30.4111 16.6415C29.1812 15.4107 28.4903 13.7418 28.4903 12.0018C28.4903 10.2618 29.1812 8.59295 30.4111 7.3621C31.6419 6.13218 33.3108 5.4413 35.0508 5.4413C36.7908 5.4413 38.4597 6.13103 39.6905 7.36095Z" fill="#2D8CFF"/>
</svg>
