<svg width="48" height="28" viewBox="0 0 48 28" fill="none" xmlns="http://www.w3.org/2000/svg">
<g id="Group">
<path id="Vector" d="M31.8689 15.713C24.9723 12.9809 23.9325 2.44141 23.9325 2.44141C23.9325 2.44141 22.8909 12.9809 15.9961 15.713C9.0995 18.4451 2.85547 6.34599 2.85547 6.34599L8.45056 27.2941C15.2163 24.302 23.9343 24.0693 23.9343 24.0693C23.9343 24.0693 32.6523 24.302 39.4181 27.2941L45.0131 6.34599C45.0131 6.34599 38.7673 18.4469 31.8707 15.713H31.8689Z" fill="url(#paint0_linear_4781_4825)"/>
<path id="Vector_2" d="M39.6056 27.6903L39.3002 27.5557C32.6617 24.62 24.011 24.3583 23.9237 24.3546C23.8528 24.3565 15.1984 24.62 8.56357 27.5557L8.25819 27.6903L1.896 3.8701L3.10663 6.21504C3.15571 6.31138 8.14003 15.8293 13.9224 15.8293C14.5895 15.8293 15.2511 15.7002 15.8892 15.4475C22.5458 12.8099 23.6365 2.51768 23.6474 2.41406H24.2164C24.2273 2.51768 25.3216 12.8118 31.9746 15.4475C32.6145 15.7002 33.2761 15.8293 33.9414 15.8293C39.7238 15.8293 44.7063 6.30956 44.7572 6.21504L45.9678 3.87192L39.6056 27.6921V27.6903ZM23.9237 23.7839C24.0255 23.7857 32.529 24.0438 39.2239 26.8995L44.1827 8.33456C42.3668 11.2139 38.4659 16.4019 33.9414 16.4019C33.2034 16.4019 32.469 16.2601 31.7637 15.9801C26.474 13.8842 24.5654 7.45294 23.9328 4.27365C23.3002 7.45294 21.3916 13.8842 16.1019 15.9801C15.3947 16.2601 14.6622 16.4019 13.9242 16.4019C9.39974 16.4019 5.49881 11.2139 3.68286 8.33456L8.64173 26.8995C15.3366 24.0438 23.8419 23.7857 23.9273 23.7839H23.9237Z" fill="url(#paint1_linear_4781_4825)"/>
<path id="Vector_3" d="M39.3783 27.3818C32.6889 24.4224 24.0163 24.168 23.9309 24.1643C23.5619 24.1752 15.0675 24.4715 8.48897 27.3818L8.38718 27.4272L2.5376 5.52118L2.94114 6.30283C2.99204 6.39917 8.03817 16.0207 13.9259 16.0207C14.6167 16.0207 15.302 15.888 15.9636 15.6262C22.2458 13.1377 23.6455 3.97789 23.82 2.60547H24.0509C24.2254 3.97789 25.6214 13.1359 31.9073 15.6262C32.569 15.888 33.2542 16.0207 33.945 16.0207C39.8328 16.0207 44.8789 6.39917 44.9298 6.30283L45.3333 5.52118L39.4837 27.4272L39.3819 27.3818H39.3783ZM23.9255 23.9753C24.16 23.9825 32.5599 24.2643 39.1511 27.0764L39.3529 27.1618L44.6589 7.24807L44.0227 8.23331C42.1431 11.2126 38.3331 16.2115 33.9414 16.2115C33.227 16.2115 32.5181 16.0734 31.8328 15.8025C26.7194 13.7775 24.8053 7.68616 24.1181 4.23602H23.7437C23.0566 7.68616 21.1406 13.7757 16.0291 15.8025C15.3438 16.0734 14.6348 16.2115 13.9205 16.2115C9.52874 16.2115 5.71869 11.2126 3.83912 8.23331L3.2338 7.24807L8.50897 27.1618L8.71074 27.0764C15.3274 24.2552 23.6782 23.9825 23.9218 23.9753H23.9255Z" fill="url(#paint2_linear_4781_4825)"/>
<path id="Vector_4" d="M26.3759 2.44309C26.3759 3.79189 25.2816 4.88619 23.9328 4.88619C22.584 4.88619 21.4897 3.79189 21.4897 2.44309C21.4897 1.0943 22.584 0 23.9328 0C25.2816 0 26.3759 1.0943 26.3759 2.44309Z" fill="url(#paint3_radial_4781_4825)"/>
<path id="Vector_5" opacity="0.7" d="M23.5511 3.7418C22.624 3.7418 21.8696 2.98742 21.8696 2.06035C21.8696 1.13328 22.624 0.378906 23.5511 0.378906C24.4781 0.378906 25.2325 1.13328 25.2325 2.06035C25.2325 2.98742 24.4781 3.7418 23.5511 3.7418Z" fill="#FDFDFF"/>
<path id="Vector_6" opacity="0.7" d="M24.6947 3.74194C24.1875 3.74194 23.7749 3.3293 23.7749 2.82214C23.7749 2.31498 24.1875 1.90234 24.6947 1.90234C25.2019 1.90234 25.6145 2.31498 25.6145 2.82214C25.6145 3.3293 25.2019 3.74194 24.6947 3.74194Z" fill="#FDFDFF"/>
<path id="Vector_7" d="M4.7262 4.8846C4.7262 6.18976 3.66826 7.24771 2.3631 7.24771C1.05794 7.24771 0 6.18976 0 4.8846C0 3.57943 1.05794 2.52148 2.3631 2.52148C3.66826 2.52148 4.7262 3.57943 4.7262 4.8846Z" fill="url(#paint4_radial_4781_4825)"/>
<path id="Vector_8" opacity="0.7" d="M2.01402 5.64999C1.33963 5.64999 0.79248 5.10102 0.79248 4.42844C0.79248 3.75586 1.34145 3.20508 2.01402 3.20508C2.68659 3.20508 3.23556 3.75405 3.23556 4.42844C3.23556 5.10284 2.68659 5.64999 2.01402 5.64999Z" fill="#FDFDFF"/>
<path id="Vector_9" opacity="0.7" d="M2.85397 5.34187C2.39044 5.34187 2.01416 4.96559 2.01416 4.50388C2.01416 4.04216 2.39044 3.66406 2.85397 3.66406C3.3175 3.66406 3.69196 4.04034 3.69196 4.50388C3.69196 4.96741 3.31568 5.34187 2.85397 5.34187Z" fill="#FDFDFF"/>
<path id="Vector_10" d="M48.0001 4.8846C48.0001 6.18976 46.9422 7.24771 45.637 7.24771C44.3319 7.24771 43.2739 6.18976 43.2739 4.8846C43.2739 3.57943 44.3319 2.52148 45.637 2.52148C46.9422 2.52148 48.0001 3.57943 48.0001 4.8846Z" fill="url(#paint5_radial_4781_4825)"/>
<path id="Vector_11" opacity="0.7" d="M45.0118 5.58888C44.3719 5.58888 43.8521 5.069 43.8521 4.42914C43.8521 3.78928 44.3719 3.26758 45.0118 3.26758C45.6516 3.26758 46.1715 3.78928 46.1715 4.42914C46.1715 5.069 45.6516 5.58888 45.0118 5.58888Z" fill="#FDFDFF"/>
<path id="Vector_12" opacity="0.7" d="M45.7316 5.72495C45.3208 5.72495 44.9863 5.39048 44.9863 4.97966C44.9863 4.56885 45.3208 4.23438 45.7316 4.23438C46.1424 4.23438 46.4769 4.56885 46.4769 4.97966C46.4769 5.39048 46.1424 5.72495 45.7316 5.72495Z" fill="#FDFDFF"/>
<g id="Group_2">
<path id="Vector_13" d="M23.8965 12.5605C23.8965 12.5605 22.7859 14.6201 20.2773 15.4963C20.2773 15.4963 23.9056 17.6721 23.8965 20.7605C23.8893 17.6721 27.5157 15.4963 27.5157 15.4963C25.0072 14.6201 23.8965 12.5605 23.8965 12.5605Z" fill="url(#paint6_linear_4781_4825)"/>
<path id="Vector_14" d="M23.8968 12.959C23.8968 12.959 22.8934 14.7695 20.6284 15.5402C20.6284 15.5402 23.904 17.4543 23.8968 20.1701C23.8895 17.4543 27.1651 15.5402 27.1651 15.5402C24.9002 14.7695 23.8968 12.959 23.8968 12.959Z" fill="url(#paint7_linear_4781_4825)"/>
<path id="Vector_15" d="M23.8965 18.9185C23.1858 17.437 22.0079 16.2936 21.1826 15.6174C22.4969 14.903 23.3839 13.9396 23.8965 13.2598C24.4092 13.9414 25.2962 14.9049 26.6105 15.6174C25.7852 16.2936 24.6073 17.437 23.8965 18.9185Z" fill="url(#paint8_radial_4781_4825)"/>
<path id="Vector_16" opacity="0.3" d="M23.486 14.0409C23.486 14.0409 23.3533 14.9661 21.6592 15.5424C21.6592 15.5424 23.1479 16.0477 23.486 17.7364V14.0391V14.0409Z" fill="#231F20"/>
<path id="Vector_17" opacity="0.7" d="M23.0767 14.4512C23.0767 14.4512 23.0094 14.922 22.146 15.2165C22.146 15.2165 22.904 15.4746 23.0767 16.3344V14.4512Z" fill="#FDFDFF"/>
<path id="Vector_18" opacity="0.7" d="M23.4854 14.0409C23.4854 14.0409 23.4181 14.5117 22.5547 14.8043C22.5547 14.8043 23.3127 15.0625 23.4854 15.9205V14.0391V14.0409Z" fill="#FDFDFF"/>
<path id="Vector_19" opacity="0.7" d="M23.5018 14.041C23.5018 14.041 23.4673 14.2773 23.0347 14.4264C23.0347 14.4264 23.4164 14.5554 23.5018 14.9863V14.041Z" fill="#FDFDFF"/>
<path id="Vector_20" opacity="0.3" d="M24.1367 14.0409C24.1367 14.0409 24.2694 14.9661 25.9618 15.5424C25.9618 15.5424 24.473 16.0477 24.1367 17.7364V14.0391V14.0409Z" fill="#231F20"/>
<path id="Vector_21" opacity="0.7" d="M24.5474 14.4512C24.5474 14.4512 24.6146 14.922 25.4781 15.2165C25.4781 15.2165 24.7201 15.4746 24.5474 16.3344V14.4512Z" fill="#FDFDFF"/>
<path id="Vector_22" opacity="0.7" d="M24.1367 14.0409C24.1367 14.0409 24.204 14.5117 25.0656 14.8043C25.0656 14.8043 24.3076 15.0625 24.1367 15.9205V14.0391V14.0409Z" fill="#FDFDFF"/>
<path id="Vector_23" opacity="0.7" d="M24.1221 14.041C24.1221 14.041 24.1548 14.2773 24.5892 14.4264C24.5892 14.4264 24.2075 14.5554 24.1221 14.9863V14.041Z" fill="#FDFDFF"/>
</g>
<g id="Group_3">
<path id="Vector_24" d="M16.0309 18.1758C16.0309 18.1758 15.3311 19.4719 13.7515 20.0245C13.7515 20.0245 16.0364 21.3951 16.0309 23.3401C16.0255 21.3951 18.3104 20.0245 18.3104 20.0245C16.7308 19.4719 16.0309 18.1758 16.0309 18.1758Z" fill="url(#paint9_linear_4781_4825)"/>
<path id="Vector_25" d="M16.0309 18.4258C16.0309 18.4258 15.3983 19.5655 13.9731 20.0509C13.9731 20.0509 16.0363 21.2561 16.0309 22.9666C16.0254 21.2561 18.0886 20.0509 18.0886 20.0509C16.6634 19.5655 16.0309 18.4258 16.0309 18.4258Z" fill="url(#paint10_linear_4781_4825)"/>
<path id="Vector_26" d="M16.031 22.1779C15.5838 21.2454 14.8421 20.5256 14.3223 20.0984C15.1494 19.6494 15.7092 19.0423 16.031 18.6133C16.3527 19.0423 16.9126 19.6494 17.7397 20.0984C17.2198 20.5238 16.4781 21.2436 16.031 22.1779Z" fill="url(#paint11_radial_4781_4825)"/>
<path id="Vector_27" opacity="0.3" d="M15.7727 19.1073C15.7727 19.1073 15.6891 19.689 14.6221 20.0525C14.6221 20.0525 15.5582 20.3706 15.7727 21.434V19.1055V19.1073Z" fill="#231F20"/>
<path id="Vector_28" opacity="0.7" d="M15.5145 19.3672C15.5145 19.3672 15.4727 19.6635 14.9292 19.8489C14.9292 19.8489 15.4055 20.0107 15.5145 20.5524V19.3672Z" fill="#FDFDFF"/>
<path id="Vector_29" opacity="0.7" d="M15.7728 19.1094C15.7728 19.1094 15.731 19.4057 15.1875 19.5911C15.1875 19.5911 15.6656 19.7529 15.7728 20.2946V19.1094Z" fill="#FDFDFF"/>
<path id="Vector_30" opacity="0.7" d="M15.7837 19.1073C15.7837 19.1073 15.7619 19.2563 15.4893 19.3491C15.4893 19.3491 15.7292 19.4309 15.7837 19.7017V19.1055V19.1073Z" fill="#FDFDFF"/>
<path id="Vector_31" opacity="0.3" d="M16.1836 19.1073C16.1836 19.1073 16.2672 19.689 17.3342 20.0525C17.3342 20.0525 16.3981 20.3706 16.1836 21.434V19.1055V19.1073Z" fill="#231F20"/>
<path id="Vector_32" opacity="0.7" d="M16.4419 19.3672C16.4419 19.3672 16.4837 19.6635 17.0272 19.8489C17.0272 19.8489 16.5491 20.0107 16.4419 20.5524V19.3672Z" fill="#FDFDFF"/>
<path id="Vector_33" opacity="0.7" d="M16.1836 19.1094C16.1836 19.1094 16.2254 19.4057 16.7689 19.5911C16.7689 19.5911 16.2927 19.7529 16.1836 20.2946V19.1094Z" fill="#FDFDFF"/>
<path id="Vector_34" opacity="0.7" d="M16.1729 19.1073C16.1729 19.1073 16.1947 19.2563 16.4673 19.3491C16.4673 19.3491 16.2274 19.4309 16.1729 19.7017V19.1055V19.1073Z" fill="#FDFDFF"/>
</g>
<g id="Group_4">
<path id="Vector_35" d="M10.4919 22.3301C10.4919 22.3301 10.112 23.0336 9.25586 23.3317C9.25586 23.3317 10.4938 24.0751 10.4919 25.1295C10.4883 24.0751 11.728 23.3317 11.728 23.3317C10.8719 23.0336 10.4919 22.3301 10.4919 22.3301Z" fill="url(#paint12_linear_4781_4825)"/>
<path id="Vector_36" d="M10.4921 22.4668C10.4921 22.4668 10.1503 23.0848 9.37598 23.3484C9.37598 23.3484 10.4939 24.001 10.4921 24.9281C10.4903 24.001 11.6064 23.3484 11.6064 23.3484C10.8338 23.0848 10.4921 22.4668 10.4921 22.4668Z" fill="url(#paint13_linear_4781_4825)"/>
<path id="Vector_37" d="M10.492 24.5007C10.2484 23.9953 9.8467 23.6045 9.56494 23.3736C10.0139 23.1301 10.3157 22.801 10.492 22.5684C10.6665 22.801 10.9701 23.1301 11.4172 23.3736C11.1355 23.6045 10.7338 23.9953 10.492 24.5007Z" fill="url(#paint14_radial_4781_4825)"/>
<path id="Vector_38" opacity="0.3" d="M10.352 22.8359C10.352 22.8359 10.3066 23.1522 9.72852 23.3486C9.72852 23.3486 10.2357 23.5212 10.352 24.0975V22.8359Z" fill="#231F20"/>
<path id="Vector_39" opacity="0.7" d="M10.2122 22.9766C10.2122 22.9766 10.1885 23.1365 9.89404 23.2383C9.89404 23.2383 10.1522 23.3256 10.2122 23.6201V22.9766Z" fill="#FDFDFF"/>
<path id="Vector_40" opacity="0.7" d="M10.3523 22.8359C10.3523 22.8359 10.3287 22.9959 10.0342 23.0959C10.0342 23.0959 10.2923 23.1831 10.3523 23.4776V22.8359Z" fill="#FDFDFF"/>
<path id="Vector_41" opacity="0.7" d="M10.3577 22.8358C10.3577 22.8358 10.3468 22.9176 10.1978 22.9667C10.1978 22.9667 10.3268 23.0103 10.3577 23.1575V22.834V22.8358Z" fill="#FDFDFF"/>
<path id="Vector_42" opacity="0.3" d="M10.5757 22.8359C10.5757 22.8359 10.6211 23.1522 11.1992 23.3486C11.1992 23.3486 10.692 23.5212 10.5757 24.0975V22.8359Z" fill="#231F20"/>
<path id="Vector_43" opacity="0.7" d="M10.7158 22.9766C10.7158 22.9766 10.7395 23.1365 11.0339 23.2383C11.0339 23.2383 10.7758 23.3256 10.7158 23.6201V22.9766Z" fill="#FDFDFF"/>
<path id="Vector_44" opacity="0.7" d="M10.5757 22.8359C10.5757 22.8359 10.5993 22.9959 10.8938 23.0959C10.8938 23.0959 10.6357 23.1831 10.5757 23.4776V22.8359Z" fill="#FDFDFF"/>
<path id="Vector_45" opacity="0.7" d="M10.5703 22.8358C10.5703 22.8358 10.5812 22.9176 10.7303 22.9667C10.7303 22.9667 10.5994 23.0103 10.5703 23.1575V22.834V22.8358Z" fill="#FDFDFF"/>
</g>
<g id="Group_5">
<path id="Vector_46" d="M37.5403 22.3301C37.5403 22.3301 37.1604 23.0336 36.3042 23.3317C36.3042 23.3317 37.5421 24.0751 37.5403 25.1295C37.5366 24.0751 38.7764 23.3317 38.7764 23.3317C37.9202 23.0336 37.5403 22.3301 37.5403 22.3301Z" fill="url(#paint15_linear_4781_4825)"/>
<path id="Vector_47" d="M37.5404 22.4668C37.5404 22.4668 37.1987 23.0848 36.4243 23.3484C36.4243 23.3484 37.5422 24.001 37.5404 24.9281C37.5386 24.001 38.6547 23.3484 38.6547 23.3484C37.8822 23.0848 37.5404 22.4668 37.5404 22.4668Z" fill="url(#paint16_linear_4781_4825)"/>
<path id="Vector_48" d="M37.5403 24.5007C37.2986 23.9953 36.895 23.6045 36.6133 23.3736C37.0623 23.1301 37.364 22.801 37.5403 22.5684C37.7148 22.801 38.0184 23.1301 38.4674 23.3736C38.1857 23.6045 37.7839 23.9953 37.5403 24.5007Z" fill="url(#paint17_radial_4781_4825)"/>
<path id="Vector_49" opacity="0.3" d="M37.4003 22.8359C37.4003 22.8359 37.3549 23.1522 36.7769 23.3486C36.7769 23.3486 37.284 23.5212 37.4003 24.0975V22.8359Z" fill="#231F20"/>
<path id="Vector_50" opacity="0.7" d="M37.2605 22.9766C37.2605 22.9766 37.2369 23.1365 36.9424 23.2383C36.9424 23.2383 37.2005 23.3256 37.2605 23.6201V22.9766Z" fill="#FDFDFF"/>
<path id="Vector_51" opacity="0.7" d="M37.4006 22.8359C37.4006 22.8359 37.377 22.9959 37.0825 23.0959C37.0825 23.0959 37.3406 23.1831 37.4006 23.4776V22.8359Z" fill="#FDFDFF"/>
<path id="Vector_52" opacity="0.7" d="M37.4061 22.8358C37.4061 22.8358 37.3952 22.9176 37.2461 22.9667C37.2461 22.9667 37.377 23.0103 37.4061 23.1575V22.834V22.8358Z" fill="#FDFDFF"/>
<path id="Vector_53" opacity="0.3" d="M37.624 22.8359C37.624 22.8359 37.6695 23.1522 38.2475 23.3486C38.2475 23.3486 37.7404 23.5212 37.624 24.0975V22.8359Z" fill="#231F20"/>
<path id="Vector_54" opacity="0.7" d="M37.7642 22.9766C37.7642 22.9766 37.7878 23.1365 38.0823 23.2383C38.0823 23.2383 37.8241 23.3256 37.7642 23.6201V22.9766Z" fill="#FDFDFF"/>
<path id="Vector_55" opacity="0.7" d="M37.624 22.8359C37.624 22.8359 37.6477 22.9959 37.9421 23.0959C37.9421 23.0959 37.684 23.1831 37.624 23.4776V22.8359Z" fill="#FDFDFF"/>
<path id="Vector_56" opacity="0.7" d="M37.6187 22.8358C37.6187 22.8358 37.6296 22.9176 37.7786 22.9667C37.7786 22.9667 37.6477 23.0103 37.6187 23.1575V22.834V22.8358Z" fill="#FDFDFF"/>
</g>
<g id="Group_6">
<path id="Vector_57" d="M20.2862 17.3652C20.2862 17.3652 19.999 17.8978 19.3501 18.1251C19.3501 18.1251 20.2881 18.6886 20.2862 19.4884C20.2844 18.6886 21.2224 18.1251 21.2224 18.1251C20.5735 17.8997 20.2862 17.3652 20.2862 17.3652Z" fill="url(#paint18_linear_4781_4825)"/>
<path id="Vector_58" d="M20.2862 17.4688C20.2862 17.4688 20.0262 17.9377 19.4409 18.1377C19.4409 18.1377 20.288 18.6321 20.2862 19.3356C20.2844 18.6321 21.1314 18.1377 21.1314 18.1377C20.5461 17.9377 20.2862 17.4688 20.2862 17.4688Z" fill="url(#paint19_linear_4781_4825)"/>
<path id="Vector_59" d="M20.2861 19.012C20.1025 18.6285 19.7972 18.3322 19.5845 18.1576C19.9244 17.9722 20.1534 17.7232 20.2861 17.5469C20.4188 17.7232 20.6479 17.9722 20.9878 18.1576C20.7733 18.3322 20.4697 18.6285 20.2861 19.012Z" fill="url(#paint20_radial_4781_4825)"/>
<path id="Vector_60" opacity="0.3" d="M20.1806 17.748C20.1806 17.748 20.1461 17.988 19.708 18.1371C19.708 18.1371 20.0934 18.2679 20.1806 18.706V17.748Z" fill="#231F20"/>
<path id="Vector_61" opacity="0.7" d="M20.0753 17.8535C20.0753 17.8535 20.0571 17.9753 19.8335 18.0517C19.8335 18.0517 20.0298 18.1189 20.0753 18.3407V17.8535Z" fill="#FDFDFF"/>
<path id="Vector_62" opacity="0.7" d="M20.1809 17.748C20.1809 17.748 20.1627 17.8698 19.9409 17.9462C19.9409 17.9462 20.1372 18.0134 20.1809 18.2352V17.748Z" fill="#FDFDFF"/>
<path id="Vector_63" opacity="0.7" d="M20.1843 17.748C20.1843 17.748 20.1752 17.8099 20.0625 17.848C20.0625 17.848 20.1607 17.8807 20.1843 17.9934V17.748Z" fill="#FDFDFF"/>
<path id="Vector_64" opacity="0.3" d="M20.3501 17.748C20.3501 17.748 20.3846 17.988 20.8227 18.1371C20.8227 18.1371 20.4374 18.2679 20.3501 18.706V17.748Z" fill="#231F20"/>
<path id="Vector_65" opacity="0.7" d="M20.4551 17.8535C20.4551 17.8535 20.4714 17.9753 20.695 18.0517C20.695 18.0517 20.4987 18.1189 20.4551 18.3407V17.8535Z" fill="#FDFDFF"/>
<path id="Vector_66" opacity="0.7" d="M20.3501 17.748C20.3501 17.748 20.3683 17.8698 20.59 17.9462C20.59 17.9462 20.3937 18.0134 20.3501 18.2352V17.748Z" fill="#FDFDFF"/>
<path id="Vector_67" opacity="0.7" d="M20.3442 17.748C20.3442 17.748 20.3533 17.8099 20.466 17.848C20.466 17.848 20.3679 17.8807 20.3442 17.9934V17.748Z" fill="#FDFDFF"/>
</g>
<g id="Group_7">
<path id="Vector_68" d="M27.5826 17.3652C27.5826 17.3652 27.2954 17.8978 26.6465 18.1251C26.6465 18.1251 27.5863 18.6886 27.5826 19.4884C27.5808 18.6886 28.5188 18.1251 28.5188 18.1251C27.8698 17.8997 27.5826 17.3652 27.5826 17.3652Z" fill="url(#paint21_linear_4781_4825)"/>
<path id="Vector_69" d="M27.5826 17.4688C27.5826 17.4688 27.3226 17.9377 26.7373 18.1377C26.7373 18.1377 27.5844 18.6321 27.5826 19.3356C27.5807 18.6321 28.4278 18.1377 28.4278 18.1377C27.8425 17.9377 27.5826 17.4688 27.5826 17.4688Z" fill="url(#paint22_linear_4781_4825)"/>
<path id="Vector_70" d="M27.5825 19.012C27.3989 18.6285 27.0935 18.3322 26.8809 18.1576C27.2208 17.9722 27.4498 17.7232 27.5825 17.5469C27.7152 17.7232 27.9443 17.9722 28.286 18.1576C28.0715 18.3322 27.7679 18.6285 27.5825 19.012Z" fill="url(#paint23_radial_4781_4825)"/>
<path id="Vector_71" opacity="0.3" d="M27.4775 17.748C27.4775 17.748 27.443 17.988 27.0049 18.1371C27.0049 18.1371 27.3902 18.2679 27.4775 18.706V17.748Z" fill="#231F20"/>
<path id="Vector_72" opacity="0.7" d="M27.3716 17.8535C27.3716 17.8535 27.3535 17.9753 27.1299 18.0517C27.1299 18.0517 27.3262 18.1189 27.3716 18.3407V17.8535Z" fill="#FDFDFF"/>
<path id="Vector_73" opacity="0.7" d="M27.4771 17.748C27.4771 17.748 27.4589 17.8698 27.2354 17.9462C27.2354 17.9462 27.4317 18.0134 27.4771 18.2352V17.748Z" fill="#FDFDFF"/>
<path id="Vector_74" opacity="0.7" d="M27.4812 17.748C27.4812 17.748 27.4721 17.8099 27.3594 17.848C27.3594 17.848 27.4575 17.8807 27.4812 17.9934V17.748Z" fill="#FDFDFF"/>
<path id="Vector_75" opacity="0.3" d="M27.6465 17.748C27.6465 17.748 27.681 17.988 28.1191 18.1371C28.1191 18.1371 27.7337 18.2679 27.6465 18.706V17.748Z" fill="#231F20"/>
<path id="Vector_76" opacity="0.7" d="M27.752 17.8535C27.752 17.8535 27.7683 17.9753 27.9919 18.0517C27.9919 18.0517 27.7956 18.1189 27.752 18.3407V17.8535Z" fill="#FDFDFF"/>
<path id="Vector_77" opacity="0.7" d="M27.6465 17.748C27.6465 17.748 27.6628 17.8698 27.8864 17.9462C27.8864 17.9462 27.6901 18.0134 27.6465 18.2352V17.748Z" fill="#FDFDFF"/>
<path id="Vector_78" opacity="0.7" d="M27.6411 17.748C27.6411 17.748 27.6502 17.8099 27.7629 17.848C27.7629 17.848 27.6647 17.8807 27.6411 17.9934V17.748Z" fill="#FDFDFF"/>
</g>
<g id="Group_8">
<path id="Vector_79" d="M31.6511 18.1758C31.6511 18.1758 30.9512 19.4719 29.3716 20.0245C29.3716 20.0245 31.6565 21.3951 31.6511 23.3401C31.6456 21.3951 33.9305 20.0245 33.9305 20.0245C32.3509 19.4719 31.6511 18.1758 31.6511 18.1758Z" fill="url(#paint24_linear_4781_4825)"/>
<path id="Vector_80" d="M31.651 18.4258C31.651 18.4258 31.0184 19.5655 29.5933 20.0509C29.5933 20.0509 31.6564 21.2561 31.651 22.9666C31.6455 21.2561 33.7087 20.0509 33.7087 20.0509C32.2836 19.5655 31.651 18.4258 31.651 18.4258Z" fill="url(#paint25_linear_4781_4825)"/>
<path id="Vector_81" d="M31.6511 22.1779C31.2039 21.2454 30.4623 20.5256 29.9424 20.0984C30.7695 19.6494 31.3293 19.0423 31.6511 18.6133C31.9728 19.0423 32.5327 19.6494 33.3598 20.0984C32.8399 20.5238 32.0983 21.2436 31.6511 22.1779Z" fill="url(#paint26_radial_4781_4825)"/>
<path id="Vector_82" opacity="0.3" d="M31.3928 19.1073C31.3928 19.1073 31.3092 19.689 30.2422 20.0525C30.2422 20.0525 31.1783 20.3706 31.3928 21.434V19.1055V19.1073Z" fill="#231F20"/>
<path id="Vector_83" opacity="0.7" d="M31.1351 19.3672C31.1351 19.3672 31.0933 19.6635 30.5498 19.8489C30.5498 19.8489 31.0261 20.0107 31.1351 20.5524V19.3672Z" fill="#FDFDFF"/>
<path id="Vector_84" opacity="0.7" d="M31.3929 19.1094C31.3929 19.1094 31.3511 19.4057 30.8076 19.5911C30.8076 19.5911 31.2857 19.7529 31.3929 20.2946V19.1094Z" fill="#FDFDFF"/>
<path id="Vector_85" opacity="0.7" d="M31.4024 19.1073C31.4024 19.1073 31.3806 19.2563 31.1079 19.3491C31.1079 19.3491 31.3479 19.4309 31.4024 19.7017V19.1055V19.1073Z" fill="#FDFDFF"/>
<path id="Vector_86" opacity="0.3" d="M31.8022 19.1073C31.8022 19.1073 31.8859 19.689 32.9511 20.0525C32.9511 20.0525 32.0149 20.3706 31.8022 21.434V19.1055V19.1073Z" fill="#231F20"/>
<path id="Vector_87" opacity="0.7" d="M32.0601 19.3672C32.0601 19.3672 32.1019 19.6635 32.6454 19.8489C32.6454 19.8489 32.1673 20.0107 32.0601 20.5524V19.3672Z" fill="#FDFDFF"/>
<path id="Vector_88" opacity="0.7" d="M31.8022 19.1094C31.8022 19.1094 31.8441 19.4057 32.3876 19.5911C32.3876 19.5911 31.9113 19.7529 31.8022 20.2946V19.1094Z" fill="#FDFDFF"/>
<path id="Vector_89" opacity="0.7" d="M31.793 19.1073C31.793 19.1073 31.8148 19.2563 32.0874 19.3491C32.0874 19.3491 31.8475 19.4309 31.793 19.7017V19.1055V19.1073Z" fill="#FDFDFF"/>
</g>
</g>
<defs>
<linearGradient id="paint0_linear_4781_4825" x1="2.85365" y1="14.8677" x2="45.0113" y2="14.8677" gradientUnits="userSpaceOnUse">
<stop stop-color="#DB9C03"/>
<stop offset="0.09" stop-color="#E0A505"/>
<stop offset="0.24" stop-color="#F0BD0B"/>
<stop offset="0.34" stop-color="#FED211"/>
<stop offset="0.39" stop-color="#FED626"/>
<stop offset="0.47" stop-color="#FEE35D"/>
<stop offset="0.55" stop-color="#FEF092"/>
<stop offset="0.63" stop-color="#FEE464"/>
<stop offset="0.7" stop-color="#FEDC3F"/>
<stop offset="0.74" stop-color="#FED932"/>
<stop offset="0.85" stop-color="#E9B718"/>
<stop offset="0.94" stop-color="#DDA308"/>
<stop offset="1" stop-color="#D99C03"/>
</linearGradient>
<linearGradient id="paint1_linear_4781_4825" x1="23.891" y1="0.399965" x2="24.1873" y2="25.2599" gradientUnits="userSpaceOnUse">
<stop stop-color="#DB9C03"/>
<stop offset="0.09" stop-color="#E0A505"/>
<stop offset="0.24" stop-color="#F0BD0B"/>
<stop offset="0.34" stop-color="#FED211"/>
<stop offset="0.39" stop-color="#FED626"/>
<stop offset="0.47" stop-color="#FEE35D"/>
<stop offset="0.55" stop-color="#FEF092"/>
<stop offset="0.63" stop-color="#FEE464"/>
<stop offset="0.7" stop-color="#FEDC3F"/>
<stop offset="0.74" stop-color="#FED932"/>
<stop offset="0.85" stop-color="#E9B718"/>
<stop offset="0.94" stop-color="#DDA308"/>
<stop offset="1" stop-color="#D99C03"/>
</linearGradient>
<linearGradient id="paint2_linear_4781_4825" x1="6.71119" y1="13.7975" x2="42.0359" y2="18.3237" gradientUnits="userSpaceOnUse">
<stop stop-color="#DB9C03"/>
<stop offset="0.09" stop-color="#E0A505"/>
<stop offset="0.24" stop-color="#F0BD0B"/>
<stop offset="0.34" stop-color="#FED211"/>
<stop offset="0.39" stop-color="#FED626"/>
<stop offset="0.47" stop-color="#FEE35D"/>
<stop offset="0.55" stop-color="#FEF092"/>
<stop offset="0.63" stop-color="#FEE464"/>
<stop offset="0.7" stop-color="#FEDC3F"/>
<stop offset="0.74" stop-color="#FED932"/>
<stop offset="0.85" stop-color="#E9B718"/>
<stop offset="0.94" stop-color="#DDA308"/>
<stop offset="1" stop-color="#D99C03"/>
</linearGradient>
<radialGradient id="paint3_radial_4781_4825" cx="0" cy="0" r="1" gradientUnits="userSpaceOnUse" gradientTransform="translate(24.8762 -0.888893) scale(6.27312 6.27315)">
<stop stop-color="#DB9C03"/>
<stop offset="0.09" stop-color="#E0A505"/>
<stop offset="0.24" stop-color="#F0BD0B"/>
<stop offset="0.34" stop-color="#FED211"/>
<stop offset="0.39" stop-color="#FED626"/>
<stop offset="0.47" stop-color="#FEE35D"/>
<stop offset="0.55" stop-color="#FEF092"/>
<stop offset="0.63" stop-color="#FEE464"/>
<stop offset="0.7" stop-color="#FEDC3F"/>
<stop offset="0.74" stop-color="#FED932"/>
<stop offset="0.85" stop-color="#E9B718"/>
<stop offset="0.94" stop-color="#DDA308"/>
<stop offset="1" stop-color="#D99C03"/>
</radialGradient>
<radialGradient id="paint4_radial_4781_4825" cx="0" cy="0" r="1" gradientUnits="userSpaceOnUse" gradientTransform="translate(0.810725 2.27608) scale(5.2279 5.22793)">
<stop stop-color="#DB9C03"/>
<stop offset="0.09" stop-color="#E0A505"/>
<stop offset="0.24" stop-color="#F0BD0B"/>
<stop offset="0.34" stop-color="#FED211"/>
<stop offset="0.39" stop-color="#FED626"/>
<stop offset="0.47" stop-color="#FEE35D"/>
<stop offset="0.55" stop-color="#FEF092"/>
<stop offset="0.63" stop-color="#FEE464"/>
<stop offset="0.7" stop-color="#FEDC3F"/>
<stop offset="0.74" stop-color="#FED932"/>
<stop offset="0.85" stop-color="#E9B718"/>
<stop offset="0.94" stop-color="#DDA308"/>
<stop offset="1" stop-color="#D99C03"/>
</radialGradient>
<radialGradient id="paint5_radial_4781_4825" cx="0" cy="0" r="1" gradientUnits="userSpaceOnUse" gradientTransform="translate(47.1985 2.11794) scale(5.80595 5.80598)">
<stop stop-color="#DB9C03"/>
<stop offset="0.09" stop-color="#E0A505"/>
<stop offset="0.24" stop-color="#F0BD0B"/>
<stop offset="0.34" stop-color="#FED211"/>
<stop offset="0.39" stop-color="#FED626"/>
<stop offset="0.47" stop-color="#FEE35D"/>
<stop offset="0.55" stop-color="#FEF092"/>
<stop offset="0.63" stop-color="#FEE464"/>
<stop offset="0.7" stop-color="#FEDC3F"/>
<stop offset="0.74" stop-color="#FED932"/>
<stop offset="0.85" stop-color="#E9B718"/>
<stop offset="0.94" stop-color="#DDA308"/>
<stop offset="1" stop-color="#D99C03"/>
</radialGradient>
<linearGradient id="paint6_linear_4781_4825" x1="23.862" y1="12.6823" x2="23.9438" y2="19.4245" gradientUnits="userSpaceOnUse">
<stop stop-color="#DB9C03"/>
<stop offset="0.09" stop-color="#E0A505"/>
<stop offset="0.24" stop-color="#F0BD0B"/>
<stop offset="0.34" stop-color="#FED211"/>
<stop offset="0.39" stop-color="#FED626"/>
<stop offset="0.47" stop-color="#FEE35D"/>
<stop offset="0.55" stop-color="#FEF092"/>
<stop offset="0.63" stop-color="#FEE464"/>
<stop offset="0.7" stop-color="#FEDC3F"/>
<stop offset="0.74" stop-color="#FED932"/>
<stop offset="0.85" stop-color="#E9B718"/>
<stop offset="0.94" stop-color="#DDA308"/>
<stop offset="1" stop-color="#D99C03"/>
</linearGradient>
<linearGradient id="paint7_linear_4781_4825" x1="28.6121" y1="16.5491" x2="19.0524" y2="16.5818" gradientUnits="userSpaceOnUse">
<stop stop-color="#DB9C03"/>
<stop offset="0.09" stop-color="#E0A505"/>
<stop offset="0.24" stop-color="#F0BD0B"/>
<stop offset="0.34" stop-color="#FED211"/>
<stop offset="0.39" stop-color="#FED626"/>
<stop offset="0.47" stop-color="#FEE35D"/>
<stop offset="0.55" stop-color="#FEF092"/>
<stop offset="0.63" stop-color="#FEE464"/>
<stop offset="0.7" stop-color="#FEDC3F"/>
<stop offset="0.74" stop-color="#FED932"/>
<stop offset="0.85" stop-color="#E9B718"/>
<stop offset="0.94" stop-color="#DDA308"/>
<stop offset="1" stop-color="#D99C03"/>
</linearGradient>
<radialGradient id="paint8_radial_4781_4825" cx="0" cy="0" r="1" gradientUnits="userSpaceOnUse" gradientTransform="translate(23.2312 15.5185) scale(2.65031 2.78284)">
<stop stop-color="#F7975B"/>
<stop offset="0.31" stop-color="#E4834C"/>
<stop offset="0.93" stop-color="#B35227"/>
<stop offset="1" stop-color="#AE4D23"/>
</radialGradient>
<linearGradient id="paint9_linear_4781_4825" x1="16.0091" y1="18.2521" x2="16.0618" y2="22.4985" gradientUnits="userSpaceOnUse">
<stop stop-color="#DB9C03"/>
<stop offset="0.09" stop-color="#E0A505"/>
<stop offset="0.24" stop-color="#F0BD0B"/>
<stop offset="0.34" stop-color="#FED211"/>
<stop offset="0.39" stop-color="#FED626"/>
<stop offset="0.47" stop-color="#FEE35D"/>
<stop offset="0.55" stop-color="#FEF092"/>
<stop offset="0.63" stop-color="#FEE464"/>
<stop offset="0.7" stop-color="#FEDC3F"/>
<stop offset="0.74" stop-color="#FED932"/>
<stop offset="0.85" stop-color="#E9B718"/>
<stop offset="0.94" stop-color="#DDA308"/>
<stop offset="1" stop-color="#D99C03"/>
</linearGradient>
<linearGradient id="paint10_linear_4781_4825" x1="19.0011" y1="20.6871" x2="12.9806" y2="20.7071" gradientUnits="userSpaceOnUse">
<stop stop-color="#DB9C03"/>
<stop offset="0.09" stop-color="#E0A505"/>
<stop offset="0.24" stop-color="#F0BD0B"/>
<stop offset="0.34" stop-color="#FED211"/>
<stop offset="0.39" stop-color="#FED626"/>
<stop offset="0.47" stop-color="#FEE35D"/>
<stop offset="0.55" stop-color="#FEF092"/>
<stop offset="0.63" stop-color="#FEE464"/>
<stop offset="0.7" stop-color="#FEDC3F"/>
<stop offset="0.74" stop-color="#FED932"/>
<stop offset="0.85" stop-color="#E9B718"/>
<stop offset="0.94" stop-color="#DDA308"/>
<stop offset="1" stop-color="#D99C03"/>
</linearGradient>
<radialGradient id="paint11_radial_4781_4825" cx="0" cy="0" r="1" gradientUnits="userSpaceOnUse" gradientTransform="translate(15.6129 20.1073) scale(1.66871 1.75216)">
<stop stop-color="#F7975B"/>
<stop offset="0.31" stop-color="#E4834C"/>
<stop offset="0.93" stop-color="#B35227"/>
<stop offset="1" stop-color="#AE4D23"/>
</radialGradient>
<linearGradient id="paint12_linear_4781_4825" x1="10.481" y1="22.3719" x2="10.5083" y2="24.6732" gradientUnits="userSpaceOnUse">
<stop stop-color="#DB9C03"/>
<stop offset="0.09" stop-color="#E0A505"/>
<stop offset="0.24" stop-color="#F0BD0B"/>
<stop offset="0.34" stop-color="#FED211"/>
<stop offset="0.39" stop-color="#FED626"/>
<stop offset="0.47" stop-color="#FEE35D"/>
<stop offset="0.55" stop-color="#FEF092"/>
<stop offset="0.63" stop-color="#FEE464"/>
<stop offset="0.7" stop-color="#FEDC3F"/>
<stop offset="0.74" stop-color="#FED932"/>
<stop offset="0.85" stop-color="#E9B718"/>
<stop offset="0.94" stop-color="#DDA308"/>
<stop offset="1" stop-color="#D99C03"/>
</linearGradient>
<linearGradient id="paint13_linear_4781_4825" x1="12.1026" y1="23.692" x2="8.83974" y2="23.7029" gradientUnits="userSpaceOnUse">
<stop stop-color="#DB9C03"/>
<stop offset="0.09" stop-color="#E0A505"/>
<stop offset="0.24" stop-color="#F0BD0B"/>
<stop offset="0.34" stop-color="#FED211"/>
<stop offset="0.39" stop-color="#FED626"/>
<stop offset="0.47" stop-color="#FEE35D"/>
<stop offset="0.55" stop-color="#FEF092"/>
<stop offset="0.63" stop-color="#FEE464"/>
<stop offset="0.7" stop-color="#FEDC3F"/>
<stop offset="0.74" stop-color="#FED932"/>
<stop offset="0.85" stop-color="#E9B718"/>
<stop offset="0.94" stop-color="#DDA308"/>
<stop offset="1" stop-color="#D99C03"/>
</linearGradient>
<radialGradient id="paint14_radial_4781_4825" cx="0" cy="0" r="1" gradientUnits="userSpaceOnUse" gradientTransform="translate(10.2648 23.4623) scale(0.90343 0.948608)">
<stop stop-color="#3BB5CD"/>
<stop offset="1" stop-color="#014753"/>
</radialGradient>
<linearGradient id="paint15_linear_4781_4825" x1="37.5294" y1="22.3719" x2="37.5566" y2="24.6732" gradientUnits="userSpaceOnUse">
<stop stop-color="#DB9C03"/>
<stop offset="0.09" stop-color="#E0A505"/>
<stop offset="0.24" stop-color="#F0BD0B"/>
<stop offset="0.34" stop-color="#FED211"/>
<stop offset="0.39" stop-color="#FED626"/>
<stop offset="0.47" stop-color="#FEE35D"/>
<stop offset="0.55" stop-color="#FEF092"/>
<stop offset="0.63" stop-color="#FEE464"/>
<stop offset="0.7" stop-color="#FEDC3F"/>
<stop offset="0.74" stop-color="#FED932"/>
<stop offset="0.85" stop-color="#E9B718"/>
<stop offset="0.94" stop-color="#DDA308"/>
<stop offset="1" stop-color="#D99C03"/>
</linearGradient>
<linearGradient id="paint16_linear_4781_4825" x1="39.151" y1="23.692" x2="35.8881" y2="23.7029" gradientUnits="userSpaceOnUse">
<stop stop-color="#DB9C03"/>
<stop offset="0.09" stop-color="#E0A505"/>
<stop offset="0.24" stop-color="#F0BD0B"/>
<stop offset="0.34" stop-color="#FED211"/>
<stop offset="0.39" stop-color="#FED626"/>
<stop offset="0.47" stop-color="#FEE35D"/>
<stop offset="0.55" stop-color="#FEF092"/>
<stop offset="0.63" stop-color="#FEE464"/>
<stop offset="0.7" stop-color="#FEDC3F"/>
<stop offset="0.74" stop-color="#FED932"/>
<stop offset="0.85" stop-color="#E9B718"/>
<stop offset="0.94" stop-color="#DDA308"/>
<stop offset="1" stop-color="#D99C03"/>
</linearGradient>
<radialGradient id="paint17_radial_4781_4825" cx="0" cy="0" r="1" gradientUnits="userSpaceOnUse" gradientTransform="translate(37.3131 -20.8284) scale(0.903431 0.948608)">
<stop stop-color="#3BB5CD"/>
<stop offset="1" stop-color="#014753"/>
</radialGradient>
<linearGradient id="paint18_linear_4781_4825" x1="20.2772" y1="17.398" x2="20.299" y2="19.143" gradientUnits="userSpaceOnUse">
<stop stop-color="#DB9C03"/>
<stop offset="0.09" stop-color="#E0A505"/>
<stop offset="0.24" stop-color="#F0BD0B"/>
<stop offset="0.34" stop-color="#FED211"/>
<stop offset="0.39" stop-color="#FED626"/>
<stop offset="0.47" stop-color="#FEE35D"/>
<stop offset="0.55" stop-color="#FEF092"/>
<stop offset="0.63" stop-color="#FEE464"/>
<stop offset="0.7" stop-color="#FEDC3F"/>
<stop offset="0.74" stop-color="#FED932"/>
<stop offset="0.85" stop-color="#E9B718"/>
<stop offset="0.94" stop-color="#DDA308"/>
<stop offset="1" stop-color="#D99C03"/>
</linearGradient>
<linearGradient id="paint19_linear_4781_4825" x1="21.5077" y1="18.3976" x2="19.0319" y2="18.4067" gradientUnits="userSpaceOnUse">
<stop stop-color="#DB9C03"/>
<stop offset="0.09" stop-color="#E0A505"/>
<stop offset="0.24" stop-color="#F0BD0B"/>
<stop offset="0.34" stop-color="#FED211"/>
<stop offset="0.39" stop-color="#FED626"/>
<stop offset="0.47" stop-color="#FEE35D"/>
<stop offset="0.55" stop-color="#FEF092"/>
<stop offset="0.63" stop-color="#FEE464"/>
<stop offset="0.7" stop-color="#FEDC3F"/>
<stop offset="0.74" stop-color="#FED932"/>
<stop offset="0.85" stop-color="#E9B718"/>
<stop offset="0.94" stop-color="#DDA308"/>
<stop offset="1" stop-color="#D99C03"/>
</linearGradient>
<radialGradient id="paint20_radial_4781_4825" cx="0" cy="0" r="1" gradientUnits="userSpaceOnUse" gradientTransform="translate(20.1153 18.2451) scale(0.685299 0.719567)">
<stop stop-color="#3BB5CD"/>
<stop offset="1" stop-color="#014753"/>
</radialGradient>
<linearGradient id="paint21_linear_4781_4825" x1="27.5754" y1="17.398" x2="27.5954" y2="19.143" gradientUnits="userSpaceOnUse">
<stop stop-color="#DB9C03"/>
<stop offset="0.09" stop-color="#E0A505"/>
<stop offset="0.24" stop-color="#F0BD0B"/>
<stop offset="0.34" stop-color="#FED211"/>
<stop offset="0.39" stop-color="#FED626"/>
<stop offset="0.47" stop-color="#FEE35D"/>
<stop offset="0.55" stop-color="#FEF092"/>
<stop offset="0.63" stop-color="#FEE464"/>
<stop offset="0.7" stop-color="#FEDC3F"/>
<stop offset="0.74" stop-color="#FED932"/>
<stop offset="0.85" stop-color="#E9B718"/>
<stop offset="0.94" stop-color="#DDA308"/>
<stop offset="1" stop-color="#D99C03"/>
</linearGradient>
<linearGradient id="paint22_linear_4781_4825" x1="28.8041" y1="18.3976" x2="26.3283" y2="18.4067" gradientUnits="userSpaceOnUse">
<stop stop-color="#DB9C03"/>
<stop offset="0.09" stop-color="#E0A505"/>
<stop offset="0.24" stop-color="#F0BD0B"/>
<stop offset="0.34" stop-color="#FED211"/>
<stop offset="0.39" stop-color="#FED626"/>
<stop offset="0.47" stop-color="#FEE35D"/>
<stop offset="0.55" stop-color="#FEF092"/>
<stop offset="0.63" stop-color="#FEE464"/>
<stop offset="0.7" stop-color="#FEDC3F"/>
<stop offset="0.74" stop-color="#FED932"/>
<stop offset="0.85" stop-color="#E9B718"/>
<stop offset="0.94" stop-color="#DDA308"/>
<stop offset="1" stop-color="#D99C03"/>
</linearGradient>
<radialGradient id="paint23_radial_4781_4825" cx="0" cy="0" r="1" gradientUnits="userSpaceOnUse" gradientTransform="translate(27.4116 18.2451) scale(0.685298 0.719567)">
<stop stop-color="#3BB5CD"/>
<stop offset="1" stop-color="#014753"/>
</radialGradient>
<linearGradient id="paint24_linear_4781_4825" x1="31.6293" y1="18.2521" x2="31.6801" y2="22.4985" gradientUnits="userSpaceOnUse">
<stop stop-color="#DB9C03"/>
<stop offset="0.09" stop-color="#E0A505"/>
<stop offset="0.24" stop-color="#F0BD0B"/>
<stop offset="0.34" stop-color="#FED211"/>
<stop offset="0.39" stop-color="#FED626"/>
<stop offset="0.47" stop-color="#FEE35D"/>
<stop offset="0.55" stop-color="#FEF092"/>
<stop offset="0.63" stop-color="#FEE464"/>
<stop offset="0.7" stop-color="#FEDC3F"/>
<stop offset="0.74" stop-color="#FED932"/>
<stop offset="0.85" stop-color="#E9B718"/>
<stop offset="0.94" stop-color="#DDA308"/>
<stop offset="1" stop-color="#D99C03"/>
</linearGradient>
<linearGradient id="paint25_linear_4781_4825" x1="34.6194" y1="20.6871" x2="28.6008" y2="20.7071" gradientUnits="userSpaceOnUse">
<stop stop-color="#DB9C03"/>
<stop offset="0.09" stop-color="#E0A505"/>
<stop offset="0.24" stop-color="#F0BD0B"/>
<stop offset="0.34" stop-color="#FED211"/>
<stop offset="0.39" stop-color="#FED626"/>
<stop offset="0.47" stop-color="#FEE35D"/>
<stop offset="0.55" stop-color="#FEF092"/>
<stop offset="0.63" stop-color="#FEE464"/>
<stop offset="0.7" stop-color="#FEDC3F"/>
<stop offset="0.74" stop-color="#FED932"/>
<stop offset="0.85" stop-color="#E9B718"/>
<stop offset="0.94" stop-color="#DDA308"/>
<stop offset="1" stop-color="#D99C03"/>
</linearGradient>
<radialGradient id="paint26_radial_4781_4825" cx="0" cy="0" r="1" gradientUnits="userSpaceOnUse" gradientTransform="translate(31.2312 20.1073) scale(1.66871 1.75216)">
<stop stop-color="#F7975B"/>
<stop offset="0.31" stop-color="#E4834C"/>
<stop offset="0.93" stop-color="#B35227"/>
<stop offset="1" stop-color="#AE4D23"/>
</radialGradient>
</defs>
</svg>
