<svg width="400" height="400" viewBox="0 0 400 400" fill="none" xmlns="http://www.w3.org/2000/svg">
<g clip-path="url(#clip0_1763_19133)">
<path d="M313.368 302.582C307.338 308.93 301.632 313.024 297.124 316.258C244.137 354.278 181.438 343.195 168.113 340.489C148.436 336.492 110.4 328.767 82.9013 296.428C41.2981 247.503 47.7757 170.423 80.0463 119.541C85.9493 110.234 117.13 58.5772 180.503 50.2926C218.857 45.2791 263.564 55.3902 295.941 82.5158C363.901 139.453 359.063 254.476 313.368 302.582Z" fill="#FEF7EE"/>
<path d="M319.668 83.9505C319.568 84.0367 319.428 84.0734 319.29 84.0367C318.759 83.8933 318.224 83.7607 317.699 83.6421C317.476 83.5915 317.336 83.3704 317.387 83.1472C317.437 82.9241 317.658 82.7839 317.881 82.8346C318.417 82.9553 318.964 83.0912 319.505 83.2378C319.726 83.2971 319.857 83.5246 319.796 83.7456C319.774 83.8286 319.727 83.8987 319.667 83.9516L319.668 83.9505Z" fill="#FAD6AE"/>
<path d="M335.151 152.279C334.418 152.91 333.654 153.52 332.88 154.093C332.696 154.229 332.437 154.19 332.301 154.007C332.165 153.823 332.199 153.566 332.387 153.428C333.279 152.768 334.152 152.059 334.989 151.323C334.99 151.322 334.991 151.321 334.993 151.32C335.164 151.172 335.423 151.189 335.574 151.36C335.725 151.531 335.709 151.793 335.537 151.944C335.409 152.057 335.281 152.168 335.153 152.279H335.151ZM339.387 148.035C339.235 148.166 339.005 148.169 338.847 148.035C338.674 147.886 338.653 147.624 338.802 147.45C339.525 146.607 340.22 145.721 340.869 144.819C341.002 144.631 341.261 144.591 341.447 144.724C341.632 144.857 341.674 145.116 341.541 145.302C340.878 146.223 340.167 147.128 339.431 147.988C339.417 148.004 339.402 148.02 339.385 148.034L339.387 148.035ZM344.37 140.707C344.245 140.815 344.061 140.842 343.906 140.759C343.703 140.652 343.627 140.401 343.734 140.2C344.254 139.215 344.737 138.199 345.171 137.179C345.259 136.968 345.503 136.87 345.714 136.959C345.925 137.048 346.023 137.291 345.933 137.502C345.491 138.544 344.997 139.582 344.466 140.587C344.441 140.634 344.408 140.674 344.37 140.707ZM347.609 132.463C347.508 132.549 347.368 132.586 347.231 132.549C347.01 132.49 346.88 132.262 346.938 132.041C347.225 130.969 347.47 129.872 347.664 128.776C347.704 128.551 347.918 128.4 348.143 128.441C348.369 128.481 348.519 128.696 348.479 128.921C348.28 130.039 348.031 131.161 347.738 132.256C347.715 132.339 347.669 132.41 347.609 132.463ZM348.924 123.705C348.847 123.771 348.747 123.808 348.639 123.804C348.411 123.795 348.232 123.603 348.24 123.375C348.281 122.266 348.274 121.141 348.221 120.029C348.21 119.801 348.387 119.607 348.615 119.595C348.843 119.584 349.037 119.76 349.048 119.988C349.103 121.123 349.109 122.272 349.068 123.404C349.064 123.524 349.009 123.63 348.924 123.703V123.705ZM348.259 114.871C348.206 114.917 348.14 114.95 348.066 114.964C347.842 115.006 347.625 114.858 347.582 114.634C347.375 113.541 347.119 112.444 346.823 111.376C346.761 111.156 346.891 110.927 347.111 110.866C347.33 110.804 347.559 110.934 347.62 111.154C347.923 112.245 348.185 113.364 348.396 114.481C348.424 114.632 348.367 114.779 348.259 114.872V114.871ZM345.658 106.401C345.627 106.428 345.592 106.45 345.553 106.467C345.342 106.558 345.099 106.462 345.008 106.252C344.565 105.233 344.073 104.22 343.546 103.242C343.437 103.041 343.513 102.79 343.714 102.682C343.916 102.573 344.166 102.648 344.275 102.85C344.814 103.848 345.316 104.882 345.768 105.923C345.843 106.093 345.792 106.286 345.658 106.401ZM341.241 98.7193C341.233 98.7258 341.225 98.7323 341.216 98.7387C341.032 98.8746 340.773 98.8347 340.637 98.6503C340.055 97.86 339.436 97.0827 338.798 96.3398C338.713 96.2406 338.626 96.1414 338.54 96.0433C338.389 95.8719 338.406 95.6099 338.578 95.4589C338.579 95.4589 338.58 95.4568 338.581 95.4557C338.753 95.308 339.012 95.3252 339.162 95.4967C339.251 95.5969 339.338 95.6983 339.425 95.7996C340.078 96.5587 340.709 97.3522 341.304 98.1597C341.433 98.3355 341.403 98.5792 341.24 98.7193H341.241ZM335.219 92.2201C335.066 92.3517 334.837 92.3549 334.679 92.2201C333.839 91.4967 332.955 90.7991 332.053 90.1457C331.867 90.012 331.825 89.7522 331.96 89.5678C332.096 89.3835 332.353 89.3403 332.538 89.4751C333.46 90.1414 334.362 90.8541 335.219 91.5926C335.393 91.7425 335.412 92.0034 335.264 92.177C335.25 92.1932 335.234 92.2072 335.219 92.2212V92.2201ZM327.906 87.2163C327.781 87.3242 327.597 87.3511 327.442 87.2681C326.457 86.7441 325.443 86.2579 324.424 85.8223C324.213 85.7328 324.115 85.4891 324.206 85.2789C324.296 85.0686 324.539 84.9705 324.749 85.0611C325.79 85.5053 326.827 86.0023 327.831 86.5371C328.032 86.6449 328.109 86.8951 328.002 87.0978C327.977 87.1441 327.945 87.184 327.906 87.2174V87.2163Z" fill="#FAD6AE"/>
<path d="M328.253 157.033C328.232 157.052 328.207 157.068 328.18 157.083C327.685 157.352 327.185 157.61 326.693 157.85C326.487 157.95 326.239 157.865 326.139 157.66C326.038 157.454 326.125 157.207 326.329 157.106C326.811 156.87 327.3 156.618 327.785 156.355C327.986 156.246 328.238 156.321 328.347 156.522C328.442 156.696 328.398 156.909 328.253 157.033Z" fill="#FAD6AE"/>
<path d="M297.343 159.996C297.238 160.087 297.09 160.123 296.948 160.077C296.422 159.91 295.889 159.729 295.364 159.537C295.149 159.46 295.038 159.221 295.116 159.007C295.195 158.791 295.432 158.681 295.646 158.76C296.161 158.947 296.682 159.125 297.198 159.288C297.416 159.357 297.536 159.59 297.467 159.808C297.444 159.884 297.399 159.948 297.343 159.996Z" fill="#FAD6AE"/>
<path d="M290.837 157.269C290.712 157.377 290.528 157.403 290.373 157.321C289.389 156.801 288.412 156.231 287.47 155.627C287.277 155.503 287.22 155.248 287.344 155.055C287.468 154.864 287.724 154.806 287.917 154.93C288.841 155.52 289.797 156.079 290.761 156.589C290.964 156.696 291.04 156.946 290.934 157.148C290.909 157.196 290.875 157.236 290.838 157.269H290.837ZM283.616 152.381C283.464 152.511 283.236 152.516 283.078 152.382C282.226 151.657 281.396 150.89 280.61 150.099C280.45 149.938 280.45 149.675 280.612 149.514C280.776 149.35 281.037 149.353 281.198 149.516C281.967 150.29 282.779 151.043 283.614 151.751C283.788 151.899 283.809 152.161 283.661 152.336C283.647 152.352 283.631 152.368 283.615 152.382L283.616 152.381ZM277.638 146.034C277.631 146.04 277.624 146.046 277.616 146.051C277.434 146.188 277.174 146.151 277.036 145.969C276.365 145.077 275.725 144.146 275.132 143.199C275.01 143.005 275.07 142.75 275.264 142.628C275.458 142.506 275.713 142.565 275.834 142.758C276.415 143.685 277.043 144.598 277.699 145.471C277.831 145.647 277.803 145.892 277.639 146.034H277.638ZM273.201 138.529C273.172 138.553 273.139 138.576 273.101 138.592C272.893 138.686 272.647 138.593 272.553 138.385C272.095 137.368 271.673 136.318 271.302 135.265C271.226 135.049 271.339 134.812 271.555 134.737C271.77 134.66 272.006 134.773 272.083 134.989C272.447 136.021 272.859 137.048 273.308 138.044C273.384 138.216 273.336 138.412 273.2 138.529H273.201ZM270.512 130.235C270.46 130.279 270.398 130.312 270.327 130.327C270.102 130.373 269.884 130.23 269.837 130.006C269.611 128.912 269.429 127.796 269.295 126.688C269.267 126.461 269.429 126.255 269.656 126.228C269.884 126.201 270.089 126.363 270.117 126.589C270.249 127.675 270.427 128.767 270.649 129.837C270.68 129.991 270.623 130.14 270.513 130.235H270.512ZM269.693 121.557C269.618 121.621 269.521 121.658 269.417 121.657C269.188 121.654 269.006 121.465 269.009 121.237C269.026 120.12 269.092 118.991 269.203 117.882C269.227 117.654 269.43 117.488 269.656 117.511C269.884 117.533 270.05 117.736 270.027 117.964C269.918 119.049 269.854 120.155 269.837 121.249C269.835 121.372 269.779 121.482 269.693 121.556V121.557ZM270.789 112.912C270.691 112.996 270.556 113.033 270.422 113.001C270.199 112.947 270.063 112.724 270.116 112.501C270.378 111.415 270.69 110.327 271.043 109.269C271.116 109.053 271.35 108.935 271.567 109.007C271.783 109.079 271.901 109.315 271.829 109.531C271.484 110.567 271.178 111.633 270.922 112.696C270.9 112.783 270.853 112.857 270.789 112.912ZM273.761 104.718C273.639 104.823 273.461 104.852 273.307 104.775C273.102 104.674 273.018 104.426 273.119 104.22C273.612 103.223 274.154 102.23 274.731 101.271C274.847 101.074 275.104 101.013 275.299 101.13C275.495 101.248 275.558 101.502 275.44 101.698C274.875 102.637 274.344 103.61 273.861 104.587C273.836 104.639 273.801 104.683 273.76 104.717L273.761 104.718ZM278.447 97.3674C278.299 97.4946 278.077 97.5032 277.918 97.376C277.74 97.2326 277.711 96.9717 277.854 96.7938C278.556 95.9204 279.3 95.0698 280.068 94.2633C280.229 94.0994 280.488 94.0908 280.653 94.2493C280.819 94.4067 280.826 94.6698 280.667 94.8347C279.916 95.624 279.187 96.4574 278.5 97.3134C278.484 97.3339 278.466 97.3523 278.447 97.3684V97.3674ZM287.311 89.2509C287.298 89.2617 287.285 89.2725 287.27 89.2822C286.36 89.8892 285.465 90.5426 284.611 91.2229C284.432 91.3652 284.172 91.3361 284.029 91.1571C283.887 90.9781 283.91 90.7172 284.095 90.5749C284.967 89.8795 285.88 89.2132 286.811 88.5932C287 88.466 287.258 88.5178 287.385 88.7075C287.503 88.8833 287.467 89.1161 287.311 89.2509Z" fill="#FAD6AE"/>
<path d="M293.526 85.8641C293.494 85.891 293.46 85.9126 293.42 85.9299C292.916 86.1476 292.416 86.3784 291.931 86.6134C291.725 86.7126 291.477 86.6264 291.378 86.4215C291.279 86.2156 291.363 85.9676 291.57 85.8684C292.065 85.629 292.577 85.394 293.09 85.1708C293.3 85.0803 293.544 85.1762 293.635 85.3854C293.709 85.5557 293.658 85.7487 293.525 85.8641H293.526Z" fill="#FAD6AE"/>
<path d="M300.534 92.6732C300.334 92.7088 300.179 92.8673 300.148 93.0678L299.252 98.7864C296.769 99.8559 294.439 101.329 292.37 103.189L286.805 101.608C286.61 101.553 286.401 101.627 286.286 101.793L282.315 107.489C282.198 107.655 282.202 107.878 282.32 108.041L285.728 112.715C284.7 115.301 284.124 117.996 283.979 120.696L278.924 123.515C278.747 123.614 278.652 123.815 278.688 124.014L279.908 130.85C279.944 131.049 280.102 131.205 280.303 131.236L286.021 132.132C287.091 134.615 288.564 136.945 290.424 139.014L288.843 144.579C288.788 144.775 288.862 144.984 289.028 145.099L294.724 149.07C294.89 149.186 295.113 149.183 295.276 149.065L299.95 145.656C302.536 146.685 305.231 147.261 307.931 147.405L310.75 152.461C310.85 152.638 311.05 152.732 311.25 152.697L318.085 151.476C318.285 151.441 318.44 151.282 318.471 151.082L319.367 145.363C321.85 144.294 324.18 142.821 326.249 140.961L331.814 142.542C332.01 142.597 332.219 142.522 332.334 142.356L336.305 136.66C336.421 136.494 336.418 136.272 336.299 136.108L332.89 131.434C333.919 128.849 334.495 126.154 334.639 123.454L339.695 120.634C339.872 120.535 339.967 120.335 339.931 120.135L338.71 113.3C338.675 113.1 338.516 112.945 338.316 112.914L332.597 112.018C331.528 109.535 330.055 107.205 328.195 105.136L329.776 99.5702C329.831 99.3751 329.756 99.1659 329.59 99.0506L323.894 95.0797C323.728 94.9632 323.506 94.9665 323.342 95.0851L318.668 98.4931C316.083 97.4646 313.388 96.8888 310.688 96.7444L307.868 91.6888C307.769 91.512 307.57 91.4171 307.369 91.4527L300.534 92.6732Z" fill="#FAD6AE"/>
<path d="M313.743 127.214C313.255 127.633 312.704 127.986 312.101 128.258C310.449 129.004 308.606 129.061 306.91 128.419C305.214 127.779 303.869 126.515 303.124 124.864C302.378 123.211 302.321 121.367 302.962 119.672C303.602 117.976 304.866 116.632 306.517 115.886C308.169 115.14 310.014 115.082 311.709 115.724C313.405 116.364 314.749 117.628 315.494 119.28C316.24 120.933 316.297 122.776 315.657 124.471C315.251 125.547 314.592 126.483 313.743 127.213V127.214ZM305.687 117.872C304.994 118.468 304.456 119.232 304.124 120.112C303.6 121.498 303.647 123.003 304.257 124.354C304.866 125.703 305.964 126.735 307.349 127.258C308.734 127.782 310.24 127.735 311.59 127.126C312.94 126.516 313.972 125.419 314.496 124.032C315.02 122.647 314.972 121.141 314.363 119.791C313.754 118.441 312.655 117.409 311.271 116.885C309.886 116.361 308.379 116.409 307.03 117.018C306.537 117.24 306.087 117.528 305.688 117.871L305.687 117.872Z" fill="#FDEDD7"/>
<path d="M320.68 135.393C314.813 140.439 306.046 141.1 299.411 136.474C298.186 135.62 297.106 134.637 296.175 133.555C291.128 127.687 290.467 118.919 295.092 112.283C295.175 112.165 295.26 112.046 295.347 111.929C295.927 111.138 296.571 110.399 297.269 109.724C297.351 109.645 297.433 109.566 297.516 109.489L298.362 110.398C297.529 111.174 296.771 112.047 296.111 112.994C296.104 113.002 296.098 113.011 296.093 113.021C291.028 120.317 292.832 130.374 300.122 135.454C307.42 140.541 317.494 138.742 322.582 131.445C326.876 125.284 326.263 117.143 321.577 111.695C320.713 110.69 319.709 109.777 318.572 108.984C316.173 107.312 313.371 106.322 310.469 106.123L310.554 104.883C313.68 105.097 316.699 106.163 319.282 107.964C320.507 108.818 321.587 109.801 322.519 110.884C327.565 116.751 328.226 125.519 323.601 132.155C322.747 133.38 321.763 134.461 320.68 135.393Z" fill="#FDEDD7"/>
<path d="M286.964 53.7162C286.903 53.7679 286.819 53.7905 286.736 53.7679C286.417 53.6817 286.096 53.6019 285.781 53.5307C285.647 53.5005 285.563 53.3668 285.593 53.2331C285.624 53.0994 285.757 53.0143 285.891 53.0455C286.213 53.1178 286.542 53.1997 286.867 53.2881C286.999 53.3237 287.078 53.4606 287.041 53.5932C287.028 53.6428 287 53.686 286.964 53.7172V53.7162Z" fill="#FAD6AE"/>
<path d="M296.269 94.7843C295.828 95.1638 295.369 95.5304 294.904 95.8743C294.794 95.9563 294.638 95.9325 294.556 95.8226C294.474 95.7126 294.496 95.5573 294.608 95.4743C295.144 95.0776 295.669 94.6517 296.171 94.2096C296.171 94.2096 296.172 94.2085 296.173 94.2075C296.277 94.1191 296.432 94.1288 296.523 94.2312C296.613 94.3347 296.604 94.491 296.5 94.5827C296.424 94.6506 296.346 94.7174 296.268 94.7843H296.269ZM298.815 92.2333C298.723 92.3121 298.585 92.3142 298.492 92.2333C298.387 92.1439 298.375 91.9864 298.465 91.8819C298.899 91.3751 299.316 90.8425 299.707 90.3002C299.786 90.187 299.943 90.1633 300.054 90.243C300.165 90.3228 300.191 90.4792 300.111 90.5902C299.712 91.1444 299.286 91.6878 298.843 92.2053C298.834 92.215 298.826 92.2247 298.816 92.2323L298.815 92.2333ZM301.81 87.829C301.735 87.8937 301.625 87.9099 301.531 87.8603C301.409 87.7967 301.363 87.6457 301.427 87.5239C301.74 86.932 302.031 86.3218 302.291 85.7083C302.344 85.5821 302.49 85.5228 302.618 85.5767C302.744 85.6306 302.803 85.7762 302.749 85.9034C302.484 86.5298 302.186 87.153 301.867 87.7568C301.852 87.7848 301.833 87.8096 301.81 87.829ZM303.757 82.8738C303.697 82.9255 303.613 82.9482 303.531 82.9255C303.398 82.8899 303.32 82.753 303.355 82.6204C303.528 81.9767 303.674 81.3169 303.792 80.6581C303.815 80.5223 303.945 80.4328 304.081 80.4565C304.217 80.4802 304.306 80.6096 304.282 80.7455C304.163 81.4182 304.013 82.0921 303.837 82.7498C303.823 82.7994 303.796 82.8425 303.759 82.8738H303.757ZM304.546 77.6102C304.501 77.6501 304.441 77.6727 304.375 77.6705C304.238 77.6652 304.13 77.5498 304.136 77.4129C304.161 76.7466 304.156 76.0695 304.124 75.4021C304.117 75.2652 304.224 75.1487 304.36 75.1412C304.497 75.1347 304.614 75.2404 304.621 75.3773C304.654 76.0598 304.659 76.7498 304.633 77.4301C304.631 77.5023 304.597 77.566 304.546 77.6102ZM304.148 72.3002C304.115 72.3282 304.076 72.3476 304.031 72.3563C303.896 72.3821 303.766 72.2926 303.74 72.1579C303.616 71.5002 303.462 70.8414 303.284 70.1988C303.247 70.0662 303.325 69.9293 303.456 69.8926C303.589 69.856 303.726 69.9336 303.763 70.0651C303.945 70.7207 304.102 71.3935 304.228 72.0652C304.246 72.1557 304.211 72.2441 304.145 72.3002H304.148ZM302.584 67.2102C302.566 67.2263 302.544 67.2393 302.521 67.2501C302.394 67.305 302.248 67.2468 302.193 67.1207C301.927 66.5083 301.631 65.8991 301.314 65.3115C301.248 65.1908 301.294 65.0398 301.415 64.974C301.536 64.9083 301.687 64.9536 301.753 65.0743C302.076 65.6738 302.378 66.2959 302.65 66.9212C302.694 67.0236 302.665 67.1401 302.584 67.2091V67.2102ZM299.93 62.5924C299.93 62.5924 299.92 62.5999 299.915 62.6042C299.804 62.6862 299.648 62.6625 299.566 62.5514C299.217 62.0759 298.845 61.6091 298.461 61.1627C298.411 61.1034 298.359 61.0441 298.307 60.9848C298.217 60.8813 298.226 60.7239 298.33 60.6333C298.33 60.6333 298.331 60.6323 298.332 60.6312C298.435 60.5428 298.591 60.5525 298.681 60.656C298.734 60.7164 298.787 60.7767 298.84 60.8382C299.232 61.2943 299.612 61.7708 299.969 62.2571C300.046 62.3627 300.028 62.5094 299.931 62.5935L299.93 62.5924ZM296.31 58.6862C296.219 58.7649 296.081 58.767 295.986 58.6862C295.481 58.2517 294.95 57.8323 294.407 57.4398C294.296 57.359 294.271 57.2037 294.351 57.0926C294.433 56.9816 294.587 56.9557 294.699 57.0366C295.253 57.4377 295.795 57.8657 296.31 58.3088C296.415 58.3983 296.427 58.5557 296.336 58.6603C296.328 58.67 296.319 58.6786 296.309 58.6873L296.31 58.6862ZM291.915 55.6792C291.839 55.7439 291.729 55.76 291.635 55.7104C291.045 55.3956 290.434 55.1034 289.822 54.8414C289.696 54.7875 289.637 54.6409 289.69 54.5147C289.744 54.3886 289.891 54.3293 290.017 54.3832C290.642 54.6506 291.266 54.9492 291.869 55.2705C291.991 55.3352 292.037 55.4862 291.972 55.6069C291.957 55.635 291.937 55.6587 291.915 55.6792Z" fill="#FAD6AE"/>
<path d="M292.123 97.642C292.11 97.6538 292.095 97.6635 292.079 97.6721C291.781 97.8328 291.48 97.988 291.185 98.1325C291.061 98.1929 290.912 98.1422 290.852 98.0182C290.791 97.8942 290.843 97.7465 290.966 97.6851C291.256 97.5438 291.55 97.3918 291.841 97.2333C291.962 97.1676 292.113 97.2128 292.179 97.3336C292.236 97.4382 292.209 97.5665 292.123 97.6409V97.642Z" fill="#FAD6AE"/>
<path d="M273.545 99.4194C273.481 99.4743 273.393 99.4948 273.307 99.4679C272.991 99.3676 272.67 99.2587 272.355 99.1434C272.225 99.0959 272.158 98.9536 272.206 98.8242C272.253 98.6948 272.395 98.628 272.525 98.6754C272.834 98.7876 273.148 98.8954 273.457 98.9935C273.588 99.0355 273.661 99.1746 273.619 99.3061C273.605 99.3514 273.578 99.3903 273.545 99.4194Z" fill="#FAD6AE"/>
<path d="M269.634 97.7805C269.559 97.8452 269.449 97.8614 269.355 97.8118C268.763 97.4991 268.177 97.1563 267.61 96.794C267.494 96.7196 267.46 96.5654 267.534 96.4501C267.608 96.3347 267.763 96.3002 267.878 96.3746C268.433 96.7304 269.008 97.0657 269.588 97.3719C269.71 97.4355 269.756 97.5864 269.691 97.7083C269.676 97.7363 269.657 97.7611 269.634 97.7805ZM265.295 94.8425C265.203 94.9212 265.066 94.9234 264.971 94.8425C264.459 94.4069 263.96 93.9455 263.488 93.47C263.391 93.373 263.392 93.2145 263.489 93.1185C263.588 93.0204 263.744 93.0215 263.841 93.1196C264.304 93.5854 264.792 94.0371 265.294 94.463C265.398 94.5514 265.411 94.7088 265.322 94.8134C265.313 94.8231 265.303 94.8328 265.294 94.8414L265.295 94.8425ZM261.701 91.028C261.701 91.028 261.693 91.0355 261.688 91.0387C261.578 91.1217 261.422 91.0991 261.34 90.9891C260.937 90.4533 260.552 89.8926 260.195 89.3244C260.122 89.208 260.157 89.0538 260.274 88.9816C260.39 88.9083 260.543 88.9439 260.617 89.0603C260.966 89.6177 261.343 90.1654 261.737 90.6905C261.817 90.7961 261.799 90.9439 261.7 91.029L261.701 91.028ZM259.035 86.5169C259.018 86.532 258.997 86.5449 258.974 86.5557C258.849 86.6118 258.702 86.5557 258.646 86.4306C258.37 85.8193 258.117 85.1886 257.894 84.5557C257.849 84.4263 257.916 84.284 258.046 84.2377C258.176 84.1913 258.318 84.2592 258.364 84.3897C258.583 85.0096 258.831 85.6274 259.101 86.2269C259.147 86.3293 259.118 86.4479 259.036 86.518L259.035 86.5169ZM257.42 81.5325C257.388 81.5595 257.351 81.5789 257.308 81.5875C257.173 81.6156 257.041 81.5293 257.013 81.3945C256.877 80.7379 256.767 80.0673 256.688 79.401C256.672 79.2641 256.769 79.1412 256.904 79.1239C257.041 79.1077 257.165 79.2048 257.181 79.3417C257.26 79.994 257.368 80.6506 257.501 81.2943C257.52 81.3859 257.486 81.4765 257.419 81.5336L257.42 81.5325ZM256.926 76.3164C256.882 76.3552 256.824 76.3778 256.76 76.3767C256.622 76.3746 256.513 76.2614 256.515 76.1234C256.526 75.4517 256.565 74.7735 256.632 74.1072C256.646 73.9703 256.767 73.8711 256.904 73.884C257.041 73.898 257.141 74.0199 257.128 74.1568C257.062 74.8102 257.024 75.4743 257.013 76.132C257.012 76.2064 256.979 76.2722 256.927 76.3164H256.926ZM257.586 71.1207C257.528 71.1713 257.446 71.194 257.365 71.1746C257.231 71.1422 257.149 71.0075 257.181 70.8738C257.339 70.2215 257.526 69.567 257.738 68.9309C257.782 68.8005 257.922 68.7304 258.053 68.7735C258.183 68.8166 258.253 68.9579 258.21 69.0883C258.003 69.7115 257.82 70.3509 257.665 70.9902C257.652 71.043 257.624 71.0872 257.585 71.1207H257.586ZM259.371 66.1956C259.298 66.2592 259.191 66.2754 259.098 66.2301C258.976 66.1687 258.925 66.0199 258.985 65.8969C259.282 65.2975 259.607 64.7013 259.955 64.1244C260.025 64.0059 260.179 63.9692 260.296 64.0393C260.414 64.1104 260.452 64.2635 260.381 64.381C260.042 64.946 259.723 65.5293 259.433 66.1169C259.418 66.1482 259.396 66.174 259.372 66.1956H259.371ZM262.188 61.7773C262.099 61.8538 261.965 61.8592 261.87 61.7827C261.764 61.6964 261.746 61.5401 261.833 61.4323C262.254 60.9072 262.702 60.3961 263.163 59.911C263.259 59.8129 263.415 59.8075 263.515 59.9023C263.614 59.9972 263.618 60.1546 263.523 60.2538C263.072 60.7282 262.634 61.2296 262.221 61.7439C262.211 61.7557 262.2 61.7665 262.188 61.7773ZM267.516 56.8986C267.508 56.905 267.5 56.9115 267.491 56.9169C266.944 57.2813 266.406 57.6738 265.893 58.0835C265.785 58.1687 265.629 58.1514 265.544 58.0436C265.457 57.9358 265.473 57.7794 265.584 57.6943C266.108 57.2759 266.657 56.8759 267.216 56.5029C267.33 56.4263 267.484 56.4576 267.561 56.5719C267.631 56.6775 267.611 56.8177 267.517 56.8986H267.516Z" fill="#FAD6AE"/>
<path d="M271.251 54.8638C271.232 54.8799 271.211 54.8929 271.187 54.9037C270.885 55.0352 270.583 55.1732 270.292 55.3144C270.168 55.3748 270.019 55.3231 269.96 55.1991C269.9 55.0751 269.951 54.9263 270.075 54.8659C270.373 54.7214 270.68 54.5813 270.99 54.4465C271.116 54.3915 271.262 54.4497 271.317 54.5759C271.362 54.6783 271.332 54.7948 271.252 54.8638H271.251Z" fill="#FAD6AE"/>
<path d="M275.463 58.9603C275.343 58.9819 275.25 59.0768 275.231 59.1975L274.693 62.6347C273.201 63.2773 271.8 64.1625 270.556 65.2805L267.212 64.3307C267.094 64.2972 266.969 64.3425 266.899 64.4417L264.513 67.8649C264.443 67.9652 264.445 68.0978 264.516 68.197L266.565 71.0067C265.947 72.5603 265.601 74.1808 265.514 75.8034L262.475 77.4983C262.369 77.5576 262.311 77.6784 262.333 77.7981L263.066 81.9059C263.088 82.0255 263.183 82.1194 263.303 82.1377L266.741 82.6757C267.383 84.1679 268.268 85.5684 269.386 86.8126L268.437 90.1571C268.403 90.2746 268.448 90.3997 268.548 90.4697L271.971 92.8557C272.071 92.9258 272.204 92.9237 272.303 92.8525L275.113 90.804C276.666 91.4218 278.287 91.7679 279.909 91.8552L281.604 94.8935C281.664 95.0002 281.784 95.0574 281.904 95.0358L286.012 94.3026C286.131 94.2811 286.225 94.1862 286.244 94.0654L286.782 90.6282C288.274 89.9857 289.674 89.1005 290.919 87.9824L294.263 88.9323C294.381 88.9657 294.506 88.9204 294.576 88.8212L296.962 85.3981C297.032 85.2978 297.03 85.1652 296.958 85.066L294.91 82.2563C295.528 80.7026 295.874 79.0822 295.961 77.4595L298.999 75.7646C299.106 75.7053 299.163 75.5846 299.142 75.4649L298.409 71.3571C298.387 71.2374 298.292 71.1436 298.171 71.1253L294.734 70.5873C294.092 69.0951 293.206 67.6946 292.088 66.4503L293.038 63.1059C293.072 62.9884 293.026 62.8633 292.927 62.7932L289.504 60.4072C289.404 60.3371 289.271 60.3393 289.172 60.4105L286.362 62.459C284.809 61.8412 283.188 61.4951 281.565 61.4078L279.871 58.3695C279.811 58.2627 279.69 58.2056 279.571 58.2272L275.463 58.9603Z" fill="#FAD6AE"/>
<path d="M283.403 79.7228C283.109 79.9751 282.778 80.1864 282.415 80.3503C281.422 80.7988 280.314 80.8333 279.295 80.4473C278.276 80.0624 277.467 79.3034 277.02 78.3104C276.571 77.3174 276.537 76.2091 276.922 75.1902C277.307 74.1713 278.066 73.3627 279.059 72.9142C280.052 72.4657 281.16 72.4312 282.179 72.8171C283.198 73.202 284.006 73.9611 284.454 74.9541C284.902 75.9471 284.937 77.0554 284.552 78.0743C284.307 78.7212 283.912 79.2829 283.402 79.7217L283.403 79.7228ZM278.561 74.1088C278.143 74.4678 277.821 74.926 277.62 75.4554C277.306 76.2878 277.334 77.1934 277.7 78.0042C278.066 78.815 278.727 79.436 279.559 79.7498C280.391 80.0646 281.297 80.0366 282.108 79.67C282.92 79.3045 283.54 78.6436 283.853 77.8112C284.168 76.9789 284.14 76.0732 283.774 75.2624C283.408 74.4516 282.747 73.8306 281.915 73.5169C281.082 73.202 280.177 73.2301 279.366 73.5967C279.069 73.7304 278.799 73.9029 278.559 74.1088H278.561Z" fill="#FDEDD7"/>
<path d="M287.572 84.6372C284.045 87.6701 278.776 88.0668 274.788 85.2873C274.052 84.7741 273.403 84.1833 272.843 83.532C269.809 80.0054 269.412 74.7364 272.192 70.7471C272.241 70.676 272.293 70.6048 272.345 70.5337C272.694 70.0593 273.081 69.614 273.501 69.2086C273.549 69.1612 273.599 69.1137 273.65 69.0674L274.158 69.614C273.657 70.0808 273.202 70.6059 272.805 71.1741C272.801 71.1795 272.798 71.1849 272.795 71.1903C269.751 75.5752 270.835 81.6205 275.216 84.6738C279.602 87.7304 285.657 86.6501 288.716 82.2641C291.297 78.5617 290.928 73.6679 288.112 70.3946C287.592 69.7908 286.99 69.242 286.306 68.7655C284.865 67.7606 283.179 67.1655 281.436 67.0458L281.487 66.3008C283.366 66.4302 285.179 67.0706 286.732 68.1531C287.468 68.6663 288.117 69.2571 288.677 69.9083C291.711 73.435 292.108 78.704 289.328 82.6932C288.815 83.4296 288.223 84.0798 287.573 84.6393L287.572 84.6372Z" fill="#FDEDD7"/>
<path d="M70.966 305.818C70.966 308.397 73.0782 310.507 75.6604 310.507H329.487C332.068 310.507 334.181 308.397 334.181 305.818L336.293 159.951C336.293 157.372 333.255 152.337 327.685 152.715L79.6183 146.297C76.3795 146.213 73.2474 147.46 70.9531 149.746C68.6598 152.033 67.4038 155.158 67.4803 158.395L70.966 305.818Z" fill="url(#paint0_linear_1763_19133)"/>
<path d="M75.5999 301.319C75.5999 303.761 77.5978 305.76 80.0409 305.76H323.365C325.807 305.76 327.806 303.761 327.806 301.319L329.799 168.9C329.564 160.931 322.578 158.068 318.344 158.237L80.594 151.858C78.318 151.797 76.1185 152.675 74.5067 154.282C72.8948 155.89 72.0086 158.09 72.0657 160.366L75.601 301.32L75.5999 301.319Z" fill="#FAD6AE"/>
<path d="M325.176 238.416H325.17C324.807 238.411 324.52 238.115 324.525 237.755L324.682 227.017C324.688 226.661 324.978 226.375 325.333 226.375H325.342C325.701 226.38 325.989 226.676 325.984 227.036L325.826 237.774C325.821 238.13 325.531 238.416 325.176 238.416Z" fill="#FDEDD7"/>
<path d="M325.562 212.098H325.552C325.193 212.093 324.906 211.796 324.911 211.437L325.515 170.306C325.503 167.863 324.762 165.913 323.31 164.522C320.6 161.926 316.299 162.058 316.117 162.067L240.127 160.029C239.768 160.021 239.485 159.721 239.494 159.362C239.504 159.003 239.78 158.697 240.163 158.729L316.108 160.767C316.58 160.739 321.16 160.66 324.21 163.582C325.926 165.226 326.803 167.491 326.816 170.313L326.212 211.457C326.207 211.812 325.917 212.098 325.562 212.098Z" fill="#FDEDD7"/>
<path d="M50.9843 322.617L349.017 322.617C349.353 322.617 349.626 322.344 349.626 322.008V310.41C349.626 310.074 349.353 309.801 349.017 309.801L50.9843 309.801C50.6479 309.801 50.3752 310.074 50.3752 310.41V322.008C50.3752 322.344 50.6479 322.617 50.9843 322.617Z" fill="url(#paint1_linear_1763_19133)"/>
<path d="M124.865 97.2808C124.865 88.3503 132.104 81.1094 141.036 81.1094H278.555C286.142 81.1094 292.398 87.0544 292.784 94.6317L302.935 294.009C303.237 299.937 298.569 304.939 292.633 305.047L135.019 307.912C129.441 308.013 124.865 303.519 124.865 297.941V97.2808Z" fill="url(#paint2_linear_1763_19133)"/>
<path d="M158.054 304.522H158.048L140.413 304.294C134.515 304.218 129.719 299.357 129.719 293.461V266.833C129.719 266.625 129.887 266.457 130.095 266.457C130.303 266.457 130.471 266.625 130.471 266.833V293.461C130.471 298.949 134.935 303.471 140.423 303.542L158.058 303.769C158.266 303.771 158.432 303.943 158.43 304.151C158.427 304.357 158.26 304.523 158.054 304.523V304.522Z" fill="#FAD6AE"/>
<path d="M130.095 258.96C129.887 258.96 129.719 258.792 129.719 258.583V254.271C129.719 254.063 129.887 253.895 130.095 253.895C130.303 253.895 130.471 254.063 130.471 254.271V258.583C130.471 258.792 130.303 258.96 130.095 258.96Z" fill="#FAD6AE"/>
<path d="M136.13 84.1772C136.113 81.3201 138.626 79.1088 141.458 79.4926C160.237 82.0392 224.815 89.9153 278.207 85.8171C280.641 85.6306 282.755 87.4754 282.884 89.9142L293.528 290.179C293.673 292.925 291.577 295.274 288.832 295.435C266.376 296.765 173.897 301.901 140.911 298.447C138.903 298.237 137.38 296.546 137.368 294.528L136.13 84.1772Z" fill="#7D97F4"/>
<path d="M138.343 89.1951C138.327 86.4457 140.745 84.3174 143.469 84.6862C161.542 87.1368 223.687 94.7163 275.069 90.7724C277.412 90.5924 279.446 92.3681 279.571 94.7142L289.813 287.439C289.954 290.081 287.936 292.341 285.295 292.497C263.685 293.776 174.688 298.72 142.943 295.396C141.011 295.193 139.545 293.567 139.533 291.624L138.342 89.1951H138.343Z" fill="#FDEDD7"/>
<path opacity="0.78" d="M155.073 104.054L156.992 145.373C157.055 146.747 158.166 147.84 159.541 147.879C167.192 148.094 191.037 148.676 204.5 147.974C206.024 147.895 207.228 146.663 207.279 145.139C207.535 137.39 208.097 114.837 206.331 105.409C206.045 103.886 204.736 102.77 203.188 102.716L157.959 101.135C156.328 101.077 154.996 102.425 155.072 104.055L155.073 104.054Z" fill="white"/>
<g opacity="0.6">
<path d="M268.229 107.646C269.116 107.646 269.823 107.022 269.8 106.26C269.778 105.498 269.035 104.86 268.149 104.845L218.551 103.961C217.665 103.945 217.18 104.617 217.475 105.452L217.712 106.126C218.006 106.962 218.972 107.646 219.859 107.646H268.228H268.229Z" fill="white"/>
</g>
<g opacity="0.6">
<path d="M218.552 111.668C217.666 111.652 217.182 112.324 217.476 113.159L217.713 113.833C218.007 114.669 218.973 115.353 219.86 115.353H268.23C269.116 115.353 269.823 114.729 269.8 113.967C269.778 113.205 269.035 112.567 268.149 112.552L218.551 111.668H218.552Z" fill="white"/>
</g>
<g opacity="0.6">
<path d="M218.552 119.481C217.666 119.465 217.182 120.136 217.476 120.972L217.713 121.646C218.008 122.481 218.974 123.166 219.86 123.166H268.23C269.116 123.166 269.823 122.542 269.8 121.779C269.778 121.017 269.035 120.38 268.149 120.365L218.551 119.481H218.552Z" fill="white"/>
</g>
<g opacity="0.6">
<path d="M273.048 160.853C273.934 160.853 274.618 160.228 274.568 159.466C274.517 158.704 273.752 158.074 272.866 158.068L156.672 157.152C155.785 157.146 155.511 157.707 156.063 158.4L157.013 159.592C157.565 160.286 158.742 160.853 159.628 160.853H273.048Z" fill="white"/>
</g>
<g opacity="0.6">
<path d="M156.67 167.035C155.784 167.029 155.51 167.589 156.062 168.283L157.012 169.475C157.564 170.168 158.741 170.735 159.627 170.735H273.047C273.933 170.735 274.617 170.111 274.567 169.349C274.516 168.587 273.751 167.957 272.865 167.951L156.67 167.035Z" fill="white"/>
</g>
<path d="M171.141 217.386H171.114L161.307 217.292C159.905 217.278 158.749 216.314 158.617 215.049L157.754 206.821C157.703 206.338 157.853 205.86 158.177 205.476C158.538 205.046 159.085 204.776 159.678 204.736C160.503 204.679 161.667 204.58 162.899 204.476C165.493 204.255 168.721 203.98 170.537 203.957C171.854 203.951 172.972 204.73 173.283 205.878C173.794 207.767 173.749 211.343 173.652 215.152C173.62 216.389 172.496 217.386 171.141 217.386ZM159.729 205.488C159.34 205.515 158.984 205.688 158.754 205.961C158.564 206.188 158.474 206.465 158.503 206.743L159.366 214.972C159.459 215.856 160.296 216.53 161.314 216.539L171.121 216.633H171.141C172.091 216.633 172.878 215.964 172.899 215.132C172.995 211.381 173.04 207.867 172.556 206.075C172.34 205.272 171.504 204.713 170.547 204.711C168.758 204.733 165.545 205.007 162.963 205.226C161.727 205.332 160.561 205.431 159.728 205.487L159.729 205.488Z" fill="white"/>
<path opacity="0.6" d="M160.784 206.337C162.844 206.196 167.322 205.742 169.445 205.715C170.345 205.704 171.134 206.248 171.344 207.028C171.754 208.544 171.7 211.564 171.629 214.352C171.608 215.187 170.841 215.854 169.904 215.844L162.067 215.769C161.103 215.759 160.303 215.103 160.213 214.247L159.524 207.671C159.453 206.99 160.018 206.388 160.783 206.336L160.784 206.337Z" fill="white"/>
<g opacity="0.6">
<path d="M179.754 211.92C180.038 212.997 181.016 213.743 182.129 213.733L272.865 212.959C273.891 212.951 274.713 212.104 274.69 211.078C274.668 210.081 273.855 209.282 272.857 209.277L182.12 208.863C180.517 208.856 179.345 210.371 179.754 211.919V211.92Z" fill="white"/>
</g>
<path d="M171.141 238.401H171.114L161.307 238.307C159.905 238.293 158.749 237.33 158.617 236.065L157.754 227.836C157.703 227.353 157.853 226.876 158.177 226.492C158.538 226.062 159.085 225.792 159.678 225.751C160.503 225.695 161.667 225.596 162.899 225.491C165.493 225.27 168.721 224.995 170.537 224.973C170.55 224.973 170.564 224.973 170.577 224.973C171.866 224.973 172.976 225.758 173.283 226.894C173.794 228.783 173.749 232.358 173.652 236.167C173.62 237.405 172.496 238.401 171.141 238.401ZM159.729 226.504C159.34 226.531 158.984 226.703 158.754 226.977C158.564 227.203 158.474 227.48 158.503 227.759L159.366 235.987C159.459 236.871 160.296 237.545 161.314 237.555L171.121 237.649H171.141C172.091 237.649 172.878 236.979 172.899 236.148C172.995 232.397 173.04 228.882 172.556 227.09C172.339 226.288 171.492 225.711 170.547 225.726C168.758 225.749 165.545 226.023 162.963 226.242C161.727 226.347 160.561 226.447 159.728 226.503L159.729 226.504Z" fill="white"/>
<path opacity="0.6" d="M160.784 227.353C162.844 227.211 167.322 226.758 169.445 226.731C170.345 226.72 171.134 227.263 171.344 228.044C171.754 229.56 171.7 232.58 171.629 235.368C171.608 236.202 170.841 236.87 169.904 236.86L162.067 236.785C161.103 236.775 160.303 236.118 160.213 235.262L159.524 228.686C159.453 228.006 160.018 227.404 160.783 227.352L160.784 227.353Z" fill="white"/>
<g opacity="0.6">
<path d="M179.754 232.939C180.038 234.017 181.016 234.763 182.129 234.753L272.865 233.979C273.891 233.97 274.713 233.124 274.69 232.097C274.668 231.1 273.855 230.301 272.857 230.297L182.12 229.883C180.517 229.875 179.345 231.39 179.754 232.938V232.939Z" fill="white"/>
</g>
<path d="M171.141 259.424H171.114L161.307 259.33C159.905 259.317 158.749 258.353 158.617 257.088L157.754 248.86C157.703 248.377 157.853 247.899 158.177 247.515C158.538 247.085 159.085 246.815 159.678 246.775C160.503 246.718 161.667 246.619 162.899 246.515C165.493 246.294 168.721 246.019 170.537 245.996C170.55 245.996 170.564 245.996 170.577 245.996C171.866 245.996 172.976 246.781 173.283 247.917C173.794 249.806 173.749 253.382 173.652 257.191C173.62 258.428 172.496 259.425 171.141 259.425V259.424ZM159.729 247.525C159.34 247.552 158.984 247.724 158.754 247.998C158.564 248.225 158.474 248.502 158.503 248.78L159.366 257.008C159.459 257.893 160.296 258.566 161.314 258.576L171.121 258.67H171.141C172.091 258.67 172.878 258 172.899 257.169C172.995 253.418 173.04 249.903 172.556 248.111C172.339 247.309 171.492 246.729 170.547 246.748C168.758 246.77 165.545 247.044 162.963 247.263C161.727 247.369 160.561 247.468 159.728 247.524L159.729 247.525Z" fill="white"/>
<path opacity="0.6" d="M160.784 248.368C162.844 248.227 167.322 247.773 169.445 247.746C170.345 247.735 171.134 248.279 171.344 249.059C171.754 250.575 171.7 253.595 171.629 256.383C171.608 257.218 170.841 257.885 169.904 257.876L162.067 257.8C161.103 257.79 160.303 257.134 160.213 256.278L159.524 249.702C159.453 249.022 160.018 248.42 160.783 248.367L160.784 248.368Z" fill="white"/>
<g opacity="0.6">
<path d="M179.754 253.951C180.038 255.028 181.016 255.774 182.129 255.765L272.865 254.991C273.891 254.982 274.713 254.136 274.69 253.109C274.668 252.112 273.855 251.313 272.857 251.309L182.12 250.895C180.517 250.887 179.345 252.402 179.754 253.95V253.951Z" fill="white"/>
</g>
<path d="M171.141 280.439H171.114L161.307 280.345C159.905 280.332 158.749 279.369 158.617 278.104L157.754 269.875C157.703 269.392 157.853 268.915 158.177 268.531C158.538 268.101 159.085 267.831 159.678 267.79C160.503 267.734 161.667 267.635 162.899 267.53C165.493 267.309 168.721 267.034 170.537 267.012C170.55 267.012 170.564 267.012 170.577 267.012C171.866 267.012 172.976 267.797 173.283 268.933C173.794 270.822 173.749 274.397 173.652 278.206C173.62 279.444 172.496 280.44 171.141 280.44V280.439ZM159.729 268.541C159.34 268.568 158.984 268.74 158.754 269.014C158.564 269.24 158.474 269.517 158.503 269.796L159.366 278.024C159.459 278.908 160.296 279.582 161.314 279.592L171.121 279.686H171.141C172.091 279.686 172.878 279.016 172.899 278.185C172.995 274.434 173.04 270.919 172.556 269.127C172.339 268.325 171.492 267.743 170.547 267.763C168.758 267.786 165.545 268.06 162.963 268.279C161.727 268.384 160.561 268.483 159.728 268.539L159.729 268.541Z" fill="white"/>
<path opacity="0.6" d="M160.784 269.388C162.844 269.247 167.322 268.793 169.445 268.766C170.345 268.755 171.134 269.298 171.344 270.079C171.754 271.595 171.7 274.615 171.629 277.403C171.608 278.237 170.841 278.905 169.904 278.895L162.067 278.82C161.103 278.81 160.303 278.153 160.213 277.297L159.524 270.722C159.453 270.041 160.018 269.44 160.783 269.387L160.784 269.388Z" fill="white"/>
<g opacity="0.6">
<path d="M179.754 274.975C180.038 276.052 181.016 276.798 182.129 276.788L272.865 276.014C273.891 276.005 274.713 275.159 274.69 274.133C274.668 273.135 273.855 272.336 272.857 272.332L182.12 271.918C180.517 271.91 179.345 273.425 179.754 274.974V274.975Z" fill="white"/>
</g>
<path d="M170.276 199.095H170.249L160.442 199.002C159.04 198.989 157.885 198.025 157.752 196.76L156.889 188.532C156.839 188.049 156.989 187.571 157.312 187.187C157.673 186.757 158.22 186.487 158.813 186.446C159.639 186.39 160.802 186.291 162.034 186.187C164.629 185.966 167.857 185.691 169.672 185.668C169.685 185.668 169.699 185.668 169.712 185.668C171.002 185.668 172.111 186.453 172.418 187.589C172.929 189.478 172.884 193.053 172.787 196.863C172.756 198.1 171.631 199.097 170.276 199.097V199.095ZM158.864 187.197C158.474 187.224 158.119 187.396 157.888 187.67C157.698 187.897 157.609 188.174 157.638 188.452L158.5 196.68C158.593 197.564 159.431 198.238 160.448 198.248L170.255 198.342H170.275C171.225 198.342 172.012 197.672 172.033 196.841C172.129 193.09 172.175 189.575 171.691 187.783C171.473 186.981 170.626 186.399 169.681 186.419C167.892 186.442 164.679 186.716 162.097 186.935C160.861 187.04 159.695 187.14 158.863 187.196L158.864 187.197Z" fill="white"/>
<path opacity="0.6" d="M159.919 188.048C161.979 187.907 166.457 187.453 168.58 187.426C169.48 187.415 170.27 187.959 170.48 188.739C170.889 190.255 170.836 193.275 170.764 196.063C170.743 196.898 169.976 197.565 169.039 197.555L161.202 197.48C160.238 197.47 159.438 196.814 159.349 195.957L158.66 189.382C158.589 188.701 159.154 188.1 159.918 188.047L159.919 188.048Z" fill="white"/>
<g opacity="0.6">
<path d="M178.89 193.631C179.173 194.708 180.151 195.454 181.265 195.444L272 194.67C273.026 194.662 273.848 193.815 273.825 192.789C273.804 191.792 272.991 190.993 271.993 190.988L181.255 190.574C179.653 190.567 178.481 192.082 178.89 193.63V193.631Z" fill="white"/>
</g>
<path d="M218.323 53.9225C213.356 50.4669 209.037 50.5349 205.997 51.4319C203.223 52.2502 201.425 54.9284 201.689 57.8082L203 72.1198L218.604 73.5041C218.604 73.5041 228.066 60.6987 218.323 53.9214V53.9225ZM211.462 65.4686C209.313 65.4686 207.571 63.7262 207.571 61.5775C207.571 59.4287 209.313 57.6863 211.462 57.6863C213.611 57.6863 215.353 59.4287 215.353 61.5775C215.353 63.7262 213.611 65.4686 211.462 65.4686Z" fill="url(#paint3_linear_1763_19133)"/>
<path d="M204.559 66.1022C204.367 66.1022 204.203 65.9555 204.185 65.7604L203.976 63.4811C203.957 63.2741 204.11 63.0908 204.317 63.0714C204.528 63.052 204.707 63.2051 204.727 63.4121L204.936 65.6914C204.955 65.8984 204.802 66.0817 204.595 66.1011C204.583 66.1022 204.571 66.1022 204.561 66.1022H204.559ZM204.15 61.6353C203.957 61.6353 203.793 61.4887 203.776 61.2924L203.617 59.562C203.366 56.8191 205.092 54.2639 207.722 53.4887C209.584 52.9388 211.503 52.8601 213.424 53.2547C213.628 53.2968 213.759 53.4951 213.717 53.6989C213.675 53.9027 213.478 54.0321 213.273 53.9922C211.474 53.6234 209.678 53.6968 207.935 54.211C205.65 54.886 204.149 57.1081 204.368 59.4941L204.526 61.2245C204.545 61.4315 204.392 61.6148 204.185 61.6342C204.173 61.6353 204.162 61.6353 204.151 61.6353H204.15Z" fill="#FAD6AE"/>
<path d="M181.704 81.3677V74.172C181.704 71.6879 183.763 69.6987 186.246 69.7839L235.856 71.4842C238.058 71.5596 239.841 73.2976 239.973 75.496L240.388 82.4103L181.704 81.3677Z" fill="url(#paint4_linear_1763_19133)"/>
<path d="M200.204 72.4947H198.07C197.862 72.4947 197.694 72.3266 197.694 72.1185C197.694 71.9104 197.862 71.7422 198.07 71.7422H200.204C200.412 71.7422 200.58 71.9104 200.58 72.1185C200.58 72.3266 200.412 72.4947 200.204 72.4947Z" fill="#FAD6AE"/>
<path d="M184.39 79.1082C184.182 79.1082 184.014 78.94 184.014 78.7319V75.8209C184.014 73.5718 185.844 71.7422 188.093 71.7422H195.936C196.144 71.7422 196.313 71.9104 196.313 72.1185C196.313 72.3266 196.144 72.4947 195.936 72.4947H188.093C186.259 72.4947 184.766 73.9869 184.766 75.8209V78.7319C184.766 78.94 184.598 79.1082 184.39 79.1082Z" fill="#FAD6AE"/>
<path d="M161.49 83.1872C161.61 80.6956 163.665 78.7365 166.159 78.7365L252.914 78.7344C256.033 78.7344 258.701 80.9791 259.232 84.053L259.306 84.4767C259.889 87.8438 257.296 90.9231 253.879 90.9231H164.874C162.829 90.9231 161.2 89.2131 161.298 87.171L161.49 83.1872Z" fill="url(#paint5_linear_1763_19133)"/>
<path d="M171.992 132.045V130.284C171.992 128.673 172.239 127.267 172.735 126.067C173.23 124.867 174.133 123.579 175.441 122.203C176.684 120.843 177.476 119.778 177.82 119.006C178.164 118.234 178.336 117.253 178.336 116.06C178.336 114.969 178.085 114.081 177.582 113.392C177.078 112.704 176.28 112.36 175.19 112.36C173.378 112.36 171.473 113.006 169.476 114.299L167.109 109.264C169.743 107.468 172.664 106.57 175.87 106.57C178.638 106.57 180.824 107.338 182.427 108.873C184.029 110.409 184.831 112.544 184.831 115.28C184.831 117.192 184.554 118.816 184.001 120.151C183.447 121.485 182.298 123.092 180.552 124.971C179.427 126.196 178.71 127.141 178.4 127.804C178.089 128.467 177.934 129.369 177.934 130.51V132.045H171.994H171.992ZM170.81 140.453C170.81 139.128 171.165 138.108 171.879 137.394C172.593 136.68 173.629 136.324 174.988 136.324C176.346 136.324 177.404 136.69 178.109 137.42C178.814 138.15 179.167 139.161 179.167 140.453C179.167 141.744 178.805 142.735 178.084 143.474C177.362 144.212 176.33 144.581 174.988 144.581C173.645 144.581 172.612 144.22 171.891 143.499C171.169 142.777 170.809 141.762 170.809 140.453H170.81Z" fill="url(#paint6_linear_1763_19133)"/>
<path d="M117.319 341.41C117.319 341.41 116.75 344.628 116.471 347.816C116.362 349.061 117.322 350.142 118.571 350.194C122.815 350.371 131.891 350.715 135.148 350.569C135.638 350.548 135.958 350.046 135.777 349.59C135.625 349.209 135.333 348.9 134.958 348.729L119.965 341.838L117.317 341.41H117.319Z" fill="url(#paint7_linear_1763_19133)"/>
<path d="M116.853 339.517L117.31 343.367C117.31 343.367 119.936 344.59 121.729 343.213L120.641 338.922L116.853 339.517Z" fill="url(#paint8_linear_1763_19133)"/>
<path d="M117.196 267.133C116.998 268.139 116.137 317.307 121.392 339.342C121.478 339.701 121.295 340.072 120.953 340.212C120.147 340.541 118.567 341.019 116.673 341.082C116.086 341.102 115.56 340.721 115.395 340.158C113.893 335.045 106.694 309.431 105.754 284.964C104.705 257.622 105.754 284.033 105.754 284.033L106.37 267.133L117.196 267.135V267.133Z" fill="url(#paint9_linear_1763_19133)"/>
<path d="M100.071 343.091C100.071 343.091 99.1665 344.716 98.29 349.034C98.1315 349.813 98.677 350.56 99.4684 350.638C100.87 350.776 103.026 350.953 104.755 350.941C105.551 350.936 106.172 350.242 106.076 349.451C105.886 347.875 105.288 345.289 103.447 343.273L100.071 343.09V343.091Z" fill="url(#paint10_linear_1763_19133)"/>
<path d="M99.2765 338.137L100.344 343.959C100.344 343.959 101.399 344.744 103.487 344.174L102.977 337.91L99.2754 338.137H99.2765Z" fill="url(#paint11_linear_1763_19133)"/>
<path d="M96.3935 268.642C92.0949 294.584 97.3261 332.761 99.09 340.232C99.1978 340.69 99.5676 341.04 100.031 341.118C100.818 341.248 102.115 341.355 103.393 340.984C103.833 340.856 104.142 340.459 104.161 340.001C104.398 333.96 103.971 296.875 107.976 282.218C108.179 281.476 108.633 280.828 109.26 280.382L117.034 274.856L117.63 265.922L96.3924 268.643L96.3935 268.642Z" fill="url(#paint12_linear_1763_19133)"/>
<path d="M123.783 219.49C110.901 219.277 96.6877 222.872 96.6877 222.872C92.8484 245.277 96.016 271.12 96.016 271.12C105.989 273.735 117.239 269.521 117.239 269.521C118.896 260.156 126.63 233.8 126.63 233.8C132.924 233.019 138.109 231.203 142.378 228.802C139.121 225.026 137.586 220.223 136.92 217.383C132.365 218.798 127.756 219.554 123.783 219.488V219.49Z" fill="url(#paint13_linear_1763_19133)"/>
<path d="M161.835 200.515C160.569 198.987 158.968 199.71 158.968 199.71C157.073 207.718 147.133 214.21 136.921 217.384C137.588 220.224 139.123 225.028 142.379 228.803C159.327 219.275 161.835 200.515 161.835 200.515Z" fill="url(#paint14_linear_1763_19133)"/>
<path d="M161.528 200.9C161.66 201.321 160.127 201.962 159.224 200.24C159.192 199.416 158.69 195.88 159.184 195.209C161.809 191.629 166.9 187.141 166.9 187.141C167.761 187.989 167.052 188.824 167.052 188.824L164.582 191.396C165.099 192.33 165.729 193.118 166.024 194.247C166.247 195.102 166.111 196.016 165.679 196.795C165.245 197.575 164.653 198.591 164.095 199.385C163.036 200.889 161.528 200.9 161.528 200.9Z" fill="url(#paint15_linear_1763_19133)"/>
<path d="M163.502 193.066L161.251 194.975L160.544 196.874L162.551 199.101C162.551 199.101 163.226 195.332 163.727 194.517C164.229 193.7 163.969 193.307 163.502 193.067V193.066Z" fill="url(#paint16_linear_1763_19133)"/>
<path d="M101.629 235.344L96.6878 222.871C96.6878 222.871 84.6555 231.047 82.677 241.412C84.9509 241.579 89.0878 242.171 93.1374 244.216C94.0269 239.321 101.63 235.344 101.63 235.344H101.629Z" fill="url(#paint17_linear_1763_19133)"/>
<path d="M112.143 247.079C112.143 247.079 98.6339 254.714 94.0754 248.195C93.1288 246.841 92.9024 245.496 93.1363 244.213C89.0867 242.169 84.9498 241.577 82.676 241.41C82.0797 244.535 82.3946 247.859 84.2307 251.218C92.2156 265.824 113.931 250.411 113.931 250.411L112.143 247.08V247.079Z" fill="url(#paint18_linear_1763_19133)"/>
<path d="M110.521 256.738L117.893 230.99C117.977 230.698 118.226 230.485 118.528 230.45C119.864 230.295 123.735 229.857 128.204 229.479C133.587 229.024 139.838 228.654 143.574 228.969C144.106 229.013 144.426 229.575 144.19 230.053C142.066 234.351 133.327 251.835 128.951 257.562C128.805 257.752 128.582 257.863 128.343 257.86L111.237 257.701C110.739 257.697 110.383 257.219 110.52 256.74L110.521 256.738Z" fill="url(#paint19_linear_1763_19133)"/>
<path d="M128.969 227.248L134.315 226.357C134.6 226.31 134.832 226.581 134.742 226.856L134.212 228.459C134.166 228.598 134.044 228.7 133.899 228.719L128.755 229.406C128.488 229.442 128.27 229.2 128.33 228.938L128.658 227.539C128.693 227.388 128.815 227.273 128.968 227.248H128.969Z" fill="#FAD6AE"/>
<path d="M124.967 231.774L125.407 229.479C125.451 229.25 125.641 229.075 125.874 229.051L136.671 227.956C137.034 227.919 137.325 228.252 137.24 228.607L136.553 231.465C136.498 231.694 136.299 231.859 136.065 231.871L125.514 232.402C125.17 232.42 124.901 232.11 124.966 231.773L124.967 231.774Z" fill="#FAD6AE"/>
<path d="M112.302 250.521C112.302 250.521 111.274 246.298 111.69 244.799C112.104 243.3 112.907 241.375 115.582 241.803C118.258 242.231 121.414 243.358 121.414 243.358C121.414 243.358 121.254 245.309 119.221 244.679L120.482 245.655C120.482 245.655 120.302 247.217 118.584 246.383L119.757 247.677C119.757 247.677 119.02 248.96 117.756 248.137C116.493 247.313 115.887 251.029 112.303 250.521H112.302Z" fill="url(#paint20_linear_1763_19133)"/>
<path d="M110.735 209.031L106.636 220.885C106.568 221.081 106.649 221.299 106.831 221.399C107.948 222.017 111.974 223.802 116.825 220.726C117.33 220.406 117.674 219.883 117.751 219.29L119.078 209.031H110.735Z" fill="url(#paint21_linear_1763_19133)"/>
<path d="M119.654 198.055C119.654 198.055 124.155 206.527 123.578 209.95C123.002 213.372 117.423 213.126 112.552 210.347L109.148 201.199L119.654 198.055Z" fill="url(#paint22_linear_1763_19133)"/>
<path d="M112.767 205.854C112.965 205.767 113.037 205.524 112.919 205.343C112.557 204.792 111.882 203.668 111.667 202.684C111.667 202.684 110.858 202.165 113.726 201.48C116.595 200.793 120.872 199.728 121.771 197.286C122.648 194.905 120.345 188.918 116.67 193.689C116.529 193.87 116.256 193.874 116.116 193.693C115.514 192.909 113.93 191.281 111.732 192.268C109.673 193.191 109.443 194.699 109.471 195.459C109.479 195.682 109.279 195.857 109.059 195.815C108.018 195.617 105.522 195.446 104.357 198.007C103.397 200.117 104.021 201.31 104.589 201.895C104.773 202.085 104.692 202.396 104.44 202.473C103.756 202.682 102.873 203.262 102.962 204.864C103.084 207.079 105.56 206.884 106.265 206.782C106.381 206.766 106.497 206.805 106.576 206.892C107.181 207.561 109.904 210.402 112.851 210.743C113.106 210.772 113.304 210.521 113.221 210.278L111.945 206.57C111.886 206.397 111.969 206.209 112.135 206.135L112.768 205.855L112.767 205.854Z" fill="url(#paint23_linear_1763_19133)"/>
<path d="M113.28 206.378C113.28 206.378 110.076 204.179 109.84 206.031C109.607 207.882 112.727 208.713 114.272 208.022L113.28 206.378Z" fill="url(#paint24_linear_1763_19133)"/>
<path d="M265.79 203.902C266.001 203.499 266.597 203.562 266.719 204.001C267.17 205.625 268.262 208.458 270.553 209.464C270.668 209.515 270.777 209.567 270.883 209.617C270.987 209.306 270.989 208.945 270.74 208.564C270.027 207.475 271.313 205.989 271.313 205.989C271.313 205.989 271.398 207.298 272.394 208.123C273.251 208.833 273.663 210.413 273.076 211.71C271.836 216.526 269.98 222.896 277.212 227.549C284.444 232.203 294.629 218.768 294.629 218.768L289.573 234.792C289.573 234.792 281.77 240.55 272.695 232.454C263.619 224.358 269.636 212.577 269.636 212.577C269.636 212.577 262.714 209.784 265.789 203.904L265.79 203.902Z" fill="url(#paint25_linear_1763_19133)"/>
<path d="M295.895 195.221C295.895 195.221 293.801 185.822 304.566 188.31C304.566 188.31 309.792 187.456 310.058 192.388C310.058 192.388 313.426 194.608 310.961 198.877C310.961 198.877 320.971 195.009 325.334 203.785C329.696 212.56 325.686 217.388 321.483 218.645C321.483 218.645 324.887 220.355 323.275 224.216C321.664 228.077 313.501 230.798 308.678 226.103C308.678 226.103 294.957 227.916 295.231 218.224C295.231 218.224 288.85 214.104 295.553 206.094C302.256 198.084 295.894 195.221 295.894 195.221H295.895Z" fill="url(#paint26_linear_1763_19133)"/>
<path d="M295.305 217.008C297.469 216.359 303.767 215.162 309.759 220.691C310.774 221.629 311.19 223.053 310.828 224.388C309.218 230.312 304.973 247.816 308.695 255.39C308.695 255.39 302.135 262.622 294.977 256.792C294.977 256.792 291.765 242.797 287.559 236.652C284.656 232.411 292.19 220.722 294.096 217.899C294.385 217.471 294.81 217.156 295.305 217.008Z" fill="url(#paint27_linear_1763_19133)"/>
<path d="M301.278 205.234C301.278 205.234 304.478 214.285 304.718 218.277C304.718 218.277 301.182 219.885 297.85 217.171C297.85 217.171 297.501 208.131 296.995 206.513L301.278 205.234Z" fill="url(#paint28_linear_1763_19133)"/>
<path d="M296.833 192.895C296.833 192.895 288.465 204.606 293.467 208.007C298.47 211.409 304.427 203.087 304.427 203.087C304.427 203.087 306.369 196.677 304.339 194.502C302.308 192.328 296.833 192.895 296.833 192.895Z" fill="url(#paint29_linear_1763_19133)"/>
<path d="M300.707 190.098C300.707 190.098 296.863 191.009 296.325 192.748C295.785 194.487 301.777 196.1 303.454 196.179L304.807 203.198C304.807 203.198 308.804 196.596 307.221 192.782C305.637 188.969 300.706 190.098 300.706 190.098H300.707Z" fill="url(#paint30_linear_1763_19133)"/>
<path d="M302.804 202.224C302.804 202.224 306.061 198.451 307.357 200.911C308.653 203.37 304.426 205.216 302.962 204.009L302.804 202.224Z" fill="url(#paint31_linear_1763_19133)"/>
<path d="M286.621 286.176C286.646 286.811 285.53 291.851 284.923 294.539C284.678 295.621 284.849 296.753 285.4 297.715L306.426 333.104C306.68 333.532 306.866 333.996 306.978 334.481C307.363 336.141 308.163 340.211 307.746 343.914L306.658 346.173L311.362 345.104L312.385 332.471L311.053 331.659C309.903 330.957 309.007 329.909 308.494 328.663C306.593 324.044 301.871 312.289 300.654 306.56C299.271 300.049 292.041 294.76 292.041 294.76L293.311 291.757L286.621 286.177V286.176Z" fill="url(#paint32_linear_1763_19133)"/>
<path d="M316.59 340.76C316.59 340.76 314.05 336.732 313.751 335.164C313.452 333.596 312.62 330.827 311.053 331.661C311.053 331.661 310.315 339.277 310.569 342.253C310.824 345.229 307.205 345.133 307.205 345.133C307.205 345.133 306.208 345.273 305.478 346.003C304.974 346.507 305.335 347.382 306.046 347.427C307.23 347.503 309.112 347.523 311.086 347.141C311.776 347.008 312.288 346.421 312.329 345.719L312.851 336.954L316.055 341L316.59 340.758V340.76Z" fill="url(#paint33_linear_1763_19133)"/>
<path d="M299.183 291.817C299.183 291.817 299.925 323.472 300.025 327.967C300.125 332.463 299.315 342.426 294.808 345.404L296.769 346.856C296.769 346.856 299.219 344.773 301.614 340.765C304.304 336.261 305.117 335.439 305.117 335.439L304.224 333.611C303.834 332.811 303.719 331.905 303.899 331.033C304.871 326.319 308.121 310.641 309.007 307.264C310.053 303.278 310.127 297.956 306.488 293.5C302.849 289.045 299.183 291.817 299.183 291.817Z" fill="url(#paint34_linear_1763_19133)"/>
<path d="M303.345 348.282C303.485 348.283 303.603 348.183 303.623 348.045C303.773 346.989 304.397 342.758 304.908 341.663C305.493 340.408 307.405 335.127 304.908 334.68C304.908 334.68 298.698 343.754 297.505 344.976C296.313 346.2 294.809 345.403 294.809 345.403C294.809 345.403 293.647 345.746 292.771 346.866C292.354 347.399 292.743 348.182 293.419 348.188L297.602 348.228C298.817 348.24 299.909 347.501 300.361 346.374C301.098 344.534 302.362 341.837 303.836 340.64L303.071 347.975C303.053 348.138 303.181 348.281 303.346 348.282H303.345Z" fill="url(#paint35_linear_1763_19133)"/>
<path d="M293.987 253.381C293.987 253.381 294.929 256.386 293.481 261.334L284.498 292.705C284.357 293.198 284.623 293.714 285.105 293.886C287.792 294.851 296.625 297.577 308.684 296.746C309.291 296.704 309.799 296.274 309.932 295.679C310.727 292.103 313.437 279.901 313.996 277.394C316.123 267.84 318.497 257.538 308.051 251.309C303.236 253.371 298.745 254.586 293.987 253.381Z" fill="url(#paint36_linear_1763_19133)"/>
<path d="M310.616 221.871C310.616 221.871 320.837 230.365 323.374 241.973C325.911 253.58 308.438 254.814 308.438 254.814C308.438 254.814 306.066 252.165 303.25 253.11C300.433 254.055 303.032 248.487 306.327 248.502C309.622 248.517 308.095 251.122 312.756 249.011C317.296 246.955 320.102 240.594 308.519 230.953C307.847 230.394 307.311 229.682 306.989 228.87C304.739 223.205 306.523 219.491 310.616 221.874V221.871Z" fill="url(#paint37_linear_1763_19133)"/>
</g>
<defs>
<linearGradient id="paint0_linear_1763_19133" x1="154.742" y1="308.183" x2="268.739" y2="117.22" gradientUnits="userSpaceOnUse">
<stop stop-color="#09005D"/>
<stop offset="1" stop-color="#1A0F91"/>
</linearGradient>
<linearGradient id="paint1_linear_1763_19133" x1="211.666" y1="228.84" x2="200.212" y2="314.621" gradientUnits="userSpaceOnUse">
<stop stop-color="#09005D"/>
<stop offset="1" stop-color="#1A0F91"/>
</linearGradient>
<linearGradient id="paint2_linear_1763_19133" x1="316.897" y1="14.2835" x2="142.642" y2="320.317" gradientUnits="userSpaceOnUse">
<stop stop-color="#5253AB"/>
<stop offset="1" stop-color="#4F52FF"/>
</linearGradient>
<linearGradient id="paint3_linear_1763_19133" x1="290.638" y1="-143.858" x2="263.047" y2="-71.974" gradientUnits="userSpaceOnUse">
<stop stop-color="#09005D"/>
<stop offset="1" stop-color="#1A0F91"/>
</linearGradient>
<linearGradient id="paint4_linear_1763_19133" x1="295.451" y1="-142.012" x2="267.859" y2="-70.1288" gradientUnits="userSpaceOnUse">
<stop stop-color="#09005D"/>
<stop offset="1" stop-color="#1A0F91"/>
</linearGradient>
<linearGradient id="paint5_linear_1763_19133" x1="232.634" y1="43.7597" x2="188.958" y2="123.957" gradientUnits="userSpaceOnUse">
<stop stop-color="#4042E2"/>
<stop offset="1" stop-color="#4F52FF"/>
</linearGradient>
<linearGradient id="paint6_linear_1763_19133" x1="180.507" y1="110.507" x2="108.616" y2="256.467" gradientUnits="userSpaceOnUse">
<stop stop-color="#FE7062"/>
<stop offset="1" stop-color="#FF928E"/>
</linearGradient>
<linearGradient id="paint7_linear_1763_19133" x1="134.674" y1="336.962" x2="79.7703" y2="396.68" gradientUnits="userSpaceOnUse">
<stop stop-color="#09005D"/>
<stop offset="1" stop-color="#1A0F91"/>
</linearGradient>
<linearGradient id="paint8_linear_1763_19133" x1="116.853" y1="341.395" x2="121.729" y2="341.395" gradientUnits="userSpaceOnUse">
<stop stop-color="#FEBBBA"/>
<stop offset="1" stop-color="#FF928E"/>
</linearGradient>
<linearGradient id="paint9_linear_1763_19133" x1="138.996" y1="269.424" x2="92.2792" y2="332.744" gradientUnits="userSpaceOnUse">
<stop stop-color="#4042E2"/>
<stop offset="1" stop-color="#4F52FF"/>
</linearGradient>
<linearGradient id="paint10_linear_1763_19133" x1="122.357" y1="325.64" x2="67.4532" y2="385.359" gradientUnits="userSpaceOnUse">
<stop stop-color="#09005D"/>
<stop offset="1" stop-color="#1A0F91"/>
</linearGradient>
<linearGradient id="paint11_linear_1763_19133" x1="99.2765" y1="341.147" x2="103.488" y2="341.147" gradientUnits="userSpaceOnUse">
<stop stop-color="#FEBBBA"/>
<stop offset="1" stop-color="#FF928E"/>
</linearGradient>
<linearGradient id="paint12_linear_1763_19133" x1="130.671" y1="263.283" x2="83.9536" y2="326.601" gradientUnits="userSpaceOnUse">
<stop stop-color="#4042E2"/>
<stop offset="1" stop-color="#4F52FF"/>
</linearGradient>
<linearGradient id="paint13_linear_1763_19133" x1="130.768" y1="221.921" x2="57.4317" y2="296.708" gradientUnits="userSpaceOnUse">
<stop stop-color="#FE7062"/>
<stop offset="1" stop-color="#FF928E"/>
</linearGradient>
<linearGradient id="paint14_linear_1763_19133" x1="157.992" y1="185.143" x2="149.389" y2="209.727" gradientUnits="userSpaceOnUse">
<stop stop-color="#FEBBBA"/>
<stop offset="1" stop-color="#FF928E"/>
</linearGradient>
<linearGradient id="paint15_linear_1763_19133" x1="165.347" y1="187.713" x2="156.743" y2="212.297" gradientUnits="userSpaceOnUse">
<stop stop-color="#FEBBBA"/>
<stop offset="1" stop-color="#FF928E"/>
</linearGradient>
<linearGradient id="paint16_linear_1763_19133" x1="158.737" y1="203.42" x2="165.218" y2="190.346" gradientUnits="userSpaceOnUse">
<stop stop-color="#FEBBBA"/>
<stop offset="1" stop-color="#FF928E"/>
</linearGradient>
<linearGradient id="paint17_linear_1763_19133" x1="118.048" y1="209.447" x2="44.7125" y2="284.235" gradientUnits="userSpaceOnUse">
<stop stop-color="#FE7062"/>
<stop offset="1" stop-color="#FF928E"/>
</linearGradient>
<linearGradient id="paint18_linear_1763_19133" x1="82.4021" y1="249.458" x2="113.932" y2="249.458" gradientUnits="userSpaceOnUse">
<stop stop-color="#FEBBBA"/>
<stop offset="1" stop-color="#FF928E"/>
</linearGradient>
<linearGradient id="paint19_linear_1763_19133" x1="124.279" y1="230.408" x2="141.616" y2="302.645" gradientUnits="userSpaceOnUse">
<stop stop-color="#09005D"/>
<stop offset="1" stop-color="#1A0F91"/>
</linearGradient>
<linearGradient id="paint20_linear_1763_19133" x1="111.591" y1="246.155" x2="121.414" y2="246.155" gradientUnits="userSpaceOnUse">
<stop stop-color="#FEBBBA"/>
<stop offset="1" stop-color="#FF928E"/>
</linearGradient>
<linearGradient id="paint21_linear_1763_19133" x1="106.612" y1="215.754" x2="119.078" y2="215.754" gradientUnits="userSpaceOnUse">
<stop stop-color="#FEBBBA"/>
<stop offset="1" stop-color="#FF928E"/>
</linearGradient>
<linearGradient id="paint22_linear_1763_19133" x1="122.024" y1="207.828" x2="108.318" y2="199.467" gradientUnits="userSpaceOnUse">
<stop stop-color="#FEBBBA"/>
<stop offset="1" stop-color="#FF928E"/>
</linearGradient>
<linearGradient id="paint23_linear_1763_19133" x1="101.064" y1="190.655" x2="118.77" y2="204.642" gradientUnits="userSpaceOnUse">
<stop stop-color="#09005D"/>
<stop offset="1" stop-color="#1A0F91"/>
</linearGradient>
<linearGradient id="paint24_linear_1763_19133" x1="118.424" y1="210.942" x2="106.092" y2="203.421" gradientUnits="userSpaceOnUse">
<stop stop-color="#FEBBBA"/>
<stop offset="1" stop-color="#FF928E"/>
</linearGradient>
<linearGradient id="paint25_linear_1763_19133" x1="262.708" y1="192.613" x2="289.9" y2="236.187" gradientUnits="userSpaceOnUse">
<stop stop-color="#FEBBBA"/>
<stop offset="1" stop-color="#FF928E"/>
</linearGradient>
<linearGradient id="paint26_linear_1763_19133" x1="338.184" y1="188.598" x2="310.723" y2="206.911" gradientUnits="userSpaceOnUse">
<stop stop-color="#09005D"/>
<stop offset="1" stop-color="#1A0F91"/>
</linearGradient>
<linearGradient id="paint27_linear_1763_19133" x1="303.38" y1="235.727" x2="370.181" y2="198.696" gradientUnits="userSpaceOnUse">
<stop stop-color="#FE7062"/>
<stop offset="1" stop-color="#FF928E"/>
</linearGradient>
<linearGradient id="paint28_linear_1763_19133" x1="296.195" y1="222.754" x2="301.292" y2="211.433" gradientUnits="userSpaceOnUse">
<stop stop-color="#FEBBBA"/>
<stop offset="1" stop-color="#FF928E"/>
</linearGradient>
<linearGradient id="paint29_linear_1763_19133" x1="295.931" y1="195.243" x2="306.278" y2="217.639" gradientUnits="userSpaceOnUse">
<stop stop-color="#FEBBBA"/>
<stop offset="1" stop-color="#FF928E"/>
</linearGradient>
<linearGradient id="paint30_linear_1763_19133" x1="330.802" y1="177.53" x2="303.34" y2="195.842" gradientUnits="userSpaceOnUse">
<stop stop-color="#09005D"/>
<stop offset="1" stop-color="#1A0F91"/>
</linearGradient>
<linearGradient id="paint31_linear_1763_19133" x1="300.798" y1="192.993" x2="311.145" y2="215.389" gradientUnits="userSpaceOnUse">
<stop stop-color="#FEBBBA"/>
<stop offset="1" stop-color="#FF928E"/>
</linearGradient>
<linearGradient id="paint32_linear_1763_19133" x1="324.81" y1="363.713" x2="286.828" y2="295.167" gradientUnits="userSpaceOnUse">
<stop stop-color="#FEBBBA"/>
<stop offset="1" stop-color="#FF928E"/>
</linearGradient>
<linearGradient id="paint33_linear_1763_19133" x1="316.617" y1="339.529" x2="305.327" y2="339.423" gradientUnits="userSpaceOnUse">
<stop stop-color="#09005D"/>
<stop offset="1" stop-color="#1A0F91"/>
</linearGradient>
<linearGradient id="paint34_linear_1763_19133" x1="317.056" y1="309.68" x2="354.45" y2="290.801" gradientUnits="userSpaceOnUse">
<stop stop-color="#FEBBBA"/>
<stop offset="1" stop-color="#FF928E"/>
</linearGradient>
<linearGradient id="paint35_linear_1763_19133" x1="306.131" y1="341.47" x2="292.672" y2="341.343" gradientUnits="userSpaceOnUse">
<stop stop-color="#09005D"/>
<stop offset="1" stop-color="#1A0F91"/>
</linearGradient>
<linearGradient id="paint36_linear_1763_19133" x1="288.606" y1="250.782" x2="320.173" y2="322.962" gradientUnits="userSpaceOnUse">
<stop stop-color="#09005D"/>
<stop offset="1" stop-color="#1A0F91"/>
</linearGradient>
<linearGradient id="paint37_linear_1763_19133" x1="321.155" y1="257.974" x2="266.714" y2="177.265" gradientUnits="userSpaceOnUse">
<stop stop-color="#FEBBBA"/>
<stop offset="1" stop-color="#FF928E"/>
</linearGradient>
<clipPath id="clip0_1763_19133">
<rect width="400" height="400" fill="white"/>
</clipPath>
</defs>
</svg>
